<?xml version="1.0" encoding="utf-8"?>
<!-- Generator: Adobe Illustrator 17.0.0, SVG Export Plug-In . SVG Version: 6.00 Build 0)  -->
<!DOCTYPE svg PUBLIC "-//W3C//DTD SVG 1.1//EN" "http://www.w3.org/Graphics/SVG/1.1/DTD/svg11.dtd">
<svg version="1.1" id="Layer_1" xmlns="http://www.w3.org/2000/svg" xmlns:xlink="http://www.w3.org/1999/xlink" x="0px" y="0px"
	 width="512px" height="512px" viewBox="0 0 512 512" enable-background="new 0 0 512 512" xml:space="preserve">
<g>
	<g>
		<defs>
			<rect id="SVGID_1_" y="0" width="578.5" height="531.206"/>
		</defs>
		<clipPath id="SVGID_2_">
			<use xlink:href="#SVGID_1_"  overflow="visible"/>
		</clipPath>
		<g transform="translate(-117.82) scale(1.0375)" clip-path="url(#SVGID_2_)">
			<g>
				<path d="M113.564,0h1074.874v164.5H113.564V0z"/>
				<path fill="#FFFFFF" d="M113.564,164.5h1074.874V329H113.564V164.5z"/>
				<path fill="#009900" d="M113.564,329h1074.874v164.5H113.564V329z"/>
				<path fill="#FF0000" d="M113.564,493.5l356.22-246.75L113.564,0V493.5z"/>
				<path fill="#FFFFFF" d="M286.793,243.954l24.069,10.645h-26.715l5.945,23.923l-16.656-19.2l-16.658,19.2l5.945-23.923h-26.714
					l24.068-10.645l-16.656-19.181l24.07,10.65l5.944-23.923l5.943,23.923l24.069-10.65L286.793,243.954z"/>
			</g>
		</g>
	</g>
</g>
</svg>
