<?xml version="1.0" encoding="utf-8"?>
<!-- Generator: Adobe Illustrator 17.0.0, SVG Export Plug-In . SVG Version: 6.00 Build 0)  -->
<!DOCTYPE svg PUBLIC "-//W3C//DTD SVG 1.1//EN" "http://www.w3.org/Graphics/SVG/1.1/DTD/svg11.dtd">
<svg version="1.1" id="Layer_1" xmlns="http://www.w3.org/2000/svg" xmlns:xlink="http://www.w3.org/1999/xlink" x="0px" y="0px"
	 width="512px" height="512px" viewBox="0 0 512 512" enable-background="new 0 0 512 512" xml:space="preserve">
<path fill="#239E46" d="M0,0h512v512H0V0z"/>
<path d="M0,0h512v341.333H0V0z"/>
<path fill="#E70013" d="M0,0h512v170.667H0V0z"/>
<circle fill="#FFFFFF" cx="238.827" cy="256" r="76.8"/>
<circle cx="255.893" cy="256" r="64"/>
<path fill="#FFFFFF" d="M324.16,213.333l8.164,22.958l22.006-10.46l-10.46,22.006L366.826,256l-22.958,8.164l10.46,22.006
	l-22.006-10.46l-8.164,22.957l-8.164-22.958l-22.006,10.46l10.46-22.006L281.494,256l22.958-8.164l-10.46-22.006l22.006,10.46
	l8.164-22.957L324.16,213.333z"/>
</svg>
