<svg xmlns="http://www.w3.org/2000/svg" width="18.531" height="22.88" viewBox="0 0 18.531 22.88"><defs><style>.a{fill:#fff;}.a,.b,.c,.d,.e,.f{stroke:#000;}.a,.b,.c,.e{stroke-miterlimit:10;}.a,.b{stroke-width:0.8px;}.b,.c,.d,.e,.f{fill:none;}.b,.e,.f{stroke-linecap:round;}.b,.d{stroke-linejoin:round;}</style></defs><g transform="translate(0.5 0.5)"><g transform="translate(10.147 14.497)"><circle class="a" cx="3.742" cy="3.742" r="3.742" transform="translate(0)"/><path class="b" d="M533.67,478.55l.814.8,1.675-1.675" transform="translate(-531.077 -474.833)"/></g><g transform="translate(0)"><path class="c" d="M521.97,456.278,522,446.023l-4.349-4.349h-9.181a.966.966,0,0,0-.966.966v17.4a.966.966,0,0,0,.966.966h9.181" transform="translate(-507.5 -441.674)"/><path class="d" d="M532.849,446.023l-4.349-4.349v3.383a.966.966,0,0,0,.966.966Z" transform="translate(-518.352 -441.674)"/></g><line class="e" x2="9.309" transform="translate(2.594 6.282)"/><line class="e" x2="9.309" transform="translate(2.594 8.698)"/><line class="e" x2="9.309" transform="translate(2.594 11.114)"/><line class="e" x2="8.342" transform="translate(2.594 13.53)"/><path class="f" d="M0,0H5.515" transform="translate(2.594 15.946)"/></g></svg>