<svg xmlns="http://www.w3.org/2000/svg" width="18.473" height="22.356" viewBox="0 0 18.473 22.356"><defs><style>.a,.b,.c{fill:none;stroke:#000;stroke-miterlimit:10;}.b,.c{stroke-linecap:round;}.c{stroke-linejoin:round;}</style></defs><g transform="translate(0.5 0.5)"><g transform="translate(0 0)"><rect class="a" width="17.473" height="21.356" transform="translate(0)"/><path class="b" d="M3407.621,2276.419V2264.77a2.427,2.427,0,0,1-2.427-2.427h-7.765a2.427,2.427,0,0,1-2.427,2.427v11.649a2.427,2.427,0,0,1,2.427,2.427h7.765A2.427,2.427,0,0,1,3407.621,2276.419Z" transform="translate(-3392.575 -2259.916)"/><line class="b" x2="6.795" transform="translate(5.339 14.564)"/><path class="c" d="M3404.657,2268.343l.976,1.917,2.18.307-1.578,1.493.373,2.107-1.95-.995-1.949.995.372-2.107-1.577-1.493,2.18-.307Z" transform="translate(-3395.92 -2262.515)"/></g></g></svg>