<svg xmlns="http://www.w3.org/2000/svg" width="24.039" height="21.419" viewBox="0 0 24.039 21.419"><defs><style>.a,.b,.d{fill:none;}.a,.b{stroke:#000;stroke-linecap:round;stroke-linejoin:round;}.a{stroke-width:1.5px;}.b{stroke-miterlimit:10;stroke-width:2px;}.c{stroke:none;}</style></defs><g transform="translate(-209.25 -359.778)"><g transform="translate(188.281 53.227)"><path class="a" d="M3912.048,518.674h20.442a1.03,1.03,0,0,1,1.048,1.011v13.1a1.03,1.03,0,0,1-1.048,1.01h-13.1l-4.979,4.8v-4.8h-2.359a1.03,1.03,0,0,1-1.048-1.01v-13.1A1.03,1.03,0,0,1,3912.048,518.674Z" transform="translate(-3889.281 -211.373)"/></g><g transform="translate(215 366.93)"><g class="b" transform="translate(0 0)"><ellipse class="c" cx="1.198" cy="1.198" rx="1.198" ry="1.198"/><ellipse class="d" cx="1.198" cy="1.198" rx="0.198" ry="0.198"/></g><g class="b" transform="translate(4.791 0)"><ellipse class="c" cx="1.198" cy="1.198" rx="1.198" ry="1.198"/><ellipse class="d" cx="1.198" cy="1.198" rx="0.198" ry="0.198"/></g><g class="b" transform="translate(9.583 0)"><ellipse class="c" cx="1.198" cy="1.198" rx="1.198" ry="1.198"/><ellipse class="d" cx="1.198" cy="1.198" rx="0.198" ry="0.198"/></g></g></g></svg>