<svg xmlns="http://www.w3.org/2000/svg" width="14" height="9.943" viewBox="0 0 14 9.943">
  <path id="Path_1445" data-name="Path 1445" d="M1529.561,1317.2a4.034,4.034,0,0,1-.449.687q-3.807,3.853-7.634,7.686c-1.024,1.029-1.159,1.025-2.188,0-1.113-1.113-2.233-2.219-3.334-3.344a1.449,1.449,0,0,1-.37-.653.677.677,0,0,1,.378-.824.8.8,0,0,1,.975.177q1.523,1.522,3.044,3.047c.4.4.4.4.793.009,2.383-2.4,4.761-4.8,7.158-7.183a1.5,1.5,0,0,1,.8-.392C1529.161,1316.351,1529.47,1316.71,1529.561,1317.2Z" transform="translate(-1515.561 -1316.402)"/>
</svg>
