<?xml version="1.0" encoding="utf-8"?>
<!-- Generator: Adobe Illustrator 17.0.0, SVG Export Plug-In . SVG Version: 6.00 Build 0)  -->
<!DOCTYPE svg PUBLIC "-//W3C//DTD SVG 1.1//EN" "http://www.w3.org/Graphics/SVG/1.1/DTD/svg11.dtd">
<svg version="1.1" id="Layer_1" xmlns="http://www.w3.org/2000/svg" xmlns:xlink="http://www.w3.org/1999/xlink" x="0px" y="0px"
	 width="460px" height="505px" viewBox="0 0 460 505" enable-background="new 0 0 460 505" xml:space="preserve">
<path fill="#FFA600" d="M274.065,238.412"/>
<path fill="#FFFFFF" d="M326.447,220.649c0,0,117.885,20.501,124.037,132.236"/>
<path fill="#FFFFFF" d="M145.006,342.635c0,0-83.033,77.908-46.13,102.509c36.904,24.602,91.234-43.053,183.491-10.25
	c0,0,12.302,6.15,10.253,10.25c-2.051,4.101-23.577-3.076-23.577-3.076s25.626,7.177,24.602,13.327c-1.025,6.152-25.629,0-25.629,0
	s26.653,3.076,25.629,10.25c-1.025,7.177-26.653,1.027-26.653,1.027s38.955,6.15,19.476,12.3c-9.968,3.149-42.029,0-42.029,0
	c-6.15,0-14.388,2.064-24.117,5.271c-53.496,17.634-152.041,69.877-196.277,3.955c-52.279-77.905,79.19-192.517,107.634-229.62
	c23.577-30.754,119.936-35.879,119.936-35.879c1.025-16.4,0-22.942,0-22.942"/>
<path fill="none" stroke="#000000" stroke-width="2" stroke-linecap="round" stroke-linejoin="round" stroke-miterlimit="10" d="
	M326.447,220.649c0,0,117.885,20.501,124.037,132.236c6.15,111.735,7.388,103.052-1.619,152.115"/>
<path fill="none" stroke="#000000" stroke-width="2" stroke-linecap="round" stroke-linejoin="round" stroke-miterlimit="10" d="
	M145.006,342.635c0,0-83.033,77.908-46.13,102.509c36.904,24.602,91.234-43.053,183.491-10.25c0,0,12.302,6.15,10.253,10.25
	c-2.051,4.101-23.577-3.076-23.577-3.076s25.626,7.177,24.602,13.327c-1.025,6.152-25.629,0-25.629,0s26.653,3.076,25.629,10.25
	c-1.025,7.177-26.653,1.027-26.653,1.027s38.955,6.15,19.476,12.3c-9.968,3.149-42.029,0-42.029,0
	c-6.15,0-14.388,2.064-24.117,5.271C202.577,490.091,179.037,505,156.5,505c-39.25,0-76.318,1.109-115.965,0.905
	c-7.616-0.039-11.61-10.436-16.49-17.708c-52.279-77.905,79.19-192.517,107.634-229.62c23.577-30.754,119.936-35.879,119.936-35.879
	"/>
<path fill="none" stroke="#000000" stroke-width="2" stroke-linecap="round" stroke-linejoin="round" stroke-miterlimit="10" d="
	M151.155,414.39c-21.525-16.4-5.77-72.164-5.77-72.164l-31.133,35.261l-53.535-37.227l64.72-74.109
	c28.61-41.632,126.179-43.452,126.179-43.452s44.078,7.177,74.832-2.049c0,0,120.095,14.801,124.628,143.226l2.385,53.88
	l-47.056-0.29"/>
<path fill="none" stroke="#000000" stroke-width="2" stroke-linecap="round" stroke-linejoin="round" stroke-miterlimit="10" d="
	M410.505,333.409c0,0,9.226,85.082-7.177,89.183L416,505"/>
<path fill="none" stroke="#000000" stroke-width="2" stroke-linecap="round" stroke-linejoin="round" stroke-miterlimit="10" d="
	M287.898,225.352c0,0-5.417,219.192-2.847,278.648"/>
<path fill="#FFFFFF" d="M254.691,220.649c0,0-100.46-8.201-157.864,70.731S-19.01,429.768,24.044,488.197
	c5.043,6.844,9.215,16.948,16.692,16.808c66.765-1.254,113.684,3.894,128.496-1.968c16.778-6.639,32.964-12.309,32.964-12.309
	l-11.48-59.853c0,0-24.623,7.7-64.895,19.187c0,0-74.099,4.308-5.417-72.573l17.427-17.427c0,0-18.452,56.38,4.1,69.706v15.376
	c0,0,78.716-28.797,112.653-17.473L254.691,220.649z"/>
<path fill="none" stroke="#000000" stroke-width="2" stroke-linecap="round" stroke-linejoin="round" stroke-miterlimit="10" d="
	M254.691,220.649c0,0-100.46-8.201-157.864,70.731S-19.01,429.768,24.044,488.197c43.056,58.431,128.41,21.479,145.187,14.84
	c16.778-6.639,32.964-12.309,32.964-12.309l-11.48-59.853c0,0-24.623,7.7-64.895,19.187c0,0-74.099,4.308-5.417-72.573
	l17.427-17.427c0,0-18.452,56.38,4.1,69.706v15.376c0,0,78.716-28.797,112.653-17.473L254.691,220.649z"/>
<path fill="#FFFFFF" d="M254.691,479.774c0,0-15.232-2.555-31.194,3.446c-15.96,6.001-57.299,20.424-65.746,22.78
	c0,0-12.25-1-36.5-1c0,0,68,0,108.5,0C249.284,505,255.245,509.057,254.691,479.774"/>
<path fill="none" stroke="#000000" stroke-width="2" stroke-linecap="round" stroke-linejoin="round" stroke-miterlimit="10" d="
	M254.691,479.774"/>
<path fill="none" stroke="#000000" stroke-width="2" stroke-linecap="round" stroke-linejoin="round" stroke-miterlimit="10" d="
	M254.691,479.774c0,0-15.232-2.555-31.194,3.446c-24.037,9.039-63.86,22.254-65.746,22.78"/>
<path fill="#FFFFFF" d="M412.217,505H451c-0.516-46.775,5.12-34.741-0.516-152.115c-5.639-117.371-124.55-131.725-124.55-131.725
	s-0.959,118.167-1.801,261.912"/>
<path fill="none" stroke="#000000" stroke-width="2" stroke-linecap="round" stroke-linejoin="round" stroke-miterlimit="10" d="
	M412.217,505L412.217,505h40.295c3.758-75.66,3.608-34.741-2.028-152.115c-5.639-117.371-124.55-131.725-124.55-131.725
	s-0.959,118.167-1.801,261.912C324.132,483.072,299.333,506,412.217,505z"/>
<path fill="#FFFFFF" d="M409.841,432.331c0,0,17.532-0.696,7.741-78.769"/>
<path fill="none" stroke="#000000" stroke-width="2" stroke-linecap="round" stroke-linejoin="round" stroke-miterlimit="10" d="
	M422,505c0,0-7.982-39.866-15.159-72.669c0,0,14.532-0.696,4.741-78.769"/>
<path fill="#FFFFFF" d="M69.325,450.729c0,0,2.434-4.867,9.734-7.301"/>
<path fill="none" stroke="#000000" stroke-width="2" stroke-linecap="round" stroke-linejoin="round" stroke-miterlimit="10" d="
	M69.325,450.729c0,0,2.434-4.867,9.734-7.301"/>
<path fill="#FFFFFF" d="M76.626,458.03c0,0,2.434-4.867,9.734-7.301"/>
<path fill="none" stroke="#000000" stroke-width="2" stroke-linecap="round" stroke-linejoin="round" stroke-miterlimit="10" d="
	M76.626,458.03c0,0,2.434-4.867,9.734-7.301"/>
<path fill="#FFFFFF" d="M235.143,506c41.213-4.13,83.357,0,125.451-2.806c64.784-4.318-31.958-101.902-47.389-165.12
	c-0.331-1.351-0.745-2.821-1.886-3.599c-0.981-0.672-2.263-0.662-3.461-0.625c-38.115,1.21-76.16,7.464-112.847,18.549
	c-3.208,0.971-6.882,2.443-7.8,5.687c-0.416,1.465-0.153,3.018,0.119,4.505c8.201,44.715,16.958,73.561,27.021,117.858L220.279,504
	C220.887,506.421,225,504.75,235.143,506"/>
<path fill="none" stroke="#000000" stroke-width="2" stroke-miterlimit="10" d="M271.25,505c32.93-3.3,45.314,3.707,68.25-0.5
	c3.789-0.695,20.232,1.771,22.75,0.5c-22.99-60.721-33.613-103.708-49.045-166.926c-0.331-1.351-0.745-2.821-1.886-3.599
	c-0.981-0.672-2.263-0.662-3.461-0.625c-38.115,1.21-76.16,7.464-112.847,18.549c-3.208,0.971-6.882,2.443-7.8,5.687
	c-0.416,1.465-0.153,3.018,0.119,4.505c8.201,44.715,16.958,73.561,27.021,117.858L220.782,506
	C236.508,506.809,268.765,505.248,271.25,505z"/>
<path fill="#3FBCA1" d="M235.143,506c-7.995-23.779-27.303-83.144-31.968-131.829c-0.46-4.809,2.95-9.124,7.724-9.856l84.8-13.01
	c4.556-0.698,8.919,2.105,10.175,6.539l40.496,142.861c1.3,4.587-2.111,3.463-6.869,3.795c-21.5,1.5-52.697-1.128-82.411,1.5"/>
<path fill="none" stroke="#3FBCA1" stroke-width="2" stroke-miterlimit="10" d="M203.175,374.171
	c-0.46-4.809,2.95-9.124,7.724-9.856l84.8-13.01c4.556-0.698,8.919,2.105,10.175,6.539l40.496,142.861"/>
<path fill="#FFFFFF" d="M190.715,430.872c25.616-6.298,55.764-8.739,91.652,4.02c0,0,12.302,6.15,10.251,10.25
	c-2.049,4.101-23.577-3.074-23.577-3.074s25.629,7.174,24.604,13.327c-1.027,6.15-25.629,0-25.629,0s26.653,3.074,25.629,10.25
	c-1.027,7.174-26.653,1.025-26.653,1.025s38.953,6.15,19.476,12.302c-9.968,3.147-42.029,0-42.029,0
	c-6.152,0-14.39,2.061-24.117,5.269l-18.126,6.486L190.715,430.872z"/>
<path fill="none" stroke="#000000" stroke-width="2" stroke-linecap="round" stroke-linejoin="round" stroke-miterlimit="10" d="
	M190.715,430.872c25.616-6.298,55.764-8.739,91.652,4.02c0,0,12.302,6.15,10.251,10.25c-2.049,4.101-23.577-3.074-23.577-3.074
	s25.629,7.174,24.604,13.327c-1.027,6.15-25.629,0-25.629,0s26.653,3.074,25.629,10.25c-1.027,7.174-26.653,1.025-26.653,1.025
	s38.953,6.15,19.476,12.302c-9.968,3.147-42.029,0-42.029,0c-6.152,0-14.39,2.061-24.117,5.269l-18.126,6.486L190.715,430.872z"/>
<path fill="none" stroke="#000000" stroke-width="2" stroke-linecap="round" stroke-linejoin="round" stroke-miterlimit="10" d="
	M284.608,89.588c0,0-15.548,0-15.548,14.575v19.435c0,0,2.916,14.575,17.49,14.575c14.577,0,32.067,1.942,33.038-18.462
	c0.971-20.406-4.858-30.123-22.348-30.123H284.608z"/>
<path fill="none" stroke="#000000" stroke-width="2" stroke-linecap="round" stroke-linejoin="round" stroke-miterlimit="10" d="
	M247.3,98.534c0,0,10.325-4.484,22.365,1.059"/>
<ellipse transform="matrix(-0.9899 0.1417 -0.1417 -0.9899 590.0792 170.1935)" fill="none" stroke="#000000" stroke-width="2" stroke-linecap="round" stroke-linejoin="round" stroke-miterlimit="10" cx="288.98" cy="106.106" rx="9.23" ry="4.859"/>
<ellipse transform="matrix(-0.9655 -0.2604 0.2604 -0.9655 427.9331 266.9651)" fill="none" stroke="#000000" stroke-width="2" stroke-linecap="round" stroke-linejoin="round" stroke-miterlimit="10" cx="231.651" cy="105.135" rx="9.231" ry="4.86"/>
<path fill="#C93957" d="M251.571,152.261c0,4.561,2.611,8.258,5.829,8.258c3.22,0,5.832-3.698,5.832-8.258
	c0-4.561-2.611-8.258-5.832-8.258C254.182,144.003,251.571,147.701,251.571,152.261"/>
<path fill="none" stroke="#000000" stroke-width="2" stroke-linecap="round" stroke-linejoin="round" stroke-miterlimit="10" d="
	M265.174,147.889c0,0-2.916,5.829-8.745,5.829c-5.829,0-5.829-5.829-5.829-5.829"/>
<path fill="none" stroke="#000000" stroke-width="2" stroke-linecap="round" stroke-linejoin="round" stroke-miterlimit="10" d="
	M255.56,119.71c0,0-4.858,1.942-4.858,7.774c0,7.774,12.632,0,12.632,0"/>
<path d="M254.962,200.509c0,0-10.09,2.766-12.035-3.066c0,0-7.772,9.716-14.575,0c0,0-9.716,12.632-13.603,0
	c-3.887-12.632-24.293-114.659,0-158.385C239.04-4.667,329.408,1.165,352.728,50.72c23.32,49.555,9.716,145.752-3.887,152.555
	c-13.603,6.801-13.603-2.916-13.603-2.916c-7.774,15.546-9.716,0-9.716,0c2.916-21.377,1.942-70.933,1.942-70.933
	c20.406,3.887,21.377-7.774,21.377-7.774c1.945-19.433-22.349-16.519-22.349-16.519c-1.942-32.065-21.377-68.017-21.377-68.017
	s-15.546,44.697-57.329,41.781c0,0,5.832-3.885,6.803-6.801c0,0-26.236,12.987-36.923,11.352c0,0-0.201,58.61-0.102,60.552
	c0.102,1.945,0.102,41.784,37.025,42.755L254.962,200.509z"/>
<path fill="none" stroke="#000000" stroke-width="2" stroke-linecap="round" stroke-linejoin="round" stroke-miterlimit="10" d="
	M254.962,200.509c0,0-10.09,2.766-12.035-3.066c0,0-7.772,9.716-14.575,0c0,0-9.716,12.632-13.603,0
	c-3.887-12.632-24.293-114.659,0-158.385C239.04-4.667,329.408,1.165,352.728,50.72c23.32,49.555,9.716,145.752-3.887,152.555
	c-13.603,6.801-13.603-2.916-13.603-2.916c-7.774,15.546-9.716,0-9.716,0c2.916-21.377,1.942-70.933,1.942-70.933
	c20.406,3.887,21.377-7.774,21.377-7.774c1.945-19.433-22.349-16.519-22.349-16.519c-1.942-32.065-21.377-68.017-21.377-68.017
	s-15.546,44.697-57.329,41.781c0,0,5.832-3.885,6.803-6.801c0,0-26.236,12.987-36.923,11.352c0,0-0.201,58.61-0.102,60.552
	c0.102,1.945,0.102,41.784,37.025,42.755L254.962,200.509z"/>
<line fill="none" stroke="#000000" stroke-width="2" stroke-linecap="round" stroke-linejoin="round" stroke-miterlimit="10" x1="325.521" y1="130.272" x2="325.521" y2="222.709"/>
<path fill="none" stroke="#000000" stroke-width="2" stroke-linecap="round" stroke-linejoin="round" stroke-miterlimit="10" d="
	M254.589,224.651c0.971-15.546,0-37.894,0-37.894c-40.81,0.971-36.923-50.529-36.923-50.529V91.432"/>
<path d="M237.584,106.106c0,2.415-1.739,4.374-3.887,4.374c-2.145,0-3.887-1.958-3.887-4.374c0-2.415,1.742-4.374,3.887-4.374
	C235.844,101.732,237.584,103.691,237.584,106.106"/>
<path d="M294.913,106.106c0,2.415-1.522,4.374-3.4,4.374c-1.878,0-3.402-1.958-3.402-4.374c0-2.415,1.525-4.374,3.402-4.374
	C293.391,101.732,294.913,103.691,294.913,106.106"/>
<path fill="none" stroke="#000000" stroke-width="2" stroke-linecap="round" stroke-linejoin="round" stroke-miterlimit="10" d="
	M281.795,119.71c0,0-3.887,4.858-2.916,9.716"/>
<path fill="none" stroke="#000000" stroke-width="2" stroke-linecap="round" stroke-linejoin="round" stroke-miterlimit="10" d="
	M288.597,121.653c0,0-2.916,4.858-1.942,7.774"/>
<path fill="none" stroke="#000000" stroke-width="2" stroke-linecap="round" stroke-linejoin="round" stroke-miterlimit="10" d="
	M295.399,121.653c0,0-1.942,4.858-0.971,7.774"/>
<path fill="none" stroke="#000000" stroke-width="2" stroke-linecap="round" stroke-linejoin="round" stroke-miterlimit="10" d="
	M226.41,119.71c0,0-2.916,4.858-1.942,7.774"/>
<path fill="none" stroke="#000000" stroke-width="2" stroke-linecap="round" stroke-linejoin="round" stroke-miterlimit="10" d="
	M232.24,119.71c0,0-1.942,4.858-1.942,7.774"/>
<path fill="none" stroke="#000000" stroke-width="2" stroke-linecap="round" stroke-linejoin="round" stroke-miterlimit="10" d="
	M238.07,121.653c0,0-1.942,2.916-1.942,5.829"/>
<path fill="none" stroke="#FFFFFF" stroke-width="2" stroke-linecap="round" stroke-linejoin="round" stroke-miterlimit="10" d="
	M276.937,43.919c0,0-2.916,8.745-7.774,11.661"/>
<path fill="none" stroke="#FFFFFF" stroke-width="2" stroke-linecap="round" stroke-linejoin="round" stroke-miterlimit="10" d="
	M266.249,38.089c0,0-6.803,13.603-19.433,21.377"/>
<path fill="none" stroke="#FFFFFF" stroke-width="2" stroke-linecap="round" stroke-linejoin="round" stroke-miterlimit="10" d="
	M246.815,41.975c0,0-2.916,3.887-7.774,7.774"/>
<path fill="none" stroke="#FFFFFF" stroke-width="2" stroke-linecap="round" stroke-linejoin="round" stroke-miterlimit="10" d="
	M329.408,63.352c0,0,6.801,13.603,6.801,20.406"/>
<path fill="none" stroke="#000000" stroke-width="2" stroke-linecap="round" stroke-linejoin="round" stroke-miterlimit="10" d="
	M274.994,79.871c0,0,18.462-19.433,32.065,1.942"/>
<path fill="none" stroke="#000000" stroke-width="2" stroke-linecap="round" stroke-linejoin="round" stroke-miterlimit="10" d="
	M247.684,104.163c0,0-0.971-14.575-11.661-14.575c-10.688,0-20.404-0.973-25.262,0c-4.858,0.971-9.719,6.801-9.719,14.575v20.406
	c0,0,0,10.688,10.69,10.688h27.207c0,0,8.745-1.942,8.745-16.519V104.163z"/>
<path fill="none" stroke="#000000" stroke-width="2" stroke-linecap="round" stroke-linejoin="round" stroke-miterlimit="10" d="
	M326.319,129.379c0,0,23.137,5.091,20.761-11.534c-2.307-16.148-20.589-12.711-20.589-12.711l-7.772-1.942"/>
</svg>
