<?xml version="1.0" encoding="utf-8"?>
<!-- Generator: Adobe Illustrator 17.0.0, SVG Export Plug-In . SVG Version: 6.00 Build 0)  -->
<!DOCTYPE svg PUBLIC "-//W3C//DTD SVG 1.1//EN" "http://www.w3.org/Graphics/SVG/1.1/DTD/svg11.dtd">
<svg version="1.1" id="Layer_1" xmlns="http://www.w3.org/2000/svg" xmlns:xlink="http://www.w3.org/1999/xlink" x="0px" y="0px"
	 width="30px" height="30px" viewBox="0 0 30 30" enable-background="new 0 0 30 30" xml:space="preserve">
<g id="Group_1" transform="translate(-905 -458)">
	<g id="Ellipse_1" transform="translate(905 458)">
		<circle fill="#FFFFFF" cx="15" cy="15" r="15"/>
		<path d="M15,30C6.729,30,0,23.271,0,15C0,6.729,6.729,0,15,0c8.271,0,15,6.729,15,15C30,23.271,23.271,30,15,30z M15,2.5
			C8.107,2.5,2.5,8.107,2.5,15S8.107,27.5,15,27.5S27.5,21.893,27.5,15S21.893,2.5,15,2.5z"/>
	</g>
	<polygon points="926.25,478.616 919.25,474.577 919.25,466 921.25,466 921.25,473.422 927.25,476.884 	"/>
</g>
</svg>
