<svg xmlns="http://www.w3.org/2000/svg" width="21.845" height="20.635" viewBox="0 0 21.845 20.635"><defs><style>.a{fill:#fff;stroke:#000;}</style></defs><g transform="translate(0.5 0.5)"><path class="a" d="M17.98-1.332H2.867A2.869,2.869,0,0,0,0,1.534v9.249a2.869,2.869,0,0,0,2.856,2.866v4.2l6.032-4.2H17.98a2.869,2.869,0,0,0,2.866-2.866V1.534A2.869,2.869,0,0,0,17.98-1.332Z" transform="translate(-0.001 1.332)"/><path d="M171.293,131.172h9.687v1.221h-9.687Zm0,0" transform="translate(-165.714 -125.744)"/><path d="M171.293,211.172h7.038v1.221h-7.038Zm0,0" transform="translate(-165.714 -203.139)"/></g></svg>