<svg xmlns="http://www.w3.org/2000/svg" width="167.167" height="167.717" viewBox="0 0 167.167 167.717">
  <g id="Group_20329" data-name="Group 20329" transform="translate(-1198.738 -1205.141)">
    <text id="get_started" data-name="get started" transform="translate(1234 1220.482)" font-size="14" font-family="GraphikArabic-Medium, Graphik Arabic" font-weight="500"><tspan x="0" y="0">N</tspan></text>
    <text id="get_started-2" data-name="get started" transform="translate(1343 1245.293)" font-size="14" font-family="GraphikArabic-Medium, Graphik Arabic" font-weight="500"><tspan x="0" y="0">E</tspan></text>
    <text id="get_started-3" data-name="get started" transform="translate(1207 1334.741)" font-size="14" font-family="GraphikArabic-Medium, Graphik Arabic" font-weight="500"><tspan x="0" y="0">W</tspan></text>
    <g id="Group_20261" data-name="Group 20261" transform="translate(0.305)">
      <path id="Path_69023" data-name="Path 69023" d="M0,37.63S17.385,85.757,88.536,53.395C127.277,37.417,133.022,15.806,132.449,0" transform="translate(1347.147 1286.197) rotate(170)" fill="none" stroke="#000" stroke-linecap="round" stroke-width="1.5" stroke-dasharray="4"/>
      <path id="Path_69020" data-name="Path 69020" d="M63.812-.467c35.622,0,65.879,30.2,65.879,63.066S100.122,119,64.5,119,.867,89.383.867,56.522,28.189-.467,63.812-.467Z" transform="translate(1241.065 1206.068) rotate(21)" fill="#fc0"/>
      <g id="Group_20178" data-name="Group 20178" transform="translate(1241.172 1182.785) rotate(21)">
        <path id="Path_68199" data-name="Path 68199" d="M925.931,932.033c-6.645,30.68-49.616,48.359-84.3,40.847s-47.951-37.37-41.307-68.051,51.3-46.562,85.983-39.05,46.27,35.574,39.626,66.254" transform="translate(-780.465 -827.532)" fill="#fff"/>
        <path id="Path_68200" data-name="Path 68200" d="M841.538,945.539a70.065,70.065,0,0,1-14.839-1.6,67.4,67.4,0,0,1-41.216-26.934c-9.619-13.713-13.042-29.922-9.637-45.64S789.072,842.307,803.5,833.8a68.869,68.869,0,0,1,89.883,19.466c9.619,13.713,13.042,29.921,9.637,45.64-6.024,27.811-32.07,46.63-61.485,46.63m-4.326-119.213a64.615,64.615,0,0,0-32.894,8.859c-14.04,8.274-23.595,21.244-26.9,36.521s.023,31.036,9.382,44.379a65.8,65.8,0,0,0,40.242,26.288,68.5,68.5,0,0,0,14.5,1.562c28.676,0,54.053-18.3,59.915-45.364,3.308-15.276-.024-31.037-9.382-44.379A65.805,65.805,0,0,0,851.829,827.9a69.05,69.05,0,0,0-14.618-1.577" transform="translate(-766.029 -804.051)"/>
        <path id="Path_68201" data-name="Path 68201" d="M851.932,950.353a.8.8,0,0,1-.666-1.248l66.708-99.756a.8.8,0,1,1,1.333.891L852.6,950a.8.8,0,0,1-.667.357" transform="translate(-811.882 -818.585)"/>
        <path id="Path_68202" data-name="Path 68202" d="M910.505,956.685a.8.8,0,0,1-.468-.151L807.221,882.481a.8.8,0,0,1,.938-1.3l102.816,74.052a.8.8,0,0,1-.47,1.453" transform="translate(-785.388 -837.77)"/>
        <path id="Path_68205" data-name="Path 68205" d="M943.26,1038.654c-15.206,13.3,17.748,18.972,17.748,18.972s-3.06-31.824-17.748-18.972m5.508,8.568a3.06,3.06,0,1,1,3.06-3.06,3.06,3.06,0,0,1-3.06,3.06" transform="translate(-942.336 -990.74)"/>
        <path id="Path_68212" data-name="Path 68212" d="M818.16,776.251c-15.206,13.305,17.748,18.972,17.748,18.972s-3.06-31.824-17.748-18.972m5.508,8.568a3.06,3.06,0,1,1,3.06-3.06,3.06,3.06,0,0,1-3.06,3.06" transform="translate(-390.453 -922.047) rotate(20)"/>
        <path id="Path_69022" data-name="Path 69022" d="M0,53.256s15.579,47.394,86.73,15.805C147.644,44.539,128.3,0,128.3,0" transform="translate(2.99 82.711) rotate(-25)" fill="none" stroke="#000" stroke-linecap="round" stroke-width="1.5" stroke-dasharray="4"/>
      </g>
    </g>
    <text id="get_started-4" data-name="get started" transform="translate(1316.5 1355.293)" font-size="14" font-family="GraphikArabic-Medium, Graphik Arabic" font-weight="500"><tspan x="0" y="0">S</tspan></text>
  </g>
</svg>
