<svg xmlns="http://www.w3.org/2000/svg" width="17.456" height="17.456" viewBox="0 0 17.456 17.456">
  <g id="currency-white" transform="translate(0.599 0.6)">
    <g id="Group_1" data-name="Group 1" transform="translate(5.99 3.423)">
      <path id="Path_1" data-name="Path 1" d="M741.608,968.99v.856a.428.428,0,0,0,.428.428h3.422a.428.428,0,0,0,.428-.428V968.8a.427.427,0,0,0-.208-.367l-3.863-2.318a.427.427,0,0,1-.208-.367v-1.041a.428.428,0,0,1,.428-.428h3.422a.428.428,0,0,1,.428.428v.856" transform="translate(-741.608 -962.573)" fill="none" stroke="#fff" stroke-miterlimit="10" stroke-width="1.2"/>
      <line id="Line_1" data-name="Line 1" y1="1.711" transform="translate(2.139)" fill="none" stroke="#fff" stroke-miterlimit="10" stroke-width="1.2"/>
      <line id="Line_2" data-name="Line 2" y1="1.711" transform="translate(2.139 7.701)" fill="none" stroke="#fff" stroke-miterlimit="10" stroke-width="1.2"/>
    </g>
    <circle id="Ellipse_1" data-name="Ellipse 1" cx="8.128" cy="8.128" r="8.128" transform="translate(0.001 0)" fill="none" stroke="#fff" stroke-miterlimit="10" stroke-width="1.2"/>
    <path id="Path_2" data-name="Path 2" d="M746.608,952.284a8.128,8.128,0,0,1,8.128,8.128" transform="translate(-738.479 -952.283)" fill="none" stroke="#fff" stroke-miterlimit="10" stroke-width="1.2"/>
  </g>
</svg>
