<svg xmlns="http://www.w3.org/2000/svg" width="17.457" height="17.457" viewBox="0 0 17.457 17.457"><defs><style>.a{fill:none;stroke:#000;stroke-miterlimit:10;stroke-width:1.2px;}</style></defs><g transform="translate(0.599 0.6)"><g transform="translate(5.99 3.423)"><path class="a" d="M741.608,968.99v.856a.428.428,0,0,0,.428.428h3.422a.428.428,0,0,0,.428-.428V968.8a.427.427,0,0,0-.208-.367l-3.863-2.318a.427.427,0,0,1-.208-.367v-1.041a.428.428,0,0,1,.428-.428h3.422a.428.428,0,0,1,.428.428v.856" transform="translate(-741.608 -962.573)"/><line class="a" y1="1.711" transform="translate(2.139)"/><line class="a" y1="1.711" transform="translate(2.139 7.701)"/></g><ellipse class="a" cx="8.128" cy="8.128" rx="8.128" ry="8.128" transform="translate(0.001 0)"/><path class="a" d="M746.608,952.284a8.128,8.128,0,0,1,8.128,8.128" transform="translate(-738.479 -952.283)"/></g></svg>