<svg xmlns="http://www.w3.org/2000/svg" xmlns:xlink="http://www.w3.org/1999/xlink" width="166.055" height="189.437" viewBox="0 0 166.055 189.437">
  <defs>
    <clipPath id="clip-path">
      <rect id="Rectangle_9009" data-name="Rectangle 9009" width="166.055" height="189.437" transform="translate(1201 2123)" fill="#fff" stroke="#707070" stroke-width="1"/>
    </clipPath>
    <clipPath id="clip-path-2">
      <rect id="Rectangle_9008" data-name="Rectangle 9008" width="146.534" height="374.532" fill="none" stroke="#707070" stroke-width="1.5"/>
    </clipPath>
  </defs>
  <g id="Mask_Group_19054" data-name="Mask Group 19054" transform="translate(-1201 -2123)" clip-path="url(#clip-path)">
    <g id="Group_20180" data-name="Group 20180" transform="translate(1213.462 2148.916)">
      <g id="Group_20179" data-name="Group 20179" clip-path="url(#clip-path-2)">
        <path id="Path_69024" data-name="Path 69024" d="M112.11,35.673s-5.211,0-5.211,4.884v6.513s.977,4.884,5.862,4.884,10.747.651,11.072-6.187-1.628-10.1-7.49-10.1Z" transform="translate(-24.255 -8.094)" fill="none" stroke="#000" stroke-linecap="round" stroke-linejoin="round" stroke-width="1.5"/>
        <path id="Path_69025" data-name="Path 69025" d="M97.466,39.383a9.8,9.8,0,0,1,7.5.355" transform="translate(-22.115 -8.806)" fill="none" stroke="#000" stroke-linecap="round" stroke-linejoin="round" stroke-width="1.5"/>
        <path id="Path_69026" data-name="Path 69026" d="M111.57,42.781c.128.89,1.6,1.416,3.293,1.174s2.959-1.16,2.831-2.05-1.6-1.416-3.293-1.174S111.443,41.891,111.57,42.781Z" transform="translate(-25.313 -9.228)" fill="none" stroke="#000" stroke-linecap="round" stroke-linejoin="round" stroke-width="1.5"/>
        <path id="Path_69027" data-name="Path 69027" d="M86.81,41.088c-.234.868.913,1.933,2.563,2.377s3.177.1,3.411-.766-.913-1.933-2.563-2.377S87.044,40.22,86.81,41.088Z" transform="translate(-19.69 -9.105)" fill="none" stroke="#000" stroke-linecap="round" stroke-linejoin="round" stroke-width="1.5"/>
        <path id="Path_69028" data-name="Path 69028" d="M99.317,62.029c0,1.528.875,2.768,1.954,2.768s1.954-1.239,1.954-2.768-.875-2.767-1.954-2.767-1.954,1.239-1.954,2.767" transform="translate(-22.535 -13.446)" fill="#c93957"/>
        <path id="Path_69029" data-name="Path 69029" d="M103.78,60.946A3.614,3.614,0,0,1,100.85,62.9,1.913,1.913,0,0,1,98.9,60.946" transform="translate(-22.439 -13.828)" fill="none" stroke="#000" stroke-linecap="round" stroke-linejoin="round" stroke-width="1.5"/>
        <path id="Path_69030" data-name="Path 69030" d="M100.568,48.731a2.8,2.8,0,0,0-1.628,2.605c0,2.605,4.234,0,4.234,0" transform="translate(-22.449 -11.057)" fill="none" stroke="#000" stroke-linecap="round" stroke-linejoin="round" stroke-width="1.5"/>
        <path id="Path_69031" data-name="Path 69031" d="M95.68,64.98s-3.382.927-4.033-1.027c0,0-2.6,3.256-4.884,0,0,0-3.256,4.234-4.559,0s-8.142-38.426,0-53.081,38.426-12.7,46.242,3.908,3.256,48.847-1.3,51.127-4.559-.977-4.559-.977c-2.605,5.21-3.256,0-3.256,0,.977-7.164.651-23.772.651-23.772,6.839,1.3,7.164-2.605,7.164-2.605.652-6.513-7.49-5.536-7.49-5.536-.651-10.746-7.164-22.795-7.164-22.795s-5.21,14.98-19.213,14c0,0,1.954-1.3,2.28-2.279,0,0-8.793,4.353-12.374,3.8,0,0-.067,19.642-.034,20.293s.034,14,12.408,14.329Z" transform="translate(-17.761 -0.227)"/>
        <path id="Path_69032" data-name="Path 69032" d="M131.374,53.309V84.288s37.449,6.513,39.4,42.008,2.931,74.9-1.3,88.9c0,0-1.628,15.957-4.885,17.585,0,0-1.628.652.326-4.884,0,0-.652,6.187-2.605,6.513,0,0-1.5-.163-1.565-2.85s-.715-16.363-.715-16.363" transform="translate(-29.808 -12.096)" fill="none" stroke="#000" stroke-linecap="round" stroke-linejoin="round" stroke-width="1.5"/>
        <path id="Path_69033" data-name="Path 69033" d="M44.407,119.22s-26.378,24.749-14.654,32.565,28.983-13.677,58.29-3.256c0,0,3.908,1.954,3.257,3.256s-7.49-.977-7.49-.977,8.141,2.28,7.815,4.234-8.142,0-8.142,0,8.467.977,8.142,3.256-8.467.326-8.467.326,12.375,1.954,6.187,3.907c-3.167,1-13.352,0-13.352,0a26.945,26.945,0,0,0-7.661,1.675c-16.994,5.6-48.3,22.2-62.352,1.256C-10.628,140.713,31.137,104.3,40.173,92.517c7.49-9.77,38.1-11.4,38.1-11.4.325-5.21,0-12.7,0-12.7C64.6,68.744,65.9,51.485,65.9,51.485V36.472" transform="translate(-0.48 -8.275)" fill="none" stroke="#000" stroke-linecap="round" stroke-linejoin="round" stroke-width="1.5"/>
        <path id="Path_69034" data-name="Path 69034" d="M133.3,129.2s2.931,27.028-2.28,28.331l3.908,66.757h-88.9c-.325-17.91,4.884-69.363,4.884-69.363C44.075,149.717,49.08,132,49.08,132l-9.89,11.2L22.183,131.377l20.56-23.543c9.089-13.226,40.084-13.8,40.084-13.8s14,2.28,23.772-.651c0,0,38.151,4.7,39.591,45.5L146.948,156,132,155.9" transform="translate(-5.033 -21.188)" fill="none" stroke="#000" stroke-linecap="round" stroke-linejoin="round" stroke-width="1.5"/>
        <path id="Path_69035" data-name="Path 69035" d="M115.2,95.313s-1.721,107.436-.9,126.324" transform="translate(-25.884 -21.626)" fill="none" stroke="#000" stroke-linecap="round" stroke-linejoin="round" stroke-width="1.5"/>
        <path id="Path_69036" data-name="Path 69036" d="M76.8,432.185c-.857-.571-1.3-3.582-1.3-3.582s-21.819,6.187-16.933,2.6,9.607-6.349,9.607-6.349C58.2,370.839,56.655,362.335,53.027,254.71h88.9c-.619,120.492-1.133,126.714,1.954,166.077,0,0,12.375,2.28,14.654,7.816,0,0,1.628,3.582-19.539-3.908,0,0,0,4.884-1.628,4.884s-18.888-28.125-31.914-156.43H92.431S82.661,436.093,76.8,432.185" transform="translate(-12.032 -57.793)"/>
        <path id="Path_69037" data-name="Path 69037" d="M79,93.357s-31.914-2.605-50.15,22.469-36.8,43.963-23.121,62.524,40.793,6.823,46.123,4.714,10.472-3.91,10.472-3.91l-3.647-19.014s-7.822,2.446-20.616,6.1c0,0-23.539,1.368-1.721-23.055l5.536-5.536s-5.862,17.91,1.3,22.144v4.884s25.006-9.148,35.787-5.551Z" transform="translate(-0.227 -21.165)" fill="#fc0"/>
        <path id="Path_69038" data-name="Path 69038" d="M79,93.357s-31.914-2.605-50.15,22.469-36.8,43.963-23.121,62.524,40.793,6.823,46.123,4.714,10.472-3.91,10.472-3.91l-3.647-19.014s-7.822,2.446-20.616,6.1c0,0-23.539,1.368-1.721-23.055l5.536-5.536s-5.862,17.91,1.3,22.144v4.884s25.006-9.148,35.787-5.551Z" transform="translate(-0.227 -21.165)" fill="none" stroke="#000" stroke-linecap="round" stroke-linejoin="round" stroke-width="1.5"/>
        <path id="Path_69039" data-name="Path 69039" d="M89.671,199.807a21.242,21.242,0,0,0-9.91,1.095c-5.07,1.907-26.405,9.529-29.089,10.277,0,0-1.586,18.851-2.632,44.553,0,0,41.761,8.966,41.63-55.925" transform="translate(-10.9 -45.296)" fill="#fff" stroke="#707070" stroke-width="1.5"/>
        <path id="Path_69040" data-name="Path 69040" d="M89.671,199.807a21.242,21.242,0,0,0-9.91,1.095c-5.07,1.907-26.405,9.529-29.089,10.277,0,0-1.586,18.851-2.632,44.553,0,0,41.761,8.966,41.63-55.925" transform="translate(-10.9 -45.296)" fill="none" stroke="#000" stroke-linecap="round" stroke-linejoin="round" stroke-width="1.5"/>
        <path id="Path_69041" data-name="Path 69041" d="M160.03,232.232V224.5l9.391-.326c4.885-13.026,2.931-51.452,1.14-88.739S130.994,93.59,130.994,93.59s-.3,37.539-.571,83.2c0,0-1.044,54.34,29.607,55.439" transform="translate(-29.591 -21.235)" fill="#fc0"/>
        <path id="Path_69042" data-name="Path 69042" d="M160.03,232.232V224.5l9.391-.326c4.885-13.026,2.931-51.452,1.14-88.739S130.994,93.59,130.994,93.59s-.3,37.539-.571,83.2C130.423,176.793,129.378,231.133,160.03,232.232Z" transform="translate(-29.591 -21.235)" fill="none" stroke="#000" stroke-linecap="round" stroke-linejoin="round" stroke-width="1.5"/>
        <path id="Path_69044" data-name="Path 69044" d="M167.367,236.665s-1.911-53.227-4.191-63.647c0,0,5.569-.221,2.459-25.023" transform="translate(-38.024 -33.563)" fill="none" stroke="#000" stroke-linecap="round" stroke-linejoin="round" stroke-width="1.5"/>
        <path id="Path_69045" data-name="Path 69045" d="M92.489,42.4a1.312,1.312,0,1,1-1.3-1.464,1.391,1.391,0,0,1,1.3,1.464" transform="translate(-20.394 -9.289)"/>
        <path id="Path_69046" data-name="Path 69046" d="M117.437,42.4a1.176,1.176,0,1,1-1.14-1.464,1.334,1.334,0,0,1,1.14,1.464" transform="translate(-26.129 -9.289)"/>
        <path id="Path_69047" data-name="Path 69047" d="M112.117,48.731a4.6,4.6,0,0,0-.977,3.256" transform="translate(-25.205 -11.057)" fill="none" stroke="#000" stroke-linecap="round" stroke-linejoin="round" stroke-width="1.5"/>
        <path id="Path_69048" data-name="Path 69048" d="M115.157,49.573s-.977,1.628-.651,2.605" transform="translate(-25.966 -11.248)" fill="none" stroke="#000" stroke-linecap="round" stroke-linejoin="round" stroke-width="1.5"/>
        <path id="Path_69049" data-name="Path 69049" d="M118.194,49.573a4.905,4.905,0,0,0-.325,2.605" transform="translate(-26.723 -11.248)" fill="none" stroke="#000" stroke-linecap="round" stroke-linejoin="round" stroke-width="1.5"/>
        <path id="Path_69050" data-name="Path 69050" d="M88.2,48.731s-.977,1.628-.651,2.605" transform="translate(-19.849 -11.057)" fill="none" stroke="#000" stroke-linecap="round" stroke-linejoin="round" stroke-width="1.5"/>
        <path id="Path_69051" data-name="Path 69051" d="M90.746,48.731a9.488,9.488,0,0,0-.651,2.605" transform="translate(-20.442 -11.057)" fill="none" stroke="#000" stroke-linecap="round" stroke-linejoin="round" stroke-width="1.5"/>
        <path id="Path_69052" data-name="Path 69052" d="M93.274,49.573a4.127,4.127,0,0,0-.652,1.954" transform="translate(-21.016 -11.248)" fill="none" stroke="#000" stroke-linecap="round" stroke-linejoin="round" stroke-width="1.5"/>
        <path id="Path_69053" data-name="Path 69053" d="M109.548,15.875s-.977,2.931-2.605,3.908" transform="translate(-24.265 -3.602)" fill="none" stroke="#fff" stroke-linecap="round" stroke-linejoin="round" stroke-width="1.5"/>
        <path id="Path_69054" data-name="Path 69054" d="M103.769,13.348a19.89,19.89,0,0,1-6.513,7.164" transform="translate(-22.067 -3.029)" fill="none" stroke="#fff" stroke-linecap="round" stroke-linejoin="round" stroke-width="1.5"/>
        <path id="Path_69055" data-name="Path 69055" d="M96.49,15.033a16.226,16.226,0,0,1-2.605,2.605" transform="translate(-21.302 -3.411)" fill="none" stroke="#fff" stroke-linecap="round" stroke-linejoin="round" stroke-width="1.5"/>
        <path id="Path_69056" data-name="Path 69056" d="M133.059,24.3s2.28,4.559,2.28,6.839" transform="translate(-30.191 -5.514)" fill="none" stroke="#fff" stroke-linecap="round" stroke-linejoin="round" stroke-width="1.5"/>
        <path id="Path_69057" data-name="Path 69057" d="M109.471,30.665s6.187-6.513,10.746.651" transform="translate(-24.839 -6.343)" fill="none" stroke="#000" stroke-linecap="round" stroke-linejoin="round" stroke-width="1.5"/>
        <path id="Path_69058" data-name="Path 69058" d="M93.044,40.515s-.325-4.884-3.908-4.884-6.838-.326-8.466,0-3.257,2.279-3.257,4.884v6.839s0,3.582,3.583,3.582h9.118s2.931-.651,2.931-5.536Z" transform="translate(-17.565 -8.052)" fill="none" stroke="#000" stroke-linecap="round" stroke-linejoin="round" stroke-width="1.5"/>
        <path id="Path_69059" data-name="Path 69059" d="M130.972,50.346s7.754,1.706,6.958-3.866c-.773-5.412-6.9-4.26-6.9-4.26l-2.605-.651" transform="translate(-29.139 -9.432)" fill="none" stroke="#000" stroke-linecap="round" stroke-linejoin="round" stroke-width="1.5"/>
        <path id="Path_69060" data-name="Path 69060" d="M25.72,187.241a5.354,5.354,0,0,1,3.092-2.319" transform="translate(-5.836 -41.958)" fill="#fff" stroke="#707070" stroke-width="1.5"/>
        <path id="Path_69061" data-name="Path 69061" d="M25.72,187.241a5.354,5.354,0,0,1,3.092-2.319" transform="translate(-5.836 -41.958)" fill="none" stroke="#000" stroke-linecap="round" stroke-linejoin="round" stroke-width="1.5"/>
        <path id="Path_69062" data-name="Path 69062" d="M28.72,190.241a5.354,5.354,0,0,1,3.092-2.319" transform="translate(-6.516 -42.639)" fill="#fff" stroke="#707070" stroke-width="1.5"/>
        <path id="Path_69063" data-name="Path 69063" d="M28.72,190.241a5.354,5.354,0,0,1,3.092-2.319" transform="translate(-6.516 -42.639)" fill="none" stroke="#000" stroke-linecap="round" stroke-linejoin="round" stroke-width="1.5"/>
        <path id="Path_69064" data-name="Path 69064" d="M90.187,210.394c13.093-1.312,29.465-5.338,41.063-11.19-7.3-19.29-12.182-37.885-17.084-57.968a1.372,1.372,0,0,0-1.7-1.342,139.4,139.4,0,0,0-35.848,5.893c-1.02.308-2.187.777-2.479,1.807a3.167,3.167,0,0,0,.038,1.431c2.605,14.2,5.387,23.369,8.584,37.441l5.718,22.72a1.6,1.6,0,0,0,1.707,1.209" transform="translate(-16.807 -31.74)" fill="#fff" stroke="#707070" stroke-width="1.5"/>
        <path id="Path_69065" data-name="Path 69065" d="M90.187,210.394c13.093-1.312,29.465-5.338,41.063-11.19-7.3-19.29-12.182-37.885-17.084-57.968a1.372,1.372,0,0,0-1.7-1.342,139.4,139.4,0,0,0-35.848,5.893c-1.02.308-2.187.777-2.479,1.807a3.167,3.167,0,0,0,.038,1.431c2.605,14.2,5.387,23.369,8.584,37.441l5.718,22.72A1.6,1.6,0,0,0,90.187,210.394Z" transform="translate(-16.807 -31.74)" fill="none" stroke="#000" stroke-width="1.5"/>
        <path id="Path_69067" data-name="Path 69067" d="M75.6,179.283a48.674,48.674,0,0,1,29.116,1.277s3.908,1.954,3.256,3.256-7.49-.976-7.49-.976,8.142,2.279,7.816,4.234-8.142,0-8.142,0,8.467.976,8.142,3.256-8.467.325-8.467.325,12.374,1.954,6.187,3.908c-3.167,1-13.351,0-13.351,0a26.928,26.928,0,0,0-7.661,1.674l-5.758,2.06Z" transform="translate(-17.154 -40.308)" fill="#fff" stroke="#707070" stroke-width="1.5"/>
        <path id="Path_69068" data-name="Path 69068" d="M75.6,179.283a48.674,48.674,0,0,1,29.116,1.277s3.908,1.954,3.256,3.256-7.49-.976-7.49-.976,8.142,2.279,7.816,4.234-8.142,0-8.142,0,8.467.976,8.142,3.256-8.467.325-8.467.325,12.374,1.954,6.187,3.908c-3.167,1-13.351,0-13.351,0a26.928,26.928,0,0,0-7.661,1.674l-5.758,2.06Z" transform="translate(-17.154 -40.308)" fill="none" stroke="#000" stroke-linecap="round" stroke-linejoin="round" stroke-width="1.5"/>
      </g>
    </g>
  </g>
</svg>
