<svg xmlns="http://www.w3.org/2000/svg" width="22.849" height="20.064" viewBox="0 0 22.849 20.064"><defs><style>.a{fill:none;stroke:#000;stroke-linecap:round;stroke-linejoin:round;stroke-width:1.5px;}</style></defs><g transform="translate(0.75 0.75)"><path class="a" d="M568.28,866.5H553.428a.929.929,0,0,0-.928.928v10.21a.929.929,0,0,0,.928.928h2.785v4.641l6.5-4.641h5.569a.929.929,0,0,0,.928-.928v-10.21A.929.929,0,0,0,568.28,866.5Z" transform="translate(-552.5 -866.5)"/><path class="a" d="M564.5,881.567h1.856L571,885.28v-3.713h2.785a.929.929,0,0,0,.928-.928v-10.21a.929.929,0,0,0-.928-.928h-.928" transform="translate(-553.361 -866.715)"/></g></svg>