<?xml version="1.0" encoding="utf-8"?>
<!-- Generator: Adobe Illustrator 17.0.0, SVG Export Plug-In . SVG Version: 6.00 Build 0)  -->
<!DOCTYPE svg PUBLIC "-//W3C//DTD SVG 1.1//EN" "http://www.w3.org/Graphics/SVG/1.1/DTD/svg11.dtd">
<svg version="1.1" id="Layer_1" xmlns="http://www.w3.org/2000/svg" xmlns:xlink="http://www.w3.org/1999/xlink" x="0px" y="0px"
	 width="21.91px" height="21.78px" viewBox="0 0 21.91 21.78" enable-background="new 0 0 21.91 21.78" xml:space="preserve">
<g>
	<path d="M0.847,16.284c-0.197,0-0.386-0.113-0.474-0.304c-0.121-0.262-0.006-0.572,0.256-0.692l3.755-1.729V11.38
		c0-0.288,0.234-0.522,0.522-0.522c0.288,0,0.522,0.234,0.522,0.522v2.513c0,0.204-0.119,0.389-0.304,0.474l-4.059,1.869
		C0.994,16.268,0.92,16.284,0.847,16.284z"/>
	<path d="M6.13,12.482c-0.044,0-0.089-0.006-0.133-0.017C3.231,11.737,2.855,8.356,2.84,8.212C2.838,8.195,2.837,8.177,2.837,8.159
		V4.358c0-2.545,2.4-3.266,3.668-3.292l1.235,0c0.288,0,0.522,0.234,0.522,0.522S8.028,2.11,7.74,2.11H6.516
		C6.42,2.112,3.881,2.202,3.881,4.358v3.77c0.034,0.264,0.416,2.81,2.381,3.327c0.279,0.073,0.445,0.359,0.372,0.638
		C6.573,12.327,6.361,12.482,6.13,12.482z"/>
	<path d="M13.251,1.195l-1.474,0c-1.514,0.031-4.378,0.892-4.378,3.929v4.537c0,0.021,0.001,0.042,0.003,0.063
		c0.013,0.13,0.278,2.479,1.842,3.987v2.394l-4.482,2.063c-0.312,0.144-0.449,0.514-0.305,0.826c0.105,0.228,0.33,0.363,0.566,0.363
		c0.087,0,0.176-0.018,0.26-0.057l4.844-2.23c0.221-0.102,0.362-0.323,0.362-0.566v-1.95c0.213,0.096,0.437,0.181,0.68,0.245
		c0.053,0.014,0.106,0.021,0.159,0.021c0.276,0,0.528-0.185,0.602-0.465c0.087-0.333-0.111-0.674-0.444-0.761
		c-2.345-0.617-2.801-3.656-2.842-3.971v-4.5c0-2.573,3.03-2.68,3.145-2.683h1.461c0.344,0,0.623-0.279,0.623-0.623
		S13.595,1.195,13.251,1.195z"/>
	<path d="M12.754,1.195l1.474,0c1.514,0.031,4.378,0.892,4.378,3.929v4.537c0,0.021-0.001,0.042-0.003,0.063
		c-0.013,0.13-0.278,2.479-1.842,3.987v2.394l4.482,2.063c0.312,0.144,0.449,0.514,0.305,0.826c-0.105,0.228-0.33,0.363-0.566,0.363
		c-0.087,0-0.176-0.018-0.26-0.057l-4.844-2.23c-0.221-0.102-0.362-0.323-0.362-0.566v-1.95c-0.213,0.096-0.437,0.181-0.68,0.245
		c-0.053,0.014-0.106,0.021-0.159,0.021c-0.276,0-0.528-0.185-0.602-0.465c-0.087-0.333,0.111-0.674,0.444-0.761
		c2.345-0.617,2.801-3.656,2.842-3.971v-4.5c0-2.573-3.03-2.68-3.145-2.683h-1.461c-0.344,0-0.623-0.279-0.623-0.623
		S12.41,1.195,12.754,1.195z"/>
</g>
</svg>
