<?xml version="1.0" encoding="utf-8"?>
<!-- Generator: Adobe Illustrator 17.0.0, SVG Export Plug-In . SVG Version: 6.00 Build 0)  -->
<!DOCTYPE svg PUBLIC "-//W3C//DTD SVG 1.1//EN" "http://www.w3.org/Graphics/SVG/1.1/DTD/svg11.dtd">
<svg version="1.1" id="Layer_1" xmlns="http://www.w3.org/2000/svg" xmlns:xlink="http://www.w3.org/1999/xlink" x="0px" y="0px"
	 width="13px" height="28px" viewBox="0 0 13 28" enable-background="new 0 0 13 28" xml:space="preserve">
<path fill="#FFFFFF" d="M5.5,28.375c-0.041,0-0.083-0.005-0.124-0.016C5.155,28.303,5,28.104,5,27.875V18H1.113
	c-0.174,0-0.335-0.09-0.426-0.238c-0.091-0.148-0.098-0.333-0.02-0.488l8.38-16.527c0.111-0.22,0.368-0.325,0.6-0.25
	c0.234,0.076,0.378,0.312,0.339,0.555L7.912,14h4.921c0.177,0,0.34,0.093,0.43,0.245c0.09,0.152,0.093,0.34,0.008,0.495
	L5.938,28.115C5.849,28.278,5.679,28.375,5.5,28.375z M1.927,17H5.5C5.776,17,6,17.224,6,17.5v8.423L11.989,15H7.326
	c-0.146,0-0.286-0.064-0.38-0.176c-0.095-0.111-0.137-0.259-0.113-0.403L8.494,4.049L1.927,17z"/>
</svg>
