<svg xmlns="http://www.w3.org/2000/svg" width="94.301" height="88.633" viewBox="0 0 94.301 88.633">
  <g id="Group_19013" data-name="Group 19013" transform="translate(0.884 0.884)">
    <path id="Path_58687" data-name="Path 58687" d="M590.5,1426.3a40.241,40.241,0,0,1,34.2-39.781" transform="translate(-584.465 -1380.029)" fill="none" stroke="#000" stroke-width="2.5"/>
    <path id="Path_58688" data-name="Path 58688" d="M670.738,1406.29a40.235,40.235,0,0,1-80.015,6.032" transform="translate(-584.24 -1360.023)" fill="none" stroke="#000" stroke-width="2.5"/>
    <path id="Path_58689" data-name="Path 58689" d="M610.5,1386.29a40.235,40.235,0,0,1,40.033,36.208" transform="translate(-564.233 -1380.255)" fill="none" stroke="#000" stroke-width="2.5"/>
    <path id="Path_58690" data-name="Path 58690" d="M600.5,1430.673v-10.337a8.047,8.047,0,0,1,8.046-8.046h24.139a8.047,8.047,0,0,1,8.046,8.046v10.337" transform="translate(-574.349 -1349.93)" fill="none" stroke="#000" stroke-width="2.5"/>
    <ellipse id="Ellipse_3168" data-name="Ellipse 3168" cx="12.503" cy="11.877" rx="12.503" ry="11.877" transform="translate(32.993 27.961)" fill="none" stroke="#000" stroke-width="2.5"/>
    <path id="Path_58691" data-name="Path 58691" d="M627.5,1412.325l6.035-6.035,6.035,6.035" transform="translate(-547.036 -1360.023)" fill="none" stroke="#000" stroke-width="2.5"/>
    <path id="Path_58692" data-name="Path 58692" d="M615.535,1395.36l-6.035-6.035,6.035-6.035" transform="translate(-565.245 -1383.29)" fill="none" stroke="#000" stroke-width="2.5"/>
    <path id="Path_58693" data-name="Path 58693" d="M599.57,1404.29l-6.035,6.035-6.035-6.035" transform="translate(-587.5 -1362.046)" fill="none" stroke="#000" stroke-width="2.5"/>
  </g>
</svg>
