<?xml version="1.0" encoding="utf-8"?>
<!-- Generator: Adobe Illustrator 17.0.0, SVG Export Plug-In . SVG Version: 6.00 Build 0)  -->
<!DOCTYPE svg PUBLIC "-//W3C//DTD SVG 1.1//EN" "http://www.w3.org/Graphics/SVG/1.1/DTD/svg11.dtd">
<svg version="1.1" id="Layer_1" xmlns="http://www.w3.org/2000/svg" xmlns:xlink="http://www.w3.org/1999/xlink" x="0px" y="0px"
	 width="36px" height="40px" viewBox="0 0 36 40" enable-background="new 0 0 36 40" xml:space="preserve">
<g id="Group_5" transform="translate(-349.069 -335.561)">
	<g>
		<g id="Group_4_8_" transform="translate(349.069 335.561)">
			<path id="Path_14_8_" fill="#003333" d="M1.546,38.068c-1.045-0.556-1.654-1.686-1.545-2.865
				c-0.011-4.058-0.004-8.116-0.004-12.173c0-6.698,0-13.395,0-20.093c-0.101-1.202,0.513-2.352,1.57-2.934l18.95,19.026
				L1.546,38.068z"/>
			<path id="Path_15_8_" fill="#003333" d="M6.422,1.239l20.31,11.665L22.4,17.226L6.422,1.239z"/>
			<path id="Path_16_8_" fill="#003333" d="M6.307,36.927l16.064-16.064l4.344,4.342L6.307,36.927z"/>
			<path id="Path_17_8_" fill="#003333" d="M28.885,14.201c1.542,0.907,3.041,1.689,4.432,2.631c1.599,1.083,1.41,3.705-0.264,4.68
				c-1.354,0.79-2.715,1.57-4.144,2.393l-4.567-4.835L28.885,14.201z"/>
		</g>
	</g>
</g>
</svg>
