<svg xmlns="http://www.w3.org/2000/svg" xmlns:xlink="http://www.w3.org/1999/xlink" width="370.587" height="301.05" viewBox="0 0 370.587 301.05">
  <defs>
    <clipPath id="clip-path">
      <rect id="Rectangle_8861" data-name="Rectangle 8861" width="208" height="233" transform="translate(693 3578)" fill="#fff" stroke="#707070" stroke-width="1"/>
    </clipPath>
    <clipPath id="clip-path-2">
      <rect id="Rectangle_8850" data-name="Rectangle 8850" width="194.058" height="209.19" fill="none"/>
    </clipPath>
    <clipPath id="clip-path-3">
      <rect id="Rectangle_8851" data-name="Rectangle 8851" width="194.058" height="209.19" fill="none" stroke="#707070" stroke-width="1.5"/>
    </clipPath>
  </defs>
  <g id="Group_19806" data-name="Group 19806" transform="translate(14105.965 3977.229)">
    <path id="Path_68339" data-name="Path 68339" d="M685.409,537.664c-6.4.317-12.7-.059-19.12.211-11.451.514-22.9.505-34.2,2.685-12.245,1.929-23.3,5.872-34.948,10.575-11.947,5.614-23.725,12.526-32.789,22.282a76.649,76.649,0,0,0-7.63,8.906c-6.963,10.415-12.577,21.8-15.049,34.325-2.835,15.209-1.434,30.653.948,45.938,3.172,20.731,10.845,41.384,26.6,55.836a57.558,57.558,0,0,0,12.319,9.605,105.231,105.231,0,0,0,17.241,9.289c-.5,1.88,2.139,2.009,3.349,2.428,2.776.648,6.221,1.327,9.1,2.04a210.474,210.474,0,0,0,25.006,6.017c8.923,1.247,17.922,1.878,26.891,2.721,7.709.417,15.505,1.068,22.976.867a111.29,111.29,0,0,0,30.291-6.045c16.473-5.393,32.432-13.919,43.289-27.772l-.019.024c6.3-8.05,12.72-16.627,17.354-25.889,3.039-5.845,4.727-12.055,6.726-18.3a114.558,114.558,0,0,0,6.166-50.705c-.589-7.88-1.678-15.777-4.366-23.232-4.344-11.551-10.494-22.128-19.489-30.51-4.365-4.085-8.358-8.264-13.556-11.332-19.647-13.652-43.282-20.28-67.091-19.967ZM542.929,654.423c-.006-.046-.017-.143-.021-.189.01.083.019.166.029.248l-.008-.059Z" transform="translate(-14563.069 -4437.22)" fill="#f6f7f8"/>
    <g id="Mask_Group_19025" data-name="Mask Group 19025" transform="translate(-14688.254 -7487.18)" clip-path="url(#clip-path)">
      <g id="Group_19173" data-name="Group 19173" transform="translate(703.471 3597.99)">
        <g id="Group_19166" data-name="Group 19166">
          <g id="Group_19165" data-name="Group 19165" clip-path="url(#clip-path-2)">
            <path id="Path_66498" data-name="Path 66498" d="M455.918,292.433s4.179,25.49,4.179,34.265" transform="translate(-351.855 -225.686)" fill="none" stroke="#000" stroke-linecap="round" stroke-linejoin="round" stroke-width="1.5"/>
            <path id="Path_66499" data-name="Path 66499" d="M78.861,378.161A19.578,19.578,0,0,1,79.248,387s-37.19,7.94-39.7,34.265c-1.746,18.334-1.364,31.979-6.973,33.505-4.884,1.329-8.351-49.508-8.351-49.508s-3.964-39.944-6.952-40.1-2.25,11.034-2.25,11.034-.489-9.344-3.292-9.322-1.7,9.351-1.7,9.351-.616-7.284-2.853-6.519-.658,11.779-.658,11.779.346-9.344-2.825-8.572c-1.974.48-1.175,11,.024,18.879.877,5.758.527,11.568.666,17.391.595,24.833.5,92.733,36.834,79.365,0,0,23.8-5.287,24.655-51.4" transform="translate(-1.929 -281.813)" fill="none" stroke="#000" stroke-linecap="round" stroke-linejoin="round" stroke-width="1.5"/>
            <path id="Path_66500" data-name="Path 66500" d="M360.032,250.137a3.165,3.165,0,0,1,2.207-4.589l.073-.012c2.476-.393,7.363-1.592,7.756.884s-1.69,5.346-5.817,6A3.845,3.845,0,0,1,360.032,250.137Z" transform="translate(-277.575 -189)" fill="none" stroke="#000" stroke-linecap="round" stroke-linejoin="round" stroke-width="1.5"/>
            <path id="Path_66501" data-name="Path 66501" d="M262.924,273.077a6.8,6.8,0,0,0-1.833.024c-1.6.207-5.637.873-5.368,2.568.328,2.063,3.263,4.559,6.086,3.688a4.236,4.236,0,0,0,3.124-4.3A2.368,2.368,0,0,0,262.924,273.077Z" transform="translate(-197.345 -210.706)" fill="none" stroke="#000" stroke-linecap="round" stroke-linejoin="round" stroke-width="1.5"/>
            <path id="Path_66502" data-name="Path 66502" d="M277.133,281.875a1.254,1.254,0,1,1-1.435-1.042,1.254,1.254,0,0,1,1.435,1.042" transform="translate(-211.955 -216.722)" stroke="#707070" stroke-width="1.5"/>
            <path id="Path_66503" data-name="Path 66503" d="M277.133,281.875a1.254,1.254,0,1,1-1.435-1.042A1.254,1.254,0,0,1,277.133,281.875Z" transform="translate(-211.955 -216.722)" fill="none" stroke="#000" stroke-linecap="round" stroke-linejoin="round" stroke-width="1.5"/>
            <path id="Path_66504" data-name="Path 66504" d="M382.7,254.97a1.463,1.463,0,1,1-1.674-1.215,1.463,1.463,0,0,1,1.674,1.215" transform="translate(-293.109 -195.822)" stroke="#707070" stroke-width="1.5"/>
            <path id="Path_66505" data-name="Path 66505" d="M382.7,254.97a1.463,1.463,0,1,1-1.674-1.215A1.463,1.463,0,0,1,382.7,254.97Z" transform="translate(-293.109 -195.822)" fill="none" stroke="#000" stroke-linecap="round" stroke-linejoin="round" stroke-width="1.5"/>
            <path id="Path_66506" data-name="Path 66506" d="M403.378,237s-.594,1.773-1.784,2.18" transform="translate(-309.931 -182.903)" fill="none" stroke="#000" stroke-linecap="round" stroke-linejoin="round" stroke-width="1.5"/>
            <path id="Path_66507" data-name="Path 66507" d="M394.655,232.721s-.619,2.161-1.97,2.613" transform="translate(-303.055 -179.603)" fill="none" stroke="#000" stroke-linecap="round" stroke-linejoin="round" stroke-width="1.5"/>
            <path id="Path_66508" data-name="Path 66508" d="M384.871,232.923a3.6,3.6,0,0,1-1.035,2.805" transform="translate(-296.226 -179.759)" fill="none" stroke="#000" stroke-linecap="round" stroke-linejoin="round" stroke-width="1.5"/>
            <path id="Path_66509" data-name="Path 66509" d="M253.184,268.346a8.6,8.6,0,0,0,2.063,2.068" transform="translate(-195.395 -207.096)" fill="none" stroke="#000" stroke-linecap="round" stroke-linejoin="round" stroke-width="1.5"/>
            <path id="Path_66510" data-name="Path 66510" d="M259.842,263.581a11.23,11.23,0,0,0,2.087,2.6" transform="translate(-200.533 -203.419)" fill="none" stroke="#000" stroke-linecap="round" stroke-linejoin="round" stroke-width="1.5"/>
            <path id="Path_66511" data-name="Path 66511" d="M270.69,261.859a7.274,7.274,0,0,0,1.7,2.692" transform="translate(-208.905 -202.09)" fill="none" stroke="#000" stroke-linecap="round" stroke-linejoin="round" stroke-width="1.5"/>
            <path id="Path_66512" data-name="Path 66512" d="M359.96,264.313a9.068,9.068,0,0,0,3.714,4.7" transform="translate(-277.8 -203.984)" fill="none" stroke="#000" stroke-linecap="round" stroke-linejoin="round" stroke-width="1.5"/>
            <path id="Path_66513" data-name="Path 66513" d="M291.8,281.919s.112,3.367-1.277,5.28" transform="translate(-224.213 -217.571)" fill="none" stroke="#000" stroke-linecap="round" stroke-linejoin="round" stroke-width="1.5"/>
            <path id="Path_66514" data-name="Path 66514" d="M315.962,267.625s-.54,12.779,2.379,12.315a3.924,3.924,0,0,0,3.321-3.066" transform="translate(-243.814 -206.54)" fill="none" stroke="#000" stroke-linecap="round" stroke-linejoin="round" stroke-width="1.5"/>
            <path id="Path_66515" data-name="Path 66515" d="M250.887,240.125s1.539-3.629,6.97-4.069" transform="translate(-193.622 -182.177)" fill="none" stroke="#000" stroke-linecap="round" stroke-linejoin="round" stroke-width="1.5"/>
            <path id="Path_66516" data-name="Path 66516" d="M355.71,206.607a6.993,6.993,0,0,1,10.167.078" transform="translate(-274.52 -157.759)" fill="none" stroke="#000" stroke-linecap="round" stroke-linejoin="round" stroke-width="1.5"/>
            <path id="Path_66517" data-name="Path 66517" d="M364.912,300.174s1.67-2.8,3.256-3.479" transform="translate(-281.621 -228.975)" fill="none" stroke="#000" stroke-linecap="round" stroke-linejoin="round" stroke-width="1.5"/>
            <path id="Path_66518" data-name="Path 66518" d="M384.61,298.62a6.24,6.24,0,0,1,2.083-2.869" transform="translate(-296.823 -228.246)" fill="none" stroke="#000" stroke-linecap="round" stroke-linejoin="round" stroke-width="1.5"/>
            <path id="Path_66519" data-name="Path 66519" d="M403.415,293.617a11.251,11.251,0,0,1,2.017-3.282" transform="translate(-311.336 -224.066)" fill="none" stroke="#000" stroke-linecap="round" stroke-linejoin="round" stroke-width="1.5"/>
            <path id="Path_66520" data-name="Path 66520" d="M296.577,319.66a8.633,8.633,0,0,1,2.277-2.678" transform="translate(-228.884 -244.631)" fill="none" stroke="#000" stroke-linecap="round" stroke-linejoin="round" stroke-width="1.5"/>
            <path id="Path_66521" data-name="Path 66521" d="M282.253,322.77a14.42,14.42,0,0,1,2.158-3.431" transform="translate(-217.829 -246.45)" fill="none" stroke="#000" stroke-linecap="round" stroke-linejoin="round" stroke-width="1.5"/>
            <path id="Path_66522" data-name="Path 66522" d="M269.443,322.479s1.088-2.875,2.474-3.867" transform="translate(-207.943 -245.889)" fill="none" stroke="#000" stroke-linecap="round" stroke-linejoin="round" stroke-width="1.5"/>
            <path id="Path_66524" data-name="Path 66524" d="M236.226,232.017s5.014,51.816,32.176,42.205" transform="translate(-182.308 -179.059)" fill="none" stroke="#000" stroke-linecap="round" stroke-linejoin="round" stroke-width="1.5"/>
            <path id="Path_66525" data-name="Path 66525" d="M206.683,144.294l10.029-12.954s18.8,3.761,32.176,3.343c0,0,3.761,10.029,5.014,12.954,0,0,7.1-3.343,8.357,2.925s-5.85,7.521-5.85,7.521a68.709,68.709,0,0,1-4.6,29.669h12.536s7.1-7.1,7.1-32.594c0-11.406-7.082-40.8-37.608-36.355-63.1,9.193-23.819,75.635-23.819,75.635l17.551-3.761,2.925-.836-1.336-2.616s-6.724-.189-13.768-12.785-8.715-30.147-8.715-30.147" transform="translate(-152.764 -91.336)"/>
            <path id="Path_66526" data-name="Path 66526" d="M448.6,186.248a20.186,20.186,0,0,1,2.925,8.357" transform="translate(-346.204 -143.737)" fill="none" stroke="#fff" stroke-linecap="round" stroke-linejoin="round" stroke-width="1.5"/>
            <path id="Path_66527" data-name="Path 66527" d="M461.41,178.925s2.925,5.014,3.343,9.193" transform="translate(-356.094 -138.086)" fill="none" stroke="#fff" stroke-linecap="round" stroke-linejoin="round" stroke-width="1.5"/>
            <path id="Path_66528" data-name="Path 66528" d="M473.231,310.74a59.713,59.713,0,0,1-.836,10.029" transform="translate(-364.571 -239.814)" fill="none" stroke="#fff" stroke-linecap="round" stroke-linejoin="round" stroke-width="1.5"/>
            <path id="Path_66529" data-name="Path 66529" d="M486.465,314.4a84.4,84.4,0,0,1-1.254,10.865" transform="translate(-374.462 -242.64)" fill="none" stroke="#fff" stroke-linecap="round" stroke-linejoin="round" stroke-width="1.5"/>
            <path id="Path_66530" data-name="Path 66530" d="M232.564,286.94s1.671,7.94,2.089,9.193" transform="translate(-179.482 -221.446)" fill="none" stroke="#fff" stroke-linecap="round" stroke-linejoin="round" stroke-width="1.5"/>
            <path id="Path_66531" data-name="Path 66531" d="M219.749,297.925s2.089,7.522,2.925,9.193" transform="translate(-169.592 -229.924)" fill="none" stroke="#fff" stroke-linecap="round" stroke-linejoin="round" stroke-width="1.5"/>
            <path id="Path_66532" data-name="Path 66532" d="M355.226,155.125a68.709,68.709,0,0,0,9.193,1.254" transform="translate(-274.146 -119.718)" fill="none" stroke="#fff" stroke-linecap="round" stroke-linejoin="round" stroke-width="1.5"/>
            <path id="Path_66533" data-name="Path 66533" d="M375.364,147.8s6.268.836,7.522.836" transform="translate(-289.688 -114.066)" fill="none" stroke="#fff" stroke-linecap="round" stroke-linejoin="round" stroke-width="1.5"/>
            <path id="Path_66534" data-name="Path 66534" d="M202.4,549.948c-2.507-18.8-12.536-50.562-24.08-78.433-11.574-27.945-61.166-28.96-61.166-28.96-12.954,12.536-30.922,4.179-30.922,4.179s-37.608,7.522-39.5,30.5-1.87,35.937-6.885,36.773-7.371-38.417-7.371-38.417c-6.953-.809-20.918,1.644-20.918,1.644s-1.286,71.874,26.455,72.71c0,0,21.056,4.6,31.933-28.833,0,0,2.077,2.507,1.659,8.775s-1.254,20.058-1.254,20.058h89.424l1.671-28.415s8.775,24.236,8.775,28.415" transform="translate(-8.916 -341.542)" fill="#fc0"/>
            <path id="Path_66535" data-name="Path 66535" d="M202.4,549.948c-2.507-18.8-12.536-50.562-24.08-78.433-11.574-27.945-61.166-28.96-61.166-28.96-12.954,12.536-30.922,4.179-30.922,4.179s-37.608,7.522-39.5,30.5-1.87,35.937-6.885,36.773-7.371-38.417-7.371-38.417c-6.953-.809-20.918,1.644-20.918,1.644s-1.286,71.874,26.455,72.71c0,0,21.056,4.6,31.933-28.833,0,0,2.077,2.507,1.659,8.775s-1.254,20.058-1.254,20.058h89.424l1.671-28.415s8.775,24.236,8.775,28.415" transform="translate(-8.916 -341.542)" fill="none" stroke="#000" stroke-linecap="round" stroke-linejoin="round" stroke-width="1.5"/>
            <path id="Path_66536" data-name="Path 66536" d="M339.275,690.014l-1.868,38.069H247.983l1.107-30.071a20.879,20.879,0,0,0-2.838-11.488c-4.711-8.252-4.537-26.106-4.537-26.106" transform="translate(-186.543 -509.678)" fill="#fc0" stroke="#707070" stroke-width="1.5"/>
            <path id="Path_66537" data-name="Path 66537" d="M339.275,690.014l-1.868,38.069H247.983l1.107-30.071a20.879,20.879,0,0,0-2.838-11.488c-4.711-8.252-4.537-26.106-4.537-26.106" transform="translate(-186.543 -509.678)" fill="none" stroke="#000" stroke-linecap="round" stroke-linejoin="round" stroke-width="1.5"/>
            <path id="Path_66538" data-name="Path 66538" d="M640.537,718.292c-1.294-10.319-19.849-57.875-19.849-57.875" transform="translate(-479.017 -509.678)" fill="none" stroke="#000" stroke-linecap="round" stroke-linejoin="round" stroke-width="1.5"/>
            <path id="Path_66539" data-name="Path 66539" d="M334.012,471.768a.836.836,0,1,1-.836-.836.836.836,0,0,1,.836.836" transform="translate(-256.485 -363.442)" fill="#fff"/>
            <path id="Path_66540" data-name="Path 66540" d="M456.674,464.445a.836.836,0,1,1-.836-.836.836.836,0,0,1,.836.836" transform="translate(-351.149 -357.791)" fill="#fff"/>
            <path id="Path_66541" data-name="Path 66541" d="M436.535,475.43a.836.836,0,1,1-.836-.836.836.836,0,0,1,.836.836" transform="translate(-335.607 -366.269)" fill="#fff"/>
            <path id="Path_66542" data-name="Path 66542" d="M410.905,480.922a.836.836,0,1,1-.836-.836.836.836,0,0,1,.836.836" transform="translate(-315.827 -370.507)" fill="#fff"/>
            <path id="Path_66543" data-name="Path 66543" d="M385.274,480.922a.836.836,0,1,1-.836-.836.836.836,0,0,1,.836.836" transform="translate(-296.046 -370.507)" fill="#fff"/>
            <path id="Path_66544" data-name="Path 66544" d="M357.812,477.26a.836.836,0,1,1-.836-.836.836.836,0,0,1,.836.836" transform="translate(-274.852 -367.681)" fill="#fff"/>
            <path id="Path_66545" data-name="Path 66545" d="M474.982,451.63a.836.836,0,1,1-.836-.836.836.836,0,0,1,.836.836" transform="translate(-365.278 -347.901)" fill="#fff"/>
            <path id="Path_66546" data-name="Path 66546" d="M90.52,596.26a.836.836,0,1,1-.836-.836.836.836,0,0,1,.836.836" transform="translate(-68.569 -459.519)" fill="#fff"/>
            <path id="Path_66547" data-name="Path 66547" d="M66.72,598.091a.836.836,0,1,1-.836-.836.836.836,0,0,1,.836.836" transform="translate(-50.202 -460.932)" fill="#fff"/>
            <path id="Path_66548" data-name="Path 66548" d="M42.92,599.922a.836.836,0,1,1-.836-.836.836.836,0,0,1,.836.836" transform="translate(-31.834 -462.345)" fill="#fff"/>
            <path id="Path_66549" data-name="Path 66549" d="M20.951,601.753a.836.836,0,1,1-.836-.836.836.836,0,0,1,.836.836" transform="translate(-14.879 -463.758)" fill="#fff"/>
            <path id="Path_66577" data-name="Path 66577" d="M0,0" transform="matrix(0.951, -0.309, 0.309, 0.951, 77.411, 83.717)" fill="#ffac00"/>
            <path id="Path_66578" data-name="Path 66578" d="M7.058,0S5.646,2.823,2.823,2.823A2.765,2.765,0,0,1,0,0" transform="matrix(0.951, -0.309, 0.309, 0.951, 76.308, 81.845)" fill="none" stroke="#000" stroke-linecap="round" stroke-linejoin="round" stroke-width="1.5"/>
          </g>
        </g>
        <g id="Group_19172" data-name="Group 19172">
          <g id="Group_19171" data-name="Group 19171" clip-path="url(#clip-path-2)">
            <path id="Path_66572" data-name="Path 66572" d="M291.188,16.929S285.79,1.9,288.225,1.306s2.962,15.623,2.962,15.623" transform="translate(-221.951 -0.995)"/>
            <path id="Path_66573" data-name="Path 66573" d="M218.383,15.774s-3.627-4.275-5.64-7.224S206.906.514,208.935.017s6.741,9.966,7.643,11.9l1.805,3.86" transform="translate(-160.801 0)"/>
            <path id="Path_66574" data-name="Path 66574" d="M158.7,42.142s-6.857-6.926-9.582-9.271-10.4-7.349-8.571-8.657,11.711,9.18,14.129,12.03a36.926,36.926,0,0,1,4.024,5.9" transform="translate(-108.253 -18.6)"/>
            <path id="Path_66575" data-name="Path 66575" d="M130.407,100.682s-7.777-5.41-10.2-6.538-4.953-2.66-3.528-3.869S129,98.445,130.407,100.682" transform="translate(-89.726 -69.588)"/>
            <path id="Path_66576" data-name="Path 66576" d="M114.2,151.056s-5.85-2.507-7.522-2.925-5.432-1.254-4.6-2.507,10.865,3.761,12.118,5.432" transform="translate(-78.69 -112.231)"/>
          </g>
        </g>
      </g>
    </g>
    <g id="Group_19560" data-name="Group 19560" transform="translate(-13771.371 -3867.478)">
      <path id="Path_68102" data-name="Path 68102" d="M966.533,613.088c-.06-2.02-1.688-3.9-4.62-5.366v-1.11a.361.361,0,1,0-.722,0v.769l-.036-.016a35.569,35.569,0,0,0-25.233,0l-.036.016v-.769a.361.361,0,1,0-.722,0v1.11c-2.932,1.462-4.56,3.346-4.62,5.366,0,.011,0,.02,0,.031V628.1c0,2.233,1.911,4.306,5.381,5.839a35.572,35.572,0,0,0,25.233,0c3.47-1.533,5.38-3.606,5.38-5.839V613.119c0-.01,0-.02,0-.031" transform="translate(-930.542 -597.582)"/>
      <path id="Path_68103" data-name="Path 68103" d="M960.5,611.3a34.863,34.863,0,0,1,24.65,0c.111.049.22.1.327.149v4c0,2.92-5.794,5.387-12.652,5.387s-12.652-2.467-12.652-5.387v-4c.108-.05.216-.1.327-.149" transform="translate(-954.824 -600.86)" fill="#fff"/>
      <path id="Path_68104" data-name="Path 68104" d="M938.443,624.338v3.645c0,3.426,5.875,6.109,13.374,6.109s13.374-2.683,13.374-6.109v-3.645c2.526,1.331,3.9,2.966,3.9,4.672,0,1.929-1.758,3.769-4.95,5.179a34.864,34.864,0,0,1-24.65,0c-3.192-1.41-4.95-3.249-4.95-5.179,0-1.706,1.376-3.342,3.9-4.672" transform="translate(-933.821 -613.388)" fill="#fff"/>
      <path id="Path_68105" data-name="Path 68105" d="M969.092,723.906c0,1.929-1.758,3.769-4.95,5.179a34.865,34.865,0,0,1-24.65,0c-3.193-1.41-4.951-3.249-4.951-5.179v-1.959a10.369,10.369,0,0,0,4.659,3.517,30.427,30.427,0,0,0,10.429,2.252l4.012.02a30.726,30.726,0,0,0,10.791-2.271,10.366,10.366,0,0,0,4.659-3.517Z" transform="translate(-933.821 -693.387)" fill="#fff"/>
      <path id="Path_68106" data-name="Path 68106" d="M969.092,665.577c0,1.929-1.758,3.769-4.95,5.179a29.478,29.478,0,0,1-9.929,2.178l-5.114-.021a29.194,29.194,0,0,1-9.606-2.158c-3.193-1.41-4.951-3.249-4.951-5.179V663.1a10.369,10.369,0,0,0,4.659,3.517,35.572,35.572,0,0,0,25.233,0,10.367,10.367,0,0,0,4.659-3.517Z" transform="translate(-933.821 -645.16)" fill="#fff"/>
      <path id="Path_68221" data-name="Path 68221" d="M984.193,591.138c0,2.742-5.826,4.966-13.013,4.966s-13.013-2.223-13.013-4.966,5.826-4.966,13.013-4.966,13.013,2.223,13.013,4.966" transform="translate(-953.184 -582.108)" fill="#1a6f5d"/>
      <path id="Path_68222" data-name="Path 68222" d="M969.541,594.826c-7.5,0-13.374-2.34-13.374-5.326s5.875-5.326,13.374-5.326,13.374,2.34,13.374,5.326-5.875,5.326-13.374,5.326m0-9.931c-6.858,0-12.652,2.109-12.652,4.6s5.794,4.6,12.652,4.6,12.652-2.109,12.652-4.6-5.794-4.6-12.652-4.6" transform="translate(-951.545 -580.469)"/>
      <path id="Path_68223" data-name="Path 68223" d="M981.272,605.116a10.754,10.754,0,0,1-2.046-.181,3.48,3.48,0,0,1-1.5-.58,1.652,1.652,0,0,1-.691-1.506,1.3,1.3,0,0,1,.434-.878,1.806,1.806,0,0,1,.707-.395,15.335,15.335,0,0,1,4.36-.646h0a.361.361,0,0,1,0,.722,14.616,14.616,0,0,0-4.155.615,1.082,1.082,0,0,0-.424.232.576.576,0,0,0-.206.392.947.947,0,0,0,.421.9,2.865,2.865,0,0,0,1.192.436,14.159,14.159,0,0,0,4.232.014.361.361,0,1,1,.08.717,21.607,21.607,0,0,1-2.4.159" transform="translate(-968.641 -594.203)"/>
      <path id="Path_68224" data-name="Path 68224" d="M1018.063,574.278a8.659,8.659,0,0,1,.273-3.274,4.952,4.952,0,0,1,.639-1.658,1.947,1.947,0,0,1,1.464-.908c1.021-.041,1.767.94,2.208,1.861a16.288,16.288,0,0,1,.358-3.069,2.58,2.58,0,0,1,.334-.919,1.722,1.722,0,0,1,1.943-.564,2.824,2.824,0,0,1,1.542,1.453,8.383,8.383,0,0,1,.632,2.073c.524-.949,1.257-2.027,2.342-2.014a1.959,1.959,0,0,1,1.576,1,4.258,4.258,0,0,1,.509,1.866,10.7,10.7,0,0,1-.245,3.319" transform="translate(-1002.224 -565.291)" fill="#1a6f5d"/>
      <path id="Path_68225" data-name="Path 68225" d="M1016.428,572.99a.361.361,0,0,1-.356-.307,9.138,9.138,0,0,1,.279-3.411,5.3,5.3,0,0,1,.692-1.777,2.294,2.294,0,0,1,1.748-1.066,2.344,2.344,0,0,1,1.927,1.048,16.765,16.765,0,0,1,.3-1.971,2.886,2.886,0,0,1,.388-1.045,2.07,2.07,0,0,1,2.356-.7,3.154,3.154,0,0,1,1.749,1.632,6.265,6.265,0,0,1,.465,1.29,2.744,2.744,0,0,1,2.167-1.429h.024a2.308,2.308,0,0,1,1.881,1.178,4.621,4.621,0,0,1,.56,2.023,11.014,11.014,0,0,1-.254,3.431.361.361,0,0,1-.7-.165,10.3,10.3,0,0,0,.237-3.207,3.96,3.96,0,0,0-.459-1.709,1.608,1.608,0,0,0-1.271-.829h-.015c-.884,0-1.536.976-2.007,1.828a.361.361,0,0,1-.669-.1,8.1,8.1,0,0,0-.6-1.984,2.5,2.5,0,0,0-1.334-1.274,1.359,1.359,0,0,0-1.53.424,2.285,2.285,0,0,0-.28.792,15.945,15.945,0,0,0-.35,3,.361.361,0,0,1-.686.148c-.3-.635-.952-1.69-1.868-1.657a1.578,1.578,0,0,0-1.18.751,4.677,4.677,0,0,0-.587,1.539,8.341,8.341,0,0,0-.268,3.137.36.36,0,0,1-.357.414" transform="translate(-1000.588 -563.641)"/>
    </g>
    <g id="Group_19561" data-name="Group 19561" transform="translate(-14094.909 -3835.387)">
      <path id="Path_68107" data-name="Path 68107" d="M1092.146,297.038c-1.629-8.09-7.3-11-8.717-11.608a21.665,21.665,0,0,0-4.068-7.943c-2-2.391-4.162-3.606-6.1-3.428-3.319.381-5.69,5.867-6.544,7.912-2.811-5.287-5.34-5.7-6.981-5.092-3.964,1.474-7.985,7.262-9.31,11.811h0c-1.981,1.093-6.734,4.184-8.076,9.275-.4,1.637-.179,3.862,2.089,6.378a24.534,24.534,0,0,0,.012,6.819l-.014,0a13,13,0,0,0,4.868,7.773,19.523,19.523,0,0,0,3.006,2,.366.366,0,0,0-.01.119.361.361,0,0,0,.055.163l.021.042c.771,1.534,2.985,5.241,6.865,6.527a5.19,5.19,0,0,0,1.6.259c2.931,0,4.989-2.657,5.841-4,1.224,2.521,3.62,6.321,7.091,6.785a5.833,5.833,0,0,0,.642.036c4.075,0,6.429-4.376,6.7-4.907l-.318-.17-.135.335.136-.338.079-.018c3.283-.8,7.472-3.222,8.782-10.224h0c.037-.165.068-.442.122-.926.057-.511.139-1.328.2-2.314a36.889,36.889,0,0,0-.08-6.327,11.407,11.407,0,0,0,2.244-8.945" transform="translate(-1042.196 -274.042)"/>
      <path id="Path_68108" data-name="Path 68108" d="M1202.012,318.673c0,.005,0,.01,0,.016-.746,3.988-2.549,6.847-5.359,8.5a10.633,10.633,0,0,1-6.535,1.408l-.028-.016a.36.36,0,0,0-.487.151.374.374,0,0,0,.036.4,2.453,2.453,0,0,0,1.461.265,12.58,12.58,0,0,0,2.3-.23c-.592,1.058-2.873,4.631-6.475,4.23-3.334-.446-5.652-4.465-6.736-6.821-.015-.033-.03-.065-.045-.1.021-1.069.037-2.137.055-3.205.01-.615.022-1.231.032-1.845q.032-2.13.053-4.256c0-.279.008-.558.01-.837q.078-7.653.048-15.238c0-.129,0-.256,0-.385q-.01-2.325-.03-4.64c0-.535-.012-1.066-.018-1.6-.012-1.133-.023-2.266-.038-3.394-.01-.737-.024-1.469-.035-2.2-.014-.9-.027-1.811-.043-2.711.05-.1.113-.252.208-.48a28.667,28.667,0,0,1,2.208-4.4c1.285-2,2.57-3.092,3.812-3.235,1.686-.159,3.627.969,5.468,3.173a20.927,20.927,0,0,1,3.957,7.789.385.385,0,0,0,.273.31c1.121.459,6.794,3.154,8.4,11.12a10.656,10.656,0,0,1-2.178,8.471.353.353,0,0,0-.029.038,16.58,16.58,0,0,1-5.55,4.49l-.011.005a.361.361,0,0,0,.245.675l.062-.027,0,0a.344.344,0,0,0,.048-.027,17.248,17.248,0,0,0,4.6-3.341c.22-.223.428-.45.628-.68a44.1,44.1,0,0,1-.3,8.625" transform="translate(-1155.254 -277.313)" fill="#3fbca1"/>
      <path id="Path_68154" data-name="Path 68154" d="M1201.929,312.38a4.482,4.482,0,0,1,3.569-.107c.045.021.089.046.133.068a2.139,2.139,0,0,0-.385.208c-1.469,1-1.323,3.527-.942,5.467a.361.361,0,0,0,.354.291.355.355,0,0,0,.07-.007.361.361,0,0,0,.285-.424c-.551-2.8-.088-4,.4-4.522a1.409,1.409,0,0,1,1.029-.455,7.812,7.812,0,0,1,2.082,4.287.361.361,0,0,0,.353.286.368.368,0,0,0,.075-.008.361.361,0,0,0,.278-.428c-.648-3.061-1.941-4.94-3.842-5.585a5.114,5.114,0,0,0-3.875.345.361.361,0,0,0,.42.584" transform="translate(-1172.664 -304.509)"/>
      <path id="Path_68155" data-name="Path 68155" d="M1216.826,366.242a6.286,6.286,0,0,0-4.7-6.223c.5-.593.886-.734,1.136-.734h.006a.361.361,0,0,0,0-.722h-.008c-1.256,0-2.493,1.631-3.781,4.985-.035.089-.059.155-.074.19a.361.361,0,0,0,.311.543h.006c.249,0,.31-.161.429-.474a17.148,17.148,0,0,1,1.548-3.213.356.356,0,0,0,.158.1,5.6,5.6,0,0,1,4.243,5.552c.006,2.472-1.317,4.665-3.15,5.216a13.557,13.557,0,0,0-3.185,1.508,9.311,9.311,0,0,0-2.567-6.312,8.584,8.584,0,0,0-2.721-1.865c.023-.327.036-.677.034-1.061-.09-4.671-2.416-6.611-2.887-6.956l-.22.286.321.166-.642-.33a.377.377,0,0,0,.12.465c.417.306,2.5,2.052,2.586,6.379a8.384,8.384,0,0,1-1.069,4.522,8.875,8.875,0,0,0-1.117,4.854.361.361,0,0,0,.361.355h.007a.361.361,0,0,0,.354-.367,8.164,8.164,0,0,1,1.04-4.516,8.907,8.907,0,0,0,1.034-3.042,7.92,7.92,0,0,1,2.286,1.618,8.626,8.626,0,0,1,2.37,6.283,20.644,20.644,0,0,0-3.768,3.487l-.033.039a.347.347,0,0,0-.037.045.361.361,0,0,0,.09.5.355.355,0,0,0,.2.067.439.439,0,0,0,.332-.19,20.276,20.276,0,0,1,3.6-3.329.361.361,0,0,0,.308-.214,13.119,13.119,0,0,1,3.415-1.7c2.128-.639,3.667-3.124,3.66-5.908" transform="translate(-1172.393 -341.848)"/>
      <path id="Path_68156" data-name="Path 68156" d="M1212.743,484.659c-1.757,1.35-3.292,1.9-4.563,1.64a3.1,3.1,0,0,1-1.929-1.357q1.776-1.436,4.318-3.246c.64-.456.707-.5.613-.767a.361.361,0,0,0-.592-.137c-.055.042-.234.17-.439.315-1.658,1.181-6.707,4.774-8.181,7.031a3.288,3.288,0,0,0,.425,3.956,8.569,8.569,0,0,0,1.859,1.754l.206-.3-.319-.169.638.337a.368.368,0,0,0-.122-.471c-.363-.246-3.5-2.471-2.079-4.72a16.662,16.662,0,0,1,3.115-3.127,3.7,3.7,0,0,0,3.122,1.681,7.479,7.479,0,0,0,4.371-1.852.361.361,0,0,0-.44-.572" transform="translate(-1172.75 -443.408)"/>
      <path id="Path_68157" data-name="Path 68157" d="M1067.6,340.981a4.758,4.758,0,0,1-4.856,1.328,11.577,11.577,0,0,1-6.182-5.668,18.739,18.739,0,0,0,2,.822,4.531,4.531,0,0,0,1.243.309.346.346,0,0,0,.278-.1.381.381,0,0,0,.114-.358.361.361,0,0,0-.431-.273l-.024.006c-1.038-.132-9.906-3.186-11.313-10.81l0-.009a26.766,26.766,0,0,1-.074-6.024,23.317,23.317,0,0,0,4.652,3.391c.107.062.217.125.264.155a.361.361,0,0,0,.6-.163c.08-.283-.1-.387-.5-.617a21.3,21.3,0,0,1-4.94-3.72.36.36,0,0,0-.129-.136c-2.1-2.307-2.317-4.308-1.965-5.768,1.269-4.814,5.825-7.771,7.725-8.82.132-.073.3-.167.322-.351,1.25-4.391,5.109-10.009,8.891-11.416,2.019-.748,4.2,1.031,6.3,5.141.042.081.075.146.1.2q.038,2.048.067,4.109c0,.263.009.523.012.786q.032,2.3.052,4.609c0,.131,0,.26,0,.391.059,6.693.054,13.462-.015,20.259,0,.405-.011.811-.015,1.217q-.022,1.937-.049,3.875c-.009.628-.022,1.257-.032,1.885q-.026,1.582-.055,3.164a10.915,10.915,0,0,1-2.034,2.586" transform="translate(-1045.472 -289.245)" fill="#3fbca1"/>
      <path id="Path_68159" data-name="Path 68159" d="M1113.505,327.162a.373.373,0,0,0,.071.007.361.361,0,0,0,.353-.29,7.872,7.872,0,0,1,1.917-4.017,1.263,1.263,0,0,1,1.131.162c.594.487.737,1.8.4,3.7a.361.361,0,1,0,.711.125c.6-3.388-.342-4.423-1.236-4.695-.043-.013-.085-.024-.128-.034.068-.046.134-.091.2-.134a5.393,5.393,0,0,1,3.332-.784.361.361,0,0,0,.484-.478c-.166-.355-1.107-.3-1.652-.232a6.264,6.264,0,0,0-3.262,1.4,8.17,8.17,0,0,0-2.611,4.847.361.361,0,0,0,.283.425" transform="translate(-1100.404 -312.073)"/>
      <path id="Path_68160" data-name="Path 68160" d="M1087.116,360.8l-.239-.258-.02.018a8.866,8.866,0,0,0-2.682,6.645c0,.34.016.651.04.941a8.151,8.151,0,0,0-5.163,7.018,12.633,12.633,0,0,0-3.065-1.406,4.411,4.411,0,0,1-3.034-4.038c0-1.963,1.465-3.6,4.027-4.484a.356.356,0,0,0,.157-.11,11.021,11.021,0,0,1,1.581,2.577.6.6,0,0,0,.113.193.361.361,0,0,0,.572-.431l-.032-.067c-.882-1.891-2.267-4.093-3.861-3.832a.361.361,0,1,0,.116.712,1.3,1.3,0,0,1,.967.333c-2.776,1.007-4.366,2.861-4.362,5.111a5.146,5.146,0,0,0,3.536,4.724,12.294,12.294,0,0,1,3.3,1.591.359.359,0,0,0,.307.21,17.784,17.784,0,0,1,3.507,3.265.362.362,0,0,0,.3.157.357.357,0,0,0,.114-.019.361.361,0,0,0,.228-.456,17.579,17.579,0,0,0-3.762-3.563,7.385,7.385,0,0,1,4.552-6.735,8.011,8.011,0,0,0,1.01,2.7,7.262,7.262,0,0,1,1.039,4.267.362.362,0,0,0,.353.369h.008a.361.361,0,0,0,.361-.353,7.96,7.96,0,0,0-1.126-4.626,7.272,7.272,0,0,1-1.056-4.042,8.132,8.132,0,0,1,2.44-6.108.38.38,0,0,0,.152-.34Z" transform="translate(-1066.813 -344.938)"/>
      <path id="Path_68161" data-name="Path 68161" d="M1099.355,473.977l-.007-.007c-.463-.437-.923-.853-1.351-1.23-.992-.874-1.89-1.608-2.468-2.07-1.227-.98-1.227-.98-1.456-.871a.361.361,0,0,0-.179.463.358.358,0,0,0,.165.182c.287.2,2.483,1.9,4.562,3.836a2.286,2.286,0,0,1-1.28.642c-.942.156-2.584-.11-5.042-2.261a.361.361,0,1,0-.475.543c2.172,1.9,3.83,2.48,5.044,2.48a3.315,3.315,0,0,0,1.454-.321,3.065,3.065,0,0,0,.823-.588,17.162,17.162,0,0,1,3.013,3.54,2.057,2.057,0,0,1,.17,1.928,3.95,3.95,0,0,1-2.224,1.681.361.361,0,0,0-.137.683.314.314,0,0,0,.141.027,4.687,4.687,0,0,0,2.287-1.255,2.685,2.685,0,0,0,.4-3.406,19.123,19.123,0,0,0-3.439-4" transform="translate(-1082.771 -434.443)"/>
    </g>
    <g id="Group_19564" data-name="Group 19564" transform="translate(-13879.152 -3925.758)">
      <path id="Path_68226" data-name="Path 68226" d="M576.792,535.38c0,7.757-8.042,14.046-16.358,14.046s-13.758-6.289-13.758-14.046a14.886,14.886,0,0,1,15.058-14.5c9.533.113,15.058,6.742,15.058,14.5" transform="translate(-546.677 -508.335)" fill="#1a6f5d"/>
      <path id="Path_68227" data-name="Path 68227" d="M578.424,565.911a.7.7,0,0,0,.235.418.359.359,0,0,0,.38,0,3.261,3.261,0,0,0,1.188-1.446,8.306,8.306,0,0,0,.979-2.6.571.571,0,0,0-.925-.54,3.272,3.272,0,0,0-.362.383,8.754,8.754,0,0,0-1.461,2.608l-.042.2a2.171,2.171,0,0,0,.008.981" transform="translate(-572.648 -541.711)" fill="#fff"/>
      <path id="Path_68228" data-name="Path 68228" d="M577.2,565.111a.668.668,0,0,1-.392-.124,1.055,1.055,0,0,1-.374-.622,2.546,2.546,0,0,1-.011-1.144l.042-.2a.337.337,0,0,1,.013-.046A9.069,9.069,0,0,1,578,560.262a3.625,3.625,0,0,1,.4-.425.9.9,0,0,1,1.033-.117.945.945,0,0,1,.488.979,8.615,8.615,0,0,1-1.017,2.721,3.571,3.571,0,0,1-1.336,1.595.777.777,0,0,1-.369.1m.028-.71h0Zm-.063-1.2-.037.173a1.816,1.816,0,0,0,0,.817.534.534,0,0,0,.08.2l.013-.006a2.949,2.949,0,0,0,1.041-1.3,8,8,0,0,0,.941-2.488.226.226,0,0,0-.118-.239.177.177,0,0,0-.212.022,2.941,2.941,0,0,0-.321.341,8.351,8.351,0,0,0-1.392,2.479" transform="translate(-571.011 -540.076)" fill="#fff"/>
      <path id="Path_68229" data-name="Path 68229" d="M586.57,608.066a.619.619,0,0,1-.508-.269,1.019,1.019,0,0,1-.125-.655.358.358,0,0,1-.088-.227c-.022-.824-.015-1.657.02-2.476a1.078,1.078,0,0,1,.181-.631.624.624,0,0,1,.523-.247.535.535,0,0,1,.434.24.716.716,0,0,1,.1.409v3.252a.679.679,0,0,1-.064.322.519.519,0,0,1-.439.282h-.034" transform="translate(-578.771 -576.098)" fill="#fff"/>
      <path id="Path_68230" data-name="Path 68230" d="M604.148,465.009q.034-5.833.068-11.667l1.774,10.647,4.413.044a19.076,19.076,0,0,0-4.349,2.184.655.655,0,0,0-.324.38.7.7,0,0,0,.165.487l2.178,3.292a19.809,19.809,0,0,0-3.258-3.307,26.693,26.693,0,0,1-2.014,5.411q.155-2.733.309-5.466a.432.432,0,0,0-.057-.3.389.389,0,0,0-.29-.1l-2.729-.172,2.823-.764-1.762-3.212a13.824,13.824,0,0,0,2.96,2.505" transform="translate(-590.409 -452.981)"/>
      <path id="Path_68231" data-name="Path 68231" d="M601.162,471.2a.361.361,0,0,1-.36-.381l.309-5.466c0-.008,0-.015,0-.022H601.1l-2.729-.172a.361.361,0,0,1-.072-.708l2.38-.644L599.139,461a.361.361,0,0,1,.585-.414,13.472,13.472,0,0,0,2.427,2.14l.064-11.024a.361.361,0,0,1,.717-.057l1.725,10.349,4.11.041a.361.361,0,0,1,.116.7,18.7,18.7,0,0,0-4.266,2.143c-.144.1-.167.136-.171.148s.009.066.111.221l2.178,3.292a.361.361,0,0,1-.586.421,19.489,19.489,0,0,0-2.768-2.892,27.056,27.056,0,0,1-1.9,4.937.361.361,0,0,1-.323.2m-.563-6.625.548.034a.724.724,0,0,1,.547.234.771.771,0,0,1,.138.55l-.2,3.552a26.44,26.44,0,0,0,1.2-3.607.361.361,0,0,1,.575-.193q.253.2.5.414a.94.94,0,0,1-.165-.672,1,1,0,0,1,.476-.611,19.508,19.508,0,0,1,2.742-1.542l-2.608-.026a.361.361,0,0,1-.352-.3l-1.082-6.494-.044,7.456a.361.361,0,0,1-.361.359h0a1.07,1.07,0,0,1-.282-.1,14.056,14.056,0,0,1-1.338-.953l.648,1.181a.361.361,0,0,1-.222.522Z" transform="translate(-588.769 -451.342)"/>
    </g>
    <g id="Group_19558" data-name="Group 19558" transform="translate(-14033.285 -3895.283)">
      <path id="Path_68214" data-name="Path 68214" d="M42.118,956.1a18.091,18.091,0,0,1-12.137,22.52,17.926,17.926,0,1,1-10.6-34.243A18.091,18.091,0,0,1,42.118,956.1" transform="translate(-5.287 -935.974)" fill="#1a6f5d"/>
      <path id="Path_68215" data-name="Path 68215" d="M129.067,979.983a1.083,1.083,0,0,1-1.047-.812,12.346,12.346,0,0,0-8.417-8.325,1.083,1.083,0,0,1,.568-2.089,14.535,14.535,0,0,1,9.946,9.874,1.083,1.083,0,0,1-1.049,1.352" transform="translate(-97.371 -956.606)" fill="#fff" stroke="#1a6f5d" stroke-width="1"/>
      <rect id="Rectangle_8903" data-name="Rectangle 8903" width="28.307" height="5.065" transform="translate(9.368 41.005) rotate(-17.203)"/>
      <path id="Path_68216" data-name="Path 68216" d="M86.639,1118.954l-30.4,9.413a.824.824,0,0,1-1.054-.975l1.12-4.6a.836.836,0,0,1,.566-.6l25.937-8.03a.835.835,0,0,1,.826.194l3.346,3.221a.824.824,0,0,1-.339,1.381" transform="translate(-45.208 -1075.776)"/>
      <rect id="Rectangle_8904" data-name="Rectangle 8904" width="28.307" height="1.039" transform="translate(10.866 45.843) rotate(-17.203)" fill="#fff"/>
      <path id="Path_68217" data-name="Path 68217" d="M45.042,935.06s2.591-1.589,1.431-5.243c0,0,1.815,4.417,3.98,3.866,0,0-2.48,2.025-1.758,4.862,0,0-1.16-3.655-3.652-3.485" transform="translate(-36.917 -924.722)" fill="#fff"/>
      <path id="Path_68218" data-name="Path 68218" d="M47.055,937.267a.361.361,0,0,1-.344-.251c-.011-.034-1.107-3.383-3.284-3.235a.361.361,0,0,1-.214-.667c.1-.06,2.333-1.5,1.277-4.827a.361.361,0,0,1,.677-.247c.473,1.148,2.033,4.042,3.557,3.654a.361.361,0,0,1,.317.629c-.023.018-2.292,1.92-1.637,4.494a.36.36,0,0,1-.35.45m-2.79-4.125a4.2,4.2,0,0,1,2.353,1.992,5.687,5.687,0,0,1,1.342-2.743,4.862,4.862,0,0,1-2.473-2.211,4.577,4.577,0,0,1-1.222,2.962" transform="translate(-35.278 -923.084)"/>
      <path id="Path_68219" data-name="Path 68219" d="M2,909.975s3.161-1.938,1.745-6.4c0,0,2.215,5.389,4.855,4.717,0,0-3.026,2.471-2.145,5.932,0,0-1.416-4.458-4.455-4.252" transform="translate(-1.64 -903.217)" fill="#fff"/>
      <path id="Path_68220" data-name="Path 68220" d="M4.817,912.949a.361.361,0,0,1-.344-.251c-.014-.042-1.368-4.184-4.087-4a.361.361,0,0,1-.214-.667c.12-.074,2.9-1.86,1.591-5.981a.361.361,0,0,1,.678-.246c.584,1.418,2.518,4.995,4.432,4.5a.361.361,0,0,1,.317.629c-.028.023-2.836,2.373-2.023,5.563a.361.361,0,0,1-.25.436.366.366,0,0,1-.1.014m-3.549-4.9a4.684,4.684,0,0,1,2.761,2.137c.109.162.21.323.3.482a6.811,6.811,0,0,1,1.737-3.633c-1.33-.261-2.467-1.665-3.238-2.914a5.578,5.578,0,0,1-.754,2.874,5.417,5.417,0,0,1-.808,1.053" transform="translate(-0.001 -901.578)"/>
    </g>
    <g id="Group_19565" data-name="Group 19565" transform="translate(-13800.069 -3946.612)">
      <path id="Path_68270" data-name="Path 68270" d="M944.481,28.328a.314.314,0,0,0-.247-.259L937.8,26.746l-.021,0a.293.293,0,0,0,.035-.041.313.313,0,0,0,.051-.236c-1.213-6.5-3.522-11.835-6.862-15.859a23.779,23.779,0,0,0-9.934-7.115,27.891,27.891,0,0,0-11.707-1.678A2.837,2.837,0,0,0,908.263.328a2.359,2.359,0,0,0-1.875-.241,2.757,2.757,0,0,0-2.22,2.694c-7.269,1.878-12.739,5.454-16.29,10.663a28.847,28.847,0,0,0-4.61,15.038,33.246,33.246,0,0,0,.518,7.52.314.314,0,0,0,.306.247.309.309,0,0,0,.055,0l53.274-9.378c-1.7.909-16.149,8.644-22.988,12.486-7.04,3.954-20.011,11.485-22.819,13.39a74,74,0,0,1-7.476,4.127.314.314,0,0,0-.154.162l-2.6,6.219a.314.314,0,0,0,.443.394l62.5-34.992a.314.314,0,0,0,.157-.322" transform="translate(-881.362 0.002)"/>
      <path id="Path_68271" data-name="Path 68271" d="M1032.635,4.074a1.758,1.758,0,0,1,1.39.159,2.133,2.133,0,0,1,.787,1.018c-.284.032-.441.056-.45.058q-1.789.286-3.455.689a2.1,2.1,0,0,1,1.729-1.924" transform="translate(-1007.462 -3.376)" fill="#fff"/>
      <path id="Path_68272" data-name="Path 68272" d="M897.883,48.317c-.348-1.932-1.978-12.928,4.054-21.776,4.089-6,10.806-9.78,19.966-11.246a20.5,20.5,0,0,1,2.948-.182,27.056,27.056,0,0,1,9.557,1.72,23.158,23.158,0,0,1,9.661,6.934c3.211,3.875,5.45,9,6.657,15.249Z" transform="translate(-894.904 -12.743)" fill="#3fbca1"/>
      <path id="Path_68273" data-name="Path 68273" d="M887.441,209.943l2.2-5.271a72.891,72.891,0,0,0,7.449-4.121c2.795-1.9,15.742-9.413,22.773-13.362,6.929-3.891,21.682-11.787,23.042-12.515l5.5,1.131Z" transform="translate(-886.488 -147.29)" fill="#fff"/>
      <path id="Path_68274" data-name="Path 68274" d="M953.942,73.432c-1.452-.265-2.69.847-3.606,1.846-3.307,3.6-4.916,7-4.918,10.392a.77.77,0,0,0,.559.758.654.654,0,0,0,.155.019c.265,0,.494-.178.681-.53a17.919,17.919,0,0,0,1.459-4.146l.006-.024a3.377,3.377,0,0,1,.976-1.645,44.9,44.9,0,0,0,3.342-3.611l.444-.515a4.02,4.02,0,0,0,1.159-2.211.314.314,0,0,0-.257-.333m-1.377,2.135-.444.516a43.823,43.823,0,0,1-3.3,3.562A4.006,4.006,0,0,0,947.67,81.6l0,.019v0a17.317,17.317,0,0,1-1.4,4,.594.594,0,0,1-.134.2.156.156,0,0,1-.08-.148c0-3.224,1.557-6.484,4.753-9.968a4.219,4.219,0,0,1,2.714-1.681h.01a4.083,4.083,0,0,1-.957,1.546" transform="translate(-935.376 -61.886)"/>
    </g>
    <g id="Group_19575" data-name="Group 19575" transform="translate(-13840.173 -3836.153)">
      <path id="Path_68182" data-name="Path 68182" d="M277.279,242.082s30.575,11.06,41.506,18.236L307.39,283s-31.372-14-41.547-17.9Z" transform="translate(-265.444 -239.899)" fill="#fff"/>
      <path id="Path_68183" data-name="Path 68183" d="M305.153,281.242l-.251-.112c-.314-.14-31.482-14.037-41.533-17.893l-.3-.113L274.765,239.6l.241.087c.306.111,30.732,11.154,41.566,18.266l.214.141ZM263.87,262.814c9.865,3.819,38.05,16.358,41.016,17.679l11.156-22.2c-10.437-6.742-38.11-16.926-40.991-17.978Z" transform="translate(-263.074 -237.769)"/>
      <path id="Path_68184" data-name="Path 68184" d="M305.353,283.106a83.124,83.124,0,0,1,13.181,5.772l-7.3,15.068s-6.78-3-13.208-5.548Z" transform="translate(-293.002 -275.022)"/>
      <path id="Path_68185" data-name="Path 68185" d="M309.037,302.24l-.254-.112c-.068-.03-6.849-3.026-13.2-5.544l-.286-.114,7.566-15.794.238.075a84.254,84.254,0,0,1,13.232,5.793l.241.131Zm-12.953-6.077c5.578,2.22,11.4,4.767,12.677,5.327l7.057-14.57a85.006,85.006,0,0,0-12.652-5.542Z" transform="translate(-290.664 -272.942)"/>
      <path id="Path_68186" data-name="Path 68186" d="M452.16,369.866a.289.289,0,0,1-.118-.025l-1.742-.784a.288.288,0,0,1-.15-.367.466.466,0,0,0-.042-.392.8.8,0,0,0-.513-.39,1.754,1.754,0,0,0-1.278.366.288.288,0,0,1-.422-.353l.1-.234a1.685,1.685,0,0,0-1.433-.094.288.288,0,0,1-.364-.4c.107-.209.614-1.266.083-1.6-.293-.185-.751.026-1.006.327a4,4,0,0,0-.417.65,5.077,5.077,0,0,1-.412.658.288.288,0,0,1-.461-.344,4.023,4.023,0,0,0,.752-2.255,2.252,2.252,0,0,0-1.551.765,5.622,5.622,0,0,1-.459.827.288.288,0,0,1-.518-.238,2.587,2.587,0,0,1,.474-.88,1.741,1.741,0,0,0,.092-.333.907.907,0,0,0-.331-.92.92.92,0,0,0-1.067.292,3.273,3.273,0,0,0-.566,1.338.288.288,0,0,1-.557-.144,3.764,3.764,0,0,1,.688-1.571,1.474,1.474,0,0,1,1.793-.41,1.372,1.372,0,0,1,.627,1.143,2.715,2.715,0,0,1,1.682-.439.288.288,0,0,1,.263.273,4.553,4.553,0,0,1-.04.846,1.24,1.24,0,0,1,1.32-.073c.518.327.64.983.357,1.806a2.266,2.266,0,0,1,1.583.436.289.289,0,0,1,.092.119,1.9,1.9,0,0,1,1.094-.123,1.377,1.377,0,0,1,.9.679,1.08,1.08,0,0,1,.135.6l1.53.689a.288.288,0,0,1-.118.55" transform="translate(-414.763 -343.593)"/>
      <path id="Path_68187" data-name="Path 68187" d="M440.823,398a.289.289,0,0,1-.094-.016l-2.018-.695a.288.288,0,0,1-.118-.467.947.947,0,1,0-1.672-.628.287.287,0,0,1-.4.274l-1.878-.76a.288.288,0,0,1-.04-.513.268.268,0,0,0,.092-.273.443.443,0,0,0-.284-.367.69.69,0,0,0-.68.313.937.937,0,0,1-.192.359.288.288,0,0,1-.492-.276,1.444,1.444,0,0,1,.143-.31.58.58,0,0,0-.025-.221.691.691,0,0,0-.442-.464,1.18,1.18,0,0,0-1.167.518l-.019.026a.288.288,0,0,1-.466-.338l.016-.022a.606.606,0,0,0,.052-.524.6.6,0,0,0-1.157.194.288.288,0,1,1-.575.016,1.164,1.164,0,0,1,2.28-.387,1.34,1.34,0,0,1,.035.134,1.543,1.543,0,0,1,1.153-.172,1.259,1.259,0,0,1,.8.744,1.123,1.123,0,0,1,.871-.15,1,1,0,0,1,.715.84.917.917,0,0,1-.051.482l1.182.478a1.6,1.6,0,0,1,.617-.845,1.443,1.443,0,0,1,2.321.871,1.6,1.6,0,0,1-.091,1.042l1.669.575a.288.288,0,0,1-.094.56" transform="translate(-405.49 -368.787)"/>
      <path id="Path_68188" data-name="Path 68188" d="M424.15,421a.288.288,0,0,1-.206-.488.463.463,0,0,0,.078-.49.962.962,0,0,0-.7-.624,2.8,2.8,0,0,0-1.824.66.288.288,0,0,1-.426-.343c.188-.5.2-.812.041-.965a.526.526,0,0,0-.641.066,1.578,1.578,0,0,0-.385.567,1.084,1.084,0,0,1-.139.316.288.288,0,0,1-.507-.266c.031-.077.065-.158.1-.241a.574.574,0,0,0-.883-.6.288.288,0,0,1-.321-.477,1.187,1.187,0,0,1,1.452.135,1.071,1.071,0,0,1,.186.245,1.531,1.531,0,0,1,.126-.119,1.079,1.079,0,0,1,1.406-.043,1.032,1.032,0,0,1,.283.875,2.561,2.561,0,0,1,1.618-.378,1.531,1.531,0,0,1,1.157,1.009,1.024,1.024,0,0,1-.211,1.073.288.288,0,0,1-.206.087" transform="translate(-395.9 -390.452)"/>
      <path id="Path_68189" data-name="Path 68189" d="M324.133,333.123a4,4,0,0,0-.093-5.141.646.646,0,0,1-.189-.288.548.548,0,0,1,.051-.3c.563-1.431,2.016-2.285,2.957-3.5a5.65,5.65,0,0,0,1.169-3.456.912.912,0,0,0-.127-.541.885.885,0,0,0-.379-.261,4.377,4.377,0,0,0-5.132,1.421,7.88,7.88,0,0,0-1.142,3.913l-.343.858a1.514,1.514,0,0,1-1.174,1.317c-.555.112-1.17-.094-1.678.156a1.818,1.818,0,0,0-.441.336,8.366,8.366,0,0,0-1.672,2.258" transform="translate(-308.337 -306.016)" fill="#fff"/>
      <path id="Path_68190" data-name="Path 68190" d="M475.908,341.537c-5.828-3.528-19.365-8.576-19.5-8.627l.752-2.022c.563.209,13.864,5.17,19.867,8.8Z" transform="translate(-428.602 -315.932)"/>
      <path id="Path_68191" data-name="Path 68191" d="M536.466,440.43a.469.469,0,0,1-.287-.1.751.751,0,0,1-.233-.783,2.326,2.326,0,0,1,.092-.23c.053-.12.107-.243.083-.3,0-.012-.01-.024-.043-.034a.618.618,0,0,0-.436.1c-.04.026-.08.054-.121.082a1.242,1.242,0,0,1-1.052.316.288.288,0,0,1-.182-.392l.346-.782a1.919,1.919,0,0,0-1,.384l-.024.018a.811.811,0,0,1-.405.2.8.8,0,0,1-.427-.093l-1.71-.77a.288.288,0,1,1,.236-.525l1.71.77a.558.558,0,0,0,.126.045.568.568,0,0,0,.117-.079l.026-.02a2.5,2.5,0,0,1,1.361-.5.573.573,0,0,1,.5.181.59.59,0,0,1,.02.617l-.116.263c.049-.032.1-.065.147-.1l.131-.089a1.165,1.165,0,0,1,.922-.172.629.629,0,0,1,.405.365.934.934,0,0,1-.089.753c-.028.062-.053.121-.071.174a.186.186,0,0,0,.013.107.288.288,0,0,1,.21.525.463.463,0,0,1-.25.075" transform="translate(-492.382 -407.204)"/>
      <path id="Path_68192" data-name="Path 68192" d="M498.9,453.421a.3.3,0,0,1-.042,0,.287.287,0,0,1-.243-.326c.023-.16-.141-.326-.306-.388a1.826,1.826,0,0,0-.785-.036.288.288,0,0,1-.2-.516.473.473,0,1,0-.709-.6c-.024.045-.045.1-.066.147a.674.674,0,0,1-.994.49l-2.019-.808a.568.568,0,0,1-.343-.3.547.547,0,0,1,.023-.428,3.382,3.382,0,0,1,.168-.333,1.966,1.966,0,0,0,.178-.382c.047-.163.01-.343-.079-.387-.115-.057-.317.083-.439.244-.043.058-.084.118-.125.179a1.6,1.6,0,0,1-.588.6.287.287,0,0,1-.394-.148,1.4,1.4,0,0,1-.062-.633c.011-.187.015-.322-.037-.36-.074-.054-.289.059-.446.141l-.109.057a1.974,1.974,0,0,1-2.286-.434.288.288,0,0,1,.428-.385,1.4,1.4,0,0,0,1.6.3l.1-.052a.979.979,0,0,1,1.048-.1.753.753,0,0,1,.284.667c.042-.062.084-.124.129-.183a.965.965,0,0,1,1.152-.414.89.89,0,0,1,.378,1.064,2.428,2.428,0,0,1-.227.5c-.047.086-.093.168-.129.249l2.01.8a.587.587,0,0,0,.134.041.8.8,0,0,0,.116-.22c.027-.064.054-.13.089-.195a1.038,1.038,0,0,1,1.962.524,1.156,1.156,0,0,1-.04.27,1.585,1.585,0,0,1,.482.094.981.981,0,0,1,.673,1.009.288.288,0,0,1-.284.246" transform="translate(-456.439 -416.813)"/>
      <path id="Path_68193" data-name="Path 68193" d="M466.2,226.9l-3.945,7.592s-2.433,4.176,1.653,6.374a4.428,4.428,0,0,0,4.987-.122,5.039,5.039,0,0,0,1.572-1.894l3.886-7.952c-1.483-1.046-8.152-4-8.152-4" transform="translate(-432.996 -226.9)" fill="#1a6f5d"/>
    </g>
    <g id="Group_19566" data-name="Group 19566" transform="translate(-14061.434 -3739.389)">
      <path id="Path_68275" data-name="Path 68275" d="M739.019,419.193A21.425,21.425,0,0,1,731.7,417.8a20.269,20.269,0,0,1-8.173-5.345c-1.974-2.263-2.694-4.593-2.027-6.56a5.212,5.212,0,0,1,2.849-2.973c3-1.429,7.7-1.266,12.269.426a20.27,20.27,0,0,1,8.173,5.345c1.974,2.264,2.694,4.593,2.028,6.56a5.214,5.214,0,0,1-2.849,2.973,11.626,11.626,0,0,1-4.953.968M729.3,402.67a10.892,10.892,0,0,0-4.64.9,4.511,4.511,0,0,0-2.476,2.553c-1.225,3.615,3.157,8.548,9.768,11,4.392,1.627,8.878,1.8,11.708.451a4.51,4.51,0,0,0,2.476-2.553c1.225-3.615-3.157-8.548-9.768-11a20.73,20.73,0,0,0-7.068-1.353" transform="translate(-707.607 -391.339)"/>
      <path id="Path_68276" data-name="Path 68276" d="M651.819,365.318a6.181,6.181,0,0,1-3.712-1.135,6.3,6.3,0,0,1-2.427-4.339c-.458-3.2.8-7.1,3.354-10.431,4.182-5.445,10.569-7.691,14.239-5a6.3,6.3,0,0,1,2.427,4.338c.458,3.2-.8,7.1-3.354,10.431-2.983,3.884-7.087,6.139-10.527,6.139m7.716-21.336c-3.2,0-7.084,2.167-9.929,5.871-2.442,3.179-3.643,6.876-3.212,9.889a5.6,5.6,0,0,0,2.139,3.858c3.355,2.456,9.3.276,13.241-4.861,2.442-3.179,3.643-6.876,3.212-9.89a5.6,5.6,0,0,0-2.139-3.858,5.511,5.511,0,0,0-3.312-1.01" transform="translate(-645.586 -343.246)"/>
      <path id="Path_68277" data-name="Path 68277" d="M651.819,365.318a6.181,6.181,0,0,1-3.712-1.135,6.3,6.3,0,0,1-2.427-4.339c-.458-3.2.8-7.1,3.354-10.431,4.182-5.445,10.569-7.691,14.239-5a6.3,6.3,0,0,1,2.427,4.338c.458,3.2-.8,7.1-3.354,10.431-2.983,3.884-7.087,6.139-10.527,6.139m7.716-21.336c-3.2,0-7.084,2.167-9.929,5.871-2.442,3.179-3.643,6.876-3.212,9.889a5.6,5.6,0,0,0,2.139,3.858c3.355,2.456,9.3.276,13.241-4.861,2.442-3.179,3.643-6.876,3.212-9.89a5.6,5.6,0,0,0-2.139-3.858,5.511,5.511,0,0,0-3.312-1.01" transform="translate(-645.586 -343.246)"/>
      <path id="Path_68278" data-name="Path 68278" d="M732.481,384.246s-.8-3.934,2.432-5.289,7.716-1.622,13.11.621,9.581,6.384,9.366,9.908c0,0,.212,1.52-1.615,3.185a15.063,15.063,0,0,0-9.262-8.337c-6.992-2.2-9.869-2.5-14.03-.088" transform="translate(-716.732 -371.637)" fill="#1a6f5d"/>
      <path id="Path_68279" data-name="Path 68279" d="M754.133,391.361a.375.375,0,0,1-.085-.01.362.362,0,0,1-.253-.225,14.829,14.829,0,0,0-9.032-8.119c-6.887-2.171-9.681-2.47-13.741-.12a.361.361,0,0,1-.534-.241,6.684,6.684,0,0,1,0-2.271,4.333,4.333,0,0,1,2.644-3.423c2.7-1.132,7.219-1.945,13.388.621,5.755,2.394,9.781,6.693,9.589,10.234a4.392,4.392,0,0,1-1.734,3.46.361.361,0,0,1-.243.094m-17.6-10.826c2.231,0,4.8.637,8.445,1.785a15.393,15.393,0,0,1,9.278,8.052,3.389,3.389,0,0,0,1.133-2.51.342.342,0,0,1,0-.069c.2-3.248-3.648-7.266-9.145-9.553-5.938-2.47-10.255-1.7-12.832-.622a3.593,3.593,0,0,0-2.208,2.862,6.085,6.085,0,0,0-.071,1.518,10.838,10.838,0,0,1,5.4-1.464" transform="translate(-715.091 -369.966)"/>
      <path id="Path_68280" data-name="Path 68280" d="M676.13,382.892a6.181,6.181,0,0,1-3.712-1.135,6.3,6.3,0,0,1-2.427-4.338c-.458-3.2.8-7.1,3.354-10.431,4.182-5.445,10.569-7.691,14.239-5a6.3,6.3,0,0,1,2.427,4.338c.458,3.2-.8,7.1-3.354,10.431-2.983,3.884-7.087,6.139-10.528,6.139m7.716-21.336c-3.2,0-7.084,2.167-9.929,5.871-2.442,3.179-3.643,6.876-3.212,9.889a5.6,5.6,0,0,0,2.139,3.858c3.355,2.456,9.3.276,13.241-4.861,2.442-3.179,3.643-6.876,3.212-9.89a5.6,5.6,0,0,0-2.139-3.858,5.511,5.511,0,0,0-3.312-1.01" transform="translate(-665.512 -357.649)"/>
      <path id="Path_68281" data-name="Path 68281" d="M678,353.359a10.933,10.933,0,0,0-6.288-4.771c2.348,1.206,3.18,3.54,3.08,6.974s-3.5,9.67-9.081,12.615-8.628-.557-8.628-.557,1.255,3.707,6.834,4.65c0,0,5.3,1.441,10.83-4.457s4.8-12.279,3.716-13.709Z" transform="translate(-655.006 -347.601)" fill="#fff"/>
      <path id="Path_68282" data-name="Path 68282" d="M661.259,368.68a6.919,6.919,0,0,1-1.644-.171c-5.713-.973-7.046-4.728-7.1-4.888l-.587-1.735,1.2,1.382c.117.133,2.938,3.241,8.187.474,5.577-2.94,8.8-9.143,8.889-12.306.1-3.517-.786-5.565-2.884-6.642l-2.389-1.227,2.628.553a11.205,11.205,0,0,1,6.517,4.928l.456.737c1.21,1.627,1.863,8.176-3.751,14.159-3.8,4.05-7.475,4.735-9.525,4.735m-7.183-3.848a9.013,9.013,0,0,0,5.675,2.968l.035.008a7.98,7.98,0,0,0,3.221-.031,13.507,13.507,0,0,0,7.25-4.324c5.261-5.608,4.767-11.827,3.691-13.244l-.019-.028-.459-.742a11.241,11.241,0,0,0-3.921-3.72c1.008,1.326,1.452,3.205,1.378,5.741-.1,3.421-3.379,9.816-9.274,12.923-3.5,1.847-6.084,1.229-7.577.451" transform="translate(-650.785 -343.486)"/>
      <path id="Path_68283" data-name="Path 68283" d="M653.039,366.407s-4.123-.711-4.746-4.166.128-7.655,3.6-11.767,8.572-6.423,12.054-4.933a4.992,4.992,0,0,1,2.824,2.647s-6.659-.174-10.456,5.415-4.743,8.113-3.276,12.8" transform="translate(-647.642 -344.731)" fill="#1a6f5d"/>
      <path id="Path_68284" data-name="Path 68284" d="M651.387,365.155a.357.357,0,0,1-.061-.005c-.178-.031-4.379-.8-5.04-4.457-.523-2.9-.309-7.342,3.68-12.064,3.719-4.4,8.948-6.519,12.447-5.043a5.427,5.427,0,0,1,3.023,2.815.361.361,0,0,1-.008.361.366.366,0,0,1-.317.173c-.063,0-6.512-.095-10.149,5.257-3.728,5.486-4.659,7.925-3.23,12.494a.361.361,0,0,1-.344.468m8.548-21.323c-2.99,0-6.63,1.962-9.418,5.262-3.808,4.507-4.017,8.725-3.522,11.47.434,2.4,2.758,3.387,3.866,3.725-1.233-4.443-.146-7.13,3.5-12.5a13.421,13.421,0,0,1,10.131-5.55,4.435,4.435,0,0,0-2.284-1.958.437.437,0,0,1-.058-.019,5.613,5.613,0,0,0-2.219-.427" transform="translate(-645.989 -343.119)"/>
      <path id="Path_68285" data-name="Path 68285" d="M746.476,409.965a8.678,8.678,0,0,0,2.472-6.837c-.346,2.422-2.379,3.714-5.857,4.4s-10.971-1-15.97-5.443-2.609-8.021-2.609-8.021-3.253,1.99-2.15,7.309c0,0,.5,5.173,8.44,8.9s14.063,1.6,15.1.285Z" transform="translate(-708.323 -384.875)" fill="#fff"/>
      <path id="Path_68286" data-name="Path 68286" d="M737.908,407.433a21.04,21.04,0,0,1-8.914-2.123c-7.86-3.685-8.6-8.745-8.643-9.166-1.13-5.492,2.178-7.587,2.319-7.673l1.4-.856-.911,1.364c-.089.135-2.136,3.389,2.548,7.55,5.014,4.454,12.444,6,15.661,5.359,3.547-.7,5.265-1.966,5.57-4.1l.335-2.34.378,2.334a8.969,8.969,0,0,1-2.564,7.141l-.005.006-.565.578c-.694.859-3.121,1.925-6.608,1.925M722,390.111a7.1,7.1,0,0,0-.944,5.9l.006.039c.005.048.6,5.025,8.234,8.6,7.577,3.552,13.636,1.695,14.661.389l.026-.029.575-.589a8.84,8.84,0,0,0,2.28-4.426c.007-.037.013-.074.02-.11-.944,1.3-2.7,2.179-5.354,2.7-3.448.683-11.025-.859-16.28-5.527-1.479-1.314-3.253-3.411-3.3-5.939a5.319,5.319,0,0,1,.078-1.019" transform="translate(-706.67 -379.587)"/>
    </g>
    <g id="Group_19557" data-name="Group 19557" transform="translate(-14105.964 -3914.771)">
      <path id="Path_68092" data-name="Path 68092" d="M275.788,965.443a21.857,21.857,0,0,0-4.943-6.5,12.131,12.131,0,0,0-6.43-3.452c-1.114-.19-2.217-.364-3.309-.467v-.475a3.754,3.754,0,1,0-1.712.027v.354a13.583,13.583,0,0,0-2.779.238,12.293,12.293,0,0,0-6.892,3.174c-3.932,3.725-5.7,6.488-6.485,13.961a.352.352,0,0,0,0,.055l.1,2.047c0,.011,0,.023,0,.034a15.812,15.812,0,0,0,3.7,7.7,19.6,19.6,0,0,0,7.243,4.964,17.708,17.708,0,0,0,6.151,1q.459,0,.932-.018a14.559,14.559,0,0,0,5.772-1.228c2.707-1.268,4.833-3.652,6.728-6.039a16.39,16.39,0,0,0,2.707-5.838c.907-4.865.511-6.8-.786-9.538" transform="translate(-243.238 -947.145)"/>
      <g id="Group_19556" data-name="Group 19556" transform="translate(0.721 0.722)">
        <path id="Path_68093" data-name="Path 68093" d="M279.148,1013.484a15.781,15.781,0,0,1-2.563,5.521c-1.84,2.318-3.9,4.63-6.468,5.834a13.864,13.864,0,0,1-5.493,1.16,17.656,17.656,0,0,1-6.81-.942,18.9,18.9,0,0,1-6.972-4.787,15,15,0,0,1-3.5-7.284l-.1-2c.76-7.224,2.469-9.894,6.26-13.485,2.105-1.994,4.037-2.5,6.536-2.99a21.015,21.015,0,0,1,7.538.327,11.428,11.428,0,0,1,6.048,3.257,21.218,21.218,0,0,1,4.794,6.293c1.182,2.5,1.639,4.211.729,9.1" transform="translate(-247.242 -986.502)" fill="#3fbca1"/>
        <path id="Path_68194" data-name="Path 68194" d="M295.4,1027.128a.314.314,0,0,0-.007-.036.307.307,0,0,0-.011-.03c0-.01-.008-.021-.012-.031s-.011-.019-.017-.029-.01-.018-.017-.026-.014-.016-.021-.025-.014-.016-.022-.024l-.025-.02c-.009-.007-.017-.014-.027-.02l-.029-.015-.029-.015-.034-.011c-.009,0-.017-.006-.026-.008l-9.209-1.973a.114.114,0,1,1-.161-.161l-1.974-9.209c0-.009-.006-.017-.008-.026s-.006-.023-.011-.034-.009-.019-.014-.028a.328.328,0,0,0-.016-.03.25.25,0,0,0-.017-.022.326.326,0,0,0-.024-.03l-.014-.013a.371.371,0,0,0-.036-.031l-.007,0a.361.361,0,0,0-.169-.065h-.008a.389.389,0,0,0-.063,0h0l-.03.006-.031.006a.288.288,0,0,0-.035.013l-.025.01c-.011.006-.022.013-.033.02l-.023.015c-.01.007-.018.015-.027.023l-.022.02c-.007.008-.014.017-.02.025s-.014.017-.02.026-.01.019-.016.029-.01.019-.015.029a.315.315,0,0,0-.011.034c0,.009-.006.017-.008.026L281.1,1024.7a.114.114,0,1,1-.161.161l-9.21,1.973c-.009,0-.017.006-.026.008l-.034.011-.029.015-.029.016c-.009.006-.018.013-.027.02s-.017.012-.025.02-.015.016-.022.024-.015.016-.021.025-.011.017-.017.026-.012.019-.017.029-.008.02-.012.031a.315.315,0,0,0-.011.03.334.334,0,0,0-.007.036c0,.009,0,.017-.005.026s0,0,0,0,0,.023,0,.034,0,.023,0,.034,0,0,0,0,0,.017.005.026a.328.328,0,0,0,.007.036c0,.011.007.021.011.031s.008.021.012.03.011.019.017.029.011.018.017.026.014.016.021.025.014.016.022.024l.025.02c.009.007.017.014.027.02l.029.015a.3.3,0,0,0,.029.015.323.323,0,0,0,.034.011c.009,0,.017.006.026.008l9.21,1.973a.361.361,0,0,0,.076.008.355.355,0,0,0,.09-.013.361.361,0,0,0,0,.166l1.973,9.209c0,.012.007.023.011.035s0,.016.007.023a.337.337,0,0,0,.024.048l0,.009a.371.371,0,0,0,.038.051l.009.009a.39.39,0,0,0,.037.034l.019.013a.362.362,0,0,0,.033.021l.024.011.035.014.026.007.037.007.011,0h.076l.012,0,.036-.007.027-.007.034-.014.025-.011.032-.02.021-.014a.32.32,0,0,0,.034-.032l.011-.01a.36.36,0,0,0,.038-.05l.005-.01a.356.356,0,0,0,.023-.047c0-.007,0-.015.007-.023a.325.325,0,0,0,.011-.035l1.974-9.209a.089.089,0,1,1,.086-.153.359.359,0,0,0,.075-.008l9.209-1.973c.009,0,.017-.006.026-.008a.321.321,0,0,0,.034-.011.3.3,0,0,0,.029-.015l.029-.015.027-.02a.291.291,0,0,0,.025-.02c.008-.007.015-.016.022-.024s.015-.016.021-.025a.3.3,0,0,0,.017-.026c.006-.01.012-.019.017-.029a.328.328,0,0,0,.012-.03c0-.01.008-.02.011-.03a.341.341,0,0,0,.007-.036c0-.009,0-.016.005-.025a.025.025,0,0,1,0,0c0-.011,0-.023,0-.034s0-.023,0-.034a.024.024,0,0,1,0,0c0-.009,0-.017-.005-.025m-11.614-.947v-7.2l1.224,5.709Zm-2.867-.573,1.5,1.224h-7.2Zm2.145,2.595v7.2l-1.223-5.709Zm2.867.574-1.5-1.224h7.2Z" transform="translate(-267.081 -1003.652)"/>
        <path id="Path_68195" data-name="Path 68195" d="M283.156,1010.632a9.893,9.893,0,0,0-5.244-2.814,17.555,17.555,0,0,0-6.341-.261,10.012,10.012,0,0,0-5.616,2.588c-3.2,3.029-4.637,5.276-5.273,11.349a.4.4,0,0,0,0,.055l.082,1.658c0,.011,0,.023,0,.035a12.879,12.879,0,0,0,3.015,6.272,15.944,15.944,0,0,0,5.891,4.037,14.412,14.412,0,0,0,5.006.816q.373,0,.758-.014a11.851,11.851,0,0,0,4.7-1,16.3,16.3,0,0,0,5.473-4.911,13.358,13.358,0,0,0,2.206-4.758c.738-3.959.415-5.532-.642-7.767a17.764,17.764,0,0,0-4.018-5.285m3.95,12.92a12.692,12.692,0,0,1-2.062,4.442,15.686,15.686,0,0,1-5.214,4.706,11.165,11.165,0,0,1-4.422.933,14.22,14.22,0,0,1-5.489-.759,15.231,15.231,0,0,1-5.62-3.861,12.066,12.066,0,0,1-2.817-5.858l-.079-1.613c.613-5.824,1.992-7.978,5.049-10.873a9.285,9.285,0,0,1,5.259-2.4,16.969,16.969,0,0,1,6.08.265,9.189,9.189,0,0,1,4.862,2.62,17.119,17.119,0,0,1,3.869,5.077c.951,2.01,1.318,3.388.585,7.326" transform="translate(-258.256 -997.219)"/>
        <path id="Path_68196" data-name="Path 68196" d="M320.41,954.183a3.038,3.038,0,1,1,3.947,2.9v-1.4c1.6-.345,1.644-1.217,1.644-1.32,0-1.085-.859-1.635-2.553-1.635s-2.553.464-2.553,1.38.99,1.394,1.75,1.573v1.43a3.041,3.041,0,0,1-2.235-2.927" transform="translate(-307.21 -951.145)" fill="#3fbca1"/>
        <path id="Path_68197" data-name="Path 68197" d="M328.537,965.484c-.374-.056-1.442-.344-1.442-.918,0-.437.616-.659,1.832-.659,1.794,0,1.831.636,1.832.9-.011.049-.141.494-1.339.679a.361.361,0,0,0-.306.357v1.83c-.062,0-.124.01-.187.01-.027,0-.054,0-.081,0v-1.835a.361.361,0,0,0-.308-.357" transform="translate(-312.689 -961.605)" fill="#3fbca1"/>
        <path id="Path_68198" data-name="Path 68198" d="M336.879,988.779c.063,0,.125-.006.187-.01v.275H336.8v-.27c.027,0,.054,0,.081,0" transform="translate(-320.641 -981.981)"/>
      </g>
    </g>
    <g id="Group_19572" data-name="Group 19572" transform="translate(-13991.262 -3953.479)">
      <path id="Path_68150" data-name="Path 68150" d="M37.045,247.089l1.849,1.542s15.971-13.708,18.5-15.989l19.317,16.194,1.942-1.862-21.373-17.93Z" transform="translate(-36.493 -228.568)"/>
      <path id="Path_68151" data-name="Path 68151" d="M74.218,247.153l-19.326-16.2c-3.122,2.78-18.117,15.652-18.273,15.786l-.232.2-2.4-2.006L54.764,226.4l21.92,18.389ZM54.876,230l19.31,16.188,1.418-1.36L54.778,227.353,35.088,244.912l1.294,1.079c1.976-1.7,15.932-13.683,18.262-15.784Z" transform="translate(-33.984 -226.399)"/>
      <path id="Path_68152" data-name="Path 68152" d="M89.835,329.311h-.089a.362.362,0,0,1-.135-.026c-5.656-2.292-9.557-5.115-11.928-8.63a9.019,9.019,0,0,1-1.793-5.9,11.443,11.443,0,0,1,1.578-4.925,8.25,8.25,0,0,1,2.679-2.482,5.061,5.061,0,0,1,2.78-.561,8.483,8.483,0,0,1,4.5,1.517,6.63,6.63,0,0,1,2.37,2.86,6.63,6.63,0,0,1,2.37-2.86,8.482,8.482,0,0,1,4.5-1.517,5.056,5.056,0,0,1,2.78.561,8.25,8.25,0,0,1,2.679,2.482,11.445,11.445,0,0,1,1.578,4.925,9.02,9.02,0,0,1-1.793,5.9c-2.371,3.515-6.273,6.338-11.928,8.63a.362.362,0,0,1-.135.026" transform="translate(-68.3 -292.279)"/>
      <path id="Path_68153" data-name="Path 68153" d="M85.873,310.78a4.109,4.109,0,0,0-2.09.47,7.589,7.589,0,0,0-2.424,2.234,10.748,10.748,0,0,0-1.476,4.625,8.512,8.512,0,0,0,1.674,5.42c2.276,3.374,6.041,6.1,11.51,8.328,5.469-2.229,9.235-4.954,11.51-8.328a8.512,8.512,0,0,0,1.674-5.42,10.748,10.748,0,0,0-1.476-4.625,7.589,7.589,0,0,0-2.424-2.234,4.382,4.382,0,0,0-2.39-.464c-2.648.1-5.822,1.807-6.49,4.759a.361.361,0,0,1-.352.281h-.1a.361.361,0,0,1-.352-.281c-.668-2.952-3.843-4.655-6.49-4.759q-.153-.006-.3-.006" transform="translate(-71.576 -295.557)" fill="#fff"/>
    </g>
    <g id="Group_19579" data-name="Group 19579" transform="translate(-13921.351 -3977.229)">
      <g id="Group_19571" data-name="Group 19571" transform="translate(6.735 0)">
        <path id="Path_68109" data-name="Path 68109" d="M206.259,69.36a.361.361,0,0,1-.2-.062c-.186-.125-4.557-3.123-4.905-8.007a22.732,22.732,0,0,1,1.88-9.74.361.361,0,0,1,.537-.145,12.088,12.088,0,0,1,4.384,8.583c.533,5.741-1.3,9.049-1.381,9.187a.361.361,0,0,1-.231.173.366.366,0,0,1-.082.01m-2.753-17.073a21.972,21.972,0,0,0-1.634,8.952c.269,3.77,3.241,6.414,4.254,7.21a12.33,12.33,0,0,0,.658-1.926,18.958,18.958,0,0,0,.451-6.467,11.838,11.838,0,0,0-3.729-7.769" transform="translate(-182.55 -51.34)"/>
        <path id="Path_68110" data-name="Path 68110" d="M107.391,169.168a12.938,12.938,0,0,1-7.423-2.219.361.361,0,0,1-.053-.524l1.54-1.765a.3.3,0,0,1,.028-.029c3.127-2.864,7.947-4.235,13.938-3.971a38.268,38.268,0,0,1,8.16,1.271.361.361,0,0,1,.113.636,43.026,43.026,0,0,1-12.314,6.045,14.879,14.879,0,0,1-3.99.556m-6.663-2.577a13.217,13.217,0,0,0,10.46,1.326,41.828,41.828,0,0,0,11.446-5.488c-3-.733-14.372-3.008-20.649,2.721Z" transform="translate(-99.535 -140.911)"/>
        <path id="Path_68111" data-name="Path 68111" d="M107.455,84.832a.361.361,0,0,1-.072-.714l21.553-4.4L125.642,60.5a.361.361,0,1,1,.711-.122l3.353,19.558a.361.361,0,0,1-.283.415l-21.9,4.471a.368.368,0,0,1-.073.007" transform="translate(-105.491 -58.505)"/>
        <path id="Path_68112" data-name="Path 68112" d="M125.774,86.007a.361.361,0,0,1-.218-.074l-10.44-7.959c-4.393-.928-10.39-3.08-14.19-8.066a13.6,13.6,0,0,1-2.71-5.726.415.415,0,0,1,0-.052h0a.365.365,0,0,1,0-.061.359.359,0,0,1,.1-.2l.015-.014.018-.015a.359.359,0,0,1,.2-.074h0a.346.346,0,0,1,.078,0l.041.009c4.231,1.169,8.138,4.255,10.671,6.638a44.214,44.214,0,0,1,4.523,4.932.361.361,0,0,1-.391.563c-2.849-.848-6.271-3.052-10.171-6.551-1.69-1.516-3.107-2.96-4-3.9a14.7,14.7,0,0,0,2.219,4.048c3.691,4.815,9.55,6.888,13.816,7.778a.364.364,0,0,1,.145.066l10.505,8.009a.361.361,0,0,1-.219.648M99.766,64.891c2.158,2.288,7.728,7.845,12.723,9.9-1.9-2.257-6.96-7.755-12.723-9.9" transform="translate(-98.211 -61.522)"/>
      </g>
      <path id="Path_68113" data-name="Path 68113" d="M269.582,247.324s-1.722-4.372-3.142-5.649,1.867-.505,2.884,2.078,1.523,4.45.259,3.571" transform="translate(-235.672 -212.814)"/>
      <path id="Path_68114" data-name="Path 68114" d="M60.877,140.458s2.776-6.834,5.339-5.339c0,0,.214.213-1.709,1.709s-3.631,5.766-3.631,3.631" transform="translate(-60.877 -119.829)"/>
      <path id="Path_68118" data-name="Path 68118" d="M277.4,104.336s.186-7.374,3.111-6.88c0,0,.275.124-1,2.2s-1.362,6.677-2.116,4.678" transform="translate(-238.337 -89.117)"/>
    </g>
    <g id="Group_19578" data-name="Group 19578" transform="translate(-14013.956 -3766.912)">
      <g id="Group_19570" data-name="Group 19570" transform="translate(0 0)">
        <path id="Path_68135" data-name="Path 68135" d="M570.931,82.031a.36.36,0,0,1-.188-.053c-.159-.1-3.913-2.438-4.866-6.412a12.168,12.168,0,0,1,.645-7.411.361.361,0,0,1,.58-.1c.159.157,3.913,3.876,4.724,7.259.352,1.468-.5,6.223-.539,6.425a.36.36,0,0,1-.355.3m-3.953-13.069a11.675,11.675,0,0,0-.4,6.436,10.69,10.69,0,0,0,4.093,5.656,23.25,23.25,0,0,0,.452-5.575c-.616-2.57-3.169-5.476-4.146-6.516" transform="translate(-565.567 -67.948)"/>
        <path id="Path_68136" data-name="Path 68136" d="M575.111,82.031a.36.36,0,0,1-.276-.129c-2.493-2.966-4.1-13.108-4.163-13.538a.361.361,0,0,1,.713-.111c.016.1,1.638,10.373,4,13.185a.361.361,0,0,1-.276.593" transform="translate(-569.747 -67.948)"/>
        <path id="Path_68137" data-name="Path 68137" d="M606.712,112.885a.361.361,0,0,1-.359-.33,13.305,13.305,0,0,1,.128-2.883,6.45,6.45,0,0,1,2.348-4.483.334.334,0,0,1,.044-.026,8.634,8.634,0,0,1,4.236-.476.361.361,0,0,1,.327.434,9.034,9.034,0,0,1-2.674,4.692l-3.827,2.995a.36.36,0,0,1-.222.076m2.5-7.086c-1.957,1.39-2.173,4.592-2.168,6l3.269-2.558a7.924,7.924,0,0,0,2.307-3.864,8.021,8.021,0,0,0-3.407.418" transform="translate(-598.972 -98.025)"/>
      </g>
    </g>
    <g id="Group_19585" data-name="Group 19585" transform="translate(-13916.836 -3925.758)">
      <g id="Group_19570-2" data-name="Group 19570" transform="translate(0.001 0)">
        <path id="Path_68135-2" data-name="Path 68135" d="M570.931,82.031a.36.36,0,0,1-.188-.053c-.159-.1-3.913-2.438-4.866-6.412a12.168,12.168,0,0,1,.645-7.411.361.361,0,0,1,.58-.1c.159.157,3.913,3.876,4.724,7.259.352,1.468-.5,6.223-.539,6.425a.36.36,0,0,1-.355.3m-3.953-13.069a11.675,11.675,0,0,0-.4,6.436,10.69,10.69,0,0,0,4.093,5.656,23.25,23.25,0,0,0,.452-5.575c-.616-2.57-3.169-5.476-4.146-6.516" transform="translate(-565.567 -67.948)"/>
        <path id="Path_68136-2" data-name="Path 68136" d="M575.111,82.031a.36.36,0,0,1-.276-.129c-2.493-2.966-4.1-13.108-4.163-13.538a.361.361,0,0,1,.713-.111c.016.1,1.638,10.373,4,13.185a.361.361,0,0,1-.276.593" transform="translate(-569.747 -67.948)"/>
        <path id="Path_68137-2" data-name="Path 68137" d="M606.712,112.885a.361.361,0,0,1-.359-.33,13.305,13.305,0,0,1,.128-2.883,6.45,6.45,0,0,1,2.348-4.483.334.334,0,0,1,.044-.026,8.634,8.634,0,0,1,4.236-.476.361.361,0,0,1,.327.434,9.034,9.034,0,0,1-2.674,4.692l-3.827,2.995a.36.36,0,0,1-.222.076m2.5-7.086c-1.957,1.39-2.173,4.592-2.168,6l3.269-2.558a7.924,7.924,0,0,0,2.307-3.864,8.021,8.021,0,0,0-3.407.418" transform="translate(-598.972 -98.025)"/>
      </g>
    </g>
    <g id="Group_19563" data-name="Group 19563" transform="translate(-13957.65 -3791.346)">
      <path id="Union_80" data-name="Union 80" d="M1.388,15.654h0a.361.361,0,0,1-.349-.45c.073-.313,1.282-5.378,3.717-7.813,1.055-1.055,5.466-2.785,5.751-2.9a.359.359,0,0,1,.122-.027h.006a.36.36,0,0,1,.214.063l0,0,0,0,0,0,0,0,0,0,0,0A.36.36,0,0,1,11,4.755v.017h0a.358.358,0,0,1,0,.061c0,.264-.061,4.631-2.923,7.494A12.176,12.176,0,0,1,1.442,15.65a.359.359,0,0,1-.053,0Zm1.295-1.015a11.5,11.5,0,0,0,4.89-2.821,9.885,9.885,0,0,0,2.491-5.09A49.436,49.436,0,0,1,2.683,14.639ZM5.266,7.9c-1.638,1.637-2.718,4.676-3.213,6.33C3.986,12.5,8.487,8.319,9.965,5.49A21.676,21.676,0,0,0,5.266,7.9ZM2.705,4.425A.337.337,0,0,1,2.66,4.4,8.678,8.678,0,0,1,.04,1.039.36.36,0,0,1,.24.534a9.031,9.031,0,0,1,5.4-.173l4.553,1.7a.361.361,0,0,1,.089.628,13.325,13.325,0,0,1-2.525,1.4A8.275,8.275,0,0,1,4.6,4.8,4.688,4.688,0,0,1,2.705,4.425ZM.886,1.091A8.024,8.024,0,0,0,3.023,3.776c2.2.941,5.049-.548,6.251-1.29L5.386,1.037A5.58,5.58,0,0,0,3.449.724,10.023,10.023,0,0,0,.886,1.091Z" transform="translate(-0.001 0)" stroke="rgba(0,0,0,0)" stroke-width="1"/>
    </g>
    <g id="Group_19573" data-name="Group 19573" transform="matrix(0.017, 1, -1, 0.017, -13839.475, -3963.238)">
      <path id="Path_68266" data-name="Path 68266" d="M4.883,12.023a2.512,2.512,0,0,1-1.241-.373A2.927,2.927,0,0,1,2.264,7.882,3,3,0,0,1,.413,7.015,1.849,1.849,0,0,1,.035,5.447,2,2,0,0,1,.923,4.009a2.815,2.815,0,0,1,1.8-.317A3.965,3.965,0,0,1,3.46.988,2.984,2.984,0,0,1,5.879,0,2.763,2.763,0,0,1,8.215.98a3.754,3.754,0,0,1,.513,2.74,2.7,2.7,0,0,1,1.9.584,2.92,2.92,0,0,1,.751,2.61,3.012,3.012,0,0,1-1.226,2.315A4.21,4.21,0,0,1,7.171,9.7a3.443,3.443,0,0,1-1.549,2.16,1.764,1.764,0,0,1-.738.161M2.264,4.385a1.8,1.8,0,0,0-.957.235,1.293,1.293,0,0,0-.56.945,1.146,1.146,0,0,0,.216.981,2.814,2.814,0,0,0,1.83.656l.619,0-.307.538A2.344,2.344,0,0,0,4,11.024a1.415,1.415,0,0,0,1.323.182c.751-.342,1.144-1.558,1.232-2L6.63,8.83l.373.1a3.828,3.828,0,0,0,2.747-.3,2.328,2.328,0,0,0,.915-1.79,2.263,2.263,0,0,0-.512-2,2.337,2.337,0,0,0-1.795-.358l-.584.13.157-.577A3.536,3.536,0,0,0,7.64,1.416,2.09,2.09,0,0,0,5.879.722a2.3,2.3,0,0,0-1.863.727A3.678,3.678,0,0,0,3.49,4.07l.1.569-.555-.158a3.233,3.233,0,0,0-.773-.1" transform="translate(0 0)"/>
      <path id="Path_68267" data-name="Path 68267" d="M5.968,8.549a2.1,2.1,0,0,1-.618-.093,2.267,2.267,0,0,1-.529-.241c-.73.152-3.411.608-4.437-.638A2.474,2.474,0,0,1,.362,4.933,1.8,1.8,0,0,1,.674,3.677a2.6,2.6,0,0,1,1.835-.94,3.165,3.165,0,0,1,.942-2.3A2.43,2.43,0,0,1,5.744.152,2.761,2.761,0,0,1,7.715,1.677a2.832,2.832,0,0,1-.1,2.085A2.794,2.794,0,0,1,9.048,5.623a2.536,2.536,0,0,1-1.262,2.2,3.015,3.015,0,0,1-1.817.721M3.853,5.72c.006.017.584,1.7,1.71,2.046a1.987,1.987,0,0,0,1.782-.511c.707-.544,1.039-1.067.985-1.554C8.236,4.847,7,4.246,6.986,4.24l-.358-.167.2-.342a2.349,2.349,0,0,0,.217-1.789,2.1,2.1,0,0,0-1.5-1.1,1.771,1.771,0,0,0-1.64.148A2.807,2.807,0,0,0,3.23,3.038l.021.352-.351.03a2.2,2.2,0,0,0-1.633.67,1.061,1.061,0,0,0-.18.807l.027.118-.049.114C.652,6.046.61,6.716.942,7.118c.564.685,2.13.634,3.174.486a5.406,5.406,0,0,1-.948-1.656Z" transform="translate(14.156 3.918)"/>
    </g>
    <path id="Path_68213" data-name="Path 68213" d="M1109.664,1088.686a34.343,34.343,0,0,0-5.383-4.216c2.9-3.888,4.982-7.579,2.533-7.708-2.374-.125-4.692,2.473-6.515,5.348-2.037-1.106-3.765-1.908-4.661-2.308a.212.212,0,0,0-.267.307c.869,1.394,2.094,3.778,2.96,5.518-1.062,2.127-1.7,3.8-1.7,3.8-3.3-1.651-5.5,0-5.5,0l5.5,4.129s2.35-2.518,4.9-5.6c2.589.293,6.445.872,7.95,1.1a.214.214,0,0,0,.181-.364" transform="translate(-15105.08 -4896.523)"/>
    <g id="Group_19577" data-name="Group 19577" transform="translate(-13825.825 -3934.709)">
      <path id="Path_68121" data-name="Path 68121" d="M37.731,440.846l-.426-.08c-.051-.01-5.079-1.02-5.461-6.144-.374-5.005,1.617-7.233,1.7-7.326l.311-.338.255.382c.109.163,2.668,4.014,3.158,6.018a43.662,43.662,0,0,1,.463,7.055ZM33.8,428.178a10.445,10.445,0,0,0-1.232,6.39,5.994,5.994,0,0,0,4.447,5.378,39.146,39.146,0,0,0-.442-6.417,25.132,25.132,0,0,0-2.773-5.351" transform="translate(-31.799 -426.958)"/>
      <path id="Path_68122" data-name="Path 68122" d="M43.545,448.361c-1.43-1.446-2.4-3.77-2.884-6.909a25.557,25.557,0,0,1-.3-4.262l.721.023c0,.074-.193,7.438,2.977,10.641Z" transform="translate(-38.814 -435.344)"/>
      <path id="Path_68123" data-name="Path 68123" d="M71.7,469.456a.36.36,0,0,1-.357-.417,50.164,50.164,0,0,0,.643-6.154c-.1-1.565,1.407-5.517,1.471-5.685a.361.361,0,0,1,.606-.111c.146.165,3.572,4.06,2.415,6.433a9.853,9.853,0,0,1-2.209,2.668,6.925,6.925,0,0,0-2.221,3,.36.36,0,0,1-.349.27m2.216-11.417a18.076,18.076,0,0,0-1.21,4.8,29.88,29.88,0,0,1-.361,4.312,16.305,16.305,0,0,1,1.426-1.481,9.329,9.329,0,0,0,2.059-2.461c.687-1.41-.9-3.887-1.914-5.168" transform="translate(-64.203 -451.555)"/>
    </g>
    <g id="Group_19582" data-name="Group 19582" transform="translate(-13841.254 -3868.464)">
      <path id="Union_79" data-name="Union 79" d="M4.714,6.249A12.182,12.182,0,0,1,.026.5.361.361,0,0,1,.361,0h0C.587,0,5.871.061,8.808,1.925c1.249.793,3.865,4.663,4.074,4.975a.359.359,0,0,1,.069.175v0h0a.36.36,0,0,1-.177.347h0l0,0-.006,0h0a.359.359,0,0,1-.09.034h0a12.161,12.161,0,0,1-2.443.231A10.322,10.322,0,0,1,4.714,6.249ZM5.1,5.64a9.876,9.876,0,0,0,5.514,1.325A49.436,49.436,0,0,1,1.282,1.482,11.492,11.492,0,0,0,5.1,5.64Zm6.7.956A21.669,21.669,0,0,0,8.421,2.535C6.466,1.293,3.265.9,1.543.778,3.649,2.289,8.714,5.77,11.8,6.6Z" transform="translate(5.673)" stroke="rgba(0,0,0,0)" stroke-width="1"/>
      <g id="Group_19581" data-name="Group 19581" transform="translate(-0.001 3.849)">
        <path id="Path_68129" data-name="Path 68129" d="M890.429,581.278l-.394-.179c-.047-.021-4.692-2.2-3.847-7.264.825-4.951,3.287-6.643,3.391-6.713l.383-.255.157.432c.067.184,1.64,4.533,1.64,6.6a43.635,43.635,0,0,1-1.224,6.964Zm-.816-13.24a10.446,10.446,0,0,0-2.714,5.915,5.994,5.994,0,0,0,3.044,6.28,39.136,39.136,0,0,0,1.094-6.339,25.148,25.148,0,0,0-1.424-5.856" transform="translate(-886.085 -566.867)"/>
        <path id="Path_68130" data-name="Path 68130" d="M899.18,587.743c-1.047-1.744-1.437-4.233-1.162-7.4a25.575,25.575,0,0,1,.72-4.211l.7.193c-.02.071-1.952,7.18.366,11.043Z" transform="translate(-895.795 -574.463)"/>
      </g>
    </g>
    <g id="Group_19583" data-name="Group 19583" transform="translate(-13971.757 -3835.387)">
      <g id="Group_19580" data-name="Group 19580" transform="translate(0.001 0)">
        <path id="Path_68119" data-name="Path 68119" d="M329.3,73.36a.361.361,0,0,1-.266-.117c-.035-.038-3.454-3.861-.688-8.191,2.7-4.23,5.63-4.82,5.754-4.844a.361.361,0,0,1,.427.374c-.011.2-.27,4.813-1.08,6.709a43.67,43.67,0,0,1-3.859,5.925.361.361,0,0,1-.271.143H329.3m4.471-12.3a10.447,10.447,0,0,0-4.817,4.376,5.994,5.994,0,0,0,.335,6.97,39.141,39.141,0,0,0,3.493-5.4,25.143,25.143,0,0,0,.988-5.945" transform="translate(-327.265 -60.202)"/>
        <path id="Path_68120" data-name="Path 68120" d="M336.313,76.807a.361.361,0,0,1-.357-.312c-.278-2.015.339-4.457,1.834-7.259a25.6,25.6,0,0,1,2.315-3.591.361.361,0,0,1,.564.45c-.046.058-4.613,5.838-4,10.3a.361.361,0,0,1-.308.407.355.355,0,0,1-.05,0" transform="translate(-334.335 -64.552)"/>
      </g>
    </g>
    <g id="Group_19585-2" data-name="Group 19585" transform="translate(-14051.618 -3938.783)">
      <g id="Group_19570-3" data-name="Group 19570">
        <path id="Path_68135-3" data-name="Path 68135" d="M573.5,88.775a.533.533,0,0,1-.279-.079c-.236-.144-5.787-3.6-7.2-9.482a17.994,17.994,0,0,1,.954-10.959.534.534,0,0,1,.857-.154c.235.232,5.786,5.732,6.986,10.734.521,2.171-.743,9.2-.8,9.5a.533.533,0,0,1-.525.438m-5.846-19.327a17.264,17.264,0,0,0-.591,9.517c1.03,4.294,4.569,7.275,6.053,8.364.395-2.373,1.012-6.812.668-8.245-.911-3.8-4.686-8.1-6.131-9.636" transform="translate(-565.567 -67.948)"/>
        <path id="Path_68136-3" data-name="Path 68136" d="M577.239,88.775a.532.532,0,0,1-.409-.19c-3.687-4.386-6.057-19.384-6.157-20.021a.534.534,0,0,1,1.055-.164c.024.153,2.423,15.339,5.919,19.5a.534.534,0,0,1-.408.877" transform="translate(-569.306 -67.948)"/>
        <path id="Path_68137-3" data-name="Path 68137" d="M606.9,116.83a.533.533,0,0,1-.531-.488,19.676,19.676,0,0,1,.189-4.264c.478-3.087,1.679-5.379,3.473-6.629a.514.514,0,0,1,.065-.039c.082-.042,2.068-1.017,6.265-.7a.534.534,0,0,1,.483.642c-.04.188-1.006,4.631-3.955,6.939l-5.659,4.429a.532.532,0,0,1-.329.113m3.7-10.479c-2.894,2.055-3.213,6.791-3.206,8.879l4.834-3.782c2.042-1.6,3.052-4.469,3.411-5.715a11.862,11.862,0,0,0-5.039.618" transform="translate(-595.451 -94.855)"/>
      </g>
    </g>
    <g id="Group_19840" data-name="Group 19840" transform="translate(-13798.599 -3773.282)">
      <path id="Path_68232" data-name="Path 68232" d="M1171.477,931.9a30.276,30.276,0,0,0-2.023-3.325c-2.4-3.43-4.832-6.41-7.623-9.685-2.113-2.48-4.547-5-7.727-5.516a2.836,2.836,0,0,0-1.657.132,2.963,2.963,0,0,0-1.242,1.3,8.522,8.522,0,0,0-.269,6.891,27.4,27.4,0,0,0,3.422,6.012,68.309,68.309,0,0,0,5.106,7.155,15.265,15.265,0,0,0,7.057,4.858,4.926,4.926,0,0,0,2.452.172,4.371,4.371,0,0,0,2.852-2.615,5.794,5.794,0,0,0,.2-.544,6.085,6.085,0,0,0-.548-4.83" transform="translate(-1149.979 -912.952)"/>
      <path id="Path_68233" data-name="Path 68233" d="M1166.51,938.7a6.347,6.347,0,0,1-1.738-.276,15.487,15.487,0,0,1-7.229-4.966,51.857,51.857,0,0,1-4.165-5.73c-.322-.489-.644-.977-.969-1.462l-.387-.574a24.724,24.724,0,0,1-3.075-5.519,8.806,8.806,0,0,1,.294-7.187,2.783,2.783,0,0,1,3.271-1.609c3.358.541,5.862,3.194,7.944,5.639,2.464,2.892,5.1,6.07,7.644,9.712a30.708,30.708,0,0,1,2.044,3.359,6.438,6.438,0,0,1,.576,5.112c-.062.2-.134.392-.213.578a4.733,4.733,0,0,1-3.1,2.825,3.946,3.946,0,0,1-.894.1m-14.746-26.667a1.9,1.9,0,0,0-.814.159,2.6,2.6,0,0,0-1.079,1.146,8.091,8.091,0,0,0-.244,6.595,24.189,24.189,0,0,0,2.992,5.355q.195.288.388.576c.327.487.65.977.973,1.467a51.276,51.276,0,0,0,4.105,5.651,14.791,14.791,0,0,0,6.884,4.749,4.518,4.518,0,0,0,2.272.168,4,4,0,0,0,2.6-2.405c.07-.164.133-.336.189-.511a5.716,5.716,0,0,0-.517-4.542l-.007-.012a30.061,30.061,0,0,0-2-3.286c-2.391-3.417-4.768-6.332-7.6-9.658-2-2.347-4.394-4.892-7.51-5.394a4,4,0,0,0-.633-.056" transform="translate(-1148.33 -911.312)"/>
      <path id="Union_82" data-name="Union 82" d="M10.871,16.763c-2.17-.249-4.654-1.88-7.383-4.848A38.181,38.181,0,0,1,.059,7.565a.361.361,0,0,1,.088-.488L9.652.071A.361.361,0,0,1,10.115.1C10.372.345,16.4,6.171,16.4,11.344a5.491,5.491,0,0,1-1.754,4.109,4.52,4.52,0,0,1-3.2,1.343A4.894,4.894,0,0,1,10.871,16.763Z" transform="translate(6.293 10.805)" fill="#1a6f5d" stroke="rgba(0,0,0,0)" stroke-width="1"/>
      <path id="Path_68236" data-name="Path 68236" d="M1178.693,934.8a.36.36,0,0,1-.313-.181,18.332,18.332,0,0,0-2.531-3.211l-5.9-6.2a5.5,5.5,0,0,0-1.964-1.524,1.692,1.692,0,0,0-1.984.551.361.361,0,0,1-.615-.378,2.422,2.422,0,0,1,2.839-.853,6.038,6.038,0,0,1,2.247,1.707l5.9,6.2a19.8,19.8,0,0,1,2.634,3.349.361.361,0,0,1-.312.541" transform="translate(-1162.265 -920.781)" fill="#fff"/>
      <path id="Path_68237" data-name="Path 68237" d="M1251.384,1008.228a.361.361,0,0,1-.259-.612c.123-.128.1-.42-.052-.824a19.535,19.535,0,0,0-2.383-4.387.361.361,0,0,1,.585-.423,20.252,20.252,0,0,1,2.47,4.549,1.426,1.426,0,0,1-.1,1.588.36.36,0,0,1-.259.11" transform="translate(-1230.528 -985.501)" fill="#fff"/>
    </g>
  </g>
</svg>
