<?xml version="1.0" encoding="utf-8"?>
<!-- Generator: Adobe Illustrator 17.0.0, SVG Export Plug-In . SVG Version: 6.00 Build 0)  -->
<!DOCTYPE svg PUBLIC "-//W3C//DTD SVG 1.1//EN" "http://www.w3.org/Graphics/SVG/1.1/DTD/svg11.dtd">
<svg version="1.1" id="Layer_1" xmlns="http://www.w3.org/2000/svg" xmlns:xlink="http://www.w3.org/1999/xlink" x="0px" y="0px"
	 width="208px" height="169px" viewBox="0 0 208 169" enable-background="new 0 0 208 169" xml:space="preserve">
<g>
	<path fill="#FFFFFF" d="M200.491,130.153c-3.551,10.005-9.633,19.063-17.488,26.199c-2.239,2.033-4.62,3.902-7.126,5.596
		c-0.713,0.481-0.041,1.646,0.679,1.16c9.034-6.106,16.498-14.47,21.547-24.136c1.426-2.729,2.655-5.56,3.684-8.461
		C202.076,129.693,200.778,129.342,200.491,130.153"/>
	<path d="M56.191,114.763c-1.371,0-2.838-0.16-4.361-0.476c-0.45-0.093-0.756-0.512-0.709-0.969
		c0.386-3.765,2.876-10.886,9.536-10.886c2.283,0,4.891,0.835,7.752,2.482c0.35,0.202,0.522,0.613,0.42,1.004
		C68.805,106.007,66.39,114.763,56.191,114.763z M53.03,112.69c1.102,0.187,2.162,0.281,3.161,0.281c7.342,0,9.97-5.026,10.684-6.86
		c-2.328-1.253-4.417-1.887-6.219-1.887C55.128,104.224,53.456,110.43,53.03,112.69z"/>
	<path d="M68.439,125.055c-0.259,0-0.516-0.112-0.693-0.328c-6.128-7.476-16.674-4.168-16.78-4.134
		c-0.468,0.153-0.975-0.104-1.128-0.575c-0.153-0.47,0.103-0.975,0.573-1.129c0.117-0.038,11.807-3.733,18.721,4.701
		c0.314,0.383,0.258,0.947-0.125,1.261C68.84,124.988,68.639,125.055,68.439,125.055z"/>
	<path d="M40.974,89.757c0,0,20.5,4.335,23.134,0.401c2.634-3.933-1.25-4.917-1.25-4.917s7.817,3.617,11.067,1.867
		c3.25-1.75-1.766-3.8-1.766-3.8s8.383,4.151,9.4,1.367c1.017-2.783,0.417-4.417,0.417-4.417s20.7-7.232,8.151-21.717
		c-12.549-14.484-9.25,3.583-9.25,3.583s-5.283-10.85-10.633-5.734c-5.35,5.116-3.017,9.45-3.017,9.45s-3.533-7.601-6.766-5.301
		c-3.234,2.3-2.534,7.233-2.534,7.233s-36.151,6.048-35.652,22.548c0.499,16.5,5.032,20.767,10.832,30.501c0,0,9.883-0.85,13.333,4
		C46.438,124.824,35.956,105.874,40.974,89.757"/>
	<path d="M46.439,125.72c-0.281,0-0.557-0.132-0.731-0.377c-2.363-3.322-8.404-3.681-10.892-3.681c-0.988,0-1.628,0.054-1.635,0.054
		c-0.343,0.031-0.67-0.14-0.846-0.434c-0.903-1.515-1.77-2.89-2.609-4.22c-4.598-7.287-7.92-12.552-8.348-26.712
		c-0.481-15.875,30.053-22.284,35.593-23.315c-0.058-1.649,0.171-5.234,2.969-7.224c0.559-0.398,1.165-0.599,1.801-0.599
		c1.61,0,3.076,1.332,4.202,2.795c0.305-1.776,1.274-3.96,3.681-6.262c1.124-1.075,2.348-1.62,3.638-1.62
		c2.562,0,4.805,2.204,6.331,4.241c-0.051-1.973,0.159-4.183,1.156-5.379c0.526-0.631,1.235-0.964,2.049-0.964
		c1.954,0,4.498,1.885,8.005,5.933c3.62,4.178,4.942,8.222,3.93,12.02c-1.684,6.32-9.299,9.864-11.729,10.848
		c0.101,0.847,0.085,2.271-0.605,4.159c-0.258,0.707-0.945,1.549-2.752,1.549c-1.107,0-2.449-0.318-3.732-0.733
		c0.003,0.831-0.524,1.537-1.567,2.098c-0.721,0.388-1.647,0.585-2.752,0.585c-1.825,0-3.931-0.526-5.694-1.105
		c0.098,0.988-0.254,2.089-1.051,3.279c-0.935,1.397-3.244,2.047-7.265,2.047c-5.84,0-13.491-1.412-15.986-1.905
		c-4.283,15.393,5.52,33.409,5.622,33.592c0.23,0.416,0.095,0.939-0.307,1.192C46.767,125.676,46.602,125.72,46.439,125.72z
		 M34.816,119.871c2.391,0,6.108,0.279,9.072,1.75c-2.808-6.355-7.574-19.914-3.77-32.13c0.138-0.442,0.589-0.707,1.041-0.61
		c0.096,0.02,9.691,2.032,16.428,2.032c4.457,0,5.524-0.876,5.776-1.252c0.609-0.91,0.862-1.697,0.73-2.274
		c-0.087-0.38-0.349-0.706-0.781-0.972c-0.522-0.217-0.831-0.36-0.831-0.36c-0.42-0.194-0.622-0.676-0.468-1.112
		c0.155-0.436,0.614-0.683,1.064-0.569c0.052,0.013,0.507,0.134,1.035,0.433c1.426,0.585,4.887,1.885,7.485,1.885
		c0.805,0,1.445-0.125,1.903-0.371c0.517-0.279,0.625-0.486,0.625-0.516c-0.001-0.107-0.294-0.658-1.708-1.385
		c-0.396-0.179-0.655-0.307-0.655-0.307c-0.432-0.214-0.617-0.732-0.419-1.171c0.198-0.439,0.709-0.643,1.155-0.461
		c0.013,0.005,0.322,0.132,0.739,0.346c2.623,1.192,5.035,1.915,6.412,1.915c0.426,0,0.957-0.065,1.069-0.373
		c0.872-2.388,0.418-3.798,0.413-3.812c-0.156-0.465,0.087-0.98,0.549-1.143c0.096-0.034,9.605-3.436,11.324-9.903
		c0.848-3.189-0.348-6.681-3.554-10.382c-4.006-4.624-5.887-5.314-6.651-5.314c-0.285,0-0.486,0.096-0.673,0.32
		c-1.072,1.285-0.795,5.485-0.368,7.831c0.08,0.44-0.177,0.872-0.602,1.011c-0.426,0.14-0.888-0.056-1.084-0.458
		c-0.896-1.836-3.867-6.602-6.809-6.602c-0.825,0-1.61,0.367-2.4,1.123c-4.392,4.2-3.168,7.663-2.873,8.324l0.049,0.101
		c0.203,0.438,0.021,0.954-0.409,1.172c-0.43,0.218-0.958,0.053-1.192-0.37c0,0-0.031-0.057-0.081-0.167
		c-1.189-2.441-3.149-5.096-4.615-5.096c-0.26,0-0.509,0.087-0.762,0.268c-2.758,1.961-2.172,6.333-2.166,6.377
		c0.068,0.481-0.26,0.929-0.739,1.009c-0.354,0.059-35.374,6.106-34.904,21.638c0.413,13.672,3.626,18.763,8.073,25.811
		c0.758,1.202,1.54,2.441,2.353,3.791C33.899,119.883,34.316,119.871,34.816,119.871z"/>
	<path d="M46.438,125.72c-0.159,0-0.32-0.042-0.466-0.131c-2.49-1.521-9.724-5.144-13.255-3.669
		c-1.008,0.422-1.642,1.242-1.939,2.508c-0.113,0.482-0.597,0.781-1.077,0.668c-0.482-0.113-0.781-0.595-0.668-1.077
		c0.432-1.84,1.439-3.103,2.994-3.752c5.094-2.129,14.483,3.551,14.879,3.794c0.422,0.258,0.555,0.809,0.297,1.231
		C47.034,125.568,46.739,125.72,46.438,125.72z"/>
	<path d="M54.135,107.178c0,0-0.329,6.413,2.421,6.33c2.75-0.083,5.235-0.779,5.235-0.779s-1.231-9.017-3.383-9.069
		C56.257,103.608,54.135,107.178,54.135,107.178"/>
	<path fill="#FFFFFF" d="M109.886,116.518c0,0,21.853,7.378,34.603,10.296c30.201,6.91,34.501-5.998,22.869-26.566
		C155.725,79.68,95.095,22.61,100.378,15.293c0,0,3.267-1.199,8.45,6.351c0,0-8.55-9.651-5.299-11.4
		c3.25-1.75,10.183,9.05,10.183,9.05s-8.05-11.317-4.233-12.534c3.817-1.216,8.533,9.101,8.533,9.101s-5.833-10.834-2.016-12.05
		c3.816-1.216,91.496,94.673,90.71,123.323s-41.052,28.579-41.052,28.579"/>
	<path d="M165.667,156.608c-0.005,0-0.01,0-0.014,0c-0.495-0.001-0.895-0.402-0.894-0.897c0.001-0.494,0.402-0.894,0.896-0.894
		c0.001,0,0.001,0,0.002,0c0.141,0,10.088-0.035,19.973-3.509c13.077-4.596,19.867-12.738,20.181-24.198
		c0.43-15.692-26.398-51.244-42.429-71.04c-22.805-28.162-44.255-50.09-47.268-51.341c-0.167,0.089-0.28,0.227-0.365,0.438
		c-0.621,1.535,0.697,5.319,2.064,8.281c0.481,0.901,0.831,1.642,1.014,2.041c0.201,0.44,0.017,0.959-0.416,1.175
		c-0.433,0.215-0.958,0.048-1.188-0.377c-0.125-0.232-0.51-0.959-0.978-1.962c-1.921-3.568-4.711-7.28-6.494-6.71
		c-0.188,0.06-0.28,0.149-0.34,0.328c-0.49,1.468,1.63,5.619,3.763,8.951c0.54,0.765,0.982,1.436,1.291,1.917
		c0.263,0.409,0.151,0.954-0.252,1.226c-0.403,0.272-0.95,0.174-1.232-0.223c-0.245-0.344-0.711-1.012-1.27-1.875
		c-2.951-4.139-6.446-7.614-7.758-6.906c-0.126,0.068-0.211,0.152-0.249,0.363c-0.212,1.19,1.273,3.772,3.055,6.23
		c0.87,0.908,1.809,2.058,2.807,3.512c0.268,0.39,0.186,0.921-0.187,1.213c-0.373,0.291-0.908,0.242-1.222-0.112
		c-0.456-0.515-1.636-1.879-2.85-3.54c-2.202-2.241-3.714-2.558-4.336-2.575c-0.258,1.084,0.566,4.453,8.883,14.859
		c6.459,8.082,15.79,18.414,24.813,28.404c13.954,15.45,28.383,31.426,33.47,40.42c6.353,11.233,7.736,19.818,4.003,24.827
		c-3.982,5.343-13.352,6.37-27.851,3.053c-12.647-2.894-34.47-10.246-34.689-10.32c-0.469-0.158-0.72-0.667-0.562-1.135
		c0.158-0.469,0.667-0.72,1.135-0.562c0.218,0.074,21.956,7.397,34.516,10.271c13.549,3.1,22.545,2.278,26.015-2.377
		c3.277-4.397,1.851-12.307-4.126-22.875c-4.99-8.822-19.351-24.724-33.24-40.101c-23.005-25.472-36.94-41.313-33.686-45.818
		c0.105-0.145,0.25-0.255,0.417-0.316c0.197-0.072,1.177-0.363,2.761,0.282c-0.67-1.362-1.066-2.659-0.889-3.653
		c0.129-0.724,0.531-1.286,1.163-1.626c1.45-0.782,3.247,0.079,4.998,1.573c-0.489-1.415-0.703-2.716-0.391-3.652
		c0.242-0.726,0.759-1.234,1.495-1.469c1.653-0.526,3.317,0.463,4.791,1.995c-0.244-1.304-0.272-2.512,0.089-3.406
		c0.309-0.763,0.874-1.295,1.636-1.538c0.578-0.184,1.24,0.085,2.446,0.992c6.095,4.584,28.503,28.25,49.742,54.899
		c18.33,22.999,40.094,53.519,39.689,68.31c-0.332,12.118-7.739,21.058-21.419,25.854
		C176.084,156.552,166.252,156.608,165.667,156.608z"/>
	<path fill="#C93957" d="M144.358,126.434c0,0,1.104,16.406-7.583,26.81c0,0-34.579-6.343-45.271-12.716
		c0,0,23.904-11.056,18.572-20.431l-1.392-3.984C108.685,116.112,138.522,125.161,144.358,126.434"/>
	<path fill="#C93957" d="M136.776,154.139c-0.054,0-0.108-0.005-0.162-0.015c-1.418-0.26-34.86-6.446-45.568-12.828
		c-0.285-0.17-0.453-0.484-0.436-0.816c0.017-0.332,0.217-0.627,0.518-0.766c0.161-0.075,16.143-7.544,18.541-15.029
		c0.482-1.503,0.36-2.859-0.372-4.146c-0.027-0.047-0.049-0.096-0.067-0.147l-1.392-3.984c-0.111-0.318-0.034-0.672,0.199-0.915
		c0.233-0.244,0.583-0.335,0.906-0.237c0.298,0.091,29.868,9.053,35.604,10.304c0.39,0.085,0.676,0.417,0.703,0.815
		c0.046,0.685,1.027,16.886-7.789,27.444C137.291,154.023,137.039,154.139,136.776,154.139z M93.456,140.57
		c11.011,5.523,38.811,10.91,42.962,11.695c7.055-8.844,7.154-22.03,7.073-25.112c-6.14-1.475-27.187-7.803-33.379-9.673
		l0.785,2.247c0.944,1.703,1.105,3.555,0.479,5.507C109.19,132.051,97.72,138.408,93.456,140.57z"/>
	<path fill="#FFFFFF" d="M89.592,77.277c0,0,22.131,40.068,21.248,47.252c-0.884,7.183-19.334,15.999-19.334,15.999"/>
	<path d="M91.506,141.423c-0.334,0-0.655-0.188-0.809-0.51c-0.213-0.446-0.024-0.981,0.422-1.195
		c5.009-2.394,18.156-9.81,18.831-15.3c0.696-5.656-15.026-35.635-21.143-46.709c-0.239-0.433-0.082-0.978,0.351-1.217
		c0.433-0.239,0.978-0.082,1.217,0.351c2.28,4.127,22.246,40.532,21.353,47.794c-0.933,7.583-19.066,16.329-19.837,16.698
		C91.766,141.395,91.635,141.423,91.506,141.423z"/>
	<path fill="#FFFFFF" d="M100.971,144.094c0,0-71.849-27.554-86.417-17.755s-15.351,20.283-8.368,32.733
		c6.983,12.451,63.016,8.554,77.867,8.104c14.85-0.449,107.951,1.689,107.201-4.894c0,0,2.133-2.267-10.533-2.434
		c0,0,13.833,2.334,13.767,0.134c-0.066-2.2-18.883-5.484-33.7-3.935C145.971,157.597,100.971,144.094,100.971,144.094"/>
	<path d="M51.794,169c-27.634,0-42.807-3.104-46.389-9.489c-7.913-14.108-5.245-24.568,8.65-33.915
		c2.261-1.521,5.718-2.26,10.57-2.26c24.329,0,74.094,18.936,76.635,19.91c1.331,0.397,40.487,12.03,56.861,12.03
		c0.953,0,1.818-0.04,2.573-0.119c2.578-0.269,5.389-0.406,8.356-0.406c5.895,0,12.32,0.549,17.628,1.506
		c8.64,1.558,8.685,3.059,8.704,3.699c0.011,0.377-0.132,0.739-0.403,1.019c-0.466,0.481-1.297,0.738-2.7,0.82
		c0.026,0.283-0.035,0.54-0.136,0.751c-0.034,0.287-0.154,0.628-0.458,0.968c-2.849,3.192-24.361,4.553-71.932,4.553
		c-6.031,0-11.756-0.02-16.839-0.038c-4.056-0.014-7.703-0.027-10.77-0.027c-3.945,0-6.508,0.022-8.066,0.069
		c-1.576,0.048-3.638,0.135-6.025,0.237C71.181,168.601,61.766,169,51.794,169z M24.625,125.128c-4.422,0-7.642,0.658-9.57,1.955
		c-13.122,8.827-15.54,18.263-8.087,31.552c2.194,3.912,11.751,8.574,44.826,8.574c9.935,0,19.327-0.398,26.186-0.69
		c2.393-0.101,4.46-0.189,6.047-0.237c1.577-0.048,4.157-0.07,8.12-0.07c3.069,0,6.718,0.013,10.776,0.027
		c5.081,0.018,10.804,0.038,16.833,0.038c12.791,0,31.514-0.078,46.372-0.75c20.98-0.949,23.864-2.657,24.232-3.21
		c-0.004-0.115,0.014-0.23,0.053-0.338c-0.07-0.047-0.176-0.108-0.333-0.178c-4.04-0.153-9.282-1.031-9.507-1.069
		c-0.461-0.078-0.785-0.498-0.743-0.964c0.042-0.466,0.421-0.834,0.904-0.815c4.69,0.062,7.957,0.421,9.718,1.068
		c0.251,0.007,0.497,0.011,0.733,0.011c1.034,0,1.658-0.074,2.026-0.15c-2.347-1.307-12.589-3.339-24.161-3.339
		c-2.905,0-5.654,0.133-8.17,0.396c-0.817,0.085-1.745,0.129-2.759,0.129c-16.837,0-55.759-11.62-57.408-12.115
		c-0.021-0.006-0.042-0.014-0.063-0.022C100.134,144.733,48.733,125.128,24.625,125.128z"/>
	<path d="M84.941,118.585c-0.691,0-1.2-0.036-1.358-0.049c-0.493-0.04-0.86-0.471-0.821-0.964c0.04-0.493,0.468-0.864,0.964-0.821
		c1.757,0.14,4.895-0.014,5.843-1.021c0.663-0.704,0.465-1.076-4.328-5.856c-0.901-0.899-1.94-1.934-3.124-3.135
		c-7.584-7.688-7.255-12.932-7.238-13.152c0.04-0.493,0.474-0.862,0.965-0.821c0.491,0.04,0.857,0.467,0.822,0.957
		c-0.004,0.082-0.176,4.76,6.727,11.757c1.181,1.197,2.215,2.229,3.114,3.125c4.845,4.832,6.307,6.29,4.367,8.352
		C89.557,118.357,86.677,118.585,84.941,118.585z"/>
	<path d="M87.332,131.103c-4.597,0-8.675-3.085-8.89-3.25c-0.392-0.302-0.466-0.864-0.164-1.256
		c0.302-0.392,0.864-0.466,1.256-0.164c0.091,0.07,5.87,4.407,10.73,2.29c0.454-0.197,0.982,0.01,1.179,0.463
		c0.198,0.454-0.01,0.981-0.463,1.179C89.768,130.893,88.532,131.103,87.332,131.103z"/>
	<path d="M84.688,95.259c0,0,0.611,7.361,2.032,7.098c1.42-0.263,4.003-0.787,4.003-0.787s-0.665-8.893-2.315-8.843
		C86.758,92.777,84.688,95.259,84.688,95.259"/>
	<path d="M85.629,103.289c-0.819,0-1.675-0.052-2.545-0.156c-0.418-0.05-0.745-0.384-0.786-0.803
		c-0.303-3.123,0.544-9.332,5.922-10.479c0.803-0.171,1.598-0.258,2.365-0.258c4.958,0,7.367,3.521,7.467,3.67
		c0.163,0.244,0.196,0.552,0.089,0.825C98.025,96.382,95.199,103.289,85.629,103.289z M84.047,101.43
		c0.54,0.045,1.069,0.067,1.582,0.067c7.015,0,9.875-4.224,10.629-5.622c-0.689-0.785-2.547-2.491-5.672-2.491
		c-0.641,0-1.311,0.073-1.991,0.218C84.346,94.508,84.015,99.521,84.047,101.43z"/>
	<path fill="#FFFFFF" d="M86.16,60.984c1.52,1.268,1.855,3.636,1.732,5.504c-0.128,1.947-0.889,3.858-2.156,5.343
		c-0.559,0.654,0.388,1.609,0.95,0.95c1.512-1.771,2.397-3.969,2.55-6.293c0.145-2.195-0.35-4.973-2.126-6.454
		C86.451,59.484,85.495,60.43,86.16,60.984"/>
	<path fill="#FFFFFF" d="M83.174,63.742c0.214,1.477,0.429,3.01,0.218,4.501c-0.219,1.544-1.022,2.723-1.99,3.901
		c-0.232,0.283-0.271,0.673,0,0.95c0.235,0.24,0.72,0.279,0.95,0c1.114-1.356,2.064-2.72,2.336-4.494
		c0.266-1.742,0.033-3.486-0.218-5.215c-0.052-0.361-0.507-0.553-0.826-0.469C83.257,63.017,83.122,63.385,83.174,63.742"/>
	<path fill="#FFFFFF" d="M79.428,66.598c0.017,0.077,0.031,0.155,0.044,0.233c0.012,0.068,0.006,0.062,0-0.002
		c0.004,0.039,0.009,0.078,0.012,0.118c0.013,0.157,0.018,0.316,0.013,0.473c-0.002,0.079-0.007,0.158-0.013,0.236
		c-0.003,0.039-0.008,0.079-0.012,0.118c-0.007,0.068-0.011,0.061,0.001-0.002c-0.03,0.166-0.06,0.33-0.105,0.493
		c-0.042,0.153-0.098,0.3-0.15,0.45c-0.034,0.097,0.043-0.09-0.001,0.003c-0.017,0.036-0.032,0.072-0.049,0.108
		c-0.034,0.071-0.07,0.142-0.108,0.211c-0.076,0.139-0.159,0.273-0.25,0.402c-0.022,0.032-0.046,0.064-0.069,0.096
		c-0.06,0.082,0.064-0.071-0.004,0.004c-0.06,0.065-0.116,0.136-0.176,0.201c-0.238,0.258-0.275,0.698,0,0.95
		c0.26,0.238,0.696,0.275,0.95,0c1.103-1.195,1.553-2.862,1.213-4.45c-0.073-0.344-0.495-0.576-0.826-0.469
		C79.534,65.889,79.349,66.229,79.428,66.598"/>
	<path fill="#FFFFFF" d="M35.172,84.334c-0.802,5.239-0.877,10.554-0.179,15.809c0.048,0.363,0.274,0.668,0.672,0.672
		c0.326,0.004,0.719-0.312,0.672-0.672c-0.681-5.126-0.652-10.339,0.131-15.452C36.597,83.846,35.303,83.481,35.172,84.334"/>
	<path fill="#FFFFFF" d="M29.69,91.873c-1.01,5.442-0.194,11.092,2.327,16.02c0.394,0.77,1.554,0.091,1.16-0.678
		c-2.347-4.588-3.132-9.917-2.191-14.985C31.143,91.385,29.848,91.023,29.69,91.873"/>
	<path d="M97.705,2.073c-3.47,4.732-4.726,10.906-3.615,16.646c0.315,1.629,0.84,3.2,1.534,4.705
		c0.362,0.784,1.521,0.103,1.16-0.678c-2.964-6.428-2.092-14.305,2.08-19.995C99.377,2.053,98.211,1.382,97.705,2.073"/>
	<path d="M92.222,2.544c-2.721,6.616-3.278,14.058-1.68,21.024c0.45,1.961,1.086,3.866,1.868,5.719
		c0.142,0.337,0.633,0.404,0.919,0.241c0.348-0.198,0.382-0.587,0.241-0.92c-2.66-6.304-3.269-13.455-1.802-20.132
		c0.419-1.906,1.007-3.77,1.749-5.574C93.846,2.102,92.546,1.754,92.222,2.544"/>
</g>
</svg>
