<svg xmlns="http://www.w3.org/2000/svg" width="171.828" height="57.424" viewBox="0 0 171.828 57.424"><defs><style>.a{fill:#033;}.b{fill:#3fbca1;}.c{fill:#fffdee;}</style></defs><path class="a" d="M4206.7-64.816A28.713,28.713,0,0,1,4235.416-36.1,28.713,28.713,0,0,1,4206.7-7.392,28.712,28.712,0,0,1,4177.992-36.1h0A28.712,28.712,0,0,1,4206.7-64.816Z" transform="translate(-4177.992 64.816)"/><g transform="translate(67.413 10.31)"><path class="a" d="M4257.457-22.69a12.957,12.957,0,0,1-6.322-1.484,10.715,10.715,0,0,1-4.22-4.071,11.588,11.588,0,0,1-1.507-5.938,12.462,12.462,0,0,1,1.464-6.131,10.905,10.905,0,0,1,4.029-4.178,11.338,11.338,0,0,1,5.917-1.527,10.151,10.151,0,0,1,9.143,5.431,11.328,11.328,0,0,1,1.251,5.727l-.042,1.823H4251.05a6.063,6.063,0,0,0,2.313,3.819,7.544,7.544,0,0,0,4.688,1.4,7.9,7.9,0,0,0,2.779-.467,9.659,9.659,0,0,0,2.692-1.655l2.8,3.9a13.072,13.072,0,0,1-4.179,2.481A13.455,13.455,0,0,1,4257.457-22.69Zm-.595-18.324q-4.8,0-5.771,4.326H4261.7v-.17a4.15,4.15,0,0,0-1.506-2.991,5,5,0,0,0-3.328-1.165Z" transform="translate(-4245.405 54.506)"/><path class="a" d="M4278.765-22.7a14.1,14.1,0,0,1-5.516-1.019,9.656,9.656,0,0,1-3.9-2.884L4273-29.7a7.489,7.489,0,0,0,2.885,2.016,9.1,9.1,0,0,0,3.268.614,3.492,3.492,0,0,0,2.12-.593,1.939,1.939,0,0,0,.809-1.654,1.738,1.738,0,0,0-.766-1.484,15.153,15.153,0,0,0-3.648-1.272q-4.282-1.1-6.065-3.013a5.954,5.954,0,0,1-1.568-4.2,5.487,5.487,0,0,1,1.189-3.5,7.905,7.905,0,0,1,3.139-2.354,10.5,10.5,0,0,1,4.242-.85,13.237,13.237,0,0,1,4.962.934,11.114,11.114,0,0,1,3.9,2.546l-3.137,3.435a11.045,11.045,0,0,0-2.738-1.846,6.685,6.685,0,0,0-2.863-.741q-3.053,0-3.055,2.12a1.949,1.949,0,0,0,.936,1.612,14.688,14.688,0,0,0,3.859,1.4,12.068,12.068,0,0,1,5.684,2.8,5.423,5.423,0,0,1,1.442,3.945,6.072,6.072,0,0,1-1.167,3.648,7.811,7.811,0,0,1-3.159,2.524A10.709,10.709,0,0,1,4278.765-22.7Z" transform="translate(-4245.405 54.506)"/><path class="a" d="M4299.992-22.695a8.775,8.775,0,0,1-5.047-1.527,10.832,10.832,0,0,1-3.585-4.157,14.2,14.2,0,0,1,0-12.026,10.358,10.358,0,0,1,3.647-4.094,9.489,9.489,0,0,1,5.239-1.484,8.663,8.663,0,0,1,4.157.955,7.956,7.956,0,0,1,2.842,2.481v-2.97h5.771v22.4H4307.2v-3.014a9.375,9.375,0,0,1-3.077,2.46A8.861,8.861,0,0,1,4299.992-22.695Zm1.57-5.049a5.343,5.343,0,0,0,4.2-1.824,7.937,7.937,0,0,0,0-9.587,5.351,5.351,0,0,0-4.2-1.824,5.237,5.237,0,0,0-4.137,1.824,8.019,8.019,0,0,0,0,9.587,5.228,5.228,0,0,0,4.137,1.829Z" transform="translate(-4245.406 54.506)"/><path class="a" d="M4326.408-22.695a8.769,8.769,0,0,1-5.047-1.527,10.841,10.841,0,0,1-3.585-4.157,14.19,14.19,0,0,1,0-12.026,10.363,10.363,0,0,1,3.648-4.094,9.486,9.486,0,0,1,5.238-1.484,8.665,8.665,0,0,1,4.158.955,7.95,7.95,0,0,1,2.841,2.481v-2.97h5.77v22.4h-5.812v-3.014a9.372,9.372,0,0,1-3.076,2.46A8.857,8.857,0,0,1,4326.408-22.695Zm1.57-5.049a5.338,5.338,0,0,0,4.2-1.824,7.934,7.934,0,0,0,0-9.587,5.348,5.348,0,0,0-4.2-1.824,5.234,5.234,0,0,0-4.137,1.824,8.019,8.019,0,0,0,0,9.587,5.225,5.225,0,0,0,4.137,1.829Z" transform="translate(-4245.405 54.506)"/><path class="a" d="M4344.051-23.115V-54.506h5.769v31.391Z" transform="translate(-4245.405 54.506)"/></g><g transform="translate(39.374 16.892)"><path class="b" d="M4221.806-43.844a2.647,2.647,0,0,1-2.651,2.64,2.643,2.643,0,0,1-2.639-2.64,2.652,2.652,0,0,1,2.639-2.65A2.655,2.655,0,0,1,4221.806-43.844Z" transform="translate(-4216.516 46.494)"/></g><path class="c" d="M4224.228-33.192a1.2,1.2,0,0,1-.971.49,1.166,1.166,0,0,1-.59-.16l-3.51-1.97-3.5,1.97a1.167,1.167,0,0,1-.59.16,1.193,1.193,0,0,1-.97-.49,1.2,1.2,0,0,1,.259-1.68l3.991-2.94.81-.6.82.6,3.99,2.94A1.209,1.209,0,0,1,4224.228-33.192Z" transform="translate(-4177.142 63.386)"/><path class="c" d="M4219.126-29.88a1.21,1.21,0,0,0-1.6.61v0l-.021.047a11.01,11.01,0,0,1-1.231,2.1,9.6,9.6,0,0,1-3.674,2.9,11.1,11.1,0,0,1-2.2.7,11.234,11.234,0,0,1-2.293.185c-.381.014-.771-.055-1.151-.072l-.526-.088-.516-.123a8.78,8.78,0,0,1-3.651-2.068,14.317,14.317,0,0,1-4.057-7.141c.086,0,.171.013.255.018a25.782,25.782,0,0,0,5.957-.338,12.7,12.7,0,0,0,3.1-1.022,9.288,9.288,0,0,0,2.86-2.159,8.736,8.736,0,0,0,1.8-3.273,8.948,8.948,0,0,0,.356-1.915,7.067,7.067,0,0,0-.2-2.084,6.243,6.243,0,0,0-2.347-3.417,8.317,8.317,0,0,0-3.4-1.419,13.337,13.337,0,0,0-3.361-.211,10.579,10.579,0,0,0-1.662.225c-.271.054-.562.138-.812.21l-.737.224a12.316,12.316,0,0,0-5.658,3.748,15.088,15.088,0,0,0-3,5.907,16.825,16.825,0,0,0-.5,2.621,20.624,20.624,0,0,1-3.027-.771h-.011c-.014-.006-.029-.009-.043-.014a.952.952,0,0,0-1.18.649.951.951,0,0,0,.649,1.18c1.181.344,2.357.62,3.539.863a13.524,13.524,0,0,0,.257,2.324,16.66,16.66,0,0,0,7.669,10.789,15.073,15.073,0,0,0,6.44,2.115c.286.021.571.029.854.041l.85-.019c.539-.053,1.07-.062,1.6-.161a15.811,15.811,0,0,0,3.125-.783,15.055,15.055,0,0,0,2.865-1.458,13.751,13.751,0,0,0,2.419-2.065,12.491,12.491,0,0,0,2.933-5.436A1.21,1.21,0,0,0,4219.126-29.88Zm-21.254-7.2a16.982,16.982,0,0,1,.966-4.314,6.005,6.005,0,0,1,2.508-3.4l.546-.272a4.84,4.84,0,0,1,.5-.2,4.334,4.334,0,0,1,1.058-.212,3.758,3.758,0,0,1,2.08.423,3.076,3.076,0,0,1,1.713,2.589c.014.2.021.417.02.654a4.371,4.371,0,0,1-.108.8,5.259,5.259,0,0,1-.645,1.624,7.286,7.286,0,0,1-3.214,2.632,15.625,15.625,0,0,1-4.913,1.318c-.176.021-.353.029-.528.045a14.73,14.73,0,0,1,.013-1.687Z" transform="translate(-4177.143 63.386)"/></svg>