<svg xmlns="http://www.w3.org/2000/svg" width="171.544" height="57.424" viewBox="0 0 171.544 57.424">
  <g id="Group_7812" data-name="Group 7812" transform="translate(4301.93 6956.086)">
    <path id="Ellipse_1936-3" data-name="Ellipse 1936-3" d="M4658.688,455.809a28.712,28.712,0,1,1-28.712,28.712h0A28.712,28.712,0,0,1,4658.688,455.809Z" transform="translate(-8931.906 -7411.896)" fill="#fff"/>
    <g id="Group_7573" data-name="Group 7573" transform="translate(-8931.906 -7411.896)">
      <g id="Path_30450-3" data-name="Path 30450-3">
        <path id="Path_47526" data-name="Path 47526" d="M4718.91,485.759a11.053,11.053,0,0,0-1.22-5.59,9.788,9.788,0,0,0-8.88-5.28h-.23a11.02,11.02,0,0,0-5.55,1.49,10.573,10.573,0,0,0-3.92,4.07,12.123,12.123,0,0,0-1.43,5.99,11.283,11.283,0,0,0,1.47,5.8,10.344,10.344,0,0,0,4.1,3.96,12.7,12.7,0,0,0,6.18,1.45h.01a13.1,13.1,0,0,0,4.59-.85,12.629,12.629,0,0,0,3.89-2.26l-2.46-3.44a10.006,10.006,0,0,1-2.54,1.5,8.057,8.057,0,0,1-2.89.49,7.894,7.894,0,0,1-4.85-1.45,6.3,6.3,0,0,1-2.42-4l-.06-.34h16.18Zm-4.95-1.54h-11.24l.08-.34c.68-3.02,2.71-4.55,6.05-4.55h.08a5.42,5.42,0,0,1,3.43,1.23,4.444,4.444,0,0,1,1.6,3.19Z" fill="#fff"/>
      </g>
      <g id="Path_30451-3" data-name="Path 30451-3">
        <path id="Path_47527" data-name="Path 47527" d="M4739.29,490.849a5.766,5.766,0,0,1-1.11,3.47,7.582,7.582,0,0,1-3.05,2.44,10.7,10.7,0,0,1-4.31.89h-.08a13.778,13.778,0,0,1-5.4-1,9.4,9.4,0,0,1-3.61-2.59l3.23-2.74a7.718,7.718,0,0,0,2.8,1.89,9.272,9.272,0,0,0,3.36.63,3.842,3.842,0,0,0,2.3-.64,2.186,2.186,0,0,0,.92-1.88,2.023,2.023,0,0,0-.92-1.75,15.623,15.623,0,0,0-3.7-1.29c-2.79-.72-4.78-1.7-5.93-2.93a5.667,5.667,0,0,1-1.49-4.01,5.247,5.247,0,0,1,1.12-3.32,7.634,7.634,0,0,1,3.03-2.27,10.214,10.214,0,0,1,4.04-.83h.1a12.464,12.464,0,0,1,4.86.92,10.73,10.73,0,0,1,3.6,2.29l-2.76,3.02a11.331,11.331,0,0,0-2.59-1.69,6.924,6.924,0,0,0-2.99-.78c-2.76,0-3.34,1.31-3.34,2.41a2.238,2.238,0,0,0,1.09,1.86,14.883,14.883,0,0,0,3.94,1.43,11.755,11.755,0,0,1,5.52,2.71A5.15,5.15,0,0,1,4739.29,490.849Z" fill="#fff"/>
      </g>
      <g id="Path_30452-3" data-name="Path 30452-3">
        <path id="Path_47528" data-name="Path 47528" d="M4759.51,475.389v3.58l-.51-.73a7.774,7.774,0,0,0-2.74-2.39,8.244,8.244,0,0,0-4.02-.92h-.14a9.163,9.163,0,0,0-4.96,1.44,10.07,10.07,0,0,0-3.54,3.98,13.872,13.872,0,0,0,0,11.78,10.48,10.48,0,0,0,3.49,4.04,8.435,8.435,0,0,0,4.78,1.48h.11a8.452,8.452,0,0,0,4-.95,9.113,9.113,0,0,0,2.99-2.38l.5-.62v3.53h5.25v-21.84Zm-1.54,15.84a5.589,5.589,0,0,1-4.34,1.94h-.25a5.469,5.469,0,0,1-4.19-1.93,8.356,8.356,0,0,1-.01-9.94,5.519,5.519,0,0,1,4.37-1.94,5.694,5.694,0,0,1,4.41,1.92A8.251,8.251,0,0,1,4757.97,491.229Z" fill="#fff"/>
      </g>
      <g id="Path_30453-3" data-name="Path 30453-3">
        <path id="Path_47529" data-name="Path 47529" d="M4785.93,475.389v3.58l-.52-.73a7.609,7.609,0,0,0-2.74-2.39,8.359,8.359,0,0,0-4.02-.92h-.14a9.13,9.13,0,0,0-4.95,1.44,10.1,10.1,0,0,0-3.55,3.98,13.836,13.836,0,0,0,.01,11.78,10.625,10.625,0,0,0,3.49,4.04,8.339,8.339,0,0,0,4.88,1.48h.01a8.479,8.479,0,0,0,4-.95,8.972,8.972,0,0,0,2.98-2.38l.51-.62v3.53h5.24v-21.84Zm-1.54,15.84a5.6,5.6,0,0,1-4.34,1.94h-.26a5.449,5.449,0,0,1-4.18-1.93,8.356,8.356,0,0,1-.01-9.94,5.52,5.52,0,0,1,4.37-1.94,5.676,5.676,0,0,1,4.41,1.92A8.28,8.28,0,0,1,4784.39,491.229Z" fill="#fff"/>
      </g>
      <g id="Path_30454-3" data-name="Path 30454-3">
        <rect id="Rectangle_5013" data-name="Rectangle 5013" width="5.2" height="30.83" transform="translate(4796.32 466.399)" fill="#fff"/>
      </g>
    </g>
    <g id="Group_7778" data-name="Group 7778" transform="translate(-8931.228 -7413.538)">
      <path id="Path_47530" data-name="Path 47530" d="M4676.077,485.582l-4.937-3.633-4.923,3.632a1.415,1.415,0,0,0-.309,1.976,1.435,1.435,0,0,0,1.837.391l3.4-1.911,3.4,1.91a1.374,1.374,0,0,0,.7.188,1.4,1.4,0,0,0,1.142-.578A1.422,1.422,0,0,0,4676.077,485.582Z"/>
      <path id="Path_47531" data-name="Path 47531" d="M4671.2,490.551h0a1.424,1.424,0,0,0-1.876.708v0l0,.007h0l-.024.049a10.706,10.706,0,0,1-1.207,2.058,9.407,9.407,0,0,1-3.59,2.834,10.817,10.817,0,0,1-2.154.686,11.293,11.293,0,0,1-2.262.182,5,5,0,0,1-.68-.036c-.152-.015-.3-.03-.427-.033l-.512-.086-.508-.12a8.613,8.613,0,0,1-3.562-2.017,14.066,14.066,0,0,1-3.929-6.756,25.979,25.979,0,0,0,5.977-.342,12.977,12.977,0,0,0,3.153-1.04,9.481,9.481,0,0,0,2.928-2.21,8.992,8.992,0,0,0,1.842-3.352,9.1,9.1,0,0,0,.365-1.965,7.181,7.181,0,0,0-.207-2.151,6.472,6.472,0,0,0-2.428-3.535,8.566,8.566,0,0,0-3.484-1.454,13.534,13.534,0,0,0-3.412-.215,10.988,10.988,0,0,0-1.692.228c-.288.058-.6.149-.832.216l-.74.224a12.528,12.528,0,0,0-5.757,3.815,15.405,15.405,0,0,0-3.041,5.986,16.959,16.959,0,0,0-.481,2.429,20.532,20.532,0,0,1-2.774-.723l-.063-.017a1.165,1.165,0,0,0-.649,2.237c1.025.3,2.136.572,3.392.833a13.828,13.828,0,0,0,.255,2.194,16.928,16.928,0,0,0,7.768,10.927,15.375,15.375,0,0,0,6.534,2.145c.215.017.431.025.646.033l.229.009.865-.02c.175-.017.349-.03.522-.042a9.871,9.871,0,0,0,1.089-.12,16.137,16.137,0,0,0,3.169-.795,15.264,15.264,0,0,0,2.908-1.481,14.022,14.022,0,0,0,2.458-2.1,12.739,12.739,0,0,0,2.98-5.524A1.417,1.417,0,0,0,4671.2,490.551Zm-13.778-14.79a2.87,2.87,0,0,1,1.6,2.413c.013.195.02.406.018.631a4.1,4.1,0,0,1-.1.764,5,5,0,0,1-.612,1.549,7.066,7.066,0,0,1-3.127,2.557,15.366,15.366,0,0,1-4.85,1.3c-.1.012-.2.019-.3.027-.015-.424-.011-.852.013-1.278l.014-.161a16.907,16.907,0,0,1,.958-4.275,5.8,5.8,0,0,1,2.4-3.267l.544-.27a4.191,4.191,0,0,1,.476-.191,4.111,4.111,0,0,1,1.007-.2A3.558,3.558,0,0,1,4657.419,475.761Z"/>
      <path id="Path_47532" data-name="Path 47532" d="M4671.14,479.633a2.857,2.857,0,1,0-2.853-2.852A2.86,2.86,0,0,0,4671.14,479.633Z"/>
    </g>
  </g>
</svg>
