<svg xmlns="http://www.w3.org/2000/svg" width="20.615" height="26.303" viewBox="0 0 20.615 26.303"><defs><style>.a{fill:none;stroke:#000;stroke-linecap:round;stroke-linejoin:round;stroke-width:1.5px;}</style></defs><g transform="translate(-4179.166 -1595.235)"><path class="a" d="M4196.622,1613.534v-6.387a7.641,7.641,0,0,0-1.5-4.641,6.667,6.667,0,0,0-5.38-2.651h-.238a11.354,11.354,0,0,0-1.418.13,6.818,6.818,0,0,0-5.781,6.943v6.766c0,2.7-2.39,5.182-2.39,5.182h19.115S4196.622,1616.23,4196.622,1613.534Z" transform="translate(0 -1.338)"/><path class="a" d="M4196.082,1634.016a2.811,2.811,0,0,1-5.1,0" transform="translate(-3.717 -14.858)"/><path class="a" d="M4196.559,1598.494v-.581a1.443,1.443,0,0,0-1.5-1.384h0a1.443,1.443,0,0,0-1.5,1.384v.6" transform="translate(-5.497 -0.545)"/></g></svg>