<?xml version="1.0" encoding="utf-8"?>
<!-- Generator: Adobe Illustrator 17.0.0, SVG Export Plug-In . SVG Version: 6.00 Build 0)  -->
<!DOCTYPE svg PUBLIC "-//W3C//DTD SVG 1.1//EN" "http://www.w3.org/Graphics/SVG/1.1/DTD/svg11.dtd">
<svg version="1.1" id="Layer_1" xmlns="http://www.w3.org/2000/svg" xmlns:xlink="http://www.w3.org/1999/xlink" x="0px" y="0px"
	 width="19.5px" height="19.5px" viewBox="0 0 19.5 19.5" enable-background="new 0 0 19.5 19.5" xml:space="preserve">
<path id="normal-v" display="none" fill="none" stroke="#003333" stroke-width="1.5" stroke-linecap="round" stroke-linejoin="round" d="
	M5.978,6.75c0.784-1.32,2.239-2.092,3.772-2c2.21,0,4,1.343,4,3c0,1.4-1.278,2.575-3.006,2.907
	c-0.549,0.081-0.965,0.538-0.994,1.093 M9.75,14.75h0.01 M18.75,9.75c0,4.971-4.029,9-9,9s-9-4.029-9-9s4.029-9,9-9
	S18.75,4.779,18.75,9.75z"/>
<g>
	<circle fill="#D6D6D6" cx="9.315" cy="10.16" r="2.498"/>
	<path fill="#D6D6D6" d="M9.47,3.333c-5.973,0-9.386,6.594-9.386,6.594s3.413,6.904,9.542,6.904c6.128,0,9.542-6.904,9.542-6.904
		S15.443,3.333,9.47,3.333z M9.315,14.333c-2.301,0-4.174-1.872-4.174-4.173s1.872-4.173,4.174-4.173s4.174,1.872,4.174,4.173
		S11.616,14.333,9.315,14.333z"/>
</g>
</svg>
