<?xml version="1.0" encoding="utf-8"?>
<!-- Generator: Adobe Illustrator 17.0.0, SVG Export Plug-In . SVG Version: 6.00 Build 0)  -->
<!DOCTYPE svg PUBLIC "-//W3C//DTD SVG 1.1//EN" "http://www.w3.org/Graphics/SVG/1.1/DTD/svg11.dtd">
<svg version="1.1" id="Layer_1" xmlns="http://www.w3.org/2000/svg" xmlns:xlink="http://www.w3.org/1999/xlink" x="0px" y="0px"
	 width="137px" height="180px" viewBox="0 0 137 180" enable-background="new 0 0 137 180" xml:space="preserve">
<path fill="#FFFFFF" d="M32.992,95.765l-1.579-0.192l-4.663-3.033l-5.333-5.829l-2.667-7.127c0,0,3.031-5.454,6.083-4.833
	s4.262-0.039,6,1.138c1.738,1.177,3.194,2.566,3.194,2.566L38,93.23l-0.694,1.196L32.992,95.765z"/>
<path fill="#FFFFFF" d="M32.795,75.888c0,0-12.241-10.79-15.905-17.338s-2.274-7.179-2.224-9.3c0.05-2.12,3.824-2.735,8.047,0.745
	c4.223,3.48,7.804,6.388,7.804,6.388l2.815,20.018"/>
<g>
	<path fill="#FFFFFF" d="M92.536,79.5c0,0,0.35-16.876,5.157-17.355c4.807-0.479,10.321,10.446,10.139,12.188
		c-0.182,1.742,4.917,18.127,4.876,34.73c-0.041,16.603,4.453,48.75,8.873,53.26l-46.333,15.203
		c-4.588-6.265-6.594-8.733-12.344-13.952c-10.734-9.744-21.546-13.526-31.098-32.327c-11.101-21.849,12.082-23.187,17.033-23.229
		c0.466-0.004,0.931-0.028,1.395-0.08c1.138-0.127,3.878,0.033,4.119,4.461c0.306,5.602-16.329,9.832-16.329,9.832"/>
	<path fill="#FFFFFF" d="M28.88,119.788c-18.08-22.088,9.355-25.238,9.355-25.238s6.013-1.246,7.036,4.15
		c0.537,2.833-2.079,5.355-4.686,7.112c-2.121,1.429-4.472,2.484-6.932,3.186l-0.885,0.253"/>
	<path d="M29.071,120.458c-0.259,0.074-0.549-0.007-0.73-0.229c-5.609-6.852-7.5-12.676-5.621-17.309
		c3.021-7.449,14.592-8.96,15.406-9.058c0.361-0.069,3.252-0.562,5.478,0.927c1.241,0.83,2.032,2.103,2.35,3.782
		c0.491,2.589-1.232,5.293-4.981,7.819c-2.124,1.431-4.523,2.534-7.13,3.278l-0.885,0.253c-0.37,0.106-0.755-0.109-0.861-0.479
		c-0.106-0.37,0.109-0.755,0.479-0.861l0.885-0.253c2.466-0.704,4.731-1.745,6.734-3.094c2.267-1.528,4.87-3.879,4.391-6.404
		c-0.246-1.295-0.834-2.264-1.75-2.879c-1.836-1.233-4.436-0.724-4.462-0.718c-0.019,0.004-0.041,0.007-0.06,0.01
		c-0.115,0.014-11.553,1.411-14.305,8.204c-1.671,4.125,0.149,9.474,5.409,15.9c0.244,0.298,0.2,0.737-0.098,0.98
		C29.245,120.389,29.16,120.433,29.071,120.458z"/>
	<path d="M46.881,99.227c-0.8,0.228-1.554,0.028-1.925-0.162c-0.342-0.175-0.478-0.595-0.303-0.937
		c0.175-0.342,0.595-0.478,0.937-0.303c0.017,0.008,0.597,0.279,1.175-0.051c0.468-0.267,1.29-1.151,1.546-4.077
		c0.422-4.832-11.027-13.144-15.474-15.938c-0.019-0.012-0.037-0.024-0.054-0.038c-0.042-0.032-4.236-3.208-8.19-2.565
		c-1.748,0.283-3.216,1.291-4.365,2.992c-0.716,1.061-0.929,2.243-0.652,3.614c1.283,6.334,12.434,13.658,12.546,13.732
		c0.322,0.21,0.414,0.641,0.204,0.964c-0.21,0.322-0.641,0.414-0.964,0.204c-0.479-0.312-11.753-7.722-13.151-14.622
		c-0.351-1.732-0.061-3.303,0.863-4.67c1.374-2.034,3.158-3.243,5.302-3.589c4.422-0.715,8.808,2.497,9.23,2.817
		c0.367,0.233,4.317,2.758,8.154,5.965c5.518,4.611,8.189,8.398,7.939,11.257c-0.239,2.736-1.004,4.48-2.274,5.182
		C47.244,99.103,47.061,99.176,46.881,99.227z"/>
	<path d="M79.245,140.775c-0.307,0.088-0.645-0.046-0.803-0.339c-2.71-5.006-2.975-12.094-0.766-20.498
		c1.654-6.29,4.061-11.039,4.163-11.238c0.175-0.342,0.595-0.478,0.937-0.303c0.343,0.175,0.478,0.594,0.304,0.937
		c-0.096,0.189-9.581,19.046-3.413,30.44c0.183,0.338,0.057,0.761-0.281,0.944C79.34,140.742,79.293,140.761,79.245,140.775z"/>
	<path d="M122.256,162.492c-0.231,0.066-0.49,0.01-0.675-0.168c-0.191-0.184-4.68-4.602-5.994-13.651
		c-0.856-5.895-1.319-14.105-1.81-22.796c-1.24-21.965-2.782-49.302-11.5-60.587c-1.875-2.427-3.457-3.516-4.583-3.145
		c-2.299,0.755-3.302,7.359-3.396,11.353c0.145,11.984-1.865,18.906-6.147,21.161c-0.413,0.218-0.844,0.391-1.292,0.519
		c-3.135,0.895-7.131-0.408-12.16-3.951C64.372,83.952,27.31,53.778,26.937,53.474c-0.02-0.016-0.038-0.033-0.056-0.051
		c-1.73-1.753-6.878-6.133-9.881-5.357c-1.047,0.272-1.766,1.16-2.203,2.721c-0.92,3.288,1.582,8.227,7.234,14.283
		c4.371,4.682,9.104,8.369,9.151,8.406c0.009,0.007,0.019,0.015,0.028,0.023l9.948,8.568c0.291,0.251,0.324,0.691,0.073,0.982
		c-0.251,0.291-0.691,0.324-0.982,0.073l-9.934-8.556c-0.976-0.758-19.363-15.203-16.859-24.154c0.574-2.052,1.65-3.298,3.196-3.695
		c4.295-1.109,10.656,5.16,11.193,5.7c1.222,0.994,37.491,30.509,47.655,37.67c5.205,3.667,9.242,4.791,12.001,3.338
		c3.723-1.96,5.541-8.664,5.403-19.924c0-0.008,0-0.016,0-0.025c0.027-1.158,0.375-11.349,4.354-12.656
		c1.786-0.587,3.787,0.597,6.12,3.617c8.982,11.626,10.538,39.202,11.789,61.36c0.489,8.66,0.95,16.839,1.798,22.674
		c1.246,8.582,5.54,12.806,5.583,12.848c0.277,0.267,0.285,0.708,0.018,0.985C122.477,162.397,122.37,162.459,122.256,162.492z"/>
	<path d="M107.774,76.052c-0.04,0.011-0.081,0.019-0.124,0.024c-1.046,0.103-2.018-0.209-2.887-0.927
		c-3.326-2.746-4.112-10.841-4.144-11.185c-0.035-0.383,0.246-0.722,0.629-0.758c0.383-0.036,0.722,0.246,0.758,0.629
		c0.007,0.078,0.763,7.862,3.644,10.24c0.581,0.479,1.19,0.68,1.863,0.614c0.383-0.037,0.724,0.242,0.761,0.625
		C108.308,75.654,108.091,75.962,107.774,76.052z"/>
	<path d="M38.186,101.964c-0.157,0.045-0.326,0.033-0.475-0.034c-0.258-0.115-2.537-1.181-2.983-3.015
		c-0.144-0.593-0.145-1.514,0.669-2.533c0.071-0.089,0.163-0.16,0.268-0.205c0.031-0.014,0.783-0.337,1.77-0.618
		c1.934-0.552,3.369-0.552,4.263-0.001c0.512,0.316,0.845,0.811,0.962,1.432c0.616,3.253-4.239,4.897-4.446,4.966
		C38.205,101.959,38.196,101.962,38.186,101.964z M36.382,97.388c-0.296,0.419-0.394,0.812-0.301,1.198
		c0.21,0.864,1.333,1.62,1.951,1.95c0.863-0.343,3.583-1.571,3.258-3.287c-0.045-0.239-0.146-0.395-0.325-0.506
		c-0.524-0.323-1.672-0.267-3.149,0.155C37.179,97.08,36.641,97.285,36.382,97.388z"/>
	<path d="M34.396,102.271c-0.209,0.06-0.443,0.021-0.626-0.125c-2.039-1.624-1.214-4.025-1.178-4.126
		c0.129-0.362,0.527-0.551,0.89-0.422c0.361,0.129,0.55,0.525,0.424,0.886c-0.024,0.071-0.516,1.579,0.732,2.573
		c0.301,0.24,0.351,0.678,0.111,0.979C34.655,102.153,34.531,102.232,34.396,102.271z"/>
	<path fill="#FFFFFF" d="M75.247,177.526c-4.588-6.265-6.594-8.733-12.344-13.952c-10.734-9.744-21.546-13.526-31.098-32.327
		c-11.101-21.849,12.082-23.187,17.033-23.229c0.466-0.004,0.931-0.028,1.395-0.08c1.138-0.127,3.878,0.033,4.119,4.461
		c0.306,5.602-16.329,9.832-16.329,9.832"/>
	<path d="M75.439,178.196c-0.272,0.078-0.576-0.016-0.753-0.258c-4.502-6.149-6.446-8.58-12.25-13.848
		c-2.915-2.646-5.885-4.886-8.757-7.052c-7.612-5.741-15.484-11.678-22.494-25.475c-3.494-6.877-3.988-12.466-1.467-16.612
		c4.233-6.965,15.701-7.6,19.115-7.628c0.472-0.004,0.905-0.029,1.323-0.075c0.707-0.079,2.062-0.07,3.186,0.882
		c1.026,0.868,1.6,2.293,1.706,4.233c0.145,2.646-2.706,5.235-8.472,7.695c-4.123,1.759-8.209,2.806-8.381,2.85
		c-0.373,0.095-0.752-0.13-0.847-0.503c-0.095-0.373,0.129-0.751,0.503-0.847c0.041-0.011,4.167-1.068,8.191-2.787
		c5.016-2.142,7.72-4.391,7.614-6.333c-0.084-1.543-0.493-2.635-1.215-3.246c-0.726-0.614-1.647-0.615-2.131-0.561
		c-0.467,0.052-0.946,0.08-1.467,0.084c-3.232,0.027-14.077,0.609-17.937,6.959c-2.253,3.706-1.742,8.84,1.519,15.258
		c6.864,13.51,14.26,19.088,22.091,24.994c2.897,2.185,5.892,4.444,8.854,7.133c5.873,5.331,7.963,7.945,12.438,14.057
		c0.227,0.31,0.16,0.746-0.15,0.973C75.59,178.138,75.516,178.174,75.439,178.196z"/>
	<path fill="#FFFFFF" d="M45.234,110.348c0,0,5.909-1.945,6.557,1.231c0.648,3.177-4.51,4.132-4.51,4.132
		S43.969,114.07,45.234,110.348"/>
	<path d="M48.186,116.205c-0.455,0.13-0.765,0.188-0.778,0.19c-0.148,0.027-0.301,0.006-0.436-0.061
		c-1.335-0.661-3.554-2.81-2.398-6.211c0.07-0.207,0.234-0.369,0.442-0.438c0,0,0.115-0.038,0.315-0.095
		c1.19-0.34,4.145-1.015,5.884,0.041c0.664,0.403,1.099,1.028,1.258,1.808C52.908,113.567,51.345,115.304,48.186,116.205z
		 M47.392,114.974c0.108-0.026,0.249-0.061,0.412-0.108c1.121-0.32,3.688-1.268,3.305-3.148c-0.083-0.406-0.279-0.691-0.616-0.896
		c-1.021-0.62-3.082-0.366-4.701,0.086C45.146,113.335,46.8,114.606,47.392,114.974z"/>
	<path fill="#FFFFFF" d="M42.799,112.354c0,0,0.015,2.024,1.088,3.151"/>
	<path d="M44.078,116.175c-0.241,0.069-0.511,0.005-0.696-0.19c-1.248-1.312-1.279-3.532-1.279-3.626
		c-0.003-0.385,0.307-0.699,0.691-0.702c0.384-0.003,0.698,0.306,0.702,0.69l0,0c0,0.017,0.03,1.768,0.896,2.677
		c0.265,0.279,0.254,0.72-0.025,0.985C44.282,116.09,44.183,116.145,44.078,116.175z"/>
	<path d="M44.543,97.129c-0.129,0.037-0.267,0.036-0.398-0.005c-0.205-0.064-0.368-0.218-0.444-0.418
		c-0.045-0.107-0.925-2.053-5.521-1.682c-0.195,0.016-0.388-0.051-0.531-0.185c-0.143-0.133-0.224-0.321-0.222-0.517
		c0.002-0.183,0.088-4.504,3.813-5.567c0.427-0.122,0.89-0.194,1.375-0.215c1.927-0.082,3.368,0.79,4.056,2.455
		c0.739,1.788,0.424,4.19-0.353,4.902c-0.02,0.019-0.042,0.036-0.064,0.052l-1.496,1.075C44.692,97.072,44.619,97.107,44.543,97.129
		z M38.902,93.591c3.381-0.09,4.953,1.068,5.635,1.878l0.854-0.613c0.253-0.329,0.574-2.11-0.072-3.476
		c-0.486-1.028-1.351-1.502-2.644-1.447c-0.376,0.016-0.73,0.071-1.052,0.163C39.685,90.649,39.086,92.529,38.902,93.591z"/>
	<path d="M36.88,92.512c-0.37,0.106-0.755-0.109-0.861-0.479c-0.328-1.147-0.091-3.606,3.15-4.701
		c0.362-0.128,0.76,0.072,0.883,0.437c0.123,0.365-0.073,0.76-0.437,0.883c-2.807,0.948-2.28,2.915-2.257,2.999
		C37.464,92.021,37.25,92.407,36.88,92.512z"/>
	<path d="M56.794,128.655c-0.039,0.011-0.079,0.019-0.12,0.023c-0.383,0.04-0.725-0.238-0.765-0.621
		c-0.939-9.049,8.51-30.578,8.913-31.49c0.155-0.352,0.567-0.511,0.918-0.356c0.352,0.155,0.511,0.567,0.356,0.918
		c-0.097,0.22-9.702,22.101-8.802,30.783C57.33,128.255,57.112,128.564,56.794,128.655z"/>
	<path d="M36.645,15.235c-0.121,0.034-0.254,0.026-0.375-0.034c-0.242-0.12-0.35-0.402-0.258-0.649
		c-0.015-0.021-0.042-0.047-0.067-0.056c-0.147-0.052-0.37-0.008-0.624,0.05c-2.326,0.536-4.668,1.148-6.96,1.818
		c0.009,0.015,0.018,0.032,0.03,0.05c0.154,0.244,0.081,0.567-0.163,0.72c-0.244,0.154-0.567,0.081-0.72-0.163
		c-0.469-0.744-0.162-1.179-0.008-1.331c0.16-0.158,0.349-0.214,0.462-0.247c2.347-0.688,4.743-1.316,7.125-1.864
		c0.303-0.07,0.761-0.175,1.209-0.017c0.312,0.111,0.572,0.36,0.696,0.666c0.107,0.265,0.1,0.545-0.02,0.787
		C36.902,15.102,36.782,15.196,36.645,15.235z"/>
	<path d="M63.875,130.211c-3.41,1.084-14.044,4.405-16.418-3.526c-9.415-31.453-5.602-16.476-26.848-96.562
		c-0.463-1.972-0.93-3.977-0.808-5.999c0.122-2.022,0.921-4.098,2.55-5.302c1.106-0.817,2.481-1.163,3.816-1.491
		c4.282-1.051,8.563-2.102,12.845-3.153c0,0,26.836-7.533,29.48-7.873c2.645-0.34,7.862-1.248,10.504,9.425
		c2.642,10.673,22.656,88.479,23.646,93.17c0.99,4.691,0.368,9.863-9.478,12.743C83.317,124.522,63.875,130.211,63.875,130.211"/>
	<path d="M62.334,131.226c-10.708,3.056-14.273-0.701-15.377-4.392c-1.805-6.03-3.148-10.431-4.226-13.968
		c-4.619-15.143-5.452-17.872-22.627-82.61c-0.47-1.999-0.952-4.051-0.824-6.164c0.147-2.428,1.153-4.502,2.761-5.69
		c0.914-0.675,1.962-1.027,2.772-1.259c0.398-0.114,0.793-0.212,1.23-0.319l12.845-3.153c1.081-0.304,26.886-7.543,29.538-7.884
		l0.163-0.021c2.666-0.348,8.215-1.071,10.915,9.838c1.03,4.161,4.658,18.359,8.858,34.799
		c6.649,26.022,14.185,55.517,14.792,58.389c0.641,3.037,0.409,5.393-0.731,7.415c-1.487,2.637-4.467,4.579-9.111,5.937
		c-9.846,2.88-29.288,8.568-29.288,8.568C63.66,130.827,63.036,131.026,62.334,131.226z M25.098,18.148
		c-1.078,0.308-1.83,0.645-2.438,1.094c-1.358,1.004-2.21,2.794-2.339,4.913c-0.119,1.961,0.346,3.937,0.795,5.848
		c17.166,64.705,17.998,67.431,22.613,82.559c1.079,3.538,2.422,7.94,4.228,13.973c1.411,4.712,6.151,5.953,14.09,3.687
		c0.634-0.181,1.173-0.35,1.67-0.509c0.012-0.003,19.454-5.692,29.3-8.572c4.37-1.278,7.148-3.06,8.494-5.448
		c1.008-1.788,1.205-3.913,0.619-6.686c-0.602-2.85-8.464-33.621-14.782-58.346c-4.201-16.442-7.829-30.642-8.86-34.806
		c-2.476-10.004-7.04-9.409-9.766-9.054l-0.164,0.021c-2.577,0.332-29.138,7.783-29.406,7.858l-12.861,3.157
		C25.863,17.944,25.479,18.039,25.098,18.148z"/>
	<path fill="#FFCC00" d="M22.396,24.245c-0.387-1.445,0.449-2.935,1.859-3.312l12.368-3.306l0.292,1.09
		c0.392,1.463,1.881,2.347,2.878,2.089l17.304-4.626c1.858-0.505,2.705-2.014,2.313-3.476l-0.292-1.09l11.057-2.956
		c1.41-0.377,2.88,0.497,3.268,1.941l26.503,100.026c0.841,3.088-1.078,6.827-4.513,7.738l-37.472,10.765
		c-3.445,0.983-7.052,0.581-8.564-4.715L22.396,24.245z"/>
	<path d="M58.105,129.63C58.105,129.63,58.105,129.63,58.105,129.63c-4.696,1.34-7.88-0.414-9.21-5.073L21.891,24.381
		c-0.456-1.699,0.521-3.466,2.178-3.938l0.05-0.014l12.368-3.306c0.279-0.074,0.565,0.091,0.639,0.369l0.292,1.09
		c0.335,1.248,1.572,1.892,2.243,1.718l17.347-4.638c1.451-0.414,2.231-1.575,1.896-2.823l-0.292-1.09
		c-0.036-0.134-0.017-0.277,0.052-0.397c0.068-0.117,0.179-0.204,0.309-0.241c0.003-0.001,0.006-0.002,0.009-0.002L70.04,8.153
		c1.691-0.452,3.444,0.584,3.907,2.311l26.503,100.027c0.95,3.49-1.333,7.439-4.884,8.377L58.105,129.63z M24.356,21.448
		c-1.111,0.317-1.764,1.512-1.456,2.663l27.002,100.167c1.173,4.109,3.763,5.534,7.915,4.348l37.472-10.765
		c0.044-0.012,0.077-0.021,0.111-0.031c2.949-0.842,4.838-4.145,4.042-7.068L72.938,10.733c-0.313-1.169-1.493-1.874-2.628-1.57
		l-10.552,2.821l0.157,0.585c0.484,1.804-0.618,3.527-2.619,4.098l-0.062,0.017l-17.306,4.626c-1.238,0.321-3.042-0.683-3.518-2.458
		l-0.157-0.586L24.356,21.448z"/>
	<path d="M122.256,162.492c-0.231,0.066-0.49,0.01-0.675-0.168c-0.191-0.184-4.68-4.602-5.994-13.65
		c-0.856-5.896-1.319-14.105-1.81-22.796c-1.239-21.965-2.782-49.302-11.5-60.587c-1.875-2.427-3.457-3.516-4.583-3.145
		c-2.299,0.755-3.303,7.372-3.396,11.365c-0.009,0.384-0.327,0.689-0.712,0.68c-0.384-0.009-0.689-0.328-0.68-0.712
		c0.027-1.158,0.375-11.349,4.354-12.656c1.78-0.588,3.787,0.597,6.12,3.617c8.982,11.626,10.538,39.202,11.789,61.36
		c0.489,8.66,0.95,16.839,1.798,22.674c1.246,8.582,5.54,12.806,5.583,12.848c0.277,0.267,0.285,0.708,0.018,0.985
		C122.477,162.397,122.37,162.459,122.256,162.492z"/>
	<path fill="#FFFFFF" d="M28.88,119.788c-18.08-22.088,9.355-25.238,9.355-25.238s6.013-1.246,7.036,4.15
		c0.537,2.833-2.079,5.355-4.686,7.112c-2.121,1.429-4.472,2.484-6.932,3.186l-0.885,0.253"/>
	<path d="M29.071,120.458c-0.259,0.074-0.549-0.007-0.73-0.229c-5.609-6.852-7.5-12.676-5.621-17.309
		c3.021-7.449,14.592-8.96,15.406-9.058c0.361-0.069,3.252-0.562,5.478,0.927c1.241,0.83,2.032,2.103,2.35,3.782
		c0.491,2.589-1.232,5.293-4.981,7.819c-2.124,1.431-4.523,2.534-7.13,3.278l-0.885,0.253c-0.37,0.106-0.755-0.109-0.861-0.479
		c-0.106-0.37,0.109-0.755,0.479-0.861l0.885-0.253c2.466-0.704,4.731-1.745,6.734-3.094c2.267-1.528,4.87-3.879,4.391-6.404
		c-0.246-1.295-0.834-2.264-1.75-2.879c-1.836-1.233-4.436-0.724-4.462-0.718c-0.019,0.004-0.041,0.007-0.06,0.01
		c-0.115,0.014-11.553,1.411-14.305,8.204c-1.671,4.125,0.149,9.474,5.409,15.9c0.244,0.298,0.2,0.737-0.098,0.98
		C29.245,120.389,29.16,120.433,29.071,120.458z"/>
	<path d="M38.186,101.964c-0.157,0.045-0.326,0.033-0.475-0.034c-0.258-0.115-2.537-1.181-2.983-3.015
		c-0.144-0.593-0.145-1.514,0.669-2.533c0.071-0.089,0.163-0.16,0.268-0.205c0.031-0.014,0.783-0.337,1.77-0.618
		c1.934-0.552,3.369-0.552,4.263-0.001c0.512,0.316,0.845,0.811,0.962,1.432c0.616,3.253-4.239,4.897-4.446,4.966
		C38.205,101.959,38.196,101.962,38.186,101.964z M36.382,97.388c-0.296,0.419-0.394,0.812-0.301,1.198
		c0.21,0.864,1.333,1.62,1.951,1.95c0.863-0.343,3.583-1.571,3.258-3.287c-0.045-0.239-0.146-0.395-0.325-0.506
		c-0.524-0.323-1.672-0.267-3.149,0.155C37.179,97.08,36.641,97.285,36.382,97.388z"/>
	<path d="M34.396,102.271c-0.209,0.06-0.443,0.021-0.626-0.125c-2.039-1.624-1.214-4.025-1.178-4.126
		c0.129-0.362,0.527-0.551,0.89-0.422c0.361,0.129,0.55,0.525,0.424,0.886c-0.024,0.071-0.516,1.579,0.732,2.573
		c0.301,0.24,0.351,0.678,0.111,0.979C34.655,102.153,34.531,102.232,34.396,102.271z"/>
	<path d="M75.439,178.196c-0.272,0.078-0.576-0.016-0.753-0.258c-4.502-6.149-6.446-8.58-12.25-13.848
		c-2.915-2.646-5.885-4.886-8.757-7.052c-7.612-5.741-15.484-11.678-22.494-25.475c-3.494-6.877-3.988-12.466-1.467-16.612
		c4.233-6.965,15.701-7.6,19.115-7.628c0.472-0.004,0.905-0.029,1.323-0.075c0.707-0.079,2.062-0.07,3.186,0.882
		c1.026,0.868,1.6,2.293,1.706,4.233c0.145,2.646-2.706,5.235-8.472,7.695c-4.123,1.759-8.209,2.806-8.381,2.85
		c-0.373,0.095-0.752-0.13-0.847-0.503c-0.095-0.373,0.129-0.751,0.503-0.847c0.041-0.011,4.167-1.068,8.191-2.787
		c5.016-2.142,7.72-4.391,7.614-6.333c-0.084-1.543-0.493-2.635-1.215-3.246c-0.726-0.614-1.647-0.615-2.131-0.561
		c-0.467,0.052-0.946,0.08-1.467,0.084c-3.232,0.027-14.077,0.609-17.937,6.959c-2.253,3.706-1.742,8.84,1.519,15.258
		c6.864,13.51,14.26,19.088,22.091,24.994c2.897,2.185,5.892,4.444,8.854,7.133c5.873,5.331,7.963,7.945,12.438,14.057
		c0.227,0.31,0.16,0.746-0.15,0.973C75.59,178.138,75.516,178.174,75.439,178.196z"/>
	<path fill="#FFFFFF" d="M45.234,110.348c0,0,5.909-1.945,6.557,1.231c0.648,3.177-4.51,4.132-4.51,4.132
		S43.969,114.07,45.234,110.348"/>
	<path d="M48.186,116.205c-0.455,0.13-0.765,0.188-0.778,0.19c-0.148,0.027-0.301,0.006-0.436-0.061
		c-1.335-0.661-3.554-2.81-2.398-6.211c0.07-0.207,0.234-0.369,0.442-0.438c0,0,0.115-0.038,0.315-0.095
		c1.19-0.34,4.145-1.015,5.884,0.041c0.664,0.403,1.099,1.028,1.258,1.808C52.908,113.567,51.345,115.304,48.186,116.205z
		 M47.392,114.974c0.108-0.026,0.249-0.061,0.412-0.108c1.121-0.32,3.688-1.268,3.305-3.148c-0.083-0.406-0.279-0.691-0.616-0.896
		c-1.021-0.62-3.082-0.366-4.701,0.086C45.146,113.335,46.8,114.606,47.392,114.974z"/>
	<path fill="#FFFFFF" d="M42.799,112.354c0,0,0.015,2.024,1.088,3.151"/>
	<path d="M44.078,116.175c-0.241,0.069-0.511,0.005-0.696-0.19c-1.248-1.312-1.279-3.532-1.279-3.626
		c-0.003-0.385,0.307-0.699,0.691-0.702c0.384-0.003,0.698,0.306,0.702,0.69l0,0c0,0.017,0.03,1.768,0.896,2.677
		c0.265,0.279,0.254,0.72-0.025,0.985C44.282,116.09,44.183,116.145,44.078,116.175z"/>
	<path d="M92.091,28.973c-0.117,0.033-0.247,0.018-0.356-0.053c-0.202-0.131-0.259-0.4-0.128-0.602
		c2.549-3.93,4.994-8.001,7.265-12.099c0.117-0.21,0.381-0.286,0.592-0.17c0.21,0.117,0.286,0.381,0.17,0.592
		c-2.282,4.116-4.736,8.204-7.296,12.151C92.277,28.883,92.188,28.945,92.091,28.973z"/>
	<path d="M97.64,34c-0.207,0.059-0.431-0.043-0.519-0.246c-0.095-0.221,0.007-0.477,0.227-0.572c3.195-1.378,6.38-2.892,9.466-4.5
		c0.213-0.111,0.476-0.029,0.587,0.185c0.111,0.213,0.028,0.476-0.185,0.587c-3.105,1.618-6.309,3.141-9.524,4.527
		C97.676,33.989,97.658,33.995,97.64,34z"/>
	<path d="M103.441,42.654c-0.027,0.008-0.055,0.013-0.083,0.015c-2.027,0.171-4.035,0.58-5.968,1.214
		c-0.226,0.073-0.474-0.049-0.549-0.278c-0.075-0.228,0.049-0.474,0.278-0.549c1.998-0.656,4.072-1.077,6.166-1.254
		c0.239-0.02,0.45,0.158,0.47,0.397C103.773,42.41,103.637,42.598,103.441,42.654z"/>
</g>
<path fill="#C93957" d="M33.333,46.864l14.025-11.499c0,0,1.822-1.182,3.243,1.401l21.929,39.107c0,0,0.83,1.304-0.696,2.709
	L67.221,82c0,0-1.859,0.125-2.69-1.083L33.333,46.864z"/>
<path fill="#FAFAFA" d="M74.612,82.957c0,0,1.711-2.808,4.218-2.159s4.033-0.611,5.289,3.764c0,0,1.254,4.182-0.964,5.966
	c-2.218,1.784-2.824,1.347-2.824,1.347l0.754-1.438c0,0,0.391-3.589-0.754-4.919C79.188,84.188,76.777,82.666,74.612,82.957z"/>
<path d="M79.135,93.217c-0.142,0.04-0.299-0.013-0.385-0.142l-6.132-9.208c-0.051-0.077-0.07-0.171-0.052-0.261
	c0.018-0.091,0.072-0.17,0.148-0.221l3.514-2.34c0.438-0.292,0.917-0.513,1.422-0.657c2.315-0.661,4.934,0.381,6.367,2.534
	c0.868,1.303,1.216,2.841,0.98,4.33c-0.237,1.5-1.037,2.772-2.252,3.581l-3.514,2.34C79.201,93.192,79.168,93.207,79.135,93.217z
	 M73.39,83.771l5.746,8.628l3.224-2.147c1.051-0.7,1.743-1.804,1.95-3.11c0.208-1.316-0.102-2.679-0.872-3.835
	c-1.268-1.904-3.569-2.829-5.596-2.25c-0.436,0.124-0.849,0.315-1.227,0.567L73.39,83.771z"/>
<polygon fill="#FAFAFA" points="49.415,34.558 53.844,34.558 76.406,74.938 73.531,77 "/>
<path d="M66.534,83.369c-0.22,0.063-0.466-0.002-0.626-0.184c-0.058-0.066-5.853-6.667-10.311-11.288
	c-0.525-0.545-1.205-1.242-1.998-2.057c-6.08-6.244-18.73-19.237-20.556-23.406c-0.104-0.238-0.046-0.517,0.145-0.693
	c0.445-0.41,10.955-10.055,15.356-11.311c0.371-0.106,0.693-0.154,0.984-0.147c0.218,0.005,0.416,0.126,0.52,0.317
	c0.032,0.059,3.273,5.976,7.417,13.236c2.429,4.255,4.216,7.017,5.653,9.236c1.04,1.606,1.861,2.875,2.581,4.18
	c1.678,3.039,8.169,15.394,8.235,15.518c0.135,0.257,0.07,0.573-0.154,0.756l-7.028,5.73C66.686,83.309,66.612,83.347,66.534,83.369
	z M34.349,46.332c2.334,4.386,14.735,17.122,20.124,22.657c0.795,0.817,1.476,1.516,2.002,2.062
	c3.808,3.948,8.583,9.328,9.961,10.889l6.187-5.044c-1.179-2.242-6.5-12.354-7.991-15.055c-0.7-1.267-1.511-2.52-2.537-4.106
	c-1.445-2.232-3.242-5.009-5.688-9.294c-3.577-6.267-6.482-11.535-7.237-12.908c-0.09,0.017-0.187,0.04-0.292,0.07
	C45.169,36.661,36.196,44.661,34.349,46.332z"/>
<path d="M73.49,77.388c-0.142,0.04-0.299-0.013-0.385-0.142c-0.107-0.16-0.063-0.376,0.097-0.483l2.664-1.775
	c-0.606-1.372-3.422-7.664-5.258-10.421c-0.989-1.486-1.782-3.022-2.622-4.649c-0.972-1.883-1.976-3.831-3.429-6.012
	c-1.729-2.596-5.102-8.704-7.564-13.164c-1.481-2.683-2.652-4.802-3.005-5.332c-0.676-1.015-3.386-0.479-4.375-0.185
	c-0.001,0-0.002,0.001-0.004,0.001c-0.183,0.052-0.375-0.053-0.429-0.236c-0.055-0.184,0.05-0.378,0.234-0.433
	c0.413-0.124,4.073-1.155,5.153,0.466c0.369,0.554,1.545,2.684,3.035,5.381c2.457,4.449,5.822,10.543,7.534,13.115
	c1.474,2.214,2.488,4.179,3.469,6.079c0.83,1.609,1.614,3.129,2.582,4.582c2.091,3.14,5.299,10.485,5.434,10.796
	c0.067,0.155,0.014,0.335-0.126,0.429l-2.908,1.937C73.557,77.363,73.524,77.378,73.49,77.388z"/>
<path fill="#C93957" d="M80.092,85.535c1.693,2.543,1.168,5.868-1.174,7.428c-2.342,1.56-5.613,0.763-7.307-1.78
	c-1.694-2.543-1.168-5.868,1.174-7.428C75.128,82.195,78.399,82.992,80.092,85.535"/>
<path d="M77.76,94.161c-2.423,0.692-5.16-0.394-6.656-2.64c-0.904-1.358-1.267-2.961-1.021-4.516
	c0.249-1.573,1.088-2.907,2.365-3.757c0.461-0.307,0.964-0.539,1.495-0.691c2.423-0.692,5.16,0.394,6.656,2.64
	c0.904,1.358,1.267,2.961,1.021,4.516c-0.249,1.573-1.089,2.908-2.365,3.757C78.795,93.777,78.292,94.009,77.76,94.161z
	 M74.278,83.728c-0.41,0.117-0.798,0.297-1.154,0.534c-0.989,0.659-1.641,1.7-1.836,2.933c-0.198,1.251,0.097,2.548,0.831,3.65
	c1.206,1.81,3.388,2.692,5.307,2.144c0.41-0.117,0.798-0.297,1.154-0.534c0.989-0.659,1.642-1.7,1.836-2.933
	c0.198-1.251-0.097-2.548-0.831-3.65C78.38,84.062,76.197,83.18,74.278,83.728z"/>
<path d="M82.459,89.785c-0.338,0.096-0.707,0.087-1.036-0.032c-0.103-0.037-0.182-0.121-0.214-0.225
	c-0.032-0.104-0.013-0.218,0.051-0.306c0.489-0.676,1.227-1.033,1.941-1.378c0.377-0.182,0.741-0.358,1.057-0.573l-3.125,0.91
	c-0.124,0.044-0.257,0.001-0.347-0.091c-0.09-0.092-0.122-0.226-0.082-0.349c0.28-0.876,1.043-1.333,1.782-1.774
	c0.438-0.262,0.852-0.509,1.164-0.835c0.011-0.012,0.021-0.022,0.028-0.03c-0.017-0.013-0.041-0.029-0.072-0.043
	c-0.469-0.218-1.032-0.032-1.628,0.165c-0.607,0.2-1.233,0.407-1.885,0.256c-0.171-0.04-0.286-0.201-0.267-0.376
	c0.083-0.773,0.733-1.179,1.307-1.537c0.264-0.165,0.514-0.321,0.709-0.504c0.103-0.096,0.228-0.243,0.24-0.394
	c0.007-0.085-0.05-0.168-0.081-0.173c-0.05-0.008-0.163,0.042-0.23,0.073l-3.215,1.422c-0.615,0.274-0.918,0.048-1.044-0.111
	c-0.212-0.266-0.172-0.655,0.102-0.992c0.36-0.444,0.861-0.704,1.346-0.955c0.396-0.205,0.775-0.401,1.026-0.679
	c-0.278-0.022-0.615,0.086-0.904,0.196c-1.137,0.435-2.271,0.914-3.37,1.424c-0.175,0.081-0.381,0.005-0.462-0.169
	c-0.081-0.175-0.005-0.382,0.169-0.462c1.114-0.516,2.262-1.002,3.414-1.442c0.579-0.222,1.317-0.421,1.885,0.007
	c0.129,0.097,0.174,0.271,0.109,0.419c-0.302,0.682-0.935,1.009-1.547,1.326c-0.441,0.228-0.857,0.444-1.125,0.775
	c-0.025,0.031-0.044,0.062-0.057,0.088c0.042-0.009,0.1-0.027,0.176-0.06l3.215-1.422c0.146-0.065,0.368-0.163,0.62-0.124
	c0.404,0.063,0.704,0.475,0.668,0.918c-0.024,0.299-0.178,0.583-0.458,0.845c-0.245,0.229-0.535,0.41-0.816,0.586
	c-0.356,0.222-0.677,0.423-0.851,0.676c0.35-0.019,0.721-0.142,1.109-0.27c0.699-0.231,1.421-0.47,2.141-0.135
	c0.337,0.157,0.526,0.438,0.494,0.734c-0.023,0.203-0.14,0.349-0.241,0.453c-0.377,0.393-0.851,0.677-1.31,0.951
	c-0.366,0.219-0.72,0.431-0.997,0.684l2.386-0.695c0.004-0.001,0.008-0.002,0.012-0.004c0.532-0.152,0.914-0.078,1.136,0.219
	c0.095,0.128,0.092,0.304-0.008,0.427c-0.494,0.611-1.193,0.948-1.868,1.275c-0.376,0.182-0.741,0.358-1.056,0.573
	c0.17-0.088,0.379-0.021,0.467,0.148c0.089,0.17,0.023,0.381-0.147,0.47C82.669,89.714,82.565,89.755,82.459,89.785z"/>
<path d="M57.826,48.773c-0.002,0.001-0.005,0.001-0.007,0.002c-0.186,0.049-0.376-0.063-0.425-0.249
	c-0.123-0.47,0.101-1.003,0.601-1.425c0.096-0.081,0.197-0.157,0.299-0.234c0.219-0.164,0.426-0.32,0.55-0.515
	c0.08-0.126,0.107-0.308,0.065-0.442c-0.03-0.098-0.082-0.12-0.099-0.127c-0.104-0.044-0.292,0.004-0.429,0.039l-1.556,0.399
	c-0.576,0.148-0.792-0.139-0.858-0.27c-0.104-0.205-0.047-0.417-0.026-0.496c0.171-0.638,0.597-1.196,1.167-1.53
	c0.567-0.333,0.621-0.474,0.624-0.509c-0.022-0.036-0.14-0.086-0.474-0.002l-1.989,0.499c-0.301,0.076-0.715,0.056-0.958-0.157
	c-0.147-0.129-0.216-0.308-0.193-0.504c0.035-0.307,0.286-0.475,0.406-0.556l1.639-1.101c0.289-0.195,0.467-0.413,0.422-0.518
	c-0.034-0.08-0.211-0.131-0.403-0.118c-0.302,0.021-0.603,0.127-0.922,0.24c-0.168,0.059-0.342,0.118-0.52,0.171
	c-0.434,0.122-1.248,0.249-1.822-0.269c-0.08-0.072-0.122-0.177-0.114-0.285c0.008-0.107,0.065-0.205,0.155-0.264
	c0.801-0.529,1.591-1.096,2.351-1.686c-0.017,0.003-0.035,0.007-0.053,0.012l-2.189,0.558c-0.24,0.061-0.641,0.163-0.997-0.029
	c-0.23-0.124-0.386-0.345-0.439-0.622c-0.064-0.332,0.03-0.699,0.246-0.957c0.316-0.378,0.782-0.531,1.23-0.655
	c0.345-0.095,0.7-0.193,0.907-0.418c0.022-0.024,0.035-0.042,0.042-0.054c-0.02-0.022-0.067-0.055-0.133-0.077
	c-0.465-0.155-1.013,0.103-1.542,0.353l-0.138,0.065c-0.965,0.449-1.781,0.44-2.299-0.026c-0.251-0.226-0.435-0.633-0.246-0.993
	c0.14-0.266,0.417-0.37,0.566-0.425c0.968-0.36,1.968-0.66,2.973-0.891c0.187-0.043,0.374,0.074,0.417,0.261
	c0.043,0.188-0.075,0.377-0.261,0.417c-0.975,0.224-1.946,0.515-2.886,0.865c-0.141,0.053-0.183,0.082-0.193,0.097
	c-0.001,0.017,0.028,0.091,0.095,0.152c0.401,0.361,1.136,0.1,1.539-0.087l0.135-0.063c0.623-0.293,1.329-0.626,2.058-0.384
	c0.386,0.128,0.628,0.425,0.616,0.756c-0.007,0.176-0.084,0.347-0.232,0.507c-0.342,0.372-0.838,0.508-1.235,0.617
	c-0.358,0.099-0.694,0.206-0.88,0.43c-0.081,0.097-0.121,0.253-0.097,0.38c0.013,0.069,0.043,0.117,0.087,0.141
	c0.108,0.058,0.303,0.016,0.494-0.033l2.189-0.558c0.176-0.045,0.509-0.096,0.77,0.059c0.137,0.082,0.23,0.206,0.268,0.359
	c0.069,0.275-0.056,0.538-0.37,0.782c-0.61,0.474-1.24,0.935-1.879,1.373c0.265,0.024,0.534-0.037,0.677-0.077
	c0.156-0.046,0.312-0.099,0.476-0.157c0.348-0.123,0.709-0.251,1.105-0.278c0.405-0.028,0.905,0.099,1.093,0.541
	c0.113,0.266,0.175,0.797-0.675,1.368l-1.614,1.085c0.05,0,0.106-0.005,0.162-0.019l1.989-0.498
	c0.745-0.187,1.079,0.059,1.228,0.298c0.106,0.17,0.138,0.36,0.091,0.549c-0.102,0.415-0.542,0.703-0.947,0.94
	c-0.388,0.227-0.683,0.597-0.821,1.024c0.004-0.001,0.008-0.002,0.013-0.003l1.556-0.399c0.221-0.056,0.555-0.142,0.876-0.005
	c0.235,0.1,0.409,0.3,0.49,0.561c0.102,0.33,0.048,0.722-0.143,1.021c-0.192,0.303-0.461,0.504-0.72,0.699
	c-0.091,0.068-0.182,0.136-0.268,0.209c-0.224,0.189-0.44,0.476-0.377,0.717C58.115,48.534,58.007,48.722,57.826,48.773z"/>
<path d="M64.937,60.56c-0.156,0.045-0.327-0.025-0.404-0.175c-0.089-0.171-0.022-0.381,0.149-0.469
	c0.568-0.294,1.069-0.717,1.459-1.224l-1.296,0.269c-0.145,0.03-0.364,0.076-0.587-0.009c-0.274-0.104-0.466-0.373-0.526-0.738
	c-0.13-0.785,0.278-1.634,1.148-2.392c0.019-0.017,0.061-0.053,0.089-0.083c-0.007-0.006-0.015-0.013-0.025-0.021
	c-0.344-0.254-0.873-0.113-1.433,0.036c-0.683,0.182-1.457,0.389-2.059-0.134c-0.09-0.078-0.134-0.197-0.116-0.315
	c0.018-0.118,0.095-0.218,0.204-0.267c0.993-0.439,1.872-1.166,2.505-2.056l-1.907,0.643c-0.886,0.3-1.535,0.178-1.828-0.34
	c-0.353-0.626,0.12-1.297,0.631-1.682l0.064-0.047c0.273-0.204,0.555-0.415,0.64-0.646c-0.961,0.447-2.056,0.546-3.082,0.278
	c-0.115-0.03-0.206-0.116-0.243-0.229c-0.037-0.113-0.014-0.236,0.061-0.328c0.34-0.416,0.836-0.618,1.273-0.796l0.072-0.029
	c0.369-0.151,0.778-0.339,0.965-0.664c0.081-0.14,0.093-0.347,0.029-0.502c-0.039-0.094-0.096-0.152-0.17-0.173
	c-0.135-0.038-0.327,0.032-0.528,0.113l-2.208,0.89c-0.178,0.072-0.381-0.014-0.453-0.193c-0.072-0.178,0.014-0.381,0.193-0.453
	l2.208-0.89c0.239-0.096,0.601-0.242,0.975-0.138c0.284,0.079,0.506,0.285,0.627,0.58c0.146,0.357,0.12,0.783-0.069,1.113
	c-0.283,0.492-0.794,0.753-1.305,0.962l-0.073,0.03c-0.125,0.051-0.248,0.101-0.364,0.154c0.618,0.024,1.244-0.097,1.8-0.356
	c0.52-0.243,0.781-0.046,0.89,0.092c0.082,0.105,0.124,0.237,0.124,0.395c0.003,0.64-0.523,1.033-0.946,1.35l-0.062,0.046
	c-0.301,0.226-0.559,0.578-0.443,0.783c0.126,0.223,0.598,0.157,0.998,0.023l2.803-0.946c0.134-0.043,0.281-0.005,0.374,0.101
	c0.093,0.106,0.112,0.258,0.049,0.384c-0.552,1.109-1.436,2.07-2.493,2.731c0.196-0.029,0.421-0.085,0.683-0.155
	c0.663-0.177,1.414-0.377,2.027,0.077c0.214,0.158,0.33,0.366,0.328,0.584c-0.003,0.304-0.227,0.499-0.348,0.604
	c-0.395,0.343-1.038,1.028-0.918,1.753c0.022,0.135,0.072,0.195,0.086,0.2c0.033,0.013,0.145-0.01,0.198-0.022l2.099-0.436
	c0.131-0.027,0.267,0.023,0.348,0.13s0.094,0.25,0.033,0.37c-0.477,0.932-1.251,1.71-2.181,2.192
	C64.981,60.546,64.959,60.554,64.937,60.56z"/>
<path d="M72.529,75.874c-0.12,0.034-0.25,0.002-0.339-0.086c-0.09-0.088-0.125-0.218-0.093-0.339
	c0.203-0.755,0.836-1.177,1.448-1.586c0.27-0.18,0.531-0.355,0.741-0.549l-2.572,0.631c-0.136,0.033-0.278-0.018-0.362-0.13
	c-0.084-0.112-0.092-0.263-0.022-0.384c0.603-1.038,1.336-1.992,2.181-2.843c-0.157,0.008-0.375,0.064-0.68,0.152
	c-0.573,0.168-1.286,0.376-1.755-0.16c-0.407-0.464-0.303-1.147,0.293-1.923l1.066-1.387c-0.417-0.041-0.908,0.163-1.419,0.376
	c-0.753,0.313-1.606,0.669-2.394,0.255c-0.104-0.054-0.173-0.157-0.185-0.274c-0.012-0.117,0.036-0.231,0.128-0.305l2.372-1.918
	c0.117-0.095,0.208-0.22,0.264-0.328c-0.969,0.48-1.957,0.939-2.944,1.367c-0.163,0.071-0.355,0.007-0.443-0.15
	c-0.356-0.638,0.029-1.4,0.537-1.839c0.145-0.125,0.299-0.236,0.447-0.343c0.274-0.197,0.533-0.384,0.693-0.63
	c0.112-0.172,0.139-0.442,0.063-0.627c-0.058-0.142-0.144-0.16-0.172-0.167c-0.111-0.024-0.271,0.025-0.412,0.069l-2.22,0.689
	c-0.169,0.053-0.566,0.176-0.88-0.064c-0.178-0.136-0.269-0.332-0.257-0.552c0.021-0.385,0.371-0.764,0.686-0.954l1.81-1.087
	c0.245-0.147,0.372-0.326,0.371-0.381c-0.006-0.004-0.037-0.029-0.112-0.044c-0.273-0.056-0.603,0.063-1.039,0.374l-0.142,0.102
	c-0.354,0.258-0.754,0.549-1.25,0.623c-0.381,0.057-0.793-0.068-1.077-0.324c-0.228-0.206-0.346-0.476-0.332-0.761
	c0.009-0.192,0.172-0.34,0.364-0.331c0.192,0.009,0.34,0.172,0.331,0.364c-0.004,0.074,0.031,0.146,0.104,0.211
	c0.127,0.115,0.335,0.177,0.507,0.152c0.325-0.048,0.625-0.266,0.942-0.497l0.147-0.106c0.38-0.271,0.958-0.617,1.583-0.49
	c0.238,0.049,0.426,0.162,0.542,0.328c0.115,0.163,0.153,0.354,0.111,0.55c-0.093,0.436-0.554,0.743-0.693,0.826l-1.81,1.087
	c-0.178,0.107-0.304,0.27-0.339,0.357c0.033-0.001,0.098-0.01,0.224-0.049l2.22-0.689c0.201-0.062,0.476-0.148,0.767-0.084
	c0.304,0.067,0.541,0.274,0.668,0.583c0.162,0.397,0.113,0.908-0.124,1.271c-0.231,0.355-0.556,0.588-0.87,0.815
	c-0.143,0.103-0.277,0.2-0.399,0.305c-0.199,0.172-0.371,0.417-0.42,0.644c0.965-0.427,1.929-0.882,2.871-1.357
	c0.092-0.046,0.199-0.049,0.294-0.009c0.222,0.095,0.369,0.284,0.401,0.518c0.057,0.413-0.248,0.899-0.578,1.167l-1.772,1.433
	c0.355-0.046,0.744-0.208,1.147-0.376c0.775-0.323,1.653-0.688,2.44-0.197c0.083,0.052,0.141,0.137,0.158,0.233
	c0.017,0.097-0.007,0.196-0.067,0.274l-1.358,1.767c-0.278,0.362-0.509,0.826-0.322,1.04c0.164,0.188,0.516,0.103,1.036-0.049
	c0.587-0.171,1.321-0.386,1.749,0.232c0.098,0.142,0.078,0.334-0.048,0.452c-0.739,0.694-1.395,1.468-1.958,2.308l2.58-0.633
	c0.12-0.029,0.246,0.007,0.332,0.095c0.086,0.088,0.119,0.216,0.086,0.335c-0.206,0.752-0.837,1.173-1.448,1.581
	c-0.245,0.164-0.483,0.323-0.682,0.497l1.639-0.478c0.001,0,0.001,0,0.002-0.001c0.184-0.053,0.376,0.053,0.43,0.237
	c0.054,0.185-0.052,0.378-0.237,0.432l-2.553,0.744C72.53,75.874,72.53,75.874,72.529,75.874z"/>
</svg>
