<svg xmlns="http://www.w3.org/2000/svg" xmlns:xlink="http://www.w3.org/1999/xlink" width="173.669" height="189.866" viewBox="0 0 173.669 189.866">
  <defs>
    <clipPath id="clip-path">
      <rect id="Rectangle_8863" data-name="Rectangle 8863" width="173.669" height="189.867" transform="translate(0 0)" fill="#fff" stroke="#707070" stroke-width="1"/>
    </clipPath>
  </defs>
  <g id="Mask_Group_19027" data-name="Mask Group 19027" clip-path="url(#clip-path)">
    <g id="Group_19163" data-name="Group 19163" transform="translate(10.15 31.621)">
      <g id="Group_17673" data-name="Group 17673" transform="translate(0)">
        <path id="Path_64006" data-name="Path 64006" d="M278.617,7346.112c-12.035-27.849,16.923-23.065,16.923-23.065s6.509.48,5.981,6.294c-.278,3.053-3.687,4.867-6.864,5.9a25.875,25.875,0,0,1-8.015,1.234h-.979" transform="translate(-234.928 -7239.698)" fill="#fff" stroke="#000" stroke-linecap="round" stroke-linejoin="round" stroke-width="1"/>
        <path id="Path_64007" data-name="Path 64007" d="M304.968,7215.823s-14.138-16.262-7.014-22.25,14.028,3.354,14.028,3.354,13.712,15.271,11.307,21.563-5.182,3.7-5.182,3.7" transform="translate(-251.437 -7132.807)" fill="none" stroke="#000" stroke-linecap="round" stroke-linejoin="round" stroke-width="1"/>
        <path id="Path_64008" data-name="Path 64008" d="M547.346,7474.032s-15.65,16.791-12.549,30.78" transform="translate(-445.753 -7362.997)" fill="none" stroke="#000" stroke-linecap="round" stroke-linejoin="round" stroke-width="1"/>
        <path id="Path_64009" data-name="Path 64009" d="M393.241,7158.563c5.235-23.761,14.233-69.522,7.9-85.393-5.65-14.155-11.947,6.128-11.947,6.128-6.618,24.312-15.4,22.692-23.917,12.144s-37.77-52.477-37.77-52.477-7.864-14.387-12.861-6.25,10.162,28.794,10.162,28.794l7.668,11.659" transform="translate(-265.848 -7001.317)" fill="none" stroke="#000" stroke-linecap="round" stroke-linejoin="round" stroke-width="1"/>
        <path id="Path_64010" data-name="Path 64010" d="M777.393,7254.581s-2.361,12.578,3.058,13.565" transform="translate(-643.369 -7184.157)" fill="none" stroke="#000" stroke-linecap="round" stroke-linejoin="round" stroke-width="1"/>
        <path id="Path_64011" data-name="Path 64011" d="M361.815,7332.84s6.343-.828,6.079,2.07-5.286,3.106-5.286,3.106S358.908,7334.911,361.815,7332.84Z" transform="translate(-304.207 -7247.845)" fill="none" stroke="#000" stroke-linecap="round" stroke-linejoin="round" stroke-width="1"/>
        <path id="Path_64012" data-name="Path 64012" d="M347,7337.016a3.289,3.289,0,0,0,0,3.7" transform="translate(-292.561 -7251.336)" fill="none" stroke="#000" stroke-linecap="round" stroke-linejoin="round" stroke-width="1"/>
        <path id="Path_64013" data-name="Path 64013" d="M309,7470.056c-8.129-13.089-18.075-20.11-22.353-42.112-4.972-25.569,19.113-20.173,24.185-18.772a14.286,14.286,0,0,0,1.449.326c1.2.2,3.954,1.165,2.909,5.761-1.321,5.814-19.557,5.286-19.557,5.286" transform="translate(-243.308 -7308.966)" fill="#fff" stroke="#000" stroke-linecap="round" stroke-linejoin="round" stroke-width="1"/>
        <path id="Path_64014" data-name="Path 64014" d="M392.592,7422.682s6.607-.264,6.343,3.171-5.814,2.908-5.814,2.908A4.587,4.587,0,0,1,392.592,7422.682Z" transform="translate(-329.434 -7321.145)" fill="#fff" stroke="#000" stroke-linecap="round" stroke-linejoin="round" stroke-width="1"/>
        <path id="Path_64015" data-name="Path 64015" d="M379.192,7429.942a5.634,5.634,0,0,0,.192,3.538" transform="translate(-319.107 -7327.066)" fill="#fff" stroke="#000" stroke-linecap="round" stroke-linejoin="round" stroke-width="1"/>
        <path id="Path_64016" data-name="Path 64016" d="M382.691,7305.209s1.48-5,6.107-3.886,2.591,6.662,1.48,7.218l-1.843.661S388.243,7306.32,382.691,7305.209Z" transform="translate(-322.127 -7222.118)" fill="none" stroke="#000" stroke-linecap="round" stroke-linejoin="round" stroke-width="1"/>
        <path id="Path_64017" data-name="Path 64017" d="M378.691,7293.178s0-2.96,3.886-3.146" transform="translate(-318.867 -7213.048)" fill="none" stroke="#000" stroke-linecap="round" stroke-linejoin="round" stroke-width="1"/>
        <path id="Path_64018" data-name="Path 64018" d="M449.827,7380.032s-16.47,19.8-18.136,29.24" transform="translate(-362.06 -7286.393)" fill="none" stroke="#000" stroke-linecap="round" stroke-linejoin="round" stroke-width="1"/>
        <path id="Path_64019" data-name="Path 64019" d="M457.938,6875.3a.612.612,0,0,0-.178-.857,1.77,1.77,0,0,0-.946-.233q-3.893-.2-7.793-.171a.587.587,0,0,0-.282.049c-.231.127-.189.467-.115.721" transform="translate(-375.811 -6874.032)" fill="none" stroke="#000" stroke-linecap="round" stroke-linejoin="round" stroke-width="1"/>
        <path id="Path_64020" data-name="Path 64020" d="M397.119,7005.157c-3.8.112-15.639.405-15.752-8.394-.447-34.893-.919-18.473.729-106.523a22.22,22.22,0,0,1,.924-6.367,7.5,7.5,0,0,1,4.153-4.675,11.138,11.138,0,0,1,4.335-.411l14.048.526s29.625.128,32.427.553,8.4,1.018,7.986,12.7-2.656,97.039-3.012,102.123-2.5,10.188-13.4,10.259Z" transform="translate(-320.703 -6877.88)" stroke="#000" stroke-linecap="round" stroke-linejoin="round" stroke-width="1"/>
        <path id="Path_64021" data-name="Path 64021" d="M399.159,6898.652a2.861,2.861,0,0,1,2.866-2.843l13.6.229-.019,1.2a2.89,2.89,0,0,0,2.332,2.975l19.035.32a3.037,3.037,0,0,0,3.378-2.878l.019-1.2,12.164.2a2.867,2.867,0,0,1,2.773,2.938l-2.092,109.962a6.888,6.888,0,0,1-6.87,6.593l-41.439.071c-3.807,0-7.377-1.463-7.377-7.317Z" transform="translate(-334.224 -6891.779)" fill="#fffdee" stroke="#000" stroke-linecap="round" stroke-linejoin="round" stroke-width="1"/>
        <path id="Path_64022" data-name="Path 64022" d="M221.265,7197.986a5.9,5.9,0,0,0-3.581-11.2l-4.274,1.366,3.581,11.2Z" transform="translate(-184.173 -7128.713)" fill="none" stroke="#000" stroke-linecap="round" stroke-linejoin="round" stroke-width="1"/>
        <path id="Path_64023" data-name="Path 64023" d="M55.422,6895.362s15.952-8.023,19.559-6.9c0,0,1.578,6.968,3.722,15.7s3.664,12.474,4.5,16.1,3.886,18.25,3.886,18.25l-8.854,3.805s-4.006-8.464-7.259-14.572S56.14,6900.656,55.422,6895.362Z" transform="translate(-55.422 -6885.702)" fill="#3fbca1" stroke="#000" stroke-linecap="round" stroke-linejoin="round" stroke-width="1"/>
        <path id="Path_64024" data-name="Path 64024" d="M161.113,6888.93s4.208-.046,4.774,1.722,3.8,16.977,5.406,21.987,1.849,8.83,3.074,12.662,2.39,12.555,2.39,12.555l-3.537,1.13" transform="translate(-141.553 -6886.173)" fill="none" stroke="#000" stroke-linecap="round" stroke-linejoin="round" stroke-width="1"/>
        <ellipse id="Ellipse_3384" data-name="Ellipse 3384" cx="5.415" cy="5.879" rx="5.415" ry="5.879" transform="matrix(0.952, -0.305, 0.305, 0.952, 23.932, 61.136)" fill="#3fbca1" stroke="#000" stroke-linecap="round" stroke-linejoin="round" stroke-width="1"/>
        <path id="Path_64025" data-name="Path 64025" d="M229.842,7191.05q1.933-.3,3.885-.475a1.752,1.752,0,0,1,1.6.411c-.764.916-2.3.617-3.272,1.3-.177.124-.347.339-.264.539.093.223.4.228.642.194l3.7-.516a.834.834,0,0,1,.464.024.536.536,0,0,1,.224.667,1.065,1.065,0,0,1-.538.531c-.86.441-2.119.412-2.482,1.307,1.14.633,2.79-.214,3.776.639a.452.452,0,0,1,.19.474.483.483,0,0,1-.222.213c-1.18.689-2.893.555-3.65,1.693l3.646-.019c.294,0,.659.042.763.317-1.265.889-3.137.509-4.352,1.465a1.424,1.424,0,0,0,1.108.237" transform="translate(-197.565 -7131.979)" fill="none" stroke="#000" stroke-linecap="round" stroke-linejoin="round" stroke-width="1"/>
        <path id="Path_64026" data-name="Path 64026" d="M165.074,6895.623a24.813,24.813,0,0,0-3.25.042.69.69,0,0,0-.464.156.533.533,0,0,0,.007.634c.383.613,1.257.643,1.97.529a2.915,2.915,0,0,1,2.105.124.514.514,0,0,1,.265.533.5.5,0,0,1-.226.249,2.315,2.315,0,0,1-1.245.216,2.135,2.135,0,0,0-1.237.246.758.758,0,0,0-.212,1.1,1.107,1.107,0,0,0,.762.216l2.4.067c.252.008.588.1.579.35-.006.184-.2.292-.374.361q-1.45.582-2.941,1.055a1.69,1.69,0,0,0,1.471.631,8.273,8.273,0,0,1,1.668.01c.3.063.63.247.668.555.052.417-.435.673-.836.8l-2,.648a.515.515,0,0,0-.349.24c-.124.3.329.49.654.5l2.178.071c.327.01.734.079.824.394.137.479-.563.688-1.046.813a2.351,2.351,0,0,0-1.414,1.056.373.373,0,0,0-.073.253c.034.178.264.221.445.227l1.707.045a1.094,1.094,0,0,1,.673.169.8.8,0,0,1-.119,1.154,4.4,4.4,0,0,1-1.18.579,1.2,1.2,0,0,0-.812.952" transform="translate(-141.671 -6891.6)" fill="none" stroke="#000" stroke-linecap="round" stroke-linejoin="round" stroke-width="1"/>
        <path id="Path_64027" data-name="Path 64027" d="M183.76,6979.275l2.516-.266a1.272,1.272,0,0,1,.805.091.871.871,0,0,1,.011,1.311,2.31,2.31,0,0,1-1.4.5,3.082,3.082,0,0,0-1.445.387,4.522,4.522,0,0,0,2.988.568c.178-.028.414-.038.482.128a.312.312,0,0,1,0,.2c-.141.5-.727.7-1.214.888s-1.03.595-.909,1.1c.128.535.842.624,1.391.6l3.141-.15a6.877,6.877,0,0,1-4.1,2.155c.7,1.076,2.741.078,3.524,1.095a.423.423,0,0,1,.1.362c-.043.146-.2.223-.334.286a2.586,2.586,0,0,0-1.66,1.817.612.612,0,0,0,.177.569.755.755,0,0,0,.4.108l2.273.167a5.065,5.065,0,0,1-2.672,1.493" transform="translate(-160.01 -6959.564)" fill="none" stroke="#000" stroke-linecap="round" stroke-linejoin="round" stroke-width="1"/>
        <path id="Path_64028" data-name="Path 64028" d="M205.632,7054.009c-.161.477.322.968.821,1.034a3.217,3.217,0,0,0,1.461-.317,1.87,1.87,0,0,1,1.466-.06.545.545,0,0,1,.279.285c.131.378-.356.655-.742.759l-2.166.582c-.412.112-.932.5-.678.836a.668.668,0,0,0,.575.173l2.47-.055a1.246,1.246,0,0,1,.625.094c.5.269.376,1.075-.053,1.448a6.139,6.139,0,0,1-1.537.718c-.516.238-1.011.749-.881,1.3q1.918-.253,3.819-.616c.375.305-.139.853-.584,1.043l-2.984,1.269c1.135,1.081,3.406-.435,4.457.729l-1.9,1.41c-.469.348-1,.9-.746,1.424.451.953,2.438-.037,2.778.96a14.591,14.591,0,0,0-3.428,2.453l3.732.14c-.716,1.181-2.765.885-3.477,2.07l2.827-.017" transform="translate(-177.809 -7020.702)" fill="none" stroke="#000" stroke-linecap="round" stroke-linejoin="round" stroke-width="1"/>
        <path id="Path_64029" data-name="Path 64029" d="M536.588,7640.356" transform="translate(-447.545 -7498.541)" fill="none" stroke="#000" stroke-linecap="round" stroke-linejoin="round" stroke-width="1"/>
        <path id="Path_64030" data-name="Path 64030" d="M604.4,7474.032" transform="translate(-502.806 -7362.997)" fill="none" stroke="#000" stroke-linecap="round" stroke-linejoin="round" stroke-width="1"/>
        <path id="Path_64032" data-name="Path 64032" d="M278.617,7346.112c-12.035-27.849,16.923-23.065,16.923-23.065s6.509.48,5.981,6.294c-.278,3.053-3.687,4.867-6.864,5.9a25.875,25.875,0,0,1-8.015,1.234h-.979" transform="translate(-234.928 -7239.698)" fill="#fff" stroke="#000" stroke-linecap="round" stroke-linejoin="round" stroke-width="1"/>
        <path id="Path_64033" data-name="Path 64033" d="M361.815,7332.84s6.343-.828,6.079,2.07-5.286,3.106-5.286,3.106S358.908,7334.911,361.815,7332.84Z" transform="translate(-304.207 -7247.845)" fill="none" stroke="#000" stroke-linecap="round" stroke-linejoin="round" stroke-width="1"/>
        <path id="Path_64034" data-name="Path 64034" d="M347,7337.016a3.289,3.289,0,0,0,0,3.7" transform="translate(-292.561 -7251.336)" fill="none" stroke="#000" stroke-linecap="round" stroke-linejoin="round" stroke-width="1"/>
        <path id="Path_64035" data-name="Path 64035" d="M304.907,7464.042c-7.02-9.649-14.655-17.55-18.261-36.1-4.972-25.569,19.113-20.173,24.185-18.772a14.286,14.286,0,0,0,1.449.326c1.2.2,3.954,1.165,2.909,5.761-1.321,5.814-19.557,5.286-19.557,5.286" transform="translate(-243.308 -7308.966)" fill="#fff" stroke="#000" stroke-linecap="round" stroke-linejoin="round" stroke-width="1"/>
        <path id="Path_64036" data-name="Path 64036" d="M392.592,7422.682s6.607-.264,6.343,3.171-5.814,2.908-5.814,2.908A4.587,4.587,0,0,1,392.592,7422.682Z" transform="translate(-329.434 -7321.145)" fill="#fff" stroke="#000" stroke-linecap="round" stroke-linejoin="round" stroke-width="1"/>
        <path id="Path_64037" data-name="Path 64037" d="M379.192,7429.942a5.634,5.634,0,0,0,.192,3.538" transform="translate(-319.107 -7327.066)" fill="#fff" stroke="#000" stroke-linecap="round" stroke-linejoin="round" stroke-width="1"/>
        <path id="Path_64038" data-name="Path 64038" d="M783.773,6999.427q5.665-4.942,10.979-10.269" transform="translate(-648.985 -6967.853)" fill="none" stroke="#000" stroke-linecap="round" stroke-linejoin="round" stroke-width="1"/>
        <path id="Path_64039" data-name="Path 64039" d="M806.5,7073.042q5.542-.721,11.021-1.844" transform="translate(-667.506 -7034.711)" fill="none" stroke="#000" stroke-linecap="round" stroke-linejoin="round" stroke-width="1"/>
        <path id="Path_64040" data-name="Path 64040" d="M789.435,7135.254a28.357,28.357,0,0,1,6.561.509" transform="translate(-653.6 -7086.895)" fill="none" stroke="#000" stroke-linecap="round" stroke-linejoin="round" stroke-width="1"/>
      </g>
    </g>
  </g>
</svg>
