<svg xmlns="http://www.w3.org/2000/svg" width="182.209" height="176.71" viewBox="0 0 182.209 176.71">
  <g id="Group_17677" data-name="Group 17677" transform="translate(-224.791 -1254.478)">
    <g id="Group_17663" data-name="Group 17663" transform="translate(-17606.938 -10253.51)">
      <line id="Line_5040" data-name="Line 5040" x2="181.209" transform="translate(17832.229 11611.973)" fill="none" stroke="#000" stroke-linecap="round" stroke-linejoin="round" stroke-width="1"/>
      <path id="Path_63647" data-name="Path 63647" d="M2700.341,3802.438h32.137s11.56,19.19,20.577,18.958,18.727-7.167,15.26-53.639c0,0-2.543-27.281-26.126-21.5,0,0,1.387-3.005-1.849-2.312,0,0-.463-3.236-5.087-.462,0,0-9.71,11.1-12.254,12.947a15.109,15.109,0,0,1-2.543-6.705l-.231-3.468s-3.93,0-2.775,3.237v.462s-16.415,2.775-20.577,12.717-3.237,22.657-12.254,31.212-16.878,12.716-26.356,11.329c0,0-1.387-.462-1.387,1.156v12.253l1.618.462S2680,3823.94,2700.341,3802.438Z" transform="translate(15220.669 7809.766)" fill="#fff"/>
      <path id="Path_63648" data-name="Path 63648" d="M2877.084,3927.079l-26.852.462,1.352-9.463,24.265-.814.773,3.573-.925.925" transform="translate(15072.016 7675.298)"/>
      <path id="Path_63649" data-name="Path 63649" d="M2603.924,4030.913s-13.691-.084-15.259-1.336,1.045-2.254,1.045-2.254-3.24-1.919-.209-2.837c0,0-3.449-1.837,0-3.005,0,0-3.262-2.564,1.348-2.534s13.075.448,13.075.448Z" transform="translate(15273.646 7597.125)" fill="#fff" stroke="#000" stroke-linecap="round" stroke-linejoin="round" stroke-width="1"/>
      <g id="Group_17551" data-name="Group 17551" transform="translate(17861.977 11600.876)">
        <path id="Path_63650" data-name="Path 63650" d="M2594.693,3981.343l-4.751-23.812-.167-.836s-.946-3.081,1.041-3.443,2.364,2.628,2.364,2.628l4.824,25.464-.663,5.166-2.554-4.531Z" transform="translate(-2589.55 -3953.22)" fill="#fff" stroke="#000" stroke-width="1"/>
        <path id="Path_63651" data-name="Path 63651" d="M2616.381,4071.4s-2.775-2.774-3.006.924" transform="translate(-2607.867 -4043.307)" fill="none" stroke="#000" stroke-linecap="round" stroke-linejoin="round" stroke-width="1"/>
        <line id="Line_5041" data-name="Line 5041" y1="0.231" x2="3.468" transform="translate(0.306 3.236)" fill="none" stroke="#000" stroke-width="1"/>
      </g>
      <path id="Path_63652" data-name="Path 63652" d="M2970.075,3867.177c-2.057-6.566-4.958-15.3-5.726-14.931-1.224.589.578,6.877.578,6.877s-1.559-5.673-2.79-5.189.792,6.97.792,6.97-.965-4.344-2.1-4.074-.232,5.455-.232,5.455c-.508-3.635-1.222-3.284-1.222-3.284-.776-.036-.526,4.679.845,11.926Z" transform="translate(14988.444 7725.293)" fill="#fff" stroke="#000" stroke-width="1"/>
      <path id="Path_63656" data-name="Path 63656" d="M2935.9,3657.874s.172-1.748,1.785-1.589a1.944,1.944,0,0,1,1.723,1.8S2936.918,3658.518,2935.9,3657.874Z" transform="translate(15006.159 7875.947)"/>
      <path id="Path_63657" data-name="Path 63657" d="M2881.832,3652.523s3.7-.315,3.294,1-2.107,2.1-3.841,1.794-1.95-.87-1.911-1.273S2880.313,3652.781,2881.832,3652.523Z" transform="translate(15049.615 7878.856)" fill="none" stroke="#000" stroke-linecap="round" stroke-linejoin="round" stroke-width="1"/>
      <path id="Path_63658" data-name="Path 63658" d="M2885.427,3659.477s-.012-1.437,1.345-1.439a1.637,1.637,0,0,1,1.629,1.239A4.254,4.254,0,0,1,2885.427,3659.477Z" transform="translate(15044.958 7874.591)"/>
      <path id="Path_63659" data-name="Path 63659" d="M2930.565,3630.907s-2.411.487-2.356,1.307,3.636.854,4.59.813,3.739-.492,3.8-1.164-1.281-1.031-2.357-1.137A11.516,11.516,0,0,0,2930.565,3630.907Z" transform="translate(15012.068 7895.642)"/>
      <path id="Path_63660" data-name="Path 63660" d="M2879.42,3634.853a4.464,4.464,0,0,1,3.05-1.015c.9.034,1.934.187,1.8.722-.227.928-2.417,1.12-3.815,1.525s-2.564,1.241-1.882-.185A3.226,3.226,0,0,1,2879.42,3634.853Z" transform="translate(15050.379 7893.198)"/>
      <path id="Path_63661" data-name="Path 63661" d="M2937,3650.783a10,10,0,0,0-1.48-.389c-1.32-.236-3.665-.489-4.522.475-1.221,1.373.287,2.607,1.9,2.766,1.306.128,3.534-.1,4.578-1.171.536-.552.418-1.324-.469-1.678Z" transform="translate(15010.267 7880.634)" fill="none" stroke="#000" stroke-linecap="round" stroke-linejoin="round" stroke-width="1"/>
      <path id="Path_63662" data-name="Path 63662" d="M2902.932,3656.5a32.287,32.287,0,0,1-1.149,3.972c-.732,1.986-1.985,5.435-1.045,5.644s1.777-2.3,2.717-3.031" transform="translate(15033.446 7875.771)" fill="none" stroke="#000" stroke-linecap="round" stroke-linejoin="round" stroke-width="1"/>
      <path id="Path_63663" data-name="Path 63663" d="M2903.822,3706.033s.588,2.679,1.97,2.494,2.608-2.064,2.608-2.064" transform="translate(15030.816 7837.692)" fill="none" stroke="#000" stroke-linecap="round" stroke-linejoin="round" stroke-width="1"/>
      <path id="Path_63664" data-name="Path 63664" d="M2994.724,3700.635c-.1-5.24-.349-13.917-.349-13.917" transform="translate(14961.2 7852.542)" fill="none" stroke="#000" stroke-linecap="round" stroke-linejoin="round" stroke-width="1"/>
      <path id="Path_63665" data-name="Path 63665" d="M2915.687,3662.306c.835,2.508,2.613,11.915,2.613,11.915,7.421,44.836-10.765,8.674-11.6,6.9s-1.985-1.254-1.985-1.254-9.3,3.762-10.243,4.076,0,2.3,0,2.3c6.062,22.366,25.711,42.642,35.64,26.442,9.646-15.738,12.584-79.414-20.986-69.139,0,0,.814-2.663-.23-2.558s-1.986.209-1.986.209.941-2.509-2.613-1.463l-2.09.818s-8.361,10.156-12.333,13.083c0,0-2.687-4.543-2.582-7.33h0a45.847,45.847,0,0,0-.523-6.014c-1.573.1-1.807.174-4.63.174-8.884,0-8.152-12.959-8.048-19.544a37.439,37.439,0,0,1,2.508-12.333" transform="translate(15053.72 7912.61)" fill="none" stroke="#000" stroke-linecap="round" stroke-linejoin="round" stroke-width="1"/>
      <path id="Path_63666" data-name="Path 63666" d="M2719.994,3758.8c-4.235.448-2.476,3.7-2.476,3.7a39.688,39.688,0,0,0-16.156,7.032c-6.062,4.808-7.525,15.782-7.525,15.782-4.7,36.371-34.249,32.323-35.608,32.427s-1.254,1.15-1.254,1.15v12.019s0,.627,1.045.731c.869.087,25.47,4.5,42.4-17.32" transform="translate(15220.595 7797.125)" fill="none" stroke="#000" stroke-linecap="round" stroke-linejoin="round" stroke-width="1"/>
      <path id="Path_63667" data-name="Path 63667" d="M2965.446,3755.5s-10.87,9.72-12.96,10.87c0,0,10.033-4.6,15.05-9.093" transform="translate(14993.403 7799.661)" fill="none" stroke="#000" stroke-linecap="round" stroke-linejoin="round" stroke-width="1"/>
      <path id="Path_63668" data-name="Path 63668" d="M2918.875,3775.218a34.586,34.586,0,0,0,3.7,6.311" transform="translate(15019.244 7784.503)" fill="none" stroke="#000" stroke-linecap="round" stroke-linejoin="round" stroke-width="1"/>
      <line id="Line_5042" data-name="Line 5042" x2="32.137" transform="translate(17921.01 11612.203)" fill="none" stroke="#000" stroke-linecap="round" stroke-linejoin="round" stroke-width="1"/>
      <line id="Line_5043" data-name="Line 5043" x1="4.162" y2="29.131" transform="translate(17921.01 11582.379)" fill="none" stroke="#000" stroke-linecap="round" stroke-linejoin="round" stroke-width="1"/>
      <path id="Path_63669" data-name="Path 63669" d="M2596.765,4020.35c.691,2.248-7,1.252-7,1.252s3.3.072,4.389,1.586c1.373,1.91-4.389,1.419-4.389,1.419s4.912-.083,4.6,1.419-4.6,1.419-4.6,1.419,5.017-.334,4.494,1.419-5.33.834-5.33.834a1.165,1.165,0,0,1,.467-1.971l0-.692s-1.843-1.539-.01-2.294c0,0-2.441-2.265.042-3.013l-.117-.546s-2-2.1.88-2.078,4.265.026,4.265.026S2596.394,4019.144,2596.765,4020.35Z" transform="translate(15273.384 7597.004)" fill="#fff" stroke="#000" stroke-linecap="round" stroke-linejoin="round" stroke-width="1"/>
      <path id="Path_63670" data-name="Path 63670" d="M2876.1,3559.917l-6.754-1.659c-3.762-4.383-12.75-3.979-13.691-.738s4.808,3.449,3.971.1-11.392-6.794-14.214,0,6.584,7.524,7.839,6.27-4.076-5.225-5.853.523,5.575,5.694,5.575,5.694,8.639-2.664,20.344.577c0,0-.941,8.779,7.944,8.779a3.342,3.342,0,0,1,.911.168,3.029,3.029,0,0,1,1.877,1.616,2.147,2.147,0,0,1,.2,1.038,1.971,1.971,0,0,1-1.951,2.007,10.545,10.545,0,0,1-2.916-.021,56.309,56.309,0,0,1,.231,5.644,1.408,1.408,0,0,0,.709-.836s.806-1.617,1.887-4.333c.16-.4.751-.534,1.172-.744a1.49,1.49,0,0,0,.694-.925,3.1,3.1,0,0,0,0-1.85,1.726,1.726,0,0,1-.1-1.314c1.9-5.2,3.826-11.311,3.773-14.663-.1-6.584-11.641-5.337-11.641-5.337Z" transform="translate(15076.127 7954.792)" fill="#fc0" stroke="#000" stroke-width="1"/>
      <path id="Path_63674" data-name="Path 63674" d="M2995.381,3674.651a5.214,5.214,0,0,0-3.006.7" transform="translate(14962.738 7861.83)" fill="none" stroke="#000" stroke-linecap="round" stroke-linejoin="round" stroke-width="1"/>
      <path id="Path_63675" data-name="Path 63675" d="M3011.1,3915.561l13.376-.578.911,9.649h-9.433Z" transform="translate(14948.341 7677.052)"/>
      <path id="Path_63696" data-name="Path 63696" d="M2945.51,3570.981s8.962.978,8.073,15.871l-.313,3.031h2.926s4.965-21.478-12.75-21.53Z" transform="translate(15000.354 7943.54)"/>
      <path id="Path_63697" data-name="Path 63697" d="M2799.284,3687.354a18.713,18.713,0,0,1,11.358,7.588,35.232,35.232,0,0,1,5.47,12.777c1.514,6.325,1.842,13.63-2.259,18.678-2.165,2.666-5.31,4.348-8.51,5.6-6.357,2.479-13.17,3.494-19.859,4.844s-13.449,3.112-19.152,6.858-10.253,5.423-10.61,12.238a9.821,9.821,0,0,0,1.25,5.789c1.579,2.49,4.554,3.7,6.577,5.848,3.573,3.788,3.464,10.114.61,14.47s-8.01,6.4-13,7.879c-4.878,1.442-7.884,3.523-15.282,5.373" transform="translate(15159.934 7852.052)" fill="none" stroke="#000" stroke-width="1"/>
      <path id="Path_63698" data-name="Path 63698" d="M2980.145,3650.489c0,3.783-3.532,6.4-7.315,6.4s-5.652-2.975-5.652-6.758a6.164,6.164,0,0,1,6.354-6.515A6.669,6.669,0,0,1,2980.145,3650.489Z" transform="translate(14982.108 7885.676)"/>
      <path id="Path_63699" data-name="Path 63699" d="M2719.417,4152.353l2.55-.908a.519.519,0,0,1,.665.313l.326.905a.517.517,0,0,1-.317.663l-2.548.891a.521.521,0,0,1-.661-.31l-.327-.887A.517.517,0,0,1,2719.417,4152.353Z" transform="translate(15172.853 7495.284)" fill="#fff" stroke="#000" stroke-width="1"/>
      <path id="Path_63700" data-name="Path 63700" d="M2984.381,3655.718a3.912,3.912,0,0,0-3.006,3.7,3.424,3.424,0,0,0,3.237,3.7" transform="translate(14971.193 7876.375)" stroke="#fff" stroke-linecap="round" stroke-linejoin="round" stroke-width="1"/>
      <path id="Path_63701" data-name="Path 63701" d="M2544.667,4100.019c.816,1.493,10.236,25.16,10.581,26.383s-1.179,1.707-1.179,1.707c-2.264,1.406-41.575,12.989-42.9,13.346s-2.6.286-3.231-.7-8.381-21.684-8.748-24.062.915-3.15.915-3.15c7.958-6.028,42.038-14.513,42.038-14.513A1.964,1.964,0,0,1,2544.667,4100.019Z" transform="translate(15341.949 7535.665)"/>
      <path id="Path_63702" data-name="Path 63702" d="M2548.253,4114.125c.693,1.313,8.717,22.114,9.013,23.189s-.986,1.493-.986,1.493c-1.9,1.225-34.951,11.232-36.067,11.539s-2.186.241-2.723-.622-7.142-19.059-7.46-21.146.758-2.76.758-2.76c6.676-5.259,35.335-12.567,35.335-12.567A1.629,1.629,0,0,1,2548.253,4114.125Z" transform="translate(15333.608 7524.719)" fill="none" stroke="#fff" stroke-linecap="round" stroke-linejoin="round" stroke-width="1"/>
      <circle id="Ellipse_3322" data-name="Ellipse 3322" cx="1.202" cy="1.202" r="1.202" transform="translate(17888.094 11648.703)" fill="none" stroke="#fff" stroke-linecap="round" stroke-linejoin="round" stroke-width="1"/>
      <g id="Group_17556" data-name="Group 17556" transform="translate(17903.248 11636.58)">
        <path id="Path_63703" data-name="Path 63703" d="M2879.706,4180.4a36.874,36.874,0,0,1,20.485,6.167c7.654,5.21,12.124,4.6,12.124,4.6s11.81-11.914,14.11-14.945,9.824-10.869,10.87-12.96c0,0-10.243-3.344-14.215-5.121s-12.124-4.389-13.586-3.554c0,0-5.888,5.644-10.556,9.512C2895.279,4167.124,2881.692,4178.83,2879.706,4180.4Z" transform="translate(-2853.891 -4143.608)" fill="#fff" stroke="#000" stroke-linecap="round" stroke-linejoin="round" stroke-width="1"/>
        <path id="Path_63704" data-name="Path 63704" d="M2796.373,4115.789s-7.421,6.271-9.093,7.734-17.349,15.259-19.231,16.827c0,0,11.288,4.285,14.214,5.226s8.57,1.253,11.6,5.121c0,0,27.906-23.1,29.787-26.024,0,0-3.867-4.389-14-5.539S2796.373,4115.789,2796.373,4115.789Z" transform="translate(-2768.049 -4113.907)" fill="#fff" stroke="#000" stroke-linecap="round" stroke-linejoin="round" stroke-width="1"/>
        <path id="Path_63705" data-name="Path 63705" d="M2879.706,4176.329a36.868,36.868,0,0,1,20.485,6.166c7.654,5.211,12.124,4.6,12.124,4.6s11.81-11.914,14.11-14.945,9.824-10.87,10.87-12.96c0,0-10.243-3.345-14.215-5.121s-12.124-4.39-13.586-3.553c0,0-5.888,5.643-10.556,9.51C2895.279,4163.056,2881.692,4174.762,2879.706,4176.329Z" transform="translate(-2853.891 -4140.481)" fill="#fff" stroke="#000" stroke-linecap="round" stroke-linejoin="round" stroke-width="1"/>
        <path id="Path_63706" data-name="Path 63706" d="M2796.373,4111.72s-7.421,6.27-9.093,7.734-17.349,15.259-19.231,16.826c0,0,11.288,4.286,14.214,5.227s8.57,1.253,11.6,5.121c0,0,27.906-23.1,29.787-26.025,0,0-3.867-4.39-14-5.539S2796.373,4111.72,2796.373,4111.72Z" transform="translate(-2768.049 -4110.779)" fill="#fff" stroke="#000" stroke-linecap="round" stroke-linejoin="round" stroke-width="1"/>
        <path id="Path_63707" data-name="Path 63707" d="M2879.706,4172.26a36.869,36.869,0,0,1,20.485,6.167c7.654,5.211,12.124,4.6,12.124,4.6s11.81-11.915,14.11-14.945,9.824-10.87,10.87-12.959c0,0-10.243-3.345-14.215-5.122s-12.124-4.39-13.586-3.553c0,0-5.888,5.643-10.556,9.511C2895.279,4158.987,2881.692,4170.693,2879.706,4172.26Z" transform="translate(-2853.891 -4137.352)" fill="#fff" stroke="#000" stroke-linecap="round" stroke-linejoin="round" stroke-width="1"/>
        <path id="Path_63708" data-name="Path 63708" d="M2796.373,4107.651s-7.421,6.271-9.093,7.735-17.349,15.259-19.231,16.826c0,0,11.288,4.285,14.214,5.226s8.57,1.254,11.6,5.121c0,0,27.906-23.1,29.787-26.024,0,0-3.867-4.39-14-5.539S2796.373,4107.651,2796.373,4107.651Z" transform="translate(-2768.049 -4107.651)" fill="#fff" stroke="#000" stroke-linecap="round" stroke-linejoin="round" stroke-width="1"/>
        <path id="Path_63709" data-name="Path 63709" d="M2923.329,4239.176s1.15-1.149,2.09-.836c.847.282,1.045,1.464.628,1.464s.627-1.568,2.3-.836.209,1.986.209,1.463,1.673-.941,2.718-.313,1.045,1.881.418,1.567,1.463-1.15,2.613-.1.313,1.463.1,1.253,1.463-1.253,2.822,0-.1,1.777-.1,1.359,2.4-.94,3.031.209.1,1.359-.1,1.045,1.568-1.149,2.822-.1-.1,1.881-.523,1.568,1.881-.941,3.657.418" transform="translate(-2887.428 -4208.083)" fill="none" stroke="#000" stroke-width="1"/>
        <path id="Path_63710" data-name="Path 63710" d="M2944.123,4223.6s1.986.627,1.254,1.672-1.254-1.777,1.881-.835c0,0,1.463.626.627,1.358s-.1-1.987,2.3-.209-.209,1.672,0,1.254,2.4-1.881,2.717.209-1.254-1.882,2.09,0,.418,2.717.523,2.195a2.461,2.461,0,0,1,3.867.1c1.358,1.881-.627,1.672-.627,1.358s2.613-1.986,3.24.209" transform="translate(-2903.415 -4196.794)" fill="none" stroke="#000" stroke-width="1"/>
      </g>
    </g>
  </g>
</svg>
