<svg xmlns="http://www.w3.org/2000/svg" width="20.002" height="20.127" viewBox="0 0 20.002 20.127"><defs><style>.a,.b{fill:none;stroke:#000;}.a{stroke-miterlimit:10;}</style></defs><g transform="translate(0.5 0.5)"><g transform="translate(1.869 8.411)"><path class="a" d="M992.911,988.73v-1.871a2.492,2.492,0,0,0-2.492-2.492h-3.738a2.492,2.492,0,0,0-2.492,2.492v1.871" transform="translate(-984.189 -977.514)"/><ellipse class="a" cx="2.492" cy="2.492" rx="2.492" ry="2.492" transform="translate(1.558)"/></g><path class="a" d="M991.156,970.893h3.115v2.8l3.738-2.8h.936a1.246,1.246,0,0,0,1.246-1.246v-9.034a1.246,1.246,0,0,0-1.246-1.246h-16.51a1.246,1.246,0,0,0-1.246,1.246v9.034a1.246,1.246,0,0,0,1.246,1.246h.623" transform="translate(-981.189 -959.367)"/><line class="a" x2="14.14" transform="translate(2.37 2.77)"/><line class="a" x2="14.14" transform="translate(2.37 5.262)"/><path class="b" d="M1.5,0H8.2" transform="translate(8.311 7.754)"/></g></svg>