<?xml version="1.0" encoding="utf-8"?>
<!-- Generator: Adobe Illustrator 17.0.0, SVG Export Plug-In . SVG Version: 6.00 Build 0)  -->
<!DOCTYPE svg PUBLIC "-//W3C//DTD SVG 1.1//EN" "http://www.w3.org/Graphics/SVG/1.1/DTD/svg11.dtd">
<svg version="1.1" id="Layer_1" xmlns="http://www.w3.org/2000/svg" xmlns:xlink="http://www.w3.org/1999/xlink" x="0px" y="0px"
	 width="1078.39px" height="1078.39px" viewBox="0 0 1078.39 1078.39" enable-background="new 0 0 1078.39 1078.39"
	 xml:space="preserve">
<g>
	<defs>
		<rect id="SVGID_1_" y="-0.002" width="1078.392" height="1078.392"/>
	</defs>
	<clipPath id="SVGID_2_">
		<use xlink:href="#SVGID_1_"  overflow="visible"/>
	</clipPath>
	<path clip-path="url(#SVGID_2_)" d="M284.53,336.21c0,0,3.623-17.369,27.679-25.992c11.241-4.03,27.59-5.306,38.202-2.123
		c6.532,1.96,9.481,10.942,8.934,20.24c0,0,22.314-21.001,42.002-21.001c19.688,0,30.188,21.001,28.876,39.376
		c0,0,22.313-11.813,36.751-10.5c14.438,1.312,48.564,18.376,48.564,48.564c0,30.189-75.989,31.561-115.504,29.826
		c-33.017-1.449-124.692-3.575-162.756-2.262c-38.064,1.312-96.472-0.657-88.597-28.22c0,0,3.938-13.126,21.001-7.875
		c0,0,0-27.564,22.313-26.251l19.689,3.937c0,0-11.813-42.001,28.876-47.251C240.56,306.678,269.436,302.74,284.53,336.21"/>
	
		<path clip-path="url(#SVGID_2_)" fill="none" stroke="#000000" stroke-width="4" stroke-linecap="round" stroke-linejoin="round" stroke-miterlimit="10" d="
		M662.275,190.799c0,0,1.622,15.328,1.159,25.988c0,0,17.612-1.523,15.626,9.071s-14.964,10.793-14.964,10.793
		s2.748,6.985,2.517,12.315c0,0-18.242-1.556-22.678-4.8c0,0-1.324,12.911,16.851,15.99c0,0,1.656,14.566-14.335,13.871l1.222,9.899
		l-24.538,35.296l-13.215-39.644c0,0-7.771,3.969-29.749-6.807l2.982-36.346"/>
	
		<path clip-path="url(#SVGID_2_)" fill="none" stroke="#000000" stroke-width="4" stroke-linecap="round" stroke-linejoin="round" stroke-miterlimit="10" d="
		M654.787,220.852c-0.626,3.094-3.976,5.028-7.483,4.319c-3.507-0.71-6.571-4.587-5.945-7.682c0.626-3.094,4.704-4.233,8.211-3.524
		S655.413,217.758,654.787,220.852z"/>
	<path clip-path="url(#SVGID_2_)" d="M637.036,205.691c0,0,16.904-7.624,19.655-4.878c2.75,2.746-2.957,3.807-6.338,4.233
		c-3.382,0.425-13.315,3.393-13.738,2.759C636.192,207.171,637.036,205.691,637.036,205.691"/>
	<path clip-path="url(#SVGID_2_)" d="M653.558,216.76c0,0-8.21,2.713-3.242,7.868C650.316,224.628,656.764,223.023,653.558,216.76"
		/>
	
		<path clip-path="url(#SVGID_2_)" fill="none" stroke="#000000" stroke-width="4" stroke-linecap="round" stroke-linejoin="round" stroke-miterlimit="10" d="
		M528.425,912.444c0,0-2.359,60.225-5.899,66.124c0,0,27.134-43.649,29.493-70.783l5.899,27.134c0,0,7.078,12.976,4.719-3.54
		c-2.36-16.516-6.114-34.175-6.114-34.175L528.425,912.444z"/>
	
		<path clip-path="url(#SVGID_2_)" fill="none" stroke="#000000" stroke-width="4" stroke-linecap="round" stroke-linejoin="round" stroke-miterlimit="10" d="
		M627.768,735.663c0,0-34.77,23.613-32.787,26.368c1.624,2.256,16.391-7.127,16.391-7.127s-37.938,44.392-21.685,63.409
		c0,0,3.811-26.136,55.719-60.733L627.768,735.663z"/>
	<path clip-path="url(#SVGID_2_)" d="M450.564,549.153c-4.708,58.439-24.184,211.758,64.884,370.429l68.423-36.571
		c0,0-70.782-141.565-34.211-327.959c0,0,149.505-19.94,145.104,57.805c-3.539,62.525-83.759,104.995-83.759,104.995l54.266,62.524
		c0,0,114.432-86.119,114.432-168.698c0-82.58-82.579-126.229-134.487-132.128v-17.696c0,0-129.768-43.649-184.035,5.899
		C461.181,467.753,449.384,524.379,450.564,549.153"/>
	
		<path clip-path="url(#SVGID_2_)" fill="none" stroke="#FFFFFF" stroke-width="4" stroke-linecap="round" stroke-linejoin="round" stroke-miterlimit="10" d="
		M554.968,527.328c0,0,157.768-13.515,163.98,67.244c6.488,84.349-71.963,122.69-82.58,130.947l40.246,45.709"/>
	
		<line clip-path="url(#SVGID_2_)" fill="none" stroke="#FFFFFF" stroke-width="4" stroke-linecap="round" stroke-linejoin="round" stroke-miterlimit="10" x1="502.814" y1="903.926" x2="574.532" y2="861.009"/>
	
		<ellipse clip-path="url(#SVGID_2_)" fill="none" stroke="#FFFFFF" stroke-width="4" stroke-linecap="round" stroke-linejoin="round" stroke-miterlimit="10" cx="553.788" cy="460.674" rx="6.489" ry="4.719"/>
	
		<path clip-path="url(#SVGID_2_)" fill="none" stroke="#000000" stroke-width="4" stroke-linecap="round" stroke-linejoin="round" stroke-miterlimit="10" d="
		M635.236,285.261c0,0,1.674-0.113,4.558-0.078c15.859,0.192,68.32,4.872,80.481,57.569c14.373,62.283,67.074,58.69,114.983-29.943
		c0,0,10.78-28.746,15.571-25.153c4.791,3.594-8.384,28.746-4.791,26.351c3.593-2.396,13.175-29.944,19.164-28.746
		c5.988,1.198-11.978,31.141-9.582,32.339c2.395,1.198,15.57-27.548,22.757-27.548c7.186,0-15.571,28.746-11.977,31.141
		c2.989,1.993,15.57-23.955,17.966-20.361c2.395,3.593-17.966,41.92-23.955,53.898c0,0-44.316,92.226-101.808,81.446
		c-94.251-17.672-88.633-75.457-88.633-75.457s-27.548,83.841-26.35,103.005c0,0-130.553-41.921-185.649,7.186
		c0,0,32.339-316.203,167.683-419.208c0,0,9.582-2.396,4.791,4.791c0,0,9.582-4.791,5.989,4.791c0,0,11.977-2.396,5.988,7.186
		c0,0,13.176-1.197,5.989,5.989c-7.186,7.186-17.966,4.791-25.152-2.395c-7.187-7.187,0-9.582,7.186-4.791l7.186,4.791"/>
	
		<path clip-path="url(#SVGID_2_)" fill="none" stroke="#000000" stroke-width="4" stroke-linecap="round" stroke-linejoin="round" stroke-miterlimit="10" d="
		M635.861,78.654c0,0-67.219,94.514-76.382,157.869c-1.943,13.433,4.392,26.712,16.077,33.617l9.375,5.539"/>
	<path clip-path="url(#SVGID_2_)" fill="#FFFFFF" d="M750.21,362.758l-67.244,55.446l-17.83-43.768c0,0-22.28,67.363-21.1,86.238
		c0,0-127.409-41.29-182.855,7.078c0,0,5.186-101.274,31.308-203.902c7.593-29.83,8.802-54.454,19.419-89.846l81.4,14.157
		c0,0-42.49,84.607-0.01,90.671l16.526,2.526l9.438,27.133c0,0,12.977-23.594,21.235-23.594c7.815,0,51.127,4.91,68.115,29.901
		c3.355,4.936,7.182,9.533,11.164,13.979L750.21,362.758z"/>
	
		<path clip-path="url(#SVGID_2_)" fill="none" stroke="#000000" stroke-width="4" stroke-linecap="round" stroke-linejoin="round" stroke-miterlimit="10" d="
		M750.21,362.758l-67.244,55.446l-17.83-43.768c0,0-22.28,67.363-21.1,86.238c0,0-127.409-41.29-182.855,7.078
		c0,0,5.186-101.274,31.308-203.902c7.593-29.83,8.802-54.454,19.419-89.846l81.4,14.157c0,0-42.49,84.607-0.01,90.671l16.526,2.526
		l9.438,27.133c0,0,12.977-23.594,21.235-23.594c7.815,0,51.127,4.91,68.115,29.901c3.355,4.936,7.182,9.533,11.164,13.979
		L750.21,362.758z"/>
	
		<path clip-path="url(#SVGID_2_)" fill="none" stroke="#000000" stroke-width="4" stroke-linecap="round" stroke-linejoin="round" stroke-miterlimit="10" d="
		M468.164,996.197c0,0,0-59.065-22.741-105.004c-22.74-45.939,10.107-36.751-39.164-112.879c0,0,12.107-169.866-94.015-201.367
		c0,0-28.544-5.588-37.901-40.689c-11.534-43.267-50.039-62.439-65.695-61.69c-19.954,0.955-49.903,33.47-49.903,110.911v63.002
		c0,0-8.843-13.126-26.53-10.5c-17.687,2.625-46.744,45.173-49.271,206.617l-9.447,151.665"/>
	<path clip-path="url(#SVGID_2_)" fill="#F9AE3B" d="M219.065,663.628c-2.364-6.746-8.224-20.634-7.259-25.648
		c1.263-6.562,7.58-9.188,10.107,1.313c2.527,10.5,3.79,18.376,5.053,18.376c1.264,0,3.79-1.313,3.79-6.563
		s-1.263-10.339-1.263-15.751c0-9.188,16.543-13.054,15.16,1.313c-1.263,13.125-12.633,22.313-6.316,26.251
		c3.425,2.135,13.897-14.438,17.687-5.25c3.79,9.187-25.268,19.688-29.058,17.063C226.966,674.732,222.534,673.525,219.065,663.628"
		/>
	
		<path clip-path="url(#SVGID_2_)" fill="none" stroke="#000000" stroke-width="4" stroke-linecap="round" stroke-linejoin="round" stroke-miterlimit="10" d="
		M369.621,773.064c0,0,19.582,7.219,20.845,28.22"/>
	
		<path clip-path="url(#SVGID_2_)" fill="none" stroke="#000000" stroke-width="4" stroke-linecap="round" stroke-linejoin="round" stroke-miterlimit="10" d="
		M405.627,832.785c0,0-7.58-11.813-15.16-13.125"/>
	
		<path clip-path="url(#SVGID_2_)" fill="none" stroke="#000000" stroke-width="4" stroke-linecap="round" stroke-linejoin="round" stroke-miterlimit="10" d="
		M405.627,852.473c0,0-1.263-3.938-3.79-5.25"/>
	
		<path clip-path="url(#SVGID_2_)" fill="none" stroke="#000000" stroke-width="4" stroke-linecap="round" stroke-linejoin="round" stroke-miterlimit="10" d="
		M160.008,668.169c0,0-6.317-19.688-24.004-17.063"/>
	
		<path clip-path="url(#SVGID_2_)" fill="none" stroke="#000000" stroke-width="4" stroke-linecap="round" stroke-linejoin="round" stroke-miterlimit="10" d="
		M123.371,670.029c0,0-6.317,10.5-6.317,18.376"/>
	<path clip-path="url(#SVGID_2_)" fill="#F9AE3B" d="M85.634,780.604c0,0-3.954-12.134-5.218-23.947
		c-1.263-11.813,1.264-34.126-8.843-32.813c-10.107,1.312-2.527,26.251-3.79,24.938c-1.264-1.313-6.317-23.626-10.107-30.189
		c-3.79-6.562-17.687-7.875-12.634,6.563c5.054,14.438,29.057,51.189,22.741,48.564c-6.317-2.625-13.897-26.251-25.268-22.313
		c0,0-3.79,7.875,6.317,14.438s26.022,27.848,26.276,40.175l7.445,9.661h1.102L85.634,780.604z"/>
	
		<path clip-path="url(#SVGID_2_)" fill="none" stroke="#000000" stroke-width="4" stroke-linecap="round" stroke-linejoin="round" stroke-miterlimit="10" d="
		M120.817,920.762c0,0-30.659-130.948,17.033-133.307c0,0,1.135-62.525,34.065-62.525c32.929,0,62.452,33.032,65.859,122.69
		c0,0,37.471,12.977,35.2,70.783"/>
	
		<path clip-path="url(#SVGID_2_)" fill="none" stroke="#000000" stroke-width="4" stroke-linecap="round" stroke-linejoin="round" stroke-miterlimit="10" d="
		M761.649,959.744c0,0-9.191-204.091,27.574-204.091c36.766,0,39.523,18.824,39.523,18.824s15.625-214.989,110.297-208.054
		c94.671,6.935,58.824,412.145,58.824,412.145"/>
	<path clip-path="url(#SVGID_2_)" fill="#F9AE3B" d="M895.724,742.971c0,0-31.295-14.021-23.117-43.888
		c8.178-29.867,48.424,0.306,39.446,11.314c-8.979,11.008-19.409-12.165,0.127-24.802c19.537-12.637,31.946,29.344,13.839,47.824
		C907.911,751.9,895.724,742.971,895.724,742.971"/>
	
		<path clip-path="url(#SVGID_2_)" fill="none" stroke="#FFFFFF" stroke-width="4" stroke-linecap="round" stroke-linejoin="round" stroke-miterlimit="10" d="
		M895.724,742.971c0,0-31.295-14.021-23.117-43.888c8.178-29.867,48.424,0.306,39.446,11.314
		c-8.979,11.008-19.409-12.165,0.127-24.802c19.537-12.637,31.946,29.344,13.839,47.824
		C907.911,751.9,895.724,742.971,895.724,742.971z"/>
	
		<path clip-path="url(#SVGID_2_)" fill="none" stroke="#000000" stroke-width="4" stroke-linecap="round" stroke-linejoin="round" stroke-miterlimit="10" d="
		M842.538,945.536c0,0-7.304-104.994,30.26-100.275c37.564,4.718,44.868,37.75,44.868,37.75s4.174-75.501,32.346-81.4"/>
	<path clip-path="url(#SVGID_2_)" d="M787.035,158.49c0,0,6.563-30.189,19.688-30.189c13.126,0,17.063,10.501,17.063,10.501
		s9.188-30.189,27.564-30.189c18.375,0,31.501,31.501,31.501,31.501s18.376-14.438,36.751,0c0,0,2.625-39.376,31.501-38.064
		c28.876,1.313,28.876,47.252,28.876,47.252s49.877-10.5,44.627,27.564c-5.25,38.064-65.627,35.438-80.065,35.438
		s-111.567-5.25-147.006,3.938c-21.711,5.629-60.377-1.312-55.127-21.001C747.659,175.553,772.597,158.49,787.035,158.49"/>
	<path clip-path="url(#SVGID_2_)" fill="#F9AE3B" d="M615.43,197.917c0,0,25.16,0.331,35.191-2.285
		c10.031-2.615,26.485-12.58,28.471-23.174c1.986-10.594-7.714-15.593-12.613-8.177c0,0-10.958-11.157-18.341,0.728
		c0,0-17.745-12.977-19.466,9.072c0,0-49.266-1.763-45.023,35.423l-0.727,28.452c0,0,7.017,2.337,9.831-9.747
		c2.814-12.084,13.308-7.813,13.044-1.722c-0.265,6.092-0.762,17.513,4.602,16.984c5.363-0.53,6.985-2.748,6.985-2.748
		S617.383,205.631,615.43,197.917"/>
	
		<path clip-path="url(#SVGID_2_)" fill="none" stroke="#F9AE3B" stroke-width="4" stroke-linecap="round" stroke-linejoin="round" stroke-miterlimit="10" d="
		M615.43,197.917c0,0,25.16,0.331,35.191-2.285c10.031-2.615,26.485-12.58,28.471-23.174c1.986-10.594-7.714-15.593-12.613-8.177
		c0,0-10.958-11.157-18.341,0.728c0,0-17.745-12.977-19.466,9.072c0,0-49.266-1.763-45.023,35.423l-0.727,28.452
		c0,0,7.017,2.337,9.831-9.747c2.814-12.084,13.308-7.813,13.044-1.722c-0.265,6.092-0.762,17.513,4.602,16.984
		c5.363-0.53,6.985-2.748,6.985-2.748S617.383,205.631,615.43,197.917z"/>
	
		<path clip-path="url(#SVGID_2_)" fill="none" stroke="#FFFFFF" stroke-width="4" stroke-linecap="round" stroke-linejoin="round" stroke-miterlimit="10" d="
		M647.407,172.319c0,0,6-5,12-1s14,0,14,0"/>
</g>
</svg>
