<svg xmlns="http://www.w3.org/2000/svg" xmlns:xlink="http://www.w3.org/1999/xlink" width="187.167" height="203.364" viewBox="0 0 187.167 203.364">
  <defs>
    <clipPath id="clip-path">
      <rect id="Rectangle_8861" data-name="Rectangle 8861" width="187.167" height="203.364" fill="#fff" stroke="#707070" stroke-width="1"/>
    </clipPath>
    <clipPath id="clip-path-2">
      <rect id="Rectangle_8850" data-name="Rectangle 8850" width="174.621" height="188.238" fill="none"/>
    </clipPath>
    <clipPath id="clip-path-3">
      <rect id="Rectangle_8851" data-name="Rectangle 8851" width="174.621" height="188.238" fill="none" stroke="#707070" stroke-width="1.5"/>
    </clipPath>
  </defs>
  <g id="Mask_Group_19025" data-name="Mask Group 19025" clip-path="url(#clip-path)">
    <g id="Group_19173" data-name="Group 19173" transform="translate(9.422 17.988)">
      <g id="Group_19166" data-name="Group 19166">
        <g id="Group_19165" data-name="Group 19165" clip-path="url(#clip-path-2)">
          <path id="Path_66498" data-name="Path 66498" d="M455.918,292.433s3.76,22.937,3.76,30.833" transform="translate(-362.278 -232.371)" fill="none" stroke="#000" stroke-linecap="round" stroke-linejoin="round" stroke-width="1.5"/>
          <path id="Path_66499" data-name="Path 66499" d="M71.213,376.859a17.617,17.617,0,0,1,.348,7.958S38.1,391.961,35.84,415.65c-1.571,16.5-1.228,28.776-6.275,30.149-4.395,1.2-7.515-44.55-7.515-44.55s-3.567-35.943-6.256-36.088-2.025,9.929-2.025,9.929-.44-8.408-2.962-8.388-1.529,8.414-1.529,8.414-.555-6.554-2.567-5.866-.592,10.6-.592,10.6.312-8.408-2.542-7.713c-1.776.432-1.058,9.9.022,16.988.79,5.182.474,10.409.6,15.649.535,22.346.449,83.445,33.145,71.416,0,0,21.412-4.757,22.185-46.25" transform="translate(-1.987 -290.161)" fill="none" stroke="#000" stroke-linecap="round" stroke-linejoin="round" stroke-width="1.5"/>
          <path id="Path_66500" data-name="Path 66500" d="M360,249.612a2.848,2.848,0,0,1,1.986-4.129l.066-.011c2.228-.354,6.626-1.433,6.979.8s-1.521,4.81-5.234,5.4A3.459,3.459,0,0,1,360,249.612Z" transform="translate(-285.797 -194.599)" fill="none" stroke="#000" stroke-linecap="round" stroke-linejoin="round" stroke-width="1.5"/>
          <path id="Path_66501" data-name="Path 66501" d="M262.2,273.072a6.12,6.12,0,0,0-1.649.022c-1.439.187-5.072.786-4.83,2.311.295,1.857,2.936,4.1,5.476,3.318a3.811,3.811,0,0,0,2.812-3.873A2.131,2.131,0,0,0,262.2,273.072Z" transform="translate(-203.191 -216.948)" fill="none" stroke="#000" stroke-linecap="round" stroke-linejoin="round" stroke-width="1.5"/>
          <path id="Path_66502" data-name="Path 66502" d="M276.884,281.769a1.128,1.128,0,1,1-1.291-.937,1.128,1.128,0,0,1,1.291.937" transform="translate(-218.233 -223.142)" stroke="#707070" stroke-width="1.5"/>
          <path id="Path_66503" data-name="Path 66503" d="M276.884,281.769a1.128,1.128,0,1,1-1.291-.937A1.128,1.128,0,0,1,276.884,281.769Z" transform="translate(-218.233 -223.142)" fill="none" stroke="#000" stroke-linecap="round" stroke-linejoin="round" stroke-width="1.5"/>
          <path id="Path_66504" data-name="Path 66504" d="M382.413,254.847a1.316,1.316,0,1,1-1.506-1.093,1.316,1.316,0,0,1,1.506,1.093" transform="translate(-301.791 -201.622)" stroke="#707070" stroke-width="1.5"/>
          <path id="Path_66505" data-name="Path 66505" d="M382.413,254.847a1.316,1.316,0,1,1-1.506-1.093A1.316,1.316,0,0,1,382.413,254.847Z" transform="translate(-301.791 -201.622)" fill="none" stroke="#000" stroke-linecap="round" stroke-linejoin="round" stroke-width="1.5"/>
          <path id="Path_66506" data-name="Path 66506" d="M403.2,237s-.534,1.6-1.605,1.962" transform="translate(-319.112 -188.321)" fill="none" stroke="#000" stroke-linecap="round" stroke-linejoin="round" stroke-width="1.5"/>
          <path id="Path_66507" data-name="Path 66507" d="M394.458,232.721s-.557,1.944-1.773,2.352" transform="translate(-312.032 -184.923)" fill="none" stroke="#000" stroke-linecap="round" stroke-linejoin="round" stroke-width="1.5"/>
          <path id="Path_66508" data-name="Path 66508" d="M384.768,232.923a3.239,3.239,0,0,1-.932,2.524" transform="translate(-305.001 -185.083)" fill="none" stroke="#000" stroke-linecap="round" stroke-linejoin="round" stroke-width="1.5"/>
          <path id="Path_66509" data-name="Path 66509" d="M253.184,268.346a7.738,7.738,0,0,0,1.856,1.861" transform="translate(-201.183 -213.231)" fill="none" stroke="#000" stroke-linecap="round" stroke-linejoin="round" stroke-width="1.5"/>
          <path id="Path_66510" data-name="Path 66510" d="M259.842,263.581a10.1,10.1,0,0,0,1.878,2.336" transform="translate(-206.474 -209.445)" fill="none" stroke="#000" stroke-linecap="round" stroke-linejoin="round" stroke-width="1.5"/>
          <path id="Path_66511" data-name="Path 66511" d="M270.69,261.859a6.545,6.545,0,0,0,1.527,2.423" transform="translate(-215.094 -208.076)" fill="none" stroke="#000" stroke-linecap="round" stroke-linejoin="round" stroke-width="1.5"/>
          <path id="Path_66512" data-name="Path 66512" d="M359.96,264.313a8.16,8.16,0,0,0,3.342,4.228" transform="translate(-286.029 -210.026)" fill="none" stroke="#000" stroke-linecap="round" stroke-linejoin="round" stroke-width="1.5"/>
          <path id="Path_66513" data-name="Path 66513" d="M291.674,281.919s.1,3.03-1.149,4.751" transform="translate(-230.855 -224.016)" fill="none" stroke="#000" stroke-linecap="round" stroke-linejoin="round" stroke-width="1.5"/>
          <path id="Path_66514" data-name="Path 66514" d="M315.958,267.625s-.486,11.5,2.14,11.082a3.531,3.531,0,0,0,2.988-2.759" transform="translate(-251.036 -212.658)" fill="none" stroke="#000" stroke-linecap="round" stroke-linejoin="round" stroke-width="1.5"/>
          <path id="Path_66515" data-name="Path 66515" d="M250.887,239.717s1.385-3.266,6.272-3.661" transform="translate(-199.358 -187.573)" fill="none" stroke="#000" stroke-linecap="round" stroke-linejoin="round" stroke-width="1.5"/>
          <path id="Path_66516" data-name="Path 66516" d="M355.71,206.387a6.292,6.292,0,0,1,9.149.07" transform="translate(-282.652 -162.432)" fill="none" stroke="#000" stroke-linecap="round" stroke-linejoin="round" stroke-width="1.5"/>
          <path id="Path_66517" data-name="Path 66517" d="M364.912,299.825s1.5-2.523,2.929-3.13" transform="translate(-289.964 -235.758)" fill="none" stroke="#000" stroke-linecap="round" stroke-linejoin="round" stroke-width="1.5"/>
          <path id="Path_66518" data-name="Path 66518" d="M384.61,298.333a5.615,5.615,0,0,1,1.874-2.582" transform="translate(-305.616 -235.007)" fill="none" stroke="#000" stroke-linecap="round" stroke-linejoin="round" stroke-width="1.5"/>
          <path id="Path_66519" data-name="Path 66519" d="M403.415,293.288a10.125,10.125,0,0,1,1.815-2.953" transform="translate(-320.559 -230.704)" fill="none" stroke="#000" stroke-linecap="round" stroke-linejoin="round" stroke-width="1.5"/>
          <path id="Path_66520" data-name="Path 66520" d="M296.577,319.392a7.767,7.767,0,0,1,2.049-2.41" transform="translate(-235.664 -251.878)" fill="none" stroke="#000" stroke-linecap="round" stroke-linejoin="round" stroke-width="1.5"/>
          <path id="Path_66521" data-name="Path 66521" d="M282.253,322.426a12.974,12.974,0,0,1,1.942-3.087" transform="translate(-224.282 -253.751)" fill="none" stroke="#000" stroke-linecap="round" stroke-linejoin="round" stroke-width="1.5"/>
          <path id="Path_66522" data-name="Path 66522" d="M269.443,322.092s.979-2.587,2.227-3.48" transform="translate(-214.103 -253.173)" fill="none" stroke="#000" stroke-linecap="round" stroke-linejoin="round" stroke-width="1.5"/>
          <path id="Path_66524" data-name="Path 66524" d="M236.226,232.017s4.512,46.626,28.953,37.978" transform="translate(-187.708 -184.364)" fill="none" stroke="#000" stroke-linecap="round" stroke-linejoin="round" stroke-width="1.5"/>
          <path id="Path_66525" data-name="Path 66525" d="M205.807,141.7l9.024-11.657s16.921,3.384,28.953,3.008c0,0,3.384,9.025,4.512,11.657,0,0,6.392-3.008,7.52,2.632s-5.264,6.768-5.264,6.768a61.827,61.827,0,0,1-4.136,26.7H257.7s6.392-6.392,6.392-29.329c0-10.263-6.372-36.716-33.841-32.714-56.779,8.272-21.433,68.059-21.433,68.059l15.793-3.384,2.632-.752-1.2-2.354s-6.051-.17-12.389-11.5-7.842-27.127-7.842-27.127" transform="translate(-157.29 -94.042)"/>
          <path id="Path_66526" data-name="Path 66526" d="M448.595,186.248a18.164,18.164,0,0,1,2.632,7.52" transform="translate(-356.459 -147.995)" fill="none" stroke="#fff" stroke-linecap="round" stroke-linejoin="round" stroke-width="1.5"/>
          <path id="Path_66527" data-name="Path 66527" d="M461.41,178.925s2.632,4.512,3.008,8.272" transform="translate(-366.642 -142.176)" fill="none" stroke="#fff" stroke-linecap="round" stroke-linejoin="round" stroke-width="1.5"/>
          <path id="Path_66528" data-name="Path 66528" d="M473.147,310.74a53.732,53.732,0,0,1-.752,9.024" transform="translate(-375.371 -246.918)" fill="none" stroke="#fff" stroke-linecap="round" stroke-linejoin="round" stroke-width="1.5"/>
          <path id="Path_66529" data-name="Path 66529" d="M486.339,314.4a75.937,75.937,0,0,1-1.128,9.776" transform="translate(-385.555 -249.828)" fill="none" stroke="#fff" stroke-linecap="round" stroke-linejoin="round" stroke-width="1.5"/>
          <path id="Path_66530" data-name="Path 66530" d="M232.564,286.94s1.5,7.144,1.88,8.272" transform="translate(-184.798 -228.006)" fill="none" stroke="#fff" stroke-linecap="round" stroke-linejoin="round" stroke-width="1.5"/>
          <path id="Path_66531" data-name="Path 66531" d="M219.749,297.925s1.88,6.768,2.632,8.272" transform="translate(-174.615 -236.735)" fill="none" stroke="#fff" stroke-linecap="round" stroke-linejoin="round" stroke-width="1.5"/>
          <path id="Path_66532" data-name="Path 66532" d="M355.226,155.125a61.828,61.828,0,0,0,8.272,1.128" transform="translate(-282.267 -123.264)" fill="none" stroke="#fff" stroke-linecap="round" stroke-linejoin="round" stroke-width="1.5"/>
          <path id="Path_66533" data-name="Path 66533" d="M375.364,147.8s5.64.752,6.768.752" transform="translate(-298.269 -117.445)" fill="none" stroke="#fff" stroke-linecap="round" stroke-linejoin="round" stroke-width="1.5"/>
          <path id="Path_66534" data-name="Path 66534" d="M183.288,539.192c-2.256-16.921-11.28-45.5-21.668-70.577-10.415-25.146-55.04-26.06-55.04-26.06-11.657,11.281-27.825,3.76-27.825,3.76s-33.841,6.768-35.543,27.449-1.683,32.337-6.2,33.09-6.633-34.569-6.633-34.569c-6.257-.728-18.823,1.48-18.823,1.48S10.4,538.439,35.367,539.192c0,0,18.947,4.136,28.735-25.945,0,0,1.869,2.256,1.493,7.9s-1.128,18.049-1.128,18.049h80.468l1.5-25.569s7.9,21.809,7.9,25.569" transform="translate(-9.18 -351.66)" fill="#fc0"/>
          <path id="Path_66535" data-name="Path 66535" d="M183.288,539.192c-2.256-16.921-11.28-45.5-21.668-70.577-10.415-25.146-55.04-26.06-55.04-26.06-11.657,11.281-27.825,3.76-27.825,3.76s-33.841,6.768-35.543,27.449-1.683,32.337-6.2,33.09-6.633-34.569-6.633-34.569c-6.257-.728-18.823,1.48-18.823,1.48S10.4,538.439,35.367,539.192c0,0,18.947,4.136,28.735-25.945,0,0,1.869,2.256,1.493,7.9s-1.128,18.049-1.128,18.049h80.468l1.5-25.569s7.9,21.809,7.9,25.569" transform="translate(-9.18 -351.66)" fill="none" stroke="#000" stroke-linecap="round" stroke-linejoin="round" stroke-width="1.5"/>
          <path id="Path_66536" data-name="Path 66536" d="M329.5,687.05l-1.681,25.257H247.355l1-18.061a18.788,18.788,0,0,0-2.554-10.338c-4.239-7.425-4.082-23.492-4.082-23.492" transform="translate(-192.069 -524.776)" fill="#fc0" stroke="#707070" stroke-width="1.5"/>
          <path id="Path_66537" data-name="Path 66537" d="M329.5,687.05l-1.681,25.257H247.355l1-18.061a18.788,18.788,0,0,0-2.554-10.338c-4.239-7.425-4.082-23.492-4.082-23.492" transform="translate(-192.069 -524.776)" fill="none" stroke="#000" stroke-linecap="round" stroke-linejoin="round" stroke-width="1.5"/>
          <path id="Path_66538" data-name="Path 66538" d="M638.549,712.5c-1.165-9.285-17.861-52.078-17.861-52.078" transform="translate(-493.206 -524.776)" fill="none" stroke="#000" stroke-linecap="round" stroke-linejoin="round" stroke-width="1.5"/>
          <path id="Path_66539" data-name="Path 66539" d="M333.845,471.684a.752.752,0,1,1-.752-.752.752.752,0,0,1,.752.752" transform="translate(-264.082 -374.208)" fill="#fff"/>
          <path id="Path_66540" data-name="Path 66540" d="M456.507,464.361a.752.752,0,1,1-.752-.752.752.752,0,0,1,.752.752" transform="translate(-361.551 -368.389)" fill="#fff"/>
          <path id="Path_66541" data-name="Path 66541" d="M436.368,475.346a.752.752,0,1,1-.752-.752.752.752,0,0,1,.752.752" transform="translate(-345.548 -377.118)" fill="#fff"/>
          <path id="Path_66542" data-name="Path 66542" d="M410.738,480.838a.752.752,0,1,1-.752-.752.752.752,0,0,1,.752.752" transform="translate(-325.182 -381.482)" fill="#fff"/>
          <path id="Path_66543" data-name="Path 66543" d="M385.107,480.838a.752.752,0,1,1-.752-.752.752.752,0,0,1,.752.752" transform="translate(-304.816 -381.482)" fill="#fff"/>
          <path id="Path_66544" data-name="Path 66544" d="M357.645,477.176a.752.752,0,1,1-.752-.752.752.752,0,0,1,.752.752" transform="translate(-282.994 -378.572)" fill="#fff"/>
          <path id="Path_66545" data-name="Path 66545" d="M474.815,451.546a.752.752,0,1,1-.752-.752.752.752,0,0,1,.752.752" transform="translate(-376.099 -358.206)" fill="#fff"/>
          <path id="Path_66546" data-name="Path 66546" d="M90.353,596.176a.752.752,0,1,1-.752-.752.752.752,0,0,1,.752.752" transform="translate(-70.601 -473.131)" fill="#fff"/>
          <path id="Path_66547" data-name="Path 66547" d="M66.553,598.007a.752.752,0,1,1-.752-.752.752.752,0,0,1,.752.752" transform="translate(-51.689 -474.586)" fill="#fff"/>
          <path id="Path_66548" data-name="Path 66548" d="M42.753,599.838a.752.752,0,1,1-.752-.752.752.752,0,0,1,.752.752" transform="translate(-32.777 -476.041)" fill="#fff"/>
          <path id="Path_66549" data-name="Path 66549" d="M20.784,601.669a.752.752,0,1,1-.752-.752.752.752,0,0,1,.752.752" transform="translate(-15.32 -477.496)" fill="#fff"/>
          <path id="Path_66577" data-name="Path 66577" d="M0,0" transform="matrix(0.951, -0.309, 0.309, 0.951, 69.657, 75.332)" fill="#ffac00"/>
          <path id="Path_66578" data-name="Path 66578" d="M6.351,0S5.081,2.54,2.54,2.54A2.488,2.488,0,0,1,0,0" transform="matrix(0.951, -0.309, 0.309, 0.951, 68.665, 73.647)" fill="none" stroke="#000" stroke-linecap="round" stroke-linejoin="round" stroke-width="1.5"/>
        </g>
      </g>
      <g id="Group_19168" data-name="Group 19168">
        <g id="Group_19167" data-name="Group 19167" clip-path="url(#clip-path-3)">
          <path id="Path_66550" data-name="Path 66550" d="M51.261,341.659l-11.848-2.095a4.019,4.019,0,0,1-3.248-4.644l5.221-29.53a4.019,4.019,0,0,1,4.644-3.248l11.848,2.095a4.019,4.019,0,0,1,3.248,4.644L55.9,338.411a4.019,4.019,0,0,1-4.644,3.248" transform="translate(-28.688 -240.037)" stroke="#707070" stroke-width="1.5"/>
          <path id="Path_66551" data-name="Path 66551" d="M51.261,341.659l-11.848-2.095a4.019,4.019,0,0,1-3.248-4.644l5.221-29.53a4.019,4.019,0,0,1,4.644-3.248l11.848,2.095a4.019,4.019,0,0,1,3.248,4.644L55.9,338.411A4.019,4.019,0,0,1,51.261,341.659Z" transform="translate(-28.688 -240.037)" fill="none" stroke="#000" stroke-linecap="round" stroke-linejoin="round" stroke-width="1.5"/>
        </g>
      </g>
      <g id="Group_19170" data-name="Group 19170">
        <g id="Group_19169" data-name="Group 19169" clip-path="url(#clip-path-3)">
          <path id="Path_66557" data-name="Path 66557" d="M109.313,328.628a7.726,7.726,0,0,0,2.62.636.308.308,0,0,0,0-.616,6.865,6.865,0,0,1-2.309-.551.318.318,0,0,0-.421.111.31.31,0,0,0,.11.421" transform="translate(-86.742 -260.681)" fill="#ffab00"/>
        </g>
      </g>
      <g id="Group_19172" data-name="Group 19172">
        <g id="Group_19171" data-name="Group 19171" clip-path="url(#clip-path-2)">
          <path id="Path_66572" data-name="Path 66572" d="M290.828,15.362S285.971,1.84,288.162,1.3s2.666,14.058,2.666,14.058" transform="translate(-228.526 -1.025)"/>
          <path id="Path_66573" data-name="Path 66573" d="M217.379,14.194s-3.264-3.847-5.075-6.5S207.051.462,208.877.015s6.066,8.968,6.878,10.7l1.624,3.474" transform="translate(-165.565 0)"/>
          <path id="Path_66574" data-name="Path 66574" d="M156.856,40.335s-6.17-6.232-8.622-8.342-9.36-6.613-7.713-7.79,10.538,8.26,12.714,10.825a33.228,33.228,0,0,1,3.621,5.308" transform="translate(-111.46 -19.151)"/>
          <path id="Path_66575" data-name="Path 66575" d="M128.99,99.629s-7-4.869-9.182-5.883-4.457-2.393-3.174-3.481,11.089,7.351,12.356,9.364" transform="translate(-92.384 -71.649)"/>
          <path id="Path_66576" data-name="Path 66576" d="M112.975,150.492s-5.264-2.256-6.768-2.632-4.888-1.128-4.136-2.256,9.776,3.384,10.9,4.888" transform="translate(-81.021 -115.556)"/>
        </g>
      </g>
    </g>
  </g>
</svg>
