<svg xmlns="http://www.w3.org/2000/svg" width="19.346" height="19" viewBox="0 0 19.346 19"><defs><style>.a,.c,.d,.f{fill:none;}.a,.c,.d{stroke:#000;}.a,.c{stroke-linecap:round;}.a{stroke-linejoin:round;}.b{fill:#fff;}.c{stroke-width:0.8px;}.e{stroke:none;}</style></defs><g transform="translate(-121.254 -366.5)"><g transform="translate(-838.746 -858.5)"><path class="a" d="M976.341,1241.621H961.22a.72.72,0,0,1-.72-.72V1226.22a.72.72,0,0,1,.72-.72h4.049a.721.721,0,0,1,.475.179l2.048,1.8a.723.723,0,0,0,.476.179h8.073a.72.72,0,0,1,.72.72V1240.9A.72.72,0,0,1,976.341,1241.621Z"/><line class="a" x2="15" transform="translate(961.281 1231.561)"/><rect class="b" width="8" height="8" rx="3" transform="translate(970.746 1235.5)"/><line class="c" y2="2.824" transform="translate(974.869 1238.094)"/><line class="c" y1="2.823" transform="translate(976.281 1239.506) rotate(90)"/></g><g class="d" transform="translate(131.6 376.5)"><circle class="e" cx="4.5" cy="4.5" r="4.5"/><circle class="f" cx="4.5" cy="4.5" r="4"/></g></g></svg>