<svg xmlns="http://www.w3.org/2000/svg" width="23.609" height="23.609" viewBox="0 0 23.609 23.609"><defs><style>.a,.b{fill:none;stroke:#000;stroke-miterlimit:10;}.a{stroke-width:1.4px;}.b{stroke-width:1.5px;}</style></defs><g transform="translate(-209.3 -799.181)"><g transform="translate(210 799.881)"><path class="a" d="M3324.352,1685.049h-2.507a1.111,1.111,0,0,1-.785-1.9l1.772-1.772a.554.554,0,0,0,0-.785l-2.355-2.356a.556.556,0,0,0-.786,0l-1.772,1.772a1.11,1.11,0,0,1-1.9-.785v-2.506a.555.555,0,0,0-.555-.555h-3.331a.555.555,0,0,0-.555.555v2.506a1.111,1.111,0,0,1-1.9.785l-1.772-1.772a.556.556,0,0,0-.785,0l-2.356,2.356a.555.555,0,0,0,0,.785l1.773,1.772a1.111,1.111,0,0,1-.786,1.9h-2.506a.555.555,0,0,0-.555.555v3.332a.555.555,0,0,0,.555.555h2.506a1.11,1.11,0,0,1,.786,1.9l-1.773,1.772a.555.555,0,0,0,0,.785l2.356,2.356a.556.556,0,0,0,.785,0l1.772-1.772a1.111,1.111,0,0,1,1.9.785v2.507a.555.555,0,0,0,.555.555h3.331a.556.556,0,0,0,.555-.555v-2.507a1.11,1.11,0,0,1,1.9-.785l1.772,1.772a.556.556,0,0,0,.786,0l2.355-2.356a.554.554,0,0,0,0-.785l-1.772-1.772a1.11,1.11,0,0,1,.785-1.9h2.507a.556.556,0,0,0,.555-.555V1685.6A.555.555,0,0,0,3324.352,1685.049Z" transform="translate(-3302.698 -1676.165)"/><circle class="b" cx="2.887" cy="2.887" r="2.887" transform="translate(8.218 8.218)"/></g></g></svg>