<svg xmlns="http://www.w3.org/2000/svg" xmlns:xlink="http://www.w3.org/1999/xlink" width="176.727" height="190.766" viewBox="0 0 176.727 190.766">
  <defs>
    <clipPath id="clip-path">
      <rect id="Rectangle_8862" data-name="Rectangle 8862" width="176.727" height="190.766" transform="translate(0 0)" fill="#fff" stroke="#707070" stroke-width="1"/>
    </clipPath>
    <clipPath id="clip-path-2">
      <rect id="Rectangle_8798" data-name="Rectangle 8798" width="237.226" height="221.186" fill="none"/>
    </clipPath>
    <clipPath id="clip-path-3">
      <rect id="Rectangle_9010" data-name="Rectangle 9010" width="69.164" height="88.599" fill="none" stroke="#707070" stroke-width="1.8"/>
    </clipPath>
  </defs>
  <g id="Mask_Group_19026" data-name="Mask Group 19026" clip-path="url(#clip-path)">
    <g id="Group_19181" data-name="Group 19181" transform="translate(3.013 -30.775)">
      <g id="Group_19064" data-name="Group 19064">
        <g id="Group_19063" data-name="Group 19063" clip-path="url(#clip-path-2)">
          <path id="Path_65996" data-name="Path 65996" d="M13.243,623.361l70.284-5.4,70.284-5.4,39.445-3.029c.465-.036.469-.765,0-.729l-70.284,5.4-70.284,5.4-39.445,3.029c-.465.036-.469.765,0,.729" transform="translate(-9.76 -460.883)"/>
          <path id="Path_65997" data-name="Path 65997" d="M58.959,444.906l4.1-51.6s-34.211,25.083-55.793-2.023c-23.594-29.635,39.727-68.675,39.727-68.675s19.325-13.932,24.959-19.665,7.106-7.408,8.95-6.578.2,3.147.2,3.147a3.356,3.356,0,0,1,4.161-.794c1.522.744.2,3.146.2,3.146,2-1.708,3.265,0,3.265,0,2.689,4.145-10.9,17.235-10.9,17.235s6.7,2.623,8.27,5.787,1.926,10.3-1.728,12.433-4.178-1.1-3.467-3.147,1.54-3.89.272-5.6a6.22,6.22,0,0,0-8.373-.831,5.307,5.307,0,0,0-1.3,7.561c1.268,1.709,3.366,1.574,6.275.965s3.857,1.016,3.349,2.944-4.4,3.653-8.746,3.2-7.713-2.031-9.573-4.755l-.94.213S51.635,346.219,37,357.946s2.414,23.9,18.588,8.776,41.761-16.833,41.761-16.833l.727-.047L152,357.8" transform="translate(-1.514 -224.206)" fill="none" stroke="#000" stroke-linecap="round" stroke-linejoin="round" stroke-width="2"/>
          <path id="Path_65998" data-name="Path 65998" d="M287.125,315.854s-6.057,7.34-11.573,13.276" transform="translate(-208.6 -239.109)" fill="none" stroke="#000" stroke-linecap="round" stroke-linejoin="round" stroke-width="1.5"/>
          <path id="Path_65999" data-name="Path 65999" d="M305.741,327s-6.684,9.065-10.558,12.685" transform="translate(-223.461 -247.544)" fill="none" stroke="#000" stroke-linecap="round" stroke-linejoin="round" stroke-width="1.5"/>
          <path id="Path_66000" data-name="Path 66000" d="M644.841,629.231l2.866-30.866s6.993,27.945,16.512,47.05l27.928-2.516c-26.181-95.865-73.8-93.016-73.8-93.016" transform="translate(-468.104 -416.274)" fill="none" stroke="#000" stroke-linecap="round" stroke-linejoin="round" stroke-width="2"/>
          <line id="Line_5364" data-name="Line 5364" x2="12.341" y2="16.926" transform="translate(45.859 98.491)" fill="none" stroke="#000" stroke-linecap="round" stroke-linejoin="round" stroke-width="1.5"/>
          <path id="Path_66001" data-name="Path 66001" d="M256.415,881.165a308.815,308.815,0,0,1,41.333-3.3c13.832-.325,27.67-.181,41.5-.478,7.739-.166,15.477-.471,23.2-1.07.465-.036.469-.765,0-.729-6.926.537-13.867.839-20.811,1.014-6.917.175-13.837.227-20.756.269-6.951.043-13.9.076-20.853.214-6.9.138-13.8.38-20.686.84s-13.741,1.14-20.561,2.144q-1.281.188-2.56.393c-.462.074-.266.776.194.7" transform="translate(-193.766 -662.839)"/>
          <path id="Path_66002" data-name="Path 66002" d="M247.615,834.9c14.772-.8,29.462-2.6,44.2-3.872,7.277-.627,14.568-1.123,21.871-1.295,7.386-.173,14.743.084,22.109.622,8.178.6,16.41,1.241,24.572.1.463-.064.266-.767-.194-.7-7.351,1.023-14.8.566-22.166.031-7.3-.53-14.57-.927-21.89-.829-14.63.195-29.191,1.77-43.738,3.2-8.241.808-16.489,1.569-24.759,2.015-.467.025-.469.754,0,.729" transform="translate(-187.185 -627.529)"/>
          <path id="Path_66003" data-name="Path 66003" d="M265.484,774.679q21.057-1.967,42.152-3.477,20.988-1.5,42-2.545,11.794-.586,23.595-1.029c.467-.018.47-.747,0-.729q-21.133.793-42.246,2.046-21,1.247-41.977,2.95-11.77.956-23.528,2.055c-.463.043-.468.773,0,.729" transform="translate(-200.714 -580.561)"/>
          <path id="Path_66004" data-name="Path 66004" d="M776.477,753.234l9.7-.832,9.7-.833,5.49-.471c.352-.03.355-.76,0-.729l-9.7.832-9.7.833-5.49.471c-.352.03-.355.759,0,.729" transform="translate(-592.99 -568.046)"/>
          <path id="Path_66005" data-name="Path 66005" d="M818.762,814.274l20.806-1.524,5.9-.432c.413-.03.416-.76,0-.729l-20.806,1.524-5.9.432c-.413.03-.416.759,0,.729" transform="translate(-632.086 -614.392)"/>
          <path id="Path_66006" data-name="Path 66006" d="M858.328,860.98l20.569-1.819,5.808-.513c.464-.041.468-.77,0-.729l-20.569,1.819-5.807.514c-.464.041-.468.77,0,.729" transform="translate(-667.165 -649.464)"/>
          <path id="Path_66007" data-name="Path 66007" d="M258.549,686.516l52.209-3.856,52.209-3.856,29.3-2.164c.443-.033.446-.762,0-.729l-52.209,3.856-52.209,3.856-29.3,2.164c-.443.033-.447.762,0,.729" transform="translate(-195.475 -511.68)"/>
          <path id="Path_66008" data-name="Path 66008" d="M216.367,584.3c14.717-1.339,29.438-2.676,44.193-3.534,14.734-.857,29.509-1.234,44.261-.648,8.005.318,16.1,1.123,24.042-.383.46-.087.266-.79-.194-.7-7.131,1.353-14.416.787-21.612.453-7.3-.338-14.605-.436-21.909-.35-14.7.174-29.373,1.089-44.019,2.269-8.258.665-16.51,1.415-24.761,2.166-.463.042-.468.772,0,.729" transform="translate(-163.531 -438.337)"/>
          <path id="Path_66009" data-name="Path 66009" d="M7.529,592.157l21.215-1.377,5.984-.388c.466-.03.469-.759,0-.729l-21.215,1.377-5.984.388c-.466.03-.469.759,0,.729" transform="translate(-5.434 -446.388)"/>
          <path id="Path_66010" data-name="Path 66010" d="M63.6,496.458l13.366-.868,13.305-.864,7.56-.491c.466-.03.469-.76,0-.729l-13.366.867-13.306.864-7.56.491c-.466.03-.469.759,0,.729" transform="translate(-47.885 -373.596)"/>
          <path id="Path_66011" data-name="Path 66011" d="M130.789,441.47l15.375-1,4.358-.283c.466-.03.469-.759,0-.729l-15.375,1-4.358.283c-.466.03-.469.759,0,.729" transform="translate(-98.745 -332.681)"/>
          <path id="Path_66015" data-name="Path 66015" d="M385.386,404.658a3.3,3.3,0,0,0,2.16,3.029.368.368,0,0,0,.448-.254.372.372,0,0,0-.255-.448,1.347,1.347,0,0,1-.146-.059q-.1-.045-.189-.1c-.056-.032-.111-.066-.164-.1l-.08-.055c-.011-.008-.069-.052-.034-.024a2.711,2.711,0,0,1-.314-.287,2.246,2.246,0,0,1-.224-.272,2.485,2.485,0,0,1-.474-1.43.365.365,0,0,0-.729,0" transform="translate(-291.746 -306.069)"/>
          <path id="Path_66035" data-name="Path 66035" d="M387.739,456.324a4.45,4.45,0,0,0,.9,3.6.367.367,0,0,0,.516,0,.374.374,0,0,0,0-.516,3.653,3.653,0,0,1-.71-2.886.375.375,0,0,0-.255-.448.368.368,0,0,0-.448.255" transform="translate(-293.47 -345.247)"/>
          <g id="Group_20181" data-name="Group 20181" transform="translate(91.032 48.365)">
            <g id="Group_20181-2" data-name="Group 20181" clip-path="url(#clip-path-3)">
              <path id="Path_69070" data-name="Path 69070" d="M22.81,82.141s-4.268,1-4.992-1.47c0,0-3.406,3.948-6.1-.226,0,0-4.264,5.139-5.7-.211s-8.4-48.388,2.454-66.321,48.6-14.092,57.6,7.02,1.811,61.182-3.991,63.82-5.651-1.432-5.651-1.432c-3.5,6.39-4.069-.15-4.069-.15C53.91,74.265,54.271,53.5,54.271,53.5c8.484,1.944,9.072-2.924,9.072-2.924,1.115-8.107-9.1-7.263-9.1-7.263-.317-13.457-7.9-28.813-7.9-28.813s-7.2,18.475-24.653,16.608c0,0,2.5-1.537,2.954-2.743,0,0-11.187,5.033-15.637,4.182,0,0-.991,24.538-.98,25.354S7.421,75.4,22.867,76.376Z" transform="translate(-1.83 -1.83)" fill="#fc0"/>
              <path id="Path_69071" data-name="Path 69071" d="M22.81,82.141s-4.268,1-4.992-1.47c0,0-3.406,3.948-6.1-.226,0,0-4.264,5.139-5.7-.211s-8.4-48.388,2.454-66.321,48.6-14.092,57.6,7.02,1.811,61.182-3.991,63.82-5.651-1.432-5.651-1.432c-3.5,6.39-4.069-.15-4.069-.15C53.91,74.265,54.271,53.5,54.271,53.5c8.484,1.944,9.072-2.924,9.072-2.924,1.115-8.107-9.1-7.263-9.1-7.263-.317-13.457-7.9-28.813-7.9-28.813s-7.2,18.475-24.653,16.608c0,0,2.5-1.537,2.954-2.743,0,0-11.187,5.033-15.637,4.182,0,0-.991,24.538-.98,25.354S7.421,75.4,22.867,76.376Z" transform="translate(-1.83 -1.83)" fill="none" stroke="#fc0" stroke-linecap="round" stroke-linejoin="round" stroke-width="1.8"/>
              <path id="Path_69072" data-name="Path 69072" d="M24.132,119.4l-.727,20.822s-2.425,21.5,14.679,21.73a92.643,92.643,0,0,1-.587,9.706s10.13,8.081,29.732.285L68.661,139.4" transform="translate(-17.047 -87.411)" fill="#fff" stroke="#707070" stroke-width="1.8"/>
              <path id="Path_69073" data-name="Path 69073" d="M24.132,119.4l-.727,20.822s-2.425,21.5,14.679,21.73a92.643,92.643,0,0,1-.587,9.706s10.13,8.081,29.732.285L68.661,139.4" transform="translate(-17.047 -87.411)" fill="none" stroke="#000" stroke-linecap="round" stroke-linejoin="round" stroke-width="1.8"/>
              <path id="Path_69074" data-name="Path 69074" d="M19.58,102.8s8.032-7.852,13.4,1.311" transform="translate(-14.334 -72.964)" fill="none" stroke="#000" stroke-linecap="round" stroke-linejoin="round" stroke-width="1.8"/>
              <path id="Path_69075" data-name="Path 69075" d="M79.013,177.493a3.507,3.507,0,0,0-2.155,3.18c-.121,3.255,5.29.2,5.29.2" transform="translate(-56.263 -129.935)" fill="none" stroke="#000" stroke-linecap="round" stroke-linejoin="round" stroke-width="1.8"/>
              <path id="Path_69076" data-name="Path 69076" d="M121.043,175.01s-1.7,1.974-1.371,4.024" transform="translate(-87.575 -128.117)" fill="none" stroke="#000" stroke-linecap="round" stroke-linejoin="round" stroke-width="1.8"/>
              <path id="Path_69077" data-name="Path 69077" d="M132.7,178.44s-1.3,1.989-.934,3.225" transform="translate(-96.41 -130.628)" fill="none" stroke="#000" stroke-linecap="round" stroke-linejoin="round" stroke-width="1.8"/>
              <path id="Path_69078" data-name="Path 69078" d="M144.376,178.833a6.13,6.13,0,0,0-.527,3.24" transform="translate(-105.242 -130.916)" fill="none" stroke="#000" stroke-linecap="round" stroke-linejoin="round" stroke-width="1.8"/>
              <path id="Path_69079" data-name="Path 69079" d="M35.624,171.807s-1.3,1.989-.934,3.225" transform="translate(-25.348 -125.772)" fill="none" stroke="#000" stroke-linecap="round" stroke-linejoin="round" stroke-width="1.8"/>
              <path id="Path_69080" data-name="Path 69080" d="M44.909,172.144a11.861,11.861,0,0,0-.934,3.225" transform="translate(-32.192 -126.019)" fill="none" stroke="#000" stroke-linecap="round" stroke-linejoin="round" stroke-width="1.8"/>
              <path id="Path_69081" data-name="Path 69081" d="M53.991,175.518a5.159,5.159,0,0,0-.9,2.411" transform="translate(-38.863 -128.489)" fill="none" stroke="#000" stroke-linecap="round" stroke-linejoin="round" stroke-width="1.8"/>
              <path id="Path_69082" data-name="Path 69082" d="M112.31,56.285s-1.356,3.617-3.436,4.762" transform="translate(-79.702 -41.204)" fill="none" stroke="#fff" stroke-linecap="round" stroke-linejoin="round" stroke-width="1.8"/>
              <path id="Path_69083" data-name="Path 69083" d="M82.193,46.556a24.86,24.86,0,0,1-8.469,8.65" transform="translate(-53.97 -34.082)" fill="none" stroke="#fff" stroke-linecap="round" stroke-linejoin="round" stroke-width="1.8"/>
              <path id="Path_69084" data-name="Path 69084" d="M65.513,51.506a20.276,20.276,0,0,1-3.376,3.135" transform="translate(-45.488 -37.705)" fill="none" stroke="#fff" stroke-linecap="round" stroke-linejoin="round" stroke-width="1.8"/>
              <path id="Path_69085" data-name="Path 69085" d="M202.572,89.689s2.637,5.8,2.532,8.65" transform="translate(-148.294 -65.657)" fill="none" stroke="#fff" stroke-linecap="round" stroke-linejoin="round" stroke-width="1.8"/>
              <path id="Path_69086" data-name="Path 69086" d="M116.58,103.8s8.032-7.852,13.4,1.311" transform="translate(-85.343 -73.696)" fill="none" stroke="#000" stroke-linecap="round" stroke-linejoin="round" stroke-width="1.8"/>
              <path id="Path_69087" data-name="Path 69087" d="M183.937,158.839s9.609,2.49,8.872-4.508c-.716-6.8-8.424-5.641-8.424-5.641l-4.1-2.242" transform="translate(-131.975 -107.207)" fill="none" stroke="#000" stroke-linecap="round" stroke-linejoin="round" stroke-width="1.8"/>
              <path id="Path_69088" data-name="Path 69088" d="M118.982,153.858a6.57,6.57,0,0,1,4.349-2.761,6.9,6.9,0,0,1,3.4.055,4.227,4.227,0,0,1,2.6,2.095c.137.28.287.621.595.67a.78.78,0,0,0,.521-.163,4.038,4.038,0,0,0,1.789-2.709" transform="translate(-87.101 -110.476)" fill="none" stroke="#000" stroke-linecap="round" stroke-linejoin="round" stroke-width="1.8"/>
              <path id="Path_69089" data-name="Path 69089" d="M154,148.231a3.189,3.189,0,0,0,2.033-2.253" transform="translate(-112.733 -106.864)" fill="none" stroke="#000" stroke-linecap="round" stroke-linejoin="round" stroke-width="1.8"/>
              <path id="Path_69090" data-name="Path 69090" d="M147.779,144.2a17.4,17.4,0,0,0,1.184-2.594" transform="translate(-108.182 -103.665)" fill="none" stroke="#000" stroke-linecap="round" stroke-linejoin="round" stroke-width="1.8"/>
              <path id="Path_69091" data-name="Path 69091" d="M28.025,132.6a3.637,3.637,0,0,0,2.382,3.34.406.406,0,0,0,.494-.281.41.41,0,0,0-.281-.494,1.494,1.494,0,0,1-.161-.065q-.107-.05-.208-.108c-.062-.035-.122-.072-.181-.111l-.088-.061c-.012-.009-.077-.057-.038-.027a2.982,2.982,0,0,1-.346-.317,2.474,2.474,0,0,1-.247-.3,2.741,2.741,0,0,1-.522-1.577.4.4,0,0,0-.8,0" transform="translate(-20.516 -96.786)"/>
              <path id="Path_69092" data-name="Path 69092" d="M36.27,128.855a2.829,2.829,0,0,0,1.933,2.883.405.405,0,0,0,.494-.281.411.411,0,0,0-.281-.494l-.1-.034c-.009,0-.1-.04-.051-.019s-.04-.019-.049-.023c-.032-.015-.063-.031-.094-.048-.051-.028-.1-.058-.151-.091l-.087-.06c-.061-.042.018.017-.017-.012a2.526,2.526,0,0,1-.271-.254c-.024-.026-.047-.053-.07-.08-.006-.007-.066-.082-.035-.042s-.027-.037-.032-.045c-.02-.029-.04-.058-.059-.088-.068-.105-.121-.216-.178-.326-.021-.041.019.052-.008-.018-.013-.033-.025-.066-.037-.1-.019-.056-.036-.112-.051-.169s-.031-.126-.042-.19c-.007-.037-.011-.074,0-.015,0-.035-.008-.07-.01-.106a2.24,2.24,0,0,1,.006-.389.4.4,0,0,0-.4-.4.413.413,0,0,0-.4.4" transform="translate(-26.542 -94.035)"/>
              <path id="Path_69093" data-name="Path 69093" d="M45.761,127.44a3.366,3.366,0,0,0,.1,1.511,1.625,1.625,0,0,0,.983,1.007.4.4,0,0,0,.494-.281.411.411,0,0,0-.281-.494c-.009,0-.054-.013-.058-.021,0,.009.067.034.013,0-.035-.02-.07-.04-.1-.062s-.013-.012.009.008c-.018-.017-.039-.033-.057-.05a1.148,1.148,0,0,1-.084-.089c-.007-.008-.046-.061-.017-.019s-.008-.014-.014-.022c-.023-.034-.045-.07-.065-.106q-.015-.027-.029-.055c0-.009-.036-.07-.012-.023s-.006-.014-.009-.024-.018-.049-.025-.074a1.765,1.765,0,0,1-.064-.283c.006.044,0,.017,0-.011s0-.053-.006-.079c0-.053-.005-.106-.006-.159a6.648,6.648,0,0,1,.038-.677.4.4,0,0,0-.4-.4.412.412,0,0,0-.4.4" transform="translate(-33.472 -92.999)"/>
              <path id="Path_69094" data-name="Path 69094" d="M44.475,141.336a3.687,3.687,0,0,1-3.7,3.583,4.212,4.212,0,0,1-3.82-3.7,2.632,2.632,0,0,1,.355-1.785,2.732,2.732,0,0,1,.873-.764S44.4,135.806,44.475,141.336Z" transform="translate(-27.034 -100.973)" fill="none" stroke="#000" stroke-linecap="round" stroke-linejoin="round" stroke-width="1.8"/>
              <path id="Path_69095" data-name="Path 69095" d="M48.362,148.738s-3-2.634-.213-3.287,3.969,1.444,3.061,2.774-2.847.513-2.847.513" transform="translate(-34.38 -106.388)"/>
              <path id="Path_69102" data-name="Path 69102" d="M114.379,124.933s-6.043-.281-6.306,5.384-.351,7.553-.351,7.553.87,5.718,6.535,5.981,12.428,1.335,13.174-6.579-1.344-11.8-8.142-12.111Z" transform="translate(-78.858 -91.456)" fill="none" stroke="#000" stroke-linecap="round" stroke-linejoin="round" stroke-width="1.8"/>
              <path id="Path_69103" data-name="Path 69103" d="M77.846,134.032a11.378,11.378,0,0,1,8.673.815" transform="translate(-56.988 -97.752)" fill="none" stroke="#000" stroke-linecap="round" stroke-linejoin="round" stroke-width="1.8"/>
              <path id="Path_69104" data-name="Path 69104" d="M27.484,126.067s-.114-5.683-4.269-5.876-7.913-.746-9.819-.456-3.9,2.468-4.04,5.489-.316,6.8-.369,7.931c0,0-.193,4.154,3.961,4.347l10.575.491s3.434-.6,3.7-6.262Z" transform="translate(-6.578 -87.592)" fill="none" stroke="#000" stroke-linecap="round" stroke-linejoin="round" stroke-width="1.8"/>
              <path id="Path_69105" data-name="Path 69105" d="M85.38,205.713s-3.934-2.7-5.83,1.184C79.55,206.9,83.1,207.741,85.38,205.713Z" transform="translate(-58.235 -149.926)" fill="#c93957" stroke="#c93957" stroke-linecap="round" stroke-linejoin="round" stroke-width="1.8"/>
              <path id="Path_69106" data-name="Path 69106" d="M91.342,235.844s1.719,5.8,4.806,3.716c0,0,1.122-.289-.036-5.207C96.112,234.352,95.009,238.559,91.342,235.844Z" transform="translate(-66.868 -171.558)" fill="#c93957" stroke="#c93957" stroke-linecap="round" stroke-linejoin="round" stroke-width="1.8"/>
              <path id="Path_69101" data-name="Path 69101" d="M80.062,212.135a25.2,25.2,0,0,0,2.309,5.1,5.563,5.563,0,0,0,1.892,2.12,2.225,2.225,0,0,0,2.657-.22,3.04,3.04,0,0,0,.6-2.089,16.174,16.174,0,0,0-1.3-6.518.944.944,0,0,0-.479-.58,1.022,1.022,0,0,0-.726.138,9.541,9.541,0,0,1-4.705.805l-.69.022Z" transform="translate(-58.509 -153.672)" fill="none" stroke="#000" stroke-linecap="round" stroke-linejoin="round" stroke-width="1.8"/>
            </g>
          </g>
        </g>
      </g>
    </g>
  </g>
</svg>
