<svg xmlns="http://www.w3.org/2000/svg" width="18.039" height="17.316" viewBox="0 0 18.039 17.316">
  <path id="Path_3400" data-name="Path 3400" d="M9.978,3.026a1.143,1.143,0,0,1,2.175,0L13.376,6.79a1.143,1.143,0,0,0,1.086.789H18.42a1.144,1.144,0,0,1,.672,2.069l-3.2,2.326a1.143,1.143,0,0,0-.416,1.278L16.7,17.016a1.144,1.144,0,0,1-1.761,1.278l-3.2-2.326a1.143,1.143,0,0,0-1.343,0L7.2,18.294a1.143,1.143,0,0,1-1.76-1.278l1.223-3.764a1.143,1.143,0,0,0-.416-1.278L3.039,9.65a1.144,1.144,0,0,1,.673-2.07H7.669a1.143,1.143,0,0,0,1.087-.789L9.98,3.027Z" transform="translate(-2.045 -1.735)" fill="#3fbca1" stroke="#3fbca1" stroke-width="1"/>
</svg>
