<?xml version="1.0" encoding="utf-8"?>
<!-- Generator: Adobe Illustrator 17.0.0, SVG Export Plug-In . SVG Version: 6.00 Build 0)  -->
<!DOCTYPE svg PUBLIC "-//W3C//DTD SVG 1.1//EN" "http://www.w3.org/Graphics/SVG/1.1/DTD/svg11.dtd">
<svg version="1.1" id="Layer_1" xmlns="http://www.w3.org/2000/svg" xmlns:xlink="http://www.w3.org/1999/xlink" x="0px" y="0px"
	 width="21.91px" height="21.78px" viewBox="0 0 21.91 21.78" enable-background="new 0 0 21.91 21.78" xml:space="preserve">
<path d="M17.209,20.463c-0.106,0-0.213-0.024-0.312-0.072l-5.798-2.844L5.301,20.39c-0.234,0.114-0.512,0.092-0.724-0.06
	c-0.212-0.152-0.323-0.408-0.29-0.667l0.82-6.34L0.454,8.67C0.267,8.483,0.2,8.207,0.28,7.955c0.08-0.252,0.294-0.439,0.554-0.484
	L7.8,6.265l2.664-5.384c0.118-0.239,0.36-0.391,0.626-0.394c0.003,0,0.006,0,0.009,0c0.263,0,0.504,0.146,0.627,0.379l2.837,5.402
	l6.521,1.206c0.257,0.048,0.467,0.233,0.546,0.482c0.079,0.249,0.015,0.522-0.168,0.709l-4.536,4.646l0.983,6.336
	c0.04,0.261-0.067,0.522-0.28,0.679C17.505,20.416,17.357,20.463,17.209,20.463z M2.42,8.634l3.934,3.934
	c0.155,0.155,0.23,0.374,0.202,0.591L5.86,18.539l4.927-2.417c0.197-0.096,0.428-0.096,0.624,0l4.89,2.399l-0.829-5.343
	c-0.034-0.22,0.037-0.444,0.193-0.603l3.857-3.949l-5.554-1.027c-0.214-0.04-0.397-0.175-0.498-0.367l-2.352-4.477L8.91,7.215
	c-0.1,0.202-0.291,0.345-0.514,0.384L2.42,8.634z"/>
</svg>
