<svg xmlns="http://www.w3.org/2000/svg" width="14.477" height="14.475" viewBox="0 0 14.477 14.475"><defs><style>.a{fill:none;stroke:#3fbca1;stroke-width:0.5px;}</style></defs><path class="a" d="M13.944,5.663a.409.409,0,0,0-.326-.275L9.283,4.729,7.353.584a.425.425,0,0,0-.741,0L4.682,4.729.347,5.388a.41.41,0,0,0-.231.691L3.272,9.29l-.74,4.567a.409.409,0,0,0,.6.425l3.848-2.13,3.848,2.13a.409.409,0,0,0,.6-.425l-.74-4.567,3.156-3.211A.41.41,0,0,0,13.944,5.663Z" transform="translate(0.256 -0.118)"/></svg>