<svg xmlns="http://www.w3.org/2000/svg" width="88.633" height="81.714" viewBox="0 0 88.633 81.714">
  <g id="Group_19010" data-name="Group 19010" transform="translate(1.25 1.25)">
    <g id="Group_16575" data-name="Group 16575" transform="translate(38.22 50.29)">
      <path id="Path_58611" data-name="Path 58611" d="M1139.274,1277.348v-2.011a8.047,8.047,0,0,1,8.047-8.046h0a8.047,8.047,0,0,1,8.046,8.046h0a9.712,9.712,0,0,1-2.845,6.867l-13.248,13.249h18.1" transform="translate(-1139.274 -1267.29)" fill="none" stroke="#000" stroke-linejoin="round" stroke-width="2.5"/>
      <path id="Path_58612" data-name="Path 58612" d="M1163.355,1297.464V1267.29l-14.081,20.116h20.116" transform="translate(-1129.158 -1267.29)" fill="none" stroke="#000" stroke-linejoin="round" stroke-width="2.5"/>
    </g>
    <path id="Path_58613" data-name="Path 58613" d="M1147.923,1320.748a40.237,40.237,0,1,1,52.814-38.226l6.035-6.035" transform="translate(-1120.274 -1242.29)" fill="none" stroke="#000" stroke-linejoin="round" stroke-width="2.5"/>
    <line id="Line_4208" data-name="Line 4208" x1="6.251" y1="6.251" transform="translate(73.995 33.94)" fill="none" stroke="#000" stroke-linejoin="round" stroke-width="2.5"/>
    <line id="Line_4209" data-name="Line 4209" y2="7.502" transform="translate(40.238 0.183)" fill="none" stroke="#000" stroke-linejoin="round" stroke-width="2.5"/>
    <line id="Line_4210" data-name="Line 4210" x2="7.502" transform="translate(0.23 37.691)" fill="none" stroke="#000" stroke-linejoin="round" stroke-width="2.5"/>
    <ellipse id="Ellipse_3115" data-name="Ellipse 3115" cx="6.251" cy="5.626" rx="6.251" ry="5.626" transform="translate(33.987 32.69)" fill="none" stroke="#000" stroke-linejoin="round" stroke-width="2.5"/>
    <line id="Line_4211" data-name="Line 4211" y1="20.004" transform="translate(40.238 12.686)" fill="none" stroke="#000" stroke-linejoin="round" stroke-width="2.5"/>
    <line id="Line_4212" data-name="Line 4212" x2="11.252" transform="translate(22.735 37.691)" fill="none" stroke="#000" stroke-linejoin="round" stroke-width="2.5"/>
  </g>
</svg>
