<svg xmlns="http://www.w3.org/2000/svg" width="14.464" height="14.455" viewBox="0 0 14.464 14.455">
  <g id="telephone-svgrepo-com_1_" data-name="telephone-svgrepo-com (1)" transform="translate(-0.912)">
    <path id="Path_4" data-name="Path 4" d="M3.843,9.609a15.394,15.394,0,0,0,5.124,4,8,8,0,0,0,2.867.845c.069,0,.135.006.2.006a2.379,2.379,0,0,0,1.841-.788.065.065,0,0,0,.012-.015,7.733,7.733,0,0,1,.581-.6c.141-.135.286-.276.424-.419a1.442,1.442,0,0,0-.006-2.154l-1.808-1.8A1.466,1.466,0,0,0,12.023,8.2a1.516,1.516,0,0,0-1.071.482L9.875,9.75c-.1-.057-.2-.108-.3-.156a3.726,3.726,0,0,1-.331-.18A11.381,11.381,0,0,1,6.523,6.946,6.531,6.531,0,0,1,5.6,5.484c.283-.255.548-.521.8-.782.09-.093.184-.186.277-.279a1.533,1.533,0,0,0,.5-1.078,1.521,1.521,0,0,0-.5-1.078l-.9-.893c-.105-.1-.2-.207-.307-.312-.2-.2-.406-.413-.611-.6A1.5,1.5,0,0,0,3.81,0,1.547,1.547,0,0,0,2.739.464L1.613,1.584A2.3,2.3,0,0,0,.924,3.058a5.522,5.522,0,0,0,.418,2.4A13.928,13.928,0,0,0,3.843,9.609ZM1.659,3.121A1.581,1.581,0,0,1,2.137,2.1L3.256.988A.812.812,0,0,1,3.81.734a.77.77,0,0,1,.542.261c.2.186.391.38.6.587.1.1.208.21.313.318l.9.893a.812.812,0,0,1,.283.56.812.812,0,0,1-.283.56l-.28.282c-.28.282-.542.548-.83.8l-.015.015a.584.584,0,0,0-.15.665L4.89,5.7A7.044,7.044,0,0,0,5.946,7.41a12.012,12.012,0,0,0,2.9,2.63,4.313,4.313,0,0,0,.4.216,3.725,3.725,0,0,1,.331.18l.033.018a.631.631,0,0,0,.292.075.639.639,0,0,0,.448-.2L11.472,9.2a.8.8,0,0,1,.551-.267.757.757,0,0,1,.533.267l1.814,1.8a.72.72,0,0,1-.009,1.129c-.126.135-.259.264-.4.4a8.643,8.643,0,0,0-.629.65,1.655,1.655,0,0,1-1.291.545c-.051,0-.105,0-.156-.006a7.268,7.268,0,0,1-2.593-.773,14.624,14.624,0,0,1-4.877-3.8A13.332,13.332,0,0,1,2.038,5.209,4.812,4.812,0,0,1,1.659,3.121Z" fill="#fff"/>
  </g>
</svg>
