<?xml version="1.0" encoding="utf-8"?>
<!-- Generator: Adobe Illustrator 17.0.0, SVG Export Plug-In . SVG Version: 6.00 Build 0)  -->
<!DOCTYPE svg PUBLIC "-//W3C//DTD SVG 1.1//EN" "http://www.w3.org/Graphics/SVG/1.1/DTD/svg11.dtd">
<svg version="1.1" id="Layer_1" xmlns="http://www.w3.org/2000/svg" xmlns:xlink="http://www.w3.org/1999/xlink" x="0px" y="0px"
	 width="640px" height="320px" viewBox="0 0 640 320" enable-background="new 0 0 640 320" xml:space="preserve">
<g id="Group_18037" transform="translate(-588.776 -6048.109)">
	<path id="Path_64806" fill="#F6F7F8" d="M928.788,6086.531c-8.135,0.408-16.148-0.076-24.306,0.269
		c-14.557,0.653-29.107,0.643-43.475,3.414c-15.567,2.448-29.621,7.464-44.428,13.443c-15.189,7.14-30.162,15.924-41.684,28.326
		c-3.518,3.521-6.761,7.307-9.701,11.322c-8.852,13.241-15.989,27.717-19.131,43.637c-3.604,19.334-1.823,38.966,1.205,58.4
		c4.032,26.355,13.787,52.611,33.812,70.982c4.641,4.763,9.91,8.871,15.661,12.211c6.923,4.609,14.26,8.562,21.918,11.809
		c-0.631,2.39,2.719,2.55,4.257,3.086c3.528,0.825,7.91,1.687,11.571,2.594c10.431,3.196,21.047,5.751,31.79,7.65
		c11.344,1.585,22.784,2.387,34.186,3.459c9.801,0.531,19.712,1.358,29.208,1.102c13.131-0.759,26.092-3.345,38.508-7.685
		c20.942-6.857,41.23-17.695,55.032-35.306l-0.023,0.03c8.002-10.234,16.17-21.138,22.062-32.912
		c3.864-7.432,6.01-15.325,8.55-23.257c7.431-20.623,10.111-42.657,7.839-64.46c-0.749-10.017-2.133-20.058-5.551-29.534
		c-5.523-14.689-13.34-28.13-24.776-38.787c-5.549-5.193-10.626-10.506-17.239-14.406c-24.976-17.355-55.023-25.781-85.292-25.383
		L928.788,6086.531z M747.653,6234.964c-0.007-0.059-0.021-0.182-0.026-0.24c0.012,0.102,0.024,0.211,0.037,0.315L747.653,6234.964
		L747.653,6234.964z"/>
	<g id="Group_18034" transform="translate(833.569 6173.58)">
		<path id="Path_64794" fill="#FFFFFF" d="M269.994,143.574l-20.844-6.591L238.792,19.112l-2.356-8.65l-10.063-1.923h-37.781
			l-55.651,7.206l-13.695,5.322l-2.796,9.924l-1.067,38.895l3.761,73.689l5.429,38.523l5.014,3.666h17.813l61.522-5.376
			c0,0,41.018-6.517,40.231-7.6c-0.787-1.083,2.346-24.206,2.346-24.206L269.994,143.574z"/>
		<g id="Group_18021" transform="translate(0 0)">
			<g id="Group_18020" transform="translate(28.885 13.213)">
				<path id="Path_63751" fill="none" stroke="#000000" stroke-width="1.5" stroke-linecap="round" stroke-linejoin="round" d="
					M162.767,82.37c2.02,0.539,4.146,0.539,6.166,0c0,0,0.949,10.437-2.847,10.437S162.767,82.37,162.767,82.37z"/>
				<path id="Path_63752" fill="none" stroke="#000000" stroke-width="1.5" stroke-linecap="round" stroke-linejoin="round" d="
					M173.205,65.295c0,0,2.373-5.693,6.167-5.693s4.27,4.744,4.27,4.744s-1.428,3.797-5.22,3.797
					C176.293,68.222,174.291,67.129,173.205,65.295z"/>
				<path id="Path_63753" fill="none" stroke="#000000" stroke-width="1.5" stroke-linecap="round" stroke-linejoin="round" d="
					M140.944,66.715c0,0,3.32-5.219,6.166-5.219c2.846,0,4.27,3.32,4.27,4.744s-2.372,4.743-5.219,4.743
					S140.944,66.715,140.944,66.715z"/>
				<path id="Path_63754" d="M148.422,61.753c0,0,1.311,5.508,0,8.556c-1.124,0.708-2.554,0.708-3.678,0
					c0.259-2.609,0.259-5.239,0-7.848C144.744,62.461,146.886,60.586,148.422,61.753z"/>
				<path id="Path_63755" d="M180.682,59.709c0,0,1.31,5.014,0,7.797c-1.14,0.647-2.538,0.647-3.678,0
					c0.259-2.378,0.259-4.776,0-7.153C177.004,60.353,179.147,58.646,180.682,59.709z"/>
				<path id="Path_63756" fill="none" stroke="#000000" stroke-width="1.5" stroke-linecap="round" stroke-linejoin="round" d="
					M140.47,54.381c0,0,4.159-5.219,8.32-5.219c4.161,0,5.202,2.371,5.202,2.371"/>
				<path id="Path_63757" fill="none" stroke="#000000" stroke-width="1.5" stroke-linecap="round" stroke-linejoin="round" d="
					M171.307,51.536c1.068-1.809,3.152-2.757,5.218-2.374c2.357,0.384,4.434,1.768,5.694,3.798"/>
				<path id="Path_63758" stroke="#000000" stroke-width="1.5" stroke-linecap="round" stroke-linejoin="round" d="M116.513,70.174
					c0,0-0.58-51.161,20.35-58.143c0,0,4.069,0,4.069,5.233c0,0,6.976-11.045,13.953-10.465c0,0,3.489,0.582,2.907,5.232
					c0,0,8.139-7.558,12.79-3.487c0,0,1.743,1.163,0,5.233c0,0,6.976-5.233,11.045-1.745s1.164,6.978,1.164,6.978
					s8.719-1.745,6.976,10.464c-0.835,6.495-2.197,12.912-4.071,19.186c0,0,1.744-19.186-18.022-15.697c0,0-5.233,6.974-8.721,6.396
					c-0.774-0.988-0.994-2.303-0.58-3.49c0,0-8.141,8.139-11.629,6.394c-0.355-1.333-0.355-2.736,0-4.069
					c0,0-5.814,6.977-9.302,6.397c-0.313-2.121-0.313-4.276,0-6.397c-6.064,9.364-10.214,19.837-12.209,30.814
					C125.233,69.008,121.165,65.522,116.513,70.174z"/>
				<path id="Path_63759" fill="none" stroke="#FFFFFF" stroke-width="1.5" stroke-linecap="round" stroke-linejoin="round" d="
					M122.908,41.69c0.424-1.88,1.215-3.657,2.326-5.232"/>
				<path id="Path_63760" fill="none" stroke="#FFFFFF" stroke-width="1.5" stroke-linecap="round" stroke-linejoin="round" d="
					M126.396,41.685c0.57-1.463,1.353-2.833,2.324-4.067"/>
				<path id="Path_63761" fill="none" stroke="#FFFFFF" stroke-width="1.5" stroke-linecap="round" stroke-linejoin="round" d="
					M145.001,22.502c0,0,0.582-4.068,2.907-5.814"/>
				<path id="Path_63762" fill="none" stroke="#FFFFFF" stroke-width="1.5" stroke-linecap="round" stroke-linejoin="round" d="
					M149.651,23.082c0,0,1.163-4.071,3.489-5.231"/>
				<path id="Path_63763" fill="none" stroke="#FFFFFF" stroke-width="1.5" stroke-linecap="round" stroke-linejoin="round" d="
					M156.047,23.082c0,0,1.162-2.908,2.907-4.07"/>
				<path id="Path_63764" fill="none" stroke="#000000" stroke-width="1.5" stroke-linecap="round" stroke-linejoin="round" d="
					M164.428,77.391c0,0,5.22,2.372,7.117,0c0,0,1.898-0.95-1.423-5.694s-3.796-12.337-3.796-12.337"/>
				<path id="Path_63766" fill="none" stroke="#000000" stroke-width="1.5" stroke-linecap="round" stroke-linejoin="round" d="
					M116.273,70.036c0,0-3.795,8.065,3.321,12.336c7.116,4.271,10.437,6.167,10.915,10.436c0.477,4.269,0.473,22.775,0.473,22.775
					s4.903-2.189,23.88-2.664s19.53,1.477,19.53,1.477v-6.538c0-3.016,1.33-5.88,3.636-7.824c3.118-2.628,6.773-6.104,7.752-9.36
					c1.428-4.743,0-43.172,0-43.172"/>
			</g>
			<path id="Path_59936" d="M185.098,146.987c-0.257-0.582-0.242-1.25,0.042-1.82c0.087-0.347,0.313-0.643,0.626-0.816
				c0.096-0.043,0.201-0.065,0.306-0.065c0.311-0.005,0.594,0.18,0.714,0.466c0.047,0.12,0.075,0.247,0.085,0.375
				c0.273,0.245,0.393,0.618,0.312,0.976c-0.072,0.477-0.336,0.906-0.729,1.185c-0.153,0.095-0.329,0.146-0.51,0.146
				C185.604,147.439,185.286,147.27,185.098,146.987z"/>
			<path id="Path_59937" d="M142.3,187.782c-1.696-0.048-3.388-0.159-5.079-0.287c-0.714-0.054-1.428-0.123-2.142-0.188
				c-0.787-0.071-1.578-0.131-2.364-0.221c-0.786-0.091-1.595-0.214-2.385-0.38c-0.791-0.179-1.57-0.405-2.333-0.678
				c-0.718-0.232-1.422-0.504-2.108-0.816c-0.366-0.17-0.715-0.377-1.039-0.618c-0.247-0.184-0.444-0.423-0.673-0.626
				c-0.346-0.255-0.615-0.6-0.779-0.997c-0.187-0.472-0.332-0.961-0.434-1.459c-0.296-1.476-0.516-2.965-0.658-4.464
				c-0.085-0.796-0.149-1.593-0.222-2.391c-0.073-0.798-0.161-1.616-0.239-2.423c-0.153-1.589-0.275-3.182-0.439-4.77
				c-0.204-1.759-0.408-3.516-0.625-5.272c-0.213-1.718-0.484-3.425-0.721-5.14c-0.24-1.741-0.465-3.485-0.698-5.226
				c-0.237-1.759-0.482-3.514-0.664-5.279c-0.024-0.237-0.048-0.472-0.073-0.708c0.005,0.052,0.012,0.102,0.018,0.157
				c-0.184-1.713-0.387-3.422-0.595-5.132c-0.043-0.345-0.088-0.691-0.129-1.035c-0.046-0.036-0.087-0.077-0.124-0.121
				c-0.251-0.309-0.265-0.748-0.035-1.072c0.007-0.012,0.015-0.022,0.025-0.033c-0.011-0.114-0.021-0.228-0.03-0.344
				c-0.067-0.866-0.089-1.734-0.102-2.602c-0.034-1.716-0.102-3.428-0.219-5.139c-0.133-1.813-0.306-3.62-0.368-5.435
				c-0.059-1.726-0.014-3.454-0.059-5.181c-0.047-1.794-0.191-3.584-0.269-5.379c-0.08-1.819-0.114-3.641-0.128-5.462
				c-0.013-1.836,0-3.672-0.065-5.508c-0.03-0.883-0.102-1.768-0.181-2.652c-0.076-0.918-0.125-1.843-0.152-2.768
				c-0.055-1.83-0.049-3.656-0.219-5.48c-0.102-0.848-0.212-1.694-0.288-2.544c-0.078-0.869-0.129-1.734-0.172-2.608
				c-0.085-1.68-0.142-3.358-0.256-5.037c-0.057-0.862-0.126-1.722-0.157-2.585s-0.053-1.754-0.063-2.632
				c-0.021-1.675-0.086-3.348-0.159-5.024c-0.073-1.676-0.082-3.344-0.107-5.018c-0.027-1.585-0.058-3.169-0.078-4.754
				c-0.041-3.384,0-6.769,0.051-10.153c0.029-1.687,0.016-3.374,0.041-5.063c0.024-1.734,0.091-3.459,0.143-5.188v0.089
				c0.045-1.734,0.04-3.459,0.125-5.187c0.088-1.77,0.185-3.539,0.323-5.304c0.129-1.655,0.338-3.302,0.575-4.944
				c0.124-0.852,0.26-1.7,0.433-2.543c0.168-0.805,0.443-1.583,0.816-2.315c0.454-0.942,1.053-1.807,1.774-2.562
				c0.254-0.253,0.523-0.489,0.809-0.706c0.061-0.125,0.156-0.232,0.273-0.306c0.106-0.061,0.221-0.104,0.342-0.126
				c0.376-0.248,0.768-0.473,1.167-0.693c0.257-0.143,0.516-0.287,0.771-0.434c0.255-0.147,0.504-0.306,0.765-0.446
				c0.219-0.132,0.468-0.203,0.724-0.209h0.041c0.028,0.003,0.055,0.007,0.082,0.012h0.03l0,0l0.036,0.01
				c0.313-0.177,0.643-0.321,0.985-0.431c0.945-0.296,1.905-0.553,2.869-0.78c1.893-0.446,3.801-0.827,5.712-1.205
				c1.102-0.255,2.217-0.448,3.34-0.575c0.538-0.045,1.074-0.043,1.614-0.038c0.467,0,0.931-0.013,1.396-0.052
				c0.68-0.149,1.36-0.303,2.04-0.462l-0.162,0.04c1.06-0.258,2.112-0.55,3.176-0.782c0.347-0.075,0.695-0.147,1.044-0.215
				l0.189-0.036c0.715-0.136,1.431-0.259,2.149-0.368c2.214-0.341,4.44-0.554,6.666-0.787c1.224-0.139,2.448-0.306,3.672-0.462
				c1.289-0.166,2.583-0.314,3.876-0.462c1.248-0.144,2.495-0.292,3.746-0.408c1.319-0.128,2.638-0.241,3.955-0.375
				c1.55-0.168,3.101-0.339,4.646-0.538c1.545-0.199,3.101-0.408,4.656-0.57c3.06-0.315,6.133-0.372,9.201-0.478
				c1.641-0.057,3.278-0.157,4.92-0.232c1.549-0.071,3.102-0.12,4.653-0.181c1.596-0.062,3.195-0.094,4.794-0.136
				c1.599-0.042,3.196-0.117,4.794-0.172c1.428-0.049,2.856-0.124,4.284-0.148c1.798-0.029,3.595,0,5.39,0.052h-0.168
				c3.129,0.088,6.25,0.269,9.366,0.544c1.637,0.126,3.265,0.354,4.875,0.681c0.714,0.153,1.428,0.336,2.13,0.524
				c0.71,0.173,1.41,0.385,2.097,0.632c0.674,0.247,1.252,0.702,1.65,1.3c0.397,0.667,0.708,1.381,0.926,2.126
				c0.226,0.733,0.408,1.48,0.604,2.223c0.204,0.772,0.401,1.543,0.589,2.317c0.336,1.506,0.578,3.031,0.727,4.566
				c0.185,1.616,0.392,3.231,0.592,4.845c0.192,1.543,0.38,3.089,0.547,4.634c0.179,1.648,0.246,3.312,0.335,4.969
				c0.163,3.109,0.141,6.222,0.196,9.338c0.056,3.162,0.169,6.334,0.439,9.487c0.131,1.546,0.255,3.087,0.29,4.637
				c0.036,1.589,0.065,3.175,0.164,4.764c0.092,1.493,0.234,2.983,0.353,4.474c0.129,1.586,0.241,3.175,0.385,4.761
				c0.141,1.553,0.285,3.103,0.418,4.656c0.134,1.553,0.235,3.076,0.396,4.611c0.187,1.543,0.453,3.071,0.721,4.605
				s0.466,3.065,0.658,4.604c0.389,3.12,0.722,6.248,1.141,9.365c0.152,1.122,0.306,2.244,0.428,3.377
				c0.124,1.154,0.234,2.308,0.343,3.462c0.109,1.154,0.197,2.298,0.265,3.449c0.065,1.112,0.122,2.228,0.233,3.338
				c0.187,1.55,0.458,3.09,0.659,4.637c0.201,1.547,0.378,3.106,0.553,4.66c0.172,1.53,0.319,3.068,0.374,4.606
				c0.058,1.592,0.091,3.188,0.221,4.776c0.01,0.095,0.018,0.19,0.029,0.286c0.093,0.739,0.224,1.472,0.395,2.197
				c0.024,0.102,0.051,0.204,0.08,0.3l0.133,0.048c0.632,0.182,1.27,0.351,1.9,0.54c0.756,0.224,1.514,0.44,2.279,0.632
				c1.438,0.363,2.885,0.681,4.315,1.077s2.868,0.764,4.325,1.062c0.743,0.152,1.482,0.306,2.219,0.495
				c0.661,0.173,1.315,0.394,1.968,0.602c0.731,0.228,1.474,0.417,2.226,0.565c0.29,0.045,0.582,0.081,0.872,0.123
				c0.393,0.045,0.754,0.237,1.011,0.537c0.251,0.306,0.371,0.699,0.335,1.094c-0.019,0.205-0.082,0.404-0.184,0.582
				c0.011,0.038,0.019,0.078,0.025,0.116c0.068,0.387-0.022,0.784-0.252,1.104c-0.265,0.358-0.676,0.58-1.122,0.605l-0.151,0.012
				c-0.153,0.019-0.306,0.046-0.454,0.079c-0.301,0.081-0.595,0.182-0.886,0.283c-0.344,0.115-0.695,0.196-1.045,0.279
				c-0.479,0.123-0.955,0.263-1.433,0.384c-0.537,0.135-1.077,0.25-1.616,0.377c-0.832,0.204-1.661,0.418-2.497,0.603
				c-0.816,0.179-1.648,0.284-2.476,0.408c-0.81,0.123-1.614,0.284-2.418,0.444c-0.771,0.153-1.542,0.312-2.308,0.489
				c-0.617,0.152-1.224,0.319-1.831,0.516c-0.293,0.095-0.584,0.189-0.876,0.277c0.01,0.187,0.022,0.374,0.03,0.562
				c0.021,0.976-0.017,1.953-0.117,2.924c-0.077,0.918-0.213,1.836-0.318,2.754s-0.287,1.842-0.448,2.763
				c-0.16,1.085-0.204,2.181-0.273,3.275c-0.079,1.137-0.148,2.279-0.314,3.409c-0.181,1.205-0.331,2.417-0.549,3.614
				c-0.095,0.527-0.227,1.049-0.347,1.569c-0.119,0.52-0.24,1.035-0.364,1.55c-0.092,0.539-0.333,1.04-0.696,1.448
				c-0.287,0.266-0.603,0.499-0.943,0.694c-0.769,0.438-1.606,0.743-2.476,0.903c-0.459,0.102-0.928,0.187-1.395,0.257
				s-0.971,0.097-1.456,0.143c-0.345,0.033-0.689,0.049-1.032,0.058c-0.367,0.522-1.004,0.784-1.632,0.671h-0.012
				c-1.604,0.195-3.186,0.504-4.763,0.848c-0.83,0.182-1.661,0.352-2.494,0.52c-0.807,0.163-1.605,0.355-2.404,0.544
				c-1.652,0.391-3.312,0.752-4.984,1.055c-1.71,0.306-3.428,0.572-5.137,0.885c-1.693,0.306-3.366,0.702-5.065,1.009
				c-1.768,0.318-3.56,0.51-5.339,0.75c-3.543,0.469-7.079,0.996-10.63,1.397c-2.48,0.283-4.962,0.543-7.446,0.821
				c-2.499,0.283-4.99,0.59-7.487,0.856l0,0c-0.005,0.001-0.009,0.001-0.014,0c0.003,0.001,0.007,0.001,0.01,0
				c-0.003,0.001-0.007,0.001-0.01,0l0,0h-0.022l-0.142,0.015l0.063-0.006c-0.117,0.013-0.236,0.025-0.353,0.037h0.036
				c-1.7,0.18-3.405,0.298-5.116,0.356c-1.836,0.064-3.672,0.108-5.513,0.188c-1.713,0.073-3.423,0.189-5.136,0.284
				c-1.799,0.102-3.602,0.16-5.4,0.293c-0.336,0.023-0.666,0.056-0.999,0.088c-1.23,0.147-2.455,0.316-3.681,0.482
				c-1.268,0.172-2.538,0.283-3.816,0.351c-1.295,0.069-2.591,0.11-3.886,0.175c-1.174,0.061-2.346,0.167-3.515,0.291
				c-0.218,0.027-0.443,0.061-0.661,0.071c-0.136,0.021-0.273,0.03-0.408,0.042c-0.473,0.043-0.948,0.084-1.428,0.116
				c-0.633,0.043-1.27,0.072-1.908,0.072C142.569,187.786,142.434,187.785,142.3,187.782z M120.432,140.608
				c0.078,0.651,0.155,1.3,0.224,1.95c0.169,1.541,0.322,3.082,0.462,4.517c0.16,1.474,0.354,2.967,0.544,4.413l0.095,0.755
				l0.189,1.456c0.161,1.256,0.323,2.512,0.496,3.766c0.068,0.459,0.134,0.918,0.197,1.377c0.175,1.224,0.359,2.495,0.504,3.749
				l0.168,1.428c0.154,1.303,0.313,2.652,0.451,3.978c0.088,0.816,0.159,1.632,0.231,2.457c0.06,0.694,0.121,1.387,0.19,2.081
				c0.067,0.664,0.13,1.326,0.192,1.993c0.068,0.723,0.134,1.446,0.204,2.17c0.142,1.346,0.36,2.684,0.655,4.005
				c0.085,0.322,0.175,0.612,0.275,0.878c0.05,0.129,0.102,0.255,0.161,0.382c0.144,0.115,0.277,0.244,0.408,0.371
				c0.088,0.085,0.175,0.167,0.266,0.25l0.052,0.039l0.053,0.038c0.173,0.102,0.356,0.196,0.555,0.29
				c0.68,0.287,1.419,0.551,2.394,0.857c0.408,0.117,0.848,0.239,1.289,0.346c0.36,0.09,0.732,0.156,1.09,0.218l0.06,0.011
				c1.234,0.173,2.499,0.274,3.72,0.372l1.044,0.087c1.565,0.134,3.187,0.238,4.96,0.319c0.318,0.006,0.639,0.01,0.959,0.01
				c0.966,0,1.825-0.036,2.629-0.108c0.633-0.058,1.263-0.123,1.896-0.19c0.734-0.076,1.47-0.152,2.205-0.215
				c1.16-0.102,2.346-0.153,3.49-0.204l0.364-0.016c1.486-0.066,2.73-0.15,3.91-0.264c0.639-0.075,1.274-0.159,1.912-0.242
				c1.084-0.141,2.204-0.287,3.31-0.392c1.313-0.126,2.652-0.195,3.946-0.261c0.464-0.024,0.927-0.048,1.39-0.073
				c0.667-0.039,1.333-0.081,1.999-0.121c1.037-0.065,2.079-0.131,3.117-0.18c1.479-0.072,2.958-0.13,4.437-0.184l0.895-0.035
				c1.029-0.04,2.093-0.081,3.138-0.149c0.861-0.056,1.715-0.135,2.532-0.221c0.233-0.022,0.465-0.048,0.697-0.071h0.016
				c0.008,0.001,0.017,0.001,0.025,0c0.577-0.064,1.157-0.124,1.734-0.187l0.573-0.06c0.894-0.101,1.787-0.205,2.683-0.313
				c1.128-0.135,2.254-0.268,3.366-0.388c0.238-0.025,0.477-0.052,0.714-0.081c0.033,0,0.065-0.008,0.102-0.01l-0.081,0.011
				c1.326-0.144,2.652-0.306,3.978-0.46l1.393-0.165c1.784-0.211,3.58-0.476,5.123-0.709c1.769-0.266,3.563-0.518,5.4-0.774
				c0.489-0.068,0.977-0.136,1.467-0.204c1.254-0.169,2.55-0.345,3.817-0.557c1.167-0.196,2.34-0.452,3.475-0.698l0.306-0.066
				c1.311-0.286,2.647-0.538,3.779-0.746l0.727-0.133c2.186-0.398,4.445-0.81,6.646-1.335l0.259-0.066
				c0.656-0.165,1.316-0.331,1.976-0.489c0.43-0.102,0.865-0.19,1.301-0.277c0.341-0.07,0.682-0.138,1.02-0.214
				c1.606-0.361,3.211-0.726,4.817-1.096l0.061-0.013l0.065-0.016c0.126-0.032,0.253-0.065,0.378-0.102l0.306-0.082
				c0.192-0.058,0.391-0.093,0.591-0.102c0.279,0.001,0.557,0.045,0.823,0.131c0.147,0.047,0.285,0.117,0.408,0.209
				c0.618-0.141,1.179-0.254,1.714-0.345c0.793-0.14,1.563-0.316,2.148-0.456c0.306-0.076,0.608-0.168,0.905-0.277
				c0.157-0.064,0.306-0.134,0.462-0.212s0.278-0.166,0.434-0.273c0.078-0.299,0.141-0.601,0.204-0.901
				c0.032-0.15,0.063-0.3,0.095-0.447c0.119-0.529,0.253-1.152,0.363-1.769c0.102-0.658,0.176-1.332,0.249-1.984
				c0.032-0.284,0.064-0.569,0.102-0.853c0.114-0.943,0.196-1.953,0.255-3.087c0.024-0.456,0.04-0.912,0.055-1.368
				c0.019-0.557,0.039-1.116,0.074-1.673c0.006-0.094,0.012-0.187,0.016-0.284c0-0.01,0-0.019,0-0.03h0.024
				c0.62-0.113,1.034-0.704,0.929-1.326c-0.064-0.281-0.12-0.567-0.198-0.846c-0.085-0.3-0.175-0.599-0.265-0.897
				c0-0.011-0.007-0.02-0.01-0.032l0,0c0.071-0.51,0.136-1.02,0.197-1.53c0.036-0.293,0.069-0.583,0.108-0.876
				c0.142-1.122,0.229-2.107,0.263-3.011c0-0.306-0.009-0.573-0.03-0.821c-0.025-0.204-0.049-0.416-0.059-0.624
				c0-0.086-0.005-0.172-0.005-0.258v-0.221c-0.019-0.257,0.015-0.515,0.102-0.758c0.151-0.383,0.44-0.696,0.81-0.876
				c0.267-0.115,0.552-0.186,0.843-0.209c0.131-0.018,0.26-0.036,0.387-0.061c0.369-0.097,0.738-0.204,1.107-0.306
				c0.57-0.157,1.16-0.321,1.746-0.456c0.762-0.176,1.541-0.336,2.294-0.49l0.465-0.094c0.782-0.162,1.583-0.306,2.359-0.437
				c1.078-0.187,2.193-0.382,3.281-0.635l0.907-0.235c0.631-0.163,1.265-0.326,1.899-0.478l0.125-0.031l0.124-0.03
				c0.278-0.068,0.555-0.143,0.829-0.223l0.163-0.045l0,0l-0.576-0.204c-0.472-0.167-0.947-0.335-1.428-0.488
				c-0.769-0.223-1.563-0.408-2.329-0.578c-0.625-0.143-1.274-0.29-1.904-0.459c-0.595-0.16-1.183-0.329-1.773-0.501
				c-0.805-0.232-1.632-0.47-2.461-0.677c-0.328-0.084-0.658-0.163-0.985-0.245c-0.408-0.102-0.809-0.199-1.212-0.306
				c-0.728-0.187-1.452-0.394-2.25-0.622c-0.554-0.161-1.122-0.306-1.671-0.448l-0.453-0.117c-0.58-0.109-1.111-0.398-1.517-0.827
				c-0.234-0.335-0.389-0.718-0.451-1.122c-0.091-0.382-0.17-0.787-0.251-1.277c-0.169-1.058-0.281-2.125-0.333-3.195
				c0.031-0.083,0.049-0.169,0.054-0.257c0.017-0.334-0.003-0.668-0.061-0.997c-0.01-0.126-0.022-0.251-0.037-0.376l-0.023-0.189
				l-0.021-0.169l-0.021-0.559l-0.018-0.402c0-0.052,0-0.102-0.007-0.157l0,0l0,0c-0.03,0.017-0.06,0.033-0.087,0.048l-0.012,0.006
				l-0.013-0.086l-0.009-0.087c-0.042-0.277-0.081-0.553-0.121-0.829c-0.041-0.276-0.081-0.551-0.117-0.825
				c-0.016-0.118-0.034-0.237-0.053-0.351v-0.016c0.094,0.017,0.185,0.044,0.272,0.08l0.036,0.017l0,0l0,0
				c-0.062-0.827-0.147-1.668-0.231-2.481l-0.023-0.235c-0.167-1.513-0.336-2.993-0.532-4.496c-0.085-0.654-0.181-1.305-0.277-1.954
				c-0.135-0.926-0.277-1.883-0.383-2.83c-0.128-1.104-0.192-2.233-0.254-3.324c-0.03-0.499-0.057-0.999-0.091-1.496
				c-0.087-1.247-0.214-2.51-0.337-3.732l-0.073-0.752l-0.082-0.792l-0.045-0.436c-0.11-0.955-0.231-1.909-0.35-2.862
				c-0.072-0.572-0.144-1.143-0.213-1.715c-0.179-1.468-0.338-2.958-0.492-4.405l-0.031-0.291c-0.173-1.595-0.369-3.192-0.556-4.681
				c-0.183-1.438-0.423-2.889-0.655-4.292l-0.063-0.378c-0.237-1.428-0.428-2.946-0.582-4.646c-0.078-0.836-0.14-1.674-0.204-2.511
				c-0.053-0.703-0.102-1.406-0.164-2.107c-0.062-0.702-0.128-1.393-0.191-2.089c-0.082-0.85-0.162-1.697-0.232-2.55l-0.145-1.797
				c-0.078-0.952-0.155-1.908-0.234-2.865c-0.129-1.49-0.261-3.081-0.346-4.692c-0.041-0.794-0.06-1.601-0.078-2.383
				c-0.017-0.756-0.034-1.537-0.072-2.305c-0.055-1.108-0.158-2.233-0.255-3.319c-0.043-0.495-0.088-0.989-0.128-1.484
				c-0.102-1.185-0.151-2.394-0.204-3.565l-0.051-1.075c-0.067-1.417-0.136-2.884-0.175-4.325c-0.022-0.807-0.037-1.614-0.052-2.422
				c-0.012-0.634-0.023-1.269-0.039-1.902c-0.073-3.022-0.245-5.96-0.505-8.733c-0.19-1.638-0.413-3.301-0.628-4.907
				c-0.093-0.694-0.186-1.386-0.276-2.079c-0.071-0.541-0.136-1.083-0.204-1.624c-0.07-0.575-0.138-1.15-0.213-1.725
				c-0.165-1.25-0.365-2.39-0.612-3.488c-0.157-0.635-0.325-1.27-0.491-1.904l-0.118-0.447c-0.184-0.706-0.413-1.583-0.703-2.404
				c-0.108-0.266-0.221-0.51-0.348-0.759c-0.044-0.072-0.087-0.146-0.132-0.219c-0.022-0.029-0.045-0.055-0.068-0.082
				c-0.015-0.016-0.032-0.031-0.049-0.045l-0.044-0.035l-0.046-0.033c-0.095-0.055-0.192-0.102-0.291-0.153
				c-0.396-0.163-0.797-0.293-1.102-0.388c-0.671-0.196-1.453-0.423-2.232-0.629c-0.831-0.224-1.672-0.38-2.381-0.504
				c-1.899-0.26-3.842-0.417-5.72-0.567l-0.535-0.045c-0.884-0.071-1.785-0.11-2.658-0.147l-0.446-0.021
				c-0.816-0.037-1.632-0.067-2.448-0.091l-0.578-0.019h0.01h0.085h-0.084h0.084c-1.041-0.029-2.157-0.055-3.264-0.055
				c-0.536,0-1.073,0.007-1.611,0.02c-1.4,0.039-2.917,0.091-4.775,0.165c-1.593,0.064-3.212,0.102-4.779,0.138
				c-1.543,0.038-3.14,0.074-4.71,0.136c-1.522,0.059-3.044,0.121-4.567,0.196c-0.537,0.027-1.07,0.057-1.606,0.085
				c-0.918,0.051-1.836,0.102-2.754,0.135c-0.714,0.029-1.428,0.051-2.136,0.073c-0.95,0.03-1.897,0.059-2.848,0.102l-0.139,0.044
				c-0.247,0.087-0.501,0.15-0.76,0.19c-0.274,0.036-0.556,0.049-0.829,0.061c-0.204,0.009-0.416,0.019-0.654,0.04l-0.714,0.087
				c-0.63,0.075-1.282,0.154-1.927,0.194c-0.204,0.013-0.413,0.018-0.619,0.018h-0.295h-0.51h-0.218l-1.07,0.149
				c-1.147,0.16-2.331,0.325-3.5,0.465c-1.21,0.146-2.413,0.269-3.435,0.37c-0.675,0.126-1.357,0.286-2.016,0.438l-0.334,0.078
				c-0.686,0.159-1.326,0.29-1.938,0.401c-0.59,0.11-1.199,0.17-1.785,0.231l-0.14,0.013c-0.792,0.088-1.568,0.204-2.311,0.352
				l-0.693,0.14c-0.575,0.116-1.171,0.236-1.759,0.335c-0.85,0.144-1.632,0.245-2.388,0.306c-0.375,0.033-0.75,0.059-1.122,0.087
				c-0.454,0.032-0.909,0.064-1.362,0.102c-0.904,0.102-1.81,0.279-2.686,0.447c-0.351,0.068-0.7,0.135-1.05,0.197
				c-0.619,0.111-1.251,0.204-1.862,0.293c-0.533,0.078-1.085,0.157-1.626,0.281l-0.087,0.022c-0.168,0.043-0.339,0.078-0.51,0.102
				c-0.047,0.009-0.095,0.013-0.143,0.013c-0.075-0.001-0.15-0.011-0.222-0.032c-0.306,0.074-0.603,0.145-0.906,0.212
				c-0.565,0.13-1.132,0.242-1.698,0.355c-0.329,0.067-0.659,0.132-0.988,0.204c-0.933,0.196-1.776,0.37-2.625,0.515l-0.306,0.053
				c-0.328,0.055-0.657,0.111-0.984,0.176c-0.284,0.059-0.565,0.128-0.847,0.196l-0.408,0.102c-0.386,0.091-0.773,0.166-1.162,0.244
				c-0.389,0.078-0.795,0.156-1.19,0.251c-0.211,0.054-0.421,0.11-0.632,0.166c-0.268,0.071-0.538,0.144-0.808,0.211
				c-0.383,0.094-0.765,0.182-1.148,0.269l-0.45,0.102c-0.617,0.16-1.224,0.384-1.814,0.599c-0.298,0.11-0.595,0.219-0.898,0.322
				c-0.334,0.113-0.681,0.199-1.02,0.284c-0.13,0.033-0.258,0.065-0.387,0.102c-0.472,0.121-0.93,0.261-1.402,0.429
				c-0.355,0.148-0.7,0.312-1.054,0.498c-0.732,0.408-1.59,0.906-2.4,1.469c-0.655,0.486-1.284,1.006-1.883,1.559
				c-0.465,0.45-0.836,0.83-1.167,1.199l-0.032,0.057l-0.035,0.059c-0.146,0.979-0.26,1.979-0.374,2.977
				c-0.141,1.202-0.234,2.267-0.287,3.252c-0.091,1.693-0.17,3.421-0.233,5.154c-0.019,0.531-0.039,1.064-0.056,1.595v-0.015v-0.081
				v0.081v-0.081l-0.021,0.908c-0.032,1.377-0.065,2.8-0.136,4.201l-0.052,1.059c-0.049,0.967-0.102,1.96-0.138,2.949
				c-0.013,0.272-0.023,0.547-0.032,0.824v-0.016V47.8v0.087V47.8c-0.038,1.393-0.074,2.786-0.124,4.182l-0.041,1.104
				c-0.037,1.005-0.076,2.008-0.102,3.012c-0.02,0.877-0.042,1.754-0.063,2.632c0,0.204-0.01,0.398-0.016,0.598
				c0-0.007,0-0.013,0-0.02c-0.052,2.09-0.036,4.215-0.018,6.27c0.008,1.176,0.017,2.346,0.012,3.527
				c0,1.82,0.057,3.599,0.109,4.946c0.039,0.999,0.052,2.015,0.065,2.996c0.01,0.714,0.019,1.428,0.037,2.142
				c0.029,1.068,0.102,2.152,0.174,3.2c0.049,0.714,0.102,1.437,0.134,2.158c0.021,0.414,0.039,0.827,0.056,1.242
				c0.06,1.359,0.12,2.767,0.25,4.146c0.037,0.328,0.08,0.655,0.118,0.982c0.066,0.523,0.129,1.045,0.181,1.566
				c0.076,0.781,0.13,1.632,0.163,2.59c0.018,0.502,0.03,1.005,0.041,1.507c0.031,1.217,0.059,2.475,0.165,3.709l0.051,0.58
				c0.056,0.641,0.115,1.303,0.145,1.953c0.042,0.879,0.066,1.823,0.073,2.883c0.005,0.58,0.01,1.162,0.012,1.742
				c0.006,1.183,0.013,2.406,0.039,3.611c0.032,1.484,0.086,3.439,0.212,5.391c0.136,2.054,0.204,3.728,0.21,5.269
				c0.012,1.976,0.077,3.712,0.193,5.304c0.052,0.723,0.111,1.446,0.171,2.169c0.087,1.028,0.174,2.091,0.237,3.139
				c0.048,0.792,0.078,1.595,0.102,2.374c0.034,0.918,0.068,1.872,0.137,2.81c0.008,0.102,0.016,0.214,0.024,0.32l0,0l0,0
				c0.033-0.013,0.067-0.021,0.102-0.023c0.015,0,0.031,0.002,0.045,0.007c0,0.023,0.007,0.048,0.012,0.071
				c-0.011,0.212-0.009,0.425,0.006,0.638c0.007,0.123,0.016,0.248,0.031,0.373l0.005,0.065c-0.023,0.062-0.043,0.125-0.058,0.19
				c-0.069,0.287-0.037,0.588,0.091,0.853v0.007l-0.005-0.009L120.432,140.608z"/>
			<path id="Path_59939" fill="#FFCC00" stroke="#000000" stroke-width="1.5" d="M141.565,185.165
				c-1.772-0.082-3.394-0.186-4.958-0.319l-1.041-0.087c-1.224-0.102-2.487-0.199-3.722-0.372l-0.061-0.011
				c-0.357-0.063-0.729-0.13-1.089-0.218c-0.442-0.102-0.882-0.228-1.289-0.346c-0.975-0.306-1.714-0.57-2.393-0.857
				c-0.204-0.094-0.384-0.189-0.557-0.29l-0.054-0.038l-0.052-0.039c-0.091-0.082-0.177-0.164-0.266-0.25
				c-0.133-0.128-0.265-0.255-0.408-0.371c-0.059-0.126-0.112-0.253-0.163-0.381c-0.102-0.267-0.191-0.556-0.275-0.878
				c-0.295-1.321-0.513-2.658-0.654-4.005c-0.072-0.723-0.139-1.446-0.204-2.17c-0.063-0.665-0.124-1.326-0.191-1.993
				c-0.069-0.695-0.132-1.387-0.191-2.081c-0.07-0.816-0.145-1.638-0.23-2.457c-0.138-1.326-0.297-2.675-0.451-3.978l-0.167-1.428
				c-0.147-1.254-0.328-2.523-0.51-3.749c-0.066-0.459-0.13-0.918-0.196-1.377c-0.173-1.254-0.334-2.51-0.497-3.766l-0.188-1.463
				l-0.102-0.755c-0.188-1.445-0.385-2.94-0.544-4.413c-0.139-1.435-0.293-2.976-0.462-4.517c-0.069-0.651-0.148-1.3-0.223-1.95
				l-0.072-0.603c0.017,0.034,0.037,0.068,0.056,0.102c-0.167-0.289-0.217-0.629-0.143-0.954c0.015-0.066,0.036-0.133,0.061-0.196
				v0.007c0.196-0.433,0.502-0.805,0.887-1.081c0.246-0.198,0.505-0.378,0.774-0.543c1.053-0.656,2.151-1.235,3.287-1.734
				c1.108-0.472,2.258-0.893,3.366-1.3l0.204-0.075c0.594-0.218,1.176-0.423,1.734-0.612c0.503-0.163,1.03-0.288,1.54-0.408
				l0.247-0.058l0.364-0.084l0.341-0.079l0.918-0.229c0.802-0.204,1.632-0.408,2.448-0.588c0.96-0.214,1.938-0.408,2.888-0.59
				l0.648-0.126c0.345-0.068,0.69-0.14,1.033-0.209c0.816-0.169,1.668-0.345,2.512-0.468c0.221-0.032,0.443-0.063,0.662-0.094
				c0.354-0.049,0.714-0.102,1.062-0.154c0.546-0.091,1.095-0.204,1.632-0.306l0.181-0.036l1.191-0.242
				c0.768-0.157,30.109-4.284,30.075-4.471c-0.052-0.299,26.633,0.522,26.887,0.358c0.07-0.047,0.149-0.082,0.231-0.102l0,0
				c0.108-0.026,0.218-0.037,0.329-0.035c0.092,0,0.181,0,0.27,0.01l0.167,0.009l0.969,0.028l0.211,0.008l0,0h0.094h0.011
				c0.408,0.01,0.807,0.017,1.211,0.017c0.617,0,1.172-0.016,1.694-0.05c0.777-0.052,1.553-0.12,2.327-0.189l0.74-0.064l1.083-0.095
				c0.65-0.056,1.301-0.114,1.951-0.164c0.955-0.078,1.95-0.119,2.958-0.126h0.217c0.925,0,1.864,0.052,2.775,0.102l1.053,0.054
				c0.526,0.026,1.051,0.05,1.575,0.084c0.831,0.051,1.668,0.184,2.478,0.312l0.291,0.046l0.169,0.027
				c0.441,0.068,0.895,0.141,1.333,0.252c0.486,0.121,0.986,0.269,1.49,0.44l0.408,0.143c0.408,0.138,0.809,0.276,1.216,0.402
				l0.277,0.087c0.5,0.156,1.02,0.316,1.515,0.51c0.743,0.328,1.446,0.74,2.098,1.224c0.258,0.176,0.51,0.352,0.795,0.531
				l0.043,0.027l0.198,0.121c0.335,0.195,0.659,0.407,0.972,0.635c0.396,0.304,0.767,0.64,1.111,1.003
				c0.754,0.734,1.438,1.535,2.046,2.394c0.275,0.443,0.506,0.912,0.691,1.4c0.094,0.226,0.186,0.452,0.275,0.679
				c0.09,0.227,0.17,0.428,0.26,0.642c0.243,0.586,0.524,1.165,0.793,1.725c0.158,0.324,0.312,0.65,0.464,0.976
				c0.361,0.814,0.68,1.645,0.957,2.492c0.163,0.473,0.326,0.944,0.51,1.409c0.342,0.863,0.7,1.784,0.988,2.718l0.193,0.612
				c0.223,0.714,0.447,1.437,0.657,2.161c0.341,1.173,0.566,2.085,0.731,2.958c0.081,0.42,0.151,0.844,0.222,1.267
				c0.071,0.423,0.144,0.87,0.227,1.306c0.009,0.049,0.021,0.102,0.032,0.148l0.018,0.074c0.124,0.475,0.275,0.954,0.418,1.419
				l0.222,0.714l0,0l0,0l0.009,0.032c0.089,0.299,0.18,0.597,0.264,0.897c0.079,0.278,0.135,0.565,0.197,0.846
				c0.106,0.622-0.308,1.214-0.929,1.326h-0.025c0,0.102-0.011,0.211-0.017,0.313c-0.035,0.557-0.054,1.116-0.074,1.673
				c-0.016,0.456-0.032,0.912-0.054,1.368c-0.06,1.133-0.143,2.142-0.256,3.087c-0.035,0.284-0.067,0.569-0.102,0.853
				c-0.073,0.652-0.148,1.326-0.249,1.984c-0.109,0.618-0.245,1.24-0.362,1.77c-0.033,0.147-0.064,0.297-0.096,0.447
				c-0.063,0.3-0.128,0.602-0.204,0.901c-0.155,0.102-0.293,0.193-0.434,0.273c-0.141,0.081-0.306,0.149-0.461,0.212
				c-0.297,0.109-0.599,0.201-0.906,0.277c-0.583,0.14-1.355,0.316-2.142,0.456c-0.536,0.091-1.096,0.204-1.715,0.345
				c-0.123-0.092-0.261-0.162-0.408-0.21c-0.266-0.086-0.545-0.13-0.824-0.131c-0.201,0.009-0.399,0.044-0.591,0.102l-0.306,0.082
				c-0.128,0.036-0.254,0.07-0.379,0.102l-0.063,0.016l-0.062,0.013c-1.605,0.372-3.209,0.738-4.816,1.096
				c-0.342,0.076-0.682,0.144-1.02,0.214c-0.436,0.088-0.87,0.175-1.301,0.277c-0.662,0.159-1.318,0.324-1.974,0.489l-0.262,0.066
				c-2.199,0.526-4.461,0.937-6.645,1.335l-0.726,0.133c-1.135,0.204-2.47,0.461-3.78,0.746l-0.306,0.066
				c-1.135,0.247-2.308,0.502-3.475,0.698c-1.268,0.212-2.562,0.388-3.817,0.557c-0.491,0.065-0.978,0.133-1.468,0.204
				c-1.836,0.255-3.631,0.51-5.399,0.774c-1.543,0.232-3.338,0.498-5.123,0.709l-1.393,0.165c-1.326,0.157-2.652,0.316-3.978,0.46
				l0.176-0.027c-0.306,0.041-0.606,0.073-0.908,0.102c-1.108,0.118-2.237,0.253-3.366,0.388c-0.893,0.107-1.787,0.211-2.682,0.313
				l-0.574,0.059c-0.577,0.062-1.156,0.123-1.734,0.187h-0.026h-0.017c-1.02,0.116-2.12,0.224-3.227,0.297
				c-1.046,0.068-2.109,0.108-3.139,0.149l-0.894,0.035c-1.479,0.055-2.958,0.111-4.437,0.184c-1.04,0.049-2.079,0.114-3.117,0.18
				c-0.667,0.042-1.331,0.084-1.998,0.121c-0.464,0.025-0.928,0.05-1.39,0.073c-1.295,0.066-2.634,0.135-3.947,0.261
				c-1.106,0.102-2.226,0.251-3.311,0.392c-0.637,0.084-1.271,0.166-1.911,0.242c-1.179,0.114-2.423,0.198-3.91,0.264l-0.362,0.016
				c-1.148,0.05-2.33,0.102-3.491,0.204c-0.734,0.064-1.47,0.14-2.205,0.215c-0.632,0.067-1.265,0.133-1.897,0.19
				c-0.804,0.072-1.664,0.108-2.629,0.108C142.205,185.176,141.885,185.17,141.565,185.165z"/>
		</g>
	</g>
	<g id="Group_18036" transform="translate(695.103 6048.109)">
		<g id="Group_18024" transform="matrix(0.998, -0.07, 0.07, 0.998, 34.991, 26.118)">
			<path id="Path_59921" fill="#FFFFFF" stroke="#707070" stroke-width="1.5" d="M196.29,17.254c0-0.62-0.502-1.122-1.122-1.122
				s-1.122,0.502-1.122,1.122s0.502,1.122,1.122,1.122S196.29,17.873,196.29,17.254L196.29,17.254z"/>
			<g id="Group_18022" transform="translate(0 0)">
				<path id="Path_59978" d="M221.429,160.84L221.429,160.84L221.429,160.84c-0.216-0.123-0.395-0.303-0.516-0.521
					c-0.2-0.445-0.3-0.928-0.291-1.416l-0.011-0.22c-0.088-1.02-0.231-2.101-0.438-3.317c-0.204-1.179-0.422-2.441-0.672-3.683
					c-0.254-1.154-0.57-2.292-0.946-3.412c-0.51-1.34-1.092-2.685-1.794-4.112c-0.441-0.836-0.901-1.626-1.405-2.396
					c-0.072-0.113-0.146-0.225-0.22-0.337l0.02,0.028l0.03,0.043l-0.028-0.041l0.031,0.04l-0.51-0.743
					c-0.503-0.747-1.02-1.517-1.569-2.258c-0.438-0.599-0.889-1.184-1.372-1.747c-0.213-0.234-0.427-0.466-0.645-0.696l0,0
					c-0.447-0.475-0.918-0.964-1.449-1.498l-0.594-0.597c-0.51-0.518-1.027-1.037-1.549-1.546c-0.417-0.408-0.854-0.801-1.273-1.183
					c-0.314-0.287-0.627-0.571-0.936-0.863c-0.232-0.217-0.461-0.435-0.693-0.652c-0.51-0.484-1.02-0.965-1.537-1.437
					c-0.317-0.27-0.639-0.535-0.961-0.798c-0.612-0.496-1.235-1.011-1.808-1.564c-0.362-0.35-0.714-0.72-1.062-1.078
					c-0.461-0.48-0.939-0.978-1.438-1.434c-0.204-0.164-0.408-0.32-0.612-0.474c-0.204-0.154-0.396-0.298-0.588-0.455l-0.238-0.185
					c-0.12-0.091-0.244-0.182-0.356-0.282c-0.648-0.269-1.111-0.854-1.224-1.545c-0.034-0.258-0.048-0.518-0.043-0.778v-0.204
					c0.002-0.323-0.002-0.651-0.006-0.976c-0.008-0.612-0.035-1.224-0.064-1.848l-0.014-0.298c-0.051-1.172-0.102-2.384-0.058-3.575
					c0.057-2.512,0.248-5.019,0.572-7.511l0,0c0.013-0.094,0.028-0.186,0.043-0.277c0.166-1.079,0.324-2.158,0.489-3.236
					c0.078-0.51,0.144-1.02,0.252-1.518c0.051-0.236,0.108-0.466,0.174-0.698c0.052-0.227,0.157-0.44,0.306-0.62
					c0.108-0.114,0.264-0.171,0.421-0.153c0.174-0.105,0.368-0.174,0.57-0.204c0.895-0.111,1.71,0.523,1.821,1.418
					c0.007,0.054,0.01,0.108,0.012,0.162c-0.004,0.376-0.038,0.752-0.102,1.122c-0.052,0.418-0.101,0.835-0.149,1.253
					c-0.094,0.851-0.161,1.705-0.227,2.558c-0.023,0.292-0.047,0.586-0.069,0.877l0,0c-0.102,1.367-0.219,2.778-0.306,4.168
					c-0.021,0.561-0.035,1.122-0.042,1.682c0.057,0.536,0.121,1.168,0.165,1.798c0.075,1.012,0.117,2.04,0.157,3.039l0.012,0.336
					c0.049,1.148,0.061,2.182,0.035,3.162c0.001,0.216-0.032,0.43-0.097,0.637c0.173,0.102,0.343,0.209,0.51,0.322
					c0.757,0.528,1.473,1.114,2.142,1.75l0.46,0.414l0.133,0.116c0.663,0.568,1.378,1.098,2.069,1.607l0.276,0.204
					c0.857,0.637,1.67,1.341,2.472,2.04c0.399,0.35,0.806,0.693,1.215,1.036c0.617,0.518,1.255,1.055,1.856,1.611
					c1.02,0.947,2.02,1.938,2.871,2.791c0.971,0.952,1.885,1.96,2.738,3.017c0.574,0.729,1.112,1.512,1.632,2.269
					c0.209,0.306,0.417,0.612,0.627,0.906c0.809,1.146,1.539,2.345,2.185,3.591c0.625,1.215,1.177,2.466,1.652,3.747
					c0.489,1.322,0.863,2.684,1.118,4.07c0.227,1.215,0.39,2.46,0.551,3.664l0.032,0.262c0.194,1.451,0.33,2.754,0.421,3.985
					c0.02,0.241,0.045,0.481,0.072,0.724c0.042,0.279,0.048,0.563,0.017,0.844c-0.062,0.43-0.301,0.816-0.659,1.064
					c-0.24,0.159-0.521,0.245-0.809,0.245C221.936,161.052,221.666,160.978,221.429,160.84z"/>
				<path id="Path_64792" d="M152.899,115.221c0,0-5.432,1.391-6.424-1.753c0,0-4.257,5.14-7.816-0.133c0,0-5.325,6.685-7.293-0.124
					c-1.969-6.81-11.979-61.699,1.443-84.923c13.422-23.224,61.823-19.275,73.875,7.511c12.052,26.786,3.882,78.238-3.473,81.76
					c-7.356,3.522-7.269-1.689-7.269-1.689c-4.309,8.267-5.209-0.089-5.209-0.089c1.758-11.434,1.683-38.015,1.683-38.015
					c10.909,2.269,11.538-3.971,11.538-3.971c1.219-10.404-11.834-9.061-11.834-9.061c-0.749-17.21-10.84-36.667-10.84-36.667
					s-8.744,23.832-31.12,21.883c0,0,3.161-2.032,3.709-3.585c0,0-14.186,6.725-19.901,5.752c0,0-0.637,31.421-0.605,32.465
					c0.032,1.045-0.328,22.404,19.463,23.26L152.899,115.221z"/>
				<g id="Group_18019" transform="matrix(1, 0.017, -0.017, 1, 13.232, 14.951)">
					<path id="Path_64530" fill="none" stroke="#000000" stroke-width="1.5" stroke-linecap="round" stroke-linejoin="round" d="
						M157.222,38.386c0,0-8.337,0-8.337,7.816V56.62c0,0,1.564,7.817,9.378,7.817s17.193,1.041,17.714-9.895
						c0.521-10.936-2.611-16.157-11.985-16.157H157.222z"/>
					<path id="Path_64531" fill="none" stroke="#000000" stroke-width="1.5" stroke-linecap="round" stroke-linejoin="round" d="
						M137.217,43.185c3.914-1.409,8.228-1.206,11.992,0.566"/>
					
						<ellipse id="Ellipse_3568" transform="matrix(-0.9899 0.1417 -0.1417 -0.9899 324.2157 71.4129)" fill="none" stroke="#000000" stroke-width="1.5" stroke-linecap="round" stroke-linejoin="round" cx="159.565" cy="47.25" rx="4.949" ry="2.605"/>
					
						<ellipse id="Ellipse_3569" transform="matrix(-0.2604 0.9655 -0.9655 -0.2604 207.4844 -65.4922)" fill="none" stroke="#000000" stroke-width="1.5" stroke-linecap="round" stroke-linejoin="round" cx="128.827" cy="46.723" rx="2.605" ry="4.949"/>
					
						<ellipse id="Ellipse_3570" transform="matrix(-1 4.855794e-006 -4.855794e-006 -1 285.2627 143.9796)" fill="#C93957" cx="142.631" cy="71.99" rx="3.126" ry="4.428"/>
					<path id="Path_64532" fill="none" stroke="#000000" stroke-width="1.5" stroke-linecap="round" stroke-linejoin="round" d="
						M146.801,69.647c0,0-1.563,3.124-4.692,3.124c-1.69,0.035-3.088-1.307-3.122-2.997c-0.001-0.043-0.001-0.086,0-0.128"/>
					<path id="Path_64533" fill="none" stroke="#000000" stroke-width="1.5" stroke-linecap="round" stroke-linejoin="round" d="
						M141.644,54.539c-1.62,0.749-2.643,2.385-2.605,4.169c0,4.168,6.772,0,6.772,0"/>
					
						<ellipse id="Ellipse_3571" transform="matrix(-1 4.855794e-006 -4.855794e-006 -1 259.8469 94.501)" cx="129.923" cy="47.251" rx="2.084" ry="2.344"/>
					
						<ellipse id="Ellipse_3572" transform="matrix(-1 4.855794e-006 -4.855794e-006 -1 321.8459 94.5008)" cx="160.923" cy="47.251" rx="1.824" ry="2.344"/>
					<path id="Path_64535" fill="none" stroke="#000000" stroke-width="1.5" stroke-linecap="round" stroke-linejoin="round" d="
						M155.711,54.539c0,0-2.083,2.604-1.562,5.21"/>
					<path id="Path_64536" fill="none" stroke="#000000" stroke-width="1.5" stroke-linecap="round" stroke-linejoin="round" d="
						M159.358,55.581c0,0-1.564,2.604-1.047,4.167"/>
					<path id="Path_64537" fill="none" stroke="#000000" stroke-width="1.5" stroke-linecap="round" stroke-linejoin="round" d="
						M163.006,55.581c0,0-1.041,2.604-0.52,4.167"/>
					<path id="Path_64538" fill="none" stroke="#000000" stroke-width="1.5" stroke-linecap="round" stroke-linejoin="round" d="
						M126.017,54.539c0,0-1.564,2.604-1.048,4.169"/>
					<path id="Path_64539" fill="none" stroke="#000000" stroke-width="1.5" stroke-linecap="round" stroke-linejoin="round" d="
						M129.14,54.539c-0.543,1.333-0.894,2.737-1.041,4.169"/>
					<path id="Path_64540" fill="none" stroke="#000000" stroke-width="1.5" stroke-linecap="round" stroke-linejoin="round" d="
						M132.267,55.581c-0.606,0.937-0.964,2.013-1.041,3.126"/>
					<path id="Path_64541" fill="none" stroke="#FFFFFF" stroke-width="1.5" stroke-linecap="round" stroke-linejoin="round" d="
						M153.106,13.899c0,0-1.562,4.692-4.168,6.251"/>
					<path id="Path_64542" fill="none" stroke="#FFFFFF" stroke-width="1.5" stroke-linecap="round" stroke-linejoin="round" d="
						M147.379,10.775c0,0-3.649,7.294-10.422,11.46"/>
					<path id="Path_64543" fill="none" stroke="#FFFFFF" stroke-width="1.5" stroke-linecap="round" stroke-linejoin="round" d="
						M136.957,12.862c-1.227,1.542-2.626,2.94-4.168,4.166"/>
					<path id="Path_64544" fill="none" stroke="#FFFFFF" stroke-width="1.5" stroke-linecap="round" stroke-linejoin="round" d="
						M181.241,24.323c0,0,3.648,7.294,3.648,10.942"/>
					<path id="Path_64545" fill="none" stroke="#000000" stroke-width="1.5" stroke-linecap="round" stroke-linejoin="round" d="
						M152.065,33.177c0,0,9.895-10.419,17.192,1.044"/>
					<path id="Path_64546" fill="none" stroke="#000000" stroke-width="1.5" stroke-linecap="round" stroke-linejoin="round" d="
						M137.421,46.203c0,0-0.52-7.816-6.251-7.816s-10.942-0.52-13.546,0c-2.604,0.52-5.209,3.645-5.209,7.816v10.942
						c0,0,0,5.732,5.731,5.732h14.587c0,0,4.692-1.044,4.692-8.858L137.421,46.203z"/>
					<path id="Path_64547" fill="none" stroke="#000000" stroke-width="1.5" stroke-linecap="round" stroke-linejoin="round" d="
						M179.585,59.723c0,0,12.406,2.73,11.132-6.187c-1.236-8.655-11.039-6.812-11.039-6.812l-4.167-1.042"/>
				</g>
				<path id="Path_59980" d="M172.218,141.383h-1.209c-2.229,0-4.477-0.08-6.584-0.162c-1.85-0.07-3.729-0.185-5.544-0.295
					l-0.981-0.059l-1.047-0.061c-1.778-0.102-3.614-0.214-5.421-0.361c-2.029-0.165-4.152-0.419-6.311-0.755
					c-1.268-0.195-2.244-0.359-3.162-0.527l-0.182-0.034c-0.504-0.092-1.008-0.184-1.508-0.285l-0.361-0.071
					c-0.408-0.078-0.824-0.159-1.224-0.259c-0.471-0.116-0.943-0.237-1.412-0.367c-0.329-0.092-0.663-0.204-0.987-0.312
					l-0.252-0.084c-0.977-0.319-1.928-0.666-2.642-0.931c-0.775-0.276-1.53-0.605-2.261-0.982l0,0l-0.095-0.049
					c-0.184-0.101-0.357-0.219-0.519-0.353c-0.191-0.132-0.326-0.328-0.383-0.553c-0.033-0.209,0.051-0.419,0.217-0.55
					c0.143-0.099,0.319-0.137,0.491-0.105h-0.038l0,0h0.042l0,0c0.218-0.009,0.423,0.104,0.53,0.295
					c0.16,0.069,0.324,0.134,0.489,0.195c0.142,0.047,0.283,0.092,0.425,0.137l0,0c0.824,0.254,1.674,0.466,2.495,0.671l0.604,0.152
					l0.633,0.163c0.404,0.105,0.809,0.207,1.215,0.306c0.523,0.124,1.039,0.235,1.53,0.332l0.314,0.064h-0.01
					c2.15,0.368,4.323,0.679,6.352,0.959l0.429,0.059c1.955,0.272,3.978,0.553,5.974,0.747c3.298,0.316,6.664,0.527,9.828,0.714
					c2.727,0.148,5.577,0.218,8.709,0.218c1.363,0,2.754-0.013,4.261-0.04c1.926-0.035,3.876-0.169,5.768-0.3l0.722-0.049
					c1.214-0.084,2.448-0.131,3.642-0.174c0.905-0.034,1.836-0.069,2.754-0.119c0.668-0.038,1.336-0.081,2.003-0.128l0.612-0.049
					c0.204-0.017,0.408-0.034,0.62-0.054l0.102-0.008h-0.016l-0.067,0.009c1.111-0.088,2.154-0.143,3.191-0.168l0.714-0.017
					c0.742-0.015,1.509-0.032,2.261-0.082c0.938-0.081,1.889-0.185,2.807-0.285c0.51-0.055,1.014-0.11,1.521-0.162l0.479-0.048
					c0.57-0.057,1.16-0.115,1.734-0.195c0.695-0.102,1.411-0.219,2.183-0.375l0.706-0.163c0.652-0.15,1.326-0.306,1.989-0.43
					c0.724-0.122,1.454-0.202,2.187-0.241c0.105-0.007,0.21-0.02,0.314-0.039c0.075-0.019,0.15-0.043,0.223-0.07l0.306-0.102
					c0.242-0.079,0.49-0.136,0.742-0.173c0.799-0.108,1.536,0.443,1.661,1.238c0.076,0.578-0.19,1.148-0.683,1.459l0,0
					c-0.168,0.108-0.357,0.177-0.555,0.204c-0.092,0.012-0.182,0.029-0.276,0.047c-0.132,0.032-0.258,0.069-0.387,0.108
					c-0.248,0.081-0.502,0.141-0.759,0.179c-0.244,0.028-0.489,0.042-0.733,0.043h-0.102c-0.3,0.007-0.6,0.023-0.898,0.044
					c-0.724,0.064-1.457,0.161-2.238,0.299l-0.612,0.11c-0.57,0.102-1.16,0.21-1.742,0.288c-1.31,0.179-2.652,0.273-3.951,0.367
					c-0.306,0.021-0.607,0.044-0.909,0.07l-0.212,0.015l0,0l0.082-0.007l-0.082,0.006l0.082-0.01l-0.503,0.04l0,0l-1.18,0.093l0,0
					h-0.056c-0.102,0.007-0.197,0.014-0.297,0.023h0.012c-0.702,0.053-1.317,0.091-1.88,0.113c-0.396,0.018-0.796,0.021-1.19,0.022
					h-0.417c-1.086,0.014-2.198,0.059-3.311,0.134h-0.043h-0.046h-0.05h0.007l-0.386,0.031h-0.035h-0.008
					c-0.981,0.076-2.027,0.153-3.076,0.193c-1.122,0.045-2.244,0.073-3.302,0.102c-1.316,0.032-2.652,0.102-3.938,0.173
					c-0.834,0.044-1.669,0.09-2.505,0.123c-1.355,0.055-2.398,0.083-3.38,0.088c-0.338,0-0.672,0-1.009,0L172.218,141.383z"/>
				<path id="Path_59999" fill="#C93957" d="M216.874,160.546c-0.862-0.062-1.723-0.138-2.582-0.212
					c-0.961-0.084-1.952-0.17-2.931-0.234c-2.149-0.143-3.791-0.21-5.318-0.214h-0.444c-1.829,0-3.475,0.027-5.036,0.084
					l-1.603,0.058c-1.335,0.05-2.671,0.102-4.006,0.136c-0.887,0.023-1.774,0.053-2.66,0.081c-0.886,0.028-1.775,0.058-2.662,0.082
					c-0.595,0.014-1.191,0.021-1.784,0.021c-0.963,0-1.926-0.015-2.889-0.032l-0.752-0.011c-1.745-0.027-4.046-0.056-6.371-0.056
					c-1.707,0-3.264,0.015-4.749,0.048c-1.661,0.034-3.35,0.089-4.984,0.139c-1.944,0.061-3.951,0.123-5.928,0.158
					c-0.825,0.012-1.651,0.018-2.478,0.018c-0.921,0-1.842-0.006-2.764-0.018c-1.525-0.02-3.162-0.083-5.311-0.204l-0.932-0.058
					c-1.355-0.084-2.708-0.167-4.063-0.238c-0.953-0.051-1.909-0.095-2.863-0.141l-2.014-0.097
					c-1.428-0.085-2.845-0.184-4.269-0.284c-2.652-0.183-9.357-0.374-12.054-0.465c-0.619-0.021-1.238-0.04-1.86-0.058
					c-1.15-0.035-2.299-0.068-3.451-0.118c-1.078-0.048-2.156-0.1-3.235-0.157c-0.792-0.04-1.583-0.079-2.376-0.116l-0.408-0.019
					l-0.437-0.016c0.037-0.296,0.084-0.589,0.135-0.878c0.197-0.855,0.44-1.697,0.727-2.526c0.129-0.388,0.254-0.775,0.372-1.167
					c0.159-0.536,0.306-1.084,0.442-1.616c0.185-0.705,0.375-1.428,0.605-2.136c0.322-0.895,0.696-1.802,1.114-2.7
					c0.595-1.063,1.247-2.132,1.99-3.264l0.049-0.072c0.233-0.345,0.473-0.7,0.733-1.031c0.285-0.361,0.555-0.692,0.827-1.01
					c0.595-0.633,1.233-1.244,1.847-1.836c0.464-0.446,0.943-0.905,1.398-1.371c0.182-0.183,0.36-0.366,0.54-0.551
					c0.333-0.342,0.663-0.684,1.004-1.02c0.441-0.434,4.896-0.888,5.533-1.473l0.046-0.042l0.044-0.038l0.061-0.054
					c0.73,0.377,1.484,0.706,2.258,0.982c0.714,0.265,1.667,0.612,2.634,0.931l0.251,0.084c0.323,0.108,0.656,0.22,0.987,0.312
					c0.47,0.131,0.942,0.251,1.413,0.367c0.408,0.102,0.822,0.182,1.224,0.259l0.361,0.071c0.502,0.102,1.004,0.193,1.507,0.285
					l0.183,0.034c0.918,0.168,1.898,0.332,3.162,0.527c2.159,0.336,4.284,0.59,6.312,0.755c1.805,0.148,3.645,0.257,5.42,0.361
					l1.051,0.061l0.982,0.059c1.815,0.11,3.692,0.224,5.544,0.295c2.107,0.083,4.355,0.162,6.585,0.162h2.217
					c0.336,0,0.672,0,1.007,0c0.982-0.005,2.026-0.033,3.381-0.088c0.834-0.034,1.67-0.08,2.503-0.123
					c1.29-0.069,2.625-0.142,3.94-0.173c1.054-0.024,2.183-0.052,3.301-0.102c1.05-0.04,2.095-0.116,3.078-0.193h0.007h0.036
					l0.387-0.031h-0.008h0.049h0.047h0.043c1.113-0.073,2.225-0.119,3.311-0.133h0.417c0.396,0,0.796,0,1.19-0.022
					c0.564-0.023,1.179-0.061,1.88-0.113h-0.011c0.102-0.009,0.197-0.017,0.297-0.023h0.054l0,0l1.178-0.094l0,0l0.503-0.04
					l-0.157,0.006c0.4-0.039,0.802-0.068,1.201-0.096c1.299-0.094,2.641-0.189,3.953-0.367c0.584-0.078,1.171-0.185,1.74-0.288
					l0.612-0.11c0.78-0.138,1.515-0.235,2.238-0.299c0.299-0.019,0.6-0.037,0.9-0.044h0.102c0.245-0.002,0.49-0.016,0.733-0.043
					c0.257-0.038,0.511-0.098,0.759-0.179c0.129-0.039,0.258-0.077,0.389-0.108c0.093-0.018,0.184-0.034,0.275-0.047
					c0.197-0.027,0.386-0.096,0.552-0.204c0.55,0.747,1.077,1.524,1.584,2.277l0.504,0.742l-0.069-0.089l-0.069-0.092
					c0.621,0.916,1.19,1.867,1.705,2.847c0.702,1.428,1.287,2.77,1.792,4.111c0.377,1.119,0.695,2.257,0.948,3.411
					c0.247,1.242,0.469,2.504,0.671,3.683c0.204,1.216,0.349,2.302,0.436,3.317l0.012,0.22c-0.009,0.49,0.091,0.975,0.292,1.421
					c0.121,0.217,0.3,0.398,0.516,0.522l0,0l0,0C219.68,160.737,218.234,160.642,216.874,160.546z"/>
				<path id="Path_64791" d="M114.201,157.543L114.201,157.543L114.201,157.543c0.236-0.054,0.453-0.172,0.626-0.342
					c0.3-0.35,0.514-0.765,0.626-1.213l0.063-0.194c0.333-0.902,0.735-1.852,1.232-2.906c0.485-1.02,1.004-2.112,1.546-3.176
					c0.528-0.985,1.111-1.94,1.746-2.86c0.857-1.138,1.771-2.233,2.737-3.279c0.629-0.647,1.267-1.244,1.941-1.817
					c0.097-0.08,0.196-0.166,0.295-0.249l-0.027,0.02l-0.04,0.031l0.038-0.03l-0.039,0.028l0.669-0.545
					c0.668-0.55,1.36-1.114,2.067-1.649c0.569-0.431,1.149-0.848,1.751-1.235c0.263-0.157,0.527-0.313,0.793-0.465l0,0
					c0.547-0.317,1.122-0.64,1.766-0.987l0.72-0.389c0.619-0.34,1.245-0.678,1.874-1.006c0.502-0.259,1.019-0.507,1.518-0.747
					c0.374-0.179,0.746-0.358,1.117-0.546c0.276-0.137,0.55-0.275,0.826-0.412c0.611-0.307,1.221-0.614,1.835-0.91
					c0.372-0.164,0.747-0.321,1.123-0.477c0.712-0.293,1.439-0.6,2.128-0.955c0.436-0.224,2.853-0.469,3.274-0.706
					c0.563-0.318-0.055-0.343,0.539-0.629c0.237-0.096,0.473-0.19,0.707-0.273s0.454-0.168,0.678-0.262
					c0.092-0.037,0.183-0.071,0.275-0.106c0.139-0.052,0.279-0.102,0.412-0.164c0.674-0.065,1.266-0.478,1.56-1.089
					c0.096-0.226,0.173-0.459,0.233-0.697l0.05-0.186c0.085-0.294,0.167-0.589,0.252-0.883c0.156-0.555,0.332-1.104,0.513-1.666
					l0.086-0.267c0.336-1.054,0.679-2.141,0.928-3.237c0.558-2.303,0.985-4.636,1.28-6.988l0,0c0.01-0.089,0.018-0.175,0.027-0.264
					c0.104-1.028,0.214-2.046,0.322-3.069c0.049-0.48,0.109-0.964,0.126-1.444c0.008-0.227,0.009-0.453,0.002-0.679
					c0.004-0.223-0.045-0.444-0.144-0.644c-0.08-0.134-0.215-0.225-0.369-0.248c-0.145-0.141-0.315-0.253-0.502-0.33
					c-0.904-0.379-0.692-0.206-0.963,0.656c-0.089,0.345-0.147,0.696-0.176,1.051c-0.053,0.394-0.105,0.786-0.163,1.178
					c-0.116,0.798-0.259,1.593-0.405,2.387c-0.049,0.272-0.097,0.545-0.147,0.816l0,0c-0.235,1.27-0.466,2.585-0.721,3.872
					c-0.116,0.516-0.24,1.03-0.369,1.542c-0.186,0.473-0.403,1.03-0.6,1.593c-0.319,0.902-0.612,1.828-0.894,2.725l-0.094,0.302
					c-0.327,1.032-0.592,1.97-0.806,2.87c-0.052,0.198-0.071,0.402-0.057,0.606c-0.194,0.054-0.384,0.102-0.572,0.163
					c-0.867,0.262-3.681,0.656-4.483,1.037l-0.547,0.258l-0.155,0.071c-0.78,0.346-1.598,0.642-2.391,0.926l-0.317,0.115
					c-0.983,0.357-1.94,0.787-2.886,1.218c-0.47,0.215-0.949,0.421-1.426,0.628c-0.722,0.311-1.469,0.634-2.186,0.985
					c-1.216,0.597-2.425,1.238-3.456,1.795c-1.166,0.612-2.295,1.292-3.381,2.037c-0.733,0.515-1.444,1.091-2.131,1.646
					c-0.277,0.221-0.551,0.444-0.827,0.662c-1.058,0.829-2.055,1.732-2.987,2.701c-0.898,0.94-1.736,1.937-2.51,2.983
					c-0.791,1.066-1.483,2.201-2.069,3.392c-0.516,1.047-0.977,2.138-1.426,3.192l-0.095,0.231c-0.542,1.268-0.99,2.421-1.38,3.517
					c-0.079,0.213-0.162,0.426-0.247,0.641c-0.109,0.243-0.184,0.5-0.222,0.763c-0.043,0.416,0.094,0.83,0.376,1.139
					c0.104,0.112,0.223,0.207,0.356,0.283c0.115,0.065,0.239,0.116,0.366,0.151C113.658,157.603,113.935,157.606,114.201,157.543z"
					/>
			</g>
		</g>
		<path id="Path_60119" fill="#FFFFFF" d="M142.96,152.52c-0.981-0.007-1.961-0.114-2.92-0.319c-0.445-0.094-0.883-0.223-1.326-0.34
			c-0.475-0.126-0.952-0.247-1.428-0.377c-0.918-0.25-1.817-0.545-2.712-0.863c-0.617-0.219-1.232-0.434-1.854-0.635
			c0.038,0.01,0.073,0.022,0.108,0.033c-0.901-0.276-1.809-0.538-2.699-0.849c-0.891-0.311-1.771-0.649-2.641-1.013
			c-0.87-0.364-1.768-0.742-2.628-1.16c-0.852-0.434-1.672-0.926-2.454-1.475c-0.386-0.26-0.774-0.51-1.168-0.755
			c-0.621-0.37-1.249-0.727-1.863-1.107l-0.018-0.011h-0.007l0,0l-0.115-0.071l0,0l-0.089-0.056l0.007,0.006l-0.176-0.11
			l0.025,0.017l-0.488-0.306c0.032,0.017,0.062,0.037,0.092,0.055l-0.112-0.069l0.014,0.009l-0.051-0.032l-0.04-0.024l0.022,0.014
			l-0.368-0.228c0.029,0.019,0.059,0.037,0.09,0.056c-1.051-0.643-2.159-1.201-3.177-1.898c-0.527-0.365-1.035-0.758-1.522-1.177
			c-0.264-0.225-0.51-0.476-0.749-0.723c-0.039-0.014-0.077-0.032-0.113-0.052c-0.267-0.18-0.484-0.425-0.627-0.714
			c-0.174-0.392,0.001-0.852,0.394-1.026c0.028-0.012,0.055-0.022,0.083-0.032c0.552-0.195,0.989,0.362,1.338,0.703
			c0.349,0.341,0.689,0.637,1.05,0.938c0.392,0.306,0.794,0.592,1.209,0.869c0.644,0.393,1.306,0.751,1.963,1.122
			c0.729,0.408,1.443,0.836,2.16,1.264c0.656,0.391,1.334,0.751,1.99,1.146c0.68,0.408,1.342,0.855,2.011,1.29
			c0.542,0.338,1.103,0.645,1.679,0.918l-0.068-0.03l0.085,0.038l0.018,0.008l-0.014-0.007l0.378,0.17
			c0.931,0.408,1.865,0.809,2.806,1.185c0.9,0.359,1.82,0.67,2.742,0.963c0.446,0.136,0.894,0.268,1.34,0.408l-0.023-0.007
			l0.085,0.027l-0.027-0.009c1.224,0.378,2.421,0.851,3.645,1.237c0.639,0.19,1.284,0.36,1.928,0.532
			c0.692,0.188,1.382,0.377,2.083,0.526l-0.11-0.018l0.169,0.029l-0.111-0.018l0.243,0.042h-0.025l0.036,0.006l0.075,0.013
			l-0.047-0.009c0.488,0.074,0.978,0.124,1.471,0.15c1.255,0.039,2.511,0.007,3.763-0.095c0.806-0.084,1.598-0.197,2.391-0.359
			c1.668-0.391,3.31-0.882,4.918-1.473c0.906-0.354,1.807-0.724,2.716-1.07h-0.008l0.045-0.017l0.067-0.025h-0.011l0.082-0.031
			l0.066-0.025l-0.028,0.01l0.182-0.069l-0.014,0.005l0.041-0.015l0.072-0.028l-0.035,0.013l0.306-0.115l-0.113,0.042l0.221-0.083
			l-0.018,0.007l0.096-0.037l0.017-0.006l-0.017,0.006c0.963-0.367,1.902-0.794,2.812-1.278c0.822-0.449,1.632-0.918,2.407-1.44
			c0.775-0.522,1.535-1.051,2.31-1.564c1.561-1.037,3.154-2.028,4.704-3.08c0.403-0.271,0.797-0.554,1.19-0.836
			c1.063-0.753,2.082-1.566,3.051-2.436c0.585-0.587,1.122-1.215,1.658-1.846c0.536-0.631,1.102-1.199,1.632-1.819
			c0.183-0.232,0.352-0.47,0.51-0.714c0.114-0.198,0.23-0.4,0.339-0.603c0.134-0.271,0.281-0.537,0.441-0.794
			c0.328-0.46,0.966-0.566,1.426-0.239c0.46,0.327,0.567,0.966,0.239,1.426l0,0c-0.018,0.027-0.037,0.054-0.054,0.083
			c-0.427,0.767-0.918,1.497-1.466,2.183c-0.587,0.685-1.218,1.332-1.811,2.016c-0.588,0.721-1.226,1.397-1.912,2.026
			c-0.699,0.603-1.434,1.16-2.175,1.71l-0.331,0.244l0.051-0.037c-1.52,1.109-3.106,2.11-4.692,3.127
			c-0.782,0.502-1.561,1.01-2.336,1.523c-0.795,0.524-1.576,1.068-2.383,1.575c-0.949,0.579-1.929,1.107-2.936,1.58
			c-1.01,0.488-2.068,0.864-3.114,1.256c-0.896,0.342-1.781,0.709-2.68,1.038c-0.918,0.34-1.858,0.629-2.803,0.905
			c-0.946,0.275-1.88,0.51-2.834,0.714c-0.944,0.18-1.897,0.296-2.856,0.348c-0.638,0.045-1.276,0.055-1.915,0.055
			C143.488,152.523,143.221,152.522,142.96,152.52z"/>
		<path id="Path_60069" d="M135.341,178.365c-0.144-0.828-0.18-1.678-0.248-2.516c-0.072-0.866-0.146-1.734-0.224-2.596
			c-0.163-1.782-0.311-3.57-0.422-5.354c-0.111-1.742-0.188-3.488-0.278-5.23c-0.091-1.742-0.184-3.458-0.257-5.187
			c-0.072-1.709-0.155-3.416-0.234-5.125c-0.08-1.768-0.134-3.537-0.188-5.304c-0.055-1.727-0.126-3.454-0.152-5.181
			c-0.028-1.829-0.028-3.656-0.037-5.484c-0.019-3.474-0.102-6.948-0.131-10.421c-0.036-3.494-0.098-6.987-0.185-10.48
			c-0.086-3.56-0.028-7.122-0.077-10.684c-0.022-1.716-0.082-3.431-0.102-5.147c-0.027-1.769-0.053-3.54-0.095-5.304
			c-0.043-1.734-0.093-3.475-0.136-5.216c-0.043-1.74-0.057-3.498-0.082-5.247c-0.046-3.474-0.023-6.949-0.16-10.422
			c-0.069-1.776-0.193-3.553-0.266-5.329c-0.066-1.681-0.102-3.366-0.136-5.047c-0.038-1.734-0.059-3.468-0.022-5.202
			c0.038-1.829,0.117-3.654,0.23-5.48c0.041-0.685,0.081-1.369,0.122-2.054c0-0.158,0.011-0.317,0.029-0.473l0,0
			c0-0.072,0.006-0.144,0.01-0.215c0-0.14,0.016-0.279,0.026-0.418c0.097-1.739,0.187-3.478,0.269-5.219
			c0.085-1.684,0.13-3.371,0.242-5.054c0.228-3.476,0.481-6.949,0.783-10.419c0.284-3.221,0.633-6.437,0.846-9.663
			c0.082-1.392,0.178-2.778,0.349-4.163c0.083-0.686,0.164-1.378,0.306-2.057c0.031-0.402,0.173-0.786,0.414-1.11
			c0.173-0.163,0.403-0.253,0.641-0.251l-0.102,0.007h0.009c0.423-0.057,0.814,0.239,0.871,0.663
			c0.004,0.029,0.006,0.058,0.007,0.087c0.002,0.201-0.076,0.395-0.217,0.538c-0.03,0.235-0.048,0.468-0.066,0.705
			c-0.043,0.834-0.064,1.67-0.065,2.507c0,0.84,0.038,1.676,0.065,2.515c0.06,1.8,0.061,3.599,0.024,5.399
			c-0.073,3.52-0.215,7.038-0.393,10.556c-0.084,1.664-0.189,3.327-0.273,4.992c-0.091,1.768-0.145,3.537-0.228,5.304
			c-0.084,1.7-0.174,3.398-0.275,5.093c0.001,0.072-0.003,0.144-0.012,0.215c0,0.182-0.007,0.368-0.028,0.549
			s-0.027,0.375-0.039,0.558c-0.019,0.318-0.038,0.634-0.058,0.952c-0.04,0.658-0.079,1.316-0.118,1.974
			c-0.094,1.727-0.151,3.454-0.171,5.182c-0.024,1.743,0.027,3.49,0.062,5.232c0.034,1.72,0.068,3.441,0.145,5.16
			c0.077,1.72,0.171,3.468,0.204,5.202c0.033,1.734,0.036,3.493,0.033,5.238c-0.003,1.745,0.011,3.497,0.018,5.246
			c0.011,3.459,0.097,6.917,0.142,10.377c0.021,1.783,0.018,3.57,0.039,5.35c0.019,1.734,0.057,3.468,0.049,5.202
			c-0.008,1.794-0.038,3.587-0.053,5.382c-0.021,1.742,0.015,3.485,0.046,5.226c0.063,3.483,0.04,6.965,0.037,10.446
			s0.031,6.982,0.018,10.475c-0.006,1.788-0.007,3.577,0.037,5.365c0.044,1.788,0.102,3.578,0.158,5.37
			c0.049,1.767,0.134,3.532,0.226,5.297c0.089,1.713,0.165,3.426,0.25,5.14c0.086,1.777,0.193,3.553,0.289,5.331
			c0.097,1.749,0.174,3.499,0.306,5.247c0.009,0.102,0.015,0.213,0.024,0.319c-0.005-0.056-0.009-0.113-0.013-0.169
			c0.008,0.121,0.018,0.243,0.027,0.364c0-0.018,0-0.037,0-0.055c0,0.079,0.011,0.157,0.017,0.235
			c0.108,1.277,0.226,2.55,0.34,3.832c0.112,1.249,0.21,2.509,0.441,3.742c0.012,0.051,0.023,0.102,0.036,0.152
			c0.191,0.716-0.222,1.453-0.932,1.665c-0.117,0.034-0.24,0.051-0.362,0.051C136.015,179.523,135.445,179.03,135.341,178.365z"/>
		<path id="Path_60070" d="M277.416,169.822c-0.326-0.333-0.486-0.794-0.434-1.257c0.039-0.495,0.102-0.986,0.148-1.481
			c0.044-0.527,0.082-1.054,0.113-1.581v0.015c0.09-1.656,0.146-3.315,0.198-4.975c0.057-1.712,0.148-3.422,0.243-5.132
			c0.185-3.327,0.357-6.655,0.516-9.983c0.163-3.363,0.256-6.726,0.278-10.091c0.01-1.671,0.023-3.344,0.071-5.015
			c0.048-1.71,0.102-3.418,0.102-5.13c0-1.625-0.076-3.25-0.129-4.875c-0.056-1.678-0.083-3.358-0.082-5.04
			c0-1.734,0.014-3.461,0.044-5.191c0.03-1.73,0.092-3.446,0.131-5.17c0.08-3.408,0.021-6.815-0.087-10.221
			c-0.052-1.668-0.129-3.336-0.18-5.004c-0.049-1.726-0.07-3.452-0.09-5.178c-0.021-1.668-0.039-3.34-0.11-5.005
			c-0.08-1.772-0.171-3.544-0.293-5.313c-0.112-1.644-0.216-3.289-0.298-4.933c-0.082-1.696-0.128-3.394-0.171-5.092
			c-0.044-1.698-0.073-3.426-0.139-5.139c-0.063-1.67-0.144-3.338-0.204-5.009c-0.107-3.41-0.151-6.825-0.255-10.237
			c-0.051-1.592-0.129-3.186-0.139-4.78c-0.013-1.788,0.037-3.57,0.102-5.359c0.122-3.298,0.36-6.588,0.559-9.88
			c0.23-3.769,0.464-7.538,0.703-11.305c0.034-0.644,0.059-1.29,0.074-1.938c0.007-0.298,0-0.597,0-0.894
			c-0.019-0.223-0.001-0.448,0.055-0.664l0,0c0.114-0.249,0.409-0.358,0.658-0.244c0.087,0.04,0.159,0.103,0.211,0.184
			c0.048,0.086,0.08,0.18,0.091,0.277c0.03,0.162,0.054,0.324,0.077,0.487c0.059,0.425,0.11,0.851,0.155,1.276
			c0.08,0.78,0.122,1.564,0.164,2.346c0.09,1.716,0.178,3.429,0.279,5.145c0.102,1.696,0.204,3.393,0.296,5.089
			c0.092,1.696,0.134,3.407,0.176,5.11c0.084,3.347,0.071,6.698,0.204,10.042c0.067,1.627,0.19,3.25,0.255,4.877
			c0.068,1.663,0.111,3.325,0.13,4.988c0.04,3.426,0.101,6.852,0.184,10.278c0.077,3.409,0.051,6.819,0.162,10.227
			c0.111,3.408,0.373,6.819,0.478,10.233c0.108,3.357-0.032,6.714,0.015,10.071c0.022,1.707,0.087,3.413,0.128,5.121
			c0.04,1.76,0.067,3.52,0.075,5.282c0.006,1.674-0.016,3.349-0.056,5.021s-0.11,3.319-0.143,4.979
			c-0.067,3.442-0.095,6.887,0,10.328c0.041,1.601,0.102,3.204,0.065,4.805c-0.038,1.762-0.115,3.52-0.184,5.281
			c-0.128,3.301-0.102,6.603-0.224,9.903c-0.128,3.388-0.345,6.771-0.546,10.156c-0.03,0.475-0.058,0.952-0.085,1.428
			c0-0.065,0.007-0.13,0.01-0.193c-0.107,1.904-0.221,3.805-0.341,5.702v-0.02c-0.102,1.938-0.17,3.876-0.233,5.814
			c-0.033,1.011-0.069,2.021-0.11,3.031c-0.037,0.918-0.024,1.829-0.067,2.741c-0.003,0.403-0.16,0.788-0.44,1.078
			c-0.278,0.281-0.656,0.441-1.051,0.446h-0.016C278.073,170.25,277.696,170.095,277.416,169.822z"/>
		<path id="Path_60071" d="M136.961,13.189l-0.047-0.032c-0.117-0.074-0.236-0.142-0.357-0.204c-0.171-0.065-0.328-0.164-0.46-0.292
			c-0.114-0.139-0.123-0.337-0.023-0.487c0.372-0.416,0.856-0.715,1.394-0.862c1.43-0.508,2.9-0.898,4.393-1.166
			c1.505-0.303,3.016-0.572,4.534-0.809c1.456-0.227,2.916-0.384,4.379-0.563c3.024-0.372,6.038-0.833,9.071-1.134
			c1.573-0.156,3.147-0.262,4.724-0.382c1.516-0.114,3.029-0.267,4.542-0.42c2.958-0.3,5.916-0.612,8.883-0.86
			c1.537-0.13,3.073-0.253,4.609-0.387c1.511-0.133,3.023-0.233,4.537-0.267c1.02-0.023,2.04-0.032,3.06-0.046
			c0.898-0.014,1.793-0.062,2.692-0.111c1.151-0.08,2.298-0.172,3.447-0.257c1.133-0.085,2.274-0.13,3.409-0.169
			c1.108-0.039,2.217-0.038,3.324-0.052c1.138-0.016,2.273-0.057,3.409-0.102c1.502-0.086,2.999-0.185,4.501-0.227
			c1.523-0.043,3.048-0.019,4.57,0c1.447,0.016,2.893-0.007,4.34-0.023c1.548-0.019,3.1-0.013,4.647-0.063
			c0.54-0.018,1.078-0.045,1.618-0.072h-0.02h0.036h0.027h0.064h-0.067c0.149-0.009,0.297-0.021,0.444-0.023l0.179-0.009
			l-0.124,0.007c1.513-0.082,3.022-0.102,4.536-0.102c1.469,0,2.936-0.013,4.407-0.013c1.564,0,3.127,0.015,4.692,0
			c1.474-0.01,2.95-0.056,4.422-0.046c1.576,0.009,3.143,0.065,4.718,0.162c1.428,0.089,2.862,0.187,4.294,0.204
			c1.574,0.021,3.147,0.018,4.721,0.051c1.443,0.03,2.879,0.158,4.314,0.273c1.129,0.074,2.257,0.128,3.389,0.123
			c1.198,0,2.401-0.058,3.597,0.045c1.146,0.102,2.278,0.3,3.409,0.48c0.495,0.079,0.987,0.154,1.482,0.232
			c0.555,0.086,1.099,0.217,1.646,0.339c0.541,0.09,1.074,0.218,1.596,0.385c0.959,0.469,1.647,1.357,1.864,2.402
			c0.105,0.384,0.076,0.793-0.085,1.157c-0.187,0.445-0.543,0.798-0.989,0.98c-0.447,0.182-0.947,0.18-1.391-0.006
			c-0.434-0.19-0.779-0.536-0.969-0.969l-0.049-0.084c-0.085-0.02-0.17-0.04-0.255-0.058c-0.522-0.102-1.05-0.173-1.572-0.279
			c-0.57-0.115-1.143-0.22-1.717-0.313c-1.197-0.193-2.396-0.389-3.601-0.519c-0.701-0.046-1.403-0.051-2.106-0.048
			c-0.796,0-1.588-0.006-2.382-0.031c-1.614-0.052-3.219-0.257-4.826-0.408c-2.82-0.204-5.65-0.183-8.466-0.402l0.095,0.006
			l-1.117-0.087l0.22,0.017c-0.44-0.034-0.878-0.071-1.316-0.102c-0.706-0.052-1.412-0.099-2.118-0.14
			c-0.779-0.046-1.562-0.052-2.346-0.064c-1.458-0.023-2.917,0.008-4.373,0.015c-1.57,0.007-3.136,0.009-4.704,0.032
			c-1.499,0.021-2.999,0.06-4.499,0.071c-1.4,0.009-2.796,0.016-4.193,0.085l-0.128,0.008c-0.056,0.005-0.11,0.009-0.166,0.009
			c-1.414,0.081-2.827,0.152-4.242,0.179c-1.46,0.029-2.916,0.055-4.376,0.059c-1.496,0-2.995-0.032-4.488-0.056
			c-0.743-0.012-1.486-0.035-2.228-0.022c-0.777,0.012-1.556,0.033-2.333,0.061c-0.976,0.036-1.951,0.102-2.931,0.138
			c-1.031,0.038-2.061,0.064-3.094,0.068c-2,0.01-3.994,0.028-5.992,0.112c-1.035,0.063-2.069,0.136-3.101,0.19
			c-1.155,0.059-2.306,0.094-3.459,0.11c-0.987,0.013-1.976-0.024-2.966-0.024c-1.069,0-2.136,0.028-3.203,0.07
			c-2.997,0.181-5.994,0.372-8.989,0.594c-2.995,0.221-6.018,0.467-9.025,0.664c-1.537,0.102-3.073,0.156-4.61,0.227l0.16-0.009
			l-1.163,0.062l0.159-0.009c-1.472,0.081-2.944,0.186-4.414,0.306c-1.47,0.12-2.951,0.261-4.427,0.366
			c-1.612,0.114-3.225,0.204-4.837,0.319c-1.506,0.102-3.014,0.25-4.519,0.401c-1.261,0.128-2.519,0.291-3.774,0.491
			c-0.6,0.107-1.192,0.247-1.776,0.42c-0.133,0.048-0.264,0.102-0.393,0.158c0.185,0.118,0.37,0.236,0.552,0.357
			c0.222,0.148,0.053,0.442-0.161,0.442C137.047,13.249,136.998,13.225,136.961,13.189z"/>
		<path id="Path_60072" d="M135.208,19.31c-0.645-0.183-1.023-0.85-0.849-1.496c0.014-0.049,0.029-0.102,0.039-0.15l0,0
			l-0.007,0.041v-0.008v-0.017v0.013c0.009-0.038,0.016-0.075,0.023-0.112c-0.006,0.027-0.011,0.054-0.017,0.081
			c0.066-0.326,0.118-0.655,0.181-0.981c0.075-0.408,0.164-0.816,0.256-1.224c0.169-0.752,0.36-1.499,0.562-2.244
			c0.113-0.42,0.258-0.833,0.408-1.241c0.098-0.265,0.224-0.518,0.378-0.755c0.257-0.401,0.641-0.705,1.089-0.864
			c0.772-0.209,1.568-0.323,2.368-0.34c0.728-0.062,1.452-0.162,2.178-0.235c0.774-0.077,1.55-0.108,2.327-0.147
			c0.745-0.045,1.485-0.112,2.226-0.204c0.778-0.091,1.559-0.192,2.339-0.262c0.816-0.071,1.639-0.132,2.462-0.16
			c0.794-0.028,1.589-0.033,2.382-0.039c0.647-0.006,1.292-0.016,1.938-0.041c0.752-0.047,1.503-0.114,2.25-0.212
			c0.794-0.102,1.588-0.226,2.382-0.335c0.794-0.108,1.573-0.184,2.359-0.248c0.753-0.061,1.509-0.087,2.261-0.111
			c0.816-0.027,1.632-0.06,2.448-0.102h-0.049c0.905-0.049,1.81-0.102,2.716-0.14c0.445-0.019,0.893-0.031,1.339-0.041
			c0.404-0.017,0.808,0.01,1.206,0.082c0.069,0.01,0.136,0.035,0.195,0.071c0.104,0.079,0.123,0.226,0.045,0.33
			c0,0.001-0.001,0.002-0.002,0.002c-0.064,0.086-0.179,0.116-0.277,0.074l0,0c-0.078-0.013-0.155-0.02-0.233-0.027
			c-0.301-0.013-0.598,0-0.9,0.013h0.007c-1.579,0.102-3.15,0.293-4.723,0.459c-0.772,0.081-1.541,0.147-2.313,0.219
			c-0.745,0.069-1.495,0.143-2.233,0.269c-0.277,0.049-0.556,0.096-0.833,0.143c-0.754,0.145-1.506,0.306-2.256,0.474
			c-0.801,0.181-1.601,0.352-2.41,0.479c-1.546,0.243-3.116,0.286-4.675,0.394c-1.576,0.108-3.142,0.315-4.702,0.561
			c-0.767,0.122-1.53,0.244-2.306,0.338c-0.776,0.094-1.53,0.146-2.296,0.251c-0.674,0.092-1.344,0.224-2.019,0.329
			s-1.338,0.186-2.003,0.306c-0.095,0.02-0.19,0.043-0.284,0.068v0.008c-0.083,0.183-0.155,0.37-0.223,0.559
			c-0.343,1.099-0.626,2.215-0.848,3.344v-0.016l-0.017,0.085c0.007-0.034,0.014-0.066,0.021-0.102
			c-0.064,0.321-0.124,0.642-0.185,0.964c-0.029,0.152-0.057,0.306-0.089,0.456c-0.036,0.248-0.102,0.49-0.199,0.72
			c-0.106,0.243-0.284,0.446-0.51,0.583c-0.187,0.107-0.398,0.163-0.612,0.162C135.417,19.341,135.311,19.332,135.208,19.31z"/>
		<path id="Path_60073" d="M277.607,20.774c-0.16-0.119-0.275-0.291-0.324-0.485c-0.029-0.129-0.041-0.259-0.035-0.391
			c0-0.156,0-0.312,0-0.466c0-0.325,0-0.651-0.013-0.976c-0.013-0.639-0.038-1.276-0.051-1.915c-0.011-0.671,0-1.342,0-2.013
			c0.004-0.631-0.001-1.263-0.016-1.894c-0.013-0.582-0.038-1.165-0.067-1.747c-0.015-0.274-0.029-0.551-0.041-0.825
			c-0.01-0.258,0-0.516-0.016-0.774V9.263c-0.034-0.051-0.062-0.106-0.084-0.163c-0.038-0.092-0.067-0.189-0.102-0.281
			c-0.064-0.112-0.067-0.249-0.009-0.364c0.086-0.137,0.253-0.199,0.408-0.152c0.189,0.066,0.347,0.198,0.447,0.371l0,0
			c0.161-0.195,0.402-0.307,0.655-0.306c0.379,0.008,0.718,0.242,0.861,0.594c0.109,0.276,0.177,0.567,0.204,0.863
			c0.044,0.335,0.089,0.669,0.135,1.003c0.081,0.6,0.192,1.197,0.284,1.795c0.204,1.321,0.315,2.652,0.419,3.984
			c0.024,0.23-0.039,0.46-0.177,0.646c-0.146,0.189-0.361,0.311-0.599,0.341c-0.121,0.014-0.244,0.003-0.36-0.033
			c-0.015,0.408-0.033,0.823-0.049,1.234c-0.019,0.469-0.042,0.938-0.085,1.406c-0.043,0.307-0.246,0.567-0.533,0.683
			c-0.103,0.042-0.213,0.063-0.324,0.063C277.942,20.947,277.759,20.886,277.607,20.774z"/>
		<path id="Path_60074" d="M171.895,199.949c-0.462-0.278-0.736-0.786-0.714-1.326c0-0.159,0.016-0.316,0.013-0.475
			c0-0.475,0.006-0.948,0.02-1.423c0.031-1.06,0.085-2.113,0.166-3.168v0.025c0-0.043,0.006-0.086,0.01-0.129v0.009
			c0.08-1.02,0.194-2.047,0.29-3.071c0.102-1.087,0.204-2.173,0.29-3.264c0,0.065-0.011,0.133-0.014,0.198
			c0.076-1.02,0.164-2.031,0.306-3.041c0.129-0.933,0.24-1.866,0.318-2.804c0.051-0.706,0.096-1.413,0.148-2.118
			c0.043-0.586,0.102-1.169,0.155-1.752l-0.213,0.008c-1.091,0.071-2.167,0.275-3.248,0.423c-0.525,0.072-17.154,0.129-17.68,0.212
			s-1.075,0.192-1.613,0.284c-2.266,0.326-4.547,0.532-6.834,0.619c-0.555,0.035-1.109,0.073-1.661,0.126s-1.122,0.131-1.693,0.175
			c-0.548,0.043-1.097,0.068-1.646,0.088h-0.161c0.001,0.018,0.001,0.037,0,0.055c-0.008,0.301-0.258,0.54-0.56,0.531
			c-0.017,0-0.035-0.002-0.052-0.004c-0.148-0.024-0.288-0.084-0.408-0.172c-0.124-0.108-0.234-0.232-0.324-0.369
			c-0.021-0.024-0.044-0.047-0.068-0.068c-0.023-0.019-0.049-0.038-0.073-0.056h-0.005c-0.315-0.112-0.479-0.459-0.366-0.774
			c0.038-0.106,0.105-0.2,0.193-0.27c0.249-0.132,0.524-0.201,0.806-0.204c0.298-0.046,0.591-0.102,0.885-0.152l-0.041,0.008
			l0.064-0.013l0.034-0.006h-0.024c0.787-0.159,1.565-0.347,2.346-0.526c0.893-0.204,1.794-0.367,2.701-0.502
			c0.907-0.135,1.789-0.283,2.684-0.422c0.811-0.124,1.624-0.236,2.433-0.385l0.255-0.048l-0.167,0.032l0.5-0.094l-0.17,0.032
			c0.997-0.188,1.969-0.475,2.958-0.68c0.543-0.111,17.196-0.187,17.749-0.273c0.553-0.087,1.081-0.18,1.619-0.267
			c0.502-0.081,1.003-0.141,1.509-0.179c0.533-0.053,1.071-0.06,1.607-0.02c0.493,0.04,0.945,0.288,1.242,0.681
			c0.283,0.437,0.415,0.953,0.38,1.471c-0.006,0.568-0.069,1.135-0.113,1.7c-0.09,1.326-0.116,2.645-0.214,3.965
			c-0.102,1.406-0.315,2.801-0.43,4.205c-0.102,1.464-0.221,2.928-0.408,4.386c-0.137,1.035-0.291,2.069-0.408,3.106
			c0.261-0.353,0.525-0.704,0.794-1.052c0.593-0.769,1.188-1.536,1.787-2.301c0.601-0.766,1.241-1.499,1.882-2.231
			c-0.02,0.024-0.042,0.049-0.063,0.073c0.024-0.028,0.047-0.055,0.072-0.083l0.057-0.064l-0.056,0.062
			c0.551-0.64,1.08-1.292,1.579-1.976c0.499-0.683,1.009-1.355,1.542-2.012c0.553-0.681,1.116-1.353,1.656-2.048
			c0.581-0.751,1.186-1.475,1.811-2.189c-0.016,0.02-0.035,0.041-0.053,0.061c0.732-0.843,1.456-1.696,2.142-2.574
			c0.362-0.459,0.705-0.932,1.072-1.388c0.34-0.424,0.69-0.841,1.02-1.27c0.568-0.723,1.609-0.862,2.346-0.312
			c0.724,0.568,0.861,1.612,0.306,2.346c-0.401,0.491-0.816,0.974-1.187,1.484c-0.394,0.529-0.773,1.065-1.18,1.583
			c-0.87,1.11-1.803,2.159-2.742,3.209c-0.423,0.491-0.83,0.994-1.244,1.491c-0.477,0.577-0.979,1.132-1.477,1.693
			c-0.76,0.887-1.459,1.826-2.215,2.718c-0.435,0.51-0.918,0.98-1.38,1.462c-0.43,0.448-0.848,0.908-1.26,1.372
			c-0.724,0.845-1.44,1.694-2.147,2.55c-0.735,0.889-1.438,1.81-2.142,2.722c-0.346,0.444-0.66,0.912-0.983,1.373
			c-0.163,0.252-0.344,0.492-0.539,0.72c-0.272,0.302-0.66,0.473-1.067,0.473C172.35,200.132,172.109,200.071,171.895,199.949z"/>
		<path id="Path_60075" d="M139.292,179.202c-0.266-0.022-0.535-0.045-0.8-0.09c-0.507-0.046-0.996-0.21-1.428-0.479
			c-0.314-0.221-0.532-0.553-0.612-0.928c-0.052-0.242-0.061-0.492-0.027-0.736c0.04-0.251,0.123-0.493,0.247-0.714
			c0.121-0.262,0.306-0.49,0.538-0.662c0.269-0.149,0.609-0.052,0.758,0.218c0.009,0.016,0.017,0.034,0.025,0.051
			c0.042,0.135,0.058,0.276,0.047,0.417c0.011,0.128-0.025,0.254-0.102,0.356c-0.028,0.036-0.06,0.067-0.096,0.094
			c-0.011,0.07-0.021,0.141-0.028,0.211c0,0.042,0,0.083,0,0.124c0,0.042,0.008,0.069,0.015,0.102
			c0.005,0.027,0.011,0.053,0.019,0.08l0.096,0.029c0.093,0.016,0.187,0.028,0.281,0.038c0.162,0.006,0.322,0,0.486,0
			c1.166-0.09,2.326-0.242,3.475-0.456c1.11-0.219,2.213-0.488,3.325-0.693c1.174-0.217,2.358-0.349,3.542-0.521
			c1.183-0.172,2.369-0.408,3.555-0.604c1.123-0.187,2.257-0.307,3.395-0.36h0.24c0.943,0.019,1.695,0.792,1.692,1.734
			c-0.021,0.943-0.792,1.694-1.734,1.694c-0.518-0.008-1.034,0-1.55,0.027c-0.958,0.058-1.915,0.154-2.868,0.277
			c-1.081,0.138-2.158,0.245-3.247,0.306l0.193-0.01l-0.33,0.018h0.045l-0.117,0.006h-0.079h-0.006
			c-1.196,0.068-2.385,0.165-3.577,0.288c-1.192,0.122-2.389,0.221-3.592,0.25c-0.102,0-0.204,0-0.306,0
			C140.27,179.266,139.778,179.237,139.292,179.202z"/>
		<path id="Path_60076" d="M191.817,172.92c1.381-0.15,2.767-0.232,4.152-0.351c1.428-0.121,2.837-0.306,4.251-0.524
			c1.331-0.204,2.658-0.446,3.995-0.612c1.428-0.181,2.863-0.319,4.299-0.45c2.72-0.251,5.455-0.393,8.183-0.527
			c2.605-0.129,5.212-0.177,7.817-0.3c2.352-0.144,4.692-0.408,7.047-0.494c1.141-0.042,2.284-0.032,3.428-0.022
			c1.107,0.009,2.215,0.018,3.324-0.018c1.638-0.102,3.272-0.282,4.912-0.341c1.745-0.064,3.49-0.033,5.235-0.107
			c0.825-0.053,1.65-0.11,2.472-0.204c0.876-0.102,1.755-0.214,2.634-0.306c1.786-0.19,3.578-0.253,5.37-0.337
			c1.054-0.059,2.102-0.14,3.151-0.233c1.173-0.102,2.346-0.183,3.522-0.247c1.149-0.061,2.302-0.073,3.451-0.076
			c1.099,0,2.188,0.088,3.282,0.174c1.077,0.092,2.159,0.12,3.24,0.088c0.214-0.013,0.427-0.039,0.639-0.077l-0.144,0.028
			c0.273-0.051,0.546-0.092,0.816-0.138c0.467-0.657,1.326-0.906,2.072-0.6c0.873,0.377,1.285,1.383,0.926,2.265
			c-0.316,0.717-0.903,1.281-1.632,1.57c-0.333,0.103-0.67,0.189-1.013,0.254c-0.344,0.097-0.694,0.172-1.048,0.225
			c-0.968,0.089-1.942,0.089-2.91,0c-1.152-0.078-2.302-0.16-3.451-0.248l0.231,0.018c-2.289-0.078-4.581-0.023-6.864,0.161
			c0.074,0,0.15-0.007,0.226-0.012c-1.142,0.068-2.277,0.166-3.418,0.239s-2.26,0.115-3.39,0.166
			c-0.993,0.057-1.981,0.135-2.971,0.239c-1.065,0.111-2.125,0.258-3.19,0.374c-2.154,0.235-4.319,0.252-6.481,0.345
			c-1.911,0.125-3.81,0.388-5.721,0.492c-2.078,0.113-4.157,0.11-6.238,0.204c-1.971,0.13-3.932,0.366-5.902,0.538
			c-2.049,0.179-4.111,0.225-6.166,0.333l0.267-0.013c-1.948,0.102-3.895,0.221-5.844,0.322c-1.876,0.095-3.753,0.176-5.628,0.273
			l0.191-0.011c-1.391,0.077-2.783,0.154-4.171,0.266c-1.367,0.11-2.732,0.264-4.097,0.408c-1.422,0.147-2.848,0.253-4.277,0.29
			c-1.456,0.039-2.911,0.052-4.368,0.086C189.457,176.085,189.033,173.219,191.817,172.92z"/>
		<path id="Path_60109" fill="#FFFFFF" d="M170.106,169.765c-0.019-0.897,0.007-1.792-0.007-2.689c0,0.024,0,0.048,0,0.072
			c0-0.03,0-0.061,0-0.091v-0.009c-0.044-1.639-0.113-3.276-0.187-4.914c-0.036-0.847-0.071-1.693-0.085-2.542
			c-0.008-0.392-0.018-0.785,0-1.176c-0.008-0.355,0.074-0.706,0.239-1.02c0.152-0.234,0.398-0.389,0.674-0.426l-0.036,0.006
			c0.508-0.109,1.01,0.213,1.119,0.722c0.007,0.035,0.013,0.069,0.016,0.104c0.017,0.218-0.043,0.435-0.171,0.612
			c-0.03,0.416-0.03,0.83-0.023,1.248c0.041,1.658,0.119,3.315,0.181,4.971c0.031,0.831,0.094,1.662,0.102,2.494
			c0.01,0.79-0.027,1.578-0.016,2.368c0,0.035,0,0.07,0,0.102c0.04,0.499-0.327,0.937-0.825,0.986c-0.024,0-0.048,0-0.073,0
			C170.546,170.583,170.154,170.23,170.106,169.765z"/>
	</g>
	<g id="Group_18035" transform="translate(588.776 6141.293)">
		<path id="Path_64795" fill="#3FBCA1" d="M130.279,195.057c-1.265-2.659-6.674-41.515-6.674-41.515l9.472-6.497l13.552-6.2
			l17.393-2.795l23.454-0.93l14.089-1.02l13.754-0.675l16.219,2.887l16.883,9.124l13.235,15.084l-2.049,29.474l-58.109,2.784
			l-1.101,19.569l-12.926-18.349l-35.578,1.929C151.893,197.923,131.544,197.72,130.279,195.057z"/>
		<g id="Group_18028" transform="translate(0 0)">
			<g id="Group_18023" transform="matrix(0.995, -0.105, 0.105, 0.995, 17.141, 19.611)">
				<g id="Group_18018" transform="translate(0 0)">
					<path id="Path_63816" stroke="#000000" stroke-width="1.5" stroke-linecap="round" stroke-linejoin="round" d="M171.183,58.767
						c0,0-27.672-8.738-47.092-7.767c0,0-17.953-9.793-14.958-18.526c0.514-1.632,2.254-2.538,3.886-2.023
						c0.452,0.143,0.865,0.387,1.207,0.713c1.008,1.076,1.729,2.388,2.097,3.816c0,0-7.767-13.594,0.488-14.077
						c7.662-0.449,6.31,7.28,6.31,7.28s0-13.591,9.225-9.708c0,0,2.428,0.486,0.485,6.797s15.051,8.256,23.79,8.256
						c8.739,0,31.072-0.974,29.13,22.33c-1.942,23.304-3.398,27.186-3.398,27.186h-12.139
						C170.214,83.046,172.64,65.567,171.183,58.767z"/>
					<path id="Path_63817" fill="none" stroke="#000000" stroke-width="1.5" stroke-linecap="round" stroke-linejoin="round" d="
						M138.17,68.966c0,0-10.194,17.963-7.282,22.334c0,0,2.912,3.876,8.253-1.46"/>
					<path id="Path_63818" fill="none" stroke="#000000" stroke-width="1.5" stroke-linecap="round" stroke-linejoin="round" d="
						M145.454,99.061c0,0-4.856,10.681-12.139,2.916"/>
					
						<ellipse id="Ellipse_3333" transform="matrix(-1 4.855794e-006 -4.855794e-006 -1 257.4052 144.2429)" fill="none" stroke="#000000" stroke-width="1.5" stroke-linecap="round" stroke-linejoin="round" cx="128.702" cy="72.122" rx="5.097" ry="3.156"/>
					
						<ellipse id="Ellipse_3334" transform="matrix(-1 4.855794e-006 -4.855794e-006 -1 302.5548 144.2426)" fill="none" stroke="#000000" stroke-width="1.5" stroke-linecap="round" stroke-linejoin="round" cx="151.277" cy="72.122" rx="5.826" ry="3.156"/>
					<path id="Path_63819" fill="none" stroke="#000000" stroke-width="1.5" stroke-linecap="round" stroke-linejoin="round" d="
						M159.529,66.537c0,0-12.139-5.343-14.077-5.343"/>
					<path id="Path_63820" fill="none" stroke="#000000" stroke-width="1.5" stroke-linecap="round" stroke-linejoin="round" d="
						M134.772,60.228c0,0-6.311,0-11.167,3.397"/>
					
						<ellipse id="Ellipse_3335" transform="matrix(-1 4.855794e-006 -4.855794e-006 -1 304.0135 145.6931)" cx="152.007" cy="72.847" rx="2.185" ry="1.942"/>
					
						<ellipse id="Ellipse_3336" transform="matrix(-1 4.855794e-006 -4.855794e-006 -1 257.8926 146.1851)" cx="128.946" cy="73.093" rx="2.185" ry="1.942"/>
					<path id="Path_63827" fill="none" stroke="#000000" stroke-width="1.5" stroke-linecap="round" stroke-linejoin="round" d="
						M133.802,44.69c0,0-7.282-0.973-10.195-7.285"/>
					<path id="Path_63828" fill="none" stroke="#000000" stroke-width="1.5" stroke-linecap="round" stroke-linejoin="round" d="
						M139.142,42.748c0,0-7.284-0.974-8.254-5.343"/>
					<path id="Path_63830" fill="none" stroke="#000000" stroke-width="1.5" stroke-linecap="round" stroke-linejoin="round" d="
						M123.606,50.516c0,0-6.753,37.165-4.856,48.548c1.938,11.654,4.855,20.874,17.478,19.905l-0.172,14.867l38.441,1.92
						l2.513-38.15c0,0,10.682,0.971,10.194-7.282s-4.854-7.28-4.854-7.28h-12.137c0,0,1.938-16.022,0.97-24.277
						C171.183,58.77,152.25,51.488,123.606,50.516z"/>
					<path id="Path_63831" fill="none" stroke="#000000" stroke-width="1.5" stroke-linecap="round" stroke-linejoin="round" d="
						M158.978,84.382c0,0-2.415,1.209-2.415,2.414"/>
					<path id="Path_63832" fill="none" stroke="#000000" stroke-width="1.5" stroke-linecap="round" stroke-linejoin="round" d="
						M154.147,83.175c-1.379,0.706-2.293,2.076-2.414,3.62"/>
					<path id="Path_63833" fill="none" stroke="#000000" stroke-width="1.5" stroke-linecap="round" stroke-linejoin="round" d="
						M127.58,81.967c-1.379,0.707-2.292,2.079-2.414,3.623"/>
					<path id="Path_63834" fill="none" stroke="#000000" stroke-width="1.5" stroke-linecap="round" stroke-linejoin="round" d="
						M122.75,80.759c-0.84,1.016-1.271,2.308-1.208,3.624"/>
					<path id="Path_63835" fill="none" stroke="#000000" stroke-width="1.5" stroke-linecap="round" stroke-linejoin="round" d="
						M149.316,81.967c0,0-2.414,1.811-2.414,3.623"/>
					<path id="Path_63836" fill="none" stroke="#000000" stroke-width="1.5" stroke-linecap="round" stroke-linejoin="round" d="
						M180.892,88.868c0,0-5.826,0-7.282,3.884"/>
				</g>
			</g>
			<path id="Path_60038" d="M199.711,215.504c-0.537-0.468-1.011-1.004-1.412-1.593c-0.564-0.751-1.082-1.534-1.606-2.313
				c-0.565-0.839-1.132-1.677-1.69-2.518c-0.513-0.768-1.028-1.53-1.531-2.304c-0.548-0.844-1.11-1.678-1.713-2.482c0,0,0,0-0.005,0
				c-0.835-1.074-1.744-2.09-2.615-3.138c-0.871-1.048-2.914-2.172-3.845-3.185c0.04,0.039,0.078,0.078,0.117,0.115l-0.307-0.307
				l0.115,0.116l-0.155-0.141c-1.603,0.011,1.749,0.091,0.145,0.111c-1.045,0.011-2.088,0.034-3.132,0.1
				c-1.011,0.064-2.019,0.16-3.029,0.242c-2.151,0.174-4.305,0.236-6.46,0.321c-2.09,0.083-4.178,0.192-6.268,0.287
				c-3.196,0.144-6.394,0.31-9.593,0.355c-3.26,0.045-6.517-0.067-9.776-0.111l0.04-0.002c-2.171,0.027-4.341-0.085-6.499-0.335
				c-2.105-0.298-4.205-0.665-6.288-1.079c-1.061-0.208-2.106-0.489-3.128-0.842c-0.451-0.116-0.859-0.362-1.173-0.706
				c-0.192-0.259-0.34-0.547-0.438-0.854c-0.119-0.32-0.214-0.647-0.317-0.971c-0.159-0.503-0.327-1.005-0.48-1.507
				c-0.286-0.947-0.543-1.903-0.8-2.858c-0.535-1.989-1.02-3.992-1.49-5.999c-0.47-2.006-0.869-4-1.206-6.016
				c-0.337-2.017-0.558-4.036-0.749-6.065c-0.198-2.16-0.424-4.319-0.677-6.474c-0.524-4.161-1.198-8.302-1.745-12.461
				c-0.278-2.105-0.554-4.206-0.889-6.302c-0.316-1.965-0.693-3.921-0.999-5.889c-0.326-2.098-0.615-4.202-0.903-6.306
				c-0.29-2.121-0.554-4.24-0.759-6.371c-0.207-2.166-0.365-4.335-0.557-6.502c-0.184-2.063-0.401-4.125-0.63-6.184
				c-0.563-5.198-1.122-10.397-1.75-15.589c0.004,0.075,0.018,0.151,0.027,0.226l-0.087-0.711c0.011,0.075,0.018,0.151,0.029,0.228
				c-0.031-0.253-0.062-0.507-0.092-0.755c0.004,0.075,0.019,0.151,0.028,0.227c-0.269-2.178-0.575-4.352-0.801-6.537
				c-0.207-2-0.32-4.012-0.448-6.019c-0.066-1.031-0.129-2.065-0.225-3.095c-0.1-1.069-0.214-2.134-0.337-3.206
				c-0.234-2.114-0.474-4.229-0.72-6.347c-0.225-1.967-0.378-3.947-0.488-5.922c-0.113-2.063-0.226-4.126-0.341-6.189
				c-0.23-4.278-0.378-8.56-0.532-12.842c-0.073-2.095-0.149-4.189-0.227-6.283c-0.078-2.062-0.174-4.11-0.239-6.163
				c-0.13-4.098-0.133-8.197-0.009-12.3c0.031-1.037,0.069-2.073,0.126-3.111c0.027-0.47,0.053-0.943,0.077-1.413
				c-0.003-0.412,0.032-0.824,0.102-1.231c0.056-0.239,0.295-0.387,0.533-0.33c0.179,0.042,0.312,0.189,0.338,0.37
				c0.068,0.352,0.113,0.709,0.135,1.067c0.052,0.52,0.099,1.039,0.149,1.559c0.099,1.037,0.201,2.077,0.312,3.115
				c0.106,1.01,0.22,2.019,0.329,3.029c0.113,1.058,0.195,2.119,0.289,3.176c0.352,4.057,0.72,8.114,1.002,12.177
				c0.298,4.322,0.497,8.646,0.742,12.97c0.237,4.128,0.494,8.257,0.715,12.387c0.213,4.064,0.751,8.097,1.208,12.141
				c0.122,1.088,0.239,2.18,0.339,3.273c0.097,1.054,0.158,2.112,0.222,3.167c0.123,1.988,0.244,3.979,0.449,5.961
				c0.06,0.583,0.125,1.162,0.194,1.742c0.264,2.166,0.505,4.332,0.721,6.5c0.198,2.02,0.409,4.034,0.593,6.056
				c0.19,2.1,0.369,4.203,0.573,6.303c0.2,2.04,0.399,4.081,0.576,6.124c0.367,4.214,0.627,8.437,1.111,12.641
				c-0.003-0.067-0.018-0.133-0.025-0.203c0.207,1.68,0.41,3.358,0.639,5.037c0.071,0.527,0.147,1.055,0.225,1.581v0.005
				c0.17,1.133,0.367,2.369,0.607,3.775c0.105,0.607,0.211,1.215,0.317,1.822c0.187,1.054,0.378,2.144,0.546,3.219
				c0.248,1.565,0.435,3.165,0.614,4.712l0.071,0.609c0.21,1.683,0.448,3.39,0.679,5.039c0.273,1.973,0.56,4.011,0.795,6.02
				c0.235,2.011,0.41,4.037,0.545,5.75l0.082,1.039c0.09,1.16,0.181,2.351,0.299,3.536c0.03,0.316,0.061,0.631,0.096,0.946
				l-0.001-0.024l-0.011-0.09c0.002,0.03,0.003,0.058,0.01,0.088l-0.016-0.087c0.351,2.793,0.874,5.531,1.547,8.783
				c0.166,0.796,0.325,1.589,0.485,2.384c0.413,2.042,0.83,4.152,1.346,6.204c0.109,0.393,0.23,0.783,0.349,1.175l0.124,0.418
				c0.103,0.339,0.213,0.704,0.353,1.059c0.023,0.049,0.045,0.1,0.069,0.146c0.489,0.201,0.984,0.357,1.444,0.497
				c0.914,0.251,1.905,0.47,3.203,0.706c1.159,0.213,2.344,0.416,3.517,0.609c0.995,0.142,2.02,0.258,3.047,0.346
				c0.944,0.08,1.908,0.094,2.839,0.108l0.18-0.001l0.154,0.002l-0.028,0.001l0.873,0.01l0.475,0.003l0.29,0.003l0,0l-0.042,0.002
				l0.04-0.002l-0.04,0.002c1.022,0.012,2.036,0.033,3.054,0.051c0.53,0.01,1.064,0.02,1.593,0.025l0.409,0.006l-0.021,0.001
				c3.057,0.037,6.338-0.047,10.639-0.272c0.782-0.041,1.565-0.084,2.349-0.13l2.494-0.147c1.25-0.073,2.497-0.145,3.745-0.216
				c0.274-0.014,0.548-0.029,0.823-0.043c0.47-0.024,0.942-0.049,1.413-0.074l0.146-0.007l1.341-0.07
				c1.075-0.056,1.896-0.107,2.664-0.167c0.663-0.052,1.329-0.117,1.991-0.183c0.868-0.085,1.765-0.174,2.652-0.227l0.392-0.02
				c0.728-0.038,1.47-0.056,2.187-0.076c0.692-0.018-3.55-0.036-2.847-0.071c0.681-0.036,1.365-0.082,2.044-0.134l0.183-0.015
				c0.115-0.006,0.229-0.019,0.343-0.025l0.075-0.004c0.869-0.018,1.732,0.139,2.539,0.462c0.528,0.456,1.002,0.973,1.409,1.54
				l0.035,0.045c0.389,0.497,0.767,1,1.145,1.504l0.393,0.523c0.386,0.5,0.794,0.998,1.189,1.476
				c0.501,0.607,1.017,1.236,1.494,1.878c0.816,1.1,1.56,2.268,2.279,3.404l0.215,0.337l0.236,0.369
				c0.683,1.079,1.364,2.159,2.043,3.241l0.476,0.77c0.412,0.669,0.835,1.36,1.284,2.019l0,0l0,0l0,0
				c-0.015-0.639-0.049-1.29-0.083-1.918c-0.02-0.394-0.042-0.79-0.057-1.185c-0.033-1.319,0.015-2.638,0.144-3.951l0.063-0.751
				c0.087-1.058,0.172-2.116,0.242-3.18l0.005-0.078c0.074-1.176,0.152-2.393,0.181-3.591c0.009-0.846-0.027-1.68-0.057-2.313
				c-0.091-0.573,0.014-1.161,0.299-1.667c0.293-0.391,0.746-0.63,1.233-0.652c0.059-0.003,0.114-0.006,0.172-0.009
				c0.238-0.012,0.476-0.011,0.714-0.01l0.239,0.001c0.266-0.001,0.532,0,0.799,0.002c0.667,0.003,1.358,0.006,2.042-0.018
				c0.408-0.015,0.807-0.033,1.211-0.054c1.331-0.069,2.682-0.172,3.986-0.273l1.302-0.097c0.904-0.067,1.81-0.129,2.713-0.187
				c1.14-0.077,2.279-0.15,3.417-0.241c0.235-0.019,0.469-0.044,0.705-0.067l0.232-0.022c0.365-0.047,0.728-0.095,1.092-0.143
				c0.691-0.094,1.404-0.188,2.106-0.262c1.008-0.11,2.071-0.205,3.164-0.285c1.995-0.15,4.137-0.306,6.267-0.437
				c4.083-0.252,8.303-0.511,12.462-0.746c2.678-0.154,5.092-0.294,7.535-0.459c0.642-0.044,1.282-0.086,1.922-0.124
				c1.742-0.108,3.545-0.219,5.308-0.413c1.134-0.154,2.443,3.054,1.406,3.217c-1.114,0.176-2.233,0.267-3.352,0.351
				c-1.038,0.075-2.078,0.117-3.115,0.19c-1.083,0.074-2.166,0.153-3.25,0.231c-2.137,0.153-4.278,0.237-6.41,0.336
				c-4.169,0.201-8.34,0.375-12.514,0.524c-2.101,0.073-4.199,0.184-6.296,0.303c-1.012,0.053-2.023,0.116-3.029,0.214
				c-1.105,0.106-2.208,0.246-3.315,0.333c-1.497,0.114-2.998,0.157-4.497,0.219c-1.448,0.056-2.897,0.115-4.346,0.196
				c-1.528,0.085-3.045,0.177-4.57,0.226c-0.674,0.021-1.346,0.028-2.023,0.025c-0.329,0-0.664-0.003-0.997,0.004
				c-0.001,0.731-0.001,1.462-0.066,2.19c-0.047,0.559-0.126,1.113-0.186,1.672c-0.059,0.574-0.119,1.149-0.181,1.725
				c-0.128,1.217-0.308,2.427-0.478,3.64c-0.164,1.195-0.265,2.399-0.305,3.606c0.008,1.011,0.061,2.018,0.102,3.028
				c0.022,0.43,0.037,0.863,0.033,1.295c0.014,0.485-0.016,0.969-0.093,1.448c-0.039,0.507-0.337,0.958-0.787,1.193
				c-0.125,0.052-0.258,0.084-0.394,0.091C200.329,215.869,199.981,215.741,199.711,215.504z"/>
			<path id="Path_60039" d="M259.25,168.344c0.076-1.834,0.131-3.67,0.144-5.506c-0.001-0.006-0.001-0.012-0.001-0.018
				c-0.002-0.032-0.004-0.064,0-0.096c0.002,0.029,0.004,0.057-0.001,0.086c-0.015-3.755-0.206-7.506-0.425-11.252
				c-0.11-1.877-0.216-3.754-0.3-5.631c-0.087-1.927-0.123-3.859-0.252-5.783c-0.129-1.925-0.304-3.835-0.475-5.75
				c-0.168-1.889-0.296-3.78-0.432-5.67c-0.276-3.83-0.545-7.661-0.806-11.491c-0.253-3.713-0.549-7.424-0.815-11.137
				c-0.272-3.785-0.545-7.569-0.818-11.351c-0.285-3.85-0.614-7.695-0.862-11.546c-0.122-1.876-0.187-3.754-0.259-5.633
				c-0.073-1.911-0.246-3.819-0.402-5.727c-0.148-1.847-0.285-3.696-0.463-5.541c-0.182-1.869-0.405-3.729-0.658-5.589
				c-0.266-1.948-0.523-3.899-0.718-5.856c-0.183-1.844-0.337-3.691-0.517-5.536c-0.189-1.958-0.377-3.916-0.515-5.879
				c-0.131-1.862-0.22-3.725-0.313-5.588c-0.188-3.739-0.463-7.472-0.635-11.208c-0.133-2.839-0.252-5.679-0.33-8.521
				c-0.039-1.334-0.062-2.668-0.054-4.006c0.005-0.676,0.014-1.353,0.022-2.028c0.003-0.324,0.005-0.648,0.009-0.972
				c-0.022-0.239,0.014-0.48,0.106-0.702c0.135-0.243,0.44-0.33,0.682-0.196c0.025,0.014,0.049,0.03,0.071,0.048
				c0.085,0.084,0.149,0.188,0.186,0.301c0.016,0.035,0.034,0.067,0.051,0.099c0.003,0.003,0.005,0.006,0.007,0.01
				c0.008,0.007,0.015,0.016,0.023,0.024c0.167,0.179,0.158,0.459-0.02,0.626c-0.006,0.005-0.012,0.011-0.018,0.016
				c0.064,0.603,0.145,1.207,0.215,1.809c0.104,0.893,0.214,1.783,0.315,2.678c0.221,1.894,0.427,3.792,0.619,5.692
				c0.379,3.741,0.745,7.483,1.012,11.235c0.266,3.796,0.406,7.598,0.697,11.392c0.145,1.901,0.363,3.8,0.553,5.697
				c0.188,1.855,0.341,3.714,0.561,5.565c0.232,1.936,0.51,3.864,0.762,5.795c0.244,1.845,0.44,3.696,0.586,5.552
				c0.155,1.933,0.292,3.867,0.434,5.794c0.143,1.902,0.259,3.805,0.299,5.714c0.043,1.803,0.065,3.606,0.159,5.41
				c0.103,2.017,0.221,4.031,0.345,6.048c0.227,3.7,0.487,7.397,0.739,11.099c0.522,7.605,1.079,15.206,1.613,22.81
				c0.271,3.868,0.51,7.748,0.84,11.616c0.074,0.876,0.143,1.755,0.205,2.634c0.067,0.956,0.146,1.912,0.184,2.868
				c0.08,1.965,0.117,3.929,0.209,5.892c0.084,1.812,0.226,3.62,0.338,5.428c0.12,1.935,0.226,3.864,0.304,5.798
				c0.077,1.904,0.119,3.807,0.129,5.706c0.006,1.93-0.055,3.862-0.113,5.794c-0.056,1.845,0.45,4.393,0.284,6.227
				c-0.052,0.588-0.107,1.175-0.166,1.763c0.018,0.657,0.03,1.312,0.02,1.969c-0.018,1.096-0.08,2.19-0.161,3.285
				c-0.087,1.151-0.138,2.299-0.152,3.454c0.003,0.578,0.011,1.161,0.03,1.737c0.007,0.271,0.018,0.544,0.03,0.816
				c0.055,0.402,0.037,0.81-0.053,1.205c-0.162,0.477-1.252,0.096-1.766,0.123c-0.026,0.111-0.055,0.222-0.089,0.333
				c-0.077,0.226-0.169,0.448-0.275,0.662l-0.005,0.011c-0.012,0.031-0.027,0.06-0.041,0.092c-0.014,0.032-0.021,0.049-0.032,0.073
				h-0.005C258.94,191.377,259.215,169.27,259.25,168.344z"/>
			<path id="Path_60040" d="M113.097,19.563c-0.01-0.028-0.019-0.056-0.026-0.085c-0.037-0.061-0.051-0.134-0.041-0.204
				c0.013-0.107,0.082-0.199,0.18-0.243c0.012-0.049,0.024-0.102,0.034-0.147c0.032-0.192,0.049-0.385,0.062-0.579
				c0.035-0.724,0.05-1.444,0.109-2.168c0.024-0.326,0.059-0.652,0.102-0.977c0.038-0.373,0.183-0.727,0.417-1.02
				c0.316-0.36,0.72-0.631,1.173-0.789c0.363-0.144,0.732-0.277,1.103-0.408c0.741-0.253,1.486-0.485,2.235-0.708
				s1.482-0.426,2.217-0.661c0.783-0.251,1.563-0.518,2.346-0.765c1.491-0.473,3.019-0.823,4.569-1.046
				c1.188-0.166,2.383-0.298,3.57-0.478c1.358-0.204,2.707-0.45,4.06-0.691c1.184-0.204,2.377-0.394,3.576-0.493
				c1.312-0.108,2.624-0.143,3.934-0.204l1.066-0.082c0.391-0.032,0.779-0.086,1.168-0.129c0.748-0.082,1.49-0.217,2.232-0.339
				c1.428-0.237,2.856-0.52,4.302-0.612s2.904-0.146,4.361-0.166c0.761-0.012,1.53-0.013,2.287-0.04
				c0.805-0.03,1.606-0.067,2.409-0.111h-0.066l0.084-0.005h0.03h-0.022c1.607-0.11,3.213-0.248,4.821-0.337
				c1.639-0.092,3.283-0.143,4.927-0.166c3.393-0.049,6.787-0.046,10.183-0.048c1.645,0,3.293-0.011,4.938,0
				c1.617,0.01,3.231,0.05,4.845,0.055c1.452,0,2.905,0,4.357,0c1.86-0.006,3.721-0.01,5.583,0c1.699,0.013,3.4,0.028,5.1,0.036
				c1.606,0.007,3.209,0.094,4.814,0.17c3.313,0.159,6.63,0.084,9.943,0.153c1.626,0.033,3.253,0.102,4.88,0.117
				c1.651,0.016,3.3,0.017,4.95,0.015c1.632,0,3.264-0.016,4.896-0.022c1.632-0.006,3.27,0.012,4.906,0.022
				c1.636,0.01,3.252,0.011,4.878,0.052c1.588,0.04,3.06,2.423,1.448,2.346c-1.59-0.072-3.181-0.124-4.769-0.156
				c-1.632-0.033-3.264-0.064-4.896-0.094c-1.615-0.03-3.231-0.032-4.846-0.039c-1.652-0.009-3.308-0.016-4.962-0.036
				c-1.687-0.02-3.375-0.069-5.063-0.133c-1.62-0.059-3.241-0.102-4.864-0.115c-1.645-0.015-3.292-0.01-4.934-0.081
				c-1.702-0.073-3.401-0.189-5.1-0.255c-1.572-0.062-3.148-0.046-4.721-0.079c-3.358-0.07-6.715-0.055-10.073-0.072
				c-1.618-0.007-3.237-0.027-4.857-0.056c-1.716-0.035-3.43-0.036-5.145-0.037c-3.297,0-6.598-0.013-9.895,0.006
				c-1.697,0.01-3.396,0.035-5.093,0.085c-1.625,0.049-3.248,0.166-4.872,0.264c-1.706,0.102-3.413,0.162-5.124,0.168
				c-0.918,0-1.836,0.007-2.754,0.027c-0.83,0.017-1.66,0.06-2.488,0.112c-0.444,0.046-0.888,0.086-1.331,0.147
				c-0.558,0.079-1.115,0.168-1.672,0.262c-0.985,0.165-1.967,0.35-2.958,0.496c-0.5,0.073-1.003,0.13-1.507,0.188
				c-0.46,0.055-0.928,0.094-1.391,0.114c-1.051,0.05-2.103,0.089-3.155,0.14c-0.593,0.048-1.183,0.102-1.777,0.17
				c-0.612,0.068-1.231,0.17-1.845,0.27c-1.211,0.193-2.419,0.415-3.628,0.612c-1.21,0.197-2.417,0.311-3.624,0.441
				c-1.122,0.121-2.227,0.297-3.33,0.51c-0.795,0.177-1.583,0.375-2.367,0.595c-0.776,0.218-1.545,0.46-2.324,0.666
				c-0.826,0.22-1.657,0.419-2.484,0.627c-0.791,0.204-1.573,0.436-2.346,0.68c-0.292,0.098-0.578,0.213-0.857,0.344l-0.102,0.06
				c-0.026,0.02-0.052,0.041-0.08,0.06c-0.048,0.045-0.094,0.09-0.14,0.137c-0.042,0.05-0.081,0.103-0.114,0.159l0.036-0.053
				c-0.009,0.019-0.019,0.039-0.031,0.059s-0.019,0.05-0.03,0.074c-0.064,0.216-0.111,0.436-0.158,0.656
				c0-0.019,0.008-0.04,0.013-0.059c-0.081,0.408-0.145,0.816-0.204,1.23c-0.059,0.414-0.076,0.807-0.124,1.209
				c-0.028,0.366-0.096,0.727-0.204,1.078c-0.079,0.214-0.148,0.462-0.38,0.541c-0.027,0.009-0.055,0.013-0.084,0.013
				C113.26,19.744,113.15,19.673,113.097,19.563z"/>
			<path id="Path_60088" fill="#FFFFFF" d="M189.826,139.887c-0.436-0.491-0.878-0.977-1.301-1.479
				c0.385,0.421,0.77,0.849,1.148,1.276l-0.04-0.032c0.164,0.18,0.32,0.362,0.476,0.547
				C190.015,140.096,189.92,139.992,189.826,139.887z"/>
			<path id="Path_60089" fill="#FFFFFF" d="M186.388,136.289c-0.302-0.154-0.653-0.187-0.978-0.091
				c0.188-0.19,0.375-0.382,0.555-0.577l0.102,0.108l0.073,0.082c0.15,0.167,0.306,0.332,0.456,0.496
				c0.043,0.047,0.087,0.095,0.132,0.142C186.621,136.393,186.5,136.346,186.388,136.289z"/>
			<path id="Path_63822" fill="none" stroke="#000000" stroke-width="2" stroke-linecap="round" stroke-linejoin="round" d="
				M173.651,157.074c0,0,8.772-9.128,12.053-17.56c0,0,6.982,16.696,14.092,16.212"/>
			<g id="Group_18026" transform="translate(13.966 127.172)">
				<path id="Path_63826" fill="none" stroke="#000000" stroke-width="1.5" stroke-linecap="round" stroke-linejoin="round" d="
					M247.383,37.349c-22.963-39.068-63.917-27.25-63.917-27.25s-1.709,35.842-7.693,52.533c-3.768-5.079-7.23-10.377-10.368-15.867
					c-6.698-11.364-11.929-23.532-15.566-36.212c-14.712,0.565-28.773,6.217-39.782,15.992"/>
			</g>
		</g>
	</g>
</g>
<path id="Path_68087" fill="#1A6F5D" d="M604.655,233.147c-1.299-0.526-2.402-1.439-3.162-2.616c-1.097-1.672-1.629-3.65-1.52-5.646
	c7.344-2.02,12.44-4.682,15.286-7.987c2.661-2.845,4.181-6.571,4.268-10.466c0-3.489-0.872-6.243-2.616-8.262
	c-1.784-2.053-3.874-3.818-6.197-5.233c-2.323-1.415-4.413-3.18-6.197-5.233c-1.744-2.02-2.616-4.957-2.616-8.813
	c-0.099-4.175,1.608-8.19,4.682-11.017c3.034-2.904,7.093-4.488,11.292-4.407c6.157-0.224,12.011,2.677,15.561,7.712
	c3.764,5.142,5.646,11.66,5.646,19.555c0,8.078-1.744,15.101-5.233,21.068c-3.28,5.74-7.796,10.679-13.22,14.459
	C615.87,229.693,610.418,232.043,604.655,233.147z M553.703,233.147c-1.299-0.526-2.402-1.439-3.162-2.616
	c-1.096-1.672-1.628-3.65-1.519-5.646c7.344-2.02,12.44-4.682,15.286-7.987c2.661-2.845,4.181-6.571,4.269-10.466
	c0-3.489-0.872-6.243-2.616-8.262c-1.784-2.053-3.874-3.818-6.197-5.233c-2.323-1.415-4.413-3.18-6.197-5.233
	c-1.744-2.02-2.616-4.957-2.616-8.813c-0.099-4.175,1.608-8.19,4.682-11.017c3.034-2.904,7.093-4.488,11.292-4.407
	c6.157-0.224,12.011,2.677,15.561,7.712c3.764,5.141,5.646,11.659,5.646,19.554c0,8.079-1.744,15.102-5.233,21.069
	c-3.281,5.74-7.796,10.679-13.22,14.459C564.918,229.694,559.466,232.043,553.703,233.147z"/>
<path id="Path_68086" fill="#1A6F5D" d="M37.718,169.022c1.299,0.526,2.402,1.439,3.162,2.616c1.095,1.672,1.625,3.651,1.515,5.646
	c-7.344,2.02-12.44,4.682-15.286,7.987c-2.661,2.845-4.181,6.571-4.269,10.466c0,3.489,0.872,6.243,2.616,8.262
	c1.784,2.053,3.874,3.818,6.197,5.233c2.323,1.415,4.413,3.18,6.197,5.233c1.744,2.02,2.616,4.957,2.616,8.813
	c0.099,4.175-1.608,8.19-4.682,11.017c-3.034,2.904-7.093,4.488-11.292,4.407c-6.157,0.224-12.011-2.676-15.561-7.712
	c-3.764-5.141-5.646-11.659-5.646-19.554c0-8.079,1.744-15.102,5.233-21.069c3.28-5.74,7.796-10.679,13.22-14.459
	C26.5,172.476,31.954,170.126,37.718,169.022z M88.669,169.022c1.299,0.526,2.402,1.439,3.162,2.616
	c1.095,1.672,1.625,3.651,1.515,5.646c-7.344,2.02-12.44,4.682-15.286,7.987c-2.661,2.845-4.181,6.571-4.269,10.466
	c0,3.489,0.872,6.243,2.616,8.262c1.784,2.053,3.874,3.818,6.197,5.233c2.323,1.415,4.413,3.18,6.197,5.233
	c1.744,2.02,2.616,4.957,2.616,8.813c0.099,4.175-1.608,8.19-4.682,11.017c-3.034,2.904-7.093,4.488-11.292,4.407
	c-6.157,0.224-12.011-2.676-15.561-7.712c-3.764-5.141-5.646-11.659-5.646-19.554c0-8.079,1.744-15.102,5.233-21.069
	c3.28-5.74,7.796-10.679,13.22-14.459C77.451,172.475,82.905,170.126,88.669,169.022L88.669,169.022z"/>
</svg>
