<?xml version="1.0" encoding="utf-8"?>
<!-- Generator: Adobe Illustrator 17.0.0, SVG Export Plug-In . SVG Version: 6.00 Build 0)  -->
<!DOCTYPE svg PUBLIC "-//W3C//DTD SVG 1.1//EN" "http://www.w3.org/Graphics/SVG/1.1/DTD/svg11.dtd">
<svg version="1.1" id="Layer_1" xmlns="http://www.w3.org/2000/svg" xmlns:xlink="http://www.w3.org/1999/xlink" x="0px" y="0px"
	 width="21.327px" height="23.322px" viewBox="0 0 21.327 23.322" enable-background="new 0 0 21.327 23.322" xml:space="preserve">
<g transform="translate(-210.139 -216.75)">
	<g transform="translate(187.889 38)">
		<g transform="translate(23 179.5)">
			<g transform="translate(0 0)">
				<g transform="translate(0 0)">
					<path d="M9.919,9.672c-2.804,0-5.086-2.282-5.086-5.086c0-2.804,2.282-5.086,5.086-5.086s5.086,2.282,5.086,5.086
						C15.005,7.391,12.723,9.672,9.919,9.672z M9.919,0.5c-2.253,0-4.086,1.833-4.086,4.086c0,2.253,1.833,4.086,4.086,4.086
						c2.253,0,4.086-1.833,4.086-4.086C14.005,2.333,12.172,0.5,9.919,0.5z"/>
					<path d="M20.327,22.317H-0.5v-3.8c0-3.314,2.696-6.009,6.008-6.009h8.812c3.313,0.001,6.008,2.696,6.007,6.009V22.317z
						 M0.5,21.317h18.827v-2.8c0.001-2.761-2.245-5.008-5.007-5.009H5.508c-2.761,0-5.008,2.246-5.008,5.006V21.317z"/>
				</g>
			</g>
		</g>
	</g>
</g>
</svg>
