<?xml version="1.0" encoding="utf-8"?>
<!-- Generator: Adobe Illustrator 17.0.0, SVG Export Plug-In . SVG Version: 6.00 Build 0)  -->
<!DOCTYPE svg PUBLIC "-//W3C//DTD SVG 1.1//EN" "http://www.w3.org/Graphics/SVG/1.1/DTD/svg11.dtd">
<svg version="1.1" id="Layer_1" xmlns="http://www.w3.org/2000/svg" xmlns:xlink="http://www.w3.org/1999/xlink" x="0px" y="0px"
	 width="37px" height="37px" viewBox="0 0 37 37" enable-background="new 0 0 37 37" xml:space="preserve">
<g>
	<g>
		<path d="M18.723,25.554c0.27,0,0.526,0.053,0.766,0.158c0.24,0.105,0.448,0.248,0.623,0.428s0.316,0.393,0.421,0.639
			s0.158,0.503,0.158,0.774c0,0.27-0.053,0.525-0.158,0.766s-0.245,0.448-0.421,0.624c-0.175,0.175-0.383,0.315-0.623,0.42
			c-0.24,0.105-0.496,0.158-0.766,0.158c-0.281,0-0.541-0.053-0.781-0.158c-0.24-0.105-0.451-0.245-0.631-0.42
			c-0.18-0.176-0.323-0.383-0.428-0.624s-0.158-0.496-0.158-0.766c0-0.271,0.053-0.529,0.158-0.774s0.248-0.458,0.428-0.639
			c0.181-0.181,0.391-0.323,0.631-0.428C18.182,25.606,18.443,25.554,18.723,25.554z M20.301,8.021l-0.406,15.474h-2.314
			L17.131,8.021H20.301z"/>
		<path d="M18.723,29.991c-0.345,0-0.671-0.066-0.97-0.197c-0.291-0.127-0.551-0.3-0.771-0.514
			c-0.223-0.217-0.402-0.477-0.531-0.773c-0.131-0.3-0.197-0.62-0.197-0.955c0-0.334,0.066-0.656,0.196-0.959
			c0.127-0.298,0.305-0.562,0.528-0.786c0.221-0.221,0.482-0.399,0.776-0.527c0.59-0.257,1.317-0.266,1.926,0
			c0.296,0.129,0.556,0.309,0.773,0.533c0.215,0.221,0.389,0.485,0.516,0.782c0.129,0.302,0.195,0.625,0.195,0.958
			c0,0.335-0.066,0.655-0.197,0.955c-0.129,0.295-0.304,0.553-0.52,0.77c-0.216,0.215-0.474,0.39-0.767,0.518
			C19.379,29.925,19.058,29.991,18.723,29.991z M18.723,26.026c-0.217,0-0.411,0.039-0.593,0.118
			c-0.188,0.082-0.346,0.19-0.486,0.33c-0.14,0.139-0.247,0.3-0.328,0.49c-0.081,0.188-0.12,0.381-0.12,0.588
			c0,0.206,0.039,0.395,0.118,0.577c0.08,0.183,0.189,0.343,0.325,0.475c0.141,0.136,0.301,0.243,0.491,0.326
			c0.355,0.155,0.798,0.162,1.17,0c0.185-0.081,0.346-0.189,0.478-0.322c0.133-0.133,0.241-0.293,0.322-0.479
			c0.079-0.182,0.118-0.37,0.118-0.577c0-0.207-0.039-0.4-0.119-0.587c-0.082-0.194-0.189-0.356-0.325-0.496
			c-0.134-0.138-0.288-0.244-0.474-0.325C19.119,26.064,18.93,26.026,18.723,26.026z M20.355,23.967h-3.232L16.645,7.549h4.14
			L20.355,23.967z M18.04,23.023h1.395l0.381-14.53h-2.2L18.04,23.023z"/>
	</g>
</g>
<path d="M18.667,36.75C8.65,36.75,0.5,28.601,0.5,18.584S8.65,0.417,18.667,0.417s18.167,8.15,18.167,18.167
	S28.684,36.75,18.667,36.75z M18.667,2.776c-8.716,0-15.807,7.091-15.807,15.807s7.091,15.807,15.807,15.807
	S34.474,27.3,34.474,18.584S27.383,2.776,18.667,2.776z"/>
</svg>
