<?xml version="1.0" encoding="UTF-8"?>
<svg xmlns="http://www.w3.org/2000/svg" xmlns:xlink="http://www.w3.org/1999/xlink" width="24px" height="25px" viewBox="0 0 24 22" version="1.1">
<g id="surface1">
<path style=" stroke:none;fill-rule:nonzero;fill:rgb(0%,0%,0%);fill-opacity:1;" d="M 5.691406 11.398438 L 2.722656 11.398438 C 2.3125 11.398438 1.980469 11.71875 1.980469 12.117188 L 1.980469 16.898438 C 1.980469 17.292969 2.3125 17.617188 2.722656 17.617188 L 5.691406 17.617188 C 6.101562 17.617188 6.433594 17.292969 6.433594 16.898438 L 6.433594 12.117188 C 6.433594 11.71875 6.101562 11.398438 5.691406 11.398438 Z M 5.9375 16.898438 C 5.9375 17.03125 5.828125 17.136719 5.691406 17.136719 L 2.722656 17.136719 C 2.585938 17.136719 2.472656 17.03125 2.472656 16.898438 L 2.472656 16.660156 L 5.9375 16.660156 Z M 5.9375 16.179688 L 2.472656 16.179688 L 2.472656 12.832031 L 5.9375 12.832031 Z M 5.9375 12.355469 L 2.472656 12.355469 L 2.472656 12.117188 C 2.472656 11.984375 2.585938 11.875 2.722656 11.875 L 5.691406 11.875 C 5.828125 11.875 5.9375 11.984375 5.9375 12.117188 Z M 5.9375 12.355469 "/>
<path style=" stroke:none;fill-rule:nonzero;fill:rgb(0%,0%,0%);fill-opacity:1;" d="M 23.703125 18.984375 L 21.035156 15.296875 C 20.503906 14.566406 19.398438 14.234375 18.394531 14.507812 C 17.394531 14.78125 16.773438 15.582031 16.910156 16.421875 C 16.320312 16.292969 15.703125 16.289062 15.109375 16.417969 L 15.109375 7.417969 C 15.109375 6.4375 14.386719 5.546875 13.265625 5.144531 L 11.109375 4.382812 L 11.109375 3.546875 L 11.554688 3.546875 C 11.78125 3.566406 11.980469 3.410156 12.003906 3.195312 L 12.003906 1.417969 C 12 0.636719 11.203125 0 10.222656 0 L 4.890625 0 C 3.90625 0 3.109375 0.636719 3.109375 1.417969 L 3.109375 3.191406 C 3.132812 3.410156 3.332031 3.566406 3.554688 3.546875 L 4 3.546875 L 4 4.382812 L 1.847656 5.144531 C 0.722656 5.542969 0 6.433594 0 7.417969 L 0 20.582031 C 0 21.363281 0.796875 22 1.777344 22 L 13.332031 22 C 13.714844 22 14.089844 21.898438 14.414062 21.699219 C 15.351562 22.066406 16.394531 22.097656 17.351562 21.789062 C 18.246094 21.523438 18.976562 20.902344 19.359375 20.078125 L 19.851562 20.757812 C 20.464844 21.605469 21.824219 21.898438 22.886719 21.40625 C 23.949219 20.917969 24.316406 19.832031 23.699219 18.984375 Z M 10 0.710938 L 10.222656 0.710938 C 10.714844 0.710938 11.109375 1.027344 11.109375 1.417969 L 11.109375 2.839844 L 10 2.839844 Z M 8 0.710938 L 9.109375 0.710938 L 9.109375 2.839844 L 8 2.839844 Z M 6 0.710938 L 7.109375 0.710938 L 7.109375 2.839844 L 6 2.839844 Z M 4 1.417969 C 4 1.027344 4.398438 0.710938 4.886719 0.710938 L 5.109375 0.710938 L 5.109375 2.835938 L 4 2.835938 Z M 0.890625 7.417969 C 0.890625 6.714844 1.40625 6.078125 2.210938 5.792969 L 4.625 4.9375 C 4.773438 4.894531 4.878906 4.765625 4.886719 4.613281 L 4.886719 3.546875 L 10.222656 3.546875 L 10.222656 4.613281 C 10.230469 4.765625 10.335938 4.894531 10.484375 4.9375 L 12.902344 5.792969 C 13.703125 6.078125 14.222656 6.714844 14.222656 7.414062 L 14.222656 7.804688 L 0.890625 7.804688 Z M 0.890625 8.515625 L 14.222656 8.515625 L 14.222656 16.707031 C 13.125 17.214844 12.445312 18.148438 12.445312 19.160156 L 0.890625 19.160156 Z M 13.332031 21.289062 L 1.777344 21.289062 C 1.289062 21.289062 0.890625 20.972656 0.890625 20.582031 L 0.890625 19.871094 L 12.5625 19.871094 C 12.75 20.425781 13.113281 20.90625 13.601562 21.253906 C 13.511719 21.277344 13.421875 21.289062 13.332031 21.289062 Z M 16 21.289062 C 15.058594 21.320312 14.164062 20.886719 13.628906 20.140625 C 13.171875 19.445312 13.25 18.539062 13.828125 17.929688 L 17.542969 20.894531 C 17.074219 21.15625 16.539062 21.292969 16 21.289062 Z M 18.171875 20.394531 L 14.457031 17.429688 C 15.542969 16.824219 16.894531 16.914062 17.886719 17.652344 C 18.808594 18.390625 18.929688 19.546875 18.171875 20.394531 Z M 19.3125 18.136719 C 19.035156 17.59375 18.597656 17.144531 18.050781 16.847656 L 17.957031 16.714844 C 17.589844 16.207031 17.808594 15.554688 18.445312 15.261719 C 19.074219 14.964844 19.828125 15.125 20.269531 15.652344 L 21.378906 17.1875 Z M 22.445312 20.792969 C 22.128906 20.933594 21.773438 20.972656 21.429688 20.898438 C 21.105469 20.835938 20.816406 20.660156 20.621094 20.402344 L 19.535156 18.902344 C 19.535156 18.886719 19.535156 18.871094 19.53125 18.855469 L 21.824219 17.800781 L 22.933594 19.339844 C 23.109375 19.570312 23.160156 19.871094 23.066406 20.148438 C 22.960938 20.4375 22.734375 20.667969 22.445312 20.792969 Z M 22.445312 20.792969 "/>
</g>
</svg>
