<svg xmlns="http://www.w3.org/2000/svg" width="16.151" height="19.854" viewBox="0 0 16.151 19.854"><defs><style>.a{fill:#033;}</style></defs><g transform="translate(-23 -199.477)"><path class="a" d="M15.646,2.025a4.485,4.485,0,0,0-2.186,3.81,4.484,4.484,0,0,0,2.691,3.986,10.716,10.716,0,0,1-1.4,2.83c-.8,1.223-1.692,2.456-3.043,2.456-1.285,0-1.747-.815-3.23-.815-1.593,0-2.044.815-3.263.815-1.351,0-2.307-1.3-3.153-2.511A12.393,12.393,0,0,1,0,6.132,6.826,6.826,0,0,1,.836,2.564,4.964,4.964,0,0,1,4.945.054c1.3-.044,2.45.892,3.241.892C8.944.946,10.307,0,11.911,0A4.571,4.571,0,0,1,15.646,2.025Z" transform="translate(23 204.224)"/><path class="a" d="M.047,4.561A3.974,3.974,0,0,1,1.074,1.5,4.214,4.214,0,0,1,4.062,0,4.345,4.345,0,0,1,3,3.139,3.473,3.473,0,0,1,.047,4.561Z" transform="translate(29 199.477)"/></g></svg>