<svg xmlns="http://www.w3.org/2000/svg" width="14.139" height="15.363" viewBox="0 0 14.139 15.363"><path d="M4.722,15.363a4.612,4.612,0,0,1-3.558-1.541A4.47,4.47,0,0,1,.713,8.393,89.2,89.2,0,0,1,7.382,1.508c.375-.367.631-.617.7-.691A3.4,3.4,0,0,1,12.57.875,3.161,3.161,0,0,1,12.817,5.4c-.29.315-3.011,3.079-5.634,5.741l-.71.72a2.437,2.437,0,0,1-1.645.693A1.872,1.872,0,0,1,3.459,11.9a2.069,2.069,0,0,1,.27-2.92l5.828-5.59a.6.6,0,0,1,.83.865L4.556,9.85c-.117.115-.68.714-.2,1.254a.672.672,0,0,0,.5.252h.014a1.2,1.2,0,0,0,.752-.335l.712-.722C7.776,8.83,11.62,4.93,11.935,4.587a1.969,1.969,0,0,0-.181-2.834,2.235,2.235,0,0,0-2.811-.1c-.074.076-.338.334-.723.71C6.731,3.821,2.2,8.253,1.739,9.014a3.289,3.289,0,0,0,.346,4.041,3.646,3.646,0,0,0,4.507.581.437.437,0,0,1,.039-.026,73.575,73.575,0,0,0,6.467-6.5.6.6,0,0,1,.885.809c-.547.6-5.355,5.839-6.7,6.7a4.419,4.419,0,0,1-2.563.75"/></svg>