<?xml version="1.0" encoding="UTF-8"?>
<svg xmlns="http://www.w3.org/2000/svg" xmlns:xlink="http://www.w3.org/1999/xlink" width="24px" height="24px" viewBox="0 0 24 21" version="1.1">
<g id="surface1">
<path style=" stroke:none;fill-rule:nonzero;fill:rgb(0%,0%,0%);fill-opacity:1;" d="M 22.957031 9.121094 L 22.804688 8.921875 C 22.363281 8.332031 22.242188 7.894531 22.414062 7.503906 C 22.722656 6.8125 22.597656 6.398438 22.441406 5.875 C 22.398438 5.703125 22.359375 5.523438 22.335938 5.347656 C 22.316406 5.242188 22.296875 5.128906 22.273438 5.003906 C 22.097656 4.054688 21.527344 2.292969 19.707031 1.140625 C 18.296875 0.25 16.511719 -0.0976562 13.929688 0.0234375 C 13.273438 0.0546875 12.628906 0.164062 12 0.355469 C 11.375 0.167969 10.726562 0.0546875 10.074219 0.0234375 C 7.488281 -0.0976562 5.707031 0.25 4.292969 1.140625 C 2.472656 2.292969 1.902344 4.054688 1.726562 5.003906 C 1.703125 5.128906 1.683594 5.242188 1.664062 5.347656 C 1.640625 5.523438 1.601562 5.703125 1.558594 5.878906 C 1.402344 6.398438 1.277344 6.8125 1.585938 7.503906 C 1.757812 7.894531 1.636719 8.332031 1.195312 8.921875 L 1.042969 9.121094 C 0.382812 9.988281 -0.0390625 10.597656 0.0351562 11.128906 C 0.125 11.792969 0.761719 11.996094 1.03125 12.089844 L 1.042969 12.09375 C 1.066406 12.101562 1.089844 12.109375 1.109375 12.113281 C 1.125 12.121094 1.15625 12.132812 1.179688 12.140625 C 1.152344 12.238281 1.117188 12.332031 1.070312 12.425781 L 1.046875 12.480469 C 0.953125 12.671875 0.722656 13.152344 1.097656 13.617188 C 1.046875 13.738281 1.027344 13.867188 1.035156 13.996094 L 1.035156 14.019531 C 1.027344 14.300781 1.1875 14.488281 1.289062 14.613281 C 1.394531 14.734375 1.421875 14.765625 1.386719 14.910156 C 1.140625 15.90625 1.359375 16.445312 1.511719 16.675781 C 1.667969 16.921875 1.917969 17.089844 2.207031 17.140625 C 3.042969 17.292969 3.640625 17.234375 4.167969 17.183594 L 4.175781 17.183594 C 4.40625 17.152344 4.636719 17.136719 4.867188 17.136719 C 5.140625 17.140625 5.398438 17.304688 5.445312 17.449219 C 5.59375 17.902344 5.734375 18.691406 5.652344 19.425781 C 5.59375 19.910156 5.519531 20.066406 5.355469 20.390625 L 5.136719 20.683594 C 5.070312 20.773438 5.089844 20.894531 5.175781 20.960938 C 5.265625 21.027344 5.390625 21.007812 5.457031 20.921875 L 5.699219 20.597656 L 5.707031 20.582031 C 5.890625 20.226562 5.984375 20.03125 6.050781 19.472656 C 6.144531 18.675781 5.992188 17.820312 5.828125 17.328125 C 5.722656 17.003906 5.304688 16.746094 4.875 16.742188 C 4.628906 16.742188 4.382812 16.753906 4.140625 16.785156 L 4.136719 16.785156 C 3.632812 16.832031 3.066406 16.886719 2.285156 16.746094 C 2.105469 16.714844 1.949219 16.613281 1.851562 16.460938 C 1.5625 16.015625 1.726562 15.230469 1.78125 15.003906 C 1.863281 14.664062 1.730469 14.507812 1.601562 14.355469 C 1.515625 14.253906 1.433594 14.160156 1.4375 14.027344 C 1.4375 14.011719 1.4375 14 1.4375 13.984375 L 1.4375 13.980469 C 1.425781 13.882812 1.453125 13.785156 1.507812 13.707031 L 1.609375 13.570312 L 1.484375 13.449219 C 1.195312 13.171875 1.289062 12.898438 1.410156 12.648438 L 1.4375 12.585938 C 1.589844 12.257812 1.636719 12.019531 1.570312 11.898438 L 1.546875 11.851562 L 1.5 11.824219 C 1.453125 11.800781 1.402344 11.78125 1.347656 11.769531 C 1.316406 11.761719 1.285156 11.75 1.257812 11.742188 C 1.230469 11.730469 1.203125 11.722656 1.167969 11.710938 L 1.15625 11.707031 C 0.835938 11.601562 0.484375 11.457031 0.433594 11.074219 C 0.382812 10.6875 0.785156 10.125 1.363281 9.359375 L 1.515625 9.15625 C 2.054688 8.4375 2.191406 7.882812 1.953125 7.347656 C 1.707031 6.785156 1.792969 6.484375 1.941406 5.988281 C 1.992188 5.796875 2.035156 5.605469 2.0625 5.410156 C 2.082031 5.308594 2.097656 5.195312 2.125 5.074219 C 2.289062 4.191406 2.816406 2.546875 4.511719 1.480469 C 5.847656 0.632812 7.554688 0.304688 10.050781 0.417969 C 10.480469 0.441406 10.90625 0.496094 11.328125 0.589844 C 10.082031 1.085938 8.984375 1.878906 8.214844 2.878906 C 7.160156 4.257812 6.582031 6.679688 6.871094 8.503906 C 7.160156 10.328125 8.226562 12.410156 8.855469 13.253906 C 9.445312 14.039062 9.714844 14.589844 9.738281 15.035156 C 9.820312 16.597656 9.46875 18.109375 8.492188 20.429688 L 8.320312 20.691406 C 8.265625 20.78125 8.296875 20.902344 8.386719 20.957031 C 8.476562 21.015625 8.597656 20.992188 8.660156 20.90625 L 8.847656 20.613281 L 8.855469 20.597656 C 9.863281 18.210938 10.222656 16.644531 10.140625 15.011719 C 10.113281 14.484375 9.816406 13.867188 9.179688 13.015625 C 8.574219 12.207031 7.546875 10.191406 7.269531 8.441406 C 6.992188 6.710938 7.535156 4.425781 8.539062 3.117188 C 9.367188 2.039062 10.609375 1.210938 12.003906 0.769531 C 13.394531 1.210938 14.636719 2.039062 15.46875 3.117188 C 16.464844 4.421875 17.007812 6.710938 16.730469 8.441406 C 16.449219 10.191406 15.425781 12.207031 14.820312 13.015625 C 14.183594 13.871094 13.886719 14.484375 13.859375 15.015625 C 13.773438 16.644531 14.136719 18.210938 15.144531 20.597656 L 15.148438 20.613281 L 15.339844 20.90625 C 15.398438 21 15.523438 21.023438 15.617188 20.964844 C 15.710938 20.90625 15.738281 20.78125 15.675781 20.691406 L 15.507812 20.429688 C 14.527344 18.109375 14.179688 16.597656 14.257812 15.035156 C 14.28125 14.589844 14.554688 14.039062 15.144531 13.253906 C 15.773438 12.414062 16.839844 10.316406 17.128906 8.503906 C 17.414062 6.691406 16.839844 4.261719 15.78125 2.878906 C 15.015625 1.878906 13.917969 1.085938 12.675781 0.589844 C 13.09375 0.496094 13.519531 0.441406 13.949219 0.417969 C 16.445312 0.304688 18.152344 0.632812 19.492188 1.476562 C 21.1875 2.546875 21.714844 4.191406 21.878906 5.070312 C 21.902344 5.191406 21.921875 5.304688 21.941406 5.410156 C 21.96875 5.605469 22.011719 5.796875 22.0625 5.988281 C 22.210938 6.484375 22.300781 6.785156 22.050781 7.34375 C 21.816406 7.882812 21.949219 8.4375 22.488281 9.15625 L 22.640625 9.355469 C 23.21875 10.121094 23.625 10.691406 23.574219 11.074219 C 23.519531 11.457031 23.171875 11.601562 22.851562 11.707031 L 22.835938 11.710938 C 22.804688 11.71875 22.773438 11.730469 22.746094 11.742188 C 22.71875 11.75 22.6875 11.761719 22.65625 11.769531 C 22.605469 11.78125 22.554688 11.800781 22.503906 11.824219 L 22.457031 11.851562 L 22.433594 11.902344 C 22.371094 12.019531 22.417969 12.261719 22.570312 12.589844 L 22.597656 12.644531 C 22.71875 12.898438 22.808594 13.167969 22.519531 13.445312 L 22.394531 13.566406 L 22.496094 13.703125 C 22.554688 13.785156 22.582031 13.878906 22.570312 13.976562 L 22.570312 13.984375 C 22.570312 13.996094 22.570312 14.011719 22.570312 14.023438 C 22.570312 14.15625 22.492188 14.25 22.40625 14.351562 C 22.277344 14.503906 22.144531 14.660156 22.226562 15 C 22.285156 15.230469 22.445312 16.011719 22.15625 16.457031 C 22.058594 16.609375 21.902344 16.710938 21.722656 16.742188 C 20.945312 16.882812 20.375 16.828125 19.875 16.78125 L 19.867188 16.78125 C 19.625 16.753906 19.378906 16.738281 19.132812 16.738281 C 18.707031 16.742188 18.285156 17 18.179688 17.324219 C 18.019531 17.816406 17.863281 18.671875 17.957031 19.46875 C 18.023438 20.027344 18.121094 20.222656 18.300781 20.578125 L 18.308594 20.59375 L 18.550781 20.917969 C 18.617188 21.003906 18.742188 21.023438 18.832031 20.957031 C 18.921875 20.894531 18.9375 20.769531 18.875 20.679688 L 18.652344 20.386719 C 18.488281 20.0625 18.410156 19.90625 18.359375 19.421875 C 18.273438 18.691406 18.414062 17.902344 18.5625 17.449219 C 18.609375 17.304688 18.867188 17.140625 19.140625 17.136719 C 19.371094 17.136719 19.601562 17.148438 19.832031 17.175781 L 19.835938 17.175781 C 20.363281 17.226562 20.960938 17.285156 21.796875 17.132812 C 22.085938 17.082031 22.339844 16.914062 22.492188 16.671875 C 22.644531 16.441406 22.863281 15.902344 22.617188 14.90625 C 22.582031 14.761719 22.605469 14.734375 22.714844 14.605469 C 22.824219 14.476562 22.976562 14.296875 22.972656 14.015625 C 22.96875 14.007812 22.96875 14.003906 22.972656 13.996094 L 22.972656 13.992188 C 22.980469 13.863281 22.960938 13.734375 22.910156 13.613281 C 23.285156 13.148438 23.054688 12.664062 22.960938 12.476562 L 22.9375 12.421875 C 22.890625 12.328125 22.855469 12.234375 22.828125 12.132812 C 22.851562 12.128906 22.875 12.117188 22.898438 12.109375 C 22.921875 12.101562 22.941406 12.097656 22.964844 12.085938 L 22.976562 12.082031 C 23.25 11.996094 23.886719 11.789062 23.972656 11.128906 C 24.050781 10.59375 23.625 9.984375 22.964844 9.121094 Z M 22.957031 9.121094 "/>
</g>
</svg>
