<svg xmlns="http://www.w3.org/2000/svg" width="21.916" height="23.281" viewBox="0 0 21.916 23.281"><defs><style>.a,.b{fill:none;stroke:#000;stroke-miterlimit:10;}.b{stroke-linecap:round;}</style></defs><g transform="translate(0.5 0.703)"><g transform="translate(0)"><g transform="translate(0 6.39)"><path class="a" d="M941.394,2120.905c1.473.617,2.368,1.431,2.368,2.324,0,1.926-4.162,3.486-9.3,3.486s-9.3-1.56-9.3-3.486c0-.884.878-1.691,2.325-2.306" transform="translate(-924.008 -2120.905)"/><path class="a" d="M923.17,2128.906v7.553c0,1.925,4.682,3.486,10.458,3.486s10.458-1.561,10.458-3.486v-7.553" transform="translate(-923.17 -2124.258)"/><path class="a" d="M942.345,2125.589c1.1.552,1.742,1.215,1.742,1.927,0,1.925-4.682,3.486-10.458,3.486s-10.458-1.561-10.458-3.486c0-.635.51-1.231,1.4-1.743" transform="translate(-923.17 -2122.868)"/></g><path class="b" d="M929.62,2118.621s-2.978-3.559,4.648-5.229c0,0,4.031-.617,4.067-3.486a7.458,7.458,0,0,1,4.648,8.134" transform="translate(-925.633 -2109.906)"/><path class="b" d="M937.033,2124.433s1.361-2.978,4.067-1.743" transform="translate(-928.978 -2115.137)"/></g></g></svg>