<?xml version="1.0" encoding="UTF-8"?>
<svg xmlns="http://www.w3.org/2000/svg" xmlns:xlink="http://www.w3.org/1999/xlink" width="24px" height="25px" viewBox="0 0 24 22" version="1.1">
<g id="surface1">
<path style=" stroke:none;fill-rule:nonzero;fill:rgb(0%,0%,0%);fill-opacity:1;" d="M 20.378906 15.613281 C 20.46875 15.449219 20.515625 15.265625 20.515625 15.082031 L 20.515625 12.070312 L 23.613281 12.070312 L 23.613281 7.8125 L 21.289062 7.8125 L 21.289062 6.75 C 21.257812 5.25 20.167969 3.96875 18.652344 3.652344 C 19.097656 3.261719 19.351562 2.710938 19.355469 2.128906 C 19.289062 0.933594 18.269531 0 17.03125 0 C 15.796875 0 14.773438 0.933594 14.710938 2.128906 C 14.714844 2.738281 14.996094 3.320312 15.484375 3.710938 C 14.945312 3.820312 14.421875 3.992188 13.925781 4.21875 L 10.410156 5.832031 C 10.289062 5.886719 10.179688 5.960938 10.082031 6.046875 C 9.835938 6.015625 9.585938 6.042969 9.351562 6.125 L 5.34375 7.660156 C 5.640625 7.296875 5.804688 6.847656 5.804688 6.386719 C 5.769531 5.179688 4.734375 4.230469 3.484375 4.257812 C 2.234375 4.230469 1.195312 5.179688 1.160156 6.386719 C 1.167969 7.0625 1.507812 7.691406 2.082031 8.078125 C 0.839844 8.558594 0.0195312 9.710938 0 11 L 0 20.757812 C 0.015625 21.386719 0.507812 21.90625 1.15625 21.980469 L 1.15625 22 L 24 22 L 24 15.613281 Z M 19.742188 15.082031 C 19.726562 15.378906 19.472656 15.613281 19.160156 15.613281 C 18.851562 15.613281 18.597656 15.378906 18.582031 15.082031 L 18.582031 12.070312 L 19.742188 12.070312 Z M 17.804688 12.070312 L 17.804688 15.082031 C 17.808594 15.265625 17.855469 15.449219 17.941406 15.613281 L 16.121094 15.613281 C 16.210938 15.449219 16.257812 15.265625 16.257812 15.082031 L 16.257812 11.980469 L 17.417969 11.691406 L 17.417969 12.070312 Z M 22.839844 8.523438 L 22.839844 11.359375 L 18.195312 11.359375 L 18.195312 8.523438 L 18.96875 8.523438 L 18.96875 8.878906 C 19 9.472656 19.511719 9.941406 20.128906 9.941406 C 20.746094 9.941406 21.257812 9.472656 21.289062 8.878906 L 21.289062 8.523438 Z M 15.484375 2.128906 C 15.523438 1.328125 16.207031 0.703125 17.03125 0.703125 C 17.859375 0.703125 18.539062 1.328125 18.582031 2.128906 C 18.558594 2.910156 17.902344 3.535156 17.089844 3.542969 L 17.039062 3.542969 L 17.039062 3.546875 C 17.039062 3.546875 17.035156 3.546875 17.03125 3.546875 C 16.199219 3.566406 15.507812 2.933594 15.484375 2.128906 Z M 10.757812 6.464844 L 14.273438 4.855469 C 15.136719 4.460938 16.078125 4.257812 17.035156 4.257812 C 17.066406 4.257812 17.097656 4.253906 17.132812 4.253906 L 17.808594 4.261719 C 19.300781 4.261719 20.519531 5.378906 20.519531 6.746094 L 20.519531 8.875 C 20.507812 9.074219 20.335938 9.230469 20.132812 9.230469 C 19.925781 9.230469 19.753906 9.074219 19.742188 8.875 L 19.742188 7.046875 C 19.742188 6.300781 19.421875 5.585938 18.855469 5.074219 L 18.304688 5.570312 C 18.726562 5.953125 18.964844 6.488281 18.96875 7.046875 L 18.96875 7.8125 L 17.417969 7.8125 L 17.417969 10.953125 L 16.054688 11.292969 C 15.722656 11.371094 15.488281 11.652344 15.484375 11.980469 L 15.484375 15.082031 C 15.46875 15.378906 15.214844 15.613281 14.902344 15.613281 C 14.59375 15.613281 14.339844 15.378906 14.324219 15.082031 L 14.324219 10.8125 C 14.324219 10.402344 14.578125 10.03125 14.964844 9.859375 L 16.644531 9.089844 L 16.644531 5.324219 L 15.777344 5.324219 L 11.25 7.398438 C 11.175781 7.433594 11.089844 7.453125 11.003906 7.453125 C 10.855469 7.453125 10.714844 7.398438 10.613281 7.296875 C 10.507812 7.199219 10.449219 7.0625 10.453125 6.917969 C 10.453125 6.722656 10.574219 6.546875 10.757812 6.464844 Z M 5.03125 12.773438 L 4.644531 12.773438 L 4.644531 10.871094 L 10.460938 8.363281 C 10.585938 8.308594 10.699219 8.234375 10.800781 8.140625 C 11.070312 8.1875 11.351562 8.148438 11.597656 8.03125 L 15.871094 6.074219 L 15.871094 8.652344 L 14.617188 9.226562 C 13.972656 9.507812 13.554688 10.128906 13.546875 10.8125 L 13.546875 15.082031 C 13.550781 15.265625 13.597656 15.449219 13.683594 15.613281 L 7.976562 15.613281 L 6.96875 16.464844 L 6.96875 14.546875 C 6.9375 13.542969 6.074219 12.75 5.03125 12.773438 Z M 1.9375 6.386719 C 1.960938 5.582031 2.652344 4.949219 3.484375 4.96875 C 4.316406 4.949219 5.007812 5.582031 5.03125 6.386719 C 5.007812 7.191406 4.316406 7.828125 3.484375 7.804688 C 2.652344 7.828125 1.960938 7.191406 1.9375 6.386719 Z M 0.773438 11 C 0.773438 9.628906 1.988281 8.515625 3.484375 8.515625 L 5.109375 8.515625 L 9.652344 6.78125 C 9.664062 6.777344 9.675781 6.773438 9.691406 6.769531 C 9.683594 6.828125 9.675781 6.886719 9.675781 6.945312 C 9.679688 7.253906 9.804688 7.546875 10.027344 7.761719 L 3.871094 10.417969 L 3.871094 13.484375 L 5.03125 13.484375 C 5.65625 13.46875 6.175781 13.945312 6.195312 14.546875 L 6.195312 17.921875 C 6.183594 18.222656 5.925781 18.460938 5.613281 18.453125 C 5.460938 18.453125 5.3125 18.398438 5.203125 18.296875 C 5.09375 18.199219 5.03125 18.0625 5.03125 17.921875 L 5.03125 15.613281 C 5.019531 15.210938 4.675781 14.894531 4.257812 14.902344 L 1.9375 14.902344 C 1.3125 14.917969 0.792969 14.441406 0.773438 13.839844 Z M 2.710938 15.613281 L 4.257812 15.613281 L 4.257812 17.917969 C 4.257812 18.152344 4.332031 18.382812 4.46875 18.578125 L 2.710938 20.0625 Z M 0.773438 20.757812 L 0.773438 15.25 C 1.113281 15.484375 1.519531 15.613281 1.9375 15.613281 L 1.9375 20.757812 C 1.925781 21.058594 1.667969 21.296875 1.355469 21.289062 C 1.042969 21.296875 0.78125 21.058594 0.773438 20.757812 Z M 23.226562 21.289062 L 2.574219 21.289062 C 2.609375 21.21875 2.640625 21.144531 2.660156 21.070312 L 5.054688 19.046875 C 5.230469 19.121094 5.417969 19.160156 5.613281 19.160156 C 6.339844 19.179688 6.949219 18.621094 6.96875 17.917969 L 6.96875 17.429688 L 8.28125 16.320312 L 23.222656 16.320312 Z M 23.226562 21.289062 "/>
<path style=" stroke:none;fill-rule:nonzero;fill:rgb(0%,0%,0%);fill-opacity:1;" d="M 22.515625 20.566406 L 23.011719 20.566406 L 23.011719 21.042969 L 22.515625 21.042969 Z M 22.515625 20.566406 "/>
<path style=" stroke:none;fill-rule:nonzero;fill:rgb(0%,0%,0%);fill-opacity:1;" d="M 21.527344 20.566406 L 22.019531 20.566406 L 22.019531 21.042969 L 21.527344 21.042969 Z M 21.527344 20.566406 "/>
<path style=" stroke:none;fill-rule:nonzero;fill:rgb(0%,0%,0%);fill-opacity:1;" d="M 18.804688 20.566406 L 19.300781 20.566406 L 19.300781 21.042969 L 18.804688 21.042969 Z M 18.804688 20.566406 "/>
</g>
</svg>
