<svg xmlns="http://www.w3.org/2000/svg" width="18.213" height="21.876" viewBox="0 0 18.213 21.876"><defs><style>.a{fill:none;stroke:#000;stroke-miterlimit:10;}</style></defs><g transform="translate(0.516 0.5)"><path class="a" d="M2739.551,1760.969c-1.825-6.347-8.218-3.177-8.218-3.177s-6.392-3.17-8.218,3.177a10.01,10.01,0,0,0,.3,6.321,8.444,8.444,0,0,0,4.657,5.163,2.4,2.4,0,0,0,2.33-.232,1.7,1.7,0,0,1,1.857,0,2.4,2.4,0,0,0,2.33.232,8.443,8.443,0,0,0,4.656-5.163A10.011,10.011,0,0,0,2739.551,1760.969Z" transform="translate(-2722.741 -1751.819)"/><path class="a" d="M2735.365,1755.26v-1.629a2.172,2.172,0,0,0-2.172-2.172h-1.629" transform="translate(-2726.773 -1749.287)"/><path class="a" d="M2742.563,1751.26a3.667,3.667,0,0,1,3.8-3.8S2746.5,1750.649,2742.563,1751.26Z" transform="translate(-2731.8 -1747.459)"/></g></svg>