<?xml version="1.0" encoding="UTF-8"?>
<svg xmlns="http://www.w3.org/2000/svg" xmlns:xlink="http://www.w3.org/1999/xlink" width="24px" height="px" viewBox="0 0 24 24" version="1.1">
<g id="surface1">
<path style=" stroke:none;fill-rule:nonzero;fill:rgb(0%,0%,0%);fill-opacity:1;" d="M 11.617188 0.785156 C 11.398438 1.316406 11.617188 1.960938 12 1.960938 C 12.238281 1.960938 12.359375 1.730469 12.359375 1.292969 C 12.359375 0.554688 11.855469 0.207031 11.617188 0.785156 Z M 11.617188 0.785156 "/>
<path style=" stroke:none;fill-rule:nonzero;fill:rgb(0%,0%,0%);fill-opacity:1;" d="M 9.023438 1.59375 C 8.929688 1.730469 9.097656 2.054688 9.382812 2.332031 C 9.984375 2.90625 10.609375 2.585938 10.175781 1.890625 C 9.863281 1.429688 9.214844 1.269531 9.023438 1.59375 Z M 9.023438 1.59375 "/>
<path style=" stroke:none;fill-rule:nonzero;fill:rgb(0%,0%,0%);fill-opacity:1;" d="M 13.921875 1.730469 C 13.609375 2.101562 13.753906 2.769531 14.136719 2.769531 C 14.449219 2.769531 15.121094 1.824219 14.976562 1.570312 C 14.785156 1.269531 14.257812 1.363281 13.921875 1.730469 Z M 13.921875 1.730469 "/>
<path style=" stroke:none;fill-rule:nonzero;fill:rgb(0%,0%,0%);fill-opacity:1;" d="M 10.175781 3.625 C 9.574219 4.175781 9.3125 4.246094 8.351562 4.175781 C 7.390625 4.128906 7.128906 4.199219 6.601562 4.707031 C 6.121094 5.191406 6 5.515625 6 6.53125 C 6 7.246094 6.144531 7.9375 6.359375 8.214844 C 6.839844 8.839844 6.816406 8.863281 5.878906 9.207031 C 4.894531 9.554688 4.246094 10.546875 4.367188 11.609375 C 4.441406 12.324219 4.488281 12.347656 5.6875 12.414062 L 6.9375 12.484375 L 7.007812 13.570312 L 7.078125 14.652344 L 8.855469 14.652344 C 10.128906 14.652344 10.679688 14.5625 10.753906 14.355469 C 10.800781 14.191406 10.632812 13.984375 10.367188 13.914062 C 10.054688 13.847656 9.839844 13.570312 9.792969 13.199219 C 9.742188 12.832031 9.550781 12.554688 9.3125 12.507812 C 8.976562 12.4375 8.878906 12.578125 8.878906 13.128906 C 8.878906 13.683594 8.785156 13.847656 8.398438 13.847656 C 8.015625 13.847656 7.921875 13.683594 7.921875 13.015625 C 7.921875 11.90625 8.28125 11.332031 9.238281 10.9375 C 10.464844 10.453125 10.65625 10.523438 11.230469 11.652344 C 11.519531 12.230469 11.855469 12.691406 12 12.691406 C 12.144531 12.691406 12.480469 12.230469 12.769531 11.652344 C 13.34375 10.523438 13.535156 10.453125 14.761719 10.9375 C 15.71875 11.332031 16.078125 11.90625 16.078125 13.015625 C 16.078125 13.683594 15.984375 13.847656 15.601562 13.847656 C 15.214844 13.847656 15.121094 13.683594 15.121094 13.128906 C 15.121094 12.578125 15.023438 12.4375 14.710938 12.507812 C 14.449219 12.554688 14.257812 12.832031 14.207031 13.222656 C 14.160156 13.660156 13.992188 13.847656 13.65625 13.847656 C 13.320312 13.847656 13.199219 13.984375 13.246094 14.238281 C 13.320312 14.585938 13.609375 14.652344 15.121094 14.652344 L 16.921875 14.652344 L 16.992188 13.570312 L 17.0625 12.484375 L 18.3125 12.414062 C 19.511719 12.347656 19.558594 12.324219 19.632812 11.609375 C 19.753906 10.546875 19.105469 9.554688 18.121094 9.207031 C 17.183594 8.863281 17.160156 8.839844 17.640625 8.214844 C 17.855469 7.9375 18 7.246094 18 6.53125 C 18 5.515625 17.878906 5.191406 17.398438 4.707031 C 16.871094 4.199219 16.609375 4.128906 15.648438 4.175781 C 14.6875 4.246094 14.425781 4.175781 13.824219 3.625 C 13.273438 3.136719 12.910156 3 12 3 C 11.089844 3 10.726562 3.136719 10.175781 3.625 Z M 13.246094 4.316406 C 13.871094 4.847656 13.777344 5.078125 13.007812 4.9375 C 12.550781 4.847656 12.238281 4.914062 12.023438 5.167969 C 11.59375 5.675781 10.320312 5.652344 10.320312 5.144531 C 10.320312 4.0625 12.289062 3.484375 13.246094 4.316406 Z M 9 5.332031 C 9.238281 5.675781 9.046875 5.792969 7.945312 5.929688 C 6.960938 6.070312 6.71875 5.863281 7.246094 5.355469 C 7.609375 5.007812 8.785156 4.984375 9 5.332031 Z M 16.753906 5.355469 C 17.28125 5.863281 17.039062 6.070312 16.054688 5.929688 C 14.953125 5.792969 14.761719 5.675781 15 5.332031 C 15.214844 4.984375 16.390625 5.007812 16.753906 5.355469 Z M 13.679688 7.039062 C 13.679688 7.871094 12.816406 8.769531 12 8.769531 C 11.257812 8.769531 10.320312 7.871094 10.320312 7.128906 C 10.320312 6.554688 10.414062 6.460938 10.992188 6.460938 C 11.351562 6.4375 11.902344 6.300781 12.238281 6.136719 C 13.078125 5.675781 13.679688 6.046875 13.679688 7.039062 Z M 9.265625 7.0625 C 9.191406 7.269531 9.121094 7.523438 9.121094 7.617188 C 9.121094 7.730469 8.902344 7.9375 8.617188 8.078125 C 8.230469 8.285156 7.992188 8.261719 7.535156 7.960938 C 6.71875 7.453125 6.816406 6.96875 7.753906 6.855469 C 9.335938 6.667969 9.40625 6.667969 9.265625 7.0625 Z M 16.390625 6.921875 C 17.207031 6.921875 17.257812 7.476562 16.464844 7.960938 C 16.007812 8.261719 15.769531 8.285156 15.382812 8.078125 C 15.097656 7.9375 14.878906 7.730469 14.878906 7.617188 C 14.878906 7.523438 14.808594 7.246094 14.710938 7.015625 C 14.59375 6.691406 14.664062 6.644531 15.144531 6.761719 C 15.457031 6.855469 16.007812 6.921875 16.390625 6.921875 Z M 9.960938 8.769531 C 10.03125 8.882812 9.9375 9 9.742188 9 C 9.527344 9 9.359375 8.882812 9.359375 8.769531 C 9.359375 8.628906 9.457031 8.539062 9.574219 8.539062 C 9.71875 8.539062 9.886719 8.628906 9.960938 8.769531 Z M 14.640625 8.769531 C 14.640625 8.882812 14.472656 9 14.257812 9 C 14.0625 9 13.96875 8.882812 14.039062 8.769531 C 14.113281 8.628906 14.28125 8.539062 14.425781 8.539062 C 14.542969 8.539062 14.640625 8.628906 14.640625 8.769531 Z M 8.398438 9.4375 C 8.398438 9.554688 8.59375 9.691406 8.832031 9.738281 C 9.144531 9.808594 9.070312 9.921875 8.472656 10.222656 C 8.039062 10.453125 7.585938 10.824219 7.441406 11.078125 C 7.246094 11.421875 6.9375 11.539062 6.238281 11.539062 C 5.710938 11.539062 5.28125 11.421875 5.28125 11.285156 C 5.28125 10.707031 5.808594 10.175781 6.648438 9.921875 C 7.152344 9.761719 7.65625 9.554688 7.800781 9.4375 C 8.089844 9.160156 8.398438 9.183594 8.398438 9.4375 Z M 16.222656 9.4375 C 16.34375 9.554688 16.847656 9.761719 17.351562 9.921875 C 18.191406 10.175781 18.71875 10.707031 18.71875 11.285156 C 18.71875 11.421875 18.289062 11.539062 17.761719 11.539062 C 17.0625 11.539062 16.753906 11.421875 16.558594 11.078125 C 16.414062 10.824219 15.960938 10.453125 15.527344 10.222656 C 14.929688 9.921875 14.855469 9.808594 15.191406 9.738281 C 15.40625 9.691406 15.601562 9.554688 15.601562 9.4375 C 15.601562 9.183594 15.910156 9.160156 16.222656 9.4375 Z M 12.480469 9.96875 C 12.480469 10.339844 12.070312 10.984375 11.929688 10.847656 C 11.855469 10.777344 11.734375 10.5 11.664062 10.199219 C 11.519531 9.785156 11.59375 9.691406 11.976562 9.691406 C 12.265625 9.691406 12.480469 9.832031 12.480469 9.96875 Z M 12.480469 9.96875 "/>
<path style=" stroke:none;fill-rule:nonzero;fill:rgb(0%,0%,0%);fill-opacity:1;" d="M 0.359375 8.167969 C 0.0234375 8.652344 -0.0234375 9.414062 0.046875 13.085938 L 0.121094 17.445312 L 0.9375 18.644531 C 1.679688 19.753906 2.207031 20.101562 2.496094 19.660156 C 2.566406 19.570312 2.257812 18.96875 1.847656 18.347656 L 1.078125 17.214844 L 1.078125 12.945312 C 1.078125 8.675781 1.078125 8.652344 1.632812 8.585938 C 2.160156 8.515625 2.160156 8.515625 2.160156 11.746094 C 2.160156 13.523438 2.28125 15.253906 2.398438 15.578125 C 2.710938 16.363281 5.257812 19.152344 5.664062 19.152344 C 6.40625 19.152344 6.191406 18.554688 4.945312 17.308594 C 3.550781 15.921875 3.3125 15.324219 3.984375 15.070312 C 4.824219 14.769531 7.414062 16.59375 8.160156 18.023438 C 8.425781 18.507812 8.878906 19.871094 9.144531 21.046875 C 9.695312 23.355469 9.910156 23.792969 10.34375 23.375 C 10.679688 23.054688 9.816406 19.085938 9.121094 17.792969 C 8.136719 15.898438 5.472656 14.007812 4.03125 14.125 L 3.121094 14.214844 L 3.121094 11.285156 C 3.121094 8.769531 3.070312 8.332031 2.6875 8.007812 C 2.015625 7.40625 0.816406 7.5 0.359375 8.167969 Z M 0.359375 8.167969 "/>
<path style=" stroke:none;fill-rule:nonzero;fill:rgb(0%,0%,0%);fill-opacity:1;" d="M 21.289062 8.03125 C 20.953125 8.375 20.878906 8.976562 20.878906 11.375 L 20.878906 14.285156 L 20.039062 14.144531 C 18.671875 13.9375 15.886719 15.898438 14.878906 17.792969 C 14.183594 19.085938 13.320312 23.054688 13.65625 23.375 C 14.089844 23.792969 14.304688 23.355469 14.855469 21.046875 C 15.121094 19.871094 15.574219 18.507812 15.839844 18.023438 C 16.585938 16.59375 19.175781 14.769531 20.015625 15.070312 C 20.6875 15.324219 20.449219 15.921875 19.054688 17.308594 C 17.808594 18.554688 17.59375 19.152344 18.335938 19.152344 C 18.742188 19.152344 21.289062 16.363281 21.601562 15.578125 C 21.71875 15.253906 21.839844 13.523438 21.839844 11.746094 C 21.839844 8.515625 21.839844 8.515625 22.390625 8.585938 C 22.921875 8.652344 22.921875 8.699219 22.992188 12.578125 C 23.015625 14.722656 22.945312 16.753906 22.824219 17.101562 C 22.703125 17.445312 21.71875 18.945312 20.617188 20.421875 C 19.078125 22.523438 18.71875 23.167969 18.9375 23.375 C 19.320312 23.722656 19.894531 23.101562 22.222656 19.824219 L 23.878906 17.492188 L 23.953125 13.109375 C 24.023438 9.414062 23.976562 8.652344 23.640625 8.167969 C 23.183594 7.476562 21.863281 7.40625 21.289062 8.03125 Z M 21.289062 8.03125 "/>
<path style=" stroke:none;fill-rule:nonzero;fill:rgb(0%,0%,0%);fill-opacity:1;" d="M 11.566406 14.238281 C 11.617188 14.46875 11.808594 14.652344 12 14.652344 C 12.191406 14.652344 12.382812 14.46875 12.433594 14.238281 C 12.480469 13.960938 12.359375 13.847656 12 13.847656 C 11.640625 13.847656 11.519531 13.960938 11.566406 14.238281 Z M 11.566406 14.238281 "/>
<path style=" stroke:none;fill-rule:nonzero;fill:rgb(0%,0%,0%);fill-opacity:1;" d="M 2.808594 20.445312 C 2.472656 20.769531 2.640625 21.253906 3.070312 21.183594 C 3.289062 21.136719 3.480469 20.953125 3.480469 20.792969 C 3.480469 20.421875 3.046875 20.214844 2.808594 20.445312 Z M 2.808594 20.445312 "/>
<path style=" stroke:none;fill-rule:nonzero;fill:rgb(0%,0%,0%);fill-opacity:1;" d="M 3.601562 22.015625 C 3.601562 22.199219 3.863281 22.660156 4.175781 23.007812 C 4.65625 23.515625 4.824219 23.609375 5.0625 23.375 C 5.304688 23.125 5.28125 22.960938 4.871094 22.453125 C 4.320312 21.714844 3.601562 21.484375 3.601562 22.015625 Z M 3.601562 22.015625 "/>
</g>
</svg>
