<svg xmlns="http://www.w3.org/2000/svg" width="23.715" height="22.79" viewBox="0 0 23.715 22.79"><defs><style>.a{fill:none;stroke:#000;stroke-linecap:round;stroke-linejoin:round;}</style></defs><g transform="translate(0.5 0.638)"><path class="a" d="M1532.588,2032.989a9.263,9.263,0,0,0-4.117-1.583,3.876,3.876,0,1,1-7.227,0s-1.377-.237-3.7,1.259a15.007,15.007,0,0,0-4.044,4.547l3.1,2.639,2.065-2.111a7.256,7.256,0,0,0,0,4.222s1.436,4.127.516,6.861a19.532,19.532,0,0,0-1.033,4.222h13.422a27.762,27.762,0,0,0-1.032-4.222c-.8-2.51.516-6.861.516-6.861a7.252,7.252,0,0,0,0-4.222l2.065,2.111,3.1-2.639A11.628,11.628,0,0,0,1532.588,2032.989Z" transform="translate(-1513.5 -2031.392)"/><path class="a" d="M1528.5,2031.406s4.3,1.183,7.227,0" transform="translate(-1520.756 -2031.393)"/></g></svg>