<?xml version="1.0" encoding="UTF-8"?>
<svg xmlns="http://www.w3.org/2000/svg" xmlns:xlink="http://www.w3.org/1999/xlink" width="24px" height="25px" viewBox="0 0 24 15" version="1.1">
<g id="surface1">
<path style=" stroke:none;fill-rule:nonzero;fill:rgb(0%,0%,0%);fill-opacity:1;" d="M 23.972656 8.417969 C 23.792969 7.609375 22.828125 6.976562 21.597656 6.859375 L 21.597656 6.382812 C 21.597656 5.0625 20.074219 3.988281 18.199219 3.988281 C 16.378906 3.988281 14.855469 5.027344 14.800781 6.308594 L 14.824219 6.308594 L 14.800781 6.3125 L 14.800781 11.496094 C 14.800781 13.152344 12.914062 14.496094 10.601562 14.496094 C 8.285156 14.496094 6.398438 13.152344 6.398438 11.496094 L 6.398438 11.046875 C 6.980469 11.046875 7.601562 10.769531 7.601562 9.996094 L 7.601562 9.332031 C 10.167969 8.902344 12 7.453125 12 5.808594 L 12 5.261719 L 11.199219 5.261719 L 11.183594 1.835938 C 11.179688 1.203125 10.484375 0.664062 9.539062 0.550781 C 9.332031 0.136719 8.660156 -0.0859375 8.03125 0.046875 C 7.40625 0.179688 7.0625 0.625 7.269531 1.035156 C 7.472656 1.449219 8.148438 1.671875 8.773438 1.539062 C 9.070312 1.492188 9.335938 1.328125 9.511719 1.085938 C 10.023438 1.183594 10.378906 1.488281 10.382812 1.839844 L 10.398438 5.261719 L 9.601562 5.261719 L 9.601562 5.816406 C 9.566406 6.730469 8.636719 7.527344 7.296875 7.78125 C 6.574219 7.929688 5.824219 7.929688 5.097656 7.78125 C 3.761719 7.527344 2.832031 6.730469 2.800781 5.816406 L 2.800781 5.261719 L 1.601562 5.261719 L 1.601562 1.839844 C 1.601562 1.484375 1.964844 1.175781 2.488281 1.082031 C 2.730469 1.492188 3.429688 1.691406 4.050781 1.53125 C 4.671875 1.371094 4.976562 0.910156 4.734375 0.503906 C 4.488281 0.0976562 3.789062 -0.105469 3.167969 0.0546875 C 2.871094 0.113281 2.617188 0.292969 2.464844 0.546875 C 1.503906 0.65625 0.804688 1.203125 0.800781 1.839844 L 0.800781 5.261719 L 0 5.261719 L 0 5.808594 C 0 7.453125 1.832031 8.902344 4.398438 9.332031 L 4.398438 9.996094 C 4.398438 10.769531 5.019531 11.046875 5.601562 11.046875 L 5.601562 11.496094 C 5.601562 13.441406 7.84375 15.023438 10.601562 15.023438 C 13.355469 15.023438 15.601562 13.441406 15.601562 11.496094 L 15.601562 6.324219 C 15.640625 5.328125 16.808594 4.515625 18.199219 4.515625 C 19.632812 4.515625 20.800781 5.351562 20.800781 6.382812 L 20.800781 6.859375 C 19.269531 7.003906 18.207031 7.9375 18.429688 8.945312 C 18.648438 9.949219 20.070312 10.648438 21.597656 10.503906 C 23.128906 10.359375 24.191406 9.425781 23.972656 8.417969 Z M 8.398438 1.050781 C 8.179688 1.050781 8 0.933594 8 0.789062 C 8 0.644531 8.179688 0.527344 8.398438 0.527344 C 8.621094 0.527344 8.800781 0.644531 8.800781 0.789062 C 8.800781 0.933594 8.621094 1.050781 8.398438 1.050781 Z M 3.601562 0.527344 C 3.820312 0.527344 4 0.644531 4 0.789062 C 4 0.933594 3.820312 1.050781 3.601562 1.050781 C 3.378906 1.050781 3.199219 0.933594 3.199219 0.789062 C 3.199219 0.644531 3.378906 0.527344 3.601562 0.527344 Z M 0.800781 5.808594 L 0.800781 5.785156 L 2 5.785156 L 2 5.816406 C 2.03125 6.960938 3.1875 7.957031 4.855469 8.277344 C 5.742188 8.460938 6.65625 8.460938 7.542969 8.277344 C 9.210938 7.957031 10.371094 6.960938 10.398438 5.816406 L 10.398438 5.785156 L 11.199219 5.785156 L 11.199219 5.808594 C 11.199219 7.269531 9.484375 8.558594 7.121094 8.871094 C 6.5625 8.941406 5.996094 8.960938 5.433594 8.921875 C 5.246094 8.910156 5.0625 8.894531 4.878906 8.867188 C 2.515625 8.558594 0.800781 7.269531 0.800781 5.808594 Z M 5.601562 10.519531 C 5.238281 10.519531 5.199219 10.152344 5.199219 9.996094 L 5.199219 9.4375 C 5.230469 9.4375 5.265625 9.441406 5.296875 9.441406 C 5.335938 9.445312 5.378906 9.449219 5.417969 9.449219 C 5.605469 9.460938 5.796875 9.46875 5.988281 9.46875 L 6.007812 9.46875 C 6.203125 9.46875 6.390625 9.460938 6.578125 9.449219 C 6.621094 9.445312 6.660156 9.445312 6.703125 9.441406 C 6.734375 9.441406 6.769531 9.4375 6.800781 9.4375 L 6.800781 9.996094 C 6.800781 10.152344 6.757812 10.519531 6.398438 10.519531 Z M 21.199219 9.996094 C 20.09375 9.996094 19.199219 9.40625 19.199219 8.679688 C 19.199219 7.953125 20.09375 7.363281 21.199219 7.363281 C 22.304688 7.363281 23.199219 7.953125 23.199219 8.679688 C 23.199219 9.40625 22.304688 9.992188 21.199219 9.996094 Z M 21.199219 9.996094 "/>
<path style=" stroke:none;fill-rule:nonzero;fill:rgb(0%,0%,0%);fill-opacity:1;" d="M 22.117188 7.890625 C 21.671875 7.890625 21.308594 8.242188 21.308594 8.679688 C 21.308594 9.113281 21.671875 9.46875 22.117188 9.46875 C 22.5625 9.46875 22.921875 9.113281 22.921875 8.679688 C 22.921875 8.242188 22.5625 7.890625 22.117188 7.890625 Z M 22.117188 8.941406 C 21.96875 8.941406 21.847656 8.824219 21.847656 8.679688 C 21.847656 8.535156 21.96875 8.417969 22.117188 8.417969 C 22.265625 8.417969 22.386719 8.535156 22.386719 8.679688 C 22.386719 8.824219 22.265625 8.941406 22.117188 8.941406 Z M 22.117188 8.941406 "/>
</g>
</svg>
