<?xml version="1.0" encoding="UTF-8"?>
<svg xmlns="http://www.w3.org/2000/svg" xmlns:xlink="http://www.w3.org/1999/xlink" width="24px" height="px" viewBox="0 0 24 24" version="1.1">
<g id="surface1">
<path style=" stroke:none;fill-rule:nonzero;fill:rgb(0%,0%,0%);fill-opacity:1;" d="M 1.679688 0.875 C 0.742188 1.363281 0 2.539062 0 3.578125 C 0 4.5 0.769531 5.652344 1.679688 6.117188 C 2.0625 6.300781 2.398438 6.601562 2.398438 6.785156 C 2.398438 7.269531 3.214844 7.847656 3.910156 7.847656 C 4.535156 7.847656 5.617188 6.832031 5.449219 6.371094 C 5.28125 5.882812 4.800781 6 4.558594 6.578125 C 4.246094 7.363281 3.289062 7.316406 3.167969 6.507812 C 3.121094 6.207031 2.710938 5.746094 2.160156 5.421875 C 0.574219 4.453125 0.289062 3.300781 1.34375 2.101562 C 2.160156 1.175781 3.121094 1.152344 5.6875 2.054688 L 7.609375 2.746094 L 9.023438 2.03125 C 10.777344 1.175781 10.992188 0.96875 10.511719 0.808594 C 10.296875 0.714844 9.574219 0.921875 8.878906 1.269531 L 7.632812 1.871094 L 5.496094 1.175781 C 2.976562 0.347656 2.785156 0.324219 1.679688 0.875 Z M 1.679688 0.875 "/>
<path style=" stroke:none;fill-rule:nonzero;fill:rgb(0%,0%,0%);fill-opacity:1;" d="M 11.664062 0.644531 C 11.472656 0.96875 11.6875 1.085938 12.839844 1.269531 C 13.367188 1.363281 14.351562 1.730469 15.046875 2.101562 L 16.296875 2.769531 L 18.335938 2.078125 C 20.710938 1.269531 21.550781 1.222656 22.390625 1.847656 C 23.640625 2.792969 23.425781 4.5 21.960938 5.332031 C 21.503906 5.609375 20.976562 6.09375 20.808594 6.414062 C 20.640625 6.785156 20.328125 7.039062 20.039062 7.039062 C 19.632812 7.039062 19.558594 6.855469 19.488281 5.816406 C 19.414062 4.5 19.800781 4.0625 20.664062 4.570312 C 21.265625 4.9375 21.71875 4.914062 22.078125 4.5 C 22.777344 3.691406 22.105469 2.078125 21.046875 2.078125 C 20.375 2.078125 17.734375 3 17.230469 3.414062 C 16.871094 3.691406 16.824219 4.015625 16.945312 5.398438 C 17.0625 6.625 16.992188 7.292969 16.679688 8.078125 C 16.054688 9.714844 15.960938 10.222656 16.34375 10.109375 C 17.089844 9.898438 17.640625 8.261719 17.6875 6.136719 C 17.710938 5.007812 17.808594 4.015625 17.929688 3.921875 C 18.335938 3.578125 21.097656 2.722656 21.335938 2.882812 C 21.671875 3.070312 21.695312 3.921875 21.382812 3.921875 C 21.238281 3.921875 21.070312 3.808594 21 3.691406 C 20.761719 3.324219 19.777344 3.414062 19.199219 3.875 C 18.574219 4.363281 18.3125 6.023438 18.695312 6.96875 C 19.152344 8.101562 21.214844 8.144531 21.503906 7.015625 C 21.574219 6.714844 21.984375 6.277344 22.367188 6.09375 C 24.550781 5.007812 24.480469 1.871094 22.246094 0.855469 C 21.121094 0.347656 20.976562 0.347656 18.527344 1.152344 L 16.441406 1.871094 L 15.238281 1.269531 C 13.894531 0.625 11.902344 0.277344 11.664062 0.644531 Z M 11.664062 0.644531 "/>
<path style=" stroke:none;fill-rule:nonzero;fill:rgb(0%,0%,0%);fill-opacity:1;" d="M 11.160156 2.007812 C 9.839844 2.285156 9.046875 2.628906 8.398438 3.136719 L 7.703125 3.714844 L 8.089844 4.800781 C 8.542969 6.136719 8.878906 6.554688 9.191406 6.253906 C 9.335938 6.117188 9.289062 5.652344 9.046875 4.984375 C 8.761719 4.199219 8.734375 3.898438 8.953125 3.738281 C 10.320312 2.675781 12.601562 2.46875 14.160156 3.230469 C 14.664062 3.484375 15.144531 3.785156 15.214844 3.875 C 15.289062 3.992188 14.785156 5.539062 14.089844 7.292969 L 12.839844 10.5 L 12.816406 14.539062 C 12.792969 16.753906 12.671875 19.617188 12.550781 20.882812 C 12.3125 23.101562 12.40625 23.746094 12.910156 23.445312 C 13.246094 23.238281 13.558594 19.429688 13.558594 15 L 13.558594 10.960938 L 14.953125 7.40625 C 16.273438 3.96875 16.296875 3.832031 15.910156 3.390625 C 15.070312 2.492188 12.40625 1.707031 11.160156 2.007812 Z M 11.160156 2.007812 "/>
<path style=" stroke:none;fill-rule:nonzero;fill:rgb(0%,0%,0%);fill-opacity:1;" d="M 2.039062 2.398438 C 1.535156 2.746094 1.441406 3.945312 1.921875 4.476562 C 2.257812 4.890625 3.023438 4.960938 3.238281 4.617188 C 3.527344 4.175781 4.488281 4.363281 4.632812 4.871094 C 4.703125 5.144531 4.894531 5.308594 5.0625 5.261719 C 5.617188 5.078125 5.566406 4.636719 4.921875 4.015625 C 4.296875 3.414062 3.863281 3.371094 2.832031 3.808594 C 2.496094 3.921875 2.398438 3.855469 2.398438 3.484375 C 2.398438 2.722656 2.929688 2.675781 4.726562 3.300781 L 6.359375 3.875 L 6.289062 5.375 C 6.167969 7.363281 6.695312 9.023438 7.945312 10.617188 C 9.046875 11.976562 9.144531 12.53125 8.542969 13.890625 C 8.089844 14.90625 8.039062 16.246094 8.425781 17.285156 C 8.6875 17.976562 9.335938 18.183594 9.144531 17.515625 C 8.832031 16.339844 8.855469 15.117188 9.238281 14.167969 C 9.863281 12.578125 9.769531 11.628906 8.902344 10.660156 C 7.367188 8.90625 7.078125 8.144531 7.078125 5.839844 C 7.078125 3.371094 7.03125 3.300781 4.894531 2.585938 C 3.191406 1.984375 2.664062 1.960938 2.039062 2.398438 Z M 2.039062 2.398438 "/>
<path style=" stroke:none;fill-rule:nonzero;fill:rgb(0%,0%,0%);fill-opacity:1;" d="M 9.238281 7.382812 C 9 7.753906 9.359375 8.539062 9.742188 8.539062 C 10.105469 8.539062 10.175781 8.125 9.9375 7.523438 C 9.769531 7.109375 9.457031 7.039062 9.238281 7.382812 Z M 9.238281 7.382812 "/>
<path style=" stroke:none;fill-rule:nonzero;fill:rgb(0%,0%,0%);fill-opacity:1;" d="M 10.007812 9.390625 C 9.9375 9.507812 10.03125 10.152344 10.222656 10.847656 C 10.488281 11.792969 10.535156 12.898438 10.441406 15.117188 C 10.273438 18.691406 10.726562 23.332031 11.257812 23.492188 C 11.542969 23.585938 11.566406 23.191406 11.375 20.976562 C 11.257812 19.523438 11.207031 16.777344 11.230469 14.882812 C 11.28125 12.53125 11.207031 11.101562 10.992188 10.40625 C 10.679688 9.414062 10.273438 9 10.007812 9.390625 Z M 10.007812 9.390625 "/>
<path style=" stroke:none;fill-rule:nonzero;fill:rgb(0%,0%,0%);fill-opacity:1;" d="M 14.472656 11.46875 C 14.136719 12.277344 14.136719 12.4375 14.617188 13.847656 C 15.265625 15.761719 15.265625 16.152344 14.472656 17.816406 C 13.921875 19.015625 13.871094 19.292969 14.113281 19.890625 C 14.304688 20.375 14.304688 20.953125 14.136719 21.855469 C 13.945312 22.777344 13.96875 23.214844 14.160156 23.398438 C 14.566406 23.792969 14.832031 23.191406 15.023438 21.53125 C 15.121094 20.5625 15.097656 19.960938 14.902344 19.753906 C 14.6875 19.523438 14.785156 19.152344 15.238281 18.207031 C 15.9375 16.753906 16.007812 15.324219 15.457031 13.753906 C 15.097656 12.738281 15.097656 12.371094 15.480469 11.125 C 15.792969 10.222656 14.902344 10.523438 14.472656 11.46875 Z M 14.472656 11.46875 "/>
<path style=" stroke:none;fill-rule:nonzero;fill:rgb(0%,0%,0%);fill-opacity:1;" d="M 9.238281 18.691406 C 9.167969 18.808594 9.167969 19.039062 9.238281 19.152344 C 9.335938 19.292969 9.265625 19.546875 9.121094 19.730469 C 8.902344 19.960938 8.878906 20.515625 8.976562 21.53125 C 9.167969 23.214844 9.433594 23.792969 9.863281 23.375 C 10.054688 23.191406 10.054688 22.824219 9.863281 21.921875 C 9.648438 21 9.671875 20.515625 9.863281 19.960938 C 10.152344 19.199219 10.03125 18.460938 9.625 18.460938 C 9.503906 18.460938 9.3125 18.554688 9.238281 18.691406 Z M 9.238281 18.691406 "/>
</g>
</svg>
