<?xml version="1.0" encoding="UTF-8"?>
<svg xmlns="http://www.w3.org/2000/svg" xmlns:xlink="http://www.w3.org/1999/xlink" width="24px" height="px" viewBox="0 0 24 24" version="1.1">
<g id="surface1">
<path style=" stroke:none;fill-rule:nonzero;fill:rgb(0%,0%,0%);fill-opacity:1;" d="M 10.800781 2.5625 C 10.800781 2.699219 11.304688 3.390625 11.929688 4.085938 L 13.078125 5.355469 L 14.207031 4.175781 C 15.289062 3.046875 15.648438 2.308594 15.144531 2.308594 C 15.023438 2.308594 14.519531 2.769531 14.039062 3.347656 L 13.152344 4.363281 L 12.289062 3.347656 C 11.425781 2.375 10.800781 2.03125 10.800781 2.5625 Z M 10.800781 2.5625 "/>
<path style=" stroke:none;fill-rule:nonzero;fill:rgb(0%,0%,0%);fill-opacity:1;" d="M 9.359375 3.714844 C 9.359375 3.875 9.769531 4.453125 10.246094 5.03125 C 11.089844 6.023438 11.113281 6.070312 10.535156 5.929688 C 10.222656 5.863281 9.070312 5.722656 7.992188 5.628906 C 6.3125 5.492188 6 5.515625 6 5.816406 C 6 6.070312 6.433594 6.207031 7.800781 6.300781 C 8.785156 6.390625 10.03125 6.53125 10.585938 6.601562 L 11.566406 6.761719 L 11.425781 8.238281 C 11.328125 9.160156 11.425781 11.125 11.664062 13.339844 L 12.097656 16.914062 L 11.257812 17.585938 C 10.078125 18.53125 8.28125 18.96875 5.328125 18.992188 C 3.023438 19.039062 2.6875 18.992188 2.015625 18.53125 C 0.839844 17.722656 0.671875 17.03125 0.769531 13.570312 C 0.839844 10.960938 0.9375 10.363281 1.367188 9.554688 C 1.96875 8.46875 3.648438 6.96875 4.488281 6.785156 C 4.800781 6.691406 5.039062 6.507812 5.039062 6.324219 C 5.039062 5.515625 3.191406 6.414062 1.800781 7.890625 C 0.265625 9.53125 -0.046875 10.777344 0.046875 14.539062 C 0.144531 17.976562 0.335938 18.4375 2.257812 19.363281 C 3.382812 19.914062 3.480469 19.914062 6.289062 19.683594 C 8.6875 19.476562 9.382812 19.316406 10.609375 18.738281 L 12.046875 18.046875 L 11.929688 19.015625 C 11.855469 19.523438 11.734375 20.144531 11.640625 20.375 C 11.519531 20.652344 11.59375 20.769531 11.832031 20.769531 C 12.769531 20.769531 12.984375 18.390625 12.433594 13.871094 C 12.023438 10.429688 12.023438 7.753906 12.40625 6.808594 C 12.457031 6.644531 11.902344 5.839844 11.160156 4.984375 C 9.863281 3.507812 9.359375 3.160156 9.359375 3.714844 Z M 9.359375 3.714844 "/>
<path style=" stroke:none;fill-rule:nonzero;fill:rgb(0%,0%,0%);fill-opacity:1;" d="M 15.023438 5.078125 C 13.152344 7.292969 13.007812 8.078125 13.65625 13.707031 C 14.113281 17.746094 14.113281 18.390625 13.558594 20.746094 C 13.414062 21.371094 13.441406 21.507812 13.703125 21.414062 C 14.257812 21.230469 14.6875 19.617188 14.734375 17.585938 C 14.761719 16.152344 14.855469 15.625 15.121094 15.460938 C 15.671875 15.117188 16.078125 15.183594 16.078125 15.644531 C 16.078125 16.339844 17.207031 17.675781 18.144531 18.117188 C 19.558594 18.761719 22.246094 18.347656 21.742188 17.5625 C 21.625 17.375 21.433594 17.375 21.121094 17.539062 C 19.777344 18.230469 17.785156 17.492188 17.039062 16.015625 C 15.9375 13.847656 17.398438 11.769531 19.992188 11.769531 C 22.273438 11.769531 23.785156 14.285156 22.679688 16.152344 C 22.222656 16.890625 22.246094 17.078125 22.703125 17.078125 C 23.160156 17.078125 23.761719 15.714844 23.761719 14.722656 C 23.734375 14.308594 23.59375 13.636719 23.425781 13.269531 C 23.160156 12.667969 23.160156 12.460938 23.542969 11.722656 C 24.359375 10.152344 24 8.308594 22.65625 7.128906 C 21.527344 6.160156 20.59375 5.953125 17.640625 6.136719 C 14.6875 6.324219 14.785156 6.460938 16.367188 4.660156 C 16.992188 3.96875 17.0625 3.460938 16.585938 3.460938 C 16.488281 3.460938 15.792969 4.175781 15.023438 5.078125 Z M 21.359375 7.109375 C 22.65625 7.730469 23.351562 8.882812 23.207031 10.199219 C 23.160156 10.800781 22.96875 11.445312 22.824219 11.628906 C 22.558594 11.929688 22.441406 11.90625 21.769531 11.515625 C 20.734375 10.914062 18.863281 10.9375 17.808594 11.539062 C 16.992188 12.023438 16.078125 13.246094 16.078125 13.871094 C 16.078125 14.191406 15.167969 14.769531 14.664062 14.769531 C 14.375 14.769531 13.921875 9.277344 14.113281 8.078125 L 14.28125 7.039062 L 16.320312 6.898438 C 20.0625 6.667969 20.496094 6.691406 21.359375 7.109375 Z M 21.359375 7.109375 "/>
<path style=" stroke:none;fill-rule:nonzero;fill:rgb(0%,0%,0%);fill-opacity:1;" d="M 16.488281 7.777344 C 16.390625 8.125 16.414062 9.300781 16.535156 9.855469 C 16.535156 9.921875 16.824219 9.761719 17.136719 9.484375 C 17.449219 9.207031 18 8.90625 18.382812 8.792969 C 18.742188 8.699219 19.105469 8.492188 19.152344 8.308594 C 19.246094 8.078125 19.03125 8.03125 18.144531 8.144531 C 17.089844 8.285156 17.015625 8.261719 17.160156 7.847656 C 17.257812 7.523438 17.207031 7.382812 16.945312 7.382812 C 16.753906 7.382812 16.535156 7.570312 16.488281 7.777344 Z M 16.488281 7.777344 "/>
<path style=" stroke:none;fill-rule:nonzero;fill:rgb(0%,0%,0%);fill-opacity:1;" d="M 5.015625 8.46875 C 4.992188 8.585938 4.992188 8.839844 5.015625 9.046875 C 5.089844 9.644531 4.390625 9.554688 4.222656 8.953125 C 4.128906 8.539062 4.03125 8.492188 3.816406 8.699219 C 3.382812 9.117188 3.910156 10.152344 4.535156 10.152344 C 4.800781 10.152344 5.207031 10.429688 5.472656 10.777344 C 6.097656 11.609375 6.382812 11.308594 6.046875 10.222656 C 5.902344 9.738281 5.710938 9.117188 5.640625 8.816406 C 5.496094 8.332031 5.0625 8.101562 5.015625 8.46875 Z M 5.015625 8.46875 "/>
<path style=" stroke:none;fill-rule:nonzero;fill:rgb(0%,0%,0%);fill-opacity:1;" d="M 10.078125 11.929688 C 9.40625 12.160156 8.640625 12.992188 8.640625 13.476562 C 8.617188 13.914062 8.59375 13.914062 8.375 13.546875 C 8.257812 13.339844 8.039062 13.152344 7.921875 13.152344 C 7.585938 13.152344 7.609375 14.238281 7.945312 14.421875 C 8.113281 14.539062 8.0625 14.722656 7.800781 15 C 7.34375 15.484375 7.511719 15.96875 8.015625 15.785156 C 8.328125 15.667969 9.191406 14.214844 9.457031 13.316406 C 9.527344 13.085938 9.9375 12.785156 10.320312 12.644531 C 10.726562 12.53125 11.015625 12.300781 10.96875 12.160156 C 10.871094 11.863281 10.535156 11.769531 10.078125 11.929688 Z M 10.078125 11.929688 "/>
<path style=" stroke:none;fill-rule:nonzero;fill:rgb(0%,0%,0%);fill-opacity:1;" d="M 18.71875 13.039062 C 18.71875 13.5 18.601562 13.617188 18.144531 13.617188 C 17.542969 13.617188 17.28125 13.984375 17.28125 14.863281 C 17.28125 15.460938 17.710938 15.921875 18.265625 15.921875 C 18.527344 15.921875 18.71875 16.128906 18.769531 16.429688 C 18.816406 16.871094 19.007812 16.984375 19.847656 17.03125 C 20.761719 17.101562 20.878906 17.03125 21.023438 16.523438 C 21.097656 16.175781 21.382812 15.898438 21.742188 15.832031 C 22.273438 15.691406 22.34375 15.578125 22.273438 14.699219 C 22.222656 13.914062 22.105469 13.707031 21.671875 13.660156 C 21.359375 13.617188 21.097656 13.363281 21.023438 13.015625 C 20.878906 12.53125 20.734375 12.460938 19.800781 12.460938 C 18.816406 12.460938 18.71875 12.507812 18.71875 13.039062 Z M 20.304688 13.730469 C 20.398438 14.144531 20.617188 14.308594 21.023438 14.308594 C 21.433594 14.308594 21.601562 14.445312 21.601562 14.769531 C 21.601562 15.117188 21.433594 15.230469 21 15.230469 C 20.566406 15.230469 20.375 15.390625 20.257812 15.808594 C 20.0625 16.523438 19.511719 16.570312 19.390625 15.875 C 19.34375 15.554688 19.105469 15.324219 18.71875 15.230469 C 17.855469 15.023438 17.808594 14.355469 18.648438 14.261719 C 19.128906 14.214844 19.34375 14.054688 19.390625 13.660156 C 19.511719 12.96875 20.113281 13.015625 20.304688 13.730469 Z M 20.304688 13.730469 "/>
</g>
</svg>
