<svg xmlns="http://www.w3.org/2000/svg" width="16" height="24" viewBox="0 0 16 24"><defs><style>.a,.b,.c,.d,.f{fill:none;}.a,.b,.c,.d{stroke:#000;}.b,.c{stroke-linejoin:round;}.b{stroke-width:0.6px;}.c{stroke-width:0.4px;}.d{stroke-linecap:round;}.e{stroke:none;}</style></defs><g class="a"><rect class="e" width="16" height="24"/><rect class="f" x="0.5" y="0.5" width="15" height="23"/></g><g transform="translate(3.428 3.808)"><circle class="b" cx="4.57" cy="4.57" r="4.57"/><line class="c" x2="9.14" transform="translate(0 4.57)"/><path class="c" d="M999.726,1251.43v-9.14S1005.239,1246.532,999.726,1251.43Z" transform="translate(-995.156 -1242.29)"/><path class="c" d="M991.454,1242.29s-5.513,4.242,0,9.14v-9.14" transform="translate(-986.884 -1242.29)"/><path class="c" d="M985.726,1248.29a5.156,5.156,0,0,0,6.4,0" transform="translate(-984.355 -1246.919)"/><path class="c" d="M992.124,1271.437a5.156,5.156,0,0,0-6.4,0" transform="translate(-984.355 -1263.892)"/></g><line class="d" x2="6.093" transform="translate(4.951 15.615)"/><line class="d" x2="9.14" transform="translate(3.428 17.9)"/></svg>