<?xml version="1.0" encoding="UTF-8"?>
<svg xmlns="http://www.w3.org/2000/svg" xmlns:xlink="http://www.w3.org/1999/xlink" width="24px" height="25px" viewBox="0 0 24 22" version="1.1">
<g id="surface1">
<path style=" stroke:none;fill-rule:nonzero;fill:rgb(0%,0%,0%);fill-opacity:1;" d="M 24 8.496094 L 24 8.375 C 24 7.371094 23.398438 6.425781 22.304688 5.714844 C 21.082031 4.96875 19.660156 4.585938 18.214844 4.613281 L 18 4.613281 C 17.335938 4.613281 16.675781 4.6875 16.03125 4.832031 C 15.890625 4.542969 15.820312 4.226562 15.816406 3.910156 C 15.816406 2.839844 16.382812 1.792969 17.40625 0.960938 L 18.589844 0 L 13.871094 0 L 13.542969 0.359375 C 12.535156 1.453125 12 2.707031 12 3.980469 C 12.015625 4.875 12.351562 5.738281 12.941406 6.425781 C 12.359375 6.976562 12.023438 7.726562 12 8.515625 C 11.980469 8.808594 11.800781 9.074219 11.53125 9.203125 C 11.195312 9.390625 10.8125 9.472656 10.429688 9.441406 L 7.402344 9.246094 C 7.214844 9.230469 7.023438 9.226562 6.832031 9.226562 C 3.667969 9.226562 1.09375 10.902344 1.09375 12.960938 C 1.097656 13.359375 1.203125 13.753906 1.40625 14.105469 L 1.351562 14.128906 C 0.503906 14.496094 0 15.109375 0 15.769531 C 0 16.582031 0.761719 17.285156 1.847656 17.585938 C 1.402344 17.847656 1.121094 18.304688 1.089844 18.804688 C 1.089844 19.460938 1.648438 20.03125 2.464844 20.335938 C 2.289062 20.492188 2.1875 20.707031 2.183594 20.933594 C 2.183594 21.523438 2.917969 22 3.816406 22 L 16.363281 22 C 19.972656 22 22.90625 20.089844 22.90625 17.742188 C 22.90625 16.128906 21.476562 14.660156 19.320312 13.945312 C 22.121094 12.816406 24 10.800781 24 8.496094 Z M 13.089844 3.980469 C 13.117188 2.765625 13.613281 1.605469 14.476562 0.722656 L 16.328125 0.710938 C 15.292969 1.636719 14.726562 2.761719 14.726562 3.910156 C 14.730469 4.332031 14.835938 4.75 15.03125 5.128906 C 14.558594 5.300781 14.109375 5.527344 13.695312 5.804688 C 13.3125 5.269531 13.101562 4.632812 13.089844 3.984375 Z M 14.183594 14.191406 C 12.304688 14.191406 10.507812 13.609375 9.382812 12.632812 L 8.726562 12.0625 C 8.109375 11.585938 7.335938 11.332031 6.546875 11.355469 C 6 11.34375 5.464844 11.488281 5.003906 11.769531 C 4.625 11.976562 4.386719 12.355469 4.363281 12.773438 C 4.363281 13.554688 5.34375 14.191406 6.546875 14.191406 L 10.410156 14.191406 C 11.605469 14.667969 12.886719 14.910156 14.183594 14.902344 C 15.5 14.90625 16.8125 14.726562 18.078125 14.375 C 20.289062 14.851562 21.816406 16.214844 21.816406 17.742188 C 21.816406 19.699219 19.371094 21.289062 16.363281 21.289062 L 3.820312 21.289062 C 3.519531 21.289062 3.273438 21.128906 3.273438 20.933594 C 3.273438 20.738281 3.519531 20.578125 3.820312 20.578125 L 12 20.578125 L 12 19.871094 L 3.816406 19.871094 C 2.917969 19.871094 2.183594 19.394531 2.183594 18.808594 C 2.183594 18.222656 2.914062 17.742188 3.816406 17.742188 L 16.363281 17.742188 L 16.363281 17.03125 L 3.03125 17.03125 C 1.960938 17.03125 1.089844 16.464844 1.089844 15.769531 C 1.089844 15.363281 1.394531 14.988281 1.894531 14.753906 C 2.8125 15.695312 4.421875 16.324219 6.257812 16.324219 L 16.910156 16.324219 C 17.8125 16.324219 18.546875 16.800781 18.546875 17.386719 C 18.546875 17.972656 17.8125 18.453125 16.910156 18.453125 L 8.726562 18.453125 L 8.726562 19.160156 L 16.910156 19.160156 C 18.414062 19.160156 19.636719 18.367188 19.636719 17.386719 C 19.636719 16.410156 18.414062 15.613281 16.910156 15.613281 L 6.261719 15.613281 C 4.011719 15.613281 2.183594 14.421875 2.183594 12.960938 C 2.183594 11.292969 4.269531 9.933594 6.832031 9.933594 C 6.988281 9.933594 7.140625 9.941406 7.296875 9.949219 L 10.320312 10.148438 C 10.996094 10.199219 11.671875 10.054688 12.261719 9.730469 C 12.789062 9.421875 13.089844 8.976562 13.089844 8.515625 C 13.089844 6.753906 15.292969 5.324219 18 5.324219 L 18.214844 5.324219 C 19.386719 5.300781 20.542969 5.613281 21.535156 6.21875 C 22.421875 6.792969 22.910156 7.5625 22.910156 8.378906 L 22.910156 8.496094 C 22.910156 11.640625 18.992188 14.195312 14.183594 14.195312 Z M 9.066406 13.484375 L 6.546875 13.484375 C 5.945312 13.484375 5.457031 13.164062 5.453125 12.773438 C 5.464844 12.566406 5.585938 12.375 5.773438 12.273438 C 6.003906 12.132812 6.273438 12.058594 6.546875 12.0625 C 7.019531 12.050781 7.484375 12.203125 7.855469 12.492188 L 8.507812 13.058594 C 8.6875 13.210938 8.871094 13.351562 9.066406 13.484375 Z M 9.066406 13.484375 "/>
<path style=" stroke:none;fill-rule:nonzero;fill:rgb(0%,0%,0%);fill-opacity:1;" d="M 4.738281 19.609375 L 6.226562 19.609375 L 6.226562 20.085938 L 4.738281 20.085938 Z M 4.738281 19.609375 "/>
<path style=" stroke:none;fill-rule:nonzero;fill:rgb(0%,0%,0%);fill-opacity:1;" d="M 14.679688 20.566406 L 16.660156 20.566406 L 16.660156 21.042969 L 14.679688 21.042969 Z M 14.679688 20.566406 "/>
</g>
</svg>
