<?xml version="1.0" standalone="no"?>
<!DOCTYPE svg PUBLIC "-//W3C//DTD SVG 20010904//EN"
 "http://www.w3.org/TR/2001/REC-SVG-20010904/DTD/svg10.dtd">
<svg version="1.0" xmlns="http://www.w3.org/2000/svg"
 width="29.000000pt" height="25.000000pt" viewBox="0 0 29.000000 25.000000"
 preserveAspectRatio="xMidYMid meet">

<g transform="translate(0.000000,25.000000) scale(0.100000,-0.100000)"
fill="#000000" stroke="none">
<path d="M36 209 c-32 -38 -34 -86 -5 -123 35 -45 88 -24 75 30 -5 17 -3 23 4
19 5 -3 10 -30 10 -60 0 -30 5 -57 11 -60 7 -5 10 18 8 74 -2 45 -6 81 -9 81
-3 0 -12 -6 -20 -12 -8 -7 -7 -4 3 8 22 26 21 37 -1 57 -27 25 -47 21 -76 -14z
m68 -3 c8 -13 7 -19 -4 -26 -16 -9 -19 -47 -6 -69 11 -17 -7 -34 -30 -29 -31
6 -47 52 -34 93 17 53 52 67 74 31z"/>
<path d="M177 222 c-21 -23 -21 -30 0 -56 10 -12 11 -15 3 -9 -8 7 -17 13 -20
13 -3 0 -7 -36 -9 -81 -2 -56 1 -79 8 -74 6 3 11 30 11 60 0 30 5 57 10 60 7
4 9 -2 4 -19 -13 -54 40 -75 75 -30 29 37 27 85 -5 123 -29 35 -54 39 -77 13z
m53 -2 c29 -16 44 -73 28 -107 -14 -29 -43 -42 -60 -25 -6 6 -7 16 -2 23 13
21 11 61 -3 66 -16 6 -17 25 -1 41 14 14 15 15 38 2z"/>
</g>
</svg>
