<svg xmlns="http://www.w3.org/2000/svg" width="20.502" height="20.889" viewBox="0 0 20.502 20.889"><defs><style>.a,.b{fill:none;stroke:#000;stroke-miterlimit:10;}.b{stroke-width:0.8px;}</style></defs><g transform="translate(0.5 0.398)"><path class="a" d="M2253.857,1167.991h-.488a.976.976,0,0,0-.975.975v4.145a6.1,6.1,0,0,0,6.095,6.095h0a6.094,6.094,0,0,0,6.095-6.095v-4.145a.975.975,0,0,0-.975-.975h-.487" transform="translate(-2252.394 -1166.528)"/><path class="a" d="M2264.894,1188.429v5.364a1.95,1.95,0,0,0,1.95,1.95h7.07a1.95,1.95,0,0,0,1.95-1.95v-7.8" transform="translate(-2258.799 -1175.751)"/><path class="b" d="M2256.125,1167.917h0a.732.732,0,0,1-.731-.731v-1.463a.732.732,0,0,1,.731-.732h0a.731.731,0,0,1,.731.732v1.463A.731.731,0,0,1,2256.125,1167.917Z" transform="translate(-2253.931 -1164.991)"/><path class="b" d="M2272.125,1167.917h0a.732.732,0,0,1-.731-.731v-1.463a.732.732,0,0,1,.731-.732h0a.732.732,0,0,1,.731.732v1.463A.732.732,0,0,1,2272.125,1167.917Z" transform="translate(-2262.13 -1164.991)"/><circle class="a" cx="2.438" cy="2.438" r="2.438" transform="translate(14.628 5.364)"/><circle class="a" cx="0.488" cy="0.488" r="0.488" transform="translate(16.578 7.314)"/></g></svg>