<?xml version="1.0" encoding="UTF-8"?>
<svg xmlns="http://www.w3.org/2000/svg" xmlns:xlink="http://www.w3.org/1999/xlink" width="24px" height="25px" viewBox="0 0 24 22" version="1.1">
<g id="surface1">
<path style=" stroke:none;fill-rule:nonzero;fill:rgb(0%,0%,0%);fill-opacity:1;" d="M 2.375 9.683594 C 2.308594 10.136719 2.089844 10.554688 1.75 10.875 C 0.355469 12.117188 -0.046875 12.542969 0.00390625 12.988281 C 0.09375 13.3125 0.332031 13.578125 0.652344 13.710938 C 0.800781 13.792969 0.953125 13.867188 1.113281 13.929688 C 1.304688 14.011719 1.625 14.144531 1.648438 14.242188 C 1.675781 14.367188 1.660156 14.5 1.597656 14.613281 C 1.53125 14.726562 1.464844 14.824219 1.40625 14.910156 C 1.230469 15.164062 0.96875 15.546875 1.378906 15.832031 C 1.476562 15.902344 1.640625 16.007812 1.789062 16.105469 C 1.679688 16.257812 1.628906 16.449219 1.648438 16.636719 C 1.675781 16.785156 1.769531 16.914062 1.90625 16.992188 C 2.007812 17.050781 2.113281 17.101562 2.21875 17.148438 C 2.480469 17.273438 2.582031 17.328125 2.617188 17.441406 C 2.648438 17.582031 2.636719 17.726562 2.578125 17.859375 C 2.429688 18.285156 2.457031 18.753906 2.648438 19.164062 C 2.878906 19.863281 3.730469 20.289062 4.582031 20.136719 C 5.851562 19.882812 7.097656 19.574219 8.324219 19.210938 C 8.9375 19.511719 9.519531 20.246094 9.941406 21.253906 C 10.167969 21.726562 10.667969 22.019531 11.207031 22 L 20.167969 22 C 20.609375 22.007812 21.027344 21.816406 21.300781 21.480469 C 21.542969 21.167969 21.566406 20.746094 21.359375 20.410156 C 20.808594 19.410156 20.464844 18.320312 20.335938 17.191406 C 20.179688 16.085938 20.382812 14.964844 20.914062 13.972656 C 21.242188 13.417969 21.636719 12.902344 22.089844 12.4375 C 22.96875 11.457031 23.964844 10.347656 23.996094 8.457031 C 24.023438 7.402344 23.867188 6.351562 23.535156 5.34375 C 23.042969 4.035156 22.109375 2.921875 20.882812 2.191406 C 17.378906 -0.0820312 14.363281 -0.5 8.929688 0.535156 C 7.453125 0.816406 5.78125 1.246094 4.578125 2.296875 C 3.8125 2.960938 3.207031 3.78125 2.800781 4.695312 C 2.636719 5.082031 2.503906 5.484375 2.398438 5.894531 L 2.363281 6.019531 C 2.265625 6.316406 2.132812 6.605469 1.972656 6.878906 C 1.738281 7.203125 1.609375 7.585938 1.605469 7.980469 C 1.707031 8.320312 1.9375 8.613281 2.253906 8.796875 C 2.46875 8.960938 2.613281 9.074219 2.613281 9.179688 C 2.59375 9.242188 2.566406 9.296875 2.527344 9.351562 C 2.457031 9.453125 2.40625 9.5625 2.375 9.683594 Z M 16.109375 10.628906 C 16.070312 10.53125 15.992188 10.453125 15.890625 10.410156 C 15.785156 10.367188 15.664062 10.355469 15.550781 10.386719 C 15.300781 10.449219 15.042969 10.488281 14.785156 10.5 C 14.285156 10.535156 13.785156 10.472656 13.3125 10.316406 C 13.140625 10.265625 12.949219 10.304688 12.8125 10.421875 C 12.113281 11.035156 11.074219 11.132812 10.265625 10.65625 C 9.46875 10.179688 9.246094 9.28125 9.746094 8.585938 C 9.804688 8.5 9.824219 8.394531 9.792969 8.296875 C 9.765625 8.203125 9.691406 8.121094 9.59375 8.082031 C 9.386719 7.976562 9.128906 8.03125 8.984375 8.207031 C 8.878906 8.355469 8.792969 8.511719 8.730469 8.679688 C 8.40625 8.6875 8.132812 8.453125 8.097656 8.140625 L 8.097656 8.132812 C 8.09375 8.03125 8.046875 7.9375 7.964844 7.875 C 7.878906 7.804688 7.765625 7.765625 7.652344 7.769531 C 7.425781 7.753906 7.226562 7.917969 7.207031 8.140625 C 7.207031 8.789062 7.800781 9.335938 8.585938 9.40625 C 8.585938 9.527344 8.601562 9.652344 8.625 9.769531 C 7.660156 9.957031 6.664062 9.671875 5.957031 9.007812 C 5.320312 8.40625 5.15625 7.472656 5.554688 6.703125 C 5.65625 6.785156 5.765625 6.859375 5.882812 6.921875 C 6.023438 6.988281 6.1875 6.988281 6.328125 6.925781 C 6.460938 6.871094 6.550781 6.75 6.558594 6.613281 C 6.558594 6.472656 6.472656 6.347656 6.34375 6.292969 C 6.164062 6.207031 6.019531 6.058594 5.941406 5.878906 C 5.90625 5.800781 5.890625 5.714844 5.890625 5.628906 C 5.929688 5.167969 6.34375 4.824219 6.824219 4.855469 C 7.105469 4.847656 7.378906 4.960938 7.570312 5.164062 C 7.730469 5.328125 7.992188 5.359375 8.191406 5.242188 C 8.285156 5.191406 8.347656 5.105469 8.363281 5.003906 C 8.382812 4.90625 8.351562 4.804688 8.28125 4.726562 C 7.957031 4.382812 7.503906 4.171875 7.019531 4.140625 C 7.203125 3.59375 7.742188 3.230469 8.339844 3.257812 C 8.394531 3.261719 8.445312 3.265625 8.5 3.273438 C 8.464844 3.347656 8.433594 3.425781 8.40625 3.503906 C 8.386719 3.601562 8.410156 3.703125 8.472656 3.785156 C 8.535156 3.867188 8.628906 3.921875 8.730469 3.933594 C 8.949219 3.992188 9.175781 3.886719 9.269531 3.683594 C 9.320312 3.523438 9.394531 3.371094 9.496094 3.230469 C 9.9375 2.664062 10.636719 2.332031 11.371094 2.347656 C 11.785156 2.347656 12.1875 2.449219 12.546875 2.640625 C 12.484375 2.792969 12.449219 2.957031 12.445312 3.121094 C 12.449219 3.257812 12.535156 3.382812 12.667969 3.4375 C 12.808594 3.503906 12.972656 3.503906 13.113281 3.4375 C 13.242188 3.382812 13.332031 3.257812 13.335938 3.121094 C 13.347656 2.828125 13.527344 2.570312 13.800781 2.453125 C 14.097656 2.316406 14.441406 2.316406 14.738281 2.453125 C 15.011719 2.570312 15.195312 2.832031 15.203125 3.121094 C 15.238281 3.332031 15.425781 3.488281 15.648438 3.488281 C 15.867188 3.488281 16.058594 3.332031 16.09375 3.121094 C 16.09375 3.09375 16.082031 3.066406 16.082031 3.039062 C 17.355469 3.101562 18.425781 3.847656 18.714844 4.871094 C 18.511719 4.921875 18.316406 5 18.136719 5.109375 C 18.046875 5.160156 17.984375 5.246094 17.964844 5.34375 C 17.949219 5.445312 17.980469 5.546875 18.050781 5.621094 C 18.214844 5.785156 18.472656 5.816406 18.671875 5.695312 C 19.039062 5.480469 19.5 5.496094 19.847656 5.738281 C 20.175781 5.949219 20.261719 6.378906 20.046875 6.695312 C 19.941406 6.839844 19.796875 6.953125 19.625 7.015625 C 19.527344 7.046875 19.441406 7.117188 19.402344 7.210938 C 19.359375 7.304688 19.363281 7.414062 19.414062 7.503906 C 19.539062 7.695312 19.789062 7.769531 20.003906 7.679688 C 20.121094 7.632812 20.230469 7.578125 20.335938 7.507812 C 20.566406 8.054688 20.414062 8.683594 19.957031 9.074219 L 19.949219 9.082031 C 19.324219 9.609375 18.441406 9.742188 17.679688 9.425781 C 17.605469 9.394531 17.535156 9.355469 17.464844 9.316406 C 17.789062 8.957031 17.835938 8.433594 17.582031 8.027344 C 17.5 7.902344 17.363281 7.828125 17.210938 7.824219 C 17.058594 7.8125 16.910156 7.875 16.8125 7.988281 C 16.726562 8.089844 16.714844 8.238281 16.785156 8.351562 C 16.855469 8.472656 16.875 8.613281 16.832031 8.742188 C 16.792969 8.875 16.699219 8.980469 16.574219 9.042969 C 16.410156 9.132812 16.21875 9.160156 16.035156 9.121094 C 15.859375 9.085938 15.707031 8.984375 15.609375 8.839844 C 15.53125 8.710938 15.390625 8.628906 15.234375 8.625 C 15.078125 8.613281 14.925781 8.675781 14.828125 8.792969 C 14.738281 8.902344 14.734375 9.054688 14.8125 9.167969 C 15.234375 9.785156 16.039062 10.039062 16.757812 9.785156 C 16.917969 9.902344 17.09375 10 17.277344 10.078125 C 17.925781 10.351562 18.648438 10.40625 19.332031 10.234375 C 18.855469 10.746094 18.207031 11.078125 17.5 11.160156 C 17.285156 11.171875 17.121094 11.347656 17.125 11.554688 C 17.164062 11.757812 17.355469 11.90625 17.570312 11.890625 C 17.59375 11.890625 17.617188 11.890625 17.640625 11.886719 C 17.910156 11.847656 18.175781 11.785156 18.429688 11.695312 C 18.566406 11.894531 18.675781 12.105469 18.761719 12.328125 C 18.777344 12.363281 18.785156 12.402344 18.785156 12.445312 C 18.777344 12.613281 18.660156 12.757812 18.492188 12.808594 C 18.292969 12.875 18.070312 12.824219 17.917969 12.679688 C 17.558594 12.335938 17.109375 12.09375 16.617188 11.96875 C 15.65625 11.703125 15.289062 11.464844 15.128906 11.207031 C 15.359375 11.183594 15.585938 11.144531 15.8125 11.089844 C 15.917969 11.066406 16.015625 11 16.074219 10.910156 C 16.128906 10.828125 16.140625 10.722656 16.105469 10.628906 Z M 16.589844 15.0625 C 16.621094 14.910156 16.660156 14.75 16.703125 14.59375 C 16.875 14.042969 16.941406 13.46875 16.902344 12.894531 C 17.027344 12.96875 17.140625 13.054688 17.246094 13.152344 C 17.460938 13.355469 17.738281 13.492188 18.035156 13.542969 C 17.996094 13.847656 17.933594 14.144531 17.851562 14.441406 C 17.804688 14.609375 17.765625 14.773438 17.730469 14.9375 C 17.242188 17.1875 17.980469 19.363281 18.804688 21.265625 L 17.734375 21.265625 C 16.90625 19.390625 16.117188 17.238281 16.585938 15.066406 Z M 2.851562 8.253906 C 2.671875 8.117188 2.503906 7.992188 2.484375 7.875 C 2.539062 7.628906 2.640625 7.390625 2.78125 7.175781 C 2.964844 6.863281 3.117188 6.53125 3.226562 6.183594 L 3.261719 6.058594 C 3.359375 5.679688 3.484375 5.308594 3.632812 4.945312 C 4 4.128906 4.539062 3.394531 5.226562 2.796875 C 6.265625 1.890625 7.714844 1.519531 9.128906 1.25 C 14.925781 0.148438 17.449219 0.894531 20.335938 2.769531 C 21.421875 3.40625 22.25 4.386719 22.679688 5.542969 C 22.988281 6.480469 23.132812 7.460938 23.109375 8.445312 C 23.082031 10.101562 22.253906 11.023438 21.375 12.003906 C 20.882812 12.511719 20.453125 13.074219 20.101562 13.679688 C 19.507812 14.789062 19.28125 16.046875 19.457031 17.28125 C 19.59375 18.492188 19.96875 19.667969 20.566406 20.742188 C 20.632812 20.855469 20.621094 20.992188 20.542969 21.09375 C 20.453125 21.203125 20.3125 21.269531 20.167969 21.265625 L 19.753906 21.265625 C 18.925781 19.390625 18.136719 17.234375 18.605469 15.066406 C 18.640625 14.910156 18.679688 14.75 18.71875 14.589844 C 18.824219 14.214844 18.898438 13.828125 18.933594 13.441406 C 19.367188 13.28125 19.65625 12.886719 19.675781 12.441406 C 19.675781 12.320312 19.652344 12.203125 19.609375 12.09375 C 19.507812 11.832031 19.375 11.582031 19.21875 11.347656 C 19.941406 10.9375 20.472656 10.269531 20.691406 9.484375 C 21.445312 8.792969 21.550781 7.664062 20.941406 6.851562 C 21.132812 6.445312 21.097656 5.96875 20.84375 5.597656 C 20.5625 5.191406 20.121094 4.917969 19.621094 4.84375 C 19.289062 3.375 17.742188 2.304688 15.929688 2.296875 C 15.882812 2.296875 15.84375 2.300781 15.800781 2.304688 C 15.484375 1.914062 15.011719 1.667969 14.5 1.625 C 13.976562 1.566406 13.449219 1.707031 13.035156 2.019531 C 12.527344 1.753906 11.957031 1.613281 11.375 1.613281 C 10.460938 1.601562 9.582031 1.960938 8.949219 2.597656 C 8.308594 2.445312 7.628906 2.535156 7.058594 2.859375 C 6.53125 3.144531 6.179688 3.660156 6.121094 4.242188 C 5.304688 4.515625 4.851562 5.234375 5.046875 5.941406 C 4.667969 6.40625 4.457031 6.976562 4.449219 7.570312 C 4.46875 8.527344 4.984375 9.410156 5.824219 9.917969 C 6.734375 10.492188 7.847656 10.691406 8.914062 10.472656 C 9.367188 11.136719 10.097656 11.570312 10.914062 11.667969 C 11.75 11.789062 12.601562 11.578125 13.273438 11.082031 C 13.578125 11.160156 13.886719 11.210938 14.203125 11.230469 C 14.394531 11.816406 14.902344 12.199219 15.90625 12.527344 C 16.085938 13.160156 16.058594 13.828125 15.828125 14.445312 C 15.785156 14.613281 15.746094 14.773438 15.710938 14.9375 C 15.226562 17.1875 15.964844 19.363281 16.789062 21.265625 L 11.203125 21.265625 C 11.023438 21.273438 10.855469 21.171875 10.78125 21.011719 C 10.476562 20.210938 9.976562 19.496094 9.320312 18.921875 L 9.652344 18.828125 C 9.980469 18.730469 10.230469 18.660156 10.355469 18.628906 C 12.253906 18.136719 13.207031 17.421875 13.179688 16.503906 C 13.175781 16.402344 13.128906 16.308594 13.046875 16.246094 C 12.953125 16.175781 12.839844 16.140625 12.726562 16.148438 C 12.609375 16.148438 12.5 16.1875 12.414062 16.261719 C 12.335938 16.324219 12.289062 16.421875 12.289062 16.523438 C 12.300781 16.898438 11.925781 17.453125 10.085938 17.929688 C 9.953125 17.964844 9.699219 18.039062 9.359375 18.136719 C 9.039062 18.230469 8.648438 18.34375 8.214844 18.464844 L 8.210938 18.464844 C 6.964844 18.839844 5.695312 19.15625 4.402344 19.417969 C 4.015625 19.496094 3.625 19.285156 3.488281 18.925781 C 3.351562 18.644531 3.335938 18.320312 3.445312 18.027344 C 3.539062 17.785156 3.550781 17.519531 3.480469 17.265625 C 3.332031 16.914062 3.035156 16.640625 2.660156 16.515625 L 2.566406 16.472656 C 2.617188 16.390625 2.671875 16.3125 2.738281 16.242188 C 2.808594 16.171875 2.84375 16.070312 2.828125 15.96875 C 2.808594 15.867188 2.746094 15.777344 2.652344 15.722656 C 2.546875 15.660156 2.292969 15.5 2.109375 15.382812 C 2.132812 15.347656 2.160156 15.308594 2.179688 15.273438 C 2.25 15.175781 2.328125 15.058594 2.402344 14.929688 C 2.546875 14.679688 2.585938 14.386719 2.523438 14.109375 C 2.421875 13.660156 1.902344 13.441406 1.519531 13.28125 C 1.40625 13.234375 1.292969 13.183594 1.183594 13.125 C 1.082031 13.066406 0.984375 13 0.890625 12.925781 C 0.898438 12.714844 1.875 11.84375 2.402344 11.375 C 2.859375 10.957031 3.15625 10.40625 3.253906 9.808594 C 3.273438 9.765625 3.296875 9.722656 3.320312 9.683594 C 3.429688 9.535156 3.496094 9.359375 3.503906 9.175781 C 3.445312 8.785156 3.207031 8.445312 2.851562 8.253906 Z M 2.851562 8.253906 "/>
<path style=" stroke:none;fill-rule:nonzero;fill:rgb(0%,0%,0%);fill-opacity:1;" d="M 15.125 6.675781 C 15.144531 6.589844 15.113281 6.5 15.046875 6.445312 C 14.980469 6.386719 14.886719 6.371094 14.800781 6.398438 C 14.714844 6.429688 14.65625 6.5 14.640625 6.585938 C 14.589844 6.832031 14.445312 7.050781 14.230469 7.191406 C 13.820312 7.460938 13.265625 7.398438 12.925781 7.050781 C 12.835938 6.949219 12.679688 6.945312 12.578125 7.03125 C 12.476562 7.121094 12.46875 7.273438 12.558594 7.371094 C 12.769531 7.59375 13.046875 7.746094 13.351562 7.8125 C 13.214844 8 12.988281 8.113281 12.75 8.113281 C 12.613281 8.113281 12.503906 8.21875 12.503906 8.351562 C 12.503906 8.484375 12.613281 8.589844 12.75 8.589844 C 13.261719 8.59375 13.722656 8.285156 13.902344 7.824219 C 14.519531 7.726562 15.007812 7.265625 15.125 6.675781 Z M 15.125 6.675781 "/>
<path style=" stroke:none;fill-rule:nonzero;fill:rgb(0%,0%,0%);fill-opacity:1;" d="M 11.289062 4.949219 C 11.289062 4.816406 11.179688 4.710938 11.042969 4.710938 C 10.414062 4.710938 9.90625 5.203125 9.90625 5.808594 C 9.90625 5.941406 10.015625 6.046875 10.152344 6.046875 C 10.289062 6.046875 10.398438 5.941406 10.398438 5.808594 C 10.398438 5.464844 10.6875 5.1875 11.042969 5.1875 C 11.179688 5.1875 11.289062 5.082031 11.289062 4.949219 Z M 11.289062 4.949219 "/>
</g>
</svg>
