<?xml version="1.0" encoding="UTF-8"?>
<svg xmlns="http://www.w3.org/2000/svg" xmlns:xlink="http://www.w3.org/1999/xlink" width="24px" height="24px" viewBox="0 0 24 24" version="1.1">
<g id="surface1">
<path style=" stroke:none;fill-rule:nonzero;fill:rgb(0%,0%,0%);fill-opacity:1;" d="M 3 0.363281 C 4.457031 0.363281 5.636719 1.542969 5.636719 3 C 5.640625 4.457031 4.457031 5.636719 3 5.636719 C 1.542969 5.636719 0.363281 4.457031 0.363281 3 C 0.363281 1.542969 1.542969 0.363281 3 0.363281 M 3 4.363281 C 3.753906 4.363281 4.363281 3.753906 4.363281 3 C 4.363281 2.246094 3.753906 1.636719 3 1.636719 C 2.246094 1.636719 1.636719 2.246094 1.636719 3 C 1.640625 3.75 2.25 4.359375 3 4.363281 M 3 0 C 1.34375 0 0 1.34375 0 3 C 0 4.65625 1.34375 6 3 6 C 4.65625 6 6 4.65625 6 3 C 6 1.34375 4.65625 0 3 0 Z M 3 4 C 2.449219 4 2 3.550781 2 3 C 2 2.445312 2.449219 2 3 2 C 3.550781 2 4 2.449219 4 3 C 4 3.550781 3.550781 4 3 4 Z M 3 4 "/>
<path style=" stroke:none;fill-rule:nonzero;fill:rgb(0%,0%,0%);fill-opacity:1;" d="M 3 8.363281 C 4.457031 8.363281 5.636719 9.542969 5.636719 11 C 5.636719 12.457031 4.457031 13.640625 3 13.636719 C 1.542969 13.636719 0.363281 12.457031 0.363281 11 C 0.363281 9.542969 1.542969 8.363281 3 8.363281 M 3 12.363281 C 3.753906 12.363281 4.363281 11.753906 4.363281 11 C 4.363281 10.246094 3.753906 9.636719 3 9.636719 C 2.25 9.636719 1.636719 10.246094 1.636719 11 C 1.640625 11.75 2.246094 12.359375 3 12.363281 M 3 8 C 1.34375 8 0 9.34375 0 11 C 0 12.65625 1.34375 14 3 14 C 4.65625 14 6 12.65625 6 11 C 6 9.34375 4.65625 8 3 8 Z M 3 12 C 2.449219 12 2 11.550781 2 11 C 2 10.449219 2.449219 10 3 10 C 3.550781 10 4 10.449219 4 11 C 4 11.550781 3.550781 12 3 12 Z M 3 12 "/>
<path style=" stroke:none;fill-rule:nonzero;fill:rgb(0%,0%,0%);fill-opacity:1;" d="M 3 16.363281 C 4.457031 16.363281 5.636719 17.542969 5.636719 19 C 5.640625 20.457031 4.457031 21.636719 3 21.636719 C 1.542969 21.636719 0.363281 20.457031 0.363281 19 C 0.363281 17.542969 1.542969 16.363281 3 16.363281 M 3 20.363281 C 3.753906 20.363281 4.363281 19.753906 4.363281 19 C 4.363281 18.25 3.753906 17.636719 3 17.636719 C 2.25 17.636719 1.636719 18.246094 1.636719 19 C 1.640625 19.75 2.246094 20.359375 3 20.363281 M 3 16 C 1.34375 16 0 17.34375 0 19 C 0 20.65625 1.34375 22 3 22 C 4.65625 22 6 20.65625 6 19 C 6 17.34375 4.65625 16 3 16 Z M 3 20 C 2.449219 20 2 19.550781 2 19 C 2 18.449219 2.449219 18 3 18 C 3.550781 18 4 18.449219 4 19 C 4 19.550781 3.550781 20 3 20 Z M 3 20 "/>
<path style=" stroke:none;fill-rule:nonzero;fill:rgb(0%,0%,0%);fill-opacity:1;" d="M 11 0.363281 C 12.457031 0.363281 13.636719 1.542969 13.636719 3 C 13.640625 4.457031 12.457031 5.636719 11 5.636719 C 9.542969 5.636719 8.363281 4.457031 8.363281 3 C 8.363281 1.542969 9.542969 0.363281 11 0.363281 M 11 4.363281 C 11.753906 4.363281 12.363281 3.75 12.363281 3 C 12.363281 2.246094 11.75 1.636719 11 1.636719 C 10.246094 1.636719 9.636719 2.246094 9.636719 3 C 9.636719 3.753906 10.25 4.359375 11 4.363281 M 11 0 C 9.34375 0 8 1.34375 8.003906 3 C 8.003906 4.660156 9.347656 6 11.003906 6 C 12.660156 6 14.003906 4.65625 14.003906 3 C 14.003906 1.34375 12.65625 0 11 0 Z M 11 4 C 10.449219 4 10 3.550781 10 3 C 10 2.445312 10.449219 2 11 2 C 11.550781 2 12 2.449219 12 3 C 12 3.550781 11.550781 4 11 4 Z M 11 4 "/>
<path style=" stroke:none;fill-rule:nonzero;fill:rgb(0%,0%,0%);fill-opacity:1;" d="M 11 8.363281 C 12.457031 8.363281 13.636719 9.542969 13.636719 11 C 13.640625 12.457031 12.457031 13.640625 11 13.636719 C 9.542969 13.636719 8.363281 12.457031 8.363281 11 C 8.363281 9.542969 9.542969 8.363281 11 8.363281 M 11 12.363281 C 11.753906 12.363281 12.363281 11.753906 12.363281 11 C 12.363281 10.246094 11.753906 9.636719 11 9.636719 C 10.246094 9.636719 9.636719 10.246094 9.636719 11 C 9.636719 11.753906 10.246094 12.363281 11 12.363281 M 11 8 C 9.34375 8 8 9.34375 8.003906 11.003906 C 8.003906 12.660156 9.347656 14 11.003906 14 C 12.660156 14 14.003906 12.65625 14.003906 11 C 14.003906 9.34375 12.660156 8 11.003906 8 Z M 11 12 C 10.449219 12 10 11.550781 10 11 C 10 10.449219 10.449219 10 11 10 C 11.550781 10 12 10.449219 12 11 C 12 11.550781 11.550781 12 11 12 Z M 11 12 "/>
<path style=" stroke:none;fill-rule:nonzero;fill:rgb(0%,0%,0%);fill-opacity:1;" d="M 11 16.363281 C 12.457031 16.363281 13.636719 17.542969 13.636719 19 C 13.640625 20.457031 12.457031 21.636719 11 21.636719 C 9.542969 21.636719 8.363281 20.457031 8.363281 19 C 8.363281 17.542969 9.542969 16.363281 11 16.363281 M 11 20.363281 C 11.753906 20.363281 12.363281 19.753906 12.363281 19 C 12.363281 18.246094 11.753906 17.636719 11 17.636719 C 10.246094 17.636719 9.636719 18.246094 9.636719 19 C 9.636719 19.753906 10.246094 20.363281 11 20.363281 M 11 16 C 9.34375 16 8 17.34375 8.003906 19 C 8.003906 20.660156 9.347656 22 11.003906 22 C 12.660156 22 14.003906 20.65625 14.003906 19 C 14.003906 17.34375 12.660156 16 11.003906 16 Z M 11 20 C 10.449219 20 10 19.550781 10 19 C 10 18.449219 10.449219 18 11 18 C 11.550781 18 12 18.449219 12 19 C 12 19.550781 11.550781 20 11 20 Z M 11 20 "/>
<path style=" stroke:none;fill-rule:nonzero;fill:rgb(0%,0%,0%);fill-opacity:1;" d="M 19 0.363281 C 20.457031 0.363281 21.636719 1.542969 21.636719 3 C 21.636719 4.457031 20.457031 5.636719 19 5.636719 C 17.542969 5.636719 16.363281 4.457031 16.363281 3 C 16.363281 1.542969 17.542969 0.363281 19 0.363281 M 19 4.363281 C 19.753906 4.363281 20.363281 3.75 20.363281 3 C 20.363281 2.246094 19.753906 1.636719 19 1.636719 C 18.246094 1.636719 17.636719 2.246094 17.636719 3 C 17.640625 3.753906 18.25 4.359375 19 4.363281 M 19 0 C 17.34375 0 16 1.34375 16 3 C 16 4.65625 17.34375 6 19 6 C 20.65625 6 22 4.65625 22 3 C 22 1.34375 20.65625 0 19 0 Z M 19 4 C 18.449219 4 18 3.550781 18 3 C 18 2.445312 18.449219 2 19 2 C 19.554688 2 20 2.449219 20 3 C 20 3.550781 19.550781 4 19 4 Z M 19 4 "/>
<path style=" stroke:none;fill-rule:nonzero;fill:rgb(0%,0%,0%);fill-opacity:1;" d="M 19 8.363281 C 20.457031 8.363281 21.636719 9.542969 21.636719 11 C 21.636719 12.457031 20.457031 13.640625 19 13.636719 C 17.542969 13.636719 16.363281 12.457031 16.363281 11 C 16.363281 9.542969 17.542969 8.363281 19 8.363281 M 19 12.363281 C 19.753906 12.363281 20.363281 11.753906 20.363281 11 C 20.363281 10.246094 19.753906 9.636719 19 9.636719 C 18.246094 9.636719 17.636719 10.246094 17.636719 11 C 17.640625 11.75 18.25 12.359375 19 12.363281 M 19 8 C 17.34375 8 16 9.34375 16 11 C 16 12.65625 17.34375 14 19 14 C 20.65625 14 22 12.65625 22 11 C 22 9.34375 20.65625 8 19 8 Z M 19 12 C 18.449219 12 18 11.550781 18 11 C 18 10.449219 18.449219 10 19 10 C 19.550781 10 20 10.449219 20 11 C 20 11.550781 19.550781 12 19 12 Z M 19 12 "/>
<path style=" stroke:none;fill-rule:nonzero;fill:rgb(0%,0%,0%);fill-opacity:1;" d="M 21 18.363281 C 22.457031 18.363281 23.636719 19.542969 23.636719 21 C 23.640625 22.457031 22.457031 23.636719 21 23.636719 C 19.542969 23.636719 18.363281 22.457031 18.363281 21 C 18.363281 19.542969 19.542969 18.363281 21 18.363281 M 21 22.363281 C 21.753906 22.363281 22.363281 21.753906 22.363281 21 C 22.363281 20.246094 21.753906 19.636719 21 19.636719 C 20.246094 19.636719 19.636719 20.246094 19.636719 21 C 19.640625 21.75 20.25 22.359375 21 22.363281 M 21 18 C 19.34375 18 18 19.34375 18 21 C 18 22.65625 19.34375 24 21 24 C 22.65625 24 24 22.65625 24 21 C 24 19.34375 22.65625 18 21 18 Z M 21 22 C 20.449219 22 20 21.550781 20 21 C 20 20.445312 20.449219 20 21 20 C 21.550781 20 22 20.449219 22 21 C 22 21.550781 21.550781 22 21 22 Z M 21 22 "/>
</g>
</svg>
