<?xml version="1.0" encoding="UTF-8"?>
<svg xmlns="http://www.w3.org/2000/svg" xmlns:xlink="http://www.w3.org/1999/xlink" width="24px" height="25px" viewBox="0 0 24 22" version="1.1">
<g id="surface1">
<path style=" stroke:none;fill-rule:nonzero;fill:rgb(0%,0%,0%);fill-opacity:1;" d="M 20.445312 10.4375 L 20.160156 10.4375 L 20.21875 10.316406 C 20.558594 9.621094 19.710938 8.933594 18.289062 8.753906 L 14.246094 8.238281 C 14.089844 8.226562 13.941406 8.167969 13.816406 8.074219 L 12.925781 7.296875 C 13.136719 6.683594 13.308594 6.257812 13.308594 6.253906 L 13.3125 6.242188 C 13.65625 5.25 12.785156 4.554688 11.703125 4.144531 C 13.027344 3.824219 13.941406 3.160156 13.941406 2.394531 L 13.941406 1.953125 C 13.941406 0.875 12.140625 0 9.929688 0 C 9.402344 0 8.871094 0.0507812 8.351562 0.15625 C 6.675781 0.160156 5.316406 0.824219 5.316406 1.640625 C 5.316406 1.949219 5.542969 2.234375 5.925781 2.457031 C 5.957031 2.945312 6.363281 3.390625 7.007812 3.726562 C 6.039062 3.867188 5.128906 4.261719 4.382812 4.871094 C 2.695312 6.285156 2.144531 10.726562 2.121094 10.914062 C 2.09375 11.496094 2.640625 12.121094 3.046875 12.417969 L 4.417969 14.550781 C 4.570312 14.792969 4.527344 15.101562 4.3125 15.296875 L 0.167969 19.636719 C -0.03125 19.8125 -0.0546875 20.109375 0.113281 20.3125 C 0.363281 20.578125 0.695312 20.753906 1.0625 20.808594 L 6.128906 21.941406 C 6.289062 21.976562 6.453125 21.996094 6.621094 21.996094 C 6.84375 21.996094 7.070312 21.960938 7.28125 21.894531 C 7.625 21.777344 7.816406 21.589844 7.789062 21.386719 C 7.714844 20.90625 7.382812 20.503906 6.917969 20.324219 C 6.496094 20.128906 6.738281 19.894531 6.820312 19.828125 L 6.828125 19.824219 C 6.839844 19.8125 9.585938 16.953125 9.585938 16.953125 L 9.585938 21.113281 C 9.585938 21.605469 10.402344 22 11.40625 22 L 16.980469 22 C 17.339844 22.015625 17.695312 21.917969 17.988281 21.722656 C 18.089844 21.660156 18.148438 21.558594 18.15625 21.445312 C 18.160156 21.332031 18.105469 21.226562 18.011719 21.15625 C 17.539062 20.738281 16.949219 20.464844 16.3125 20.367188 C 15.78125 20.269531 15.761719 20.011719 15.808594 19.886719 L 15.808594 18.742188 C 15.808594 18.5625 15.511719 18.421875 15.144531 18.421875 C 14.78125 18.421875 14.484375 18.5625 14.484375 18.742188 L 14.484375 19.566406 L 10.910156 19.566406 L 10.910156 16.484375 C 10.910156 16.066406 10.601562 15.667969 10.035156 15.355469 L 4.539062 12.324219 L 4.53125 12.320312 C 4.523438 12.316406 3.726562 11.882812 3.503906 11.257812 L 10.976562 11.257812 L 13.800781 14.636719 C 14.226562 15.109375 14.46875 15.710938 14.484375 16.335938 L 14.484375 17.234375 C 14.484375 17.410156 14.78125 17.554688 15.144531 17.554688 C 15.511719 17.554688 15.808594 17.410156 15.808594 17.234375 L 15.808594 16.335938 C 15.789062 15.621094 15.515625 14.933594 15.027344 14.394531 L 12.082031 10.875 C 12.09375 10.652344 12.113281 10.433594 12.148438 10.214844 L 14.535156 10.527344 C 14.890625 10.574219 15.253906 10.472656 15.347656 10.300781 C 15.445312 10.128906 15.234375 9.953125 14.882812 9.90625 L 12.382812 9.578125 C 11.835938 9.515625 11.316406 9.328125 10.863281 9.027344 L 9.59375 8.039062 L 11.566406 7.433594 L 12.65625 8.386719 C 13.019531 8.660156 13.457031 8.824219 13.910156 8.863281 L 17.953125 9.378906 C 18.671875 9.46875 19.101562 9.816406 18.929688 10.167969 L 18.808594 10.421875 L 17.875 10.300781 C 17.523438 10.25 17.160156 10.355469 17.0625 10.527344 C 16.96875 10.699219 17.175781 10.875 17.53125 10.921875 C 18.027344 11.003906 18.527344 11.058594 19.03125 11.082031 L 20.445312 11.082031 C 21.675781 11.082031 22.675781 11.570312 22.675781 12.167969 L 22.675781 21.675781 C 22.675781 21.855469 22.972656 22 23.339844 22 C 23.703125 22 24 21.855469 24 21.675781 L 24 12.167969 C 24 11.214844 22.40625 10.4375 20.445312 10.4375 Z M 10.910156 20.210938 L 14.515625 20.210938 C 14.632812 20.5 15 20.832031 15.886719 20.976562 C 16.191406 21.035156 16.476562 21.164062 16.71875 21.355469 L 11.40625 21.355469 C 11.132812 21.355469 10.910156 21.246094 10.910156 21.113281 Z M 1.613281 20.222656 C 1.367188 20.167969 1.257812 20.023438 1.371094 19.90625 L 2.144531 19.082031 L 5.421875 19.816406 C 5.277344 20.101562 5.328125 20.476562 6.007812 20.789062 C 6.226562 20.890625 6.382812 21.078125 6.441406 21.300781 Z M 5.515625 15.566406 C 5.863281 15.257812 5.933594 14.75 5.683594 14.363281 L 5.25 13.691406 C 5.355469 13.753906 9.050781 15.777344 9.148438 15.847656 C 9.070312 15.953125 5.949219 19.222656 5.949219 19.222656 L 2.699219 18.5 Z M 9.816406 2.203125 L 9.816406 0.644531 C 11.285156 0.605469 12.621094 1.214844 12.617188 1.949219 L 12.617188 2.390625 C 12.617188 3.113281 11.410156 3.699219 9.929688 3.699219 C 9.003906 3.71875 7.835938 3.371094 7.46875 2.910156 L 8.359375 2.910156 C 9.164062 2.910156 9.816406 2.59375 9.816406 2.203125 Z M 6.636719 1.640625 C 6.636719 1.179688 7.410156 0.800781 8.359375 0.800781 C 8.433594 0.800781 8.492188 0.832031 8.492188 0.867188 L 8.492188 2.203125 C 8.492188 2.238281 8.433594 2.265625 8.359375 2.265625 L 7.925781 2.265625 C 7.214844 2.265625 6.636719 1.984375 6.636719 1.640625 Z M 8.898438 7.488281 L 7.761719 6.574219 C 7.605469 6.480469 7.546875 6.289062 7.625 6.128906 C 7.757812 5.945312 7.957031 5.816406 8.1875 5.773438 C 8.378906 5.722656 8.574219 5.695312 8.773438 5.699219 C 9.132812 5.683594 9.488281 5.78125 9.78125 5.976562 L 10.902344 6.875 Z M 12.007812 6.132812 C 11.996094 6.15625 11.957031 6.261719 11.894531 6.429688 L 10.917969 5.644531 C 10.207031 5.074219 8.71875 4.886719 7.53125 5.214844 C 6.9375 5.378906 6.515625 5.648438 6.34375 5.96875 C 6.171875 6.289062 6.273438 6.625 6.628906 6.90625 L 9.738281 9.367188 C 10.078125 9.621094 10.460938 9.8125 10.867188 9.9375 C 10.820312 10.179688 10.792969 10.40625 10.773438 10.613281 L 3.492188 10.613281 C 3.652344 9.542969 4.246094 6.269531 5.527344 5.195312 C 6.933594 4.117188 8.191406 4.191406 9.765625 4.375 C 10.710938 4.492188 12.390625 5.011719 12.007812 6.132812 Z M 12.007812 6.132812 "/>
</g>
</svg>
