<?xml version="1.0" encoding="UTF-8"?>
<svg xmlns="http://www.w3.org/2000/svg" xmlns:xlink="http://www.w3.org/1999/xlink" width="24px" height="px" viewBox="0 0 24 24" version="1.1">
<g id="surface1">
<path style=" stroke:none;fill-rule:nonzero;fill:rgb(0%,0%,0%);fill-opacity:1;" d="M 9.71875 0.414062 C 9 0.644531 8.519531 0.945312 8.519531 1.152344 C 8.519531 1.339844 8.6875 1.453125 8.878906 1.40625 C 9.070312 1.363281 9.816406 1.152344 10.511719 0.96875 C 12.960938 0.277344 15.886719 1.429688 17.039062 3.53125 L 17.617188 4.546875 L 17.089844 5.191406 C 16.273438 6.183594 16.367188 7.683594 17.304688 8.585938 C 17.976562 9.253906 18.023438 9.390625 17.878906 10.363281 C 17.496094 12.808594 15.671875 14.722656 13.222656 15.277344 C 9.9375 15.992188 6.574219 13.660156 6.097656 10.339844 C 5.953125 9.414062 6.023438 9.253906 6.695312 8.609375 C 7.632812 7.683594 7.726562 6.207031 6.910156 5.191406 L 6.382812 4.546875 L 7.03125 3.4375 C 7.390625 2.792969 7.558594 2.261719 7.441406 2.191406 C 7.078125 1.984375 6.769531 2.261719 6.214844 3.277344 C 5.929688 3.808594 5.351562 4.570312 4.894531 4.960938 C 4.199219 5.585938 4.078125 5.863281 4.078125 6.738281 C 4.078125 7.476562 3.9375 7.890625 3.601562 8.191406 C 2.59375 9.070312 3.265625 10.847656 4.632812 10.847656 C 5.351562 10.847656 5.449219 10.9375 5.832031 11.976562 C 6.3125 13.316406 8.015625 15.070312 9.238281 15.484375 C 9.695312 15.644531 10.078125 15.921875 10.078125 16.085938 C 10.078125 16.316406 9.960938 16.339844 9.648438 16.175781 C 9.335938 16.015625 8.734375 16.152344 7.441406 16.636719 C 5.519531 17.375 4.199219 18.390625 3.71875 19.5 C 3.3125 20.398438 3.023438 22.683594 3.214844 23.421875 L 3.359375 24 L 10.632812 23.953125 C 15.3125 23.90625 17.855469 23.792969 17.832031 23.652344 C 17.785156 23.515625 16.632812 23.398438 15.121094 23.355469 L 12.480469 23.285156 L 12.480469 21.808594 C 12.480469 20.214844 12.527344 20.167969 13.800781 20.285156 C 14.160156 20.308594 14.617188 19.890625 15.359375 18.921875 C 15.960938 18.183594 16.609375 17.5625 16.824219 17.539062 C 17.351562 17.539062 18.695312 18.4375 19.296875 19.222656 C 19.96875 20.101562 20.183594 23.308594 19.585938 23.308594 C 19.367188 23.308594 19.199219 23.46875 19.199219 23.652344 C 19.199219 23.882812 19.441406 24 19.921875 24 C 20.808594 24 21 23.398438 20.761719 21.507812 C 20.542969 19.800781 20.160156 18.96875 19.175781 18.070312 C 18.121094 17.125 14.953125 15.875 14.351562 16.175781 C 14.039062 16.339844 13.921875 16.316406 13.921875 16.085938 C 13.921875 15.921875 14.304688 15.644531 14.761719 15.484375 C 15.984375 15.070312 17.6875 13.316406 18.167969 11.976562 C 18.527344 10.984375 18.671875 10.847656 19.246094 10.847656 C 20.0625 10.847656 20.878906 10.109375 20.878906 9.371094 C 20.878906 9.070312 20.664062 8.5625 20.398438 8.238281 C 20.089844 7.871094 19.921875 7.316406 19.921875 6.691406 C 19.921875 5.882812 19.777344 5.585938 19.105469 4.960938 C 18.648438 4.570312 18.070312 3.808594 17.785156 3.300781 C 16.390625 0.644531 12.863281 -0.625 9.71875 0.414062 Z M 6.433594 6.554688 C 6.550781 8.191406 6.40625 8.375 5.519531 7.890625 C 4.992188 7.59375 4.800781 7.339844 4.800781 6.855469 C 4.800781 5.882812 5.230469 5.261719 5.832031 5.355469 C 6.289062 5.421875 6.359375 5.585938 6.433594 6.554688 Z M 18.960938 5.746094 C 19.441406 6.625 19.246094 7.476562 18.503906 7.890625 C 18.121094 8.101562 17.734375 8.214844 17.664062 8.125 C 17.472656 7.9375 17.496094 5.652344 17.6875 5.46875 C 18 5.144531 18.71875 5.308594 18.960938 5.746094 Z M 20.039062 9.023438 C 20.230469 9.578125 19.777344 10.152344 19.175781 10.152344 C 18.601562 10.152344 18.574219 9.785156 19.152344 9.578125 C 19.535156 9.4375 19.535156 9.390625 19.078125 9.09375 C 18.695312 8.816406 18.671875 8.722656 18.9375 8.5625 C 19.390625 8.285156 19.871094 8.492188 20.039062 9.023438 Z M 5.28125 8.675781 C 5.28125 8.769531 5.089844 8.976562 4.871094 9.136719 C 4.464844 9.414062 4.464844 9.4375 4.871094 9.578125 C 5.425781 9.785156 5.398438 10.152344 4.824219 10.152344 C 4.199219 10.152344 3.769531 9.578125 3.960938 9 C 4.054688 8.699219 4.320312 8.539062 4.703125 8.539062 C 5.015625 8.539062 5.28125 8.609375 5.28125 8.675781 Z M 13.199219 16.546875 C 13.199219 16.847656 12.960938 17.214844 12.601562 17.445312 C 12.046875 17.792969 11.953125 17.792969 11.398438 17.445312 C 11.039062 17.214844 10.800781 16.847656 10.800781 16.546875 C 10.800781 16.0625 10.921875 16.015625 12 16.015625 C 13.078125 16.015625 13.199219 16.0625 13.199219 16.546875 Z M 10.441406 17.675781 L 11.398438 18.460938 L 10.632812 19.152344 C 10.199219 19.523438 9.839844 20.007812 9.839844 20.191406 C 9.839844 20.609375 10.128906 20.628906 10.488281 20.285156 C 10.679688 20.101562 10.894531 20.101562 11.257812 20.285156 C 11.6875 20.515625 11.761719 20.769531 11.761719 21.921875 L 11.761719 23.308594 L 4.078125 23.308594 L 4.078125 21.921875 C 4.078125 20.214844 4.488281 19.222656 5.496094 18.390625 C 6.71875 17.398438 7.320312 17.355469 8.0625 18.230469 C 8.902344 19.175781 9.40625 18.808594 8.664062 17.816406 C 8.304688 17.308594 8.230469 17.078125 8.449219 17.007812 C 9.097656 16.753906 9.503906 16.890625 10.441406 17.675781 Z M 15.457031 16.984375 C 15.769531 17.101562 15.695312 17.308594 15.070312 18.160156 C 14.640625 18.714844 14.207031 19.246094 14.113281 19.292969 C 13.921875 19.40625 12.742188 18.667969 12.71875 18.414062 C 12.71875 18.253906 14.640625 16.847656 14.902344 16.847656 C 15 16.847656 15.238281 16.914062 15.457031 16.984375 Z M 12.480469 19.269531 C 12.742188 19.570312 12.671875 19.617188 12 19.617188 C 11.328125 19.617188 11.257812 19.570312 11.519531 19.269531 C 11.6875 19.085938 11.902344 18.921875 12 18.921875 C 12.097656 18.921875 12.3125 19.085938 12.480469 19.269531 Z M 12.480469 19.269531 "/>
<path style=" stroke:none;fill-rule:nonzero;fill:rgb(0%,0%,0%);fill-opacity:1;" d="M 10.441406 3 C 10.175781 3.414062 10.464844 3.507812 12.046875 3.507812 C 13.175781 3.507812 13.558594 3.4375 13.558594 3.207031 C 13.558594 2.792969 10.679688 2.609375 10.441406 3 Z M 10.441406 3 "/>
<path style=" stroke:none;fill-rule:nonzero;fill:rgb(0%,0%,0%);fill-opacity:1;" d="M 9.695312 4.730469 C 9.144531 5.125 9.046875 5.125 12 5.125 C 14.953125 5.125 14.855469 5.125 14.304688 4.730469 C 13.96875 4.5 13.222656 4.382812 12 4.382812 C 10.777344 4.382812 10.03125 4.5 9.695312 4.730469 Z M 9.695312 4.730469 "/>
<path style=" stroke:none;fill-rule:nonzero;fill:rgb(0%,0%,0%);fill-opacity:1;" d="M 8.519531 6.96875 C 7.726562 7.363281 7.441406 7.890625 7.441406 8.816406 C 7.441406 10.015625 8.28125 10.847656 9.480469 10.847656 C 10.390625 10.847656 11.519531 10.039062 11.519531 9.347656 C 11.519531 9.160156 11.734375 9 12 9 C 12.265625 9 12.480469 9.160156 12.480469 9.347656 C 12.480469 10.039062 13.609375 10.847656 14.519531 10.847656 C 16.992188 10.847656 17.375 7.363281 14.976562 6.785156 C 14.207031 6.601562 12.816406 7.175781 12.625 7.777344 C 12.433594 8.332031 11.566406 8.332031 11.375 7.800781 C 11.230469 7.339844 10.078125 6.691406 9.433594 6.691406 C 9.191406 6.691406 8.785156 6.832031 8.519531 6.96875 Z M 10.273438 7.753906 C 11.257812 8.398438 10.703125 10.152344 9.527344 10.152344 C 8.257812 10.152344 7.679688 8.421875 8.6875 7.753906 C 8.976562 7.546875 9.335938 7.382812 9.480469 7.382812 C 9.625 7.382812 9.984375 7.546875 10.273438 7.753906 Z M 15.3125 7.753906 C 16.296875 8.398438 15.742188 10.152344 14.566406 10.152344 C 13.296875 10.152344 12.71875 8.421875 13.726562 7.753906 C 14.015625 7.546875 14.375 7.382812 14.519531 7.382812 C 14.664062 7.382812 15.023438 7.546875 15.3125 7.753906 Z M 15.3125 7.753906 "/>
</g>
</svg>
