<?xml version="1.0" encoding="UTF-8"?>
<svg xmlns="http://www.w3.org/2000/svg" xmlns:xlink="http://www.w3.org/1999/xlink" width="24px" height="px" viewBox="0 0 24 24" version="1.1">
<g id="surface1">
<path style=" stroke:none;fill-rule:nonzero;fill:rgb(0%,0%,0%);fill-opacity:1;" d="M 11.6875 4.0625 C 11.59375 4.152344 11.519531 4.683594 11.519531 5.214844 C 11.519531 6.324219 11.566406 6.277344 9.457031 6.554688 C 8.472656 6.691406 8.449219 6.667969 8.304688 5.882812 C 8.183594 5.375 7.992188 5.078125 7.753906 5.078125 C 7.441406 5.078125 7.414062 5.238281 7.535156 6 C 7.679688 6.855469 7.632812 6.945312 7.03125 7.175781 C 6.648438 7.316406 6.046875 7.570312 5.664062 7.753906 C 5.28125 7.9375 4.945312 8.054688 4.921875 8.03125 C 4.34375 7.015625 4.007812 6.667969 3.769531 6.898438 C 3.601562 7.0625 3.601562 7.316406 3.816406 7.777344 C 4.105469 8.355469 4.054688 8.46875 3.480469 8.953125 C 3.023438 9.324219 2.902344 9.578125 3.070312 9.738281 C 3.238281 9.898438 3.742188 9.738281 4.726562 9.160156 C 7.175781 7.730469 8.855469 7.292969 12 7.292969 C 15.144531 7.292969 16.824219 7.730469 19.273438 9.160156 C 20.257812 9.738281 20.761719 9.898438 20.929688 9.738281 C 21.097656 9.578125 20.976562 9.324219 20.519531 8.953125 C 19.945312 8.46875 19.894531 8.355469 20.183594 7.777344 C 20.398438 7.316406 20.398438 7.0625 20.230469 6.898438 C 19.992188 6.667969 19.65625 7.015625 19.078125 8.03125 C 19.054688 8.054688 18.71875 7.9375 18.335938 7.753906 C 17.953125 7.570312 17.351562 7.316406 16.96875 7.175781 C 16.367188 6.945312 16.320312 6.855469 16.464844 6 C 16.585938 5.261719 16.535156 5.078125 16.273438 5.078125 C 16.078125 5.078125 15.816406 5.421875 15.671875 5.816406 C 15.457031 6.554688 15.40625 6.578125 14.398438 6.507812 C 12.601562 6.390625 12.503906 6.324219 12.433594 5.144531 C 12.359375 4.128906 12.070312 3.714844 11.6875 4.0625 Z M 11.6875 4.0625 "/>
<path style=" stroke:none;fill-rule:nonzero;fill:rgb(0%,0%,0%);fill-opacity:1;" d="M 9.046875 8.191406 C 6.097656 8.769531 2.207031 10.984375 0.601562 13.015625 C -0.144531 13.960938 -0.0703125 14.167969 1.511719 15.667969 C 2.304688 16.382812 2.734375 16.636719 3.023438 16.523438 C 3.382812 16.382812 3.238281 16.175781 2.183594 15.136719 L 0.9375 13.9375 L 1.414062 13.339844 C 2.375 12.183594 6.601562 9.484375 7.511719 9.460938 C 7.609375 9.460938 7.414062 9.832031 7.078125 10.269531 C 6.359375 11.167969 5.761719 12.855469 5.761719 13.984375 C 5.761719 15.945312 7.320312 18.277344 9.359375 19.292969 C 10.511719 19.890625 13.488281 19.890625 14.640625 19.292969 C 16.679688 18.277344 18.238281 15.945312 18.238281 13.984375 C 18.238281 12.855469 17.640625 11.167969 16.921875 10.269531 C 16.585938 9.832031 16.390625 9.460938 16.488281 9.460938 C 17.398438 9.484375 21.625 12.183594 22.585938 13.339844 L 23.0625 13.9375 L 21.816406 15.136719 C 20.761719 16.175781 20.617188 16.382812 20.976562 16.523438 C 21.265625 16.636719 21.695312 16.382812 22.488281 15.667969 C 24.070312 14.167969 24.144531 13.960938 23.398438 13.015625 C 21.71875 10.914062 17.878906 8.769531 14.761719 8.191406 C 12.550781 7.777344 11.230469 7.777344 9.046875 8.191406 Z M 14.855469 9.53125 C 16.296875 10.453125 17.113281 11.769531 17.230469 13.382812 C 17.472656 16.617188 15.289062 18.921875 12 18.921875 C 8.929688 18.921875 6.71875 16.800781 6.71875 13.847656 C 6.71875 11.839844 7.800781 10.152344 9.671875 9.230469 C 11.136719 8.515625 13.464844 8.652344 14.855469 9.53125 Z M 14.855469 9.53125 "/>
<path style=" stroke:none;fill-rule:nonzero;fill:rgb(0%,0%,0%);fill-opacity:1;" d="M 10.441406 10.617188 C 9.648438 10.914062 8.710938 12.046875 8.449219 12.96875 C 7.800781 15.253906 9.527344 17.398438 11.976562 17.398438 C 14.0625 17.398438 15.625 15.945312 15.648438 13.960938 C 15.671875 12.691406 15.574219 12.578125 14.6875 12.875 C 14.136719 13.0625 13.847656 13.039062 13.441406 12.761719 C 12.984375 12.460938 12.9375 12.277344 13.078125 11.398438 L 13.222656 10.382812 L 12.070312 10.40625 C 11.449219 10.40625 10.703125 10.5 10.441406 10.617188 Z M 12 11.675781 C 12 12.921875 12.863281 13.824219 14.113281 13.847656 C 15.023438 13.847656 15.121094 14.308594 14.425781 15.324219 C 12.742188 17.769531 8.785156 16.453125 9.191406 13.570312 C 9.335938 12.625 10.078125 11.628906 10.921875 11.308594 C 11.734375 10.960938 12 11.054688 12 11.675781 Z M 12 11.675781 "/>
</g>
</svg>
