<?xml version="1.0" encoding="UTF-8"?>
<svg xmlns="http://www.w3.org/2000/svg" xmlns:xlink="http://www.w3.org/1999/xlink" width="24px" height="px" viewBox="0 0 24 24" version="1.1">
<g id="surface1">
<path style=" stroke:none;fill-rule:nonzero;fill:rgb(0%,0%,0%);fill-opacity:1;" d="M 2.976562 0.667969 C 2.0625 1.199219 0.886719 2.953125 0.335938 4.570312 C -0.960938 8.445312 2.113281 14.03125 5.160156 13.292969 C 6.433594 12.992188 7.128906 10.730469 6.480469 9.09375 C 6.097656 8.167969 5.878906 8.628906 5.878906 10.316406 C 5.878906 11.609375 5.808594 11.863281 5.304688 12.253906 C 4.222656 13.109375 2.855469 12.277344 1.679688 10.015625 C 0.550781 7.847656 0.503906 5.882812 1.535156 3.738281 C 2.257812 2.238281 3.550781 0.921875 4.296875 0.921875 C 5.0625 0.921875 5.808594 1.707031 5.976562 2.652344 C 6.046875 3.136719 6.265625 3.578125 6.457031 3.644531 C 6.71875 3.738281 6.769531 3.507812 6.671875 2.515625 C 6.574219 1.570312 6.40625 1.175781 5.902344 0.761719 C 5.113281 0.117188 3.984375 0.0703125 2.976562 0.667969 Z M 2.976562 0.667969 "/>
<path style=" stroke:none;fill-rule:nonzero;fill:rgb(0%,0%,0%);fill-opacity:1;" d="M 18.097656 0.761719 C 17.59375 1.175781 17.425781 1.570312 17.328125 2.492188 C 17.230469 3.484375 17.28125 3.691406 17.617188 3.691406 C 17.902344 3.691406 18 3.484375 18 2.882812 C 18 1.753906 18.960938 0.808594 19.871094 1.039062 C 20.832031 1.269531 21.574219 2.03125 22.34375 3.554688 C 23.304688 5.46875 23.425781 6.921875 22.824219 8.792969 C 21.960938 11.445312 20.230469 13.109375 18.984375 12.484375 C 18.191406 12.070312 17.929688 11.375 18.121094 10.039062 C 18.289062 8.675781 17.929688 8.101562 17.519531 9.117188 C 17.136719 10.085938 17.230469 11.585938 17.761719 12.390625 C 19.488281 15.136719 23.640625 11.652344 23.929688 7.152344 C 24.046875 5.398438 23.496094 3.625 22.320312 1.960938 C 21.070312 0.230469 19.34375 -0.277344 18.097656 0.761719 Z M 18.097656 0.761719 "/>
<path style=" stroke:none;fill-rule:nonzero;fill:rgb(0%,0%,0%);fill-opacity:1;" d="M 5.039062 4.363281 C 5.039062 5.054688 4.679688 5.125 4.007812 4.617188 C 3.144531 3.96875 2.878906 4.5 3.671875 5.261719 C 4.222656 5.769531 4.558594 5.863281 6.433594 6 C 8.785156 6.160156 9.792969 6.625 10.441406 7.847656 C 10.871094 8.652344 10.894531 9.484375 10.511719 11.816406 C 10.296875 13.199219 10.296875 13.800781 10.535156 14.539062 C 11.089844 16.363281 12.910156 16.363281 13.464844 14.539062 C 13.703125 13.800781 13.703125 13.199219 13.488281 11.816406 C 13.078125 9.277344 13.128906 8.492188 13.753906 7.617188 C 14.542969 6.484375 15.671875 6 17.472656 6 C 18.984375 6 20.039062 5.652344 20.617188 4.984375 C 21.144531 4.382812 20.664062 4.109375 19.992188 4.617188 C 19.320312 5.125 18.960938 5.054688 18.960938 4.363281 C 18.960938 4.128906 18.792969 3.921875 18.601562 3.921875 C 18.359375 3.921875 18.238281 4.152344 18.238281 4.636719 C 18.238281 5.054688 18.144531 5.285156 18 5.191406 C 17.519531 4.890625 15.382812 5.355469 14.472656 5.929688 C 12.695312 7.039062 12.601562 7.292969 12.601562 11.308594 L 12.601562 14.882812 L 11.398438 14.882812 L 11.472656 11.609375 C 11.542969 8.03125 11.425781 7.5 10.128906 6.347656 C 9.359375 5.652344 7.175781 4.984375 6.335938 5.167969 C 5.832031 5.308594 5.761719 5.238281 5.761719 4.617188 C 5.761719 4.152344 5.640625 3.921875 5.398438 3.921875 C 5.207031 3.921875 5.039062 4.128906 5.039062 4.363281 Z M 5.039062 4.363281 "/>
<path style=" stroke:none;fill-rule:nonzero;fill:rgb(0%,0%,0%);fill-opacity:1;" d="M 2.015625 5.332031 C 1.945312 5.46875 2.136719 5.863281 2.472656 6.183594 L 3.097656 6.761719 L 2.351562 7.429688 C 1.800781 7.914062 1.679688 8.167969 1.871094 8.355469 C 2.0625 8.539062 2.328125 8.445312 2.878906 7.984375 C 3.550781 7.453125 4.320312 7.199219 4.320312 7.5 C 4.320312 7.570312 4.152344 7.871094 3.9375 8.167969 C 3.335938 9.070312 4.03125 9.207031 4.726562 8.332031 C 5.257812 7.683594 5.449219 7.617188 6.574219 7.617188 C 7.511719 7.617188 8.015625 7.753906 8.496094 8.101562 L 9.167969 8.609375 L 9 11.515625 C 8.878906 13.292969 8.929688 14.746094 9.070312 15.277344 C 9.289062 16.039062 9.265625 16.175781 8.617188 16.753906 C 7.320312 17.953125 7.558594 20.03125 9.097656 20.90625 C 9.769531 21.300781 9.839844 21.4375 9.839844 22.546875 C 9.839844 23.46875 9.9375 23.769531 10.199219 23.769531 C 10.488281 23.769531 10.558594 23.46875 10.558594 22.40625 C 10.558594 21.136719 10.511719 21.023438 9.695312 20.421875 C 8.230469 19.339844 8.160156 18.09375 9.527344 16.871094 C 10.007812 16.429688 10.105469 16.199219 9.960938 15.601562 C 9.601562 13.9375 9.574219 12.691406 9.816406 11.007812 C 10.273438 7.9375 9.40625 6.96875 6.121094 6.738281 C 4.273438 6.625 3.265625 6.253906 2.878906 5.539062 C 2.59375 5.03125 2.28125 4.9375 2.015625 5.332031 Z M 2.015625 5.332031 "/>
<path style=" stroke:none;fill-rule:nonzero;fill:rgb(0%,0%,0%);fill-opacity:1;" d="M 21.121094 5.515625 C 20.734375 6.253906 19.726562 6.625 17.878906 6.738281 C 14.59375 6.96875 13.726562 7.9375 14.183594 11.007812 C 14.425781 12.691406 14.398438 13.9375 14.039062 15.601562 C 13.894531 16.199219 13.992188 16.429688 14.472656 16.871094 C 15.769531 18.046875 15.769531 19.339844 14.472656 20.285156 C 13.175781 21.207031 13.175781 21.230469 13.246094 22.453125 C 13.296875 23.332031 13.414062 23.652344 13.679688 23.652344 C 13.945312 23.652344 14.0625 23.332031 14.113281 22.5 C 14.183594 21.484375 14.28125 21.300781 15 20.839844 C 16.535156 19.871094 16.65625 17.90625 15.238281 16.617188 C 14.761719 16.175781 14.710938 16.015625 14.929688 15.277344 C 15.070312 14.746094 15.121094 13.292969 15 11.515625 L 14.832031 8.609375 L 15.503906 8.101562 C 15.984375 7.753906 16.488281 7.617188 17.425781 7.617188 C 18.550781 7.617188 18.742188 7.683594 19.273438 8.332031 C 19.96875 9.207031 20.664062 9.070312 20.0625 8.167969 C 19.847656 7.871094 19.679688 7.570312 19.679688 7.5 C 19.679688 7.199219 20.449219 7.453125 21.121094 7.984375 C 21.671875 8.445312 21.9375 8.539062 22.128906 8.355469 C 22.320312 8.167969 22.199219 7.914062 21.695312 7.476562 L 20.976562 6.855469 L 21.527344 6.277344 C 21.839844 5.953125 22.054688 5.585938 22.007812 5.445312 C 21.863281 5.007812 21.382812 5.054688 21.121094 5.515625 Z M 21.121094 5.515625 "/>
<path style=" stroke:none;fill-rule:nonzero;fill:rgb(0%,0%,0%);fill-opacity:1;" d="M 10.632812 17.308594 C 9.527344 17.746094 10.105469 18.347656 11.257812 17.929688 C 11.832031 17.722656 12.167969 17.722656 12.769531 17.953125 C 13.632812 18.253906 14.230469 17.976562 13.753906 17.515625 C 13.390625 17.167969 11.304688 17.03125 10.632812 17.308594 Z M 10.632812 17.308594 "/>
</g>
</svg>
