<?xml version="1.0" encoding="UTF-8"?>
<svg xmlns="http://www.w3.org/2000/svg" xmlns:xlink="http://www.w3.org/1999/xlink" width="24px" height="px" viewBox="0 0 24 24" version="1.1">
<g id="surface1">
<path style=" stroke:none;fill-rule:nonzero;fill:rgb(0%,0%,0%);fill-opacity:1;" d="M 7.007812 0.390625 C 7.054688 0.601562 9.503906 2.191406 12.648438 4.039062 C 15.695312 5.816406 18.457031 7.5 18.742188 7.730469 C 19.511719 8.398438 20.398438 10.363281 20.398438 11.445312 C 20.398438 11.976562 19.871094 14.976562 19.199219 18.09375 C 18.550781 21.207031 18 23.839844 18 23.90625 C 18 23.976562 18.238281 24 18.527344 23.953125 C 19.03125 23.882812 19.152344 23.492188 20.207031 18.460938 C 21.816406 10.730469 21.71875 9.160156 19.488281 7.109375 C 18.359375 6.046875 8.089844 0 7.414062 0 C 7.078125 0 6.960938 0.117188 7.007812 0.390625 Z M 7.007812 0.390625 "/>
<path style=" stroke:none;fill-rule:nonzero;fill:rgb(0%,0%,0%);fill-opacity:1;" d="M 6.070312 2.90625 C 6 3.117188 6.023438 3.347656 6.167969 3.4375 C 6.289062 3.507812 7.992188 4.546875 9.960938 5.746094 C 13.390625 7.824219 13.558594 7.890625 14.664062 7.800781 C 16.511719 7.617188 16.753906 8.144531 15.574219 9.785156 C 14.808594 10.890625 14.015625 11.167969 13.777344 10.429688 C 13.273438 8.839844 12.984375 8.585938 9.335938 6.371094 C 7.320312 5.144531 5.542969 4.152344 5.351562 4.152344 C 5.183594 4.152344 5.039062 4.363281 5.039062 4.59375 C 5.039062 4.914062 6.023438 5.628906 8.496094 7.128906 C 12.238281 9.390625 12.359375 9.507812 12.601562 10.453125 C 12.816406 11.214844 13.777344 12 14.519531 12 C 14.808594 12 15.335938 11.792969 15.695312 11.515625 C 16.296875 11.054688 16.320312 11.054688 16.320312 11.492188 C 16.320312 11.746094 16.464844 12.046875 16.632812 12.183594 C 17.0625 12.507812 18.40625 12.738281 18.960938 12.578125 C 19.679688 12.371094 19.609375 10.984375 18.839844 10.269531 C 18.121094 9.554688 17.976562 9.554688 17.0625 10.292969 C 16.152344 11.007812 16.128906 10.890625 16.945312 9.761719 C 17.664062 8.722656 17.59375 7.753906 16.753906 7.085938 C 16.320312 6.738281 15.984375 6.667969 15.121094 6.785156 C 14.0625 6.921875 13.921875 6.855469 10.367188 4.730469 C 8.351562 3.53125 6.601562 2.539062 6.480469 2.539062 C 6.335938 2.539062 6.167969 2.699219 6.070312 2.90625 Z M 6.070312 2.90625 "/>
<path style=" stroke:none;fill-rule:nonzero;fill:rgb(0%,0%,0%);fill-opacity:1;" d="M 2.640625 6.414062 C 2.640625 7.339844 6 9.832031 9.40625 11.445312 L 11.257812 12.324219 L 10.847656 13.015625 C 10.585938 13.5 10.414062 14.699219 10.296875 16.847656 C 10.199219 18.554688 9.9375 20.5625 9.71875 21.324219 C 9.433594 22.292969 9.40625 22.753906 9.574219 22.914062 C 10.078125 23.398438 10.585938 22.476562 11.0625 20.167969 C 11.398438 18.578125 11.496094 17.492188 11.398438 16.59375 C 11.28125 15.601562 11.351562 15.023438 11.761719 13.9375 C 12.648438 11.5625 12.71875 11.746094 10.703125 10.890625 C 8.640625 9.992188 5.902344 8.308594 4.273438 6.945312 C 3.070312 5.90625 2.640625 5.769531 2.640625 6.414062 Z M 2.640625 6.414062 "/>
<path style=" stroke:none;fill-rule:nonzero;fill:rgb(0%,0%,0%);fill-opacity:1;" d="M 13.753906 12.554688 C 12.71875 12.992188 12.527344 13.960938 13.199219 15.207031 L 13.679688 16.152344 L 13.199219 18.898438 C 12.601562 22.292969 12.601562 22.382812 13.199219 22.382812 C 13.464844 22.382812 13.679688 22.363281 13.679688 22.316406 C 13.679688 22.292969 13.894531 21.070312 14.160156 19.617188 C 14.734375 16.382812 14.761719 15.601562 14.257812 14.769531 C 13.585938 13.707031 13.921875 13.339844 15.40625 13.523438 C 16.105469 13.59375 16.824219 13.824219 17.015625 13.984375 C 17.328125 14.261719 17.304688 14.375 16.871094 14.816406 C 15.886719 15.875 15.574219 16.59375 15.121094 18.945312 C 14.496094 22.015625 14.496094 22.617188 15.097656 22.617188 C 15.457031 22.617188 15.574219 22.316406 15.839844 20.816406 C 16.367188 17.492188 16.585938 16.871094 17.425781 15.898438 C 18.839844 14.285156 18.433594 12.992188 16.414062 12.691406 C 15.769531 12.578125 15.070312 12.4375 14.878906 12.371094 C 14.6875 12.300781 14.183594 12.390625 13.753906 12.554688 Z M 13.753906 12.554688 "/>
</g>
</svg>
