<svg xmlns="http://www.w3.org/2000/svg" width="23.212" height="18.794" viewBox="0 0 23.212 18.794">
  <g id="parenting-counseling" transform="translate(0.498 0.5)">
    <g id="Group_652" data-name="Group 652">
      <g id="Group_650" data-name="Group 650">
        <circle id="Ellipse_49" data-name="Ellipse 49" cx="2.583" cy="2.583" r="2.583" transform="translate(3.004 0)" fill="none" stroke="#000" stroke-miterlimit="10" stroke-width="1"/>
        <path id="Path_3245" data-name="Path 3245" d="M729.527,1194.79h-4.963a3.1,3.1,0,0,0-3.1,3.1v1.861H728.5l1.032-1.038,1.343-.5,1.761-.323a3.1,3.1,0,0,0-3.1-3.1Z" transform="translate(-721.462 -1187.463)" fill="none" stroke="#000" stroke-miterlimit="10" stroke-width="1"/>
      </g>
      <g id="Group_651" data-name="Group 651" transform="translate(6.047)">
        <circle id="Ellipse_50" data-name="Ellipse 50" cx="3.739" cy="3.739" r="3.739" transform="translate(4.348 0)" fill="none" stroke="#000" stroke-miterlimit="10" stroke-width="1"/>
        <path id="Path_3246" data-name="Path 3246" d="M733.138,1194.79h-7.185a4.491,4.491,0,0,0-4.491,4.491v2.695h16.167v-2.695a4.491,4.491,0,0,0-4.491-4.491Z" transform="translate(-721.462 -1184.182)" fill="none" stroke="#000" stroke-miterlimit="10" stroke-width="1"/>
      </g>
    </g>
  </g>
</svg>
