<svg xmlns="http://www.w3.org/2000/svg" width="23" height="23.953" viewBox="0 0 23 23.953"><defs><style>.a,.b{fill:none;stroke:#000;}.a{stroke-miterlimit:10;}.b{stroke-linecap:round;stroke-linejoin:round;}</style></defs><g transform="translate(0.5 0.509)"><g transform="translate(0)"><circle class="a" cx="2" cy="2" r="2" transform="translate(17.001 18.944)"/><circle class="a" cx="2" cy="2" r="2" transform="translate(5 18.944)"/><path class="b" d="M0,0H19a0,0,0,0,1,0,0V1.411A7.589,7.589,0,0,1,11.411,9H5.589A5.589,5.589,0,0,1,0,3.411V0A0,0,0,0,1,0,0Z" transform="translate(3 7.944)"/><path class="b" d="M1023.194,193.4,1022,200.5h8.5v-.845a7.158,7.158,0,0,0-6.184-7.09A1.007,1.007,0,0,0,1023.194,193.4Z" transform="translate(-1008.499 -192.556)"/><path class="b" d="M1008.5,197.5h2l1,3" transform="translate(-1008.5 -192.556)"/></g></g></svg>