<?xml version="1.0" encoding="UTF-8"?>
<svg xmlns="http://www.w3.org/2000/svg" xmlns:xlink="http://www.w3.org/1999/xlink" width="24px" height="25px" viewBox="0 0 24 22" version="1.1">
<defs>
<filter id="alpha" filterUnits="objectBoundingBox" x="0%" y="0%" width="100%" height="100%">
  <feColorMatrix type="matrix" in="SourceGraphic" values="0 0 0 0 1 0 0 0 0 1 0 0 0 0 1 0 0 0 1 0"/>
</filter>
<mask id="mask0">
  <g filter="url(#alpha)">
<rect x="0" y="0" width="24" height="22" style="fill:rgb(0%,0%,0%);fill-opacity:0.968627;stroke:none;"/>
  </g>
</mask>
<clipPath id="clip1">
  <rect x="0" y="0" width="24" height="22"/>
</clipPath>
<g id="surface5" clip-path="url(#clip1)">
<path style=" stroke:none;fill-rule:nonzero;fill:rgb(0%,0%,0%);fill-opacity:1;" d="M 23.421875 16.390625 L 22 16.390625 C 22.382812 16.074219 22.644531 15.644531 22.746094 15.167969 C 22.816406 14.816406 22.820312 14.457031 22.753906 14.101562 C 22.671875 13.640625 22.683594 13.167969 22.78125 12.707031 C 22.882812 12.28125 22.808594 11.960938 22.566406 11.757812 C 22.265625 11.507812 21.78125 11.496094 21.121094 11.726562 C 20.917969 11.796875 20.726562 11.902344 20.566406 12.042969 C 19.394531 11.617188 18.070312 12.035156 17.386719 13.046875 C 16.875 12.730469 16.3125 12.5 15.726562 12.359375 C 15.539062 12.3125 15.347656 12.417969 15.296875 12.597656 C 15.273438 12.683594 15.285156 12.777344 15.332031 12.851562 C 15.382812 12.929688 15.457031 12.984375 15.546875 13.003906 C 16.085938 13.128906 16.601562 13.347656 17.0625 13.644531 C 17.050781 13.671875 17.039062 13.699219 17.03125 13.730469 C 16.917969 14.050781 16.875 14.390625 16.910156 14.726562 C 16.972656 15.355469 17.257812 15.941406 17.71875 16.390625 L 14.28125 16.390625 L 14.28125 15.355469 L 15.214844 15.355469 C 15.339844 15.355469 15.457031 15.292969 15.519531 15.191406 C 15.585938 15.085938 15.585938 14.957031 15.519531 14.851562 C 15.457031 14.746094 15.339844 14.683594 15.214844 14.6875 L 11.167969 14.6875 L 11.167969 13.441406 C 11.210938 13.421875 11.257812 13.402344 11.300781 13.378906 C 12.128906 12.96875 13.050781 12.773438 13.984375 12.808594 L 13.988281 12.808594 C 14.179688 12.808594 14.335938 12.660156 14.335938 12.476562 C 14.339844 12.292969 14.183594 12.144531 13.996094 12.140625 C 13.601562 12.136719 13.207031 12.160156 12.816406 12.214844 L 12.816406 10.441406 C 13.15625 10.210938 13.441406 9.917969 13.652344 9.574219 C 13.917969 9.152344 14.050781 8.660156 14.027344 8.167969 C 14.03125 8.078125 14.035156 7.984375 14.039062 7.875 C 14.039062 7.871094 14.039062 7.871094 14.039062 7.867188 C 14.039062 7.863281 14.039062 7.859375 14.039062 7.859375 L 14.039062 7.039062 C 14.027344 6.0625 13.199219 5.273438 12.183594 5.28125 L 12.0625 5.28125 C 12.570312 4.828125 12.882812 4.203125 12.929688 3.535156 L 12.929688 2.851562 C 12.960938 2.066406 12.660156 1.304688 12.09375 0.742188 C 11.59375 0.269531 10.925781 0.00390625 10.226562 0 L 10.21875 0 C 9.519531 0.00390625 8.851562 0.269531 8.351562 0.742188 C 7.785156 1.304688 7.484375 2.066406 7.511719 2.851562 L 7.511719 3.535156 C 7.5625 4.203125 7.875 4.828125 8.382812 5.285156 L 8.257812 5.285156 C 7.582031 5.277344 6.960938 5.632812 6.640625 6.207031 L 4.59375 9.359375 C 4.363281 8.964844 3.789062 8.117188 3.109375 8.066406 C 2.898438 8.03125 2.683594 8.089844 2.523438 8.226562 C 2.402344 8.382812 2.367188 8.589844 2.429688 8.777344 L 2.925781 11.453125 C 2.933594 11.660156 3.019531 11.855469 3.167969 12.003906 C 3.347656 12.113281 3.566406 12.144531 3.773438 12.09375 C 3.820312 12.089844 3.871094 12.082031 3.933594 12.078125 C 4.613281 12.015625 5.296875 12.121094 5.921875 12.378906 C 6.195312 12.5 6.457031 12.640625 6.710938 12.796875 L 6.710938 14.582031 L 3.847656 14.582031 C 3.433594 14.582031 3.425781 14.5625 3.371094 14.453125 C 3.300781 14.316406 2.675781 13.101562 1.816406 13.039062 C 1.609375 13.003906 1.390625 13.0625 1.234375 13.199219 C 1.105469 13.355469 1.074219 13.566406 1.140625 13.753906 L 1.628906 16.390625 L 0.578125 16.390625 C 0.261719 16.386719 0.00390625 16.632812 0 16.9375 L 0 19.546875 C 0.00390625 19.851562 0.261719 20.097656 0.578125 20.09375 L 1.453125 20.09375 L 1.453125 20.714844 C 1.460938 21.429688 2.066406 22.007812 2.808594 22 L 21.191406 22 C 21.929688 22.007812 22.539062 21.429688 22.546875 20.714844 L 22.546875 20.09375 L 23.421875 20.09375 C 23.738281 20.097656 23.996094 19.851562 24 19.546875 L 24 16.9375 C 23.996094 16.632812 23.738281 16.386719 23.421875 16.390625 Z M 20.957031 14.410156 C 20.675781 13.828125 20.617188 13.28125 20.796875 12.871094 C 20.902344 12.628906 21.105469 12.4375 21.363281 12.351562 C 21.550781 12.28125 21.746094 12.238281 21.945312 12.226562 C 22 12.222656 22.050781 12.234375 22.097656 12.257812 C 22.109375 12.265625 22.144531 12.347656 22.09375 12.5625 C 21.980469 13.09375 21.964844 13.640625 22.054688 14.179688 C 22.109375 14.453125 22.109375 14.738281 22.0625 15.015625 C 21.863281 15.808594 21.378906 16.191406 20.230469 16.328125 L 20.242188 16.320312 C 21.214844 15.527344 21.167969 14.84375 20.957031 14.410156 Z M 17.609375 14.65625 C 17.585938 14.414062 17.617188 14.167969 17.699219 13.9375 C 17.949219 13.203125 18.605469 12.667969 19.398438 12.558594 C 19.648438 12.53125 19.902344 12.550781 20.148438 12.617188 C 19.890625 13.199219 19.953125 13.933594 20.320312 14.6875 C 20.664062 15.394531 19.355469 16.144531 18.9375 16.363281 C 18.191406 16.085938 17.675781 15.425781 17.609375 14.65625 Z M 13.578125 15.355469 L 13.578125 16.390625 L 10.515625 16.390625 C 10.222656 16.371094 10 16.128906 10.015625 15.847656 C 10.03125 15.566406 10.277344 15.34375 10.566406 15.355469 Z M 12.113281 12.351562 C 11.707031 12.453125 11.3125 12.601562 10.945312 12.800781 L 10.925781 12.8125 C 10.886719 12.769531 10.835938 12.707031 10.789062 12.648438 C 10.734375 12.582031 10.660156 12.492188 10.574219 12.394531 C 10.355469 12.148438 10.117188 11.914062 9.863281 11.699219 L 11.800781 10.957031 C 11.902344 10.917969 12.007812 10.875 12.113281 10.828125 Z M 9.0625 11.289062 C 8.953125 11.328125 8.835938 11.328125 8.726562 11.285156 C 8.621094 11.242188 8.539062 11.160156 8.496094 11.058594 C 8.453125 10.957031 8.453125 10.84375 8.5 10.742188 C 8.546875 10.640625 8.632812 10.558594 8.738281 10.519531 L 8.746094 10.515625 L 10.523438 9.789062 L 10.941406 10.570312 Z M 10.222656 0.667969 C 11.257812 0.683594 12.113281 1.453125 12.203125 2.449219 C 11.4375 2.3125 9.867188 2.015625 9.6875 1.96875 C 9.59375 1.945312 9.5 1.933594 9.402344 1.933594 C 9.121094 1.949219 8.851562 2.046875 8.636719 2.21875 C 8.515625 2.304688 8.386719 2.378906 8.25 2.433594 C 8.34375 1.445312 9.195312 0.683594 10.222656 0.667969 Z M 8.21875 3.535156 L 8.21875 3.136719 C 8.511719 3.070312 8.792969 2.941406 9.035156 2.765625 C 9.265625 2.613281 9.339844 2.574219 9.507812 2.613281 C 9.636719 2.644531 11.457031 3 12.230469 3.132812 L 12.230469 3.535156 C 12.230469 4.109375 11.652344 4.949219 10.859375 5.304688 C 10.847656 5.308594 10.835938 5.3125 10.828125 5.320312 C 10.78125 5.339844 10.738281 5.355469 10.695312 5.371094 C 10.542969 5.429688 10.386719 5.460938 10.222656 5.464844 C 10.0625 5.460938 9.90625 5.429688 9.753906 5.371094 C 9.710938 5.355469 9.671875 5.339844 9.628906 5.320312 C 9.617188 5.316406 9.605469 5.3125 9.59375 5.304688 C 8.855469 4.96875 8.21875 4.167969 8.21875 3.535156 Z M 11.035156 5.960938 L 11.035156 6.0625 C 11.058594 6.519531 10.699219 6.914062 10.222656 6.941406 C 9.75 6.914062 9.386719 6.519531 9.410156 6.0625 L 9.410156 5.960938 C 9.445312 5.972656 9.476562 5.988281 9.511719 6 C 9.96875 6.175781 10.480469 6.175781 10.9375 6 C 10.96875 5.988281 11.003906 5.972656 11.035156 5.960938 Z M 7.238281 6.558594 C 7.519531 6.125 7.816406 5.949219 8.261719 5.949219 L 8.707031 5.949219 L 8.707031 6.0625 C 8.675781 6.605469 8.957031 7.117188 9.441406 7.398438 C 9.921875 7.679688 10.523438 7.679688 11.007812 7.398438 C 11.488281 7.117188 11.769531 6.605469 11.738281 6.0625 L 11.738281 5.949219 L 12.1875 5.949219 C 12.816406 5.945312 13.328125 6.433594 13.335938 7.039062 L 13.335938 7.851562 C 13.332031 7.957031 13.324219 8.050781 13.320312 8.140625 C 13.296875 8.667969 13.292969 8.828125 13.042969 9.238281 C 12.757812 9.707031 12.320312 10.03125 11.59375 10.320312 L 11.164062 9.515625 C 11.332031 9.433594 11.484375 9.320312 11.609375 9.183594 C 11.628906 9.167969 11.644531 9.148438 11.65625 9.128906 L 12.082031 8.46875 C 12.128906 8.390625 12.144531 8.300781 12.121094 8.214844 C 12.097656 8.128906 12.042969 8.054688 11.960938 8.007812 C 11.796875 7.914062 11.582031 7.964844 11.480469 8.121094 L 11.078125 8.75 C 10.96875 8.863281 10.832031 8.949219 10.679688 8.996094 L 8.472656 9.902344 C 8.277344 9.976562 8.109375 10.101562 7.984375 10.265625 C 7.667969 10.101562 7.328125 9.976562 6.980469 9.890625 L 7.699219 8.789062 C 7.746094 8.710938 7.761719 8.621094 7.738281 8.535156 C 7.71875 8.449219 7.660156 8.375 7.582031 8.328125 C 7.417969 8.230469 7.203125 8.28125 7.097656 8.4375 L 6.25 9.742188 C 5.910156 9.691406 5.570312 9.660156 5.238281 9.632812 Z M 4.933594 11.433594 C 4.578125 11.390625 4.222656 11.382812 3.871094 11.414062 C 3.804688 11.421875 3.660156 11.433594 3.640625 11.4375 C 3.632812 11.402344 3.140625 8.753906 3.140625 8.753906 C 3.421875 8.867188 3.839844 9.386719 4.066406 9.84375 C 4.140625 10.046875 4.308594 10.199219 4.523438 10.257812 C 4.742188 10.285156 4.902344 10.28125 4.972656 10.285156 C 5.066406 10.289062 5.160156 10.296875 5.253906 10.304688 Z M 7.414062 13.328125 C 7.789062 13.628906 8.074219 14.023438 8.234375 14.46875 C 7.96875 14.542969 7.691406 14.578125 7.414062 14.570312 Z M 4.464844 15.25 L 6.675781 15.25 C 8.042969 15.25 8.511719 15.171875 8.773438 14.910156 C 8.894531 14.785156 8.953125 14.617188 8.9375 14.445312 C 8.890625 13.832031 7.996094 12.554688 6.214844 11.777344 C 6.023438 11.691406 5.824219 11.625 5.621094 11.570312 L 5.960938 10.378906 C 6.59375 10.4375 7.203125 10.621094 7.761719 10.914062 C 7.761719 11.046875 7.789062 11.179688 7.84375 11.304688 C 7.957031 11.574219 8.175781 11.785156 8.453125 11.894531 C 8.59375 11.953125 8.746094 11.984375 8.902344 11.984375 C 8.972656 11.984375 9.042969 11.976562 9.113281 11.964844 C 9.445312 12.222656 9.753906 12.507812 10.03125 12.816406 C 10.113281 12.910156 10.179688 12.988281 10.234375 13.058594 C 10.308594 13.148438 10.382812 13.234375 10.464844 13.316406 L 10.464844 14.691406 C 9.824219 14.738281 9.324219 15.25 9.316406 15.875 C 9.316406 16.050781 9.359375 16.230469 9.445312 16.390625 L 4.464844 16.390625 Z M 2.734375 14.738281 C 2.972656 15.210938 3.382812 15.246094 3.761719 15.25 L 3.761719 16.390625 L 2.339844 16.390625 L 1.847656 13.722656 C 2.128906 13.828125 2.523438 14.308594 2.734375 14.738281 Z M 23.296875 19.429688 L 12.839844 19.429688 C 12.714844 19.425781 12.597656 19.488281 12.53125 19.59375 C 12.46875 19.699219 12.46875 19.828125 12.53125 19.933594 C 12.597656 20.035156 12.714844 20.097656 12.839844 20.097656 L 21.84375 20.097656 L 21.84375 20.714844 C 21.839844 21.058594 21.546875 21.335938 21.191406 21.332031 L 2.808594 21.332031 C 2.453125 21.335938 2.160156 21.058594 2.15625 20.714844 L 2.15625 20.09375 L 11.292969 20.09375 C 11.417969 20.097656 11.535156 20.035156 11.597656 19.929688 C 11.664062 19.828125 11.664062 19.699219 11.597656 19.59375 C 11.535156 19.488281 11.417969 19.425781 11.292969 19.429688 L 0.703125 19.429688 L 0.703125 17.058594 L 23.296875 17.058594 Z M 23.296875 19.429688 "/>
</g>
</defs>
<g id="surface1">
<use xlink:href="#surface5" mask="url(#mask0)"/>
</g>
</svg>
