<svg xmlns="http://www.w3.org/2000/svg" width="23.336" height="22.123" viewBox="0 0 23.336 22.123"><defs><style>.a{fill:none;stroke:#000;stroke-miterlimit:10;}</style></defs><g transform="translate(0.5)"><path class="a" d="M1331.861,970.355v5.485h-16.877V955.8h16.877v7.078" transform="translate(-1314.984 -954.216)"/><line class="a" y2="3.164" transform="translate(3.692)"/><line class="a" y2="3.164" transform="translate(6.856)"/><line class="a" y2="3.164" transform="translate(10.021)"/><line class="a" y2="3.164" transform="translate(13.185)"/><line class="a" x2="10.548" transform="translate(3.164 7.911)"/><line class="a" x2="10.548" transform="translate(3.164 11.075)"/><line class="a" x2="5.801" transform="translate(3.164 14.24)"/><g transform="translate(10.186 6.93)"><path class="a" d="M1344.552,966.248l-9.7,9.7-.559,2.051,2.051-.559,9.7-9.7a1.055,1.055,0,0,0,0-1.491h0A1.055,1.055,0,0,0,1344.552,966.248Z" transform="translate(-1334.296 -965.939)"/><line class="a" x2="1.492" y2="1.492" transform="translate(8.577 1.987)"/></g></g></svg>