<svg xmlns="http://www.w3.org/2000/svg" width="21.053" height="17.863" viewBox="0 0 21.053 17.863"><defs><style>.a,.b{fill:none;stroke:#000;stroke-miterlimit:10;}.b{stroke-width:0.8px;}</style></defs><g transform="translate(0.5 0.5)"><path class="a" d="M732.394,1247.29h6.836a1.823,1.823,0,0,1,1.823,1.823v10.938a1.823,1.823,0,0,1-1.823,1.823H722.823a1.823,1.823,0,0,1-1.823-1.823v-10.938a1.823,1.823,0,0,1,1.823-1.823h6.836" transform="translate(-721 -1245.011)"/><rect class="a" width="2.735" height="4.558" rx="1" transform="translate(8.659)"/><g transform="translate(2.279 6.432)"><line class="b" x2="7.292" transform="translate(8.204 1.735)"/><line class="b" x2="7.292" transform="translate(8.204 4.492)"/><line class="b" x2="5.469" transform="translate(8.204 7.204)"/><path class="b" d="M2.713,0h.044A2.713,2.713,0,0,1,5.469,2.713v0a0,0,0,0,1,0,0H0a0,0,0,0,1,0,0v0A2.713,2.713,0,0,1,2.713,0Z" transform="translate(0 4.492)"/><circle class="b" cx="1.367" cy="1.367" r="1.367" transform="translate(1.367)"/></g></g></svg>