<?xml version="1.0" encoding="UTF-8"?>
<svg xmlns="http://www.w3.org/2000/svg" xmlns:xlink="http://www.w3.org/1999/xlink" width="24px" height="px" viewBox="0 0 24 24" version="1.1">
<g id="surface1">
<path style=" stroke:none;fill-rule:nonzero;fill:rgb(0%,0%,0%);fill-opacity:1;" d="M 5.472656 1.546875 L 4.34375 2.628906 L 3.769531 2.125 C 3.3125 1.707031 2.929688 1.617188 1.609375 1.617188 C 0.359375 1.617188 0 1.683594 0 1.960938 C 0 2.214844 0.382812 2.308594 1.585938 2.355469 C 3.648438 2.445312 4.03125 2.882812 3.023438 3.898438 C 2.230469 4.683594 2.136719 5.585938 2.785156 6.253906 C 3.097656 6.601562 3.144531 6.761719 2.929688 6.96875 C 2.761719 7.128906 2.640625 7.363281 2.640625 7.5 C 2.640625 7.890625 3.984375 8.5625 4.726562 8.515625 C 5.089844 8.515625 5.640625 8.5625 5.902344 8.652344 C 6.601562 8.863281 7.535156 7.777344 7.199219 7.152344 C 7.007812 6.832031 7.078125 6.785156 7.585938 6.875 C 8.375 7.015625 9.191406 6.324219 9.023438 5.628906 C 8.902344 5.214844 8.976562 5.144531 9.359375 5.238281 C 9.648438 5.308594 10.054688 5.191406 10.320312 4.960938 C 10.679688 4.636719 10.753906 4.316406 10.679688 3.230469 C 10.558594 1.316406 9.769531 0.390625 8.976562 1.152344 C 8.808594 1.316406 8.59375 1.246094 8.28125 0.921875 C 7.558594 0.160156 6.71875 0.347656 5.472656 1.546875 Z M 7.921875 1.523438 C 8.207031 1.824219 7.921875 2.167969 6 4.039062 C 4.753906 5.238281 3.671875 6.160156 3.550781 6.09375 C 3.457031 6.023438 3.238281 5.769531 3.097656 5.515625 C 2.878906 5.101562 3.097656 4.800781 4.824219 3.09375 C 6.816406 1.128906 7.367188 0.855469 7.921875 1.523438 Z M 9.9375 2.238281 C 10.054688 2.539062 9.382812 3.324219 7.367188 5.261719 C 5.015625 7.523438 4.535156 7.871094 4.078125 7.730469 C 3.574219 7.570312 3.792969 7.316406 6.503906 4.707031 C 8.136719 3.136719 9.550781 1.847656 9.625 1.847656 C 9.71875 1.847656 9.863281 2.03125 9.9375 2.238281 Z M 10.078125 4.128906 C 10.078125 4.40625 9.601562 4.707031 9.433594 4.546875 C 9.265625 4.382812 9.574219 3.921875 9.863281 3.921875 C 9.984375 3.921875 10.078125 4.015625 10.078125 4.128906 Z M 8.398438 5.746094 C 8.398438 6.023438 7.921875 6.324219 7.753906 6.160156 C 7.585938 6 7.894531 5.539062 8.183594 5.539062 C 8.304688 5.539062 8.398438 5.628906 8.398438 5.746094 Z M 6.480469 7.570312 C 6.480469 7.871094 6.191406 8.078125 5.953125 7.9375 C 5.710938 7.800781 5.929688 7.382812 6.265625 7.382812 C 6.382812 7.382812 6.480469 7.476562 6.480469 7.570312 Z M 6.480469 7.570312 "/>
<path style=" stroke:none;fill-rule:nonzero;fill:rgb(0%,0%,0%);fill-opacity:1;" d="M 12.625 2.421875 C 12.3125 2.746094 12.238281 3.390625 12.238281 6.070312 C 12.238281 7.871094 12.359375 9.507812 12.480469 9.691406 C 12.671875 9.96875 13.585938 10.0625 17.710938 10.109375 C 20.734375 10.152344 22.945312 10.085938 23.351562 9.945312 L 24 9.691406 L 24 6.136719 C 24 2.769531 23.976562 2.539062 23.519531 2.308594 C 22.894531 1.984375 21.3125 2.101562 21.167969 2.46875 C 21.121094 2.675781 21.40625 2.769531 22.175781 2.769531 L 23.28125 2.769531 L 23.28125 9.230469 L 12.9375 9.230469 L 13.007812 6.046875 L 13.078125 2.882812 L 16.753906 2.816406 C 19.535156 2.769531 20.398438 2.675781 20.328125 2.46875 C 20.28125 2.261719 19.222656 2.167969 16.632812 2.125 C 13.558594 2.078125 12.9375 2.125 12.625 2.421875 Z M 12.625 2.421875 "/>
<path style=" stroke:none;fill-rule:nonzero;fill:rgb(0%,0%,0%);fill-opacity:1;" d="M 13.726562 3.738281 C 13.894531 4.199219 15.121094 4.269531 15.121094 3.832031 C 15.121094 3.578125 14.878906 3.460938 14.375 3.460938 C 13.894531 3.460938 13.679688 3.554688 13.726562 3.738281 Z M 13.726562 3.738281 "/>
<path style=" stroke:none;fill-rule:nonzero;fill:rgb(0%,0%,0%);fill-opacity:1;" d="M 13.847656 4.753906 C 13.585938 5.03125 13.921875 5.308594 14.542969 5.308594 C 14.902344 5.308594 15.121094 5.167969 15.121094 4.960938 C 15.121094 4.617188 14.160156 4.476562 13.847656 4.753906 Z M 13.847656 4.753906 "/>
<path style=" stroke:none;fill-rule:nonzero;fill:rgb(0%,0%,0%);fill-opacity:1;" d="M 20.6875 5.308594 C 20.375 5.792969 20.160156 5.90625 19.992188 5.746094 C 19.800781 5.5625 19.632812 5.628906 19.441406 6.023438 C 19.128906 6.554688 19.128906 6.53125 18.671875 5.699219 C 18.167969 4.730469 17.929688 4.660156 17.472656 5.285156 C 17.28125 5.515625 16.894531 5.769531 16.585938 5.816406 C 16.246094 5.839844 15.960938 6.023438 15.886719 6.160156 C 15.769531 6.554688 17.328125 6.554688 17.710938 6.183594 C 17.929688 5.976562 18.121094 6.183594 18.527344 7.109375 C 19.175781 8.492188 19.585938 8.628906 19.824219 7.523438 C 19.921875 6.96875 20.0625 6.761719 20.304688 6.855469 C 20.496094 6.921875 20.6875 6.832031 20.761719 6.644531 C 20.855469 6.414062 21.144531 6.347656 21.601562 6.414062 C 22.152344 6.484375 22.320312 6.414062 22.320312 6.136719 C 22.320312 5.929688 22.152344 5.769531 21.960938 5.769531 C 21.742188 5.769531 21.601562 5.5625 21.601562 5.191406 C 21.601562 4.40625 21.214844 4.453125 20.6875 5.308594 Z M 20.6875 5.308594 "/>
<path style=" stroke:none;fill-rule:nonzero;fill:rgb(0%,0%,0%);fill-opacity:1;" d="M 13.847656 5.90625 C 13.488281 6.253906 13.703125 6.460938 14.425781 6.460938 C 14.902344 6.460938 15.121094 6.371094 15.070312 6.160156 C 14.953125 5.839844 14.113281 5.675781 13.847656 5.90625 Z M 13.847656 5.90625 "/>
<path style=" stroke:none;fill-rule:nonzero;fill:rgb(0%,0%,0%);fill-opacity:1;" d="M 13.726562 7.429688 C 13.894531 7.890625 15.121094 7.960938 15.121094 7.523438 C 15.121094 7.269531 14.878906 7.152344 14.375 7.152344 C 13.894531 7.152344 13.679688 7.246094 13.726562 7.429688 Z M 13.726562 7.429688 "/>
<path style=" stroke:none;fill-rule:nonzero;fill:rgb(0%,0%,0%);fill-opacity:1;" d="M 1.488281 11.816406 C 1.320312 11.976562 1.199219 12.277344 1.199219 12.507812 C 1.199219 12.738281 1.105469 12.921875 0.984375 12.921875 C 0.503906 12.921875 0 13.683594 0 14.445312 C 0 15.160156 0.046875 15.230469 0.71875 15.230469 C 1.199219 15.230469 1.441406 15.347656 1.441406 15.578125 C 1.441406 15.761719 1.65625 16.128906 1.921875 16.382812 C 2.542969 16.984375 5.039062 17.078125 5.039062 16.5 C 5.039062 16.246094 4.726562 16.152344 3.742188 16.152344 C 2.855469 16.152344 2.398438 16.0625 2.328125 15.832031 C 2.257812 15.644531 2.257812 15.4375 2.328125 15.371094 C 2.542969 15.160156 21.550781 15.207031 21.695312 15.414062 C 22.105469 16.0625 21.3125 16.152344 13.65625 16.199219 C 8.640625 16.246094 5.902344 16.363281 5.929688 16.5 C 5.976562 16.617188 6.671875 16.777344 7.488281 16.847656 C 8.328125 16.914062 9.265625 17.125 9.574219 17.285156 L 10.175781 17.609375 L 9.289062 18.046875 C 8.617188 18.371094 8.398438 18.625 8.398438 19.039062 C 8.398438 19.59375 8.351562 19.617188 6.769531 19.617188 C 4.992188 19.617188 4.558594 19.847656 4.558594 20.746094 C 4.558594 21.046875 4.390625 21.484375 4.175781 21.714844 C 3.3125 22.636719 4.65625 24.09375 5.640625 23.308594 C 6.121094 22.9375 6.097656 21.714844 5.640625 21.554688 C 5.449219 21.460938 5.28125 21.160156 5.28125 20.863281 L 5.28125 20.308594 L 18 20.308594 L 18 20.863281 C 18 21.160156 17.832031 21.460938 17.640625 21.554688 C 17.183594 21.714844 17.160156 22.9375 17.640625 23.308594 C 18.625 24.09375 19.96875 22.636719 19.105469 21.714844 C 18.886719 21.484375 18.71875 21.046875 18.71875 20.746094 C 18.71875 19.824219 18.289062 19.617188 16.390625 19.617188 C 14.785156 19.617188 14.542969 19.546875 13.273438 18.761719 L 11.878906 17.90625 L 12.960938 17.445312 C 13.871094 17.054688 14.6875 16.9375 17.953125 16.847656 C 21.480469 16.753906 21.910156 16.683594 22.222656 16.292969 C 22.414062 16.039062 22.558594 15.691406 22.558594 15.53125 C 22.558594 15.347656 22.847656 15.230469 23.28125 15.230469 C 23.929688 15.230469 24 15.160156 24 14.445312 C 24 12.921875 23.953125 12.921875 16.992188 12.921875 C 12.121094 12.921875 10.777344 12.992188 10.847656 13.199219 C 10.945312 13.429688 12.480469 13.523438 17.0625 13.617188 C 22.609375 13.730469 23.160156 13.777344 23.230469 14.125 C 23.304688 14.515625 22.65625 14.539062 12 14.539062 C 1.34375 14.539062 0.695312 14.515625 0.769531 14.125 C 0.839844 13.777344 1.320312 13.707031 5.375 13.617188 C 8.710938 13.523438 9.9375 13.429688 10.03125 13.199219 C 10.105469 12.992188 9.503906 12.921875 7.632812 12.921875 L 5.136719 12.921875 L 4.871094 12.230469 C 4.609375 11.5625 4.535156 11.539062 3.191406 11.539062 C 2.398438 11.539062 1.65625 11.652344 1.488281 11.816406 Z M 4.199219 12.578125 C 4.199219 12.691406 3.695312 12.832031 3.070312 12.875 C 2.136719 12.945312 1.921875 12.875 1.921875 12.578125 C 1.921875 12.277344 2.136719 12.207031 3.070312 12.277344 C 3.695312 12.324219 4.199219 12.4375 4.199219 12.578125 Z M 11.832031 17.125 C 11.425781 17.308594 11.136719 17.308594 10.753906 17.125 C 10.273438 16.914062 10.320312 16.871094 11.28125 16.871094 C 12.238281 16.871094 12.289062 16.914062 11.832031 17.125 Z M 12.070312 18.855469 L 13.078125 19.5 L 11.425781 19.570312 C 9.648438 19.636719 9.121094 19.546875 9.121094 19.152344 C 9.121094 18.921875 10.390625 18.253906 10.871094 18.230469 C 10.96875 18.230469 11.496094 18.507812 12.070312 18.855469 Z M 5.28125 22.523438 C 5.28125 22.730469 5.160156 22.847656 4.992188 22.800781 C 4.558594 22.660156 4.488281 22.152344 4.894531 22.152344 C 5.113281 22.152344 5.28125 22.316406 5.28125 22.523438 Z M 18.671875 22.429688 C 18.527344 22.847656 18 22.914062 18 22.523438 C 18 22.316406 18.167969 22.152344 18.382812 22.152344 C 18.601562 22.152344 18.71875 22.269531 18.671875 22.429688 Z M 18.671875 22.429688 "/>
</g>
</svg>
