<?xml version="1.0" encoding="UTF-8"?>
<svg xmlns="http://www.w3.org/2000/svg" xmlns:xlink="http://www.w3.org/1999/xlink" width="24px" height="25px" viewBox="0 0 24 22" version="1.1">
<g id="surface1">
<path style=" stroke:none;fill-rule:nonzero;fill:rgb(0%,0%,0%);fill-opacity:1;" d="M 18.808594 12.417969 L 17.65625 13.472656 L 17.023438 10.578125 L 16.570312 8.21875 C 16.363281 7.171875 15.796875 6.222656 14.960938 5.527344 L 16.371094 3.976562 C 16.546875 3.785156 16.644531 3.539062 16.644531 3.285156 C 16.640625 2.871094 16.386719 2.492188 15.996094 2.320312 L 15.863281 2.261719 C 15.671875 2.175781 15.464844 2.128906 15.253906 2.128906 C 14.789062 2.125 14.351562 2.34375 14.09375 2.71875 L 13.0625 4.226562 L 13.859375 2.042969 C 13.910156 1.902344 13.933594 1.757812 13.933594 1.609375 C 13.929688 1.144531 13.679688 0.710938 13.269531 0.46875 L 12.769531 0.164062 C 12.59375 0.0546875 12.390625 0 12.183594 0 C 11.675781 -0.0117188 11.234375 0.332031 11.136719 0.8125 L 10.695312 3.246094 L 10.5 0.929688 C 10.441406 0.394531 9.964844 -0.0117188 9.40625 0 C 9.289062 0 9.171875 0.015625 9.058594 0.0507812 L 8.667969 0.171875 C 8.125 0.324219 7.75 0.800781 7.742188 1.347656 C 7.742188 1.414062 7.75 1.484375 7.761719 1.550781 L 8.414062 5.136719 C 8.125 5.320312 7.859375 5.535156 7.617188 5.769531 L 6.871094 5.085938 C 6.679688 4.910156 6.558594 4.671875 6.535156 4.417969 L 6.246094 0.953125 C 6.183594 0.402344 5.695312 -0.0117188 5.125 0 C 5.03125 0 4.941406 0.0117188 4.851562 0.03125 L 4.039062 0.21875 C 3.496094 0.328125 3.105469 0.789062 3.097656 1.324219 C 3.097656 1.417969 3.109375 1.507812 3.132812 1.597656 L 3.765625 3.910156 C 3.789062 4.003906 3.742188 4.101562 3.648438 4.140625 C 3.574219 4.175781 3.484375 4.167969 3.414062 4.121094 L 2.40625 3.429688 C 2.179688 3.277344 1.914062 3.195312 1.640625 3.195312 C 1.21875 3.191406 0.820312 3.386719 0.574219 3.714844 L 0.207031 4.222656 C 0.0703125 4.40625 0 4.621094 0 4.847656 C 0.00390625 5.28125 0.269531 5.675781 0.679688 5.851562 L 2.273438 6.582031 C 2.613281 6.738281 2.878906 7.015625 3.011719 7.355469 C 1.230469 7.933594 0.0234375 9.539062 0 11.351562 C 0.00390625 13.527344 0.902344 15.613281 2.496094 17.152344 C 4.292969 18.914062 6.464844 20.28125 8.859375 21.15625 L 10.796875 21.871094 C 11.03125 21.957031 11.28125 22 11.535156 22 C 11.921875 22 12.296875 21.878906 12.605469 21.648438 L 12.796875 21.507812 C 15.207031 19.710938 16.949219 17.210938 17.765625 14.378906 L 19.128906 13.128906 L 24 13.128906 L 24 12.417969 Z M 14.75 3.09375 C 14.921875 2.859375 15.246094 2.773438 15.515625 2.894531 L 15.648438 2.957031 C 15.78125 3.011719 15.867188 3.140625 15.871094 3.285156 C 15.871094 3.371094 15.835938 3.457031 15.777344 3.519531 L 14.355469 5.082031 C 14.128906 4.941406 13.894531 4.816406 13.648438 4.710938 Z M 11.902344 0.929688 C 11.925781 0.839844 11.988281 0.769531 12.078125 0.734375 C 12.164062 0.699219 12.261719 0.707031 12.34375 0.753906 L 12.839844 1.058594 C 13.039062 1.175781 13.160156 1.382812 13.160156 1.609375 C 13.160156 1.679688 13.148438 1.75 13.125 1.820312 L 12.214844 4.316406 C 11.953125 4.277344 11.6875 4.257812 11.421875 4.257812 C 11.378906 4.257812 11.339844 4.265625 11.292969 4.265625 Z M 8.523438 1.433594 C 8.476562 1.171875 8.644531 0.914062 8.910156 0.84375 L 9.304688 0.726562 C 9.394531 0.699219 9.496094 0.710938 9.578125 0.761719 C 9.660156 0.8125 9.714844 0.890625 9.730469 0.984375 L 10.019531 4.441406 C 9.714844 4.519531 9.414062 4.625 9.128906 4.753906 Z M 11.421875 4.96875 C 12.59375 4.960938 13.722656 5.390625 14.578125 6.164062 L 14.171875 6.226562 C 13.40625 6.34375 12.6875 6.640625 12.070312 7.089844 C 11.425781 7.554688 10.640625 7.808594 9.835938 7.804688 L 9.769531 7.804688 C 8.957031 7.808594 8.164062 7.550781 7.519531 7.074219 C 7.601562 6.949219 7.683594 6.828125 7.777344 6.710938 C 8.636719 5.605469 9.992188 4.957031 11.425781 4.96875 Z M 2.617188 5.949219 L 1.023438 5.21875 C 0.875 5.152344 0.777344 5.007812 0.773438 4.847656 C 0.773438 4.765625 0.800781 4.683594 0.851562 4.617188 L 1.21875 4.109375 C 1.390625 3.894531 1.707031 3.84375 1.941406 3.996094 L 2.949219 4.6875 C 3.257812 4.898438 3.65625 4.933594 3.992188 4.777344 C 4.40625 4.597656 4.625 4.160156 4.515625 3.738281 L 3.882812 1.425781 C 3.875 1.394531 3.871094 1.359375 3.871094 1.324219 C 3.875 1.121094 4.019531 0.949219 4.226562 0.90625 L 5.039062 0.71875 C 5.136719 0.699219 5.238281 0.714844 5.320312 0.769531 C 5.402344 0.824219 5.457031 0.910156 5.472656 1.007812 L 5.761719 4.472656 C 5.800781 4.898438 6 5.296875 6.324219 5.589844 L 7.125 6.324219 C 6.878906 6.648438 6.667969 6.996094 6.484375 7.355469 L 5.519531 7.179688 C 5.21875 7.125 4.917969 7.097656 4.613281 7.097656 L 4.566406 7.097656 C 4.292969 7.097656 4.023438 7.121094 3.757812 7.167969 C 3.566406 6.628906 3.15625 6.191406 2.621094 5.949219 Z M 4.5625 7.804688 L 4.613281 7.804688 C 4.863281 7.804688 5.117188 7.828125 5.363281 7.875 L 6.191406 8.027344 C 5.9375 8.71875 5.804688 9.449219 5.804688 10.183594 L 5.804688 10.375 C 5.800781 10.925781 5.566406 11.457031 5.152344 11.839844 C 4.742188 12.226562 4.1875 12.433594 3.613281 12.417969 C 2.652344 12.425781 1.722656 12.074219 1.023438 11.433594 L 0.78125 11.214844 C 0.894531 9.285156 2.5625 7.78125 4.5625 7.804688 Z M 12.308594 20.957031 L 12.117188 21.101562 C 11.8125 21.304688 11.425781 21.34375 11.085938 21.210938 L 9.144531 20.5 C 6.855469 19.660156 4.78125 18.351562 3.0625 16.667969 C 1.828125 15.46875 1.042969 13.90625 0.832031 12.230469 C 1.632812 12.816406 2.609375 13.132812 3.613281 13.128906 C 5.21875 13.15625 6.546875 11.925781 6.582031 10.375 L 6.582031 10.183594 C 6.582031 9.328125 6.78125 8.484375 7.160156 7.714844 C 7.921875 8.238281 8.835938 8.519531 9.773438 8.515625 L 9.835938 8.515625 C 10.816406 8.519531 11.769531 8.210938 12.554688 7.644531 C 13.066406 7.269531 13.664062 7.023438 14.300781 6.929688 L 15.136719 6.800781 C 15.472656 7.261719 15.699219 7.789062 15.808594 8.339844 L 16.25 10.628906 L 15.132812 14.203125 L 13.539062 7.988281 L 12.464844 12.417969 L 11.574219 12.417969 C 11.363281 11.574219 10.574219 10.984375 9.675781 11 C 9 10.964844 8.355469 11.296875 8.003906 11.859375 C 7.652344 12.421875 7.652344 13.125 8.003906 13.691406 C 8.355469 14.253906 9 14.582031 9.675781 14.546875 C 10.574219 14.5625 11.363281 13.972656 11.574219 13.128906 L 13.085938 13.128906 L 13.558594 11.171875 L 15.058594 17.019531 L 16.578125 12.148438 L 17.023438 14.179688 C 16.25 16.871094 14.597656 19.25 12.308594 20.957031 Z M 10.839844 12.773438 C 10.863281 13.234375 10.597656 13.660156 10.164062 13.855469 C 9.730469 14.046875 9.222656 13.964844 8.878906 13.648438 C 8.53125 13.332031 8.421875 12.84375 8.597656 12.417969 C 8.773438 11.988281 9.203125 11.710938 9.675781 11.710938 C 10.300781 11.695312 10.820312 12.171875 10.839844 12.773438 Z M 10.839844 12.773438 "/>
</g>
</svg>
