<?xml version="1.0" encoding="UTF-8"?>
<svg xmlns="http://www.w3.org/2000/svg" xmlns:xlink="http://www.w3.org/1999/xlink" width="24px" height="25px" viewBox="0 0 24 25" version="1.1">
<g id="surface1">
<path style=" stroke:none;fill-rule:nonzero;fill:rgb(0%,0%,0%);fill-opacity:1;" d="M 15.566406 1 C 15.40625 1.601562 14.917969 2.125 14.351562 2.242188 C 13.09375 2.5625 13.09375 3.125 14.351562 3.445312 C 14.960938 3.566406 15.445312 4.046875 15.566406 4.648438 C 15.890625 5.890625 16.460938 5.890625 16.785156 4.605469 C 16.945312 4.007812 17.433594 3.527344 18.039062 3.367188 C 18.609375 3.246094 19.054688 2.964844 19.054688 2.804688 C 19.054688 2.644531 18.609375 2.363281 18.039062 2.242188 C 17.433594 2.082031 16.945312 1.601562 16.785156 1 C 16.460938 -0.28125 15.890625 -0.28125 15.566406 1 Z M 16.539062 3.246094 C 15.851562 3.644531 15.40625 3.324219 15.6875 2.5625 C 15.851562 2.125 16.011719 2.082031 16.5 2.445312 C 16.945312 2.84375 16.945312 3.003906 16.539062 3.246094 Z M 16.539062 3.246094 "/>
<path style=" stroke:none;fill-rule:nonzero;fill:rgb(0%,0%,0%);fill-opacity:1;" d="M 3.730469 3.085938 C 1.824219 4.007812 0.324219 6.089844 0.121094 8.132812 C -0.0390625 9.574219 0.164062 10.417969 1.378906 12.859375 C 2.1875 14.503906 3.121094 17.226562 3.445312 18.910156 C 4.175781 22.757812 5.027344 24.839844 5.878906 24.839844 C 6.769531 24.839844 7.90625 22.757812 8.757812 19.792969 C 9.121094 18.390625 9.648438 17.027344 9.933594 16.828125 C 10.5 16.386719 10.785156 16.988281 11.960938 20.832031 C 12.769531 23.597656 13.863281 25.039062 14.757812 24.71875 C 15.609375 24.398438 16.011719 23.277344 16.863281 19.152344 C 17.230469 17.308594 17.878906 14.945312 18.324219 13.902344 C 18.8125 12.859375 19.054688 11.898438 18.890625 11.738281 C 18.488281 11.296875 17.109375 14.902344 16.257812 18.710938 C 14.835938 25.199219 14.066406 25.402344 12.363281 19.832031 C 11.230469 16.1875 10.5 15.222656 9.527344 16.027344 C 9.203125 16.304688 8.714844 17.269531 8.511719 18.1875 C 7.824219 20.832031 6.890625 23.15625 6.285156 23.636719 C 5.511719 24.277344 5.109375 23.398438 4.136719 18.75 C 3.648438 16.625 2.714844 13.78125 2.027344 12.378906 C 0.324219 9.054688 0.445312 6.972656 2.554688 4.886719 C 3.6875 3.765625 4.378906 3.445312 6 3.285156 C 7.296875 3.164062 8.390625 3.324219 9.121094 3.6875 C 9.972656 4.167969 10.460938 4.167969 11.1875 3.847656 C 11.714844 3.605469 12.164062 3.285156 12.164062 3.085938 C 12.164062 2.683594 11.027344 2.722656 10.742188 3.164062 C 10.621094 3.40625 9.972656 3.324219 9.121094 2.964844 C 7.296875 2.242188 5.390625 2.242188 3.730469 3.085938 Z M 3.730469 3.085938 "/>
<path style=" stroke:none;fill-rule:nonzero;fill:rgb(0%,0%,0%);fill-opacity:1;" d="M 3.972656 4.726562 C 2.1875 5.769531 1.175781 8.414062 1.863281 10.175781 C 2.351562 11.378906 2.636719 10.816406 2.511719 9.015625 C 2.351562 7.453125 2.511719 7.050781 3.566406 6.007812 C 4.863281 4.726562 6.972656 4.40625 8.554688 5.207031 C 9.039062 5.488281 9.324219 5.488281 9.324219 5.25 C 9.324219 3.964844 5.714844 3.605469 3.972656 4.726562 Z M 3.972656 4.726562 "/>
<path style=" stroke:none;fill-rule:nonzero;fill:rgb(0%,0%,0%);fill-opacity:1;" d="M 19.296875 5.046875 C 19.136719 5.6875 18.566406 6.25 17.835938 6.53125 C 16.335938 7.089844 16.296875 7.53125 17.675781 7.851562 C 18.363281 8.054688 18.933594 8.613281 19.378906 9.574219 L 19.988281 11.019531 L 20.59375 9.535156 C 21.039062 8.453125 21.488281 7.972656 22.335938 7.8125 C 23.835938 7.492188 23.835938 6.929688 22.335938 6.609375 C 21.488281 6.449219 21 6.007812 20.714844 5.167969 C 20.230469 3.726562 19.621094 3.6875 19.296875 5.046875 Z M 21.039062 7.089844 C 21.609375 7.53125 21.609375 7.570312 21 7.613281 C 20.59375 7.613281 20.269531 7.894531 20.269531 8.214844 C 20.269531 8.695312 20.109375 8.652344 19.460938 8.011719 C 18.6875 7.25 18.6875 7.171875 19.378906 6.492188 C 19.785156 6.089844 20.148438 5.96875 20.230469 6.210938 C 20.3125 6.410156 20.675781 6.8125 21.039062 7.089844 Z M 21.039062 7.089844 "/>
<path style=" stroke:none;fill-rule:nonzero;fill:rgb(0%,0%,0%);fill-opacity:1;" d="M 12.769531 5.96875 C 12.488281 7.371094 11.960938 7.851562 10.417969 8.214844 C 8.917969 8.613281 9.039062 8.972656 10.863281 9.695312 C 12.121094 10.175781 12.488281 10.578125 12.6875 11.578125 C 13.011719 13.179688 13.621094 13.179688 13.988281 11.578125 C 14.230469 10.578125 14.636719 10.175781 15.851562 9.695312 C 17.714844 8.972656 17.835938 8.613281 16.335938 8.214844 C 14.796875 7.851562 14.269531 7.371094 13.988281 5.96875 C 13.824219 5.328125 13.582031 4.808594 13.378906 4.808594 C 13.175781 4.808594 12.933594 5.328125 12.769531 5.96875 Z M 14.554688 9.292969 C 14.109375 9.457031 13.785156 9.855469 13.785156 10.214844 C 13.785156 10.535156 13.621094 10.816406 13.378906 10.816406 C 13.175781 10.816406 12.972656 10.535156 12.972656 10.214844 C 12.972656 9.855469 12.566406 9.457031 12.082031 9.253906 L 11.1875 8.933594 L 12.082031 8.453125 C 12.566406 8.214844 12.972656 7.691406 12.972656 7.371094 C 12.972656 6.929688 13.335938 7.089844 14.148438 7.894531 C 15.203125 8.933594 15.242188 9.054688 14.554688 9.292969 Z M 14.554688 9.292969 "/>
</g>
</svg>
