<?xml version="1.0" encoding="UTF-8"?>
<svg xmlns="http://www.w3.org/2000/svg" xmlns:xlink="http://www.w3.org/1999/xlink" width="24px" height="25px" viewBox="0 0 24 25" version="1.1">
<g id="surface1">
<path style=" stroke:none;fill-rule:nonzero;fill:rgb(0%,20%,20%);fill-opacity:1;" d="M 17.355469 15.46875 C 17.996094 15.46875 18.511719 14.742188 18.515625 13.84375 C 18.519531 13.664062 18.453125 13.492188 18.339844 13.402344 C 18.230469 13.308594 18.09375 13.308594 17.980469 13.402344 C 17.871094 13.492188 17.804688 13.664062 17.808594 13.84375 C 17.808594 14.195312 17.605469 14.480469 17.355469 14.480469 C 17.105469 14.480469 16.902344 14.195312 16.902344 13.84375 C 16.898438 13.578125 16.742188 13.363281 16.550781 13.363281 C 16.359375 13.363281 16.203125 13.578125 16.199219 13.84375 C 16.199219 14.742188 16.71875 15.46875 17.355469 15.46875 Z M 17.355469 15.46875 "/>
<path style=" stroke:none;fill-rule:nonzero;fill:rgb(0%,20%,20%);fill-opacity:1;" d="M 19.207031 12.691406 C 19.402344 12.691406 19.558594 12.46875 19.558594 12.195312 L 19.558594 11.675781 C 19.742188 11.644531 19.878906 11.414062 19.867188 11.15625 C 19.855469 10.894531 19.703125 10.691406 19.515625 10.691406 L 19.207031 10.691406 C 19.011719 10.691406 18.855469 10.914062 18.855469 11.1875 L 18.855469 12.195312 C 18.855469 12.328125 18.890625 12.453125 18.957031 12.546875 C 19.023438 12.640625 19.113281 12.691406 19.207031 12.691406 Z M 19.207031 12.691406 "/>
<path style=" stroke:none;fill-rule:nonzero;fill:rgb(0%,20%,20%);fill-opacity:1;" d="M 15.152344 11.675781 L 15.152344 12.195312 C 15.148438 12.375 15.214844 12.546875 15.328125 12.636719 C 15.4375 12.730469 15.574219 12.730469 15.6875 12.636719 C 15.796875 12.546875 15.863281 12.375 15.859375 12.195312 L 15.859375 11.1875 C 15.859375 10.914062 15.699219 10.691406 15.507812 10.691406 L 15.195312 10.691406 C 15.011719 10.691406 14.859375 10.894531 14.847656 11.15625 C 14.835938 11.414062 14.96875 11.644531 15.152344 11.675781 Z M 15.152344 11.675781 "/>
<path style=" stroke:none;fill-rule:nonzero;fill:rgb(0%,20%,20%);fill-opacity:1;" d="M 22.628906 12.285156 C 22.910156 11.453125 22.808594 10.472656 22.375 9.785156 C 22.417969 9.699219 22.441406 9.601562 22.441406 9.5 C 22.441406 8.035156 22.492188 7.167969 22.179688 5.910156 C 22.140625 5.734375 22.039062 5.605469 21.914062 5.566406 C 21.785156 5.53125 21.65625 5.59375 21.570312 5.734375 C 21.488281 5.875 21.464844 6.066406 21.511719 6.234375 C 21.714844 7.128906 21.789062 8.066406 21.734375 9.003906 L 19.5625 9.003906 C 18.539062 9 17.710938 7.835938 17.710938 6.402344 C 17.703125 6.136719 17.546875 5.921875 17.355469 5.921875 C 17.167969 5.921875 17.011719 6.136719 17.003906 6.402344 C 17.003906 7.835938 16.175781 9 15.152344 9.003906 L 12.976562 9.003906 L 12.976562 8.078125 C 12.980469 4.996094 14.757812 2.496094 16.953125 2.492188 C 16.980469 2.492188 17.003906 2.523438 17.003906 2.5625 C 17.007812 2.828125 17.164062 3.039062 17.355469 3.039062 C 17.546875 3.039062 17.703125 2.828125 17.707031 2.5625 C 17.707031 2.523438 17.730469 2.492188 17.757812 2.492188 C 18.90625 2.492188 20 3.191406 20.757812 4.40625 C 20.835938 4.546875 20.96875 4.617188 21.09375 4.585938 C 21.222656 4.554688 21.328125 4.425781 21.367188 4.253906 C 21.410156 4.082031 21.378906 3.890625 21.289062 3.757812 C 20.402344 2.324219 19.113281 1.503906 17.757812 1.503906 C 17.617188 1.503906 17.476562 1.558594 17.359375 1.664062 C 17.238281 1.558594 17.097656 1.503906 16.957031 1.503906 C 14.371094 1.507812 12.273438 4.449219 12.273438 8.078125 L 12.273438 9.496094 C 12.273438 9.597656 12.296875 9.699219 12.335938 9.78125 C 12.21875 9.972656 12.121094 10.1875 12.050781 10.421875 C 12.011719 9.710938 11.757812 9.058594 11.355469 8.628906 L 11.355469 6.742188 C 11.351562 3.019531 9.203125 0.0078125 6.554688 0 C 6.121094 -0.0117188 5.683594 0.015625 5.253906 0.0859375 C 4.007812 0.21875 2.875 1.160156 2.195312 2.628906 L 1.132812 2.152344 C 1.027344 2.105469 0.914062 2.128906 0.824219 2.21875 C 0.734375 2.304688 0.675781 2.449219 0.671875 2.601562 C 0.605469 4.539062 0.714844 6.480469 0.992188 8.378906 C 0.285156 8.875 -0.105469 9.957031 0.0234375 11.046875 C 0.15625 12.136719 0.777344 12.980469 1.558594 13.125 C 1.839844 14.824219 2.605469 16.292969 3.671875 17.1875 L 2.929688 17.1875 C 1.707031 17.191406 0.71875 18.578125 0.714844 20.296875 L 0.714844 24.636719 C 0.714844 24.910156 0.875 25.132812 1.070312 25.132812 L 1.65625 25.132812 C 1.785156 25.136719 1.90625 25.046875 1.972656 24.890625 C 2.035156 24.734375 2.035156 24.539062 1.972656 24.382812 C 1.90625 24.230469 1.785156 24.136719 1.65625 24.140625 L 1.421875 24.140625 L 1.421875 20.296875 C 1.425781 19.128906 2.097656 18.179688 2.929688 18.179688 L 3.957031 18.179688 C 4.128906 19.601562 5.007812 20.644531 6.035156 20.644531 C 7.0625 20.644531 7.941406 19.601562 8.113281 18.179688 L 9.140625 18.179688 C 9.972656 18.179688 10.648438 19.125 10.648438 20.292969 L 10.648438 24.140625 L 3.300781 24.140625 C 3.175781 24.136719 3.054688 24.226562 2.988281 24.382812 C 2.921875 24.539062 2.921875 24.734375 2.988281 24.890625 C 3.054688 25.046875 3.175781 25.136719 3.300781 25.132812 L 11 25.132812 C 11.195312 25.132812 11.355469 24.910156 11.355469 24.636719 L 11.355469 20.292969 C 11.355469 19.894531 11.300781 19.5 11.191406 19.128906 L 11.757812 19.128906 C 12.101562 19.128906 12.441406 19.035156 12.761719 18.847656 C 12.535156 19.335938 12.417969 19.90625 12.417969 20.488281 L 12.417969 24.636719 C 12.417969 24.910156 12.574219 25.132812 12.769531 25.132812 L 21.964844 25.132812 C 22.160156 25.132812 22.320312 24.910156 22.320312 24.636719 L 22.320312 20.488281 C 22.320312 19.914062 22.203125 19.351562 21.984375 18.867188 C 22.292969 19.039062 22.621094 19.128906 22.953125 19.128906 L 23.738281 19.128906 C 23.933594 19.128906 24.09375 18.90625 24.09375 18.632812 L 24.09375 15.597656 C 24.089844 14.195312 23.523438 12.914062 22.628906 12.285156 Z M 15.152344 9.992188 C 16.058594 9.992188 16.898438 9.316406 17.359375 8.21875 C 17.816406 9.316406 18.65625 9.992188 19.566406 9.992188 L 21.152344 9.992188 C 21.667969 10.007812 22.078125 10.605469 22.066406 11.332031 C 22.054688 12.054688 21.628906 12.628906 21.113281 12.613281 C 20.933594 12.601562 20.777344 12.78125 20.75 13.027344 C 20.507812 15.035156 19.394531 16.617188 17.964844 16.976562 C 16.535156 17.335938 15.097656 16.398438 14.375 14.632812 C 14.371094 14.609375 14.363281 14.589844 14.355469 14.570312 C 14.210938 14.210938 14.101562 13.828125 14.03125 13.429688 C 14.03125 13.421875 14.027344 13.414062 14.027344 13.40625 C 14.003906 13.292969 13.988281 13.175781 13.96875 13.027344 C 13.9375 12.777344 13.785156 12.601562 13.605469 12.613281 C 13.089844 12.628906 12.664062 12.050781 12.652344 11.328125 C 12.640625 10.605469 13.050781 10.003906 13.566406 9.988281 L 13.605469 9.988281 C 13.621094 9.992188 13.636719 9.992188 13.648438 9.988281 L 15.152344 9.988281 Z M 17.363281 20.125 C 16.691406 20.125 16.144531 19.359375 16.144531 18.417969 L 16.144531 17.789062 C 16.9375 18.128906 17.789062 18.128906 18.582031 17.785156 L 18.582031 18.417969 C 18.578125 19.328125 18.074219 20.078125 17.425781 20.125 C 17.40625 20.125 17.382812 20.125 17.363281 20.125 Z M 14.574219 17.460938 C 14.335938 17.460938 14.105469 17.515625 13.882812 17.625 C 14.101562 17.203125 14.257812 16.722656 14.335938 16.210938 C 14.65625 16.6875 15.027344 17.082031 15.4375 17.382812 L 15.4375 17.464844 Z M 19.285156 17.375 C 19.695312 17.074219 20.0625 16.679688 20.375 16.207031 C 20.453125 16.714844 20.609375 17.191406 20.824219 17.605469 C 20.421875 17.425781 20.210938 17.460938 19.285156 17.460938 Z M 1.367188 3.296875 L 2.246094 3.695312 C 2.40625 3.765625 2.582031 3.667969 2.660156 3.460938 C 3.199219 2.089844 4.191406 1.191406 5.304688 1.074219 C 5.71875 1.003906 6.132812 0.976562 6.550781 0.992188 C 8.8125 0.992188 10.644531 3.566406 10.648438 6.742188 L 10.648438 8.171875 C 10.339844 8.078125 10.4375 8.117188 5.597656 8.117188 C 4.46875 8.117188 3.5 6.996094 3.28125 5.445312 C 3.253906 5.261719 3.160156 5.113281 3.03125 5.0625 C 2.90625 5.011719 2.769531 5.066406 2.675781 5.199219 C 2.183594 5.941406 1.820312 6.835938 1.617188 7.808594 C 1.421875 6.320312 1.339844 4.808594 1.367188 3.296875 Z M 2.199219 12.566406 C 2.167969 12.328125 2.023438 12.152344 1.851562 12.152344 L 1.835938 12.152344 C 1.820312 12.152344 1.804688 12.152344 1.792969 12.152344 C 1.191406 12.167969 0.699219 11.496094 0.6875 10.65625 C 0.675781 9.8125 1.152344 9.121094 1.753906 9.105469 L 1.757812 9.105469 C 1.785156 9.105469 1.808594 9.105469 1.835938 9.105469 L 1.839844 9.105469 C 2.015625 9.113281 2.167969 8.933594 2.199219 8.691406 C 2.277344 8.027344 2.445312 7.386719 2.691406 6.808594 C 2.726562 6.726562 2.761719 6.644531 2.800781 6.566406 C 3.296875 8.109375 4.390625 9.101562 5.597656 9.105469 L 10.316406 9.105469 C 10.496094 9.117188 10.667969 9.191406 10.820312 9.316406 L 10.828125 9.324219 C 11.242188 9.679688 11.4375 10.378906 11.308594 11.035156 C 11.175781 11.691406 10.75 12.148438 10.265625 12.148438 C 10.25 12.148438 10.234375 12.148438 10.222656 12.148438 C 10.042969 12.140625 9.886719 12.316406 9.859375 12.5625 C 9.542969 15.1875 7.925781 17.109375 6.027344 17.109375 C 4.132812 17.109375 2.511719 15.1875 2.199219 12.5625 Z M 5.964844 19.652344 C 5.273438 19.601562 4.710938 18.851562 4.640625 17.886719 C 4.640625 17.878906 4.640625 17.871094 4.640625 17.863281 C 4.640625 17.84375 4.636719 17.820312 4.636719 17.800781 C 5.546875 18.203125 6.527344 18.203125 7.4375 17.792969 C 7.394531 18.875 6.734375 19.703125 5.964844 19.648438 Z M 9.140625 17.1875 L 8.386719 17.1875 C 9.453125 16.292969 10.214844 14.824219 10.5 13.125 C 11.144531 13.003906 11.695312 12.398438 11.933594 11.542969 C 11.953125 11.800781 12.003906 12.050781 12.082031 12.285156 C 11.1875 12.914062 10.625 14.195312 10.621094 15.597656 L 10.621094 17.988281 C 10.214844 17.472656 9.6875 17.1875 9.140625 17.1875 Z M 11.324219 18.136719 L 11.324219 15.597656 C 11.328125 14.496094 11.800781 13.507812 12.527344 13.085938 C 12.757812 13.347656 13.03125 13.519531 13.324219 13.582031 C 13.40625 14.054688 13.527344 14.511719 13.691406 14.941406 L 13.691406 15.425781 C 13.6875 16.921875 12.824219 18.136719 11.757812 18.140625 L 11.328125 18.140625 Z M 21.613281 24.140625 L 13.121094 24.140625 L 13.121094 20.488281 C 13.125 19.363281 13.773438 18.453125 14.574219 18.453125 L 15.4375 18.453125 C 15.4375 19.941406 16.300781 21.152344 17.363281 21.152344 C 18.425781 21.152344 19.285156 19.941406 19.285156 18.453125 L 20.164062 18.453125 C 20.964844 18.453125 21.613281 19.363281 21.613281 20.488281 Z M 23.386719 18.136719 L 22.953125 18.136719 C 21.886719 18.136719 21.023438 16.921875 21.023438 15.421875 L 21.023438 14.9375 C 21.183594 14.507812 21.304688 14.050781 21.386719 13.578125 C 21.664062 13.523438 21.929688 13.363281 22.152344 13.121094 C 22.164062 13.109375 22.175781 13.097656 22.1875 13.082031 C 22.910156 13.503906 23.382812 14.496094 23.386719 15.59375 Z M 23.386719 18.136719 "/>
<path style=" stroke:none;fill-rule:nonzero;fill:rgb(0%,20%,20%);fill-opacity:1;" d="M 6.027344 15.238281 C 6.71875 15.234375 7.28125 14.449219 7.28125 13.476562 C 7.273438 13.210938 7.117188 13 6.929688 13 C 6.738281 13 6.582031 13.210938 6.574219 13.476562 C 6.574219 13.902344 6.332031 14.246094 6.027344 14.246094 C 5.726562 14.246094 5.480469 13.902344 5.480469 13.476562 C 5.476562 13.210938 5.320312 13 5.128906 13 C 4.9375 13 4.78125 13.210938 4.777344 13.476562 C 4.777344 14.449219 5.335938 15.234375 6.027344 15.238281 Z M 6.027344 15.238281 "/>
<path style=" stroke:none;fill-rule:nonzero;fill:rgb(0%,20%,20%);fill-opacity:1;" d="M 3.960938 10.027344 C 3.765625 10.027344 3.609375 10.25 3.609375 10.523438 L 3.609375 11.617188 C 3.601562 11.800781 3.667969 11.96875 3.78125 12.0625 C 3.890625 12.152344 4.03125 12.152344 4.140625 12.0625 C 4.25 11.96875 4.316406 11.800781 4.3125 11.617188 L 4.3125 10.523438 C 4.3125 10.25 4.15625 10.027344 3.960938 10.027344 Z M 3.960938 10.027344 "/>
<path style=" stroke:none;fill-rule:nonzero;fill:rgb(0%,20%,20%);fill-opacity:1;" d="M 8.097656 12.113281 C 8.292969 12.113281 8.449219 11.890625 8.449219 11.617188 L 8.449219 10.519531 C 8.445312 10.253906 8.289062 10.039062 8.097656 10.039062 C 7.90625 10.039062 7.75 10.253906 7.746094 10.519531 L 7.746094 11.617188 C 7.746094 11.890625 7.902344 12.109375 8.097656 12.113281 Z M 8.097656 12.113281 "/>
</g>
</svg>
