<?xml version="1.0" encoding="UTF-8"?>
<svg xmlns="http://www.w3.org/2000/svg" xmlns:xlink="http://www.w3.org/1999/xlink" width="24px" height="25px" viewBox="0 0 24 22" version="1.1">
<g id="surface1">
<path style=" stroke:none;fill-rule:nonzero;fill:rgb(0%,0%,0%);fill-opacity:1;" d="M 3.710938 15.304688 C 2.207031 15.304688 0.988281 16.480469 0.988281 17.933594 C 0.988281 19.386719 2.207031 20.566406 3.710938 20.566406 C 5.214844 20.566406 6.433594 19.386719 6.433594 17.933594 C 6.429688 16.484375 5.214844 15.304688 3.710938 15.304688 Z M 5.910156 17.605469 L 5.335938 18.070312 L 5.117188 17.226562 C 5.085938 17.117188 4.980469 17.039062 4.859375 17.046875 L 3.960938 17.105469 L 4.296875 16.296875 C 4.335938 16.199219 4.308594 16.089844 4.222656 16.023438 L 3.929688 15.792969 C 4.9375 15.890625 5.753906 16.636719 5.910156 17.605469 Z M 3.710938 20.085938 C 2.582031 20.082031 1.636719 19.265625 1.507812 18.183594 C 1.378906 17.097656 2.105469 16.09375 3.203125 15.839844 L 3.769531 16.285156 L 3.355469 17.28125 C 3.324219 17.359375 3.332031 17.445312 3.382812 17.511719 C 3.433594 17.578125 3.515625 17.613281 3.601562 17.609375 L 4.6875 17.539062 L 4.953125 18.558594 C 4.972656 18.640625 5.035156 18.703125 5.113281 18.730469 C 5.195312 18.753906 5.285156 18.738281 5.351562 18.683594 L 5.914062 18.226562 C 5.761719 19.292969 4.824219 20.085938 3.710938 20.085938 Z M 3.710938 20.085938 "/>
<path style=" stroke:none;fill-rule:nonzero;fill:rgb(0%,0%,0%);fill-opacity:1;" d="M 23.011719 8.539062 C 23.011719 7.085938 21.792969 5.90625 20.289062 5.90625 C 18.785156 5.90625 17.566406 7.085938 17.566406 8.539062 C 17.566406 9.992188 18.785156 11.167969 20.289062 11.167969 C 21.792969 11.167969 23.007812 9.992188 23.011719 8.539062 Z M 18.0625 8.539062 C 18.0625 8.40625 18.074219 8.269531 18.101562 8.140625 L 18.140625 8.289062 C 18.171875 8.402344 18.277344 8.476562 18.398438 8.46875 L 19.296875 8.410156 L 18.960938 9.21875 C 18.917969 9.328125 18.957031 9.449219 19.058594 9.511719 L 19.824219 9.972656 L 19.148438 10.382812 C 18.476562 9.996094 18.0625 9.292969 18.0625 8.539062 Z M 20.289062 10.691406 C 20.089844 10.691406 19.890625 10.664062 19.699219 10.613281 L 20.421875 10.175781 C 20.492188 10.132812 20.539062 10.054688 20.539062 9.972656 C 20.539062 9.890625 20.492188 9.8125 20.421875 9.769531 L 19.496094 9.210938 L 19.902344 8.234375 C 19.933594 8.160156 19.925781 8.070312 19.875 8.003906 C 19.824219 7.9375 19.742188 7.902344 19.65625 7.90625 L 18.570312 7.980469 L 18.414062 7.378906 C 18.992188 6.507812 20.125 6.15625 21.117188 6.539062 C 22.109375 6.921875 22.679688 7.933594 22.476562 8.945312 C 22.273438 9.960938 21.355469 10.691406 20.289062 10.691406 Z M 20.289062 10.691406 "/>
<path style=" stroke:none;fill-rule:nonzero;fill:rgb(0%,0%,0%);fill-opacity:1;" d="M 24 9.035156 C 23.988281 7.382812 23.21875 5.820312 21.898438 4.773438 C 20.496094 3.636719 18.707031 3.058594 16.882812 3.148438 C 14.160156 3.257812 11.78125 4.847656 10.84375 6.996094 L 9.792969 6.234375 C 9.667969 6.144531 9.507812 6.117188 9.363281 6.160156 C 9.21875 6.199219 9.105469 6.304688 9.0625 6.441406 L 8.578125 8.117188 L 8.152344 8.09375 L 8.152344 4.484375 L 9.359375 5.535156 C 9.636719 5.769531 9.992188 5.898438 10.359375 5.894531 C 11.140625 5.894531 11.773438 5.34375 11.773438 4.667969 C 11.769531 4.332031 11.617188 4.019531 11.359375 3.800781 L 7.113281 0.117188 C 6.929688 -0.0390625 6.65625 -0.0390625 6.472656 0.117188 L 2.226562 3.800781 C 1.964844 4.019531 1.816406 4.335938 1.8125 4.667969 C 1.8125 5.34375 2.445312 5.894531 3.226562 5.894531 C 3.59375 5.898438 3.949219 5.769531 4.222656 5.535156 L 5.433594 4.484375 L 5.433594 9.554688 C 2.308594 10.105469 0 12.527344 0 15.320312 C 0 18.570312 3.046875 21.214844 6.792969 21.214844 C 10.410156 21.214844 13.367188 18.746094 13.566406 15.652344 L 14.238281 16.042969 C 14.382812 16.121094 14.554688 16.128906 14.703125 16.0625 C 14.847656 16 14.941406 15.863281 14.941406 15.714844 L 14.941406 14.578125 C 15.238281 14.671875 15.542969 14.75 15.847656 14.804688 L 15.847656 17.679688 L 14.945312 17.679688 C 14.476562 17.628906 14.023438 17.84375 13.773438 18.226562 C 13.523438 18.613281 13.523438 19.101562 13.773438 19.484375 C 14.023438 19.871094 14.476562 20.085938 14.945312 20.035156 L 15.851562 20.035156 L 15.851562 20.820312 C 15.925781 21.492188 16.511719 22 17.207031 22 C 17.90625 22 18.492188 21.492188 18.566406 20.820312 L 18.566406 20.035156 L 19.472656 20.035156 C 19.9375 20.085938 20.394531 19.871094 20.644531 19.484375 C 20.890625 19.101562 20.890625 18.613281 20.644531 18.226562 C 20.394531 17.84375 19.9375 17.628906 19.472656 17.679688 L 18.566406 17.679688 L 18.566406 14.804688 C 21.691406 14.25 24 11.828125 24 9.035156 Z M 8.894531 8.925781 C 8.90625 8.925781 8.914062 8.925781 8.925781 8.925781 C 9.125 8.929688 9.304688 8.808594 9.363281 8.625 L 9.765625 7.238281 L 10.566406 7.824219 C 10.503906 8.066406 10.460938 8.316406 10.4375 8.566406 C 10.378906 9.210938 10.449219 9.859375 10.632812 10.480469 C 9.875 10.023438 9.03125 9.710938 8.152344 9.554688 L 8.152344 8.878906 Z M 6.792969 20.429688 C 3.546875 20.429688 0.90625 18.136719 0.90625 15.320312 C 0.90625 12.800781 3.074219 10.628906 5.949219 10.273438 C 6.164062 10.257812 6.328125 10.089844 6.339844 9.882812 L 6.339844 3.535156 C 6.332031 3.371094 6.222656 3.226562 6.058594 3.171875 C 6.003906 3.152344 5.945312 3.144531 5.886719 3.144531 C 5.769531 3.140625 5.65625 3.183594 5.566406 3.257812 L 3.585938 4.976562 C 3.484375 5.0625 3.355469 5.109375 3.226562 5.105469 C 2.960938 5.121094 2.734375 4.921875 2.71875 4.667969 C 2.71875 4.546875 2.773438 4.433594 2.867188 4.355469 L 6.792969 0.949219 L 10.71875 4.355469 C 10.8125 4.433594 10.867188 4.546875 10.867188 4.667969 C 10.851562 4.921875 10.625 5.121094 10.359375 5.105469 C 10.226562 5.109375 10.101562 5.0625 10 4.976562 L 8.019531 3.257812 C 7.882812 3.144531 7.691406 3.109375 7.523438 3.171875 C 7.363281 3.226562 7.25 3.371094 7.246094 3.535156 L 7.246094 9.882812 C 7.253906 10.089844 7.421875 10.257812 7.632812 10.273438 C 10.511719 10.632812 12.679688 12.800781 12.679688 15.320312 C 12.679688 18.136719 10.039062 20.429688 6.792969 20.429688 Z M 14.039062 14.980469 L 13.542969 14.695312 C 13.507812 14.421875 13.449219 14.148438 13.375 13.886719 C 13.589844 14.015625 13.808594 14.132812 14.039062 14.238281 Z M 18.113281 18.464844 L 19.472656 18.464844 C 19.628906 18.449219 19.777344 18.519531 19.863281 18.648438 C 19.945312 18.777344 19.945312 18.9375 19.863281 19.066406 C 19.777344 19.195312 19.628906 19.265625 19.472656 19.25 L 18.113281 19.25 C 17.875 19.238281 17.675781 19.414062 17.660156 19.644531 L 17.660156 20.820312 C 17.636719 21.042969 17.441406 21.214844 17.207031 21.214844 C 16.976562 21.214844 16.78125 21.042969 16.753906 20.820312 L 16.753906 19.644531 C 16.742188 19.414062 16.539062 19.238281 16.300781 19.25 L 14.945312 19.25 C 14.789062 19.265625 14.636719 19.195312 14.554688 19.066406 C 14.472656 18.9375 14.472656 18.777344 14.554688 18.648438 C 14.636719 18.519531 14.789062 18.449219 14.945312 18.464844 L 16.304688 18.464844 C 16.539062 18.476562 16.742188 18.300781 16.753906 18.070312 L 16.753906 14.472656 C 16.746094 14.269531 16.578125 14.101562 16.367188 14.085938 C 13.308594 13.703125 11.097656 11.308594 11.339844 8.628906 C 11.5625 6.113281 14.015625 4.050781 16.925781 3.933594 C 18.503906 3.851562 20.058594 4.355469 21.269531 5.339844 C 22.414062 6.25 23.082031 7.605469 23.09375 9.035156 C 23.09375 11.554688 20.925781 13.726562 18.050781 14.085938 C 17.835938 14.101562 17.671875 14.265625 17.660156 14.472656 L 17.660156 18.070312 C 17.675781 18.300781 17.875 18.476562 18.113281 18.464844 Z M 18.113281 18.464844 "/>
</g>
</svg>
