<?xml version="1.0" encoding="UTF-8"?>
<svg xmlns="http://www.w3.org/2000/svg" xmlns:xlink="http://www.w3.org/1999/xlink" width="24px" height="25px" viewBox="0 0 24 22" version="1.1">
<g id="surface1">
<path style=" stroke:none;fill-rule:nonzero;fill:rgb(0%,0%,0%);fill-opacity:1;" d="M 7.660156 7.34375 C 7.539062 7.34375 7.4375 7.441406 7.4375 7.5625 L 7.4375 7.792969 C 7.4375 7.914062 7.539062 8.011719 7.660156 8.011719 C 7.785156 8.011719 7.886719 7.914062 7.886719 7.792969 L 7.886719 7.5625 C 7.886719 7.441406 7.785156 7.34375 7.660156 7.34375 Z M 7.660156 7.34375 "/>
<path style=" stroke:none;fill-rule:nonzero;fill:rgb(0%,0%,0%);fill-opacity:1;" d="M 7.835938 6.261719 L 7.355469 6.261719 C 7.230469 6.261719 7.132812 6.359375 7.132812 6.476562 C 7.132812 6.597656 7.230469 6.695312 7.355469 6.695312 L 7.835938 6.695312 C 7.960938 6.695312 8.0625 6.597656 8.0625 6.476562 C 8.0625 6.359375 7.960938 6.261719 7.835938 6.261719 Z M 7.835938 6.261719 "/>
<path style=" stroke:none;fill-rule:nonzero;fill:rgb(0%,0%,0%);fill-opacity:1;" d="M 14.222656 9.476562 C 14.347656 9.476562 14.449219 9.378906 14.449219 9.257812 C 14.449219 9.136719 14.347656 9.042969 14.222656 9.042969 C 14.097656 9.042969 13.996094 9.136719 13.996094 9.257812 C 13.996094 9.378906 14.097656 9.476562 14.222656 9.476562 Z M 14.222656 9.476562 "/>
<path style=" stroke:none;fill-rule:nonzero;fill:rgb(0%,0%,0%);fill-opacity:1;" d="M 12.28125 9.824219 C 12.28125 9.945312 12.378906 10.042969 12.503906 10.042969 L 12.507812 10.042969 C 12.628906 10.042969 12.730469 9.945312 12.730469 9.824219 C 12.726562 9.703125 12.628906 9.609375 12.503906 9.609375 C 12.378906 9.609375 12.28125 9.707031 12.28125 9.824219 Z M 12.28125 9.824219 "/>
<path style=" stroke:none;fill-rule:nonzero;fill:rgb(0%,0%,0%);fill-opacity:1;" d="M 13.648438 10.609375 C 13.527344 10.609375 13.425781 10.707031 13.425781 10.824219 C 13.425781 10.945312 13.527344 11.042969 13.648438 11.042969 L 13.652344 11.042969 C 13.777344 11.042969 13.875 10.945312 13.875 10.824219 C 13.875 10.703125 13.773438 10.609375 13.648438 10.609375 Z M 13.648438 10.609375 "/>
<path style=" stroke:none;fill-rule:nonzero;fill:rgb(0%,0%,0%);fill-opacity:1;" d="M 23.5 14.824219 L 19.617188 12.46875 C 19.441406 12.367188 19.234375 12.324219 19.027344 12.355469 C 18.828125 12.378906 18.644531 12.476562 18.515625 12.625 L 18.5 12.640625 L 17.589844 12.089844 C 18.046875 11.46875 18.289062 10.730469 18.292969 9.96875 C 18.261719 8.617188 17.519531 7.371094 16.324219 6.667969 L 16.625 4.140625 C 16.722656 3.28125 16.472656 2.414062 15.933594 1.722656 C 16.144531 1.285156 16.253906 0.804688 16.253906 0.324219 C 16.242188 0.132812 16.070312 -0.0117188 15.875 0 L 8.148438 0 C 6.921875 -0.0117188 5.738281 0.429688 4.84375 1.238281 C 4.015625 1.980469 3.597656 3.054688 3.710938 4.140625 L 4.039062 6.910156 C 3.417969 7.007812 2.921875 7.429688 2.859375 7.953125 C 2.824219 8.292969 2.957031 8.632812 3.214844 8.867188 C 3.496094 9.121094 3.871094 9.261719 4.253906 9.257812 L 4.539062 9.257812 C 4.800781 10.636719 5.675781 11.832031 6.929688 12.53125 L 6.929688 14.015625 C 6.914062 14.347656 6.664062 14.628906 6.324219 14.695312 L 2.03125 15.765625 C 0.835938 16.0625 0 17.003906 0 18.058594 L 0 21.675781 C 0.0273438 21.863281 0.191406 22 0.382812 22 C 0.574219 22 0.738281 21.863281 0.761719 21.675781 L 0.761719 18.058594 C 0.804688 17.238281 1.414062 16.550781 2.246094 16.382812 L 3.105469 16.171875 C 3.875 17.039062 4.855469 17.714844 5.957031 18.132812 C 7.292969 18.648438 8.722656 18.910156 10.164062 18.898438 C 13.121094 18.898438 15.800781 17.859375 17.226562 16.171875 L 18.085938 16.382812 C 18.917969 16.550781 19.527344 17.238281 19.570312 18.058594 L 19.570312 21.679688 C 19.59375 21.863281 19.757812 22 19.949219 22 C 20.140625 22 20.304688 21.863281 20.332031 21.679688 L 20.332031 18.058594 C 20.332031 17.003906 19.496094 16.0625 18.300781 15.765625 L 14.003906 14.699219 C 13.691406 14.632812 13.453125 14.386719 13.40625 14.078125 L 13.425781 14.078125 C 14.820312 14.09375 16.164062 13.566406 17.148438 12.613281 L 18.054688 13.164062 L 18.039062 13.179688 C 17.917969 13.320312 17.867188 13.5 17.902344 13.679688 C 17.941406 13.859375 18.058594 14.015625 18.222656 14.113281 L 22.105469 16.46875 C 22.316406 16.59375 22.554688 16.65625 22.800781 16.65625 C 23.175781 16.664062 23.53125 16.507812 23.777344 16.234375 C 23.960938 16.023438 24.035156 15.742188 23.980469 15.46875 C 23.929688 15.195312 23.753906 14.960938 23.5 14.824219 Z M 5.40625 1.671875 C 6.152344 1.003906 7.132812 0.636719 8.148438 0.644531 L 15.472656 0.644531 C 15.28125 2.214844 13.707031 3.445312 11.796875 3.445312 L 7.3125 3.445312 C 6.203125 3.445312 5.300781 4.207031 5.300781 5.144531 L 5.300781 6.519531 C 5.285156 6.738281 5.089844 6.902344 4.867188 6.886719 L 4.804688 6.886719 L 4.46875 4.078125 C 4.375 3.179688 4.722656 2.289062 5.40625 1.671875 Z M 5.246094 8.589844 C 5.222656 8.40625 5.058594 8.265625 4.867188 8.265625 C 4.671875 8.265625 4.511719 8.40625 4.484375 8.589844 L 4.484375 8.609375 L 4.253906 8.609375 C 4.078125 8.613281 3.910156 8.550781 3.78125 8.433594 C 3.660156 8.328125 3.601562 8.171875 3.621094 8.015625 C 3.695312 7.710938 3.992188 7.507812 4.3125 7.535156 L 4.867188 7.535156 C 5.527344 7.535156 6.0625 7.078125 6.0625 6.523438 L 6.0625 5.144531 C 6.0625 4.5625 6.621094 4.089844 7.3125 4.089844 L 11.796875 4.089844 C 13.238281 4.113281 14.613281 3.488281 15.511719 2.398438 C 15.8125 2.910156 15.9375 3.496094 15.867188 4.078125 L 15.605469 6.289062 C 15.417969 6.210938 15.230469 6.144531 15.035156 6.085938 L 15.035156 5.144531 C 15.035156 4.945312 14.996094 4.75 14.917969 4.566406 C 14.828125 4.390625 14.617188 4.308594 14.429688 4.371094 C 14.339844 4.390625 14.261719 4.449219 14.21875 4.527344 C 14.175781 4.605469 14.167969 4.699219 14.199219 4.785156 C 14.25 4.898438 14.273438 5.019531 14.273438 5.144531 L 14.273438 5.917969 C 13.992188 5.875 13.710938 5.855469 13.425781 5.855469 C 10.742188 5.855469 8.5625 7.699219 8.5625 9.964844 C 8.574219 11.019531 9.03125 12.019531 9.832031 12.734375 C 7.273438 12.589844 5.246094 10.785156 5.246094 8.589844 Z M 13.789062 15.316406 L 14.683594 15.539062 C 14.253906 15.863281 13.777344 16.128906 13.265625 16.324219 C 13.179688 16.351562 13.109375 16.414062 13.074219 16.496094 C 13.035156 16.578125 13.039062 16.671875 13.082031 16.753906 C 13.152344 16.871094 13.285156 16.941406 13.425781 16.9375 C 13.480469 16.9375 13.535156 16.929688 13.585938 16.910156 C 14.300781 16.640625 14.953125 16.246094 15.515625 15.746094 L 16.445312 15.976562 C 15.125 17.390625 12.765625 18.253906 10.164062 18.253906 C 7.570312 18.253906 5.207031 17.390625 3.886719 15.976562 L 4.8125 15.746094 C 6.023438 16.859375 8.007812 17.523438 10.164062 17.523438 C 10.738281 17.523438 11.308594 17.472656 11.871094 17.378906 C 11.964844 17.371094 12.050781 17.324219 12.105469 17.25 C 12.164062 17.179688 12.183594 17.085938 12.167969 17 C 12.109375 16.8125 11.914062 16.703125 11.71875 16.746094 C 11.207031 16.832031 10.6875 16.878906 10.164062 16.875 C 8.375 16.875 6.730469 16.382812 5.644531 15.539062 L 6.542969 15.316406 C 7.1875 15.183594 7.660156 14.648438 7.691406 14.015625 L 7.691406 12.910156 C 8.476562 13.226562 9.316406 13.390625 10.164062 13.386719 C 10.3125 13.386719 10.457031 13.382812 10.601562 13.375 C 10.628906 13.371094 10.65625 13.367188 10.683594 13.359375 C 11.285156 13.703125 11.949219 13.929688 12.636719 14.023438 C 12.675781 14.65625 13.148438 15.1875 13.789062 15.316406 Z M 13.425781 13.433594 C 11.164062 13.433594 9.324219 11.878906 9.324219 9.964844 C 9.324219 8.054688 11.164062 6.5 13.425781 6.5 C 15.691406 6.5 17.53125 8.054688 17.53125 9.964844 C 17.53125 11.878906 15.691406 13.433594 13.425781 13.433594 Z M 18.65625 13.574219 C 18.65625 13.570312 18.65625 13.5625 18.660156 13.558594 L 19.136719 13 C 19.140625 12.996094 19.144531 12.992188 19.152344 12.992188 L 19.15625 12.992188 C 19.164062 12.992188 19.167969 12.992188 19.171875 12.996094 L 19.9375 13.457031 L 19.429688 14.054688 L 18.667969 13.589844 C 18.660156 13.585938 18.65625 13.582031 18.65625 13.574219 Z M 23.15625 15.859375 C 23.003906 16.027344 22.746094 16.0625 22.550781 15.945312 L 20.050781 14.429688 L 20.554688 13.832031 L 23.058594 15.351562 C 23.148438 15.398438 23.210938 15.484375 23.230469 15.582031 C 23.25 15.683594 23.222656 15.785156 23.15625 15.859375 Z M 23.15625 15.859375 "/>
<path style=" stroke:none;fill-rule:nonzero;fill:rgb(0%,0%,0%);fill-opacity:1;" d="M 15.320312 8.980469 C 15.261719 8.875 15.125 8.832031 15.015625 8.890625 C 14.90625 8.949219 14.863281 9.078125 14.925781 9.1875 C 15.269531 9.800781 15.09375 10.566406 14.511719 10.984375 C 13.933594 11.398438 13.125 11.34375 12.613281 10.847656 C 12.101562 10.355469 12.042969 9.574219 12.476562 9.015625 C 12.90625 8.453125 13.699219 8.285156 14.335938 8.617188 C 14.445312 8.671875 14.582031 8.632812 14.640625 8.527344 C 14.699219 8.421875 14.660156 8.292969 14.550781 8.234375 C 13.71875 7.800781 12.679688 8.019531 12.117188 8.753906 C 11.550781 9.484375 11.628906 10.507812 12.296875 11.15625 C 12.964844 11.800781 14.023438 11.875 14.78125 11.328125 C 15.539062 10.785156 15.769531 9.78125 15.320312 8.976562 Z M 15.320312 8.980469 "/>
</g>
</svg>
