<?xml version="1.0" encoding="UTF-8"?>
<svg xmlns="http://www.w3.org/2000/svg" xmlns:xlink="http://www.w3.org/1999/xlink" width="23px" height="25px" viewBox="0 0 23 25" version="1.1">
<g id="surface1">
<path style=" stroke:none;fill-rule:nonzero;fill:rgb(0%,0%,0%);fill-opacity:1;" d="M 13.472656 0.441406 C 12.8125 0.800781 12.730469 1.480469 12.730469 5.769531 C 12.730469 10.136719 12.8125 10.777344 13.554688 11.539062 C 14.003906 12.019531 14.867188 12.539062 15.402344 12.660156 C 16.140625 12.820312 16.429688 13.179688 16.429688 13.863281 C 16.429688 14.785156 16.304688 14.824219 13.757812 14.824219 L 11.089844 14.824219 L 11.089844 13.5 C 11.046875 11.9375 10.269531 10.816406 9.160156 10.816406 C 8.582031 10.816406 8.214844 11.257812 7.84375 12.417969 C 7.597656 13.300781 7.023438 14.183594 6.570312 14.421875 C 5.542969 14.945312 3.695312 14.945312 3.695312 14.382812 C 3.695312 14.144531 3 14.023438 1.972656 14.101562 L 0.207031 14.222656 L 0.0820312 16.304688 C 0 17.589844 0.125 18.429688 0.371094 18.429688 C 0.617188 18.429688 0.820312 17.628906 0.820312 16.625 C 0.820312 14.902344 0.863281 14.824219 2.054688 14.824219 L 3.285156 14.824219 L 3.285156 23.238281 L 2.054688 23.238281 C 0.863281 23.238281 0.820312 23.15625 0.820312 21.433594 C 0.820312 20.433594 0.65625 19.632812 0.410156 19.632812 C 0.207031 19.632812 0 20.632812 0 21.835938 L 0 24.039062 L 1.644531 24.039062 C 2.546875 24.039062 3.65625 23.839844 4.066406 23.558594 C 4.683594 23.195312 5.09375 23.277344 6.242188 23.957031 C 7.476562 24.71875 8.296875 24.839844 11.582031 24.839844 C 14.25 24.839844 15.648438 24.679688 15.9375 24.320312 C 16.183594 24.039062 16.511719 22.875 16.675781 21.714844 C 16.839844 20.554688 17.125 19.511719 17.292969 19.390625 C 17.496094 19.269531 17.660156 18.832031 17.660156 18.429688 C 17.660156 17.867188 17.988281 17.628906 19.015625 17.546875 C 20.660156 17.386719 21.070312 15.984375 19.753906 15.144531 C 18.398438 14.304688 18.644531 13.0625 20.332031 12.460938 C 22.464844 11.699219 23 10.375 23 5.609375 C 23 0.28125 22.753906 0 17.785156 0 C 15.769531 0 13.839844 0.199219 13.472656 0.441406 Z M 21.933594 1.441406 C 22.054688 1.804688 22.179688 3.886719 22.179688 6.128906 C 22.179688 9.734375 22.097656 10.257812 21.273438 11.097656 C 20.167969 12.257812 18.894531 12.300781 18.894531 11.21875 C 18.894531 10.578125 18.605469 10.417969 17.660156 10.417969 C 16.714844 10.417969 16.429688 10.578125 16.429688 11.21875 C 16.429688 12.378906 15.03125 12.21875 14.003906 10.976562 C 13.265625 10.054688 13.144531 9.335938 13.144531 5.847656 C 13.144531 3.207031 13.308594 1.601562 13.636719 1.28125 C 13.964844 0.960938 15.523438 0.800781 17.90625 0.800781 C 20.988281 0.800781 21.726562 0.921875 21.933594 1.441406 Z M 10.472656 14.304688 L 10.226562 15.625 L 13.636719 15.707031 C 15.523438 15.746094 17.660156 15.746094 18.398438 15.707031 C 19.507812 15.664062 19.753906 15.785156 19.632812 16.347656 C 19.507812 16.90625 18.851562 17.066406 14.992188 17.226562 L 10.472656 17.429688 L 10.390625 19.832031 C 10.351562 21.152344 10.308594 22.636719 10.308594 23.117188 C 10.269531 23.878906 10.019531 24.039062 8.914062 24.039062 C 8.171875 24.039062 7.1875 23.796875 6.734375 23.476562 C 6.285156 23.15625 5.460938 22.835938 4.929688 22.757812 C 3.941406 22.636719 3.902344 22.515625 3.777344 19.152344 L 3.65625 15.707031 L 5.339844 15.425781 C 7.0625 15.144531 8.625 13.703125 8.625 12.417969 C 8.625 11.257812 9.199219 11.136719 9.980469 12.058594 C 10.515625 12.742188 10.679688 13.339844 10.472656 14.304688 Z M 18.398438 13.300781 C 18.316406 14.863281 18.113281 15.425781 17.660156 15.425781 C 17.207031 15.425781 17.003906 14.863281 16.921875 13.300781 C 16.796875 11.417969 16.878906 11.21875 17.660156 11.21875 C 18.441406 11.21875 18.523438 11.417969 18.398438 13.300781 Z M 16.386719 17.988281 C 16.714844 18.1875 16.839844 18.628906 16.714844 18.992188 C 16.511719 19.472656 15.894531 19.632812 14.085938 19.632812 C 11.210938 19.632812 10.269531 19.191406 11.046875 18.269531 C 11.664062 17.546875 15.402344 17.386719 16.386719 17.988281 Z M 16.222656 20.832031 C 16.222656 21.273438 15.605469 21.472656 13.800781 21.554688 C 11.375 21.675781 10.351562 21.273438 10.882812 20.433594 C 11.335938 19.710938 16.222656 20.070312 16.222656 20.832031 Z M 15.523438 23.355469 C 15.648438 23.917969 15.320312 24.039062 13.390625 24.039062 C 12.15625 24.039062 11.007812 23.839844 10.882812 23.636719 C 10.351562 22.796875 11.210938 22.394531 13.265625 22.515625 C 14.910156 22.597656 15.441406 22.796875 15.523438 23.355469 Z M 15.523438 23.355469 "/>
<path style=" stroke:none;fill-rule:nonzero;fill:rgb(0%,0%,0%);fill-opacity:1;" d="M 14.539062 2.5625 C 14.417969 2.882812 14.375 3.644531 14.457031 4.285156 C 14.539062 5.25 14.785156 5.410156 15.9375 5.527344 C 16.675781 5.609375 17.25 5.488281 17.25 5.25 C 17.25 5.007812 16.796875 4.808594 16.222656 4.808594 C 15.359375 4.808594 15.195312 4.605469 15.195312 3.605469 L 15.195312 2.402344 L 20.125 2.402344 L 20.125 3.605469 C 20.125 4.527344 19.960938 4.808594 19.304688 4.808594 C 18.851562 4.808594 18.480469 5.007812 18.480469 5.25 C 18.480469 5.488281 18.976562 5.609375 19.632812 5.527344 C 20.617188 5.410156 20.742188 5.25 20.863281 3.6875 L 20.988281 2.003906 L 17.867188 2.003906 C 15.566406 2.003906 14.703125 2.164062 14.539062 2.5625 Z M 14.539062 2.5625 "/>
<path style=" stroke:none;fill-rule:nonzero;fill:rgb(0%,0%,0%);fill-opacity:1;" d="M 14.621094 7.851562 C 14.332031 8.613281 15.03125 9.617188 15.8125 9.617188 C 16.59375 9.617188 17.292969 8.613281 17.003906 7.851562 C 16.878906 7.492188 16.347656 7.210938 15.8125 7.210938 C 15.277344 7.210938 14.746094 7.492188 14.621094 7.851562 Z M 16.429688 8.453125 C 16.429688 8.652344 16.140625 8.8125 15.8125 8.8125 C 15.195312 8.8125 14.992188 8.332031 15.441406 7.894531 C 15.769531 7.570312 16.429688 7.933594 16.429688 8.453125 Z M 16.429688 8.453125 "/>
<path style=" stroke:none;fill-rule:nonzero;fill:rgb(0%,0%,0%);fill-opacity:1;" d="M 18.480469 8.214844 C 18.480469 9.457031 19.550781 9.9375 20.414062 9.09375 C 21.273438 8.253906 20.78125 7.210938 19.507812 7.210938 C 18.6875 7.210938 18.480469 7.410156 18.480469 8.214844 Z M 20.125 8.214844 C 20.125 8.535156 19.835938 8.8125 19.507812 8.8125 C 18.851562 8.8125 18.6875 8.332031 19.179688 7.894531 C 19.632812 7.410156 20.125 7.570312 20.125 8.214844 Z M 20.125 8.214844 "/>
</g>
</svg>
