<?xml version="1.0" encoding="UTF-8"?>
<svg xmlns="http://www.w3.org/2000/svg" xmlns:xlink="http://www.w3.org/1999/xlink" width="24px" height="px" viewBox="0 0 24 24" version="1.1">
<g id="surface1">
<path style=" stroke:none;fill-rule:nonzero;fill:rgb(0%,0%,0%);fill-opacity:1;" d="M 2.855469 0.484375 C 2.449219 1.222656 2.734375 3.390625 3.335938 4.015625 C 3.742188 4.453125 3.769531 4.570312 3.480469 5.078125 C 3.265625 5.421875 3.144531 6.347656 3.121094 7.429688 C 3.121094 8.976562 3.023438 9.371094 2.398438 10.382812 C 1.511719 11.839844 1.464844 12.601562 2.28125 12.96875 C 2.855469 13.222656 2.878906 13.316406 2.878906 15.414062 C 2.878906 17.054688 2.976562 17.746094 3.289062 18.253906 C 3.792969 19.085938 4.945312 19.617188 6.214844 19.617188 L 7.199219 19.617188 L 7.199219 21.808594 C 7.199219 23.839844 7.222656 24 7.679688 24 C 8.136719 24 8.160156 23.839844 8.160156 21.347656 L 8.160156 18.691406 L 6.695312 18.691406 C 5.398438 18.691406 5.160156 18.625 4.535156 18.023438 C 3.863281 17.355469 3.839844 17.285156 3.839844 14.929688 C 3.839844 12.601562 3.816406 12.53125 3.238281 12.277344 L 2.640625 12 L 3.359375 10.777344 C 3.984375 9.714844 4.078125 9.300781 4.078125 7.824219 C 4.078125 5.539062 4.609375 4.617188 5.929688 4.617188 C 7.679688 4.617188 9.601562 6.136719 9.601562 7.523438 C 9.601562 7.914062 9.742188 8.078125 10.078125 8.078125 C 10.753906 8.078125 10.726562 7.039062 10.007812 5.769531 C 9.289062 4.429688 7.847656 3.691406 6.070312 3.691406 C 4.175781 3.691406 3.839844 3.460938 3.839844 2.078125 L 3.839844 0.921875 L 8.761719 0.921875 C 14.089844 0.921875 15.121094 1.109375 17.160156 2.421875 C 18.265625 3.160156 18.769531 3.160156 18.671875 2.46875 C 18.625 2.101562 18.121094 1.730469 16.703125 1.039062 L 14.832031 0.117188 L 8.976562 0.046875 C 3.167969 -0.0234375 3.144531 -0.0234375 2.855469 0.484375 Z M 2.855469 0.484375 "/>
<path style=" stroke:none;fill-rule:nonzero;fill:rgb(0%,0%,0%);fill-opacity:1;" d="M 18.960938 3.507812 C 18.960938 3.667969 19.296875 4.269531 19.679688 4.800781 C 20.832031 6.4375 21.359375 8.101562 21.359375 10.039062 L 21.359375 11.769531 L 20.257812 11.769531 C 19.34375 11.769531 19.175781 11.839844 19.246094 12.160156 C 19.296875 12.4375 19.585938 12.601562 20.113281 12.644531 C 21.046875 12.738281 21.070312 12.945312 20.183594 14.421875 C 19.511719 15.554688 16.585938 18.460938 16.128906 18.460938 C 16.007812 18.460938 15.335938 17.839844 14.640625 17.078125 L 13.390625 15.667969 L 14.496094 14.539062 C 15.238281 13.777344 15.601562 13.199219 15.601562 12.785156 C 15.601562 12.183594 15.601562 12.183594 17.015625 12.347656 C 18 12.460938 18.480469 12.414062 18.601562 12.230469 C 18.886719 11.792969 18.382812 11.515625 16.945312 11.375 C 16.054688 11.285156 15.480469 11.101562 15.289062 10.847656 C 14.160156 9.300781 11.519531 9.945312 11.519531 11.769531 C 11.519531 12.347656 11.136719 12.921875 10.753906 12.921875 C 10.65625 12.921875 10.558594 11.976562 10.558594 10.847656 C 10.558594 8.90625 10.535156 8.769531 10.078125 8.769531 C 9.601562 8.769531 9.574219 8.882812 9.648438 11.355469 L 9.71875 13.960938 L 10.367188 14.03125 C 11.351562 14.144531 12.480469 13.246094 12.480469 12.347656 C 12.480469 11.628906 13.078125 10.847656 13.609375 10.847656 C 14.0625 10.847656 14.640625 11.699219 14.640625 12.371094 C 14.640625 12.875 14.351562 13.316406 13.558594 14.078125 C 12.097656 15.460938 12.144531 15.875 13.921875 17.792969 L 15.359375 19.339844 L 15.359375 21.667969 C 15.359375 23.839844 15.382812 24 15.839844 24 C 16.296875 24 16.320312 23.839844 16.320312 21.714844 C 16.320312 19.683594 16.367188 19.40625 16.753906 19.292969 C 17.734375 18.992188 20.566406 16.015625 21.382812 14.421875 C 22.078125 13.039062 22.199219 12.578125 22.273438 10.617188 C 22.390625 8.007812 22.03125 6.554688 20.832031 4.617188 C 20.304688 3.785156 19.847656 3.324219 19.488281 3.277344 C 19.175781 3.230469 18.960938 3.324219 18.960938 3.507812 Z M 18.960938 3.507812 "/>
<path style=" stroke:none;fill-rule:nonzero;fill:rgb(0%,0%,0%);fill-opacity:1;" d="M 4.753906 14.445312 C 4.222656 14.953125 4.65625 15.160156 6.433594 15.300781 C 10.441406 15.554688 12.238281 17.492188 12.238281 21.554688 C 12.238281 22.960938 12.289062 23.078125 12.742188 23.078125 C 13.246094 23.078125 13.246094 22.984375 13.152344 20.816406 C 13.03125 18.371094 12.71875 17.515625 11.425781 16.199219 C 10.246094 14.976562 9.023438 14.492188 6.839844 14.375 C 5.785156 14.308594 4.847656 14.332031 4.753906 14.445312 Z M 4.753906 14.445312 "/>
<path style=" stroke:none;fill-rule:nonzero;fill:rgb(0%,0%,0%);fill-opacity:1;" d="M 4.726562 16.085938 C 4.246094 16.546875 4.65625 16.800781 6.023438 16.890625 C 7.320312 16.984375 7.609375 17.101562 8.183594 17.722656 C 8.855469 18.4375 8.878906 18.578125 8.878906 20.769531 C 8.878906 22.914062 8.902344 23.078125 9.359375 23.078125 C 9.816406 23.078125 9.839844 22.914062 9.839844 20.585938 C 9.839844 17.746094 9.527344 16.960938 8.089844 16.316406 C 7.273438 15.921875 5.039062 15.785156 4.726562 16.085938 Z M 4.726562 16.085938 "/>
</g>
</svg>
