<?xml version="1.0" encoding="UTF-8"?>
<svg xmlns="http://www.w3.org/2000/svg" xmlns:xlink="http://www.w3.org/1999/xlink" width="24px" height="25px" viewBox="0 0 24 16" version="1.1">
<g id="surface1">
<path style=" stroke:none;fill-rule:nonzero;fill:rgb(0%,20%,20%);fill-opacity:1;" d="M 9.976562 12.128906 L 8.148438 11.542969 C 7.988281 11.492188 7.878906 11.351562 7.875 11.191406 L 10.539062 11.191406 C 10.730469 11.191406 10.890625 11.042969 10.890625 10.855469 L 10.890625 5.417969 C 10.890625 2.824219 8.707031 0.726562 6.011719 0.726562 C 3.316406 0.726562 1.132812 2.824219 1.132812 5.417969 L 1.132812 10.855469 C 1.132812 11.042969 1.289062 11.195312 1.484375 11.195312 L 4.148438 11.195312 C 4.140625 11.355469 4.03125 11.492188 3.875 11.542969 L 2.046875 12.128906 C 0.824219 12.519531 0 13.621094 0 14.859375 L 0 15.566406 C -0.00390625 15.691406 0.0625 15.804688 0.171875 15.867188 C 0.285156 15.933594 0.421875 15.933594 0.53125 15.867188 C 0.644531 15.804688 0.710938 15.691406 0.707031 15.566406 L 0.707031 14.859375 C 0.703125 13.910156 1.335938 13.070312 2.269531 12.773438 L 2.957031 12.550781 C 3.917969 14.019531 5.75 15.089844 5.828125 15.132812 C 5.941406 15.199219 6.082031 15.199219 6.191406 15.132812 C 6.269531 15.089844 8.101562 14.019531 9.0625 12.550781 L 9.753906 12.773438 C 10.6875 13.070312 11.316406 13.914062 11.316406 14.859375 L 11.316406 15.566406 C 11.3125 15.691406 11.378906 15.804688 11.488281 15.871094 C 11.601562 15.933594 11.738281 15.933594 11.847656 15.871094 C 11.960938 15.804688 12.027344 15.691406 12.023438 15.566406 L 12.023438 14.859375 C 12.023438 13.621094 11.199219 12.519531 9.976562 12.128906 Z M 1.835938 5.417969 C 1.835938 3.199219 3.707031 1.40625 6.011719 1.40625 C 8.316406 1.40625 10.183594 3.199219 10.183594 5.417969 L 10.183594 10.515625 L 7.871094 10.515625 L 7.871094 10.289062 C 8.816406 9.691406 9.382812 8.675781 9.382812 7.589844 L 9.382812 6.503906 C 9.382812 6.117188 9.125 5.492188 6.914062 4.519531 C 5.777344 4.019531 4.660156 3.660156 4.613281 3.644531 C 4.496094 3.601562 4.359375 3.628906 4.265625 3.707031 C 4.167969 3.789062 4.125 3.914062 4.152344 4.035156 C 4.179688 4.152344 4.269531 4.25 4.390625 4.289062 C 4.402344 4.292969 5.519531 4.648438 6.621094 5.136719 C 8.652344 6.03125 8.675781 6.484375 8.675781 6.503906 L 8.675781 7.589844 C 8.675781 9.007812 7.484375 10.152344 6.011719 10.152344 C 4.539062 10.152344 3.347656 9.007812 3.347656 7.589844 L 3.347656 6.582031 C 3.347656 6.359375 3.414062 6.144531 3.539062 5.964844 L 4.042969 5.242188 C 4.117188 5.140625 4.128906 5.007812 4.074219 4.898438 C 4.015625 4.785156 3.902344 4.710938 3.773438 4.707031 C 3.644531 4.699219 3.523438 4.761719 3.453125 4.867188 L 2.953125 5.585938 C 2.75 5.882812 2.640625 6.226562 2.640625 6.582031 L 2.640625 7.59375 C 2.640625 8.679688 3.207031 9.691406 4.152344 10.289062 L 4.152344 10.515625 L 1.835938 10.515625 Z M 6.011719 14.441406 C 5.101562 13.878906 4.300781 13.164062 3.648438 12.332031 L 4.097656 12.1875 C 4.550781 12.042969 4.855469 11.636719 4.855469 11.179688 L 4.855469 10.636719 C 5.601562 10.898438 6.421875 10.898438 7.167969 10.636719 L 7.167969 11.179688 C 7.167969 11.636719 7.472656 12.042969 7.925781 12.1875 L 8.371094 12.332031 C 7.71875 13.164062 6.921875 13.878906 6.011719 14.441406 Z M 6.011719 14.441406 "/>
<path style=" stroke:none;fill-rule:nonzero;fill:rgb(0%,20%,20%);fill-opacity:1;" d="M 4.691406 7.203125 C 4.886719 7.203125 5.042969 7.054688 5.042969 6.867188 L 5.042969 6.503906 C 5.039062 6.320312 4.882812 6.175781 4.691406 6.175781 C 4.5 6.175781 4.34375 6.320312 4.339844 6.503906 L 4.339844 6.867188 C 4.339844 7.054688 4.496094 7.203125 4.691406 7.203125 Z M 4.691406 7.203125 "/>
<path style=" stroke:none;fill-rule:nonzero;fill:rgb(0%,20%,20%);fill-opacity:1;" d="M 7.332031 7.203125 C 7.527344 7.203125 7.683594 7.054688 7.683594 6.867188 L 7.683594 6.503906 C 7.679688 6.320312 7.523438 6.175781 7.332031 6.175781 C 7.140625 6.175781 6.984375 6.320312 6.980469 6.503906 L 6.980469 6.867188 C 6.980469 7.054688 7.136719 7.203125 7.332031 7.203125 Z M 7.332031 7.203125 "/>
<path style=" stroke:none;fill-rule:nonzero;fill:rgb(0%,20%,20%);fill-opacity:1;" d="M 4.933594 8.390625 C 4.855469 8.5625 4.933594 8.765625 5.113281 8.839844 C 5.6875 9.078125 6.335938 9.078125 6.910156 8.839844 C 7.027344 8.792969 7.109375 8.6875 7.125 8.566406 C 7.136719 8.441406 7.082031 8.320312 6.976562 8.25 C 6.871094 8.179688 6.734375 8.167969 6.621094 8.222656 C 6.230469 8.378906 5.789062 8.378906 5.402344 8.222656 C 5.222656 8.144531 5.015625 8.222656 4.933594 8.390625 Z M 4.933594 8.390625 "/>
<path style=" stroke:none;fill-rule:nonzero;fill:rgb(0%,20%,20%);fill-opacity:1;" d="M 16.050781 8.476562 C 16.625 8.714844 17.273438 8.714844 17.847656 8.476562 C 17.964844 8.429688 18.046875 8.324219 18.0625 8.203125 C 18.078125 8.078125 18.019531 7.960938 17.914062 7.886719 C 17.8125 7.816406 17.675781 7.804688 17.558594 7.859375 C 17.167969 8.015625 16.730469 8.015625 16.339844 7.859375 C 16.222656 7.804688 16.085938 7.816406 15.980469 7.886719 C 15.875 7.957031 15.820312 8.078125 15.835938 8.203125 C 15.847656 8.324219 15.929688 8.429688 16.050781 8.476562 Z M 16.050781 8.476562 "/>
<path style=" stroke:none;fill-rule:nonzero;fill:rgb(0%,20%,20%);fill-opacity:1;" d="M 22.046875 12.128906 L 19.839844 11.421875 C 19.675781 11.371094 19.566406 11.222656 19.566406 11.054688 L 19.566406 9.804688 C 20.289062 9.128906 20.695312 8.199219 20.695312 7.226562 L 20.695312 6.601562 C 20.941406 6.222656 21.84375 4.722656 21.828125 3.234375 C 21.839844 2.371094 21.457031 1.542969 20.78125 0.976562 C 20 0.328125 18.835938 0 17.324219 0 C 15.800781 0 14.710938 0.351562 14.085938 1.050781 C 14.015625 1.128906 13.953125 1.207031 13.898438 1.292969 C 13.886719 1.292969 13.871094 1.292969 13.859375 1.296875 C 13.371094 1.40625 12.933594 1.675781 12.621094 2.054688 C 12.257812 2.492188 12.0625 3.039062 12.070312 3.601562 C 12.113281 4.589844 12.511719 5.535156 13.203125 6.273438 L 13.203125 7.226562 C 13.203125 8.195312 13.609375 9.125 14.332031 9.804688 L 14.332031 11.054688 C 14.332031 11.222656 14.222656 11.367188 14.058594 11.421875 L 12.105469 12.046875 C 11.980469 12.082031 11.890625 12.179688 11.863281 12.300781 C 11.835938 12.421875 11.882812 12.546875 11.976562 12.625 C 12.074219 12.707031 12.207031 12.730469 12.328125 12.691406 L 13.46875 12.324219 C 14.386719 13.222656 15.640625 13.730469 16.949219 13.730469 C 18.257812 13.730469 19.515625 13.222656 20.429688 12.324219 L 21.824219 12.773438 C 22.757812 13.070312 23.386719 13.910156 23.386719 14.859375 L 23.386719 15.566406 C 23.382812 15.691406 23.449219 15.808594 23.558594 15.871094 C 23.671875 15.933594 23.808594 15.933594 23.917969 15.871094 C 24.03125 15.808594 24.097656 15.691406 24.09375 15.566406 L 24.09375 14.859375 C 24.09375 13.621094 23.269531 12.519531 22.046875 12.128906 Z M 13.90625 7.226562 L 13.90625 6.140625 C 13.90625 6.050781 13.871094 5.964844 13.804688 5.902344 C 13.195312 5.273438 12.828125 4.460938 12.777344 3.601562 C 12.757812 3.015625 13.058594 2.460938 13.570312 2.136719 C 13.542969 2.304688 13.539062 2.476562 13.558594 2.644531 C 13.597656 2.816406 13.773438 2.933594 13.957031 2.90625 C 14.140625 2.878906 14.273438 2.71875 14.253906 2.542969 C 14.226562 2.160156 14.359375 1.785156 14.617188 1.496094 C 15.097656 0.960938 16.035156 0.675781 17.324219 0.675781 C 18.660156 0.675781 19.667969 0.949219 20.316406 1.492188 C 20.839844 1.933594 21.132812 2.574219 21.121094 3.242188 C 21.105469 3.882812 20.960938 4.511719 20.695312 5.097656 L 20.695312 5.050781 C 20.679688 4.714844 20.558594 4.390625 20.34375 4.121094 C 19.789062 3.410156 18.804688 3.261719 18.082031 3.261719 L 15.230469 3.261719 C 14.753906 3.261719 14.328125 3.554688 14.179688 3.988281 L 13.972656 4.582031 C 13.929688 4.695312 13.957031 4.824219 14.042969 4.917969 C 14.125 5.011719 14.253906 5.050781 14.378906 5.027344 C 14.503906 5 14.605469 4.914062 14.644531 4.796875 L 14.847656 4.203125 C 14.902344 4.046875 15.058594 3.941406 15.230469 3.941406 L 18.082031 3.941406 C 19.910156 3.941406 19.988281 4.941406 19.992188 5.050781 L 19.992188 7.226562 C 19.992188 8.839844 18.628906 10.152344 16.949219 10.152344 C 15.269531 10.152344 13.90625 8.839844 13.90625 7.226562 Z M 16.949219 13.054688 C 15.953125 13.050781 14.988281 12.707031 14.230469 12.082031 L 14.28125 12.066406 C 14.734375 11.921875 15.039062 11.515625 15.039062 11.058594 L 15.039062 10.324219 C 16.21875 11 17.683594 11 18.859375 10.324219 L 18.859375 11.058594 C 18.859375 11.515625 19.164062 11.921875 19.617188 12.066406 L 19.671875 12.082031 C 18.914062 12.707031 17.949219 13.050781 16.949219 13.054688 Z M 16.949219 13.054688 "/>
<path style=" stroke:none;fill-rule:nonzero;fill:rgb(0%,20%,20%);fill-opacity:1;" d="M 15.441406 6.84375 C 15.636719 6.84375 15.792969 6.691406 15.792969 6.503906 L 15.792969 6.140625 C 15.796875 6.015625 15.730469 5.902344 15.621094 5.835938 C 15.511719 5.773438 15.371094 5.773438 15.261719 5.835938 C 15.148438 5.902344 15.085938 6.015625 15.089844 6.140625 L 15.089844 6.503906 C 15.089844 6.691406 15.246094 6.84375 15.441406 6.84375 Z M 15.441406 6.84375 "/>
<path style=" stroke:none;fill-rule:nonzero;fill:rgb(0%,20%,20%);fill-opacity:1;" d="M 18.457031 6.84375 C 18.652344 6.84375 18.8125 6.691406 18.8125 6.503906 L 18.8125 6.140625 C 18.816406 6.015625 18.75 5.902344 18.640625 5.835938 C 18.527344 5.773438 18.390625 5.773438 18.277344 5.835938 C 18.167969 5.902344 18.101562 6.015625 18.105469 6.140625 L 18.105469 6.503906 C 18.105469 6.691406 18.265625 6.84375 18.457031 6.84375 Z M 18.457031 6.84375 "/>
</g>
</svg>
