<?xml version="1.0" encoding="UTF-8"?>
<svg xmlns="http://www.w3.org/2000/svg" xmlns:xlink="http://www.w3.org/1999/xlink" width="25px" height="25px" viewBox="0 0 25 25" version="1.1">
<g id="surface1">
<path style=" stroke:none;fill-rule:nonzero;fill:rgb(0%,0%,0%);fill-opacity:1;" d="M 1.160156 1.160156 C -0.121094 2.484375 -0.28125 3.484375 0.601562 5.207031 C 1.28125 6.492188 2.242188 6.929688 4.125 6.730469 C 5.367188 6.609375 5.410156 6.691406 5.648438 8.332031 C 5.769531 9.292969 5.730469 10.136719 5.527344 10.257812 C 5.046875 10.578125 5.128906 12.582031 5.6875 13.140625 C 5.96875 13.421875 6.492188 13.621094 6.890625 13.621094 C 7.292969 13.621094 7.613281 13.863281 7.613281 14.144531 C 7.613281 14.785156 9.292969 16.425781 9.9375 16.425781 C 10.214844 16.425781 10.417969 16.707031 10.417969 17.027344 C 10.417969 17.46875 9.976562 17.628906 8.855469 17.628906 C 6.449219 17.628906 5.367188 18.75 4.847656 21.714844 C 4.605469 23.078125 4.566406 24.359375 4.726562 24.519531 C 4.929688 24.71875 8.375 24.800781 12.460938 24.757812 L 19.832031 24.640625 L 19.953125 23.679688 C 20.03125 23.15625 19.910156 22.554688 19.671875 22.316406 C 19.351562 21.996094 19.230469 22.195312 19.230469 22.957031 C 19.230469 23.839844 19.03125 24.039062 18.269531 24.039062 C 17.46875 24.039062 17.269531 23.796875 17.105469 22.757812 L 16.945312 21.433594 L 16.90625 22.714844 L 16.828125 24.039062 L 7.652344 24.039062 L 7.492188 22.714844 L 7.332031 21.433594 L 7.292969 22.714844 C 7.210938 23.839844 7.050781 24.039062 6.167969 24.039062 C 5.207031 24.039062 5.167969 24 5.410156 22.117188 C 5.929688 18.429688 7.851562 17.148438 10.054688 19.03125 C 10.738281 19.589844 11.617188 20.03125 12.058594 20.03125 C 13.0625 20.03125 14.464844 19.3125 15.0625 18.507812 C 15.746094 17.589844 17.707031 18.429688 18.507812 19.992188 C 18.871094 20.714844 19.269531 21.113281 19.390625 20.875 C 19.710938 20.351562 18.949219 18.832031 18.070312 18.148438 C 17.707031 17.867188 16.667969 17.628906 15.746094 17.628906 C 13.820312 17.628906 13.339844 16.707031 15.023438 16.265625 C 15.542969 16.144531 16.265625 15.542969 16.546875 14.984375 C 16.828125 14.421875 17.507812 13.742188 18.070312 13.460938 C 18.910156 13.0625 19.03125 12.699219 19.03125 10.617188 C 19.070312 6.449219 19.03125 6.570312 20.792969 6.730469 C 22.074219 6.851562 22.597656 6.691406 23.398438 5.847656 C 25.601562 3.6875 24 0 20.832031 0 C 19.472656 0 17.628906 2.125 17.628906 3.644531 L 17.628906 4.96875 L 16.546875 3.925781 C 15.0625 2.523438 13.582031 2.003906 11.296875 2.042969 L 9.414062 2.082031 L 11.578125 2.445312 C 14.382812 2.925781 15.984375 3.886719 16.785156 5.488281 C 17.148438 6.210938 17.667969 6.8125 17.949219 6.8125 C 18.46875 6.8125 18.589844 7.933594 18.1875 8.972656 C 17.828125 9.9375 17.226562 9.734375 17.226562 8.695312 C 17.226562 8.171875 16.988281 7.453125 16.707031 7.050781 C 16.226562 6.371094 15.984375 6.371094 14.664062 6.8125 C 13.863281 7.050781 11.980469 7.210938 10.496094 7.132812 L 7.8125 7.011719 L 7.613281 8.171875 C 7.371094 9.65625 6.609375 9.9375 6.25 8.734375 C 5.890625 7.25 5.96875 6.8125 6.652344 6.8125 C 7.171875 6.8125 7.25 6.53125 7.011719 5.207031 C 6.769531 3.765625 6.8125 3.566406 7.773438 3.207031 C 9.09375 2.722656 9.132812 2.242188 7.851562 2.5625 C 7.089844 2.765625 6.8125 2.605469 6.609375 2.003906 C 6.332031 1.082031 4.488281 0 3.207031 0 C 2.722656 0 1.804688 0.519531 1.160156 1.160156 Z M 5.410156 1.601562 C 5.847656 2.082031 6.210938 3.164062 6.25 4.167969 L 6.371094 5.929688 L 4.6875 6.128906 C 2.5625 6.449219 1.042969 5.488281 0.882812 3.6875 C 0.640625 1.242188 3.765625 -0.199219 5.410156 1.601562 Z M 22.917969 1.480469 C 24.199219 2.964844 24.160156 3.925781 22.835938 5.25 C 21.957031 6.167969 21.355469 6.449219 20.714844 6.25 C 20.230469 6.128906 19.429688 6.007812 18.992188 6.007812 C 18.1875 6.007812 18.148438 5.847656 18.308594 4.085938 C 18.589844 1.761719 19.351562 0.800781 21.035156 0.800781 C 21.753906 0.800781 22.597656 1.121094 22.917969 1.480469 Z M 13.703125 7.652344 C 14.785156 7.410156 15.867188 7.292969 16.066406 7.453125 C 16.265625 7.570312 16.425781 9.175781 16.425781 11.019531 C 16.425781 14.183594 16.386719 14.421875 15.34375 15.222656 C 14.382812 15.945312 13.820312 16.066406 11.859375 15.945312 C 8.574219 15.707031 8.011719 14.945312 8.011719 10.855469 C 8.011719 9.132812 8.09375 7.652344 8.214844 7.53125 C 8.332031 7.410156 9.175781 7.492188 10.097656 7.730469 C 11.21875 8.011719 12.300781 8.011719 13.703125 7.652344 Z M 7.613281 11.539062 C 7.613281 12.902344 7.332031 13.261719 6.570312 12.941406 C 6.007812 12.742188 5.808594 11.179688 6.289062 10.695312 C 6.929688 10.054688 7.613281 10.496094 7.613281 11.539062 Z M 18.589844 11.019531 C 18.871094 11.820312 18.507812 12.699219 17.789062 12.980469 C 17.386719 13.140625 17.226562 12.859375 17.226562 11.820312 C 17.226562 10.375 18.109375 9.855469 18.589844 11.019531 Z M 13.222656 17.027344 C 13.222656 17.386719 13.5 17.75 13.820312 17.867188 C 14.785156 18.230469 13.742188 19.230469 12.460938 19.230469 C 11.179688 19.230469 9.976562 18.46875 10.738281 18.148438 C 10.976562 18.070312 11.21875 17.628906 11.21875 17.1875 C 11.21875 16.625 11.5 16.425781 12.21875 16.425781 C 12.859375 16.425781 13.222656 16.667969 13.222656 17.027344 Z M 13.222656 17.027344 "/>
<path style=" stroke:none;fill-rule:nonzero;fill:rgb(0%,0%,0%);fill-opacity:1;" d="M 2.605469 2.042969 C 2.445312 2.285156 2.445312 2.5625 2.605469 2.722656 C 2.722656 2.84375 3.003906 2.722656 3.164062 2.445312 C 3.445312 2.003906 3.566406 2.003906 3.847656 2.445312 C 4.007812 2.722656 3.964844 3.003906 3.6875 3.125 C 3.40625 3.207031 3.207031 3.566406 3.207031 3.925781 C 3.207031 4.488281 3.324219 4.445312 4.007812 3.765625 C 4.527344 3.285156 4.726562 2.683594 4.566406 2.285156 C 4.285156 1.523438 3.003906 1.363281 2.605469 2.042969 Z M 2.605469 2.042969 "/>
<path style=" stroke:none;fill-rule:nonzero;fill:rgb(0%,0%,0%);fill-opacity:1;" d="M 20.3125 1.84375 C 19.792969 2.402344 20.03125 2.882812 20.59375 2.445312 C 20.953125 2.125 21.234375 2.125 21.394531 2.363281 C 21.554688 2.5625 21.472656 2.84375 21.234375 3.003906 C 21.035156 3.125 20.832031 3.527344 20.832031 3.847656 C 20.832031 4.40625 20.914062 4.367188 21.472656 3.847656 C 21.792969 3.484375 22.035156 2.882812 21.957031 2.523438 C 21.835938 1.761719 20.792969 1.363281 20.3125 1.84375 Z M 20.3125 1.84375 "/>
<path style=" stroke:none;fill-rule:nonzero;fill:rgb(0%,0%,0%);fill-opacity:1;" d="M 10.015625 9.414062 C 9.054688 9.976562 9.054688 9.976562 9.894531 10.015625 C 10.375 10.015625 10.898438 9.816406 11.019531 9.574219 C 11.457031 8.894531 11.097656 8.855469 10.015625 9.414062 Z M 10.015625 9.414062 "/>
<path style=" stroke:none;fill-rule:nonzero;fill:rgb(0%,0%,0%);fill-opacity:1;" d="M 13.222656 9.253906 C 13.222656 9.734375 14.222656 10.136719 14.863281 9.9375 C 15.105469 9.855469 14.863281 9.574219 14.261719 9.292969 C 13.621094 9.015625 13.222656 8.972656 13.222656 9.253906 Z M 13.222656 9.253906 "/>
<path style=" stroke:none;fill-rule:nonzero;fill:rgb(0%,0%,0%);fill-opacity:1;" d="M 10.015625 11.257812 C 10.015625 11.457031 10.214844 11.539062 10.417969 11.417969 C 10.65625 11.296875 10.816406 11.097656 10.816406 10.976562 C 10.816406 10.898438 10.65625 10.816406 10.417969 10.816406 C 10.214844 10.816406 10.015625 11.019531 10.015625 11.257812 Z M 10.015625 11.257812 "/>
<path style=" stroke:none;fill-rule:nonzero;fill:rgb(0%,0%,0%);fill-opacity:1;" d="M 11.21875 13.140625 C 11.21875 13.5 13.101562 13.460938 13.5 13.101562 C 13.621094 12.941406 13.179688 12.820312 12.5 12.820312 C 11.777344 12.820312 11.21875 12.980469 11.21875 13.140625 Z M 11.21875 13.140625 "/>
</g>
</svg>
