<svg xmlns="http://www.w3.org/2000/svg" xmlns:xlink="http://www.w3.org/1999/xlink" width="215" height="365" viewBox="0 0 215 365">
  <defs>
    <clipPath id="clip-path">
      <rect id="Rectangle_7877" data-name="Rectangle 7877" width="215" height="365" transform="translate(11907 1463)" fill="#fff" stroke="#707070" stroke-width="1"/>
    </clipPath>
    <clipPath id="clip-path-2">
      <rect id="Rectangle_7875" data-name="Rectangle 7875" width="215" height="439" transform="translate(11907 1463)" fill="#fff" stroke="#707070" stroke-width="1"/>
    </clipPath>
  </defs>
  <g id="Mask_Group_7" data-name="Mask Group 7" transform="translate(-11907 -1463)" clip-path="url(#clip-path)">
    <g id="Mask_Group_5" data-name="Mask Group 5" clip-path="url(#clip-path-2)">
      <g id="Layer_2" data-name="Layer 2" transform="translate(12104.985 1455.987)">
        <g id="Layer_1" data-name="Layer 1" transform="translate(-198 7)">
          <path id="Path_54749" data-name="Path 54749" d="M58.56,30.49l1.49-.35a107.421,107.421,0,0,1,.34,14.24c2.11-2.49,4.75-4.84,8.18-5,3.86-.78,8.72,2.59,7.58,6.84-2.38-1.49-4.48-4.37-7.65-3.66-8.75.58-11.35,13.77-4.7,18.59,1-2.47-3.55-5.19-.13-6.71L65.31,58c3.84-1.54,9.25-2.14,12,1.73,1.89,2.07.78,5,.38,7.35q-.75-.85-1.47-1.71l.28-2.93c-1.92-4.83-8.77-4.4-11.71-.8.08,1.72,1.17,3.18,1.81,4.74q2.31.8,4.62,1.62c-1-1.69-2.88-3.37-2.16-5.54a3,3,0,0,1,5.14-1.57c2.15,1.27,1.63,4.14.26,5.8l2.22,1.62c-3.78,1.33-8.56,2.66-12.14.14-2.72-2.06-1.15-6.3-4-8.16-.28,8.68.78,17.33.86,26-.11,8.36,3.33,17.08,10.09,22.23,2.65,2.14,6.36,3,7.86,6.39-.25,8.92-.71,17.84-1.08,26.76,4,1.16,7.85,2.82,11.91,3.79a58.81,58.81,0,0,0,20.62-.56,76.081,76.081,0,0,0,25.54-8.38,177.13,177.13,0,0,1-2-40.24,17.94,17.94,0,0,1,1-3.74c3.25,7.87,1.58,16.62,2.76,24.87.2,5.4.72,10.78,1.27,16.15a91.679,91.679,0,0,1,12.44,2.92c10,3.7,20.47,6.23,30.45,10.1,4.73,2.08,9.5,4.4,13.2,8.09a48.28,48.28,0,0,1,12.25,27.64c4,16.42,1.84,33.35,1.38,50-.56,11.36-1.51,22.71-2.56,34-1.75,9.32-2.86,18.79-5.58,27.91-1.83,5.84-3.38,12.39-8.66,16.16,3.57,11.94,4.2,24.45,5.22,36.79.87,7,.67,14.05,1.38,21.05.66,11,2.07,21.94,3.29,32.9,2.2,28.73,2.71,57.57,5.16,86.28,2.76,17.21,3.76,34.63,5.34,52,.1,3.39-4,2-6,2.37a147.286,147.286,0,0,0-16.92,3.4q-.63,1.42-1.23,2.88c1.53,13.79.94,27.71.69,41.56-1,14.53-.83,29.1-.66,43.66.52,6.69-.14,13.38.65,20.07,1.29,12.3-.32,24.61-.07,36.93.18,9-.41,18.06,0,27.09.18,7.75-.66,15.46-.68,23.21,4.44,4,9.66,7,14.2,10.84,3.12,2.54,5.43,5.87,8.1,8.85,1.89,2.28,4,4.87,3.88,8a3.18,3.18,0,0,1-2.73,3.31c-11.36-1.6-21.7-6.94-32-11.69-3.84-1.59-7.13-4.33-11.11-5.55-1.61,5.81-1,12.62-4.88,17.56-1.2-.82-3.6-.81-3.53-2.69-1-11-2.68-22-3.62-33-1.05-13.4-3.55-26.63-4.48-40-2-15.62-2.57-31.38-4.22-47-1.53-10.54-1.76-21.22-3.41-31.74-1.26-10.31-.81-20.78-2.6-31-1.35-12.53-2.25-25.11-3.53-37.64-9.94.84-19.82-.65-29.71-1.32-5.91-.89-11.72,1-17.57,1.43a18.21,18.21,0,0,0-.52,6.41,189.426,189.426,0,0,1,.43,26c.22,10.44,0,20.89.2,31.34,0,8.27,1.64,16.44,1.71,24.71.23,11.67,1.2,23.34.59,35,1.3,21,.93,42,.52,63-.54,5,.3,10.12-1.32,14.93-.83,3.63-.48,7.42-1.23,11.08-.42,2.82-1,6.06-3.82,7.53-3.3-3-2.57-7.77-3.45-11.72-5.48,6.41-12.65,11.91-21.11,13.48-8.49,2.62-17.48,5.49-26.42,3.63-2.6-.62-2.35-4.14-.16-5.14,7.8-5.87,17-9.55,26.06-13.06.35-9.48-2-19.16-2.71-28.71-2-16.4-2.71-32.94-5.59-49.22-5-33.19-10.73-66.3-14.05-99.72-1-10.24-2.77-20.38-3.78-30.62-2.56-.16-6.45-.14-6.75-3.51a235.509,235.509,0,0,1-4.55-33c-1.45-12.61-3.38-25.18-4.2-37.85-.57-8.42-2.17-16.72-2.49-25.16-.86-18.36-3.12-36.62-4-55,.6-7.47.26-15,1.39-22.43.79-6.2.08-12.5,1.16-18.67,2.6-15.35,7.79-30.12,14.13-44.3-7.41,1.26-15.49.87-22.09-3.06-3.4-2.23-3.6-6.7-5.09-10.12C1.21,284.86.63,274.49.76,264.3,0,244-.83,223.45,1.86,203.2c1.39-7.75,3.81-15.27,5.81-22.87,1.21-4.45,3.87-8.29,5.73-12.47,3.39-5.52,9.11-9,14.61-12.17,13.78-9,30-13.8,46.29-15.26,0-6.2.65-12.37,1-18.56.08-2.59.13-5.18.21-7.77-11-2.86-17.32-14.15-18.06-24.86-.74-13.61-2.09-27.29-.77-40.91A163.936,163.936,0,0,1,58.56,30.49ZM132,158.79c-5.84,14.13-13,27.65-19.21,41.61-2.63,5.08-4,10.7-6.5,15.82a82,82,0,0,0-5.7,14.91c-.62,5-.46,10-.81,15,6.18,1.59,12.41,3.27,18.77,3.95,8.81-1.15,16.62-5.76,25.2-7.85,8.13-3.09,16.65-4.92,25.18-6.52-.64-9.46-1.19-19-.07-28.44.59-5.67-.68-11.29-.58-16.95-.16-1.65.68-3.05,1.49-4.4a3.65,3.65,0,0,1,1.89,3.38c.45,6.65,1.11,13.33.53,20-1.18,8.74.31,17.52-.22,26.3,6.33,1,14.6-.19,18.86,5.64,1.78,2.28-.94,4.15-3.14,4,1.49,1.78,3.76,3.66,3.33,6.26-1.42,2.23-4.33,2.35-6.69,2.29,1.87,1.64,4.17,4.17,2.71,6.8-2.27,2.35-5.69,1-8.23-.06.73,1.75,2.1,3.76,1,5.66-1.44,2.53-4.86,1.94-7,.89-7.52-3.25-15.62-4.51-23.59-6-6.12-2.47-12.73-3.05-19-5-10.47-2.32-21.13-3.77-31.46-6.69-6.92-1.87-14.12-2-21.16-3.06-3.26,7.91-6.55,15.82-9.34,23.9,13.66,4.54,26.74,10.73,40.59,14.74a73.2,73.2,0,0,1,11.71,4.82c5.4,2.76,11.32,4.27,16.84,6.76,11.44,4.44,22.33,10.41,34.35,13.25a61,61,0,0,0,12,.35c4.07.07,7.52-2.78,9.71-6,5.3-12.26,6.77-25.65,8.85-38.72,1.31-15,2.38-30,2.9-45,.29-10.71,1.13-21.53-.83-32.15-1.43-6.91-1.88-14.15-5.16-20.53-3-5.37-6.42-11-12-13.86-11.64-6.25-24.9-8.41-37.08-13.33,3.34,7,6.21,14.31,7.42,22-5.54,3.18-12,4.16-17.87,6.56,2.54,2.33,5.28,4.52,7.33,7.33,1.15,1.37-.49,2.79-1.19,3.9-3.18,4.11-6.86,7.8-9.9,12-8.59,10.71-18.13,20.6-27.22,30.87l-1.19-.77c1-4,5.14-6.54,7.8-9.62,9.46-10.6,18.41-21.64,27.61-32.47.59-1,1.82-1.77,1.71-3-2.78-3.08-6.07-5.71-8.5-9.1,5.74-3.16,12.29-4.36,18.18-7.14-2.27-7.1-4.16-14.34-6.92-21.27-2.4-.73-4.8-1.46-7.18-2.22C137,144.5,135.56,152.07,132,158.79ZM106.68,149c5,8.09,10.41,16,14.57,24.6,5.47-10.79,10.29-21.93,14.71-33.2a110.28,110.28,0,0,1-29.28,8.6ZM67,145.61c-2.3,7-3.38,14.27-5.71,21.25a95.281,95.281,0,0,1,16.91,2c.08.32.22,1,.3,1.29-2.23,4.88-7.06,8-9.61,12.61,2.75,4.82,7.33,8.21,10.59,12.67,4.86,6.16,11.2,10.93,16,17.14l-1.83.45C87.77,207,80.82,202,75.49,195.37c-3.4-4.15-8.13-7.68-9.53-13.09,2.91-3.91,6.43-7.32,9.55-11.07-5.39-1-11-1.15-16.25-2.51-.83-1.39,0-3,.27-4.49,1.91-6.1,3.28-12.36,5.44-18.38-12,2.75-23.88,6.85-34.32,13.49-4.93,2.79-10.16,5.69-13.46,10.44-2,4.19-4.8,8.06-5.86,12.65C8.92,191.64,5.52,200.72,5,210.32c-3,20.26-.4,40.72-.62,61.09.75,9.42.79,19.37,5.24,28,2.28,2.5,5.88,3.16,9,4,9.86,1.43,19.66-1.33,29-4.18,9.63-2.31,19.31-4.39,28.52-8.1a92,92,0,0,0,19.67-6.4c-9.68-3.43-19.14-7.4-28.78-10.9a13.69,13.69,0,0,1-2.54-1.62c-36.85-13.94-27-2.42-51.28-10.87-.28-3.56,4.28-3.09,6.61-3.69-2.42-1.14-5.44-1.62-6.86-4.15.26-3.16,4.49-2.95,6.8-3.86-1.56-1.06-4-2.09-3.57-4.42,2.06-3.15,6.34-2.94,9.66-3.16-3-1-6.2-3.12-6.2-6.63,1.14-2.07,46.19,9.44,53.49,9.9l1.52-1.46a94.372,94.372,0,0,1,22.49,1.75c.29-5.09-.42-10.21.3-15.27a72.861,72.861,0,0,1,5.19-14.12c-3.79-8.94-7.43-17.94-11.13-26.91-2.72-8.79-7.13-17-9.54-25.85-1.78-6.86-5-13.23-7-20A47.322,47.322,0,0,0,67,145.61Zm11.41-.46c1.31,3.65,3.17,7.07,4.58,10.67,2.32,5.73,3.41,11.91,6.22,17.45,1.36-6.52,5-12.16,7.37-18.29l.44-.54c1.38-1.54,2.72-3.1,4.07-4.66-4.34-.06-8.74-.07-13-1.1-3.32-.92-6.43-2.44-9.69-3.53Zm25.48,6.17c-6,7.41-9.51,16.39-13.72,24.84,4.38,12.09,8.8,24.17,14,35.94q7.13-17.83,15.8-35c-5.21-8.72-10.97-17.1-16.09-25.78ZM23.41,236.59c2.11,4,7.75,3.11,10.78,6.14,1,.57,1.56,2.07.48,2.88-5.1.66-10.22-1.44-15.3-.13l.87,1.14c4.33,1,9.19.78,12.79,3.83l-1.37,2c-5.13.77-10.36-1.16-15.4.51,4.34,3.34,10.21,1.74,15,3.68,1.13.09,1.6,2.3.35,2.46-4.72,1-9.76.3-14.4,1.93a53.932,53.932,0,0,0,15.43.69c11.2,0,21.36,5.42,32.2,7.5q3.56-10.11,7.21-20.18c-6.92-.93-13.46-3.44-20.17-5.23C51.79,245.71,31.66,238.54,23.41,236.59Zm115.45,10.48c.73,2.65,1,5.42,2,8,10.31,2.9,21.37,3.22,31.13,8,1.78.81,3.42,2.3,5.53,2-1.94-4-6.54-5.16-9.31-8.36a1.79,1.79,0,0,1,.76-3c5.65,1.08,10.54,4.8,16.19,5.91-2.58-5.68-10.65-4.67-14.19-9.28l1.4-2.35c5.57.63,10.81,3.2,16.44,3.14-2.11-4.73-8-4.84-12.26-6.3-1-.36-3.73-1.21-1.87-2.67,4.32-1.07,8.87.37,13.26.66-1.47-2-4.1-2.37-6.37-2.78-5-.49-10.11-1.8-15.09-.38-9.4,1.61-18.48,4.73-27.62,7.41Zm-11.6,4.45a96.575,96.575,0,0,0,9.92,2.64q-.675-3-1.34-6c-2.84,1.13-5.73,2.2-8.58,3.36Zm-26.12,35.15c.2.42.6,1.28.81,1.7-1.68,1.94-.91,4.6-1.06,6.93.23,7.32.38,14.65-.07,22-1.07,18,1.15,36-.42,54-.91,11.34-.3,22.72-.15,34.08-.36,11-.48,22-.12,33-.46,12,.27,24-.22,36.05-.3,9,1.32,17.93,2.22,26.88,1.76,13.79,2.41,27.69,3.25,41.56,4.1.34,8.2.78,12.32,1.06,19.94,2.34,39.92-.7,59.87-1.27,10.4-.85,20.32-4.87,30.79-5-1.53-13.07-2.32-26.22-3.9-39.27-2-9.88-2.56-19.95-3.16-30-.65-14.34-1.8-28.67-2.25-43-.72-10.52-1-21.08-2.46-31.53-3.57-27-3.38-54.45-7.47-81.44a41.09,41.09,0,0,1-19.62.57c-13.2-3.36-25.14-10.1-37.92-14.66-10.4-3.33-19.76-9.22-30.44-11.66Zm-19.64,7c-6.13,1.25-11.82,3.93-17.8,5.66-9.3,2.19-18.49,4.83-27.62,7.6-1.7,2.57-2.21,5.73-3.32,8.57-5,13.19-9.49,26.7-11.44,40.7-.24,10.39-2,20.67-2.09,31.07-.86,12.07,1.31,24.05,1.94,36.06,1,10.94,1.52,21.92,2.24,32.87,1.88,12.6,2.14,25.37,3.85,38,2.36,16.45,2.93,33.11,6.13,49.45,8.08.6,16.13,1.49,24.23,1.94,14.92-.32,30,.35,44.68-2.66-.77-17.75-2.22-35.45-4.53-53.05-1.67-10.78-.34-21.69-.67-32.52-.35-8.33.39-16.65,0-25-.62-12.69.68-25.37-.12-38.05-.72-13,.51-26,.82-38.95a399.593,399.593,0,0,1,.44-43.09c.62-8.23-.44-16.55,1-24.72-6.02,1.82-11.54,5.02-17.74,6.15Zm-12.12,283c.82,2.64,2.68-.15,3.4-1.31,2-3.47,5.45-6.2,6.7-10.07-4.32,2.71-6.76,7.64-10.1,11.4Zm6.51,6.6c-1.11,1.9-3.53,3.71-2.35,6.17,2.77-3.3,4.82-7.17,7-10.89-2.42.45-3.22,3.09-4.65,4.74Zm84,1.76c-.71.73-1.43,1.57-.49,2.49a15.55,15.55,0,0,0,7.17.69c1.66-.3,2-1.2,1.12-2.69-2.6-.12-5.23.11-7.79-.47Zm12.73,95.09c-5.86,0-11.68,1.38-17.53.63,1.43,21.54,4.88,42.87,6.4,64.4,4.52-.8,8.32,2.18,12.22,3.94,10.54,4.25,21.38,7.76,31.83,12.25-5.46-7.4-14.1-11.13-20.81-17.08-.59-15.84-1.92-32-1.21-48,.1-5.65,1-11.27.69-16.92a77.544,77.544,0,0,1-11.58.8ZM61.1,694.48c.59,10.69,2.16,21.3,3.07,32,1,10.29,2.87,20.51,3,30.87C64,760.89,58.48,761.4,54.49,764c7.67-1.55,14.25-6.09,21.1-9.64,5-2.54,9.17-6.26,13.3-10,.49-17.54.21-35.09-.52-52.62C79.29,692.73,70.14,693.14,61.1,694.48Z"/>
          <path id="Path_54750" data-name="Path 54750" d="M106.07,39.76a12.79,12.79,0,0,1,8.57-5.84c3.59.08,7.36,2.12,8.73,5.58,1.32,1.59-.19,2.61-1.61,3.07-1-2-1.77-4.54-4.23-5.15-4.25-1.87-7.87,2.33-10.24,5.31C106.46,42.07,105.11,40.92,106.07,39.76Z"/>
          <path id="Path_54751" data-name="Path 54751" d="M119.55,54c1.16-1.14,2.32-2.28,3.5-3.4,1.51,2.28-1.65,3.37-2.93,4.61,2.84,3.08,3.54-2.88,6.23-2.57,1,2.88-2.31,4.61-4.27,6-.89,4.13-4.12,7.81-8.5,8.17-4.73,1.12-10.11-3.64-9.2-8.45C107.06,52.92,114.41,51,119.55,54Zm-12.9,5.32c1,2.6,2.92,5.58,6.1,5.47,4.08.62,9.54-4,6.63-8.09-4.08-3.26-9.55-.7-12.73,2.58Z"/>
          <path id="Path_54752" data-name="Path 54752" d="M113.11,57.77c1.54-2.15,4.86-.73,5.19,1.62.61,2.09-1.34,5-3.66,4.44C112,63.33,111.2,59.51,113.11,57.77Z"/>
          <path id="Path_54753" data-name="Path 54753" d="M85.27,62.35l1.74.8c.61,6.68-2,12.93-3.5,19.3a20.6,20.6,0,0,0,4.11-2.21c1.13-1.18,1.27-4,3.49-3.28-1.14,3.54-3.69,6.87-7.48,7.69C81.81,84.44,80.11,83,80.72,81c0-.35.13-1,.17-1.39C82.37,73.86,84.46,68.27,85.27,62.35Z"/>
          <path id="Path_54754" data-name="Path 54754" d="M113.09,73.88l1.45-1.49c-.07.35-.2,1-.27,1.4-.48,2.06-1.09,4.09-1.71,6.12l-1.76-.81C111.53,77.35,112.25,75.59,113.09,73.88Z"/>
          <path id="Path_54755" data-name="Path 54755" d="M119.06,74.65a3.8,3.8,0,0,1,2.19-2.41c-.17.83-.35,1.65-.55,2.47-.7,1.9-.78,4.67-3.34,4.93a44.43,44.43,0,0,1,1.7-4.99Z"/>
          <path id="Path_54756" data-name="Path 54756" d="M106,75.09c.57-1.1,2.26-1.26,3.19-2.07l.36,1.12c-.76,2-.82,5.68-3.54,5.88a16.31,16.31,0,0,1,.53-4.33Z"/>
          <path id="Path_54757" data-name="Path 54757" d="M64.79,78.12l2.09-.25c-.69,1.89-1.38,3.79-2.19,5.63l-2.31,1a40.521,40.521,0,0,1,2.41-6.38Z"/>
          <path id="Path_54758" data-name="Path 54758" d="M66.4,83.27A20.06,20.06,0,0,1,71,77.48a28.85,28.85,0,0,1-2.33,6.77l-2.56-.45Z"/>
          <path id="Path_54759" data-name="Path 54759" d="M75.21,77.66c2.17,1.45-.37,3.82-.85,5.59C71.67,81.87,74.5,79.43,75.21,77.66Z"/>
          <path id="Path_54760" data-name="Path 54760" d="M88.64,100.22c-3.16-.17-5.39-5.19-2.56-7.16.67,1.68.83,3.8,2.57,4.81,3.27.62,3.81-3.47,5-5.58C96,95.33,92.54,101,88.64,100.22Z"/>
          <path id="Path_54761" data-name="Path 54761" d="M141.13,319.92c9.46-1.1,19-2.16,28.49-2.4l2,.71c-1.14,1.72-3.16,1.63-4.95,1.68-8.4,0-16.76,1-25.15,1.25Z"/>
          <path id="Path_54762" data-name="Path 54762" d="M54.8,326.56c5,.22,9.81,1.44,14.77,1.44,4,.11,8-.32,12-.22,1.15-.26,1.3,2.49.08,2.18a46.54,46.54,0,0,1-19.38-.46C59.71,328.75,56.54,328.88,54.8,326.56Z"/>
          <path id="Path_54763" data-name="Path 54763" d="M127.55,332.34c2.6-.28,5.6-2.36,8-.59-4,1.24-8.23,1.83-12.28,3C123.07,332.91,126.27,333,127.55,332.34Z"/>
          <path id="Path_54764" data-name="Path 54764" d="M47.59,332.29c3,1.53,5.74,3.81,9.09,4.74,2.56,1.08,5.84,1.11,7.7,3.46-3.83-.23-7.45-1.75-10.92-3.28C51.27,335.93,48.65,334.75,47.59,332.29Z"/>
          <path id="Path_54765" data-name="Path 54765" d="M158.18,454.86c1.67-1.56,3-3.52,5.18-4.49-.56,2.88-3.13,4.65-5,6.68-4.65,4.29-9.34,8.81-14.95,11.78l-.4-1.44C148.05,463.21,153.52,459.5,158.18,454.86Z"/>
          <path id="Path_54766" data-name="Path 54766" d="M165,480.32c0-4.14,4.6-6.34,7.52-8.59.2.32.6,1,.79,1.28C170.11,475,168.16,478.4,165,480.32Z"/>
          <path id="Path_54767" data-name="Path 54767" d="M96.64.46a68.77,68.77,0,0,1,25,1.73C134.74,7.32,145.11,17.88,152,30a188,188,0,0,1,7.25,19.43c4.11,14.09.57,28.67-.43,42.92-.53,8.78-4.16,16.84-7.18,25-.42,1.27-1.29,3.18-3,2.33q-5.3-1.17-10.62-2.16c-1.18-8.25.49-17-2.76-24.87.87-7,1.16-14.06,2.64-20.94,2.19-3.5,6.44-5.93,7-10.29-.2-4.2-5.06-4.71-7.88-6.54-3.31-7.54-1.14-16.92-5.84-23.94A183.539,183.539,0,0,0,90,12.88c-6.9,4.53-14.33,8.18-21.43,12.36-2.84,1.61-5.09,4.44-8.47,4.9l-1.49.35c-1.12,5.88-1.41,11.88-1.93,17.84-1.32,13.62,0,27.3.77,40.91.74,10.71,7.08,22,18.06,24.86-.08,2.59-.13,5.18-.21,7.77-4.75,1.23-9.52,2.41-14.17,4-2.33.71-4.78,1.68-7.25,1.18-2.12-2-2.91-5-4.4-7.49-6.09-10.68-6.18-23.34-7.12-35.26-.85-8.61.08-17.25,1.06-25.8,2.54-12.57,5.11-25.89,13.22-36.22,5.22-4.06,9.8-9,15.74-12.12C80,6.07,87.88,1.75,96.64.46ZM114,5.33c2.08,2.29,5.21,4.44,8.32,4.58.75-1.66-1.16-2.37-2.31-3A18.78,18.78,0,0,0,114,5.33ZM109.6,8.4c.1.37.29,1.1.39,1.46,3.2,1.29,6.33,3.65,9.81,3.67,0-.52-.1-1.56-.13-2.08A45.21,45.21,0,0,0,109.59,8.4Zm-2.86,3.2c.83,3.52,5,4.29,8,5.44,1.45.94,2.26-2.12.67-2.33-2.87-1.2-5.84-2-8.68-3.11Zm-40.93,6c.22.35.65,1,.86,1.39,2.33-1.85,6.66-2.41,7.06-5.79-3.16-.38-5.38,2.96-7.93,4.45Zm2.93,3.5c2.21-1,5.19-1.39,6.15-3.95-2.58-.06-5.41,1.41-6.16,4Zm71.68,15.71c1.12,3.71,2.42,7.37,3.82,11,1.41,1.33,2.85-.76,1.89-2-1.54-3.17-2.81-6.76-5.72-8.95Zm4.88-.17c1,3.31,2.1,6.6,3.1,9.91,0,1.59,2.46,3.11,2.85.78-.97-3.76-2.04-8.85-5.96-10.64ZM43.77,70.39c.83.12,1.81.63,2.52-.14a58.13,58.13,0,0,0,.23-10.13C44.17,63,44.25,66.9,43.77,70.39Zm6.32-10.14a22.61,22.61,0,0,0-1.77,10c.11,1.91,3,1.75,2.84,0C50.74,67,51.77,63.29,50.09,60.25ZM143,77.3c-.27,3-1.54,5.93-1.1,9l1.67.2A23.33,23.33,0,0,0,144.71,71C143,72.66,143.42,75.19,143,77.3Zm6.2-4.49c-.57,4.38-1.62,8.69-2.14,13.08l1.56.88c2.63-4.28,1.55-9.84,1.83-14.66Z"/>
          <path id="Path_54768" data-name="Path 54768" d="M109.53,74.14l3.56-.26c-.84,1.71-1.56,3.47-2.29,5.22l1.76.81c.62-2,1.23-4.06,1.71-6.12l4.79.86a44.432,44.432,0,0,0-1.7,5c2.56-.26,2.64-3,3.34-4.93,1.8.8,3.76,3.66,1.08,4.8A43,43,0,0,1,104.68,81c-1.74,0-2.73-1.58-3.75-2.73a20.41,20.41,0,0,1,4.69-3.62l.36.4.54.6A16.309,16.309,0,0,0,106,80C108.71,79.82,108.77,76.17,109.53,74.14Z" fill="#ca576c"/>
          <path id="Path_54769" data-name="Path 54769" d="M64.79,78.12a16,16,0,0,1,13.52-1.39c1.37.35,2,1.7,2.58,2.87,0,.35-.12,1-.17,1.39-3.51,2.49-8,2.8-12.09,3.26A28.849,28.849,0,0,0,71,77.48a20.06,20.06,0,0,0-4.56,5.79l-1.71.23c.81-1.84,1.5-3.74,2.19-5.63Zm10.42-.46c-.71,1.77-3.54,4.21-.85,5.59C74.84,81.48,77.38,79.11,75.21,77.66Z" fill="#ca576c"/>
          <path id="Path_54770" data-name="Path 54770" d="M106.68,149a110.279,110.279,0,0,0,29.28-8.6c-4.42,11.27-9.24,22.41-14.71,33.2C117.09,165,111.71,157.11,106.68,149Zm8.73,3c.66,2.4,1.33,5.43,4,6.31.24-2.74-2.18-4.55-4-6.25Z" fill="#fdcc00"/>
          <path id="Path_54771" data-name="Path 54771" d="M78.4,145.15c3.26,1.09,6.37,2.61,9.69,3.53,4.25,1,8.65,1,13,1.1-1.35,1.56-2.69,3.12-4.07,4.66-.23-.5-.71-1.5-.94-2-2.62,3.5-5.51,7-6.87,11.19l1.53.67c2.17-3,3.14-6.71,5.84-9.32-2.4,6.13-6,11.77-7.37,18.29-2.81-5.54-3.9-11.72-6.22-17.45C81.57,152.22,79.71,148.8,78.4,145.15Z" fill="#fdcc00"/>
          <path id="Path_54772" data-name="Path 54772" d="M103.88,151.32C109,160,114.76,168.38,120,177.05q-8.68,17.17-15.8,35c-5.21-11.77-9.63-23.85-14-35.94C94.37,167.71,97.85,158.73,103.88,151.32Zm1.13,12c.14,8,.4,16.05-.4,24a36.561,36.561,0,0,0-.17,8,1.79,1.79,0,0,0,2.18,1.93c1.31-1.67.29-4,.56-6,.37-10.33.44-20.74-1-31a2.83,2.83,0,0,0-1.18,3.07Z" fill="#fdcc00"/>
        </g>
      </g>
    </g>
  </g>
</svg>
