<svg xmlns="http://www.w3.org/2000/svg" xmlns:xlink="http://www.w3.org/1999/xlink" width="311" height="372" viewBox="0 0 311 372">
  <defs>
    <clipPath id="clip-path">
      <rect id="Rectangle_7876" data-name="Rectangle 7876" width="311" height="372" transform="translate(12333 1456)" fill="#fff" stroke="#707070" stroke-width="1"/>
    </clipPath>
    <clipPath id="clip-path-2">
      <rect id="Rectangle_7874" data-name="Rectangle 7874" width="311" height="446" transform="translate(12333 1456)" fill="#fff" stroke="#707070" stroke-width="1"/>
    </clipPath>
  </defs>
  <g id="Mask_Group_6" data-name="Mask Group 6" transform="translate(-12333 -1456)" clip-path="url(#clip-path)">
    <g id="Group_641" data-name="Group 641">
      <g id="Group_640" data-name="Group 640">
        <g id="Layer_2" data-name="Layer 2" transform="translate(12332.989 1456.003)">
          <g id="Layer_1" data-name="Layer 1">
            <path id="Path_54774" data-name="Path 54774" d="M231.34,60.86c2.23-4,7.42-2.37,10.8-1,2.24,1.31,5.48,2.1,6.27,4.9-4.71-.63-9.43-1.59-14.19-.77C232.53,64.56,229.65,62.64,231.34,60.86Z"/>
            <path id="Path_54775" data-name="Path 54775" d="M179.15,70.73c3-6.56,11.26-10.48,18.25-8.21,1.58.63,3.52,2.68,2,4.37-3.76.46-7.64,0-11.31,1.22C185,68.69,182.38,70.87,179.15,70.73Z"/>
            <path id="Path_54776" data-name="Path 54776" d="M190.72,81.35c5.33-2.3,13.15,2.65,10.81,8.72-3.68,5.88-13.15,5.63-17.94,1.37C180.46,86.52,186.42,82.29,190.72,81.35Zm0,2c-2.15.72-5.58,1.59-5.36,4.45-.64,3,2.76,4,5,4.64,3.45.64,8.72.44,9.78-3.72-.14-4.48-5.67-6.72-9.46-5.41Z"/>
            <path id="Path_54777" data-name="Path 54777" d="M234.65,86.79c-.28-3.7,5-5,7-2.24a4.17,4.17,0,0,1-2.24,5.68C237.59,89.63,234.26,89.61,234.65,86.79Z"/>
            <path id="Path_54778" data-name="Path 54778" d="M188.68,87.19c.33-2.32,3-2.47,4.72-3.28,2.13,1.44,3.41,4.39,2,6.76C193.13,93.71,187.24,90.93,188.68,87.19Z"/>
            <path id="Path_54779" data-name="Path 54779" d="M211.75,122.63c2.13-2,2.24,1.51,3.14,2.78,1,2.13,3.39,2.8,5.33,3.75,1.53-.6,3.32-.75,4.62-1.83,1.08-1.36,1.6-3.17,3.18-4.09a6.3,6.3,0,0,1-4.29,7.16C218.48,132.82,211.23,128.78,211.75,122.63Z"/>
            <path id="Path_54780" data-name="Path 54780" d="M84.73,285h2.21c-.5,5.29-.46,11.47-3.9,15.79C82.88,295.47,85.21,290.36,84.73,285Z"/>
            <path id="Path_54781" data-name="Path 54781" d="M71.18,296.89c2.83-.1,3.51,3.19,4.64,5.18C73.17,303.16,71.65,299,71.18,296.89Z"/>
            <path id="Path_54782" data-name="Path 54782" d="M255.85,417.53c1.24-.89,1.87,2,.32,1.94-4.38,2-8.94,4.2-13.9,4-.26-2.4,2.34-1.82,3.88-2.21C249.64,420.81,252.5,418.49,255.85,417.53Z"/>
            <path id="Path_54783" data-name="Path 54783" d="M252.16,429.36c3.72-.53,7.41-1.53,11.21-1.38l-.71,1.29c-4.19.63-8.43,1.46-12.68,1.09a3.43,3.43,0,0,1,2.18-1Z"/>
            <path id="Path_54784" data-name="Path 54784" d="M278.63,453.61c.63-.52,1.7-2.13,2.6-.92,1.52,1.68,5.69,3.39,3.11,5.91A50.256,50.256,0,0,1,278.63,453.61Z"/>
            <path id="Path_54785" data-name="Path 54785" d="M128.05,489.42c2.53-3.92,4.08-8.83,8.12-11.53-2.14,4.7-4.91,9.17-7,13.92C128.05,491.48,127.21,490.51,128.05,489.42Z"/>
            <path id="Path_54786" data-name="Path 54786" d="M141.83,483.08l2.07.56a71.61,71.61,0,0,0-4.29,14.77l-2.06.08C137.36,493.08,139.77,488,141.83,483.08Z"/>
            <path id="Path_54787" data-name="Path 54787" d="M198,184.34c9.44-1.23,19-1.59,28.33-3.44a49.86,49.86,0,0,1-1.9,10.07c-2.5,8.19-4.71,16.47-6.44,24.86-3.89-6.11-8.93-11.61-11.57-18.44,1,1.35,2,2.64,3.07,3.94.32-.44.94-1.34,1.26-1.78a36.37,36.37,0,0,0-10-11.86A13.51,13.51,0,0,1,198,184.34Z" fill="#fdcc00"/>
            <path id="Path_54788" data-name="Path 54788" d="M158.13,181.57c4.69,2.31,10,2.76,15.14,2.8a121.609,121.609,0,0,0,21.42.19c-.73,1.11-1.46,2.21-2.24,3.27-3.82.57-6.33,3.74-8.9,6.29-3.29,3.69-6.88,7.31-9,11.83a1.27,1.27,0,1,0,2.46.6,112.141,112.141,0,0,1,14.23-17.34l-.12,1.27c-7.25,7.59-11.53,17.47-18.17,25.57C169,204.12,162.05,193.47,158.13,181.57Z" fill="#fdcc00"/>
            <path id="Path_54789" data-name="Path 54789" d="M196.53,187.47c5.17,6.24,7.42,14.31,12.39,20.7,3,3.88,5.88,8,9.42,11.43,3.27-6.61,3.89-14.21,6.94-20.95.22,10.37-.53,20.76-.41,31.14.09,7.71-.2,15.43-.87,23.11-1.15,38.56-1.42,77.14-1.31,115.72-12.78,1.26-25.65,1.71-38.35,3.71-4.29.59-8.58,1.11-12.9,1.33-.92-13.25-.48-26.55-1.47-39.79-.67-14.72-1.51-29.42-2.23-44.13-.12-13.05-2.47-25.93-3-39-.31-7.37-1.58-14.65-2.06-22-.78-11.71-1.91-23.38-2.94-35.06,3,6.31,5.55,12.83,8.22,19.28,1.26,2.71,1.71,6.15,4.25,8,2.27.2,3-2.76,4.17-4.23,5.69-8.55,10.72-17.63,17.55-25.34A46.717,46.717,0,0,0,196.53,187.47ZM196.21,201c-.19,5.58-.09,11.18-.37,16.76-.31,13.37-2.6,26.63-2.44,40,.23,10.64-.21,21.28.24,31.91,1,24.86.68,49.77,2.23,74.61l1.18.91.81-.75c.33-4.89-.41-9.8-.37-14.69-1-18.67-.51-37.4-1.6-56.06-.64-13-.36-25.94-.49-38.9.76-17.65,3.35-35.31,2-53Z" fill="#fdcc00"/>
            <path id="Path_54790" data-name="Path 54790" d="M36.35,259.85c2.34-4.18,4.14-8.71,7.11-12.51C38.07,258.58,33,270,27.33,281.09,29.68,273.76,33.21,266.86,36.35,259.85Z" fill="#f7941d"/>
            <path id="Path_54791" data-name="Path 54791" d="M11.37,405.57A255.669,255.669,0,0,0,24.74,430.2c4,7.64,10.43,13.7,14.25,21.48-4.53-3.47-6.58-9.1-10.44-13.21-4.46-4.63-5.89-11.09-9.45-16.3S13.57,411.26,11.37,405.57Z" fill="#f7941d"/>
          </g>
        </g>
        <g id="Mask_Group_4" data-name="Mask Group 4" clip-path="url(#clip-path-2)">
          <path id="Path_54773" data-name="Path 54773" d="M192.34,7.91C198.62,2.67,207-.84,215.23.17c4.6.79,6.52,5.47,9.07,8.76,1.76.79,3.71-.49,5.49-.8a44.73,44.73,0,0,1,14.4-2.6,9.78,9.78,0,0,1,8.92,7.12c.86,1.56.82,4.34,3.2,4.33,2.67.6,5.73,1,7.52,3.35a15.33,15.33,0,0,1,2.81,9.43c.11,3.61-2.45,6.39-4.38,9.16,1.49,2.86,2.44,6.47.39,9.34-2.59,3.33-6.33,6.2-10.69,6.43a138.233,138.233,0,0,1,3,14.68c1.74,1.82,4.06,3.17,5.19,5.52,3.68,8.26,3.46,18.82-3.09,25.63,0,1.7.05,3.4,0,5.11v.6c-.31,11.65-2.74,23.82-10.19,33.12a32.73,32.73,0,0,1-16.23,11.1c-.38,7.38-1.19,14.74-1.29,22.14,4.23,1.36,8.74,2.51,12,5.79a54.649,54.649,0,0,1,10.77,9.77c4.8,3.13,9.85,5.9,14.46,9.32C273,201.9,280,205.79,285.07,212c8.7,9.31,12.66,21.76,16.1,33.75,3.78,13.77,4.31,28.08,6.22,42.15,1.06,12.64,3.21,25.2,3.07,37.92a205.589,205.589,0,0,1-1.22,32c-.71,13.28-4.57,26.1-6.6,39.2-1.18,7.9-3.63,15.52-6.28,23s-2.75,15.71-6.42,22.82c1.49,29.72,4,59.38,6,89.08,2.92,28.28,5.71,56.58,6.75,85,0,2.12.84,4.83-1.23,6.31-3.58,1-7.32,1-11,1.27,1.27,23.92-4.81,47.38-10.43,70.42C277.56,708,274.47,721,271.43,734c-1.74,9.42-3.63,18.82-5.47,28.22-2.88,10.42-4.59,21.11-7.63,31.48a69,69,0,0,1,17.08,10.89c3.67,3.28,8,6,11.13,9.76,3.09,4-2.12,8.84-6.27,8.12a116.549,116.549,0,0,1-34.79-7.83c-7.34-2.25-14.68-4.52-21.63-7.8-.87,4.75-1.11,9.63-2.39,14.3-1,2.54-4.16,1.89-6.29,2-4.14-.1-8.81.12-12.32-2.41-.41-8.68,1.4-17.38,1.89-26.06.76-12.42,3.1-24.66,4.52-37,3.29-26.79,7.44-53.45,11.87-80.07,2.21-16.68,6.25-33,9.09-49.58l-1.87.49.77-2.19c-4.53-.06-9.22.3-13.57-1.14-1.65-1.57.17-3.55,0-5.39.15-6.19.42-12.37.2-18.55-13.39,1-26.8,1.73-40.16,3-.51,6.49-1.89,13-1.3,19.5-1.81,1.93-4.7,1.72-7.1,1.89-6.45-.13-12.89-.46-19.34-.42-.7,10.85.59,21.71-.17,32.57-1.27,18-1.06,36-1.71,54-.28,24,.14,47.94-.15,71.92,0,8.36,0,16.73.16,25.09.3,2.64-2.43,3.61-4.41,4.37,6.39,4.87,13,9.9,17.15,16.94.77,2.1.6,5.32-1.88,6.2-13.5,1.8-26-4.66-38.76-7.88a32.251,32.251,0,0,1-9.46-4.44c-.27,4.55.06,9.15-.54,13.68a2.56,2.56,0,0,1-2.91,2.37c-3.83-.49-7.91-.91-11.26-3C92,829.21,92,820.9,91.33,812.8c-.68-6.34-.3-12.71-.62-19.06-1.41-24-3.11-47.92-3-71.92,0-23.37-1.19-46.72-.61-70.09-.22-9.45,1.14-18.85.74-28.29-8.07-1.24-16.22-1.72-24.28-3l-.68-.46c-1.56-5.92-1.06-12.13-1.05-18.19.17-12,2.29-24,1.77-36-.1-8.66-.93-17.29-1.05-25.94.14-11.72,1.36-23.38,1.93-35.08.18-7,.2-14,.77-21C54.75,474.6,47,462.94,39,451.68c-3.82-7.78-10.21-13.84-14.25-21.48a255.677,255.677,0,0,1-13.37-24.63c-3.59-7.58-5.44-15.8-7.78-23.81-1.54-8.25-4.3-16.47-3.42-25,1-10.22,4.25-20,6.76-29.94,5-16,13.42-30.6,20.4-45.76C33,270,38.07,258.58,43.46,247.34c5.06-11.09,12.74-20.69,20-30.41a33.11,33.11,0,0,1,13.3-11.46c6-2.61,12-5.27,17.76-8.43,11.21-6.26,23.51-10.12,35.53-14.49,4.24-1.33,7.35-4.79,11.53-6.27a33.371,33.371,0,0,1,13.31-2.34,400.664,400.664,0,0,0-4.06-64.75c-3.3-1.53-7.39-2.41-9.23-5.91-2.29-4-.14-8.91,3.46-11.25-2.7-7.45-2.3-15.52-2.49-23.32a74,74,0,0,1,18.36-49.17c5.3-5.34,11.41-11.15,19.42-11.38,2.95-.54,5.32,1.52,7.92,2.49C189.87,10.26,191,8.84,192.34,7.91Zm0,19c-1.26,1.29-.27,2.49,1.13,2.83,1.65-2.84,4.47-4.59,6.64-6.95a2.4,2.4,0,0,0-2-2.48,24.79,24.79,0,0,0-5.72,6.59ZM187,23.34c-1.26,2.54-4.9,5.7-2.89,8.51,2-2.84,4.26-5.46,6.22-8.31C190.37,21.27,187.57,21.53,187,23.34Zm48.28-.56c-2.63,1.4-5.15,3.41-6.24,6.27,2.69-1,4.69-3.27,7.45-4.11,1.21-.5,2.75-.67,3.24-2.11-1.19-1.48-3.08-.73-4.46-.05Zm-58.06,4.16c-1,2.35-4.26,5.83-1.07,7.79,1.55-3.68,4.07-6.79,6.48-9.94l-.06-1c-2.23-2.72-4.29,1.41-5.36,3.15Zm59,3.38c3.08-.36,6.13-1,9.19-1.51,1-.06,1.43-.56,1.33-1.51C243.08,27.6,239.64,29.08,236.22,30.32ZM164.35,55.65c.26,10,.28,19.95.6,29.92,1.73-.47,3.47-.91,5.23-1.29,1.45-5,4.51-10.37,10-11.52a91.529,91.529,0,0,1,23.09-2.44c4.61.34,10.08,2.18,11.69,7a29.73,29.73,0,0,1,.64,18.06c-2.67,6.71-9.6,10.1-16.07,12.18-.26,1.37-.52,2.75-.79,4.12-2.14-.32-.52-2.56-.58-3.84l-4.92.56c-.39,1.25-.08,3.08-1.74,3.43.14-.88.43-2.64.57-3.52-1.49-.25-3-.53-4.43-.82-.59,1.58-.74,3.45-2.1,4.63a11.47,11.47,0,0,1,.72-4.92c-4.4-1.3-9-2.82-12.12-6.4-3.21-3-4.44-7.47-4.5-11.77-1.56.45-3.11.91-4.66,1.34-.19,4.42.24,9-.79,13.3-.5,2.42-3.76,3.62-5.43,1.56-2-2.95-2.38-6.62-3.17-10-2.77-1.2-6.32-2.11-8.93-.1-2.52,1.32-3.74,4.91-1.65,7.16,2.41,2.46,6.44,2.65,8.69,5.31,1.18,3.11,1.07,6.5,1.67,9.74A365.329,365.329,0,0,1,158.3,178c3.39,1.75,7.27,1.83,11,2.14s7.28.85,11,.89c15.27.2,30.67,0,45.7-3a272.128,272.128,0,0,1,2.14-29.37c3.43-2.68,8.14-3.52,11.35-6.67,11.42-9.67,14.22-25.48,14.6-39.69-1.41.74-2.81,1.48-4.22,2.2l-.36,3H248c.05-.68.16-2,.21-2.73-2,.56-4,1.36-5,3.35-.2-.47-.6-1.42-.79-1.89-2.55-1.11-2.87,1.77-4,3.19v-3.66a21.78,21.78,0,0,1-8-2.53c.69,3.43-1.35,7.38-5.26,7.08s-9.06-.92-11.18-4.56c1.57-2,3.59.37,5.37.83,2.46.92,5.77,1.76,8.09.21.49-7.91-4.33-14.77-8.45-21.11-.06-.64-.19-1.91-.26-2.55,2.43,1.43,3.91,3.91,5.87,5.87.11-5.3-1.15-11.63,3.25-15.66,6.44-6.71,16.58-4.6,24.84-4-.61-4.51-1.37-9-2.36-13.44-.83-3.59-.78-7.49-2.37-10.85-4.48-2.22-9.48-3.06-14.33-4.06-7.7-1.56-15.56-3.12-23.45-2.15C193.84,39.87,176.51,43.94,164.35,55.65ZM229,77.33c-1.47,2.5-.89,5.55-1.22,8.31,3.09-5.2,9.67-7.28,15.41-6.22,3.4,1.44,7.09,5.24,5.25,9.16-3.26,5-10.08,5.13-15.3,3.87-2.82-.44-4.55-3-5.34-5.56,0,3.77,1.52,7.26,2.67,10.78.49,2,2.4,2.84,3.91,3.89l.28-.15a39,39,0,0,0,5,1.28c.53-.72,1.59-2.15,2.11-2.87-.13.8-.41,2.41-.54,3.22l2.76-.31c.49-1,1-1.91,1.57-2.85.2.62.59,1.87.78,2.49,1.26-.58,2.72-1,3.46-2.25l1.48.19c.88-.62,1.78-1.24,2.69-1.85a242.392,242.392,0,0,0-1.09-25.71,82,82,0,0,0-14.6-.64A11.68,11.68,0,0,0,229,77.33Zm-51.81.39c-3.86,3.09-4.67,8.42-4.64,13.09,0,6.07,5.15,10.85,10.61,12.57,1.59.38,3.4,1.52,4.83.14,1.4,1.92,3.82.73,5.75.61,2.1.1,4.41.68,6.3-.58l1.12.44c5.37-1.7,10.89-5.3,12.3-11.11.67-4.92.52-10.15-1.38-14.79-1.22-3.09-4.81-4-7.73-4.52-9.22-.57-18.73.35-27.19,4.15ZM255.56,74c.37,1.73-1,7.4,2.49,5.51C258.23,77.37,256.83,75.6,255.56,74Zm-20,8.3c-2.24.93-6,2.35-5.07,5.42,1.4,3,4.94,3.26,7.79,3.61,3.27.42,7-.9,8.59-3.91.32-2.16-1.57-3.74-3.11-4.89-2.39-1.76-5.49-.69-8.16-.2ZM256.31,84c.16,3.59.4,7.18.74,10.76,2.23-3.39,2.29-7.55,1.95-11.45ZM147.58,181c-3.16,8.57-7.19,16.79-10.78,25.18,5.91,1.33,12,2.5,17.38,5.44-3.69,6-9.14,10.67-13.75,16,2.36,8.79,5,17.5,7.16,26.35,3.53,13.47,12,25.23,13.83,39.2-1.94-.61-2-2.77-2.64-4.31-3.64-11.77-10.39-22.28-13.64-34.2-2.27-9.07-5.42-17.88-7.85-26.9.43-1.65,1.91-2.7,3-3.92,3.45-3.33,6.57-7,9.85-10.45-4.69-2.25-9.94-2.73-14.77-4.49-2.85-.78-1.92-4-1.16-6,2.81-7.2,6.67-13.93,10.07-20.86-3,1.1-6.91,1-9,3.79-2.45,3.12-3.85,6.89-5.84,10.29-3.49,6-4.07,13.11-5.79,19.74-3.06,13.09-3.56,26.57-4.61,39.93-.35,8.77-1.13,17.52-1.27,26.3,5.49-.27,11.52-.3,16.24,2.94,4.29,3.67,5.16,9.59,6.29,14.81,1.44,9.26,2.68,18.62,2.29,28-.26,8,.7,16,0,23.9-.42,2.66-.64,5.58-2.32,7.81-2.61,2.71-6.48,3.63-9.2,6.21-.79.77-2.35,1.35-3.23.47-2-1.45-1.17-4.65.47-6.06,1.3-.32,2.58.28,3.85.53,2.36-1.25,6.06-1.75,6.74-4.81,2-8.62-.25-17.42-.09-26.13.3-9.4-.77-18.75-2-28.05-1-4.85-1.45-10.71-5.68-13.93-4.38-1.94-9.25-2.37-14-2.29-5.08,1-10.73,3.22-12.78,8.44-1.86,5.4-2.15,11.21-2.19,16.88.69,9.68,1.28,19.37,1.47,29.08a79.19,79.19,0,0,0,1.82,15.72c.51,2.29,3.08,2.94,4.78,4.12l1.91-2.38a4.11,4.11,0,0,1,1.88,7.21c-1.55,1.78-3-.44-4-1.61-3.33-1.17-7.27-2.76-8-6.65-3.18-12.49-2.37-25.49-3.58-38.23a58.6,58.6,0,0,1,1.93-24.28c2-6.05,7.54-10.18,13.57-11.65,1.09-27.64.87-55.85,9.11-82.54,1.61-4.49,4.43-8.42,6.32-12.78-10.6,4.16-21.25,8.21-31.79,12.51-7.5,4-15.35,7.21-23,10.91-5.22,2.32-7.71,7.75-11,12.06A160.852,160.852,0,0,0,48,246.55C39.48,263.21,32,280.39,23.39,297c-5.14,11.35-11.1,22.47-14.11,34.64-2.8,11.63-7.39,23.42-5.21,35.58a233.29,233.29,0,0,0,9.21,33.48c6.79,14.83,14.8,29.2,24.88,42,9.33,14.8,19.41,29.32,32.39,41.19,6.16-2.08,12-5,18.29-6.82a203.2,203.2,0,0,0,20.53-6.83c-5.74-6.49-9.15-14.54-14-21.65A457.005,457.005,0,0,1,68,387.88c-3.16-7.09-4.42-14.81-6.68-22.2-1.29-3.54-.55-7.36,0-11,1-7.77,5.59-14.34,8.39-21.51C73,325.78,76,317.6,82.23,312.07l1.26.66c1,3.19-.22,6.7.05,10-1.34,22.29-2.45,44.6-3.07,66.93-.32,6.95,1.81,14.1.2,20.89,3.3,7,6.1,14.13,9.75,20.91s6.55,13.86,11,20.14c3.47,6.08,6.75,12.35,11.46,17.61,3.25-1.42,6.58-2.66,9.89-3.91,1.53-.86,3.09,1.52,1.71,2.58-2.3,1.44-4.92,2.23-7.34,3.43-12.37,6.87-26.54,9.07-39.77,13.78-3.1.8-6.53,3.35-9.55,1,1,15.55-.73,31.13.06,46.69-.26,8.53,1.13,17,.27,25.55q-.77,29.48-1.06,59c10,1.08,20.12,1.18,30.13,2.4,9,.74,18,0,27,1.15,11.35.59,22.72-.11,34.09.2,4.21,0,8.4.56,12.62.4.51-7.59,1.44-15.16,1.66-22.76-.19-18.9.67-37.8.36-56.7-.3-17.44-1.58-34.84-2-52.27,0-21-.31-42-1.21-63,0-15-1.41-29.94-1.7-44.93-.61-26.36-1.49-52.72-3.11-79-.69-11.33-.81-22.7-2.27-34-1.35-10.29-1.31-20.7-2.73-31-1.16-9-1.12-18-2.2-27-.67-10.83-1.25-21.73-3.2-32.4a56,56,0,0,0-6.95,2.58Zm82.73-1.2c-1.36,4.23-.26,8.65-.35,13-.38,20,0,40-1.41,60-.92,24.31-1.16,48.65-1.16,73-.55,13-.29,26-.31,39,.75,12.68,0,25.39.6,38.07.12,9.32.06,18.64,0,28-.43,10.7.51,21.43-.46,32.11-.78,8.95-.47,17.95-1.14,26.9-.57,16.73-2.7,33.35-3.59,50.06-1.23,13.64-.57,27.36-1.61,41-.82,13-1.61,26-1.48,39,12.54,1.83,25.2-.58,37.78.36,5.34.5,10.7.17,16,.63,6,.42,11.94-.49,17.92-.26a34.459,34.459,0,0,0,8.48-.54,18.766,18.766,0,0,1-.84-3.17c-.66-11-1.6-22.07-2.13-33.13-1.05-12.69-2.72-25.33-3.77-38-2.36-19-3.12-38.06-4.82-57.09-.77-18.63-3.27-37.22-2.48-55.9-.05-18.67.43-37.33.25-56-.2-14,.55-28,.16-42-.28-13.31.28-26.64-.32-39.94-1.68-14.3-1-28.7-1.14-43.06,0-2.72-.56-5.58.68-8.13,2.9,4.39,2.17,10.12,2.68,15.14.82,9.67.36,19.39,1.5,29,2,16.57.68,33.29,1.19,49.94-.15,29.69-.48,59.37-.62,89,2.26-9.47,6.51-18.38,8.06-28,1.9-11.08,4.52-22,6.35-33.13.72-8,1.58-15.9,2.08-23.87.38-9.68-.34-19.37-.69-29-1.79-16.72-3.57-33.44-5.46-50.15a131.569,131.569,0,0,0-10.11-35,52.44,52.44,0,0,0-20.38-22.42c-4.25-2.62-8.2-5.67-12.39-8.36a78.781,78.781,0,0,1,6.65,28.95,62,62,0,0,1,0,15.64c-1.46,16.43-2.09,32.94-4.61,49.27a107.168,107.168,0,0,1-4.71,24c4.35,3.2,3.72,9.67,1,13.73-1.89,3-4.47,6.64-8.47,6.25-3.9.26-8-1.77-9.33-5.59-1.87-3.5-.58-7.72,1.69-10.69,2.85-3.61,7.3-5.51,11.73-6.28a91.73,91.73,0,0,0,3.9-21.29c2.74-18.54,3.39-37.28,5.11-55.92-.45-8.75-.57-17.66-3.15-26.12-1.82-7.43-4.95-15.77-12.19-19.43,2.67,4.5,5.56,8.89,8,13.53l-.56,1.11c-4,2.94-8.66,4.62-13.14,6.6l.19.55c4.1,2.23,7.51,5.42,11.12,8.35,1,.81,2.34,1.77,2,3.3-.45,7-3.43,13.54-5.26,20.28-4.61,16.84-10.55,33.31-14.79,50.25-2.38.91-1.9-2.28-1.3-3.54,3.13-8.78,4.62-18,7.4-26.91,1.71-6.2,3.79-12.28,5.34-18.53,2-7.39,5.74-14.39,6.16-22.15-4.6-2.81-8.46-6.71-13.42-8.93-1.64-.54-3.34-3.12-1.19-4.16,4.89-2.29,10.26-3.48,15-6.2-4.1-5.18-7.06-11.14-11-16.46-3.04-2.28-6.25-4.31-9.24-6.66ZM198,184.34a13.51,13.51,0,0,0,2.72,3.35c.64,3.8,3.94,6.38,5.7,9.7,2.64,6.83,7.68,12.33,11.57,18.44,1.73-8.39,3.94-16.67,6.44-24.86a49.862,49.862,0,0,0,1.9-10.07C217,182.75,207.45,183.11,198,184.34Zm-39.88-2.77c3.92,11.9,10.9,22.55,14.81,34.48,6.64-8.1,10.92-18,18.17-25.57l.39,1.94c.28-1.54.59-3.07.95-4.59.78-1.06,1.51-2.16,2.24-3.27a121.607,121.607,0,0,1-21.42-.19c-5.16-.04-10.44-.49-15.13-2.8Zm38.4,5.9a46.72,46.72,0,0,1-2.59,4c-6.83,7.71-11.86,16.79-17.55,25.34-1.18,1.47-1.9,4.43-4.17,4.23-2.54-1.86-3-5.3-4.25-8-2.67-6.45-5.22-13-8.22-19.28,1,11.68,2.16,23.35,2.94,35.06.48,7.35,1.75,14.63,2.06,22,.52,13,2.87,25.9,3,39,.72,14.71,1.56,29.41,2.23,44.13,1,13.24.55,26.54,1.47,39.79,4.32-.22,8.61-.74,12.9-1.33,12.7-2,25.57-2.45,38.35-3.71-.11-38.58.16-77.16,1.31-115.72a222.838,222.838,0,0,0,.87-23.11c-.12-10.38.63-20.77.41-31.14-3.05,6.74-3.67,14.34-6.94,20.95-3.54-3.46-6.38-7.55-9.42-11.43-4.92-6.47-7.22-14.54-12.39-20.78ZM71.59,339.31c-2.53,7.09-6.53,13.89-7.07,21.52.77,8.77,5,16.7,7.6,25l.48.72c1.13,3.59,3,7,4.27,10.62.48-23.16.32-46.34,1.4-69.48C75.1,330.85,73.75,335.43,71.59,339.31ZM187.52,432l1.17,1.14c8.61.18,17-2.43,25.08-5-.06-.48-.19-1.45-.26-1.94C205.05,428.82,196.57,432.61,187.52,432Zm20.16,5.38-1,1.23a70.086,70.086,0,0,0,10.19,1.47c.06-.46.17-1.39.23-1.85-3.1-.23-6.3-.35-9.42-.84Zm-34,9c.65,22.81.27,45.62,1.56,68.4,1.73,28.75.68,57.57.42,86.35,13.33-3,27.1-2.57,40.65-3.69.61-11.83,1.66-23.64,1.59-35.49,0-12.68,1.24-25.3,1.89-37.94a5.15,5.15,0,0,1-1.46-3.21,222.731,222.731,0,0,0-6.3-34.16c-.78-9.73-3-19.27-5.32-28.73-1.29-3.64-2.49-7.48-4.8-10.61-2.57-1.45-5.76-1-8.61-1.38-6.56-.73-13.08,1.18-19.63.46ZM238,634.82c.16.41.5,1.23.67,1.64,4.53,3,10.38,2,15.5,1.73,1.42.15,2.16-2.3.33-2.26C249,636.39,243.2,637.35,238,634.82Zm2.38,10c3.49,4.41,7.7,8.57,13.08,10.56,1.06,1.05,2.25-1.42.87-1.59-2.88-1.41-5.89-2.7-8.22-5-1.84-1.34-3.23-3.68-5.72-3.94ZM99.73,646.66c2.06,3.22,5.32,5.42,8.32,7.69.28-.4.82-1.2,1.09-1.6C106,650.81,103.38,647.76,99.73,646.66Zm-1.06,10.89a33,33,0,0,0,7.11,4.63c1.25.88,2.21-.16,2.5-1.35a71.312,71.312,0,0,1-8.42-4.47Z" transform="translate(12332.989 1456.003)"/>
        </g>
      </g>
    </g>
  </g>
</svg>
