<svg xmlns="http://www.w3.org/2000/svg" xmlns:xlink="http://www.w3.org/1999/xlink" width="388" height="388" viewBox="0 0 388 388">
  <defs>
    <clipPath id="clip-path">
      <rect id="Rectangle_2" data-name="Rectangle 2" width="388" height="388" transform="translate(740 -1645)" fill="#fff" stroke="#707070" stroke-width="1"/>
    </clipPath>
  </defs>
  <g id="Mask_Group_1" data-name="Mask Group 1" transform="translate(-740 1645)" clip-path="url(#clip-path)">
    <g id="_192_health_flatline" data-name="#192_health_flatline" transform="translate(672 -1644.862)">
      <path id="Path_56" data-name="Path 56" d="M519.672,374.64H94.664c-14.728,0-26.7-13.9-26.7-30.98V94.86c0-17.08,11.974-30.98,26.7-30.98h425c14.728,0,26.7,13.9,26.7,30.98v248.8C546.3,360.74,534.4,374.64,519.672,374.64ZM94.664,65.88c-13.732,0-24.82,13-24.82,28.98v248.8c0,16,11.16,28.98,24.892,28.98H519.672c13.732,0,24.892-13,24.892-28.98V94.86c0-16-11.16-28.98-24.892-28.98Z" transform="translate(-67.96 -41.7)" fill="none"/>
      <path id="Path_57" data-name="Path 57" d="M258.12,163.2H365.54v132a10.68,10.68,0,0,1-10.68,10.68h-86a10.68,10.68,0,0,1-10.68-10.68v-132Z" transform="translate(72.454 57.62)" fill="#fff"/>
      <path id="Path_58" data-name="Path 58" d="M366.54,164.2v132a10.7,10.7,0,0,1-10.68,10.7h-86a10.7,10.7,0,0,1-10.68-10.7v-132H366.6m0-2H259.12a2,2,0,0,0-2,2v132a12.7,12.7,0,0,0,12.68,12.7h86a12.7,12.7,0,0,0,12.68-12.7v-132a2,2,0,0,0-2-2Z" transform="translate(71.454 56.62)" fill="#231f20"/>
      <rect id="Rectangle_1" data-name="Rectangle 1" width="107.42" height="52.56" transform="translate(330.574 256.68)" fill="#fccb28"/>
      <path id="Path_108" data-name="Path 108" d="M5.3,0H121.34a5.3,5.3,0,0,1,5.3,5.3V38.5a5.3,5.3,0,0,1-5.3,5.3H5.3A5.3,5.3,0,0,1,0,38.5V5.3A5.3,5.3,0,0,1,5.3,0Z" transform="translate(320.954 177.02)" fill="#fccb28"/>
      <path id="Path_59" data-name="Path 59" d="M375.65,142.3a5.3,5.3,0,0,1,5.3,5.3v33.2a5.3,5.3,0,0,1-5.3,5.3h-116a5.3,5.3,0,0,1-5.3-5.3V147.7a5.3,5.3,0,0,1,5.3-5.4h116m0-2h-116a7.32,7.32,0,0,0-7.3,7.3v33.2a7.32,7.32,0,0,0,7.3,7.3h116a7.32,7.32,0,0,0,7.3-7.3V147.7a7.32,7.32,0,0,0-7.3-7.4Z" transform="translate(66.684 34.72)" fill="#231f20"/>
      <path id="Path_60" data-name="Path 60" d="M259.25,183.31a1,1,0,0,1-1-1V142.89a1,1,0,0,1,1-1,1.02,1.02,0,0,1,1,1v39.42A1,1,0,0,1,259.25,183.31Z" transform="translate(86.348 36.31)" fill="#231f20"/>
      <path id="Path_61" data-name="Path 61" d="M265.8,183.31a1,1,0,0,1-1-1V142.89a1.02,1.02,0,0,1,1-1,1,1,0,0,1,1,1v39.42A1,1,0,0,1,265.8,183.31Z" transform="translate(91.66 36.31)" fill="#231f20"/>
      <path id="Path_62" data-name="Path 62" d="M272.36,183.31a1,1,0,0,1-1-1V142.89a1,1,0,0,1,2,0v39.42A1,1,0,0,1,272.36,183.31Z" transform="translate(96.98 36.31)" fill="#231f20"/>
      <path id="Path_63" data-name="Path 63" d="M278.92,183.31a1,1,0,0,1-1-1V142.89a1,1,0,0,1,1-1,1.02,1.02,0,0,1,1,1v39.42A1,1,0,0,1,278.92,183.31Z" transform="translate(102.3 36.31)" fill="#231f20"/>
      <path id="Path_64" data-name="Path 64" d="M285.5,183.31a1,1,0,0,1-1-1V142.89a1.02,1.02,0,0,1,1-1,1,1,0,0,1,1,1v39.42A1,1,0,0,1,285.5,183.31Z" transform="translate(98.834 36.31)" fill="#231f20"/>
      <path id="Path_65" data-name="Path 65" d="M292.03,183.31a1,1,0,0,1-1-1V142.89a1,1,0,0,1,2,0v39.42A1,1,0,0,1,292.03,183.31Z" transform="translate(105.364 36.31)" fill="#231f20"/>
      <path id="Path_66" data-name="Path 66" d="M298.59,183.31a1,1,0,0,1-1-1V142.89a1,1,0,0,1,1-1,1.02,1.02,0,0,1,1,1v39.42A1,1,0,0,1,298.59,183.31Z" transform="translate(111.924 36.31)" fill="#231f20"/>
      <path id="Path_67" data-name="Path 67" d="M305.14,183.31a1,1,0,0,1-1-1V142.89a1.02,1.02,0,0,1,1-1,1,1,0,0,1,1,1v39.42A1,1,0,0,1,305.14,183.31Z" transform="translate(118.474 36.31)" fill="#231f20"/>
      <path id="Path_68" data-name="Path 68" d="M311.7,183.31a1,1,0,0,1-1-1V142.89a1,1,0,1,1,2,0v39.42A1,1,0,0,1,311.7,183.31Z" transform="translate(125.034 36.31)" fill="#231f20"/>
      <path id="Path_69" data-name="Path 69" d="M391.48,106.35v297.2H104.04V53.79H335.62Z" transform="translate(-31.88 -51.79)" fill="#fff"/>
      <path id="Path_70" data-name="Path 70" d="M336.66,54.79l55.86,52.56v297.2H105V54.79H336.66m0-2H105a2,2,0,0,0-2,2V404.55a2,2,0,0,0,2,2H392.52a2,2,0,0,0,2-2V107.35a2,2,0,0,0-.62-1.46L338.02,53.33a2,2,0,0,0-1.36-.54Z" transform="translate(-32.92 -52.79)" fill="#231f20"/>
      <path id="Path_71" data-name="Path 71" d="M216.32,85.15h-16v-16a4.28,4.28,0,0,0-4.28-4.3H185.72a4.3,4.3,0,0,0-4.36,4.3v16h-16A4.3,4.3,0,0,0,161,89.53V99.85a4.28,4.28,0,0,0,4.3,4.28h16v16a4.28,4.28,0,0,0,4.3,4.28h10.32a4.28,4.28,0,0,0,4.28-4.28v-16h16a4.28,4.28,0,0,0,4.28-4.28V89.53A4.28,4.28,0,0,0,216.32,85.15Z" transform="translate(81.008 -22.43)" fill="#b4bcc2"/>
      <path id="Path_72" data-name="Path 72" d="M252.48,110.1H124.14a1,1,0,1,1,0-2H252.48a1.02,1.02,0,0,1,1,1A1,1,0,0,1,252.48,110.1Z" transform="translate(-26.58 2.52)" fill="#d1d3d4"/>
      <path id="Path_73" data-name="Path 73" d="M250.46,110.1H206.9a1,1,0,0,1-1-1,1.02,1.02,0,0,1,1-1h43.56a1.02,1.02,0,0,1,1,1A1,1,0,0,1,250.46,110.1Z" transform="translate(41.542 2.52)" fill="#d1d3d4"/>
      <path id="Path_74" data-name="Path 74" d="M223.36,124H124.14a1,1,0,1,1,0-2h99.22a1,1,0,0,1,0,2Z" transform="translate(-25.638 16.42)" fill="#d1d3d4"/>
      <path id="Path_75" data-name="Path 75" d="M245.62,124H206.9a1,1,0,1,1,0-2h38.72a1,1,0,0,1,0,2Z" transform="translate(41.826 16.42)" fill="#d1d3d4"/>
      <path id="Path_76" data-name="Path 76" d="M237.82,137.84H124.14a1,1,0,0,1,0-2H237.82a1,1,0,0,1,0,2Z" transform="translate(-26.09 30.26)" fill="#d1d3d4"/>
      <path id="Path_77" data-name="Path 77" d="M250.46,137.84H206.9a1.02,1.02,0,0,1-1-1,1,1,0,0,1,1-1h43.56a1,1,0,0,1,1,1A1.02,1.02,0,0,1,250.46,137.84Z" transform="translate(41.542 30.26)" fill="#d1d3d4"/>
      <path id="Path_78" data-name="Path 78" d="M223.36,151.71H124.14a1,1,0,1,1,0-2h99.22a1,1,0,0,1,0,2Z" transform="translate(-25.638 44.13)" fill="#d1d3d4"/>
      <path id="Path_79" data-name="Path 79" d="M243.2,151.71H206.9a1.02,1.02,0,0,1-1-1,1,1,0,0,1,1-1h36.3a1,1,0,1,1,0,2Z" transform="translate(41.964 44.13)" fill="#d1d3d4"/>
      <path id="Path_80" data-name="Path 80" d="M252.48,165.57H124.14a1,1,0,1,1,0-2H252.48a1.02,1.02,0,0,1,1,1A1,1,0,0,1,252.48,165.57Z" transform="translate(-26.58 57.99)" fill="#d1d3d4"/>
      <path id="Path_81" data-name="Path 81" d="M250.46,165.57H206.9a1,1,0,0,1-1-1,1.02,1.02,0,0,1,1-1h43.56a1.02,1.02,0,0,1,1,1A1,1,0,0,1,250.46,165.57Z" transform="translate(41.542 57.99)" fill="#d1d3d4"/>
      <path id="Path_82" data-name="Path 82" d="M209.18,179.44H124.14a1,1,0,1,1,0-2h85.04a1,1,0,0,1,0,2Z" transform="translate(-25.226 71.86)" fill="#d1d3d4"/>
      <path id="Path_83" data-name="Path 83" d="M250.46,179.44H206.9a1,1,0,0,1-1-1,1.02,1.02,0,0,1,1-1h43.56a1.02,1.02,0,0,1,1,1A1,1,0,0,1,250.46,179.44Z" transform="translate(41.542 71.86)" fill="#d1d3d4"/>
      <path id="Path_84" data-name="Path 84" d="M337.97,194.51H122.55a1,1,0,1,1,0-2H337.97a1,1,0,0,1,0,2Z" transform="translate(-31.528 86.93)" fill="#fccb28"/>
      <path id="Path_85" data-name="Path 85" d="M252.02,208.5H208.5a1,1,0,0,1,0-2h43.54a1,1,0,1,1-.02,2Z" transform="translate(42.814 100.92)" fill="#d1d3d4"/>
      <path id="Path_86" data-name="Path 86" d="M219.83,53.79v51.96h55.86" transform="translate(76.024 -47.65)" fill="#231f20"/>
      <path id="Path_87" data-name="Path 87" d="M296.834,231.7a14.14,14.14,0,0,1-14.14,14.12h-69.46a14.14,14.14,0,0,1,0-28.26h69.46a14.16,14.16,0,0,1,14.14,14.14Z" transform="translate(33.31 111.98)" fill="#fff"/>
      <path id="Path_88" data-name="Path 88" d="M283.676,218.565a14.14,14.14,0,1,1,0,28.26h-69.46a14.14,14.14,0,0,1,0-28.26h69.46m0-2h-69.46a16.14,16.14,0,0,0,0,32.26h69.46a16.14,16.14,0,1,0,0-32.26Z" transform="translate(32.234 110.975)" fill="#231f20"/>
      <path id="Path_89" data-name="Path 89" d="M247.974,217.56s-4.4,2.42-4.4,14.14c0,10.84,4.4,14.12,4.4,14.12h-34.74a14.14,14.14,0,0,1,0-28.26Z" transform="translate(36.404 111.98)" fill="#fccb28"/>
      <path id="Path_90" data-name="Path 90" d="M214.882,244.23a14.14,14.14,0,0,0,14.48,13.78l69.44-1.68a14.14,14.14,0,1,0-.68-28.26l-69.44,1.68A14.16,14.16,0,0,0,214.882,244.23Z" transform="translate(44.968 122.47)" fill="#fff"/>
      <path id="Path_91" data-name="Path 91" d="M299.029,229.09a14.14,14.14,0,0,1,.34,28.26l-69.44,1.68h-.24a14.142,14.142,0,1,1-.34-28.281l69.44-1.679h.34m0-2h-.38l-69.46,1.68a16.14,16.14,0,0,0,.4,32.22h.4l69.44-1.68a16.14,16.14,0,0,0-.4-32.26Z" transform="translate(44.333 121.45)" fill="#231f20"/>
      <path id="Path_92" data-name="Path 92" d="M239.14,228.91a25.3,25.3,0,0,1,4.62,13.72,33.46,33.46,0,0,1-4,14.54l34.72-.84a14.14,14.14,0,1,0-.68-28.26Z" transform="translate(67.636 122.47)" fill="#fccb28"/>
      <path id="Path_93" data-name="Path 93" d="M210.61,229.54v12c0,6.64-14.46,12-32.32,12s-32.3-5.4-32.3-12v-12Z" transform="translate(-6.678 123.96)" fill="#231f20"/>
      <path id="Path_94" data-name="Path 94" d="M211.6,230.54v12c0,6.64-14.46,12-32.32,12s-32.3-5.4-32.3-12v-12H211.6m0-2H147a2,2,0,0,0-2,2v12c0,9.12,17.68,14,34.3,14s34.32-4.92,34.32-14v-12a2,2,0,0,0-2-2Z" transform="translate(-7.6 122.96)" fill="#231f20"/>
      <ellipse id="Ellipse_17" data-name="Ellipse 17" cx="32.32" cy="12.04" rx="32.32" ry="12.04" transform="translate(139.294 341.46)" fill="#fff"/>
      <path id="Path_95" data-name="Path 95" d="M179.29,224.53c17.86,0,32.32,5.38,32.32,12s-14.46,12-32.32,12-32.3-5.38-32.3-12,14.46-12,32.3-12m0-2c-16.62,0-34.3,4.92-34.3,14s17.68,14,34.3,14,34.32-4.92,34.32-14S195.93,222.53,179.29,222.53Z" transform="translate(-7.608 116.95)" fill="#231f20"/>
      <path id="Path_96" data-name="Path 96" d="M184.933,250.832a1,1,0,0,1-.68-.26l-28.48-25.8a1,1,0,1,1,1.36-1.48l28.46,25.8a1,1,0,0,1,0,1.42.98.98,0,0,1-.66.32Z" transform="translate(2.039 117.448)" fill="#231f20"/>
      <path id="Path_97" data-name="Path 97" d="M112.58,234.18v12c0,6.66,14.48,12,32.32,12s32.32-5.38,32.32-12v-12Z" transform="translate(-32.918 128.6)" fill="#231f20"/>
      <path id="Path_98" data-name="Path 98" d="M178.22,235.18v12c0,6.66-14.48,12-32.32,12s-32.32-5.38-32.32-12v-12h64.64m0-2H113.58a2,2,0,0,0-2,2v12c0,9.12,17.68,14,34.32,14s34.32-4.92,34.32-14v-12a2,2,0,0,0-2-2Z" transform="translate(-33.784 127.6)" fill="#231f20"/>
      <ellipse id="Ellipse_18" data-name="Ellipse 18" cx="32.32" cy="12.04" rx="32.32" ry="12.04" transform="translate(79.662 350.74)" fill="#fff"/>
      <path id="Path_99" data-name="Path 99" d="M145.9,229.16c17.84,0,32.32,5.38,32.32,12s-14.48,12-32.32,12-32.32-5.38-32.32-12,14.48-12,32.32-12m0-2c-16.64,0-34.32,4.92-34.32,14s17.68,14,34.32,14,34.32-4.92,34.32-14S162.54,227.16,145.9,227.16Z" transform="translate(-33.784 121.58)" fill="#231f20"/>
      <path id="Path_100" data-name="Path 100" d="M146.6,252.842a1.02,1.02,0,0,1-.72-.3l-22.54-23.18a1,1,0,0,1,1.44-1.4l22.54,23.18a1,1,0,0,1,0,1.42A.98.98,0,0,1,146.6,252.842Z" transform="translate(-23.748 122.078)" fill="#231f20"/>
      <path id="Path_101" data-name="Path 101" d="M129.83,219.35v12c0,6.64,14.46,12,32.32,12s32.3-5.4,32.3-12v-12Z" transform="translate(-19.37 113.77)" fill="#231f20"/>
      <path id="Path_102" data-name="Path 102" d="M195.45,220.35v12c0,6.64-14.46,12-32.3,12s-32.32-5.4-32.32-12v-12h64.62m0-2H130.83a2,2,0,0,0-2,2v12c0,9.12,17.68,14,34.32,14s34.3-4.92,34.3-14v-12A2,2,0,0,0,195.45,218.35Z" transform="translate(-20.268 112.77)" fill="#231f20"/>
      <ellipse id="Ellipse_19" data-name="Ellipse 19" cx="32.32" cy="12.04" rx="32.32" ry="12.04" transform="translate(110.46 321.08)" fill="#fff"/>
      <path id="Path_103" data-name="Path 103" d="M163.16,214.33c17.84,0,32.3,5.4,32.3,12s-14.46,12-32.3,12-32.32-5.4-32.32-12,14.46-12,32.32-12m0-2c-16.64,0-34.32,4.92-34.32,14s17.68,14,34.32,14,34.3-4.92,34.3-14S179.78,212.33,163.16,212.33Z" transform="translate(-20.26 106.75)" fill="#231f20"/>
      <path id="Path_104" data-name="Path 104" d="M135.235,237.507a1,1,0,0,1-.5-1.86l38.8-22.34a1.02,1.02,0,0,1,1.38.36,1,1,0,0,1-.38,1.36l-38.78,22.36A1.14,1.14,0,0,1,135.235,237.507Z" transform="translate(-15.207 107.593)" fill="#231f20"/>
      <path id="Path_105" data-name="Path 105" d="M354.7,146.2H263.4a1,1,0,0,1-1-1V89.5a1,1,0,0,1,1-1h91.3a1.02,1.02,0,0,1,1,1v55.62a1.02,1.02,0,0,1-1,1.08Zm-90.3-2h89.3V90.58H264.4Z" transform="translate(-165.266 -65.08)" fill="#d1d3d4"/>
      <path id="Path_106" data-name="Path 106" d="M328.64,99H272.36a1,1,0,0,1,0-2h56.28a1,1,0,0,1,0,2Z" transform="translate(-156.306 -56.58)" fill="#d1d3d4"/>
      <path id="Path_107" data-name="Path 107" d="M314.76,107.84h-42.4a1,1,0,0,1,0-2h42.4a1,1,0,0,1,0,2Z" transform="translate(-156.306 -47.74)" fill="#d1d3d4"/>
    </g>
  </g>
</svg>
