<svg xmlns="http://www.w3.org/2000/svg" width="19.163" height="19.163" viewBox="0 0 19.163 19.163"><defs><style>.a{fill:#fbbb00;}.b{fill:#518ef8;}.c{fill:#28b446;}.d{fill:#f14336;}</style></defs><path class="a" d="M4.247,144.674l-.667,2.49-2.438.052a9.6,9.6,0,0,1-.071-8.947h0l2.171.4.951,2.158a5.718,5.718,0,0,0,.054,3.85Z" transform="translate(0 -133.093)"/><path class="b" d="M270.832,208.176a9.578,9.578,0,0,1-3.416,9.262h0l-2.734-.139-.387-2.415a5.711,5.711,0,0,0,2.457-2.916h-5.124v-3.791h9.2Z" transform="translate(-251.836 -200.384)"/><path class="c" d="M44.947,314.882h0a9.585,9.585,0,0,1-14.438-2.931l3.105-2.542a5.7,5.7,0,0,0,8.212,2.918Z" transform="translate(-29.367 -297.828)"/><path class="d" d="M43.25,2.206l-3.1,2.541a5.7,5.7,0,0,0-8.4,2.984L28.625,5.175h0A9.584,9.584,0,0,1,43.25,2.206Z" transform="translate(-27.553)"/></svg>