<svg xmlns="http://www.w3.org/2000/svg" width="24.233" height="24.241" viewBox="0 0 24.233 24.241"><defs><style>.a{fill:#e00500;}.b{fill:#fff;}</style></defs><path class="a" d="M310.514,231.079a12.117,12.117,0,1,1-12.025-12.137A12.108,12.108,0,0,1,310.514,231.079ZM303.373,220.1a1.173,1.173,0,0,0-.221-.037c-.486.011-.977-.011-1.458.048a11.87,11.87,0,0,0-6.036,2.506,10.063,10.063,0,0,0-3.863,6.674,7.785,7.785,0,0,0,.815,4.837,6.744,6.744,0,0,0,6.511,3.64,6.155,6.155,0,0,0,3.652-1.557,6.447,6.447,0,0,0,2.1-6.21,5.36,5.36,0,0,0-2.315-3.58,8.423,8.423,0,0,0-2.729-1.2c-.149-.039-.223-.1-.206-.259a9.2,9.2,0,0,1,.124-1.07,4.9,4.9,0,0,1,2.363-3.2A13.289,13.289,0,0,1,303.373,220.1Z" transform="translate(-286.281 -218.941)"/><path class="b" d="M441.005,248.411a13.285,13.285,0,0,0-1.267.591,4.9,4.9,0,0,0-2.363,3.2,9.2,9.2,0,0,0-.124,1.07c-.017.154.058.22.206.259a8.422,8.422,0,0,1,2.729,1.2,5.36,5.36,0,0,1,2.315,3.58,6.447,6.447,0,0,1-2.1,6.21,6.155,6.155,0,0,1-3.652,1.557,6.744,6.744,0,0,1-6.511-3.64,7.785,7.785,0,0,1-.815-4.837,10.063,10.063,0,0,1,3.863-6.674,11.87,11.87,0,0,1,6.036-2.506c.481-.059.972-.037,1.458-.048A1.174,1.174,0,0,1,441.005,248.411Z" transform="translate(-423.913 -247.256)"/></svg>